<?xml version="1.0" encoding="utf-8"?>
<!-- Generator: Adobe Illustrator 23.0.1, SVG Export Plug-In . SVG Version: 6.00 Build 0)  -->
<svg version="1.0" xmlns="http://www.w3.org/2000/svg" xmlns:xlink="http://www.w3.org/1999/xlink" x="0px" y="0px" width="165px"
	 height="380px" viewBox="0 0 165 380" enable-background="new 0 0 165 380" xml:space="preserve">
<symbol  id="New_Symbol_1" viewBox="-14.00002 -14 28 28">
	<g>
		<g>
			<path fill="#383838" d="M-0.00002-13.75c-0.74023,0-1.48828,0.06055-2.22266,0.18066
				C-2.584-13.50977-2.8467-13.19727-2.8467-12.8252c0,0.19922-0.07227,0.28711-0.1748,0.31152
				c-1.29883,0.31152-2.54199,0.8252-3.69336,1.52637c-0.03711,0.02344-0.0791,0.03516-0.12109,0.03516
				c-0.05762,0-0.1123-0.02246-0.15332-0.06348c-0.20801-0.20801-0.40332-0.28906-0.60254-0.28906
				c-0.15723,0-0.30664,0.04785-0.43262,0.13867c-0.60156,0.43164-1.17285,0.91699-1.69824,1.44336
				c-0.52637,0.52539-1.01172,1.09668-1.44336,1.69824c-0.21094,0.29297-0.17578,0.70898,0.08301,0.96777
				c0.12695,0.12695,0.1377,0.23926,0.08203,0.3291c-0.70996,1.14941-1.23242,2.39551-1.55273,3.70605
				c-0.02441,0.10352-0.1123,0.1748-0.21289,0.1748c-0.42969,0-0.74219,0.26172-0.80273,0.62305
				C-13.68947-1.48828-13.75002-0.74023-13.75002,0c0,0.75195,0.0625,1.51172,0.18652,2.25586
				c0.05664,0.3418,0.35254,0.59082,0.70508,0.59082c0.16602,0,0.25391,0.07227,0.27832,0.17676
				c0.30957,1.31738,0.82813,2.57715,1.53906,3.74512c0.05664,0.0918,0.04492,0.20117-0.02734,0.27344
				c-0.27344,0.27344-0.30859,0.68945-0.09766,0.98242c0.43164,0.60156,0.91699,1.17285,1.44336,1.69824
				c0.52539,0.52637,1.09668,1.01172,1.69824,1.44336c0.12598,0.09082,0.27539,0.13867,0.43262,0.13867
				c0.19922,0,0.39453-0.08105,0.53516-0.22168c0.04102-0.04102,0.0957-0.06348,0.1543-0.06348
				c0.04297,0,0.08496,0.01172,0.12207,0.03516c1.16992,0.72266,2.43652,1.25098,3.76758,1.56836
				c0.09766,0.02344,0.16602,0.10645,0.16602,0.20215c0,0.37207,0.2627,0.68555,0.625,0.74414
				C-1.4883,13.68945-0.74025,13.75-0.00002,13.75s1.48828-0.06055,2.22168-0.18066c0.3623-0.05859,0.625-0.37207,0.625-0.74414
				c0-0.0957,0.06836-0.17871,0.16602-0.20215c1.33105-0.31738,2.59766-0.8457,3.76758-1.56836
				c0.03711-0.02344,0.0791-0.03516,0.12207-0.03516c0.05859,0,0.11328,0.02246,0.1543,0.06348
				c0.14063,0.14063,0.33594,0.22168,0.53516,0.22168c0.15723,0,0.30664-0.04785,0.43262-0.13867
				c1.21387-0.87402,2.27051-1.93066,3.1416-3.14063c0.21094-0.29395,0.17578-0.70996-0.08301-0.96875
				c-0.08594-0.08594-0.09766-0.19824-0.04297-0.28711c0.71191-1.16895,1.23047-2.42871,1.54004-3.74609
				c0.02441-0.10449,0.1123-0.17676,0.21387-0.17676c0.40332,0,0.71582-0.2627,0.77539-0.62402
				C13.68944,1.48828,13.74998,0.74023,13.74998,0s-0.06055-1.48828-0.18066-2.22266
				c-0.05957-0.36133-0.37207-0.62402-0.74414-0.62402c-0.15918,0-0.24707-0.07129-0.27148-0.17383
				c-0.32031-1.31152-0.84277-2.55762-1.55273-3.70703c-0.05566-0.08984-0.04492-0.20215,0.02734-0.27441
				c0.31738-0.31836,0.35156-0.72559,0.1377-1.02246c-0.87109-1.21094-1.92773-2.26758-3.14063-3.1416
				c-0.12695-0.09082-0.27637-0.13867-0.43359-0.13867c-0.19922,0-0.39453,0.08105-0.53516,0.22168
				c-0.1084,0.1084-0.16309,0.13086-0.2207,0.13086c-0.04199,0-0.08398-0.01172-0.12012-0.03418
				c-1.15234-0.70215-2.39551-1.21582-3.69336-1.52734c-0.10352-0.02441-0.17578-0.1123-0.17578-0.21387
				c0-0.46973-0.2627-0.78223-0.62402-0.8418C1.48827-13.68945,0.74022-13.75-0.00002-13.75z"/>
			<g>
				<path fill="#141414" d="M-0.00002,13.5c0.74316,0,1.47192-0.06189,2.18213-0.17798
					c0.2406-0.03931,0.41504-0.25269,0.41504-0.49646c0-0.2146,0.14917-0.39624,0.35779-0.44604
					c1.32422-0.31653,2.56702-0.84167,3.6936-1.53748c0.07886-0.04871,0.16699-0.07275,0.25427-0.07275
					c0.12061,0,0.23962,0.04602,0.3302,0.1366c0.09778,0.0979,0.22852,0.14905,0.3595,0.14905
					c0.09998,0,0.2002-0.02991,0.28601-0.09167c1.18701-0.85449,2.22974-1.89709,3.08447-3.08423
					c0.14258-0.19812,0.11536-0.47327-0.05725-0.646l-0.01392-0.01392c-0.15503-0.15515-0.17932-0.39355-0.06506-0.58081
					c0.6842-1.12195,1.20032-2.3573,1.51001-3.67285c0.05054-0.2146,0.23694-0.36841,0.4574-0.36841l0.03137,0.00012
					c0.24377,0,0.45715-0.17444,0.49658-0.41504C13.43834,1.4718,13.49998,0.74316,13.49998,0
					c0-0.74329-0.06165-1.4718-0.17786-2.18213c-0.03943-0.24072-0.25281-0.41504-0.49658-0.41504h-0.05872
					c-0.21899,0-0.40466-0.15173-0.45654-0.3645c-0.31787-1.302-0.83679-2.52466-1.52222-3.63416
					c-0.11572-0.1875-0.09216-0.42737,0.0636-0.58325l0.05408-0.05408c0.17261-0.17273,0.19983-0.44788,0.05713-0.646
					c-0.85461-1.18701-1.89722-2.22949-3.08411-3.08398c-0.08594-0.06177-0.18616-0.09167-0.28638-0.09167
					c-0.13086,0-0.2616,0.05103-0.35938,0.1488l-0.06738,0.0675c-0.09045,0.09045-0.20923,0.13635-0.32971,0.13635
					c-0.08618,0-0.17322-0.02356-0.25134-0.07117c-1.10706-0.67505-2.32483-1.18628-3.62097-1.49707
					c-0.21362-0.05127-0.36646-0.2373-0.36646-0.45703v-0.09814c0-0.24377-0.17432-0.45715-0.41504-0.49646
					C1.47191-13.43823,0.74315-13.5-0.00002-13.5s-1.47192,0.06177-2.18213,0.17798
					c-0.2406,0.03931-0.41504,0.25269-0.41504,0.49646v0.09814c0,0.21973-0.15271,0.40576-0.36646,0.45703
					c-1.29614,0.31079-2.51392,0.82202-3.62097,1.49707c-0.07813,0.04761-0.16516,0.07117-0.25134,0.07117
					c-0.12048,0-0.23926-0.0459-0.32971-0.13635l-0.06738-0.0675c-0.09778-0.09778-0.22852-0.14893-0.3595-0.14893
					c-0.1001,0-0.20044,0.02991-0.28625,0.09167c-0.59363,0.42725-1.15112,0.90137-1.66724,1.41736
					c-0.51587,0.51575-0.98975,1.07336-1.41699,1.66687c-0.14258,0.19812-0.11536,0.47327,0.05725,0.646l0.05408,0.05408
					c0.15576,0.15588,0.17944,0.39575,0.0636,0.58325c-0.68542,1.1095-1.20435,2.33203-1.52222,3.63403
					c-0.05188,0.21277-0.23755,0.3645-0.45642,0.3645h-0.05884c-0.24377,0-0.45715,0.17432-0.49646,0.41504
					C-13.43837-1.4718-13.50002-0.74329-13.50002,0c0,0.75452,0.0636,1.4939,0.18323,2.2146
					c0.03687,0.2218,0.23352,0.38245,0.45837,0.38245h0.06421c0.22046,0,0.40686,0.15381,0.4574,0.36841
					c0.30969,1.31555,0.82581,2.5509,1.51001,3.67285c0.11426,0.18726,0.08997,0.42566-0.06506,0.58081l-0.01392,0.01392
					c-0.17261,0.17261-0.19983,0.44775-0.05725,0.64587c0.42712,0.59363,0.90112,1.15112,1.41699,1.66699
					c0.51611,0.51587,1.07361,0.98999,1.66724,1.41736c0.08582,0.06177,0.18604,0.09167,0.28613,0.09167
					c0.13098,0,0.26184-0.05127,0.35962-0.14905c0.09058-0.09058,0.20959-0.1366,0.33032-0.1366
					c0.08716,0,0.17529,0.02405,0.25415,0.07275c1.12659,0.6958,2.36938,1.22095,3.6936,1.53748
					c0.20862,0.0498,0.35791,0.23145,0.35791,0.44604c-0.00012,0.2439,0.17432,0.45728,0.41504,0.49658
					C-1.4717,13.43823-0.74306,13.5-0.00002,13.5 M-0.00002,14c-0.75269,0-1.51392-0.06201-2.2627-0.18445
					c-0.48364-0.07898-0.83459-0.49536-0.83435-0.99023c-1.32959-0.28345-2.62158-0.82129-3.81421-1.55786
					c-0.15601,0.17969-0.41589,0.28748-0.6814,0.28748c-0.20935,0-0.4093-0.06433-0.57825-0.18579
					c-0.61292-0.44141-1.19446-0.93579-1.72864-1.4696c-0.53369-0.53381-1.02808-1.11536-1.46936-1.72864
					c-0.28662-0.39819-0.24048-0.94128,0.10962-1.29138c-0.71948-1.1698-1.24756-2.45459-1.56421-3.79944l-0.03491,0.01697
					c-0.47437,0-0.87451-0.33667-0.95166-0.80042C-13.93605,1.53699-14.00002,0.7644-14.00002,0
					c0-0.75378,0.06213-1.51514,0.18457-2.26294c0.07886-0.48328,0.49524-0.83423,0.98987-0.83423h0.05884
					c0.29651-1.31775,0.82898-2.58899,1.55322-3.76135l-0.04578-0.02087c-0.3501-0.35034-0.39612-0.89355-0.10962-1.29175
					c0.44214-0.61414,0.93652-1.19556,1.46936-1.72839c0.53418-0.53394,1.11572-1.02844,1.72864-1.4696
					c0.16895-0.12146,0.3689-0.18579,0.57837-0.18579c0.26526,0,0.52515,0.10767,0.71289,0.29529l0.06787,0.06799
					c1.13916-0.72339,2.40588-1.24707,3.73157-1.56494l-0.01697-0.06897c0-0.49463,0.35095-0.91089,0.83447-0.98987
					C-1.51454-13.93787-0.75319-14-0.00002-14s1.51453,0.06213,2.26282,0.18457c0.4834,0.07886,0.83435,0.49524,0.83435,0.98987
					v0.09814c1.30872,0.2887,2.57544,0.81238,3.74768,1.52722l0.0343-0.05908c0.18823-0.18799,0.448-0.29553,0.71326-0.29553
					c0.20947,0,0.40942,0.06421,0.57837,0.18579c1.23389,0.88831,2.30981,1.96411,3.19788,3.19775
					c0.28674,0.39807,0.24084,0.94128-0.10925,1.2915l-0.0542,0.05432c0.73254,1.13916,1.26501,2.4104,1.59082,3.74524
					l0.02954-0.01697c0.49451,0,0.91089,0.35083,0.98999,0.83423C13.93797-1.51489,13.99998-0.75354,13.99998,0
					s-0.06201,1.51489-0.18445,2.26282c-0.07922,0.48352-0.49561,0.83435-0.98999,0.83435
					c-0.31873,1.32776-0.8468,2.61255-1.5719,3.80151c0.35571,0.33105,0.40173,0.87427,0.11523,1.27246
					c-0.88843,1.23376-1.96448,2.30969-3.19824,3.19788c-0.16882,0.12158-0.36865,0.18579-0.57812,0.18591
					c-0.2655,0-0.52539-0.10779-0.71313-0.29565c-1.16077,0.74475-2.45276,1.28259-3.80823,1.60657
					c0.026,0.45435-0.32495,0.87061-0.80847,0.94958C1.51366,13.93787,0.75243,14-0.00002,14L-0.00002,14z"/>
			</g>
		</g>
		<path fill="#424242" d="M13.32209,2.18211c-0.03937,0.24064-0.25274,0.41498-0.49658,0.41498l-2.09826,0
			c-0.41508,0-0.78974,0.26085-0.92004,0.65495C9.64928,3.72968,9.45779,4.19167,9.23489,4.63552
			c-0.18636,0.37111-0.10643,0.82005,0.1872,1.1137l1.4837,1.4838c0.17262,0.17263,0.19986,0.44779,0.05721,0.64591
			c-0.85468,1.18705-1.89728,2.22962-3.08422,3.0842c-0.19808,0.14261-0.47317,0.11537-0.64575-0.05723l-1.48365-1.4838
			C5.45574,9.12843,5.00676,9.04847,4.63563,9.23485C4.1917,9.45778,3.7297,9.64926,3.25204,9.8072
			C2.85795,9.93752,2.5971,10.31217,2.5971,10.72725l0,2.09825c0,0.24391-0.17441,0.4573-0.41513,0.49662
			c-0.71031,0.11604-1.43897,0.17784-2.18199,0.17784s-1.47167-0.0618-2.18199-0.17784
			c-0.24072-0.03932-0.41513-0.25272-0.41513-0.49662l0-2.09825c0-0.41508-0.26084-0.78973-0.65493-0.92004
			C-3.72968,9.64927-4.19162,9.45781-4.63543,9.2349c-0.37112-0.1864-0.82009-0.10647-1.11376,0.18719l-1.48387,1.48382
			c-0.17262,0.17261-0.44775,0.19982-0.64587,0.0572C-8.47254,10.53578-9.03,10.06179-9.54598,9.54594
			c-0.51595-0.51595-0.9899-1.07349-1.41708-1.66705c-0.14258-0.19811-0.11535-0.4732,0.05724-0.6458l1.48375-1.4839
			c0.2936-0.29363,0.37354-0.74253,0.18722-1.11362c-0.22287-0.44389-0.41432-0.90589-0.57228-1.38356
			c-0.13032-0.39408-0.50497-0.65492-0.92004-0.65492l-2.1098,0c-0.23727,0-0.44483-0.16964-0.48329-0.40378
			c-0.11726-0.71387-0.17975-1.44623-0.17975-2.19334c0-0.74324,0.06169-1.47172,0.17789-2.18212
			c0.03936-0.24065,0.25274-0.415,0.49658-0.415l2.09828,0c0.41508,0,0.78973-0.26084,0.92004-0.65493
			C-9.64929-3.72969-9.4578-4.19166-9.2349-4.63552c0.18636-0.37111,0.10644-0.82004-0.18719-1.11369l-1.48373-1.48387
			c-0.17259-0.17261-0.19982-0.44769-0.05724-0.64581c0.42717-0.59356,0.90113-1.15117,1.41707-1.66698
			c0.51602-0.51602,1.07378-0.99017,1.66717-1.41733c0.19809-0.1426,0.47315-0.11537,0.64575,0.05722l1.48388,1.48383
			c0.29366,0.29365,0.74262,0.37358,1.11374,0.1872c0.44382-0.2229,0.90575-0.41434,1.38337-0.57226
			c0.3941-0.13031,0.65496-0.50496,0.65496-0.92005l0-2.09831c0-0.24386,0.17435-0.45722,0.41502-0.49656
			c0.71017-0.11608,1.43895-0.17791,2.1821-0.17791c0.74301,0,1.47167,0.0618,2.18199,0.17784
			c0.24072,0.03932,0.41513,0.25272,0.41513,0.49662l0,2.09832c0,0.41508,0.26084,0.78973,0.65493,0.92004
			c0.47762,0.15793,0.93956,0.34939,1.38337,0.57231c0.37112,0.1864,0.82009,0.10647,1.11376-0.18719l1.48387-1.48382
			c0.1726-0.17259,0.44769-0.19982,0.64578-0.0572c1.18693,0.85457,2.22952,1.89707,3.08419,3.08411
			c0.14265,0.19812,0.11541,0.47328-0.05721,0.64591L9.42208-5.74926c-0.29363,0.29365-0.37356,0.74259-0.1872,1.1137
			c0.2229,0.44387,0.4144,0.90584,0.57233,1.38348c0.13031,0.39409,0.50496,0.65494,0.92004,0.65494l2.09827,0
			c0.24385,0,0.45722,0.17436,0.49658,0.415c0.1162,0.7104,0.17789,1.43888,0.17789,2.18212
			C13.49998,0.74321,13.4383,1.47177,13.32209,2.18211z"/>
		<circle fill="#545454" cx="-0.00001" cy="-0.00001" r="10.34205"/>
		<path fill="#F3F3F3" d="M1.2931,13.43757V-0.00002h-2.58621v13.4376c0,0,0.56317,0.06236,1.29309,0.06236
			S1.2931,13.43757,1.2931,13.43757z"/>
		<path fill="#F3F3F3" stroke="#B2B2B2" stroke-width="0.57857" stroke-miterlimit="10" d="M-1.29312,13.43762V9.25167
			c0-0.43797-0.29691-0.82233-0.72269-0.92495C-5.85099,7.40233-8.68392,3.90941-8.573-0.23501
			c0.11854-4.42913,3.7232-8.11765,8.14878-8.33085c4.92923-0.23746,9.00034,3.68877,9.00034,8.56583
			c0,4.03797-2.79375,7.41491-6.55204,8.32473C1.5953,8.42851,1.2931,8.81063,1.2931,9.25181v4.18581"/>
	</g>
</symbol>
<symbol  id="New_Symbol_3" viewBox="-17.67266 -17.67271 35.34532 35.34532">
	<g>
		<g>
			<g>
				<polyline fill="none" stroke="#262626" stroke-width="1.65681" stroke-linejoin="round" stroke-miterlimit="10" points="
					-11.91069,-11.91073 0,-0.00005 11.91069,-11.91073 				"/>
				<circle fill="#E5E5E5" cx="0" cy="-0.00005" r="16.84425"/>
				
					<path fill="#E5E5E5" stroke="#262626" stroke-width="1.65681" stroke-linecap="round" stroke-linejoin="round" stroke-miterlimit="10" d="
					M14.15755-9.13026c1.69995,2.63056,2.68671,5.76515,2.68671,9.13022c0,9.30282-7.54143,16.84425-16.84425,16.84425
					S-16.84425,9.30278-16.84425-0.00005c0-3.28493,0.94032-6.35024,2.56648-8.94144"/>
				
					<path fill="#E5E5E5" stroke="#262626" stroke-width="1.65681" stroke-linecap="round" stroke-linejoin="round" stroke-miterlimit="10" d="
					M-11.9107-11.91072C-8.86249-14.95894-4.65142-16.8443,0-16.8443c4.65141,0,8.86247,1.88536,11.91068,4.93356"/>
			</g>
		</g>
	</g>
	
		<use xlink:href="#New_Symbol_1"  width="28" height="28" x="-14.00002" y="-14" transform="matrix(1 0 0 1 8.872170e-06 -0.00002)" overflow="visible"/>
</symbol>
<g id="base" display="none">
</g>
<g id="GUIDES" display="none">
</g>
<g id="bg">
	<linearGradient id="SVGID_1_" gradientUnits="userSpaceOnUse" x1="-46.73771" y1="60.12234" x2="214.9967" y2="321.85675">
		<stop  offset="0.38537" style="stop-color:#FFCC9E"/>
		<stop  offset="0.62112" style="stop-color:#F1AD8C"/>
		<stop  offset="0.85662" style="stop-color:#E6947E"/>
		<stop  offset="1" style="stop-color:#E28B79"/>
	</linearGradient>
	<rect x="7.48337" y="5.90126" fill="url(#SVGID_1_)" width="153.29224" height="370.17661"/>
	<g>
		<path fill="#252626" d="M68.08551,186.87006h-1.30804v6.4519h1.30804c1.84827,0,3.34796-1.46484,3.34796-3.22614
			C71.43347,188.33484,69.93378,186.87006,68.08551,186.87006z"/>
		<path fill="#252626" d="M53.59668,190.026c0-1.90063-1.51691-3.4873-3.41754-3.4873s-3.4353,1.58667-3.4353,3.4873
			c0,1.88348,1.53467,3.4353,3.4353,3.4353S53.59668,191.90948,53.59668,190.026z"/>
		<path fill="#252626" d="M0,0v380h165V0H0z M114.51599,183.88806h3.03436v12.41559h-3.03436V183.88806z M97.1676,194.15894
			l1.98792-2.28436c1.09851,0.95892,1.74384,1.3252,2.51099,1.46484c0.22662,0.05206,0.45325,0.08698,0.66272,0.08698
			c0.34857,0,0.66248-0.06952,0.90656-0.19171c0.20947-0.10474,0.57544-0.33136,0.57544-0.80212
			c0-0.48816-0.9068-0.78461-1.69147-0.94171c-0.34851-0.06952-2.05743-0.43579-2.75507-0.85443
			c-1.18579-0.69739-1.7959-1.76099-1.7959-3.08649c0-0.73224,0.24408-1.42987,0.64502-2.02252
			c0.40118-0.55798,0.95917-0.99408,1.60443-1.29053l-0.01746,0.01746c0.66248-0.3139,1.41248-0.47076,2.12726-0.47076
			c0.29645,0,0.57544,0.01746,0.92432,0.06982c1.11597,0.19171,2.14471,0.64502,3.57458,1.83081l-1.91809,2.30182
			c-1.29053-1.0636-1.953-1.2207-2.61572-1.2207c-0.33136,0-0.5929,0.06982-0.80206,0.17456
			c-0.33136,0.13934-0.50562,0.38342-0.50562,0.61005c0,0.47101,0.62781,0.69763,1.63904,0.90686
			c0.10474,0.03491,0.22668,0.03491,0.34882,0.06976c0.67993,0.15686,1.69147,0.36633,2.35394,0.74976h-0.01746
			c1.25562,0.69763,1.91809,1.7962,1.91809,3.15625c0,0.80212-0.20923,1.55182-0.66248,2.17963
			c-0.40118,0.5755-0.99408,0.99384-1.65656,1.3252c-0.69763,0.36627-1.41241,0.47101-2.19708,0.47101
			c-0.41864,0-0.87189-0.05237-1.25562-0.13965C99.80078,196.0072,98.6499,195.43176,97.1676,194.15894z M68.08551,196.30365
			h-4.30719v-12.41559h4.30719c3.50476,0,6.34717,2.78998,6.34717,6.20776
			C74.43268,193.51367,71.59027,196.30365,68.08551,196.30365z M81.68469,196.30365v-12.41559h8.45721v2.96454h-5.42285v1.0636
			h4.74268v3.01666h-4.74268v2.37164h5.30072v2.99915H81.68469z M61.17328,61.03168c0-4.94659,4.01001-8.9566,8.9566-8.9566
			h29.41901c4.94659,0,8.9566,4.01001,8.9566,8.9566v85.104c0,4.94659-4.01001,8.9566-8.9566,8.9566H70.12988
			c-4.94659,0-8.9566-4.01001-8.9566-8.9566V61.03168z M96.21847,121.40295c-0.31812,0.73359-0.74011,1.33913-1.26596,1.81599
			c-0.5265,0.47686-1.12488,0.83092-1.79771,1.06413c-0.67347,0.23255-1.37637,0.34818-2.10994,0.34818
			c-1.24768,0-2.2197-0.18291-2.91669-0.55003c-0.69701-0.36712-1.24181-0.79499-1.63245-1.28426
			c-0.41676-0.53826-0.67935-1.13728-0.78909-1.7977c-0.1104-0.66042-0.16528-1.32084-0.16528-1.98126
			c0-0.93021,0.01896-1.57169,0.05489-1.92639c0.03724-0.35536,0.07904-0.55656,0.12868-0.60555
			c0.09734-0.07382,0.50103-0.10975,1.21044-0.10975h8.58613c0.24431,0,0.44615,0.0183,0.60555,0.05487
			c0.15809,0.03658,0.28088,0.13392,0.36647,0.2933c0.08556,0.15874,0.14044,0.39717,0.16526,0.71529
			c0.02416,0.31812,0.03724,0.75841,0.03724,1.32084C96.696,119.78816,96.53596,120.66937,96.21847,121.40295 M81.39657,85.70432
			c0.03268-0.23058,0.13197-0.41284,0.29789-0.54545c0.16526-0.13195,0.42917-0.21491,0.79368-0.24823
			c0.36384-0.03266,0.87663-0.04964,1.53836-0.04964c2.58028,0,4.55697,0.71922,5.93007,2.15829
			c1.37245,1.43908,2.05965,3.36678,2.05965,5.78178c0,0.22864-0.04768,0.72182-0.07774,1.0602
			c-0.19009-0.00261-0.38019-0.00522-0.57027-0.00914c-0.52063-0.01111-1.08633-0.03985-1.6971-0.08492
			c-0.13588,0.06794-0.20904,0.19794-0.2208,0.38998c-0.01111,0.1927,0.03919,0.34556,0.15352,0.45857l0.61012,0.06793
			c0.40762,0.04507,0.74665,0.11889,1.01839,0.22014c0.27176,0.10191,0.40762,0.20969,0.40762,0.3227
			s-0.06794,0.3227-0.2038,0.62776c-0.13588,0.30572-0.31683,0.67348-0.54283,1.10266
			c-0.22668,0.43048-0.47034,0.88905-0.72967,1.37505c-0.26065,0.48666-0.5043,0.94524-0.73032,1.37441
			c-0.52063,0.99619-1.0517,1.97408-1.59519,2.93564c-0.54285,0.96221-1.07458,1.89568-1.59455,2.80042
			c-0.65717-1.17648-1.30191-2.40978-1.93489-3.69927c-0.63364-1.29014-1.26727-2.56786-1.90092-3.83579
			c-0.04573-0.09014-0.12411-0.25933-0.23713-0.50887c-0.11365-0.24822-0.23254-0.51409-0.35666-0.79759
			c-0.12477-0.28285-0.23254-0.54807-0.32269-0.7976c-0.09081-0.24889-0.13522-0.41873-0.13522-0.50887
			c0-0.13587,0.08949-0.243,0.27108-0.3227c0.18095-0.07904,0.56572-0.17506,1.15428-0.28808l0.44093-0.06793
			c0.11301-0.11301,0.16397-0.27174,0.15286-0.47556c-0.01176-0.20316-0.09668-0.32793-0.25411-0.373
			c-0.48209,0.03789-1.07327,0.06532-1.77419,0.08166v-7.20126C81.34693,86.25043,81.36326,85.93622,81.39657,85.70432
			 M84.20679,111.11059c0,0.90538-0.01176,1.62917-0.03397,2.172c-0.02287,0.54284-0.10188,0.96744-0.23776,1.27251
			c-0.04834,0.10974-0.10583,0.20642-0.1718,0.29069c-0.00132,0.00065-0.00327,0.00196-0.00459,0.00261
			c-0.3952-0.07578-0.72836-0.16331-0.99747-0.26325c-0.44683-0.16527-0.76886-0.46314-0.96745-0.89297
			c-0.19858-0.42982-0.32269-1.03342-0.37233-1.81142c-0.04966-0.7767-0.07448-1.81142-0.07448-3.10091v-7.06604l1.77419,3.45692
			c0.24824,0.47556,0.44615,0.8773,0.59379,1.20522c0.14698,0.32858,0.25411,0.63364,0.32205,0.91649
			c0.06792,0.28351,0.11299,0.58269,0.13586,0.89951c0.02221,0.31682,0.03397,0.71268,0.03397,1.18758V111.11059z
			 M98.21412,115.30762c0.14697-0.40762,0.29329-0.84267,0.44093-1.30647c0.14698-0.4638,0.28284-0.91649,0.40762-1.35808
			c0.12411-0.44093,0.22015-0.8087,0.28874-1.10331c-0.0686-0.15743-0.19859-0.25934-0.39066-0.30506
			c-0.19269-0.04507-0.34489-0.02287-0.45856,0.06794c-0.45269,0.88187-0.88775,1.6063-1.30647,2.172
			c-0.41872,0.56635-0.78648,0.93935-1.10265,1.12029c-0.1816,0.09081-0.39063,0.16919-0.62841,0.23713
			c-0.23713,0.06793-0.52063,0.11889-0.84856,0.15285c-0.32791,0.03397-0.72379,0.06271-1.18758,0.08492
			c-0.46379,0.02286-1.02427,0.03397-1.68011,0.03397c-0.74665,0-1.3633-0.02221-1.84996-0.06793
			c-0.48666-0.04507-0.87665-0.10191-1.17059-0.16919c-0.29462-0.0686-0.5265-0.14764-0.69569-0.23778
			c-0.16985-0.09015-0.3005-0.19205-0.39065-0.30572c-0.27174-0.29395-0.44681-0.72966-0.52585-1.30647
			c-0.07968-0.57745-0.1189-1.31822-0.1189-2.22361v-2.23994c0.00524-0.31028,0.01437-0.58464,0.02745-0.81981
			c0.02221-0.41807,0.08427-0.8087,0.18617-1.17059c0.10189-0.36189,0.25998-0.7473,0.47556-1.15427
			c0.05096-0.09734,0.10843-0.2025,0.16919-0.3129c0.08166-0.00261,0.16656-0.00391,0.26129-0.00391h1.96886
			c0.65585,0,1.19346,0.0111,1.61217,0.03397c0.41806,0.02221,0.75187,0.06728,1.0014,0.13522
			c0.33904,0.0908,0.58205,0.24953,0.72966,0.47555c0.14699,0.22602,0.25411,0.49776,0.32272,0.81459l0.30505,1.32345
			c0.09015,0.11366,0.24301,0.16396,0.45793,0.15286c0.2149-0.01111,0.35666-0.07317,0.4246-0.18683
			c0-0.38476-0.02287-0.87077-0.06794-1.45933c-0.04573-0.58856-0.06794-1.18823-0.06794-1.79901
			c0-0.65585,0.02221-1.28948,0.06794-1.90025c0.04507-0.61143,0.06794-1.1203,0.06794-1.52792
			c-0.06794-0.11235-0.2097-0.17506-0.4246-0.18682c-0.21492-0.01045-0.36778,0.03985-0.45793,0.15286l-0.2711,1.39204
			c-0.09078,0.42982-0.19857,0.71856-0.32269,0.86554c-0.12478,0.14698-0.28872,0.2541-0.49188,0.32204
			c-0.20382,0.06793-0.55525,0.11889-1.05235,0.15285c-0.49842,0.03397-1.10921,0.05095-1.83298,0.05095h-1.53381
			c0.01176-0.01894,0.02221-0.03658,0.03397-0.05618l2.13804-3.69927c0.42917-0.72443,0.81982-1.39727,1.17125-2.0198
			c0.35014-0.62188,0.6957-1.17125,1.03471-1.64616c0.3397-0.4749,0.68982-0.85965,1.05238-1.15361
			c0.07512-0.06075,0.15221-0.11562,0.23125-0.16723c0.22993,0.09145,0.43243,0.19924,0.60684,0.32532
			c0.28286,0.20315,0.51409,0.44093,0.69569,0.71268c0.18095,0.27109,0.32792,0.57681,0.44159,0.91583
			c0.11235,0.33968,0.23713,0.71333,0.373,1.1203c0.09015,0.11366,0.23777,0.15874,0.44159,0.13587
			c0.20316-0.02221,0.33901-0.09015,0.40695-0.20381c-0.04573-0.36189-0.08492-0.77473-0.11823-1.23853
			c-0.03461-0.46379-0.07446-0.91649-0.11953-1.35742c-0.04507-0.44159-0.10452-0.83549-0.15221-1.18823
			c-0.11823-0.87272-0.09146-1.61806-0.09146-1.61806c0-1.71931-0.48795-3.22241-1.23265-4.48054
			c-0.74404-1.25683-1.69581-2.24908-2.85334-2.97679c-1.15817-0.72771-2.5143-1.24049-4.06898-1.53837
			c-1.55536-0.29787-3.37462-0.44682-5.45844-0.44682c-2.08448,0-3.91287,0.02483-5.48324,0.07447
			c-1.57169,0.04964-3.01926,0.15742-4.34271,0.3227c-0.19794,0.09929-0.30573,0.29004-0.32205,0.57027
			c-0.01699,0.28156,0.05683,0.50495,0.22341,0.67022l1.78595,0.19859c0.56243,0.06664,1.00008,0.17376,1.3156,0.3227
			c0.31356,0.14828,0.54547,0.42133,0.6944,0.8185c0.14893,0.39716,0.23974,0.92628,0.27305,1.58801
			c0.03265,0.66173,0.04964,1.52204,0.04964,2.58028v18.31149c0,1.28948-0.01698,2.32421-0.04964,3.10091
			c-0.03331,0.778-0.14893,1.38159-0.34753,1.81142c-0.19858,0.42983-0.49644,0.72771-0.89297,0.89297
			c-0.39717,0.16592-0.96026,0.29787-1.68729,0.39717l-1.04256,0.14893c-0.15091,0.15089-0.21819,0.35732-0.20382,0.61731
			c-0.0013,0.53108-0.00718,0.69962-0.01828,1.29797c-0.01176,0.68525-0.04312,1.45084-0.09341,2.29808
			c0.05029,0.12477,0.19271,0.19924,0.42982,0.22472c0.23647,0.02417,0.40501-0.02547,0.50496-0.14959l0.11169-0.78519
			c0.07514-0.54807,0.17442-0.97137,0.29919-1.26989c0.12478-0.29919,0.34883-0.52325,0.67284-0.67284
			c0.32335-0.14959,0.77801-0.23778,1.36396-0.2626c0.5853-0.02418,1.36395-0.03658,2.33596-0.03658h4.70853
			c0.19923,0,0.35536,0.01241,0.46771,0.03658c0.1117,0.02482,0.1927,0.09406,0.24236,0.20642
			c0.04964,0.1117,0.08099,0.28612,0.09406,0.52258c0.01176,0.23713,0.0183,0.56636,0.0183,0.99031
			c0,0.74796-0.09341,1.30843-0.28024,1.68208c-0.18681,0.37365-0.49188,0.69765-0.91584,0.97202
			c-0.42394,0.29918-0.89101,0.61012-1.40118,0.93413c-0.51147,0.32335-1.02232,0.64735-1.53249,0.97136
			c-0.51082,0.32401-1.00272,0.6356-1.4763,0.93478c-0.4736,0.29853-0.88448,0.57289-1.23331,0.82177
			c-0.9472,0.67284-1.72585,1.3019-2.33598,1.88785c-0.61012,0.5853-1.0896,1.17713-1.43842,1.77483
			c-0.34948,0.59772-0.59184,1.22678-0.72901,1.88721c-0.13651,0.66042-0.20511,1.38878-0.20511,2.18637
			c0,0.72247,0.06206,1.27119,0.18617,1.6442c0.07512,0.09995,0.16853,0.14371,0.28088,0.1313
			c0.1117-0.01306,0.19272-0.06924,0.24301-0.16853c0.04898-0.49843,0.16788-0.97136,0.35471-1.41948
			c0.18681-0.44878,0.41676-0.83549,0.69177-1.15884c0.52324-0.64801,1.11441-1.25813,1.77485-1.83167
			c0.65975-0.57289,1.38878-1.15819,2.18636-1.75655c0.79695-0.59771,1.69385-1.21436,2.69069-1.84931
			c0.99618-0.6356,2.09295-1.32737,3.28904-2.07467c0.14957-0.09995,0.30439-0.18095,0.46706-0.243
			c0.16134-0.06271,0.30505-0.04377,0.42982,0.05618c0.17375,0.47295,0.4357,0.9779,0.78453,1.51355
			c0.34882,0.53565,0.77866,1.0406,1.28948,1.5142c0.51084,0.47294,1.10855,0.86488,1.79379,1.17712
			c0.68525,0.31094,1.47632,0.46707,2.3732,0.46707c1.32085,0,2.40456-0.2933,3.25182-0.87861
			c0.84659-0.5853,1.507-1.32671,1.9806-2.22361c0.47294-0.87207,0.77866-1.83755,0.91584-2.89579
			c0.13651-1.05955,0.21033-2.17462,0.20511-3.34587C97.82347,116.68856,98.21412,115.30762,98.21412,115.30762 M20.71326,193.61841
			l-0.13934,0.20917c-1.25568,1.67401-3.22614,2.66779-5.24866,2.66779c-3.57489,0-6.48682-2.91187-6.48682-6.50397
			c0-3.57489,2.91193-6.48682,6.48682-6.48682c1.74353,0,3.38263,0.67993,4.60339,1.91809l0.57544,0.5929l-2.16217,1.88318
			l-0.50568-0.48816c-0.68018-0.66272-1.56952-1.02875-2.51099-1.02875c-1.98792,0-3.60956,1.62164-3.60956,3.60956
			c0,2.00507,1.62164,3.62701,3.60956,3.62701c0.95892,0,1.83081-0.36627,2.51099-1.02899v-1.53436h-3.20862v-2.87732h6.08563
			V193.61841z M37.1897,186.8526h-5.42316v1.0636h4.74329v3.01666h-4.74329v2.37164h5.30127v2.99915h-8.33533v-12.41559h8.45721
			V186.8526z M43.72723,190.026c0-3.57458,2.89471-6.46906,6.4519-6.46906c3.53967,0,6.46936,2.89447,6.46936,6.46906
			c0,3.54004-2.92969,6.43445-6.46936,6.43445C46.62195,196.46045,43.72723,193.56604,43.72723,190.026z M91.65564,332.0683
			c0,1.15625,0.89746,1.93066,1.97168,1.93066c0.78809,0,1.6582-0.47559,2.03906-1.22363l-2.27051-3.18066
			C92.02283,330.54584,91.65564,331.30756,91.65564,332.0683z M75.0072,327.8681c-1.00586,0-1.50879,0.65234-1.53613,2.44629
			h3.07324C76.51697,328.52045,76.01404,327.8681,75.0072,327.8681z M81.03259,327.8681c-0.46191,0-0.87012,0.24414-1.1416,0.63867
			c-0.35352,0.50293-0.46289,1.20996-0.46289,2.46094c0,2.66406,0.74805,3.08594,1.57715,3.08594
			c0.81543,0,1.57715-0.42188,1.57715-3.08594C82.5824,328.34369,81.82068,327.8681,81.03259,327.8681z M62.71863,285.92865
			c-0.81543,0-1.57715,0.4209-1.57715,3.08594c0,2.67773,0.76172,3.09961,1.57715,3.09961c0.8291,0,1.57715-0.42188,1.57715-3.09961
			C64.29578,286.34955,63.54773,285.92865,62.71863,285.92865z M94.90564,326.6308c0-0.62598-0.47656-1.08789-1.10156-1.08789
			c-0.63867,0-1.11523,0.46191-1.11523,1.08789c0,0.5166,0.36719,1.2373,0.91113,1.9707
			C94.67419,327.78607,94.90564,327.16107,94.90564,326.6308z M68.71667,285.92865c-1.00586,0-1.50879,0.65234-1.53613,2.44629
			h3.07324C70.22644,286.58099,69.72351,285.92865,68.71667,285.92865z M57.63904,327.8681
			c-0.91016,0-1.61719,0.78809-1.61719,3.08594c0,2.31055,0.70703,3.09961,1.61719,3.09961
			c0.91113,0,1.61816-0.78906,1.61816-3.09961C59.2572,328.65619,58.55017,327.8681,57.63904,327.8681z M92.1239,285.92865
			c-1.00586,0-1.50879,0.65234-1.53613,2.44629h3.07324C93.63367,286.58099,93.13074,285.92865,92.1239,285.92865z
			 M106.51355,289.02826l-0.67969,0.17676c-0.81641,0.2168-1.2373,0.63867-1.2373,1.49512c0,0.84277,0.43457,1.41406,1.1416,1.41406
			c0.99219,0,1.67188-0.74805,1.67188-2.03906v-1.52344h-0.02637C107.30164,288.79681,106.83972,288.94623,106.51355,289.02826z
			 M117.29871,285.92865c-1.00586,0-1.50879,0.65234-1.53613,2.44629h3.07324
			C118.80847,286.58099,118.30554,285.92865,117.29871,285.92865z M76.04773,290.12885c0,1.15625,0.89746,1.93066,1.97168,1.93066
			c0.78809,0,1.6582-0.47559,2.03906-1.22363l-2.27051-3.18066C76.41492,288.60638,76.04773,289.3681,76.04773,290.12885z
			 M79.29773,284.69135c0-0.62598-0.47656-1.08789-1.10156-1.08789c-0.63867,0-1.11523,0.46191-1.11523,1.08789
			c0,0.5166,0.36719,1.2373,0.91113,1.9707C79.06628,285.84662,79.29773,285.22162,79.29773,284.69135z M100.4198,285.92865
			c-1.00586,0-1.50879,0.65234-1.53613,2.44629h3.07324C101.92957,286.58099,101.42664,285.92865,100.4198,285.92865z
			 M58.50183,289.01459c0-2.29785-0.70703-3.08594-1.61816-3.08594c-0.91016,0-1.61719,0.78809-1.61719,3.08594
			c0,2.31055,0.70703,3.09961,1.61719,3.09961C57.7948,292.1142,58.50183,291.32513,58.50183,289.01459z M109.53406,290.31927
			h0.81543v0.19043c0,1.06055,0.46191,1.60449,1.38672,1.60449c0.87012,0,1.42773-0.48926,1.42773-1.29199
			c0-0.63867-0.25879-1.04688-0.97949-1.33203l-1.1416-0.44824c-1.01953-0.39453-1.38672-0.99316-1.38672-1.71387
			c0-1.48145,0.9248-2.08008,2.14844-2.08008c1.35938,0,1.98438,0.69336,1.98438,2.0127v0.2041h-0.81543v-0.2041
			c0-0.93848-0.43555-1.33203-1.18262-1.33203c-0.95215,0-1.31934,0.50293-1.31934,1.22266
			c0,0.50391,0.16309,0.89746,0.97949,1.21094l1.18262,0.44824c0.97852,0.36719,1.3457,1.04688,1.3457,1.83496
			c0,1.2373-0.70703,2.14844-2.22949,2.14844c-1.48242,0-2.21582-0.61133-2.21582-2.24316V290.31927z M107.45105,291.81537v-0.24512
			h-0.02734c-0.32617,0.95215-1.06055,1.22363-1.8623,1.22363c-1.26465,0-1.83496-0.78809-1.83496-2.03906
			c0-0.95215,0.43457-1.71289,1.4541-1.99902l1.53613-0.43457c0.57129-0.16309,0.69336-0.2998,0.69336-1.14258
			c0-0.92383-0.5166-1.25-1.25-1.25c-0.96582,0-1.38672,0.58398-1.38672,1.63086h-0.81641
			c0-1.48145,0.70703-2.31152,2.23047-2.31152c1.49512,0,2.03906,0.77539,2.03906,1.91699v4.26953
			c0,0.4082,0.13574,0.59766,0.4209,0.59766h0.23145v0.59863c-0.14941,0.05469-0.27148,0.08203-0.38086,0.08203
			C107.85925,292.71283,107.45105,292.56244,107.45105,291.81537z M86.62341,333.97162c0.16309,0,0.32617-0.02637,0.50293-0.08105
			v0.67969c-0.0957,0.05469-0.2998,0.08203-0.57129,0.08203c-1.10156,0-1.52246-0.2998-1.52246-1.26465v-5.35645h-0.99316v-0.68066
			h0.99316v-1.99805h0.81543v1.99805h1.27832v0.68066h-1.27832v5.17969C85.84802,333.78217,86.09314,333.97162,86.62341,333.97162z
			 M81.33679,292.6308l-0.85645-1.18262c-0.54395,0.81543-1.38672,1.3457-2.58301,1.3457c-1.67285,0-2.71973-1.1416-2.71973-2.56934
			c0-1.01953,0.5166-1.82227,1.40039-2.50195l0.80273-0.61133c-0.69336-0.91113-1.11523-1.63184-1.11523-2.39355
			c0-1.16895,0.91113-1.79395,1.98535-1.79395c1.12793,0,1.8623,0.7207,1.8623,1.79395c0,0.78906-0.32617,1.52344-1.71289,2.50195
			l2.09375,2.93652c0.24414-0.59766,0.33984-1.2373,0.35352-1.83496h0.81543c0,0.84277-0.24512,1.74023-0.67969,2.51465
			l1.27832,1.79492H81.33679z M54.39636,289.01459c0-2.50195,0.89648-3.7666,2.4873-3.7666s2.48828,1.26465,2.48828,3.7666
			c0,2.51465-0.89746,3.7793-2.48828,3.7793S54.39636,291.52924,54.39636,289.01459z M64.37781,292.6308v-1.19629h-0.02734
			c-0.21777,0.8291-0.91113,1.35938-1.76758,1.35938c-1.59082,0-2.31152-1.27832-2.31152-3.7793
			c0-2.48828,0.7207-3.7666,2.31152-3.7666c0.89746,0,1.50879,0.49023,1.68555,1.25098h0.02734v-3.5752h0.81543v9.70703H64.37781z
			 M68.71667,292.1142c0.85645,0,1.38672-0.6123,1.52344-1.87598h0.81543c-0.12207,1.53613-0.96582,2.55566-2.3252,2.55566
			c-1.52246,0-2.41992-1.06055-2.41992-3.7793c0-2.50195,0.89746-3.7666,2.48828-3.7666c1.60449,0,2.3252,1.10156,2.3252,3.50781
			v0.2998h-3.94336v0.33984C67.18054,291.47552,67.91492,292.1142,68.71667,292.1142z M87.07898,286.53998
			c0.3125-0.80176,0.97852-1.29199,1.82129-1.29199c0.0957,0,0.19043,0.01367,0.28613,0.04102v0.81543
			c-0.13672-0.02637-0.27246-0.04004-0.39453-0.04004c-0.89746,0-1.74023,0.65234-1.74023,2.05273v4.51367h-0.81641v-7.21973
			h0.81641v1.12891H87.07898z M89.71765,289.01459c0-2.50195,0.89746-3.7666,2.48828-3.7666
			c1.60449,0,2.3252,1.10156,2.3252,3.50781v0.2998h-3.94336v0.33984c0,2.08008,0.73438,2.71875,1.53613,2.71875
			c0.85645,0,1.38672-0.6123,1.52344-1.87598h0.81543c-0.12207,1.53613-0.96582,2.55566-2.3252,2.55566
			C90.61511,292.79388,89.71765,291.73334,89.71765,289.01459z M95.86511,292.6308v-9.70703h0.81543v9.70703H95.86511z
			 M50.70886,282.76068c1.97168,0,2.78711,1.40039,2.78711,2.99121h-0.87012c0-1.31934-0.66602-2.25684-1.91699-2.25684
			c-1.38672,0-2.22949,1.1416-2.22949,4.28223s0.84277,4.28223,2.22949,4.28223c1.22363,0,1.91699-1.04688,2.0127-2.71875h0.87012
			c-0.12305,2.21582-1.14258,3.45313-2.88281,3.45313c-1.98438,0-3.09961-1.53613-3.09961-5.0166
			S48.72449,282.76068,50.70886,282.76068z M48.36462,329.71674c0-3.48047,1.11523-5.0166,3.09961-5.0166
			c1.97168,0,2.78711,1.40039,2.78711,2.99121h-0.87012c0-1.31934-0.66602-2.25684-1.91699-2.25684
			c-1.38672,0-2.22949,1.1416-2.22949,4.28223s0.84277,4.28223,2.22949,4.28223c1.22363,0,1.91699-1.04688,2.0127-2.71875h0.87012
			c-0.12305,2.21582-1.14258,3.45313-2.88281,3.45313C49.47986,334.73334,48.36462,333.1972,48.36462,329.71674z
			 M57.63904,334.73334c-1.58984,0-2.4873-1.26465-2.4873-3.7793c0-2.50195,0.89746-3.7666,2.4873-3.7666
			c1.59082,0,2.48828,1.26465,2.48828,3.7666C60.12732,333.46869,59.22986,334.73334,57.63904,334.73334z M63.73279,327.8681
			c-0.95215,0-1.59082,0.7334-1.59082,1.84863v4.85352h-0.81641v-7.21973h0.73438v1.00684h0.02734
			c0.4082-0.80273,1.11523-1.16992,1.84863-1.16992c1.10156,0,1.84961,0.57129,1.84961,1.93066v5.45215h-0.81543v-5.2207
			C64.97009,328.35736,64.56189,327.8681,63.73279,327.8681z M66.98474,330.95404c0-2.50195,0.89648-3.7666,2.4873-3.7666
			c1.36035,0,2.14844,0.83008,2.23047,2.31152h-0.81641c-0.09473-1.12793-0.54395-1.63086-1.41406-1.63086
			c-0.88379,0-1.61719,0.54297-1.61719,3.09961c0,2.71875,0.77441,3.08594,1.53613,3.08594c0.8291,0,1.35938-0.6123,1.49512-1.87598
			h0.81641c-0.12305,1.53613-0.96582,2.55566-2.29785,2.55566C67.88123,334.73334,66.98474,333.67279,66.98474,330.95404z
			 M72.60095,330.95404c0-2.50195,0.89746-3.7666,2.48828-3.7666c1.60449,0,2.3252,1.10156,2.3252,3.50781v0.2998h-3.94336v0.33984
			c0,2.08008,0.73438,2.71875,1.53613,2.71875c0.85645,0,1.38672-0.6123,1.52344-1.87598h0.81543
			c-0.12207,1.53613-0.96582,2.55566-2.3252,2.55566C73.49841,334.73334,72.60095,333.67279,72.60095,330.95404z
			 M81.14099,334.73334c-0.89648,0-1.50879-0.48926-1.68555-1.25098H79.4281v3.48047h-0.81543v-9.6123h0.73438v1.03418h0.02734
			c0.25781-0.66699,0.85645-1.19727,1.78027-1.19727c1.60449,0,2.29785,1.27832,2.29785,3.78027
			C83.45251,333.45502,82.73181,334.73334,81.14099,334.73334z M96.08826,333.38763c-0.54395,0.81543-1.38672,1.3457-2.58301,1.3457
			c-1.67285,0-2.71973-1.1416-2.71973-2.56934c0-1.01953,0.5166-1.82227,1.40039-2.50195l0.80273-0.61133
			c-0.69336-0.91113-1.11523-1.63184-1.11523-2.39355c0-1.16895,0.91113-1.79395,1.98535-1.79395
			c1.12793,0,1.8623,0.7207,1.8623,1.79395c0,0.78906-0.32617,1.52344-1.71289,2.50195l2.09375,2.93652
			c0.24414-0.59766,0.33984-1.2373,0.35352-1.83496h0.81543c0,0.84277-0.24512,1.74023-0.67969,2.51465l1.27832,1.79492h-0.9248
			L96.08826,333.38763z M98.01355,289.01459c0-2.50195,0.89746-3.7666,2.48828-3.7666c1.60449,0,2.3252,1.10156,2.3252,3.50781
			v0.2998h-3.94336v0.33984c0,2.08008,0.73438,2.71875,1.53613,2.71875c0.85645,0,1.38672-0.6123,1.52344-1.87598h0.81543
			c-0.12207,1.53613-0.96582,2.55566-2.3252,2.55566C98.91101,292.79388,98.01355,291.73334,98.01355,289.01459z
			 M101.73376,329.71674c0-3.48047,1.11523-5.0166,3.09961-5.0166c1.84961,0,2.67871,1.20996,2.78711,2.88184h-0.87012
			c0-1.16895-0.63867-2.14746-1.91699-2.14746c-1.38672,0-2.22949,1.1416-2.22949,4.28223s0.84277,4.28223,2.22949,4.28223
			c1.30566,0,2.02637-1.16895,2.02637-3.43945v-0.2041h-2.29785v-0.73438h3.11328v4.94922h-0.67969v-1.60449h-0.02734
			c-0.29883,1.07422-1.16895,1.76758-2.13477,1.76758C102.849,334.73334,101.73376,333.1972,101.73376,329.71674z
			 M108.98279,324.86322h0.87012v6.97461c0,1.4541,0.62598,2.16113,1.90332,2.16113c1.27832,0,1.9043-0.70703,1.9043-2.16113
			v-6.97461h0.87012v6.98828c0,2.03906-0.99316,2.88184-2.77441,2.88184c-1.78027,0-2.77344-0.84277-2.77344-2.88184V324.86322z
			 M115.974,334.57025v-9.70703h0.87012v9.70703H115.974z M119.70593,289.0556h-3.94336v0.33984
			c0,2.08008,0.73438,2.71875,1.53613,2.71875c0.85645,0,1.38672-0.6123,1.52344-1.87598h0.81543
			c-0.12207,1.53613-0.96582,2.55566-2.3252,2.55566c-1.52246,0-2.41992-1.06055-2.41992-3.7793
			c0-2.50195,0.89746-3.7666,2.48828-3.7666c1.60449,0,2.3252,1.10156,2.3252,3.50781V289.0556z M131.7782,193.47876
			c1.08112,0,2.03998-0.45325,3.01666-1.74384l2.38879,1.76129c-1.55182,2.0752-3.38293,2.98169-5.40546,2.98169
			c-3.55743,0-6.46936-2.91187-6.46936-6.46906c0-3.55743,2.91193-6.4519,6.46936-6.4519c2.05743,0,3.92346,0.95892,5.47528,3.03412
			l-2.42371,1.77844c-0.97668-1.30774-1.97046-1.83081-3.05157-1.83081c-1.93555,0-3.47015,1.55182-3.47015,3.47015
			C128.30804,191.9444,129.84265,193.47876,131.7782,193.47876z M152.56158,194.61218
			c-0.40118,0.5755-0.99408,0.99384-1.65656,1.3252c-0.69763,0.36627-1.41248,0.47101-2.19708,0.47101
			c-0.41864,0-0.87189-0.05237-1.25568-0.13965c-1.25531-0.26154-2.40625-0.83698-3.88849-2.1098l1.98792-2.28436
			c1.09851,0.95892,1.74377,1.3252,2.51099,1.46484c0.22662,0.05206,0.45325,0.08698,0.66272,0.08698
			c0.34851,0,0.66241-0.06952,0.90656-0.19171c0.20941-0.10474,0.57544-0.33136,0.57544-0.80212
			c0-0.48816-0.9068-0.78461-1.69147-0.94171c-0.34851-0.06952-2.05743-0.43579-2.75507-0.85443
			c-1.18585-0.69739-1.7959-1.76099-1.7959-3.08649c0-0.73224,0.24408-1.42987,0.64496-2.02252
			c0.40118-0.55798,0.95923-0.99408,1.60449-1.29053l-0.01746,0.01746c0.66241-0.3139,1.41241-0.47076,2.12726-0.47076
			c0.29645,0,0.57544,0.01746,0.92426,0.06982c1.11603,0.19171,2.14471,0.64502,3.57465,1.83081l-1.91809,2.30182
			c-1.29053-1.0636-1.953-1.2207-2.61572-1.2207c-0.33136,0-0.5929,0.06982-0.80212,0.17456
			c-0.33136,0.13934-0.50562,0.38342-0.50562,0.61005c0,0.47101,0.62781,0.69763,1.6391,0.90686
			c0.10474,0.03491,0.22662,0.03491,0.34882,0.06976c0.67993,0.15686,1.69147,0.36633,2.35388,0.74976h-0.01746
			c1.25568,0.69763,1.91809,1.7962,1.91809,3.15625C153.224,193.23468,153.01483,193.98438,152.56158,194.61218z"/>
	</g>
	<g>
		<g>
			<g>
				<g>
					<circle fill="#BCBCBC" cx="23.00009" cy="7" r="5.73626"/>
					<path fill="#808080" d="M23.00005,1.52734c3.02247-0.00002,5.47268,2.45015,5.4727,5.47262s-2.45015,5.47268-5.47262,5.4727
						s-5.47268-2.45015-5.4727-5.47262c0-0.00001,0-0.00003,0-0.00004C17.53089,3.97898,19.97903,1.53082,23.00005,1.52734
						 M23.00005,1c-3.31371,0-6,2.68629-6,6s2.68629,6,6,6s6-2.68629,6-6C28.99989,3.68636,26.31369,1.00016,23.00005,1z"/>
				</g>
				<polygon fill="#6E6E6E" points="26.49505,6.341 23.65905,6.341 23.65905,3.505 22.34105,3.505 22.34105,6.341 19.50605,6.341 
					19.50605,7.659 22.34105,7.659 22.34105,10.495 23.65905,10.495 23.65905,7.659 26.49505,7.659 				"/>
			</g>
		</g>
	</g>
	<g>
		<g>
			<g>
				<g>
					<circle fill="#BCBCBC" cx="142.00009" cy="7" r="5.73626"/>
					<path fill="#808080" d="M142.00005,1.52734c3.02248-0.00002,5.47269,2.45015,5.4727,5.47262
						c0.00003,3.02247-2.45015,5.47268-5.47261,5.4727c-3.02248,0.00002-5.47269-2.45015-5.4727-5.47262
						c0-0.00001,0-0.00003,0-0.00004C136.53088,3.97898,138.97903,1.53082,142.00005,1.52734 M142.00005,1c-3.31371,0-6,2.68629-6,6
						s2.68629,6,6,6c3.31372,0,6-2.68629,6-6C147.99989,3.68636,145.31369,1.00016,142.00005,1z"/>
				</g>
				<polygon fill="#6E6E6E" points="145.49506,6.341 142.65906,6.341 142.65906,3.505 141.34105,3.505 141.34105,6.341 
					138.50606,6.341 138.50606,7.659 141.34105,7.659 141.34105,10.495 142.65906,10.495 142.65906,7.659 145.49506,7.659 				"/>
			</g>
		</g>
	</g>
	<g>
		<g>
			<g>
				<g>
					<circle fill="#BCBCBC" cx="23.00009" cy="373" r="5.73626"/>
					<path fill="#808080" d="M23.00005,367.52734c3.02247-0.00003,5.47268,2.45016,5.4727,5.47263s-2.45015,5.47266-5.47262,5.47269
						s-5.47268-2.45013-5.4727-5.47263c0,0,0-0.00003,0-0.00003C17.53089,369.97897,19.97903,367.53082,23.00005,367.52734
						 M23.00005,367c-3.31371,0-6,2.68628-6,6s2.68629,6,6,6s6-2.68628,6-6C28.99989,369.68637,26.31369,367.00015,23.00005,367z"/>
				</g>
				<polygon fill="#6E6E6E" points="26.49505,372.341 23.65905,372.341 23.65905,369.505 22.34105,369.505 22.34105,372.341 
					19.50605,372.341 19.50605,373.659 22.34105,373.659 22.34105,376.495 23.65905,376.495 23.65905,373.659 26.49505,373.659 				
					"/>
			</g>
		</g>
	</g>
	<g>
		<g>
			<g>
				<g>
					<circle fill="#BCBCBC" cx="142.00009" cy="373" r="5.73626"/>
					<path fill="#808080" d="M142.00005,367.52734c3.02248-0.00003,5.47269,2.45016,5.4727,5.47263
						c0.00003,3.02246-2.45015,5.47266-5.47261,5.47269c-3.02248,0.00003-5.47269-2.45013-5.4727-5.47263c0,0,0-0.00003,0-0.00003
						C136.53088,369.97897,138.97903,367.53082,142.00005,367.52734 M142.00005,367c-3.31371,0-6,2.68628-6,6s2.68629,6,6,6
						c3.31372,0,6-2.68628,6-6C147.99989,369.68637,145.31369,367.00015,142.00005,367z"/>
				</g>
				<polygon fill="#6E6E6E" points="145.49506,372.341 142.65906,372.341 142.65906,369.505 141.34105,369.505 141.34105,372.341 
					138.50606,372.341 138.50606,373.659 141.34105,373.659 141.34105,376.495 142.65906,376.495 142.65906,373.659 
					145.49506,373.659 				"/>
			</g>
		</g>
	</g>
</g>
<g id="serigraphy">
	<g>
		<g>
			<path fill="#E5E5E5" d="M5.0033,23.83687c-0.22021,0-0.43018-0.08984-0.59033-0.25
				c-0.07959-0.06934-0.13965-0.16992-0.17969-0.25977c-0.04004-0.10938-0.06006-0.20996-0.06006-0.31934
				c0-0.11035,0.02002-0.2207,0.06006-0.32031c0.04004-0.10059,0.1001-0.19043,0.17969-0.27051
				c0.31006-0.30957,0.86035-0.30957,1.17041,0c0.07959,0.08008,0.13965,0.16992,0.17969,0.27051
				c0.04004,0.09961,0.06006,0.20996,0.06006,0.32031c0,0.10938-0.02002,0.20996-0.06006,0.31934
				c-0.04004,0.08984-0.1001,0.19043-0.17969,0.25977c-0.08008,0.08008-0.17041,0.14063-0.27002,0.18066
				C5.21326,23.80757,5.11316,23.83687,5.0033,23.83687z"/>
		</g>
		<g>
			<path fill="#E5E5E5" d="M156.7533,23.00777c0-0.46094,0.37012-0.83008,0.81982-0.83008l0,0
				c0.45996,0,0.83008,0.36914,0.83008,0.83008l0,0c0,0.45996-0.37012,0.8291-0.83008,0.8291l0,0
				C157.12341,23.83687,156.7533,23.46773,156.7533,23.00777z M151.82312,23.00777c0-0.46094,0.37012-0.83008,0.83008-0.83008l0,0
				c0.45996,0,0.83008,0.36914,0.83008,0.83008l0,0c0,0.45996-0.37012,0.8291-0.83008,0.8291l0,0
				C152.19324,23.83687,151.82312,23.46773,151.82312,23.00777z M146.9032,23.00777c0-0.46094,0.37012-0.83008,0.83008-0.83008l0,0
				c0.45996,0,0.83008,0.36914,0.83008,0.83008l0,0c0,0.45996-0.37012,0.8291-0.83008,0.8291l0,0
				C147.27332,23.83687,146.9032,23.46773,146.9032,23.00777z M141.98328,23.00777c0-0.46094,0.37012-0.83008,0.83008-0.83008l0,0
				c0.45996,0,0.83008,0.36914,0.83008,0.83008l0,0c0,0.45996-0.37012,0.8291-0.83008,0.8291l0,0
				C142.35339,23.83687,141.98328,23.46773,141.98328,23.00777z M137.06335,23.00777c0-0.46094,0.36963-0.83008,0.83008-0.83008l0,0
				c0.44971,0,0.82959,0.36914,0.82959,0.83008l0,0c0,0.45996-0.37988,0.8291-0.82959,0.8291l0,0
				C137.43298,23.83687,137.06335,23.46773,137.06335,23.00777z M132.14343,23.00777c0-0.46094,0.36963-0.83008,0.82959-0.83008l0,0
				c0.4502,0,0.82031,0.36914,0.82031,0.83008l0,0c0,0.45996-0.37012,0.8291-0.82031,0.8291l0,0
				C132.51306,23.83687,132.14343,23.46773,132.14343,23.00777z M127.21326,23.00777c0-0.46094,0.37988-0.83008,0.83008-0.83008l0,0
				c0.45996,0,0.83008,0.36914,0.83008,0.83008l0,0c0,0.45996-0.37012,0.8291-0.83008,0.8291l0,0
				C127.59314,23.83687,127.21326,23.46773,127.21326,23.00777z M122.29333,23.00777c0-0.46094,0.36963-0.83008,0.83008-0.83008l0,0
				c0.45996,0,0.82959,0.36914,0.82959,0.83008l0,0c0,0.45996-0.36963,0.8291-0.82959,0.8291l0,0
				C122.66296,23.83687,122.29333,23.46773,122.29333,23.00777z M117.37341,23.00777c0-0.46094,0.36963-0.83008,0.82959-0.83008l0,0
				c0.45996,0,0.83008,0.36914,0.83008,0.83008l0,0c0,0.45996-0.37012,0.8291-0.83008,0.8291l0,0
				C117.74304,23.83687,117.37341,23.46773,117.37341,23.00777z M112.453,23.00777c0-0.46094,0.37012-0.83008,0.83008-0.83008l0,0
				c0.4502,0,0.82031,0.36914,0.82031,0.83008l0,0c0,0.45996-0.37012,0.8291-0.82031,0.8291l0,0
				C112.82312,23.83687,112.453,23.46773,112.453,23.00777z M107.53308,23.00777c0-0.46094,0.37012-0.83008,0.83008-0.83008l0,0
				c0.4502,0,0.81982,0.36914,0.81982,0.83008l0,0c0,0.45996-0.36963,0.8291-0.81982,0.8291l0,0
				C107.9032,23.83687,107.53308,23.46773,107.53308,23.00777z M102.61316,23.00777c0-0.46094,0.37012-0.83008,0.81982-0.83008l0,0
				c0.46045,0,0.83008,0.36914,0.83008,0.83008l0,0c0,0.45996-0.36963,0.8291-0.83008,0.8291l0,0
				C102.98328,23.83687,102.61316,23.46773,102.61316,23.00777z M97.68298,23.00777c0-0.46094,0.37012-0.83008,0.83008-0.83008l0,0
				c0.45996,0,0.83008,0.36914,0.83008,0.83008l0,0c0,0.45996-0.37012,0.8291-0.83008,0.8291l0,0
				C98.0531,23.83687,97.68298,23.46773,97.68298,23.00777z M92.76306,23.00777c0-0.46094,0.37012-0.83008,0.83008-0.83008l0,0
				c0.45996,0,0.83008,0.36914,0.83008,0.83008l0,0c0,0.45996-0.37012,0.8291-0.83008,0.8291l0,0
				C93.13318,23.83687,92.76306,23.46773,92.76306,23.00777z M87.84314,23.00777c0-0.46094,0.37012-0.83008,0.83008-0.83008l0,0
				c0.45996,0,0.83008,0.36914,0.83008,0.83008l0,0c0,0.45996-0.37012,0.8291-0.83008,0.8291l0,0
				C88.21326,23.83687,87.84314,23.46773,87.84314,23.00777z M82.92322,23.00777c0-0.46094,0.37012-0.83008,0.83008-0.83008l0,0
				c0.44971,0,0.81982,0.36914,0.81982,0.83008l0,0c0,0.45996-0.37012,0.8291-0.81982,0.8291l0,0
				C83.29333,23.83687,82.92322,23.46773,82.92322,23.00777z M78.0033,23.00777c0-0.46094,0.37012-0.83008,0.81982-0.83008l0,0
				c0.45996,0,0.83008,0.36914,0.83008,0.83008l0,0c0,0.45996-0.37012,0.8291-0.83008,0.8291l0,0
				C78.37341,23.83687,78.0033,23.46773,78.0033,23.00777z M73.07312,23.00777c0-0.46094,0.37012-0.83008,0.83008-0.83008l0,0
				c0.45996,0,0.83008,0.36914,0.83008,0.83008l0,0c0,0.45996-0.37012,0.8291-0.83008,0.8291l0,0
				C73.44324,23.83687,73.07312,23.46773,73.07312,23.00777z M68.1532,23.00777c0-0.46094,0.37012-0.83008,0.83008-0.83008l0,0
				c0.45996,0,0.83008,0.36914,0.83008,0.83008l0,0c0,0.45996-0.37012,0.8291-0.83008,0.8291l0,0
				C68.52332,23.83687,68.1532,23.46773,68.1532,23.00777z M63.23328,23.00777c0-0.46094,0.37012-0.83008,0.83008-0.83008l0,0
				c0.45996,0,0.83008,0.36914,0.83008,0.83008l0,0c0,0.45996-0.37012,0.8291-0.83008,0.8291l0,0
				C63.60339,23.83687,63.23328,23.46773,63.23328,23.00777z M104.16931,224.414c0.91211,0,1.22461-0.89844,1.22461-1.98047
				c0-1.27734-0.37793-1.99414-1.22461-1.99414c-1.08203,0-1.27734,0.95215-1.27734,2.05957
				C102.89197,223.56732,103.29626,224.414,104.16931,224.414z M79.16052,224.414c1.03027,0,1.21191-0.85938,1.21191-2.64453
				c0-1.55078-0.18164-2.64551-1.21191-2.64551c-1.01563,0-1.19824,1.09473-1.19824,2.64551
				C77.96228,223.55463,78.1449,224.414,79.16052,224.414z M61.72107,220.60931c0-0.88574-0.28613-1.56348-1.08105-1.56348
				c-0.89941,0-1.17285,0.88574-1.17285,1.79785v0.14355h2.25391V220.60931z M94.70056,217.09076
				c-1.0166,0-1.27734,0.97754-1.27734,3.66211s0.26074,3.66113,1.27734,3.66113c1.01563,0,1.27637-0.97656,1.27637-3.66113
				S95.71619,217.09076,94.70056,217.09076z M100.13123,223.55463v1.71973h-1.48535v-1.71973H100.13123z M74.0033,217.27338
				v-1.40723h1.40723v1.40723H74.0033z M75.41052,218.26361v7.01074H74.0033v-7.01074H75.41052z M64.28552,225.27435v-7.01074
				h1.40723v1.09473h0.02637c0.3125-0.78223,0.83398-1.27734,1.62891-1.27734c0.15625,0,0.24707,0.02637,0.33887,0.05273v1.43262
				c-0.10449-0.02539-0.35254-0.07813-0.58691-0.07813c-0.63867,0-1.40723,0.28711-1.40723,1.58984v4.19629H64.28552z
				 M70.3822,225.45697c-1.77148,0-2.30566-0.82129-2.30566-2.17676v-0.25977h1.25098v0.2207
				c0,0.80859,0.28613,1.25098,1.09375,1.25098c0.76953,0,1.14746-0.39063,1.14746-1.0293c0-0.52148-0.27344-0.85938-0.76953-1.0293
				l-1.14648-0.4043c-1.05566-0.36426-1.49805-0.89844-1.49805-2.01953c0-1.31641,0.95117-1.92871,2.39746-1.92871
				c1.78516,0,2.18945,1.04297,2.18945,1.91602v0.3125h-1.3291v-0.18262c0-0.56055-0.19629-1.08105-0.92578-1.08105
				c-0.56055,0-1.00293,0.26074-1.00293,0.91211c0,0.54688,0.24707,0.76855,0.99023,1.0293l0.89941,0.3125
				c1.04199,0.35156,1.52441,0.91211,1.52441,2.01953C72.89783,224.8183,71.8031,225.45697,70.3822,225.45697z M76.55505,221.76947
				c0-2.17676,0.57324-3.68848,2.60547-3.68848c2.0459,0,2.62012,1.51172,2.62012,3.68848c0,2.17578-0.66504,3.6875-2.62012,3.6875
				C77.21912,225.45697,76.55505,223.94525,76.55505,221.76947z M82.85974,218.26361h1.3291v0.82129h0.03906
				c0.35156-0.62598,1.0166-1.00391,1.79785-1.00391c1.06934,0,1.74609,0.48242,1.74609,1.90234v5.29102h-1.40723v-4.80859
				c0-0.91211-0.27344-1.26367-0.97656-1.26367c-0.57422,0-1.12109,0.45605-1.12109,1.36816v4.7041h-1.40723V218.26361z
				 M94.70056,225.45697c-1.77246,0-2.7627-1.12109-2.7627-4.7041c0-3.58398,0.99023-4.7041,2.7627-4.7041
				c1.77148,0,2.76172,1.12012,2.76172,4.7041C97.46228,224.33588,96.47205,225.45697,94.70056,225.45697z M104.22107,216.04877
				c1.61621,0,2.48926,0.72949,2.48926,2.24121h-1.48535c0-0.53418-0.24805-1.19922-0.99023-1.19922
				c-1.39453,0-1.47266,1.83789-1.47266,3.17969l0.03906,0.02637c0.36426-0.66504,0.99023-0.97754,1.79785-0.97754
				c1.26465,0,2.28027,0.91211,2.28027,2.74902c0,2.12402-0.87305,3.38867-2.82715,3.38867
				c-2.33301,0-2.77539-1.77246-2.77539-4.41797C101.27673,218.27631,101.78455,216.04877,104.22107,216.04877z M60.65271,218.08099
				c1.95508,0,2.47559,1.17285,2.47559,3.12793v0.74219h-3.66113v0.4043c0,0.93848,0.11719,2.13672,1.17285,2.13672
				c1.00293,0,1.12012-1.14648,1.12012-1.56348h1.3291c0,1.55078-0.9375,2.52832-2.46289,2.52832
				c-1.14648,0-2.56641-0.33887-2.56641-3.58398C58.05994,220.03607,58.45056,218.08099,60.65271,218.08099z M68.35632,308.05463
				c0.88379,0,1.31836-0.66602,1.31836-1.74023v-1.22363c-0.37988,0.29883-1.19629,0.47559-1.63086,0.67969
				c-0.42188,0.2041-0.59863,0.63965-0.59863,1.18262C67.44519,307.56537,67.74402,308.05463,68.35632,308.05463z
				 M93.36951,344.47455c-1.06055,0-1.25098,1.1416-1.25098,2.75977c0,1.8623,0.19043,2.75977,1.25098,2.75977
				c1.07422,0,1.26465-0.89746,1.26465-2.75977C94.63416,345.61615,94.44373,344.47455,93.36951,344.47455z M52.26794,342.35345
				h-0.99316v3.3584h1.10156c0.8291,0,1.5498-0.44922,1.5498-1.67285C53.92615,342.99213,53.50525,342.35345,52.26794,342.35345z
				 M95.63953,308.05463c1.07422,0,1.26465-0.89746,1.26465-2.75977c0-1.61816-0.19043-2.75977-1.26465-2.75977
				c-1.06055,0-1.25098,1.1416-1.25098,2.75977C94.38855,307.15717,94.57898,308.05463,95.63953,308.05463z M61.93787,344.39252
				c-0.93848,0-1.22363,0.9248-1.22363,1.87695v0.14941h2.35156v-0.39453C63.0658,345.09955,62.76697,344.39252,61.93787,344.39252z
				 M90.19812,301.80072c0-1.15527-0.69336-1.38672-1.56348-1.38672h-1.08789v2.92285h1.22363
				C89.70886,303.33685,90.19812,302.71185,90.19812,301.80072z M90.51062,306.07025c0-1.04688-0.625-1.64551-1.52246-1.64551
				h-1.44141v3.3584h1.53711C90.00769,307.78314,90.51062,307.18451,90.51062,306.07025z M76.80408,344.39252
				c-0.93848,0-1.22363,0.9248-1.22363,1.87695v0.14941h2.35156v-0.39453C77.93201,345.09955,77.63318,344.39252,76.80408,344.39252
				z M112.68054,304.0849c0-0.9248-0.29883-1.63184-1.12793-1.63184c-0.93848,0-1.22363,0.9248-1.22363,1.87695v0.14941h2.35156
				V304.0849z M104.45447,348.89252c0,0.6123,0.29883,1.10156,0.91113,1.10156c0.88379,0,1.31836-0.66602,1.31836-1.74023v-1.22363
				c-0.37988,0.29883-1.19629,0.47559-1.63086,0.67969C104.63123,347.914,104.45447,348.34955,104.45447,348.89252z
				 M116.25916,344.5556c-0.84277,0-1.1416,0.67969-1.1416,2.65137c0,1.65918,0.2168,2.70605,1.2373,2.70605
				c1.00586,0,1.23633-1.0332,1.23633-2.59668C117.59119,345.56244,117.38806,344.5556,116.25916,344.5556z M113.3739,298.72845
				l-1.44141,1.95801h-1.00586l0.81641-1.95801H113.3739z M107.58093,299.24506v9.70703h-1.46777v-9.70703H107.58093z
				 M79.03308,308.05463c0.81543,0.01367,1.11523-0.66602,1.11523-1.76758h1.38672c-0.0957,1.75391-0.69336,2.85547-2.50195,2.85547
				c-2.12109,0-2.71875-1.57715-2.71875-3.84766s0.59766-3.84766,2.71875-3.84766c2.18848-0.02734,2.51563,1.71289,2.51563,2.62402
				h-1.46875c0-0.67969-0.19043-1.56348-1.04688-1.53613c-1.06055,0-1.25098,1.1416-1.25098,2.75977
				S77.97253,308.05463,79.03308,308.05463z M63.25476,300.87592l-1.95801,8.07617h-1.30469l-1.95801-8.07617h-0.02734v8.07617
				h-1.46875v-9.70703h2.41992l1.71387,7.19141h0.02637l1.68652-7.19141h2.36523v9.70703H63.2821v-8.07617H63.25476z
				 M67.67664,304.79193l1.1416-0.3125c0.53027-0.14941,0.85645-0.2998,0.85645-0.93848c0-0.66602-0.23047-1.08789-1.00586-1.08789
				c-0.97852,0-1.11426,0.69336-1.11426,1.40039h-1.3877c0-1.5498,0.63965-2.40625,2.57031-2.40625
				c1.29102,0,2.32422,0.50293,2.32422,1.79492v4.1875c0,0.27148,0.16309,0.5166,0.38086,0.5166
				c0.0957,0,0.19043-0.01367,0.24512-0.04102v0.95215c-0.17676,0.08105-0.43555,0.17676-0.7207,0.17676
				c-0.65234,0-1.19629-0.25879-1.2373-0.96582h-0.02734c-0.39453,0.7207-0.96484,1.07422-1.82129,1.07422
				c-1.16992,0-1.90332-0.65234-1.90332-2.05273C65.97742,305.45795,66.68445,305.1181,67.67664,304.79193z M72.56042,301.63763
				h1.46875v1.1416h0.02637c0.32617-0.81543,0.87012-1.33203,1.7002-1.33203c0.16309,0,0.25781,0.02734,0.35352,0.05469v1.49512
				c-0.10938-0.02734-0.36719-0.08105-0.6123-0.08105c-0.66602,0-1.46777,0.29883-1.46777,1.6582v4.37793h-1.46875V301.63763z
				 M85.99695,308.95209v-9.70703h3.14063c1.44141,0,2.61035,0.63867,2.61035,2.35156c0,1.18262-0.46191,1.90332-1.42676,2.20313
				v0.02637c1.05957,0.19043,1.74023,0.83008,1.74023,2.47461c0,1.61816-1.16992,2.65137-2.99121,2.65137H85.99695z
				 M95.63953,301.4472c2.13477,0,2.73242,1.57715,2.73242,3.84766s-0.69336,3.84766-2.73242,3.84766
				c-2.02539,0-2.71875-1.57715-2.71875-3.84766S93.51843,301.4472,95.63953,301.4472z M52.63513,346.8808h-1.36035v4.01074h-1.5498
				v-9.70703h3.07324c1.8623,0,2.67773,1.16895,2.67773,2.82813C55.47595,345.75287,54.45642,346.8808,52.63513,346.8808z
				 M57.96716,350.89154h-1.46777v-7.31445h1.46777V350.89154z M57.96716,342.54388h-1.46777v-1.46875h1.46777V342.54388z
				 M64.53455,347.42474h-3.82031v0.42188c0,0.97852,0.12207,2.22949,1.22363,2.22949c1.04688,0,1.16895-1.19629,1.16895-1.63184
				h1.38672c0,1.61816-0.97852,2.6377-2.56934,2.6377c-1.19629,0-2.67871-0.35352-2.67871-3.73926
				c0-1.91699,0.4082-3.95605,2.70605-3.95605c2.03906,0,2.58301,1.22363,2.58301,3.2627V347.42474z M69.29626,344.93646
				c-0.10938-0.02734-0.36719-0.08105-0.6123-0.08105c-0.66602,0-1.46875,0.29883-1.46875,1.6582v4.37793h-1.46777v-7.31445h1.46777
				v1.1416h0.02734c0.32617-0.81543,0.87012-1.33203,1.7002-1.33203c0.16309,0,0.25781,0.02734,0.35352,0.05469V344.93646z
				 M73.58044,344.93646c-0.10938-0.02734-0.36719-0.08105-0.6123-0.08105c-0.66602,0-1.46777,0.29883-1.46777,1.6582v4.37793
				h-1.46875v-7.31445h1.46875v1.1416h0.02637c0.32617-0.81543,0.87012-1.33203,1.7002-1.33203
				c0.16309,0,0.25781,0.02734,0.35352,0.05469V344.93646z M79.40076,347.42474h-3.82031v0.42188
				c0,0.97852,0.12207,2.22949,1.22363,2.22949c1.04688,0,1.16895-1.19629,1.16895-1.63184h1.38672
				c0,1.61816-0.97852,2.6377-2.56934,2.6377c-1.19629,0-2.67871-0.35352-2.67871-3.73926c0-1.91699,0.4082-3.95605,2.70605-3.95605
				c2.03906,0,2.58301,1.22363,2.58301,3.2627V347.42474z M89.9408,347.61517c0,1.75391-0.70703,3.4668-2.99121,3.4668
				c-2.44727,0-3.20801-1.57715-3.20801-5.04395s0.76074-5.04395,3.22168-5.04395c2.75977,0,2.92285,2.03906,2.92285,3.04492
				v0.17676h-1.5498v-0.16309c0-0.89746-0.27148-1.93066-1.38672-1.88965c-1.1416,0-1.6582,0.70703-1.6582,3.83398
				s0.5166,3.91602,1.6582,3.91602c1.29199,0,1.44141-1.44141,1.44141-2.33887v-0.16309h1.5498V347.61517z M93.36951,351.08197
				c-2.02539,0-2.71875-1.57715-2.71875-3.84766s0.59766-3.84766,2.71875-3.84766c2.13477,0,2.73242,1.57715,2.73242,3.84766
				S95.40857,351.08197,93.36951,351.08197z M98.76892,350.89154h-1.46777v-9.70703h1.46777V350.89154z M99.50281,306.74994v-5.1123
				h1.46777v5.24805c0,0.81543,0.36719,1.08789,0.99316,1.08789c0.625,0,1.19629-0.4082,1.19629-1.22363v-5.1123h1.46777v7.31445
				h-1.38672v-0.85645h-0.04004c-0.36719,0.65234-1.06055,1.04688-1.87695,1.04688
				C100.23718,309.14252,99.50281,308.63959,99.50281,306.74994z M101.78845,350.89154h-1.46777v-9.70703h1.46777V350.89154z
				 M108.69666,350.79681c-0.17676,0.08105-0.43555,0.17676-0.7207,0.17676c-0.65234,0-1.19629-0.25879-1.2373-0.96582h-0.02734
				c-0.39453,0.7207-0.96484,1.07422-1.82129,1.07422c-1.16992,0-1.90332-0.65234-1.90332-2.05273
				c0-1.63184,0.70703-1.97168,1.69922-2.29785l1.1416-0.3125c0.53027-0.14941,0.85645-0.2998,0.85645-0.93848
				c0-0.66602-0.23047-1.08789-1.00586-1.08789c-0.97852,0-1.11426,0.69336-1.11426,1.40039h-1.3877
				c0-1.5498,0.63965-2.40625,2.57031-2.40625c1.29102,0,2.32422,0.50293,2.32422,1.79492v4.1875
				c0,0.27148,0.16309,0.5166,0.38086,0.5166c0.0957,0,0.19043-0.01367,0.24512-0.04102V350.79681z M111.56628,301.4472
				c2.03906,0,2.58301,1.22363,2.58301,3.2627v0.77539h-3.82031v0.42188c0,0.97852,0.12207,2.22949,1.22363,2.22949
				c1.04688,0,1.16895-1.19629,1.16895-1.63184h1.38672c0,1.61816-0.97852,2.6377-2.56934,2.6377
				c-1.19629,0-2.67871-0.35352-2.67871-3.73926C108.86023,303.48627,109.26843,301.4472,111.56628,301.4472z M113.11755,344.93646
				c-0.10938-0.02734-0.36719-0.08105-0.6123-0.08105c-0.66602,0-1.46777,0.29883-1.46777,1.6582v4.37793h-1.46875v-7.31445h1.46875
				v1.1416h0.02637c0.32617-0.81543,0.87012-1.33203,1.7002-1.33203c0.16309,0,0.25781,0.02734,0.35352,0.05469V344.93646z
				 M118.97791,350.89154h-1.38672v-0.89746h-0.02637c-0.19043,0.47559-0.55762,1.08789-1.60449,1.08789
				c-1.71289,0-2.39258-1.42773-2.39258-3.94238c0-3.25,1.1416-3.75293,2.25684-3.75293c0.78809,0,1.38672,0.39453,1.6582,1.04688
				h0.02734v-3.24902h1.46777V350.89154z M55.63806,225.27435h-1.6416l-1.87695-7.01074h1.51172l1.22559,5.52539h0.02539
				l1.10742-5.52539h1.49902L55.63806,225.27435z M58.31335,23.00777c0-0.46094,0.36963-0.83008,0.83008-0.83008l0,0
				c0.44971,0,0.82959,0.36914,0.82959,0.83008l0,0c0,0.45996-0.37988,0.8291-0.82959,0.8291l0,0
				C58.68298,23.83687,58.31335,23.46773,58.31335,23.00777z M53.39343,23.00777c0-0.46094,0.36963-0.83008,0.82959-0.83008l0,0
				c0.4502,0,0.82031,0.36914,0.82031,0.83008l0,0c0,0.45996-0.37012,0.8291-0.82031,0.8291l0,0
				C53.76306,23.83687,53.39343,23.46773,53.39343,23.00777z M48.46326,23.00777c0-0.46094,0.37988-0.83008,0.83008-0.83008l0,0
				c0.45996,0,0.83008,0.36914,0.83008,0.83008l0,0c0,0.45996-0.37012,0.8291-0.83008,0.8291l0,0
				C48.84314,23.83687,48.46326,23.46773,48.46326,23.00777z M43.54333,23.00777c0-0.46094,0.36963-0.83008,0.83008-0.83008l0,0
				c0.45996,0,0.82959,0.36914,0.82959,0.83008l0,0c0,0.45996-0.36963,0.8291-0.82959,0.8291l0,0
				C43.91296,23.83687,43.54333,23.46773,43.54333,23.00777z M38.62341,23.00777c0-0.46094,0.36963-0.83008,0.82959-0.83008l0,0
				c0.45996,0,0.83008,0.36914,0.83008,0.83008l0,0c0,0.45996-0.37012,0.8291-0.83008,0.8291l0,0
				C38.99304,23.83687,38.62341,23.46773,38.62341,23.00777z M33.703,23.00777c0-0.46094,0.37012-0.83008,0.83008-0.83008l0,0
				c0.45996,0,0.82031,0.36914,0.82031,0.83008l0,0c0,0.45996-0.36035,0.8291-0.82031,0.8291l0,0
				C34.07312,23.83687,33.703,23.46773,33.703,23.00777z M28.78308,23.00777c0-0.46094,0.37012-0.83008,0.83008-0.83008l0,0
				c0.4502,0,0.81982,0.36914,0.81982,0.83008l0,0c0,0.45996-0.36963,0.8291-0.81982,0.8291l0,0
				C29.1532,23.83687,28.78308,23.46773,28.78308,23.00777z M23.86316,23.00777c0-0.46094,0.37012-0.83008,0.81982-0.83008l0,0
				c0.46045,0,0.83008,0.36914,0.83008,0.83008l0,0c0,0.45996-0.36963,0.8291-0.83008,0.8291l0,0
				C24.23328,23.83687,23.86316,23.46773,23.86316,23.00777z M18.93298,23.00777c0-0.46094,0.37012-0.83008,0.83008-0.83008l0,0
				c0.45996,0,0.83008,0.36914,0.83008,0.83008l0,0c0,0.45996-0.37012,0.8291-0.83008,0.8291l0,0
				C19.3031,23.83687,18.93298,23.46773,18.93298,23.00777z M14.01306,23.00777c0-0.46094,0.37012-0.83008,0.83008-0.83008l0,0
				c0.45996,0,0.83008,0.36914,0.83008,0.83008l0,0c0,0.45996-0.37012,0.8291-0.83008,0.8291l0,0
				C14.38318,23.83687,14.01306,23.46773,14.01306,23.00777z M9.09314,23.00777c0-0.46094,0.37012-0.83008,0.83008-0.83008l0,0
				c0.45996,0,0.83008,0.36914,0.83008,0.83008l0,0c0,0.45996-0.37012,0.8291-0.83008,0.8291l0,0
				C9.46326,23.83687,9.09314,23.46773,9.09314,23.00777z"/>
			<g>
				<path fill="#E5E5E5" d="M108.0238,223.55463h1.48535v1.71973h-1.48535V223.55463z"/>
				<path fill="#E5E5E5" d="M110.74548,222.7851h1.40723v0.24805c0,0.69043,0.37793,1.30273,1.21191,1.30273
					c1.0293,0,1.31641-1.0166,1.31641-2.09766c0-1.06836-0.28711-1.96777-1.23828-1.96777c-0.625,0-1.08105,0.33887-1.21191,0.84668
					l-1.31641-0.05176l0.45605-4.83496h4.44434v1.18652h-3.33594l-0.2998,2.42383l0.02539,0.02539
					c0.3916-0.44238,0.95215-0.7168,1.55078-0.7168c1.92871,0,2.41113,1.62891,2.41113,3.0498
					c0,1.85059-0.84668,3.25781-2.84082,3.25781c-1.6416,0-2.58008-0.84766-2.58008-2.47559V222.7851z"/>
			</g>
		</g>
		<g>
			<path fill="#E5E5E5" d="M162.5033,23.83687c-0.10986,0-0.22021-0.0293-0.32031-0.06934
				c-0.09961-0.04004-0.18994-0.10059-0.27002-0.18066c-0.07959-0.06934-0.13965-0.16992-0.17969-0.25977
				c-0.04004-0.10938-0.06006-0.20996-0.06006-0.31934c0-0.11035,0.02002-0.2207,0.06006-0.32031
				c0.04004-0.10059,0.1001-0.19043,0.17969-0.27051c0.31006-0.30957,0.87012-0.30957,1.17041,0
				c0.07959,0.08008,0.13965,0.16992,0.17969,0.27051c0.04004,0.09961,0.06006,0.20996,0.06006,0.32031
				c0,0.10938-0.02002,0.20996-0.06006,0.31934c-0.04004,0.08984-0.1001,0.19043-0.17969,0.25977
				C162.93298,23.74703,162.72302,23.83687,162.5033,23.83687z"/>
		</g>
	</g>
</g>
<g id="JACKS" display="none">
</g>
<g id="KNOBS" display="none">
</g>
<g id="PUSH" display="none">
</g>
<g id="LEDS" display="none">
</g>
</svg>
