<svg id="Layer_4" data-name="Layer 4" xmlns="http://www.w3.org/2000/svg" xmlns:xlink="http://www.w3.org/1999/xlink" width="60" height="380" viewBox="0 0 60 380">
  <defs>
    <linearGradient id="linear-gradient" x1="-79.05554" y1="79.63888" x2="138.32788" y2="297.02231" gradientUnits="userSpaceOnUse">
      <stop offset="0.38537" stop-color="#ffcc9e"/>
      <stop offset="0.40948" stop-color="#fdc89a"/>
      <stop offset="0.66891" stop-color="#efa075"/>
      <stop offset="0.8747" stop-color="#e5875e"/>
      <stop offset="1" stop-color="#e27e56"/>
    </linearGradient>
  </defs>
  <title>BlankLogoBG-01</title>
  <rect y="0.58334" width="59.27234" height="375.49451" style="fill: url(#linear-gradient)"/>
  <g>
    <path d="M30.13647,157.41052a4.70069,4.70069,0,0,0-4.59155,4.76551v1.86175h9.18347V162.176A4.70076,4.70076,0,0,0,30.13647,157.41052Z" style="fill: #252626"/>
    <path d="M30.03711,182.79913a4.87709,4.87709,0,1,0,4.88965,4.86451A4.9259,4.9259,0,0,0,30.03711,182.79913Z" style="fill: #252626"/>
    <g>
      <path d="M17.39246,105.76892h.12011v-.00976a.82377.82377,0,1,0-.24023-1.62989v-.01074a.8295.8295,0,0,0,.12012,1.65039Z" style="fill: none"/>
      <path d="M17.5,23.84735a.82521.82521,0,1,0,0-1.65039.82521.82521,0,1,0,0,1.65039Z" style="fill: none"/>
      <path d="M19.10242,37.3988H19.162a.83263.83263,0,1,0-.12989-1.66015.83153.83153,0,0,0,.07032,1.66015Z" style="fill: none"/>
      <path d="M14.5321,312.57379a.83373.83373,0,0,0-.71-.94043h-.10937a.82374.82374,0,0,0-.11035,1.64063v.00976A.83063.83063,0,0,0,14.5321,312.57379Z" style="fill: none"/>
      <path d="M21.79688,50.96875a5.73319,5.73319,0,0,0,1.837,2.28375,5.15167,5.15167,0,0,0,2.87885.91809,4.86959,4.86959,0,0,0,4.39318-2.55627,17.00422,17.00422,0,0,0,1.21619-3.92151c.22363-1.11688.64557-2.40759,1.34045-2.40759a1.28985,1.28985,0,0,1,1.14167.81909,2.91217,2.91217,0,0,1,.27289,1.29034,4.30287,4.30287,0,0,1-.12378.9433,7.32875,7.32875,0,0,1-2.085,3.5741l3.25153,2.82959a11.95024,11.95024,0,0,0,3.003-5.53491,8.38212,8.38212,0,0,0,.19879-1.78724,6.46537,6.46537,0,0,0-.67047-3.12731,6.12664,6.12664,0,0,0-1.88623-2.35785,5.21189,5.21189,0,0,0-3.10242-.94294,4.94445,4.94445,0,0,0-4.49261,2.73017v-.02484a13.14489,13.14489,0,0,0-1.06714,3.35046c-.04968.174-.04968.34747-.09936.49652-.29773,1.43945-.6203,2.33307-1.29071,2.33307a1.02636,1.02636,0,0,1-.86841-.71973,2.50671,2.50671,0,0,1-.24848-1.14166c0-.9433.22364-1.88623,1.73761-3.7232L23.85706,41.562a10.33,10.33,0,0,0-2.606,5.08808,8.44072,8.44072,0,0,0-.09937,1.31561,7.17162,7.17162,0,0,0,.67,3.02789Z" style="fill: none"/>
      <path d="M12.662,148.36853a.82273.82273,0,0,0,.76074.51074.90252.90252,0,0,0,.31934-.06054.83417.83417,0,0,0,.44043-1.08985.82479.82479,0,0,0-1.52051.63965Z" style="fill: none"/>
      <path d="M13.82214,121.74841a.64452.64452,0,0,0,.19043-.02929.82853.82853,0,0,0-.39062-1.61036.832.832,0,0,0,.20019,1.63965Z" style="fill: none"/>
      <path d="M13.622,255.24371a.82852.82852,0,0,0,.39062-1.61035.64453.64453,0,0,0-.19043-.0293.832.832,0,0,0-.20019,1.63965Z" style="fill: none"/>
      <path d="M14.1825,227.6236a.83416.83416,0,0,0-.44043-1.08985.9023.9023,0,0,0-.31934-.06054.82729.82729,0,1,0,.75977,1.15039Z" style="fill: none"/>
      <path d="M22.77234,61.97888a.83241.83241,0,0,0,.83008.78028h.0498a.82893.82893,0,0,0,.77051-.87989.81366.81366,0,0,0-.87012-.77051V61.099A.82942.82942,0,0,0,22.77234,61.97888Z" style="fill: none"/>
      <path d="M12.44226,155.86853a.8352.8352,0,0,0,.73047.44043.92853.92853,0,0,0,.38965-.08984A.838.838,0,0,0,13.912,155.099a.8295.8295,0,1,0-1.46973.76953Z" style="fill: none"/>
      <path d="M22.5,23.84735a.82521.82521,0,1,0-.83008-.83008A.82814.82814,0,0,0,22.5,23.84735Z" style="fill: none"/>
      <path d="M19.06238,245.1441h-.00977a.70929.70929,0,0,0-.15039-.01074.815.815,0,0,0-.80957.66992.82482.82482,0,1,0,.96973-.65918Z" style="fill: none"/>
      <path d="M28.58191,62.56873a.82538.82538,0,0,0,.81055-.83985.8343.8343,0,0,0-.83985-.82031.84389.84389,0,0,0-.82031.85059.83253.83253,0,0,0,.83984.80957Z" style="fill: none"/>
      <path d="M18.75281,128.57849a.82929.82929,0,0,0-.66016.9707.815.815,0,0,0,.80957.66993.70864.70864,0,0,0,.15039-.01075h.00977a.82957.82957,0,0,0-.30957-1.62988Z" style="fill: none"/>
      <path d="M29.0321,36.94861h.01075a.82607.82607,0,0,0,.80957-.83985.81019.81019,0,0,0-.83008-.80957v-.01074a.829.829,0,0,0-.82031.84082A.81906.81906,0,0,0,29.0321,36.94861Z" style="fill: none"/>
      <path d="M27.5,23.84735a.82521.82521,0,1,0-.83008-.83008A.82814.82814,0,0,0,27.5,23.84735Z" style="fill: none"/>
      <path d="M12.79285,220.60406a.82863.82863,0,0,0,1.11914-.35058.838.838,0,0,0-.34961-1.12012.92853.92853,0,0,0-.38965-.08984.8266.8266,0,0,0-.37988,1.56054Z" style="fill: none"/>
      <path d="M14.08191,286.04352a.53227.53227,0,0,0-.12988-.00977.8255.8255,0,0,0-.12989,1.63965v.01074a.83517.83517,0,0,0,.9502-.69043A.81962.81962,0,0,0,14.08191,286.04352Z" style="fill: none"/>
      <path d="M12.33191,270.33356a.82883.82883,0,0,0,.35059-1.62012h-.00977a.48131.48131,0,0,0-.16992-.01953.82883.82883,0,0,0-.1709,1.63965Z" style="fill: none"/>
      <path d="M11.14246,210.064a.82718.82718,0,0,0,1.05957-1.27051.80135.80135,0,0,0-.5293-.18946.82574.82574,0,0,0-.53027,1.46Z" style="fill: none"/>
      <path d="M11.14246,165.28845a.82574.82574,0,0,0,.53027,1.46.80134.80134,0,0,0,.5293-.18945.82718.82718,0,0,0-1.05957-1.27051Z" style="fill: none"/>
      <path d="M16.37195,203.6441a.80108.80108,0,0,0-.54-.20019.82961.82961,0,0,0-.53906,1.46.84487.84487,0,0,0,1.16992-.08984A.82522.82522,0,0,0,16.37195,203.6441Z" style="fill: none"/>
      <path d="M16.14246,211.57379a.77949.77949,0,0,0-.41016-.12012.819.819,0,0,0-.71973.41993.82659.82659,0,0,0,1.42969.83007A.81947.81947,0,0,0,16.14246,211.57379Z" style="fill: none"/>
      <path d="M12.33191,105.01892a.82883.82883,0,0,0,.1709,1.63965.48131.48131,0,0,0,.16992-.01953h.00977a.82883.82883,0,0,0-.35059-1.62012Z" style="fill: none"/>
      <path d="M14.29285,244.03375a.88944.88944,0,0,0-.23047-.03027.84205.84205,0,0,0-.79981.60058.83191.83191,0,0,0,.58008,1.01954.82618.82618,0,0,0,.4502-1.58985Z" style="fill: none"/>
      <path d="M15.38269,195.51324a.82478.82478,0,0,0-.36035-1.56933.70961.70961,0,0,0-.34961.08008.825.825,0,1,0,.71,1.48925Z" style="fill: none"/>
      <path d="M14.86218,130.29919a.81851.81851,0,0,0-1.01953-.57031.83191.83191,0,0,0-.58008,1.01953.84206.84206,0,0,0,.79981.60059.88987.88987,0,0,0,.23047-.03027A.822.822,0,0,0,14.86218,130.29919Z" style="fill: none"/>
      <path d="M13.71277,184.49841a.82839.82839,0,0,0-.23047,1.64063.49949.49949,0,0,0,.12012.00976.83652.83652,0,0,0,.82031-.71A.848.848,0,0,0,13.71277,184.49841Z" style="fill: none"/>
      <path d="M18.55261,256.24371a.826.826,0,1,0,.26953-1.62988v-.00977c-.04,0-.08984-.01074-.12988-.01074a.83114.83114,0,0,0-.13965,1.65039Z" style="fill: none"/>
      <path d="M14.42273,189.91364a.83652.83652,0,0,0-.82031-.71.499.499,0,0,0-.12012.00977.82838.82838,0,0,0,.23047,1.64062A.84794.84794,0,0,0,14.42273,189.91364Z" style="fill: none"/>
      <path d="M11.7821,201.13336a.82989.82989,0,0,0,1.33985-.97949.85307.85307,0,0,0-.66992-.33984.81989.81989,0,0,0-.48926.15918A.834.834,0,0,0,11.7821,201.13336Z" style="fill: none"/>
      <path d="M13.82214,87.66833v.01075a.8255.8255,0,0,0,.12989,1.63965.53227.53227,0,0,0,.12988-.00977.81963.81963,0,0,0,.69043-.9502A.83519.83519,0,0,0,13.82214,87.66833Z" style="fill: none"/>
      <path d="M13.60242,62.06873v.00976a.82374.82374,0,0,0,.11035,1.64063h.10937a.83249.83249,0,0,0-.21972-1.65039Z" style="fill: none"/>
      <path d="M15.02234,181.40857a.83255.83255,0,1,0-.34961-.08008A.70961.70961,0,0,0,15.02234,181.40857Z" style="fill: none"/>
      <path d="M11.7821,174.21912a.834.834,0,0,0,.18067,1.16015.81989.81989,0,0,0,.48926.15918.8531.8531,0,0,0,.66992-.33984.82989.82989,0,0,0-1.33985-.97949Z" style="fill: none"/>
      <path d="M28.80261,88.059a.84066.84066,0,0,0,.81934-.83984.82965.82965,0,1,0-1.65918.01953.83892.83892,0,0,0,.83008.82031Z" style="fill: none"/>
      <polygon points="38.973 206.326 34.704 206.326 34.704 213.872 31.328 213.872 31.328 207.12 27.034 207.12 27.034 213.872 25.52 213.872 25.52 206.152 21.3 206.152 21.3 218.19 38.973 218.19 38.973 206.326" style="fill: none"/>
      <path d="M21.15173,114.00513a7.17162,7.17162,0,0,0,.67,3.02789l-.02484-.02484a5.73319,5.73319,0,0,0,1.837,2.28375,5.15167,5.15167,0,0,0,2.87885.91809,4.86961,4.86961,0,0,0,4.39318-2.55627,17.00422,17.00422,0,0,0,1.21619-3.92151c.22363-1.11688.64557-2.40759,1.34045-2.40759a1.28985,1.28985,0,0,1,1.14167.81909,2.91217,2.91217,0,0,1,.27289,1.29034,4.30287,4.30287,0,0,1-.12378.9433,7.32875,7.32875,0,0,1-2.085,3.5741l3.25153,2.82959a11.95022,11.95022,0,0,0,3.003-5.53492,8.382,8.382,0,0,0,.19879-1.78723,6.46544,6.46544,0,0,0-.67047-3.12732,6.12723,6.12723,0,0,0-1.88623-2.35785,5.212,5.212,0,0,0-3.10242-.94293,4.94444,4.94444,0,0,0-4.49261,2.73017v-.02484a13.14489,13.14489,0,0,0-1.06714,3.35046c-.04968.174-.04968.34747-.09936.49652-.29773,1.43945-.6203,2.33307-1.29071,2.33307a1.02636,1.02636,0,0,1-.86841-.71973,2.50671,2.50671,0,0,1-.24848-1.14166c0-.9433.22364-1.88623,1.73761-3.72321l-3.27636-2.73016a10.33005,10.33005,0,0,0-2.606,5.08807A8.44093,8.44093,0,0,0,21.15173,114.00513Z" style="fill: none"/>
      <path d="M21.50281,104.41833a.83341.83341,0,0,0,.81933.76075c.03028,0,.04981-.01075.08008-.01075a.82808.82808,0,1,0-.89941-.75Z" style="fill: none"/>
      <path d="M26.452,104.06873a.822.822,0,0,0,.83007.7998h.03028a.82526.82526,0,1,0-.86035-.7998Z" style="fill: none"/>
      <path d="M27.42273,223.07379a.83114.83114,0,0,0-.06055,1.66016.83225.83225,0,1,0,.12012-1.66016Z" style="fill: none"/>
      <path d="M17.88269,229.74371a.81307.81307,0,0,0,1.01953-.55957.82812.82812,0,0,0-.55957-1.03027.94683.94683,0,0,0-.23047-.03027.82551.82551,0,0,0-.22949,1.62011Z" style="fill: none"/>
      <polygon points="21.3 142.819 38.973 142.819 38.973 130.955 34.704 130.955 34.704 138.5 31.328 138.5 31.328 131.749 27.034 131.749 27.034 138.5 25.52 138.5 25.52 130.781 21.3 130.781 21.3 142.819" style="fill: none"/>
      <path d="M30.03711,178.45526a9.196,9.196,0,1,0,9.15863,9.20838A9.23689,9.23689,0,0,0,30.03711,178.45526Z" style="fill: none"/>
      <path d="M26.05261,204.6236a.83446.83446,0,0,0,1-.62012.84916.84916,0,0,0-.62011-1v.00976a.6962.6962,0,0,0-.19043-.02929.83226.83226,0,0,0-.18946,1.63965Z" style="fill: none"/>
      <path d="M39.24542,237.27393a9.43015,9.43015,0,0,0-3.7973-7.47083l-.29773-.19836H27.40631v8.66217h4.09546v-4.56708h2.184a5.05181,5.05181,0,0,1,1.46466,3.5741,5.15019,5.15019,0,0,1-10.30035,0,5.09455,5.09455,0,0,1,1.46429-3.5741l.69483-.71973-2.68049-3.07757-.84393.81909a9.13822,9.13822,0,0,0-2.73016,6.55231,9.24543,9.24543,0,0,0,18.49084,0Z" style="fill: none"/>
      <path d="M27.31238,270.484H27.2821a.81565.81565,0,1,0,.03028,0Z" style="fill: none"/>
      <path d="M23.90222,129.49841a.823.823,0,0,0,.74024-.90918.82956.82956,0,1,0-1.65039.16993.8334.8334,0,0,0,.82031.75A.25764.25764,0,0,0,23.90222,129.49841Z" style="fill: none"/>
      <path d="M29.40222,256.35406a.82058.82058,0,0,0-.80957-.84082h-.01074a.82527.82527,0,1,0,.82031.84082Z" style="fill: none"/>
      <path d="M24.44226,256.13336a.83563.83563,0,0,0-.75-.89941h-.08008a.82648.82648,0,1,0,.83008.89941Z" style="fill: none"/>
      <path d="M22.40222,270.18414c-.03027,0-.0498-.01074-.08008-.01074a.911.911,0,1,0,.08008.01074Z" style="fill: none"/>
      <path d="M16.46277,170.53845a.84487.84487,0,0,0-1.16992-.08984.82961.82961,0,0,0,.53906,1.46.801.801,0,0,0,.54-.2002A.8252.8252,0,0,0,16.46277,170.53845Z" style="fill: none"/>
      <path d="M23.88269,88.22888a.82674.82674,0,1,0-.10059-1.65039.82582.82582,0,0,0,.04981,1.65039Z" style="fill: none"/>
      <rect x="21.30035" y="91.76862" width="17.67218" height="4.31909" style="fill: none"/>
      <path d="M22.51257,222.3941a.8343.8343,0,0,0-.82031.65918.84371.84371,0,0,0,.63965.98047.83257.83257,0,0,0,.34082-1.62988A.88719.88719,0,0,0,22.51257,222.3941Z" style="fill: none"/>
      <path d="M18.88269,88.65857a.28506.28506,0,0,0,.08984-.00977.8274.8274,0,0,0,.7295-.91015.81344.81344,0,0,0-.90918-.72949v-.01075a.83236.83236,0,0,0,.08984,1.66016Z" style="fill: none"/>
      <path d="M17.87195,120.059a.83614.83614,0,0,0,.82031.7002c.04,0,.08984-.01075.12988-.01075v-.00976a.826.826,0,1,0-.95019-.67969Z" style="fill: none"/>
      <path d="M17.82214,62.3988a.83342.83342,0,0,0,.82032.75c.03027,0,.05957-.00976.08984-.00976a.82881.82881,0,1,0-.91016-.74024Z" style="fill: none"/>
      <path d="M17.31238,146.62927a.82277.82277,0,0,0,.7998.59961.94683.94683,0,0,0,.23047-.03027.82813.82813,0,0,0,.55957-1.03028.82768.82768,0,0,0-1.58984.46094Z" style="fill: none"/>
      <path d="M17.79285,198.04352a.86239.86239,0,0,0-.56055.21972.82315.82315,0,1,0,.56055-.21972Z" style="fill: none"/>
      <path d="M18.35242,175.86853a.82837.82837,0,0,0-1.12012,1.2207.86235.86235,0,0,0,.56055.21973.83043.83043,0,0,0,.55957-1.44043Z" style="fill: none"/>
      <path d="M28.79285,129.19861a.8252.8252,0,0,0,.80957-.83985.83024.83024,0,1,0-.83008.83985Z" style="fill: none"/>
      <path d="M16.94226,153.76892a.83141.83141,0,0,0,.78027.54.8619.8619,0,0,0,.28028-.04.82909.82909,0,1,0-1.06055-.5Z" style="fill: none"/>
      <polygon points="18.562 61.489 18.57 61.489 18.572 61.489 18.562 61.489" style="fill: none"/>
      <path d="M17.44226,222.6441a.82908.82908,0,1,0,.56055-1.56054.86163.86163,0,0,0-.28028-.04.82363.82363,0,0,0-.28027,1.60058Z" style="fill: none"/>
      <path d="M23.77234,145.16833a.83092.83092,0,1,0-.82031.97071c.04,0,.09082-.00977.14062-.00977A.837.837,0,0,0,23.77234,145.16833Z" style="fill: none"/>
      <path d="M22.33191,151.31873a.84369.84369,0,0,0-.63965.98046.83429.83429,0,0,0,.82031.65918.88809.88809,0,0,0,.16016-.00976.83257.83257,0,0,0-.34082-1.62988Z" style="fill: none"/>
      <path d="M26.59265,151.50916a.82918.82918,0,0,0,.83008.76953h.05957a.83225.83225,0,1,0-.88965-.76953Z" style="fill: none"/>
      <path d="M21.22253,202.70367a.83433.83433,0,0,0,1.13965-.2998.83982.83982,0,0,0-.71972-1.25.83093.83093,0,0,0-.41993,1.5498Z" style="fill: none"/>
      <path d="M28.72253,144.74841a.842.842,0,0,0-.87011-.79.83055.83055,0,0,0,.04,1.66016h.04v-.00977A.82649.82649,0,0,0,28.72253,144.74841Z" style="fill: none"/>
      <path d="M20.92273,173.78845a.85182.85182,0,0,0,.71973.41016.83982.83982,0,0,0,.71972-1.25.83432.83432,0,0,0-1.13965-.29981A.85122.85122,0,0,0,20.92273,173.78845Z" style="fill: none"/>
      <path d="M21.30035,168.30676H38.97253V162.176a8.83827,8.83827,0,1,0-17.67218,0Z" style="fill: none"/>
      <path d="M27.05261,171.349a.83446.83446,0,0,0-1-.62012.83226.83226,0,0,0,.18946,1.63965.69624.69624,0,0,0,.19043-.0293v.00977A.84916.84916,0,0,0,27.05261,171.349Z" style="fill: none"/>
      <path d="M24.06238,37.08923h.04a.82618.82618,0,1,0-.08008-1.65039.82557.82557,0,0,0,.04,1.65039Z" style="fill: none"/>
      <path d="M3.4024,360.35028a.58278.58278,0,0,0-.12988-.00976.83657.83657,0,0,0-.82031.69042.83133.83133,0,1,0,.95019-.68066Z" style="fill: none"/>
      <path d="M4.40222,133.22888a.83072.83072,0,0,0,.36035,1.58008.72047.72047,0,0,0,.34961-.08008.82977.82977,0,1,0-.71-1.5Z" style="fill: none"/>
      <path d="M4.46277,336.08356a.636.636,0,0,0-.14063-.00977.81182.81182,0,1,0,.14063.00977Z" style="fill: none"/>
      <path d="M5.04285,285.01324a.83216.83216,0,0,0-.59082-1.00976.77408.77408,0,0,0-.21-.03027.82793.82793,0,0,0-.21,1.63085H4.02234A.83977.83977,0,0,0,5.04285,285.01324Z" style="fill: none"/>
      <path d="M3.9325,309.88336a.83334.83334,0,0,0-.81055.65039.82872.82872,0,0,0,1.62012.34961.81527.81527,0,0,0-.62989-.97949A.53876.53876,0,0,0,3.9325,309.88336Z" style="fill: none"/>
      <path d="M7.24207,233.19391a.83542.83542,0,0,0-.35938-1.12012v.00977a.7423.7423,0,0,0-.37988-.09961.83325.83325,0,0,0-.38086,1.56933A.83542.83542,0,0,0,7.24207,233.19391Z" style="fill: none"/>
      <path d="M4.67273,250.63336a.8547.8547,0,0,0-.31055-.05957.83344.83344,0,0,0-.76953.51953.8301.8301,0,0,0,1.54.62012A.84112.84112,0,0,0,4.67273,250.63336Z" style="fill: none"/>
      <path d="M4.7821,221.60406a.82291.82291,0,0,0-.66992.33985.82985.82985,0,1,0,1.33985.97949.841.841,0,0,0-.18946-1.16016A.77659.77659,0,0,0,4.7821,221.60406Z" style="fill: none"/>
      <path d="M5.11218,240.6236a.72047.72047,0,0,0-.34961-.08008.83255.83255,0,1,0,.34961.08008Z" style="fill: none"/>
      <path d="M3.44458,230.03571a.81205.81205,0,0,0-.69043.38085.82766.82766,0,1,0,1.15039-.24023v-.00977A.84193.84193,0,0,0,3.44458,230.03571Z" style="fill: none"/>
      <path d="M3.122,64.81873a.83335.83335,0,0,0,.81055.65039.53876.53876,0,0,0,.17968-.02051.81527.81527,0,0,0,.62989-.97949.82872.82872,0,0,0-1.62012.34961Z" style="fill: none"/>
      <path d="M7.46277,360.95367a.38715.38715,0,0,0-.11035-.00976.82836.82836,0,1,0,.82031.93945A.81728.81728,0,0,0,7.46277,360.95367Z" style="fill: none"/>
      <path d="M4.05261,123.17908a.82439.82439,0,0,0-.46,1.08008.83344.83344,0,0,0,.76953.51953.8547.8547,0,0,0,.31055-.05957.84112.84112,0,0,0,.46-1.08008A.8319.8319,0,0,0,4.05261,123.17908Z" style="fill: none"/>
      <path d="M2.17969,23.7868A.86832.86832,0,0,0,2.5,23.84735a.8015.8015,0,0,0,.58008-.24023.79481.79481,0,0,0,.25-.58008.716.716,0,0,0-.07031-.32031.80046.80046,0,0,0-.17969-.26954.64341.64341,0,0,0-.27051-.17968.85576.85576,0,0,0-.62988,0,.80044.80044,0,0,0-.26953.17968,1.29977,1.29977,0,0,0-.18067.26954.8675.8675,0,0,0-.05957.32031.82507.82507,0,0,0,.24024.58008A.80029.80029,0,0,0,2.17969,23.7868Z" style="fill: none"/>
      <path d="M4.32214,39.27869a.636.636,0,0,0,.14063-.00977.84792.84792,0,1,0-.14063.00977Z" style="fill: none"/>
      <path d="M1.5321,190.774a.60183.60183,0,0,0-.13964.01953.82774.82774,0,1,0,.29,1.62988.84248.84248,0,0,0,.66992-.96973A.82632.82632,0,0,0,1.5321,190.774Z" style="fill: none"/>
      <path d="M3.52234,198.1236a.83529.83529,0,0,0,.5-1.05957.82636.82636,0,0,0-.78027-.55079.689.689,0,0,0-.2793.05079.82846.82846,0,0,0,.55957,1.55957Z" style="fill: none"/>
      <path d="M1.5321,181.774a.60183.60183,0,0,0-.13964.01953.82774.82774,0,1,0,.29,1.62988.84248.84248,0,0,0,.66992-.96973A.82632.82632,0,0,0,1.5321,181.774Z" style="fill: none"/>
      <path d="M4.42078,266.40582a.85962.85962,0,0,0-.26953-.04.80739.80739,0,0,0-.78028.55078.83344.83344,0,0,0,.50977,1.05958.83031.83031,0,0,0,.54-1.57032Z" style="fill: none"/>
      <path d="M27.1825,362.484H27.162a.82007.82007,0,1,0,.02051,0Z" style="fill: none"/>
      <path d="M9.34265,336.8736v-.00977H9.2323a.82839.82839,0,1,0,.81055.93945A.81757.81757,0,0,0,9.34265,336.8736Z" style="fill: none"/>
      <path d="M29.04285,338.40387H29.0321a.81906.81906,0,0,0-.83007.81934.829.829,0,0,0,.82031.84082v-.01075a.81018.81018,0,0,0,.83008-.80957A.82607.82607,0,0,0,29.04285,338.40387Z" style="fill: none"/>
      <path d="M24.10242,338.26324h-.04a.81154.81154,0,1,0,.04,0Z" style="fill: none"/>
      <path d="M22.2323,362.314c-.00977,0-.01953-.01075-.03027-.01075a.83058.83058,0,0,0-.04981,1.66016.82569.82569,0,1,0,.08008-1.64941Z" style="fill: none"/>
      <path d="M37.422,284.10944H23.21674A4.32479,4.32479,0,0,0,18.892,288.4342v41.09333a4.32478,4.32478,0,0,0,4.32477,4.32476H37.422a4.32474,4.32474,0,0,0,4.32477-4.32476V288.4342A4.32475,4.32475,0,0,0,37.422,284.10944Zm-.23481,29.24585q-.09036.31978-.19677.65576-.10693.33591-.21289.6308a6.80676,6.80676,0,0,0-.18427,1.71466,12.19439,12.19439,0,0,1-.099,1.6156,3.97733,3.97733,0,0,1-.44226,1.39825,2.98155,2.98155,0,0,1-.9563,1.07367,2.70326,2.70326,0,0,1-1.57019.42426,2.74728,2.74728,0,0,1-1.14593-.22553,3.23936,3.23936,0,0,1-.86615-.56842,3.90162,3.90162,0,0,1-.62262-.73114,3.69288,3.69288,0,0,1-.37885-.73083.19713.19713,0,0,0-.20752-.0271,1.12952,1.12952,0,0,0-.22552.11731q-.86637.54126-1.58814,1.00177-.722.46-1.29925.893-.57769.43332-1.05573.84815a6.97828,6.97828,0,0,0-.857.88446,2.10487,2.10487,0,0,0-.334.55951,2.37378,2.37378,0,0,0-.17126.68542.14678.14678,0,0,1-.253.018,2.66289,2.66289,0,0,1-.08991-.79395,5.22338,5.22338,0,0,1,.09906-1.05572,3.00494,3.00494,0,0,1,.352-.9112,3.99487,3.99487,0,0,1,.69458-.857,10.02065,10.02065,0,0,1,1.12793-.91156q.25269-.18027.59552-.39679.343-.2167.71283-.45136.36951-.23465.74-.469.36951-.23466.67658-.45105a1.21124,1.21124,0,0,0,.4422-.4693,1.88533,1.88533,0,0,0,.13531-.81226c0-.20471-.00311-.36365-.00879-.47815a.767.767,0,0,0-.04541-.25232.1622.1622,0,0,0-.11706-.09967,1.12525,1.12525,0,0,0-.22583-.0177H27.336q-.704,0-1.12793.0177a1.79115,1.79115,0,0,0-.65863.12677.61278.61278,0,0,0-.32483.32489,2.55574,2.55574,0,0,0-.14447.61316l-.054.37915a.25968.25968,0,0,1-.24383.07227c-.1145-.01233-.18323-.04828-.20752-.10852q.03644-.61368.0451-1.10968c.00538-.28888.00818-.3703.00879-.62671a.37225.37225,0,0,1,.09845-.2981l.50342-.0719a3.39979,3.39979,0,0,0,.8147-.19177.814.814,0,0,0,.43121-.43121,2.38465,2.38465,0,0,0,.16779-.87464q.02361-.56259.024-1.49731V302.648q0-.76648-.024-1.24591a2.61315,2.61315,0,0,0-.13184-.76679.67127.67127,0,0,0-.33533-.39526,2.11,2.11,0,0,0-.63525-.15576l-.86237-.09589a.39924.39924,0,0,1-.10784-.32367.30019.30019,0,0,1,.15551-.27533q.95856-.11975,2.09693-.15582,1.13736-.036,2.64764-.036a14.16,14.16,0,0,1,2.63562.21576,5.65726,5.65726,0,0,1,1.96478.7428,4.31581,4.31581,0,0,1,1.973,3.60083,5.14126,5.14126,0,0,0,.04413.78131c.023.17029.05176.36053.07349.57373q.03269.31934.05774.65546.02416.33591.05707.598a.24354.24354,0,0,1-.19648.09845.2224.2224,0,0,1-.21325-.06561q-.09842-.29481-.18006-.541a1.85524,1.85524,0,0,0-.21325-.44226,1.3371,1.3371,0,0,0-.629-.50116,1.33931,1.33931,0,0,0-.11163.08075,2.83085,2.83085,0,0,0-.50818.557,8.82441,8.82441,0,0,0-.49957.79486q-.25461.4509-.56556.97528l-1.03241,1.78625-.01635.0271h.7406q.52422,0,.88507-.02459a2.31559,2.31559,0,0,0,.50812-.07379.51977.51977,0,0,0,.23748-.15552,1.02412,1.02412,0,0,0,.15583-.41791l.13092-.67218a.25043.25043,0,0,1,.22113-.07379.238.238,0,0,1,.205.09021q0,.29517-.03283.73773-.03306.44238-.03278.91754,0,.44238.03278.86872t.03283.70465a.2357.2357,0,0,1-.205.09021.24867.24867,0,0,1-.22113-.07386l-.14728-.639a1.16957,1.16957,0,0,0-.15582-.39332.57744.57744,0,0,0-.35236-.22961,2.39244,2.39244,0,0,0-.48352-.06531q-.30331-.01656-.77844-.01642h-.95069c-.04577,0-.08673.00068-.12616.0019-.02935.05334-.05713.10412-.08172.15112a2.85319,2.85319,0,0,0-.22962.55731,2.59182,2.59182,0,0,0-.0899.56525c-.00629.11358-.01068.246-.01325.39587V312.462a8.12525,8.12525,0,0,0,.05744,1.07373,1.13687,1.13687,0,0,0,.2539.63079.58736.58736,0,0,0,.1886.14765,1.41383,1.41383,0,0,0,.33594.11481,4.49169,4.49169,0,0,0,.56525.08172q.35247.033.89325.03278.47507,0,.81128-.01642.33589-.016.57342-.041a2.40488,2.40488,0,0,0,.40973-.07385,1.75364,1.75364,0,0,0,.30341-.1145,1.97874,1.97874,0,0,0,.53247-.541,7.67894,7.67894,0,0,0,.63079-1.04876.24831.24831,0,0,1,.22144-.03278.25562.25562,0,0,1,.18866.14728Q37.277,313.03592,37.18719,313.35529Z" style="fill: none"/>
      <path d="M31.76733,308.52618q.39369-.69644.77027-1.41748.1637-.3109.35266-.66369.18786-.35193.35229-.66394.16369-.31083.26215-.53241a.94428.94428,0,0,0,.09839-.30316q0-.08185-.19684-.15577a2.08215,2.08215,0,0,0-.4917-.10632l-.29462-.03278a.27346.27346,0,0,1-.07409-.22143.20544.20544,0,0,1,.10656-.18836q.4424.03269.81946.041c.0918.00189.1836.00317.27539.00446.01453-.1634.03754-.40155.03754-.512a3.87783,3.87783,0,0,0-.99451-2.79175,3.77174,3.77174,0,0,0-2.8634-1.04217q-.47928,0-.7428.024a.72339.72339,0,0,0-.38324.11987.39382.39382,0,0,0-.14386.26337,3.37422,3.37422,0,0,0-.024.45544v3.47717q.50766-.0118.85669-.03943a.17479.17479,0,0,1,.12274.18012.28738.28738,0,0,1-.07386.22967l-.21289.03278a3.25053,3.25053,0,0,0-.55737.1391c-.08765.03851-.13086.09021-.13086.15582a.89435.89435,0,0,0,.06525.24573c.04358.12048.09558.24854.15582.38513q.08991.20535.17224.38513c.05457.12049.09241.20215.1145.24567q.459.91836.91785,1.85217.45849.93393.93433,1.78626Q31.374,309.22308,31.76733,308.52618Z" style="fill: none"/>
      <path d="M35.94666,315.32605a.26381.26381,0,0,0-.17695-.14166,1.3413,1.3413,0,0,0-.29235-.02649H31.33142a1.60606,1.60606,0,0,0-.58447.053.71875.71875,0,0,0-.06214.29242q-.026.25689-.02648.93017a5.78805,5.78805,0,0,0,.07983.95667,1.90825,1.90825,0,0,0,.381.868,2.4502,2.4502,0,0,0,.78827.62012,3.06343,3.06343,0,0,0,1.40832.26556,3.09926,3.09926,0,0,0,1.0188-.16809,2.44886,2.44886,0,0,0,1.47937-1.39069,3.20266,3.20266,0,0,0,.23053-1.27588q0-.4074-.01794-.63781A.90256.90256,0,0,0,35.94666,315.32605Z" style="fill: none"/>
      <path d="M29.932,310.77167a2.55748,2.55748,0,0,0-.15552-.44257q-.10694-.23748-.28674-.58191l-.85669-1.66925v3.41193q0,.93393.036,1.49731a2.52689,2.52689,0,0,0,.17974.87464.802.802,0,0,0,.46717.43121,3.06927,3.06927,0,0,0,.48163.12707l.00219-.00122a.65353.65353,0,0,0,.083-.14038,1.72928,1.72928,0,0,0,.11481-.61444q.01611-.39312.01642-1.04876v-.83588q0-.344-.01642-.57343A2.69053,2.69053,0,0,0,29.932,310.77167Z" style="fill: none"/>
      <path d="M11.7821,235.20367a.83361.83361,0,0,0-.46-1.08007.84964.84964,0,0,0-.30957-.05957.82988.82988,0,1,0,.76953,1.13964Z" style="fill: none"/>
      <path d="M12.372,361.54352h-.0791a.78925.78925,0,1,0,.0791,0Z" style="fill: none"/>
      <path d="M15.31238,162.349a.8313.8313,0,0,0-.29981,1.12988.819.819,0,0,0,.71973.41992.77957.77957,0,0,0,.41016-.12011.81948.81948,0,0,0,.2998-1.12989A.82878.82878,0,0,0,15.31238,162.349Z" style="fill: none"/>
      <path d="M14.24207,337.49371h-.08985a.82329.82329,0,0,0-.82031.7295.83345.83345,0,0,0,.73047.92089.84388.84388,0,0,0,.91992-.73046A.833.833,0,0,0,14.24207,337.49371Z" style="fill: none"/>
      <path d="M19.162,337.95367h-.05957a.83163.83163,0,1,0,.83008.90039A.84626.84626,0,0,0,19.162,337.95367Z" style="fill: none"/>
      <path d="M17.51257,269.59332v-.00976h-.12011a.8295.8295,0,0,0-.12012,1.65039v-.01074a.82377.82377,0,1,0,.24023-1.62989Z" style="fill: none"/>
      <path d="M15.94226,235.72321a.99162.99162,0,0,0-.22949-.0293.815.815,0,1,0,.22949.0293Z" style="fill: none"/>
      <path d="M17.30261,361.99371H17.2323a.82151.82151,0,0,0-.82031.76953.82739.82739,0,1,0,.89062-.76953Z" style="fill: none"/>
      <path d="M9.63269,242.524v-.01075a1.01094,1.01094,0,0,0-.29-.0498.8299.8299,0,1,0,.76953,1.12012A.80909.80909,0,0,0,9.63269,242.524Z" style="fill: none"/>
      <path d="M8.46277,157.40857A.82852.82852,0,1,0,9.622,157.599.83169.83169,0,0,0,8.46277,157.40857Z" style="fill: none"/>
      <path d="M8.5321,190.774a.60183.60183,0,0,0-.13964.01953.82774.82774,0,1,0,.29,1.62988.84248.84248,0,0,0,.66992-.96973A.82632.82632,0,0,0,8.5321,190.774Z" style="fill: none"/>
      <path d="M9.29285,123.04919a.83029.83029,0,1,0-.51075-1.58007.83144.83144,0,0,0,.26075,1.62011A1.11987,1.11987,0,0,0,9.29285,123.04919Z" style="fill: none"/>
      <path d="M7.35242,187.45367a.82632.82632,0,0,0-.82032-.67968.60183.60183,0,0,0-.13964.01953.82774.82774,0,1,0,.29,1.62988A.84248.84248,0,0,0,7.35242,187.45367Z" style="fill: none"/>
      <path d="M9.6825,149.82849a.83284.83284,0,0,0-1.12989-.31933.82931.82931,0,0,0,.41016,1.5498.78871.78871,0,0,0,.39941-.10059A.83536.83536,0,0,0,9.6825,149.82849Z" style="fill: none"/>
      <path d="M8.17273,170.26892a.829.829,0,0,0,.5293-1.46.82771.82771,0,0,0-1.16993.09961.83689.83689,0,0,0,.11036,1.16992A.80479.80479,0,0,0,8.17273,170.26892Z" style="fill: none"/>
      <path d="M8.6825,182.92908a.82774.82774,0,1,0-.29,1.62988.60183.60183,0,0,0,.13964.01953.82633.82633,0,0,0,.82032-.67969A.84247.84247,0,0,0,8.6825,182.92908Z" style="fill: none"/>
      <path d="M7.46277,106.20837a.83035.83035,0,0,0,.21973,1.63086.91209.91209,0,0,0,.21972-.03027.83.83,0,0,0-.43945-1.60059Z" style="fill: none"/>
      <path d="M8.662,62.85876a.82607.82607,0,0,0,.14062,1.63965.76922.76922,0,0,0,.14942-.00976.82775.82775,0,0,0-.29-1.62989Z" style="fill: none"/>
      <path d="M9.88269,89.22888a.82769.82769,0,1,0-.81055,1,.90709.90709,0,0,0,.16993-.02051A.81784.81784,0,0,0,9.88269,89.22888Z" style="fill: none"/>
      <path d="M11.01257,141.28845a.84964.84964,0,0,0,.30957-.05957.83179.83179,0,1,0-.30957.05957Z" style="fill: none"/>
      <path d="M14.15222,37.85876h.08985a.833.833,0,0,0,.74023-.91992.84389.84389,0,0,0-.91992-.73047.83345.83345,0,0,0-.73047.9209A.82329.82329,0,0,0,14.15222,37.85876Z" style="fill: none"/>
      <path d="M12.5,23.84735a.82521.82521,0,1,0-.83008-.83008A.82814.82814,0,0,0,12.5,23.84735Z" style="fill: none"/>
      <path d="M14.912,139.06873a.83424.83424,0,0,0,.80078.58984.99216.99216,0,0,0,.22949-.0293.83742.83742,0,0,0,.56055-1.03027.82936.82936,0,1,0-1.59082.46973Z" style="fill: none"/>
      <path d="M6.05261,201.43414a.84389.84389,0,0,0-.7207-.4209.8032.8032,0,0,0-.41992.11036.83125.83125,0,1,0,1.14062.31054Z" style="fill: none"/>
      <path d="M4.54285,214.72321a.82424.82424,0,0,0,1.16992-.03907.83523.83523,0,0,0-.04-1.1709.82086.82086,0,0,0-.57031-.21972.78853.78853,0,0,0-.59961.25976A.82338.82338,0,0,0,4.54285,214.72321Z" style="fill: none"/>
      <path d="M4.54285,160.62927a.82337.82337,0,0,0-.04,1.16992.7885.7885,0,0,0,.59961.25977.82083.82083,0,0,0,.57031-.21973.83523.83523,0,0,0,.04-1.1709A.82425.82425,0,0,0,4.54285,160.62927Z" style="fill: none"/>
      <path d="M4.61218,173.099a.8301.8301,0,0,0,.29981,1.12988.80319.80319,0,0,0,.41992.11035.84387.84387,0,0,0,.7207-.4209.82857.82857,0,1,0-1.44043-.81933Z" style="fill: none"/>
      <path d="M8.702,206.54352a.829.829,0,0,0-.5293-1.46.80474.80474,0,0,0-.53027.19043.83689.83689,0,0,0-.11036,1.16992A.82771.82771,0,0,0,8.702,206.54352Z" style="fill: none"/>
      <path d="M7.5,23.84735a.82521.82521,0,1,0-.83008-.83008A.82814.82814,0,0,0,7.5,23.84735Z" style="fill: none"/>
      <path d="M2.46277,177.72888a.826.826,0,0,0,.5,1.05957.689.689,0,0,0,.2793.05078.82635.82635,0,0,0,.78027-.55078.82846.82846,0,0,0-1.55957-.55957Z" style="fill: none"/>
      <path d="M10.30261,178.23865a.83138.83138,0,1,0-.65039,1.53027.86754.86754,0,0,0,.32031.05957.81043.81043,0,0,0,.75977-.5A.82932.82932,0,0,0,10.30261,178.23865Z" style="fill: none"/>
      <path d="M9.05261,131.27869a.83169.83169,0,0,0,.29,1.61035,1.01061,1.01061,0,0,0,.29-.04981v-.01074a.80909.80909,0,0,0,.47949-1.05957A.82218.82218,0,0,0,9.05261,131.27869Z" style="fill: none"/>
      <path d="M6.50281,143.36853a.7424.7424,0,0,0,.37988-.09961v.00977a.83181.83181,0,1,0-.76074-1.4795.83326.83326,0,0,0,.38086,1.56934Z" style="fill: none"/>
      <path d="M3.371,108.43591a.80739.80739,0,0,0,.78028.55078.85961.85961,0,0,0,.26953-.04.8303.8303,0,1,0-1.04981-.51075Z" style="fill: none"/>
      <path d="M4.29285,152.24841a.83124.83124,0,0,0-.18067,1.16016.8229.8229,0,0,0,.66992.33984.77653.77653,0,0,0,.48047-.15918.841.841,0,0,0,.18946-1.16015A.83007.83007,0,0,0,4.29285,152.24841Z" style="fill: none"/>
      <path d="M2.99438,143.79626a.82367.82367,0,0,0-.24023,1.13965.81206.81206,0,0,0,.69043.38086.84194.84194,0,0,0,.46-.13086v-.00976a.82651.82651,0,1,0-.91016-1.37989Z" style="fill: none"/>
      <path d="M3.4325,90.75916a.83106.83106,0,0,0,.80957.62011.77408.77408,0,0,0,.21-.03027.82864.82864,0,1,0-.42969-1.60059H4.0321A.8342.8342,0,0,0,3.4325,90.75916Z" style="fill: none"/>
      <path d="M9.2323,38.48865h.11035v-.00977a.8279.8279,0,0,0-.23047-1.63965.82841.82841,0,0,0,.12012,1.64942Z" style="fill: none"/>
      <path d="M6.88269,268.1236a.82488.82488,0,1,0,1.01953-.58008.91212.91212,0,0,0-.21972-.03028A.82207.82207,0,0,0,6.88269,268.1236Z" style="fill: none"/>
      <path d="M9.88269,286.1236a.81785.81785,0,0,0-.64062-.9795.9079.9079,0,0,0-.16993-.0205.82861.82861,0,1,0,.81055,1Z" style="fill: none"/>
      <path d="M8.46277,217.94391a.82595.82595,0,1,0-.19043-1.16016A.832.832,0,0,0,8.46277,217.94391Z" style="fill: none"/>
      <path d="M8.80261,310.85406a.81279.81279,0,1,0,.14942.00977A.76844.76844,0,0,0,8.80261,310.85406Z" style="fill: none"/>
      <path d="M9.29285,252.30328a1.12045,1.12045,0,0,0-.25-.04.83055.83055,0,1,0,.78906,1.08008A.84354.84354,0,0,0,9.29285,252.30328Z" style="fill: none"/>
      <path d="M9.6825,225.524a.83538.83538,0,0,0-.32032-1.12989.7888.7888,0,0,0-.39941-.10058.82931.82931,0,0,0-.41016,1.5498A.83284.83284,0,0,0,9.6825,225.524Z" style="fill: none"/>
      <path d="M10.30261,197.11383a.82933.82933,0,0,0,.42969-1.08984.81041.81041,0,0,0-.75977-.5.86754.86754,0,0,0-.32031.05957.83138.83138,0,1,0,.65039,1.53027Z" style="fill: none"/>
      <path d="M36.91656,312.708a7.67894,7.67894,0,0,1-.63079,1.04876,1.97874,1.97874,0,0,1-.53247.541,1.75364,1.75364,0,0,1-.30341.1145,2.40488,2.40488,0,0,1-.40973.07385q-.23748.02454-.57342.041-.33591.01658-.81128.01642-.54081,0-.89325-.03278a4.49169,4.49169,0,0,1-.56525-.08172,1.41383,1.41383,0,0,1-.33594-.11481.58736.58736,0,0,1-.1886-.14765,1.13687,1.13687,0,0,1-.2539-.63079,8.12525,8.12525,0,0,1-.05744-1.07373v-1.08155c.00257-.14984.007-.28229.01325-.39587a2.59182,2.59182,0,0,1,.0899-.56525,2.85319,2.85319,0,0,1,.22962-.55731c.02459-.047.05237-.09778.08172-.15112.03943-.00122.08039-.0019.12616-.0019h.95069q.475,0,.77844.01642a2.39244,2.39244,0,0,1,.48352.06531.57744.57744,0,0,1,.35236.22961,1.16957,1.16957,0,0,1,.15582.39332l.14728.639a.24867.24867,0,0,0,.22113.07386.2357.2357,0,0,0,.205-.09021q0-.2787-.03283-.70465-.03306-.42637-.03278-.86872,0-.475.03278-.91754.03268-.44284.03283-.73773a.238.238,0,0,0-.205-.09021.25043.25043,0,0,0-.22113.07379l-.13092.67218a1.02412,1.02412,0,0,1-.15583.41791.51977.51977,0,0,1-.23748.15552,2.31559,2.31559,0,0,1-.50812.07379q-.361.02463-.88507.02459h-.7406l.01635-.0271,1.03241-1.78625q.31083-.52469.56556-.97528a8.82441,8.82441,0,0,1,.49957-.79486,2.83085,2.83085,0,0,1,.50818-.557,1.33931,1.33931,0,0,1,.11163-.08075,1.3371,1.3371,0,0,1,.629.50116,1.85524,1.85524,0,0,1,.21325.44226q.0813.246.18006.541a.2224.2224,0,0,0,.21325.06561.24354.24354,0,0,0,.19648-.09845q-.03306-.26211-.05707-.598-.02508-.33591-.05774-.65546c-.02173-.2132-.05048-.40344-.07349-.57373a5.14126,5.14126,0,0,1-.04413-.78131,4.31581,4.31581,0,0,0-1.973-3.60083,5.65726,5.65726,0,0,0-1.96478-.7428,14.16,14.16,0,0,0-2.63562-.21576q-1.5098,0-2.64764.036-1.13837.036-2.09693.15582a.30019.30019,0,0,0-.15551.27533.39924.39924,0,0,0,.10784.32367l.86237.09589a2.11,2.11,0,0,1,.63525.15576.67127.67127,0,0,1,.33533.39526,2.61315,2.61315,0,0,1,.13184.76679q.02361.47928.024,1.24591v8.84186q0,.93393-.024,1.49731a2.38465,2.38465,0,0,1-.16779.87464.814.814,0,0,1-.43121.43121,3.39979,3.39979,0,0,1-.8147.19177l-.50342.0719a.37225.37225,0,0,0-.09845.2981c-.00061.25641-.00341.33783-.00879.62671q-.0085.49631-.0451,1.10968c.02429.06024.093.09619.20752.10852a.25968.25968,0,0,0,.24383-.07227l.054-.37915a2.55574,2.55574,0,0,1,.14447-.61316.61278.61278,0,0,1,.32483-.32489,1.79115,1.79115,0,0,1,.65863-.12677q.42388-.01758,1.12793-.0177h2.27356a1.12525,1.12525,0,0,1,.22583.0177.1622.1622,0,0,1,.11706.09967.767.767,0,0,1,.04541.25232c.00568.1145.00879.27344.00879.47815a1.88533,1.88533,0,0,1-.13531.81226,1.21124,1.21124,0,0,1-.4422.4693q-.30706.21671-.67658.45105-.37041.23427-.74.469-.37.23465-.71283.45136-.343.21624-.59552.39679a10.02065,10.02065,0,0,0-1.12793.91156,3.99487,3.99487,0,0,0-.69458.857,3.00494,3.00494,0,0,0-.352.9112,5.22338,5.22338,0,0,0-.09906,1.05572,2.66289,2.66289,0,0,0,.08991.79395.14678.14678,0,0,0,.253-.018,2.37378,2.37378,0,0,1,.17126-.68542,2.10487,2.10487,0,0,1,.334-.55951,6.97828,6.97828,0,0,1,.857-.88446q.47791-.41493,1.05573-.84815.57723-.43295,1.29925-.893.72153-.46033,1.58814-1.00177a1.12952,1.12952,0,0,1,.22552-.11731.19713.19713,0,0,1,.20752.0271,3.69288,3.69288,0,0,0,.37885.73083,3.90162,3.90162,0,0,0,.62262.73114,3.23936,3.23936,0,0,0,.86615.56842,2.74728,2.74728,0,0,0,1.14593.22553,2.70326,2.70326,0,0,0,1.57019-.42426,2.98155,2.98155,0,0,0,.9563-1.07367,3.97733,3.97733,0,0,0,.44226-1.39825,12.19439,12.19439,0,0,0,.099-1.6156,6.80676,6.80676,0,0,1,.18427-1.71466q.10638-.29517.21289-.6308.10647-.33591.19677-.65576.08991-.31944.13947-.53278a.25562.25562,0,0,0-.18866-.14728A.24831.24831,0,0,0,36.91656,312.708Zm-6.90264-.09271q0,.65578-.01642,1.04876a1.72928,1.72928,0,0,1-.11481.61444.65353.65353,0,0,1-.083.14038l-.00219.00122a3.06927,3.06927,0,0,1-.48163-.12707.802.802,0,0,1-.46717-.43121,2.52689,2.52689,0,0,1-.17974-.87464q-.036-.56259-.036-1.49731v-3.41193l.85669,1.66925q.1798.34443.28674.58191a2.55748,2.55748,0,0,1,.15552.44257,2.69053,2.69053,0,0,1,.06555.43432q.01611.22944.01642.57343Zm.04919-4.52314q-.45887-.93447-.91785-1.85217c-.02209-.04352-.05993-.12518-.1145-.24567q-.08231-.1798-.17224-.38513c-.06024-.13659-.11224-.26465-.15582-.38513a.89435.89435,0,0,1-.06525-.24573c0-.06561.04321-.11731.13086-.15582a3.25053,3.25053,0,0,1,.55737-.1391l.21289-.03278a.28738.28738,0,0,0,.07386-.22967.17479.17479,0,0,0-.12274-.18012q-.34918.02748-.85669.03943V300.8031a3.37422,3.37422,0,0,1,.024-.45544.39382.39382,0,0,1,.14386-.26337.72339.72339,0,0,1,.38324-.11987q.26349-.02372.7428-.024a3.77174,3.77174,0,0,1,2.8634,1.04217,3.87783,3.87783,0,0,1,.99451,2.79175c0,.11042-.023.34857-.03754.512-.09179-.00129-.18359-.00257-.27539-.00446q-.377-.00805-.81946-.041a.20544.20544,0,0,0-.10656.18836.27346.27346,0,0,0,.07409.22143l.29462.03278a2.08215,2.08215,0,0,1,.4917.10632q.19685.0738.19684.15577a.94428.94428,0,0,1-.09839.30316q-.09842.22137-.26215.53241-.16415.31182-.35229.66394-.18879.35256-.35266.66369-.37712.72153-.77027,1.41748-.39312.6969-.76989,1.35224Q30.52145,309.02624,30.06311,308.09216Zm5.75079,9.49292a2.44886,2.44886,0,0,1-1.47937,1.39069,3.09926,3.09926,0,0,1-1.0188.16809,3.06343,3.06343,0,0,1-1.40832-.26556,2.4502,2.4502,0,0,1-.78827-.62012,1.90825,1.90825,0,0,1-.381-.868,5.78805,5.78805,0,0,1-.07983-.95667q0-.67374.02648-.93017a.71875.71875,0,0,1,.06214-.29242,1.60606,1.60606,0,0,1,.58447-.053h4.14594a1.3413,1.3413,0,0,1,.29235.02649.26381.26381,0,0,1,.17695.14166.90256.90256,0,0,1,.07983.34534q.01749.23043.01794.63781A3.20266,3.20266,0,0,1,35.8139,317.58508Z" style="fill: #252626"/>
      <path d="M0,0V380H60V0ZM27.75281,256.32379a.82375.82375,0,0,1,.8291-.81055h.01074a.82534.82534,0,1,1-.83984.81055Zm.35937,15.00977a.83047.83047,0,1,1-.83008-.84961h.03028A.82589.82589,0,0,1,28.11218,271.33356Zm-7.3576-34.05963a9.13822,9.13822,0,0,1,2.73016-6.55231l.84393-.81909,2.68049,3.07757-.69483.71973a5.09455,5.09455,0,0,0-1.46429,3.5741,5.15019,5.15019,0,0,0,10.30035,0,5.05181,5.05181,0,0,0-1.46466-3.5741h-2.184v4.56708H27.40631v-8.66217h7.74408l.29773.19836a9.43015,9.43015,0,0,1,3.7973,7.47083,9.24543,9.24543,0,0,1-18.49084,0Zm2.03827,18.71a.82321.82321,0,0,1,.81933-.75h.08008a.83563.83563,0,0,1,.75.89941.82808.82808,0,1,1-1.64941-.14941Zm.35937,15.09961a.82812.82812,0,1,1-.83008-.91016c.03028,0,.04981.01074.08008.01074A.82872.82872,0,0,1,23.15222,271.08356ZM38.97253,91.76862v4.31909H21.30035V91.76862Zm-15.96972-4.32a.8257.8257,0,0,1,.77929-.87012.82674.82674,0,1,1,.10059,1.65039h-.05078A.83078.83078,0,0,1,23.00281,87.44861Zm4.96-.21a.82965.82965,0,1,1,.83984.82031h-.00976A.83892.83892,0,0,1,27.96277,87.23865Zm.14941,16.78027a.8259.8259,0,0,1-.7998.84961H27.2821a.82508.82508,0,1,1,.83008-.84961Zm-4.96.25a.8287.8287,0,0,1-.75.89941c-.03027,0-.0498.01075-.08008.01075a.83162.83162,0,1,1,.83008-.91016Zm.70484,3.33252,3.27636,2.73016c-1.514,1.837-1.73761,2.77991-1.73761,3.72321a2.50671,2.50671,0,0,0,.24848,1.14166,1.02636,1.02636,0,0,0,.86841.71973c.67041,0,.993-.89362,1.29071-2.33307.04968-.14905.04968-.32257.09936-.49652a13.14489,13.14489,0,0,1,1.06714-3.35046v.02484a4.94444,4.94444,0,0,1,4.49261-2.73017,5.212,5.212,0,0,1,3.10242.94293,6.12723,6.12723,0,0,1,1.88623,2.35785,6.46544,6.46544,0,0,1,.67047,3.12732,8.382,8.382,0,0,1-.19879,1.78723,11.95022,11.95022,0,0,1-3.003,5.53492l-3.25153-2.82959a7.32875,7.32875,0,0,0,2.085-3.5741,4.30287,4.30287,0,0,0,.12378-.9433,2.91217,2.91217,0,0,0-.27289-1.29034,1.28985,1.28985,0,0,0-1.14167-.81909c-.69488,0-1.11682,1.29071-1.34045,2.40759a17.00422,17.00422,0,0,1-1.21619,3.92151A4.86961,4.86961,0,0,1,26.5127,120.21a5.15167,5.15167,0,0,1-2.87885-.91809,5.73319,5.73319,0,0,1-1.837-2.28375l.02484.02484a7.17162,7.17162,0,0,1-.67-3.02789,8.44093,8.44093,0,0,1,.09937-1.31562A10.33005,10.33005,0,0,1,23.85706,107.60144ZM21.30035,218.19037v-12.0379h4.21973v7.71923H27.034v-6.75146h4.29382v6.75146h3.37573V206.326h4.269v11.86438Zm6.95246,5.77307a.83225.83225,0,1,1-1.66016-.12012.82918.82918,0,0,1,.83008-.76953h.05957A.83118.83118,0,0,1,28.25281,223.96344Zm-4.94043-.56934a.82613.82613,0,0,1-.98047.63965.84371.84371,0,0,1-.63965-.98047.8343.8343,0,0,1,.82031-.65918.88719.88719,0,0,1,.16016.00977A.83342.83342,0,0,1,23.31238,223.3941Zm2.12988-19.76074a.812.812,0,0,1,.79981-.64941.6962.6962,0,0,1,.19043.02929v-.00976a.84916.84916,0,0,1,.62011,1,.83446.83446,0,0,1-1,.62012A.81781.81781,0,0,1,25.44226,203.63336Zm4.59485-6.78625a9.196,9.196,0,1,1,9.15863-9.18347A9.19967,9.19967,0,0,1,30.03711,196.84711Zm-4.517-66.06586v7.71887H27.034v-6.75073h4.29382v6.75073h3.37573v-7.545h4.269v11.864H21.30035v-12.0379Zm-2.528-2.02209a.82956.82956,0,1,1,1.65039-.16993.823.823,0,0,1-.74024.90918.25764.25764,0,0,1-.08984.01075A.8334.8334,0,0,1,22.99207,128.75916Zm4.95019-.37012a.83023.83023,0,1,1,1.66016-.03028.8252.8252,0,0,1-.80957.83985h-.02051A.82965.82965,0,0,1,27.94226,128.389Zm-.00976,17.21972v.00977h-.04a.83055.83055,0,0,1-.04-1.66016.842.842,0,0,1,.87011.79A.82649.82649,0,0,1,27.9325,145.60876Zm.32031,5.78028a.83119.83119,0,0,1-.77051.88965h-.05957a.83114.83114,0,0,1-.06055-1.66016A.83881.83881,0,0,1,28.25281,151.389Zm-5.16016-5.25977c-.0498,0-.10058.00977-.14062.00977a.82054.82054,0,1,1,.14062-.00977Zm-.41992,6.81934a.88809.88809,0,0,1-.16016.00976.83429.83429,0,0,1-.82031-.65918.84369.84369,0,0,1,.63965-.98046.83257.83257,0,0,1,.34082,1.62988Zm7.46374.19293a8.94727,8.94727,0,0,1,8.83606,9.03449v6.13073H21.30035V162.176A8.94733,8.94733,0,0,1,30.13647,153.14154Zm-3.8944,19.227a.83226.83226,0,0,1-.18946-1.63965.83446.83446,0,0,1,1,.62012.84916.84916,0,0,1-.62011,1v-.00977A.69624.69624,0,0,1,26.24207,172.36853Zm-5.01954.28027a.83432.83432,0,0,1,1.13965.29981.83982.83982,0,0,1-.71972,1.25.83093.83093,0,0,1-.41993-1.54981Zm-.2998,28.91523a.8518.8518,0,0,1,.71973-.41016.83982.83982,0,0,1,.71972,1.25.83433.83433,0,0,1-1.13965.2998A.8512.8512,0,0,1,20.92273,201.564ZM29.5724,83.125a9.62527,9.62527,0,1,1,0-19.25,9.62527,9.62527,0,0,1,0,19.25Zm-11.01-21.63635h.00976l-.00256.00079a.82881.82881,0,0,1,.16272,1.6496c-.03027,0-.05957.00976-.08984.00976a.83163.83163,0,0,1-.07288-1.65936Zm.23047,25.50976v.01075a.81344.81344,0,0,1,.90918.72949.8274.8274,0,0,1-.7295.91015.28506.28506,0,0,1-.08984.00977.83236.83236,0,0,1-.08984-1.66016Zm-.24024,32.11035a.826.826,0,1,1,.26953,1.62989v.00976c-.04,0-.08984.01075-.12988.01075a.83115.83115,0,0,1-.13965-1.6504Zm-.66992,26.5a.81309.81309,0,0,1,1.01953.55957.82813.82813,0,0,1-.55957,1.03028.94683.94683,0,0,1-.23047.03027.82551.82551,0,0,1-.22949-1.62012Zm.51953,31.42969a.81789.81789,0,0,1-.60937.27051.86235.86235,0,0,1-.56055-.21973.82837.82837,0,1,1,1.16992-.05078Zm-.0498,22.4455a.82837.82837,0,0,1-1.12012-1.22071.86239.86239,0,0,1,.56055-.21972.83043.83043,0,0,1,.55957,1.44043Zm-.91016-46.77558a.82909.82909,0,0,1,.56055,1.56055.8619.8619,0,0,1-.28028.04.82364.82364,0,0,1-.28027-1.60059Zm-.5,68.87519a.83141.83141,0,0,1,.78027-.54.86163.86163,0,0,1,.28028.04.82908.82908,0,1,1-1.06055.5Zm.37012,7.13965a.82276.82276,0,0,1,.7998-.59961.94683.94683,0,0,1,.23047.03027.82812.82812,0,0,1,.55957,1.03027.82768.82768,0,0,1-1.58984-.46093Zm1.37988,25.87011c.04,0,.08984.01074.12988.01074v.00977a.826.826,0,1,1-.95019.67969A.83614.83614,0,0,1,18.69226,254.59332Zm.06055-7.81933a.8293.8293,0,0,1-.66016-.97071.815.815,0,0,1,.80957-.66992.70929.70929,0,0,1,.15039.01074h.00977a.82957.82957,0,0,1-.30957,1.62989Zm.30957-116.56562h-.00977a.70864.70864,0,0,1-.15039.01075.815.815,0,0,1-.80957-.66993.82482.82482,0,1,1,.96973.65918Zm5.36035-68.3291a.82893.82893,0,0,1-.77051.87989h-.0498a.8308.8308,0,0,1-.04981-1.66016v.00976A.81366.81366,0,0,1,24.42273,61.87927Zm3.30957-.12011a.84389.84389,0,0,1,.82031-.85059.8343.8343,0,0,1,.83985.82031.82538.82538,0,0,1-.81055.83985h-.00977A.83253.83253,0,0,1,27.7323,61.75916Zm1.29-26.47071v.01074a.81019.81019,0,0,1,.83008.80957.82607.82607,0,0,1-.80957.83985H29.0321a.81906.81906,0,0,1-.83007-.81934A.829.829,0,0,1,29.02234,35.28845ZM27.5,22.197a.82521.82521,0,1,1-.83008.82031A.8261.8261,0,0,1,27.5,22.197ZM24.02234,35.43884a.82618.82618,0,1,1,.08008,1.65039h-.04a.82557.82557,0,0,1-.04-1.65039ZM22.5,22.197a.82522.82522,0,0,1,0,1.65039.82521.82521,0,1,1,0-1.65039ZM21.2511,46.65009a10.33,10.33,0,0,1,2.606-5.08808l3.27636,2.73017c-1.514,1.837-1.73761,2.7799-1.73761,3.7232a2.50671,2.50671,0,0,0,.24848,1.14166,1.02636,1.02636,0,0,0,.86841.71973c.67041,0,.993-.89362,1.29071-2.33307.04968-.14905.04968-.32257.09936-.49652a13.14489,13.14489,0,0,1,1.06714-3.35046v.02484a4.94445,4.94445,0,0,1,4.49261-2.73017,5.21189,5.21189,0,0,1,3.10242.94294,6.12664,6.12664,0,0,1,1.88623,2.35785,6.46537,6.46537,0,0,1,.67047,3.12731,8.38212,8.38212,0,0,1-.19879,1.78724,11.95024,11.95024,0,0,1-3.003,5.53491l-3.25153-2.82959a7.32875,7.32875,0,0,0,2.085-3.5741,4.30287,4.30287,0,0,0,.12378-.9433,2.91217,2.91217,0,0,0-.27289-1.29034,1.28985,1.28985,0,0,0-1.14167-.81909c-.69488,0-1.11682,1.29071-1.34045,2.40759a17.00422,17.00422,0,0,1-1.21619,3.92151,4.86959,4.86959,0,0,1-4.39318,2.55627,5.15167,5.15167,0,0,1-2.87885-.91809,5.73319,5.73319,0,0,1-1.837-2.28375l.02484.02484a7.17162,7.17162,0,0,1-.67-3.02789A8.44072,8.44072,0,0,1,21.2511,46.65009Zm-2.219-10.91144A.83263.83263,0,1,1,19.162,37.3988h-.05957a.83153.83153,0,0,1-.07032-1.66015ZM17.5,22.197a.82521.82521,0,1,1-.83008.82031A.83244.83244,0,0,1,17.5,22.197Zm-.22766,81.92157v.01074a.82377.82377,0,1,1,.24023,1.62989v.00976h-.12011a.8295.8295,0,0,1-.12012-1.65039ZM12.89246,312.34332a.82912.82912,0,0,1,.82031-.71h.10937a.83249.83249,0,0,1-.21972,1.65039V313.274A.82438.82438,0,0,1,12.89246,312.34332ZM12.662,226.984a.82273.82273,0,0,1,.76074-.51074.9023.9023,0,0,1,.31934.06054.83416.83416,0,0,1,.44043,1.08985A.82479.82479,0,1,1,12.662,226.984Zm1.16015,26.62011a.64453.64453,0,0,1,.19043.0293.82852.82852,0,0,1-.39062,1.61035.832.832,0,0,1,.20019-1.63965Zm-.71972-106.31561a.81993.81993,0,0,1,1.08008.44043.83417.83417,0,0,1-.44043,1.08985.90252.90252,0,0,1-.31934.06054.82856.82856,0,0,1-.32031-1.59082Zm.51953-27.17969a.82853.82853,0,0,1,.39062,1.61036.64452.64452,0,0,1-.19043.02929.832.832,0,0,1-.20019-1.63965Zm-.8291,34.63965a.82864.82864,0,0,1,1.11914.35059.838.838,0,0,1-.34961,1.12012.92853.92853,0,0,1-.38965.08984.8352.8352,0,0,1-.73047-.44043A.82688.82688,0,0,1,12.79285,154.74841Zm.14941,19.30078a.8173.8173,0,0,1,.17969,1.14942.8531.8531,0,0,1-.66992.33984.81989.81989,0,0,1-.48926-.15918.834.834,0,0,1-.18067-1.16015A.82232.82232,0,0,1,12.94226,174.04919Zm-.97949,25.924a.81989.81989,0,0,1,.48926-.15918.85307.85307,0,0,1,.66992.33984.82989.82989,0,0,1-1.33985.97949A.834.834,0,0,1,11.96277,199.97321Zm1.21,19.07031a.92853.92853,0,0,1,.38965.08984.838.838,0,0,1,.34961,1.12012.82951.82951,0,1,1-.73926-1.21Zm.54-28.18946a.82838.82838,0,0,1-.23047-1.64062.499.499,0,0,1,.12012-.00977.83652.83652,0,0,1,.82031.71A.84794.84794,0,0,1,13.71277,190.85406Zm-.11035-4.70526a.49949.49949,0,0,1-.12012-.00976.82839.82839,0,0,1,.23047-1.64063.848.848,0,0,1,.71.94043A.83652.83652,0,0,1,13.60242,186.1488Zm.66992-5.91992a.82978.82978,0,1,1,.75,1.17969.70961.70961,0,0,1-.34961-.08008A.825.825,0,0,1,14.27234,180.22888Zm.02051-48.91015a.88987.88987,0,0,1-.23047.03027.84206.84206,0,0,1-.79981-.60059.83191.83191,0,0,1,.58008-1.01953.82618.82618,0,0,1,.4502,1.58985ZM14.08191,89.309a.53227.53227,0,0,1-.12988.00977.8255.8255,0,0,1-.12989-1.63965v-.01075a.83519.83519,0,0,1,.9502.69043A.81963.81963,0,0,1,14.08191,89.309Zm-.25977-25.58984h-.10937a.82374.82374,0,0,1-.11035-1.64063v-.00976a.83249.83249,0,0,1,.21972,1.65039Zm-.50976,41.93945a.8198.8198,0,0,1-.62988.98047h-.00977a.48131.48131,0,0,1-.16992.01953.82883.82883,0,0,1-.1709-1.63965A.8254.8254,0,0,1,13.31238,105.65857ZM12.30261,165.389A.82693.82693,0,0,1,12.202,166.559a.80134.80134,0,0,1-.5293.18945.82574.82574,0,0,1-.53027-1.46A.8232.8232,0,0,1,12.30261,165.389ZM11.04285,208.8941a.81359.81359,0,0,1,.62988-.29.80135.80135,0,0,1,.5293.18946.82718.82718,0,0,1-1.05957,1.27051A.81753.81753,0,0,1,11.04285,208.8941Zm1.46,59.79981a.48131.48131,0,0,1,.16992.01953h.00977a.82883.82883,0,0,1-.35059,1.62012.82883.82883,0,0,1,.1709-1.63965Zm1.31933,18.99023v-.01074a.8255.8255,0,0,1,.12989-1.63965.53227.53227,0,0,1,.12988.00977.81962.81962,0,0,1,.69043.95019A.83517.83517,0,0,1,13.82214,287.68414Zm.02051-42.06054a.83191.83191,0,0,1-.58008-1.01954.84205.84205,0,0,1,.79981-.60058.88944.88944,0,0,1,.23047.03027.82618.82618,0,0,1-.4502,1.58985Zm.42969-50.5a.825.825,0,0,1,.40039-1.09961.70961.70961,0,0,1,.34961-.08008.82663.82663,0,1,1-.75,1.17969Zm2.19043,9.69043a.84487.84487,0,0,1-1.16992.08984.82961.82961,0,0,1,.53906-1.46.80108.80108,0,0,1,.54.20019A.82522.82522,0,0,1,16.46277,204.814Zm-.02051,7.88964a.82659.82659,0,0,1-1.42969-.83007.819.819,0,0,1,.71973-.41993.77949.77949,0,0,1,.41016.12012A.81947.81947,0,0,1,16.44226,212.70367Zm-.07031-40.9953a.801.801,0,0,1-.54.2002.82961.82961,0,0,1-.53906-1.46.84487.84487,0,0,1,1.16992.08984A.8252.8252,0,0,1,16.37195,171.70837Zm-.22949-7.92968a.77957.77957,0,0,1-.41016.12011.819.819,0,0,1-.71973-.41992.8266.8266,0,0,1,1.42969-.83008A.81948.81948,0,0,1,16.14246,163.77869Zm-.66993-25.74024a.82876.82876,0,0,1,1.03028.56055.83742.83742,0,0,1-.56055,1.03027.99216.99216,0,0,1-.22949.0293.82662.82662,0,0,1-.24024-1.62012ZM14.06238,36.20837a.84389.84389,0,0,1,.91992.73047.833.833,0,0,1-.74023.91992h-.08985a.82329.82329,0,0,1-.82031-.72949A.83345.83345,0,0,1,14.06238,36.20837ZM12.5,22.197a.82521.82521,0,1,1-.83008.82031A.8261.8261,0,0,1,12.5,22.197ZM10.702,139.68884a.8301.8301,0,0,1,.62011,1.54.84964.84964,0,0,1-.30957.05957.82977.82977,0,0,1-.31054-1.59961Zm-5.0293,22.15039a.82083.82083,0,0,1-.57031.21973.7885.7885,0,0,1-.59961-.25977.82808.82808,0,0,1,1.21-1.13086A.83523.83523,0,0,1,5.67273,161.83923Zm.37988,12.0791a.84387.84387,0,0,1-.7207.4209.80319.80319,0,0,1-.41992-.11035.83125.83125,0,1,1,1.14062-.31055Zm-1.5498,39.635a.78853.78853,0,0,1,.59961-.25976.82086.82086,0,0,1,.57031.21972.83523.83523,0,0,1,.04,1.1709.82808.82808,0,0,1-1.21-1.13086ZM5.74207,202.564A.83128.83128,0,0,1,4.912,201.1236a.8032.8032,0,0,1,.41992-.11036.84389.84389,0,0,1,.7207.4209A.835.835,0,0,1,5.74207,202.564Zm-.01954-14.81055a.82047.82047,0,0,1,.66993-.96.60183.60183,0,0,1,.13964-.01953.82632.82632,0,0,1,.82032.67968.84248.84248,0,0,1-.66992.96973A.82761.82761,0,0,1,5.72253,187.75348Zm3.63965-36.79511a.78871.78871,0,0,1-.39941.10059.82931.82931,0,0,1-.41016-1.5498.83.83,0,1,1,.80957,1.44921Zm.06055,7.80079A.82852.82852,0,1,1,9.622,157.599.83244.83244,0,0,1,9.42273,158.75916Zm-1.16992-36.25a.82819.82819,0,1,1,1.5791-.5.84353.84353,0,0,1-.53906,1.04,1.11987,1.11987,0,0,1-.25.04A.83378.83378,0,0,1,8.25281,122.50916Zm.98926-32.30079a.90709.90709,0,0,1-.16993.02051.82861.82861,0,1,1,.81055-1A.81784.81784,0,0,1,9.24207,90.20837Zm-.29-25.71972a.76922.76922,0,0,1-.14942.00976.81274.81274,0,1,1,.14942-.00976Zm-.4795,42.2998a.81911.81911,0,0,1-.57031,1.02051.91209.91209,0,0,1-.21972.03027.82909.82909,0,1,1,.79-1.05078ZM7.5321,168.90857A.82771.82771,0,0,1,8.702,168.809a.829.829,0,0,1-.5293,1.46.80479.80479,0,0,1-.53027-.19043A.83689.83689,0,0,1,7.5321,168.90857Zm1,15.66992a.60183.60183,0,0,1-.13964-.01953.82774.82774,0,1,1,.29-1.62988.84247.84247,0,0,1,.66992.96972A.82633.82633,0,0,1,8.5321,184.57849Zm.82032,6.87518a.84248.84248,0,0,1-.66992.96973.82774.82774,0,1,1-.29-1.62988.60183.60183,0,0,1,.13964-.01953A.82632.82632,0,0,1,9.35242,191.45367Zm-1.71,13.82032a.821.821,0,0,1,1.16015.10937.8145.8145,0,0,1-.10058,1.16016.82771.82771,0,0,1-1.16993-.09961A.83689.83689,0,0,1,7.64246,205.274Zm1.78027,11.31933a.8367.8367,0,1,1-.48047-.14941A.83257.83257,0,0,1,9.42273,216.59332ZM7.6825,267.51324a.91212.91212,0,0,1,.21972.03028.82663.82663,0,1,1-.21972-.03028Zm1.21972,19.25a.82882.82882,0,0,1,.16992-1.63964.9079.9079,0,0,1,.16993.0205.81785.81785,0,0,1,.64062.9795A.82948.82948,0,0,1,8.90222,286.76324ZM9.622,311.82379a.82775.82775,0,1,1-.81934-.96973.76844.76844,0,0,1,.14942.00977A.82761.82761,0,0,1,9.622,311.82379Zm.21-58.48047a.82819.82819,0,1,1-.78906-1.08008,1.12045,1.12045,0,0,1,.25.04A.84354.84354,0,0,1,9.83191,253.34332ZM8.24207,224.71344a.82165.82165,0,0,1,.7207-.41992.7888.7888,0,0,1,.39941.10058.83.83,0,1,1-.80957,1.44922A.82364.82364,0,0,1,8.24207,224.71344Zm.9707-28.0293a.83993.83993,0,0,1,.43945-1.10058.86754.86754,0,0,1,.32031-.05957.81041.81041,0,0,1,.75977.5.82837.82837,0,1,1-1.51953.66015Zm1.51953-17.35565a.81043.81043,0,0,1-.75977.5.86754.86754,0,0,1-.32031-.05957.83138.83138,0,1,1,.65039-1.53027A.82932.82932,0,0,1,10.7323,179.32849Zm-1.09961-46.5v.01074a1.01061,1.01061,0,0,1-.29.04981.8299.8299,0,1,1,.76953-1.12012A.80909.80909,0,0,1,9.63269,132.82849ZM9.11218,36.83923a.8279.8279,0,0,1,.23047,1.63965v.00977H9.2323a.82841.82841,0,0,1-.12012-1.64942ZM7.5,22.197a.82521.82521,0,1,1-.83008.82031A.8261.8261,0,0,1,7.5,22.197ZM6.122,141.79919a.83181.83181,0,1,1,.76074,1.4795v-.00977a.7424.7424,0,0,1-.37988.09961.83326.83326,0,0,1-.38086-1.56934Zm-.85938,11.79a.77653.77653,0,0,1-.48047.15918.8229.8229,0,0,1-.66992-.33984.82985.82985,0,1,1,1.33985-.97949A.841.841,0,0,1,5.26257,153.58923ZM4.02234,89.74841A.82864.82864,0,1,1,4.452,91.349a.77408.77408,0,0,1-.21.03027.82794.82794,0,0,1-.21-1.63086Zm-.1416,17.62793a.83031.83031,0,0,1,.54,1.57032.85961.85961,0,0,1-.26953.04.80739.80739,0,0,1-.78028-.55078A.83343.83343,0,0,1,3.88074,107.37634ZM4.1438,144.0365a.82343.82343,0,0,1-.23926,1.13965v.00976a.84194.84194,0,0,1-.46.13086.81206.81206,0,0,1-.69043-.38086.82766.82766,0,0,1,1.38965-.89941Zm-.62146,33.19238a.83528.83528,0,0,1,.5,1.05957.82635.82635,0,0,1-.78027.55078.689.689,0,0,1-.2793-.05078.82846.82846,0,0,1,.55957-1.55957Zm1.99023-43.59961a.83486.83486,0,0,1-.40039,1.09961.72047.72047,0,0,1-.34961.08008.83038.83038,0,1,1,.75-1.17969Zm-.83984-8.91015a.8547.8547,0,0,1-.31055.05957.83344.83344,0,0,1-.76953-.51953.8301.8301,0,1,1,1.54-.62012A.84112.84112,0,0,1,4.67273,124.71912Zm-.5-87.08008a.82774.82774,0,1,1,.29,1.62988.636.636,0,0,1-.14063.00977A.82608.82608,0,0,1,4.17273,37.639ZM3.75281,63.83923a.82509.82509,0,0,1,.98926.62989.81527.81527,0,0,1-.62989.97949.53876.53876,0,0,1-.17968.02051.83335.83335,0,0,1-.81055-.65039A.824.824,0,0,1,3.75281,63.83923ZM1.72949,22.70673a1.29977,1.29977,0,0,1,.18067-.26954.80044.80044,0,0,1,.26953-.17968.85576.85576,0,0,1,.62988,0,.64341.64341,0,0,1,.27051.17968.80046.80046,0,0,1,.17969.26954.716.716,0,0,1,.07031.32031.79481.79481,0,0,1-.25.58008A.8015.8015,0,0,1,2.5,23.84735a.86832.86832,0,0,1-.32031-.06055.80029.80029,0,0,1-.26953-.17968.82507.82507,0,0,1-.24024-.58008A.8675.8675,0,0,1,1.72949,22.70673ZM1.6825,192.4234a.82774.82774,0,1,1-.29-1.62988.60183.60183,0,0,1,.13964-.01953.82632.82632,0,0,1,.82032.67968A.84248.84248,0,0,1,1.6825,192.4234Zm0-9a.82774.82774,0,1,1-.29-1.62988.60183.60183,0,0,1,.13964-.01953.82632.82632,0,0,1,.82032.67968A.84248.84248,0,0,1,1.6825,183.4234ZM2.96277,196.564a.689.689,0,0,1,.2793-.05079.82636.82636,0,0,1,.78027.55079.82846.82846,0,1,1-1.55957.55957A.826.826,0,0,1,2.96277,196.564ZM4.1438,231.316a.82767.82767,0,1,1-.69922-1.28027.84193.84193,0,0,1,.46.13085v.00977A.82343.82343,0,0,1,4.1438,231.316Zm-.12146,54.28808H4.0321a.82793.82793,0,0,1,.21-1.63085.77408.77408,0,0,1,.21.03027.82864.82864,0,1,1-.42969,1.60058Zm.71973,25.2793a.82871.82871,0,1,1-.80957-1,.53876.53876,0,0,1,.17968.02051A.81527.81527,0,0,1,4.74207,310.88336Zm.18945-43.42676a.82007.82007,0,0,1-1.05078.51954.83344.83344,0,0,1-.50977-1.05958.80739.80739,0,0,1,.78028-.55078.85962.85962,0,0,1,.26953.04A.82706.82706,0,0,1,4.93152,267.4566ZM3.13287,361.98114a.82309.82309,0,0,1-.68066-.9502.83657.83657,0,0,1,.82031-.69042.58278.58278,0,0,1,.12988.00976.82655.82655,0,1,1-.26953,1.63086Zm1.03986-24.2677a.82608.82608,0,0,1,.14941-1.63965.636.636,0,0,1,.14063.00977.82774.82774,0,0,1-.29,1.62988Zm.96-86a.8301.8301,0,1,1-.77051-1.13965.8547.8547,0,0,1,.31055.05957A.84112.84112,0,0,1,5.13269,251.71344Zm.37988-9.99023a.82979.82979,0,1,1-.75-1.17969.72047.72047,0,0,1,.34961.08008A.83486.83486,0,0,1,5.51257,241.72321ZM5.452,222.9234a.82985.82985,0,1,1-.66993-1.31934.77659.77659,0,0,1,.48047.15918A.841.841,0,0,1,5.452,222.9234ZM6.122,233.55328a.83325.83325,0,0,1,.38086-1.56933.7423.7423,0,0,1,.37988.09961v-.00977a.83181.83181,0,1,1-.76074,1.47949Zm1.12012,129.04a.82846.82846,0,0,1,.11035-1.64941.38715.38715,0,0,1,.11035.00976.82722.82722,0,1,1-.2207,1.63965Zm1.87011-24.08008a.8284.8284,0,0,1,.12012-1.64941h.11035v.00977a.82789.82789,0,0,1-.23047,1.63964Zm1-94.92968a.82576.82576,0,1,1-.76953-1.12012,1.01094,1.01094,0,0,1,.29.0498v.01075A.80909.80909,0,0,1,10.11218,243.58356Zm.58985-7.91992a.82977.82977,0,0,1,.31054-1.59961.84964.84964,0,0,1,.30957.05957.8301.8301,0,0,1-.62011,1.54Zm1.5,127.53027a.82732.82732,0,0,1,.09082-1.65039h.0791a.82956.82956,0,0,1-.16992,1.65039Zm1.86035-24.04981a.83345.83345,0,0,1-.73047-.92089.82329.82329,0,0,1,.82031-.7295h.08985a.833.833,0,0,1,.74023.91993A.84388.84388,0,0,1,14.06238,339.1441ZM15.47253,237.314a.82662.82662,0,0,1,.24024-1.62012.99162.99162,0,0,1,.22949.0293.83741.83741,0,0,1,.56055,1.03027A.82876.82876,0,0,1,15.47253,237.314Zm1.7002,126.33984a.83533.83533,0,0,1-.76074-.89063.82151.82151,0,0,1,.82031-.76953h.07031a.8274.8274,0,0,1,.75977.88965A.83634.83634,0,0,1,17.17273,363.65387Zm.09961-92.43066v.01074a.8295.8295,0,0,1,.12012-1.65039h.12011v.00976a.82377.82377,0,1,1-.24023,1.62989Zm1.75976,68.39062a.83153.83153,0,0,1,.07032-1.66016H19.162a.83264.83264,0,1,1-.12989,1.66016Zm3.12012,24.34961a.83058.83058,0,0,1,.04981-1.66016c.01074,0,.0205.01075.03027.01075a.82569.82569,0,1,1-.08008,1.64941Zm1.87012-24.0498a.82557.82557,0,0,1,.04-1.6504h.04a.82618.82618,0,1,1-.08008,1.6504Zm3.12012,24.23046A.83019.83019,0,0,1,27.162,362.484h.02051a.82455.82455,0,0,1,.80957.83984A.83656.83656,0,0,1,27.14246,364.1441Zm1.87988-24.09082v.01075a.829.829,0,0,1-.82031-.84082.81906.81906,0,0,1,.83007-.81934h.01075a.82607.82607,0,0,1,.80957.83984A.81018.81018,0,0,1,29.02234,340.05328Zm12.72443-10.52575a4.32474,4.32474,0,0,1-4.32477,4.32476H23.21674a4.32478,4.32478,0,0,1-4.32477-4.32476V288.4342a4.32479,4.32479,0,0,1,4.32477-4.32476H37.422a4.32475,4.32475,0,0,1,4.32477,4.32476Z" style="fill: #252626"/>
    </g>
  </g>
  <g>
    <g>
      <circle cx="29.99752" cy="7" r="5.73626" style="fill: #bcbcbc"/>
      <path d="M29.99748,1.52734A5.47266,5.47266,0,1,1,24.52486,7V7a5.47893,5.47893,0,0,1,5.47262-5.47266m0-.52734a6,6,0,1,0,6,6A6,6,0,0,0,29.99748,1Z" style="fill: gray"/>
    </g>
    <polygon points="33.492 6.341 30.656 6.341 30.656 3.505 29.338 3.505 29.338 6.341 26.503 6.341 26.503 7.659 29.338 7.659 29.338 10.495 30.656 10.495 30.656 7.659 33.492 7.659 33.492 6.341" style="fill: #6e6e6e"/>
  </g>
  <g>
    <g>
      <circle cx="29.99752" cy="372.99996" r="5.73626" style="fill: #bcbcbc"/>
      <path d="M29.99748,367.5273A5.47266,5.47266,0,1,1,24.52486,373v0a5.47893,5.47893,0,0,1,5.47262-5.47266m0-.52734a6,6,0,1,0,6,6A6,6,0,0,0,29.99748,367Z" style="fill: gray"/>
    </g>
    <polygon points="33.492 372.341 30.656 372.341 30.656 369.505 29.338 369.505 29.338 372.341 26.503 372.341 26.503 373.659 29.338 373.659 29.338 376.495 30.656 376.495 30.656 373.659 33.492 373.659 33.492 372.341" style="fill: #6e6e6e"/>
  </g>
  <g>
    <path d="M42.99207,196.564a.82439.82439,0,0,0,.2207,1.14942h0a.8252.8252,0,0,0,1.14942-.21973h0a.83512.83512,0,0,0-.21973-1.15039h0a.811.811,0,0,0-.46973-.13965h0A.81057.81057,0,0,0,42.99207,196.564Z" style="fill: #e5e5e5"/>
    <path d="M48.85242,196.91365h0a.83225.83225,0,0,0,.37988,1.11035h0a.83687.83687,0,0,0,1.11036-.37988h0a.8331.8331,0,0,0-.37989-1.11035h0a.83212.83212,0,0,0-.37011-.08984h0A.81911.81911,0,0,0,48.85242,196.91365Z" style="fill: #e5e5e5"/>
    <path d="M42.86219,204.26326a.81839.81839,0,0,0-.13965,1.16016h0a.82523.82523,0,0,0,1.16016.15039h0a.83759.83759,0,0,0,.13964-1.16992h0a.81091.81091,0,0,0-.65039-.32032h0A.82023.82023,0,0,0,42.86219,204.26326Z" style="fill: #e5e5e5"/>
    <path d="M53.912,201.49373a.81837.81837,0,0,0,.30078,1.12988h0a.82076.82076,0,0,0,1.12989-.2998h0a.82358.82358,0,0,0-.29981-1.12988h0a.86969.86969,0,0,0-.41015-.11036h0A.8327.8327,0,0,0,53.912,201.49373Z" style="fill: #e5e5e5"/>
    <path d="M51.14246,205.44393a.81532.81532,0,0,0,.09961,1.16015h0a.82685.82685,0,0,0,1.16992-.10058h0a.83659.83659,0,0,0-.09961-1.16993h0a.908.908,0,0,0-.54-.18945h0A.80941.80941,0,0,0,51.14246,205.44393Z" style="fill: #e5e5e5"/>
    <path d="M43.78211,211.60408a.83475.83475,0,0,0-.29981,1.13965h0a.82925.82925,0,0,0,1.12989.29981h0a.81948.81948,0,0,0,.2998-1.12989h0a.80983.80983,0,0,0-.71972-.41015h0A.855.855,0,0,0,43.78211,211.60408Z" style="fill: #e5e5e5"/>
    <path d="M46.27234,219.22322a.831.831,0,0,0-.36035,1.12012h0a.83535.83535,0,0,0,1.12012.35059h0a.82688.82688,0,0,0,.35059-1.12012h0a.81307.81307,0,0,0-.73047-.44043h0A.85475.85475,0,0,0,46.27234,219.22322Z" style="fill: #e5e5e5"/>
    <path d="M37.14246,222.44393a.8165.8165,0,0,0-.63965.97949h0a.82662.82662,0,0,0,.96973.65039h0a.8311.8311,0,0,0,.64941-.98047h0a.8235.8235,0,0,0-.81933-.65918h0A.93671.93671,0,0,0,37.14246,222.44393Z" style="fill: #e5e5e5"/>
    <path d="M46.9325,226.24373a.83537.83537,0,0,0-.42969,1.08984h0a.83446.83446,0,0,0,1.09961.42969h0a.82507.82507,0,0,0,.41992-1.08984h0a.82812.82812,0,0,0-.75976-.5h0A.97647.97647,0,0,0,46.9325,226.24373Z" style="fill: #e5e5e5"/>
    <path d="M42.36219,227.94393a.82755.82755,0,0,0-.54,1.04h0a.83037.83037,0,0,0,1.03027.5498V229.524a.8218.8218,0,0,0,.54981-1.03027h0a.82926.82926,0,0,0-.79-.58984h0A.75753.75753,0,0,0,42.36219,227.94393Z" style="fill: #e5e5e5"/>
    <path d="M49.44227,233.814a.81836.81836,0,0,0-.43946,1.08008h0a.82168.82168,0,0,0,1.0791.43945h0a.83.83,0,0,0,.44043-1.08984h0a.82812.82812,0,0,0-.75976-.5h0A.70314.70314,0,0,0,49.44227,233.814Z" style="fill: #e5e5e5"/>
    <path d="M57.11219,239.51326h-.00977a.841.841,0,0,0-.34961,1.12012h0a.82037.82037,0,0,0,1.11914.35059h0a.83536.83536,0,0,0,.35059-1.12012h0a.83518.83518,0,0,0-.73047-.44043h0A.85471.85471,0,0,0,57.11219,239.51326Z" style="fill: #e5e5e5"/>
    <path d="M48.09266,243.314a.81331.81331,0,0,0-.53028,1.04h0a.82386.82386,0,0,0,1.04.54h0a.82581.82581,0,0,0,.53028-1.05078h0a.82576.82576,0,0,0-.79-.56934h0A.72033.72033,0,0,0,48.09266,243.314Z" style="fill: #e5e5e5"/>
    <path d="M52.69227,251.63338h0a.82788.82788,0,0,0-.5,1.06055h0a.82048.82048,0,0,0,1.06054.5h-.01074a.81852.81852,0,0,0,.51074-1.04981h0a.82634.82634,0,0,0-.78027-.55078h0A.92647.92647,0,0,0,52.69227,251.63338Z" style="fill: #e5e5e5"/>
    <path d="M43.2323,254.234a.83487.83487,0,0,0-.65039.96972h0a.82808.82808,0,0,0,.97071.65039h.00976a.82507.82507,0,0,0,.65039-.9707h0a.83328.83328,0,0,0-.81054-.66016h0A.90794.90794,0,0,0,43.2323,254.234Z" style="fill: #e5e5e5"/>
    <path d="M46.872,268.8033h0a.82407.82407,0,0,0-.63965.98047h0a.81194.81194,0,0,0,.96973.63965h0a.82661.82661,0,0,0,.65039-.96973h0a.83307.83307,0,0,0-.82031-.66992h0A.90837.90837,0,0,0,46.872,268.8033Z" style="fill: #e5e5e5"/>
    <path d="M32.2323,270.49373h0a.827.827,0,0,0-.80957.84961h0a.82841.82841,0,0,0,.84961.81055h0a.82781.82781,0,0,0,.80957-.85059h0a.83009.83009,0,0,0-.8291-.80957H32.2323Z" style="fill: #e5e5e5"/>
    <path d="M48.412,285.60408h0a.82766.82766,0,0,0-.65918.96973h0a.81336.81336,0,0,0,.96.66016h.00977a.83467.83467,0,0,0,.66016-.97071h0a.84469.84469,0,0,0-.82032-.66992h0A.71392.71392,0,0,0,48.412,285.60408Z" style="fill: #e5e5e5"/>
    <path d="M43.55262,286.39412h-.00977a.81585.81585,0,0,0-.70019.92969h0a.82361.82361,0,0,0,.92968.71h0a.831.831,0,0,0,.71-.92969h0a.83665.83665,0,0,0-.82031-.7207h0A.34366.34366,0,0,0,43.55262,286.39412Z" style="fill: #e5e5e5"/>
    <path d="M48.27234,311.60408a.83119.83119,0,0,0-.70019.93946h0a.8173.8173,0,0,0,.93066.70019h0a.8319.8319,0,0,0,.71-.92969h0a.82777.82777,0,0,0-.82031-.71h-.12012Z" style="fill: #e5e5e5"/>
    <path d="M48.77234,337.36385h0a.8352.8352,0,0,0-.72949.91992h0a.82426.82426,0,0,0,.91992.72949h0a.84387.84387,0,0,0,.7295-.91992h0a.83711.83711,0,0,0-.82032-.72949h-.09961Z" style="fill: #e5e5e5"/>
    <path d="M46.94227,361.8033a.81345.81345,0,0,0-.75.89063h0a.831.831,0,0,0,.90039.75976h0a.83936.83936,0,0,0,.75-.91015h0a.828.828,0,0,0-.83008-.75h0A.17549.17549,0,0,0,46.94227,361.8033Z" style="fill: #e5e5e5"/>
    <path d="M42.01258,362.17342a.83588.83588,0,0,0-.78028.87988h0a.82943.82943,0,0,0,.87989.78027h0a.83674.83674,0,0,0,.78027-.87988h0a.83917.83917,0,0,0-.83008-.78027h-.0498Z" style="fill: #e5e5e5"/>
    <path d="M42.99207,178.78845a.82438.82438,0,0,1,.2207-1.14941h0a.82518.82518,0,0,1,1.14942.21973h0a.83512.83512,0,0,1-.21973,1.15039h0a.811.811,0,0,1-.46973.13965h0A.81055.81055,0,0,1,42.99207,178.78845Z" style="fill: #e5e5e5"/>
    <path d="M48.85242,178.43884h0a.83226.83226,0,0,1,.37988-1.11035h0a.83687.83687,0,0,1,1.11036.37989h0a.8331.8331,0,0,1-.37989,1.11035h0a.83225.83225,0,0,1-.37011.08984h0A.8191.8191,0,0,1,48.85242,178.43884Z" style="fill: #e5e5e5"/>
    <path d="M42.86219,171.08924a.81839.81839,0,0,1-.13965-1.16016h0a.82522.82522,0,0,1,1.16016-.15039h0a.83759.83759,0,0,1,.13964,1.16992h0a.8109.8109,0,0,1-.65039.32031h0A.82022.82022,0,0,1,42.86219,171.08924Z" style="fill: #e5e5e5"/>
    <path d="M53.912,173.85877a.81838.81838,0,0,1,.30078-1.12989h0a.82075.82075,0,0,1,1.12989.29981h0a.82358.82358,0,0,1-.29981,1.12988h0a.8698.8698,0,0,1-.41015.11035h0A.83269.83269,0,0,1,53.912,173.85877Z" style="fill: #e5e5e5"/>
    <path d="M51.14246,169.90857a.81533.81533,0,0,1,.09961-1.16016h0a.82686.82686,0,0,1,1.16992.10059h0a.83657.83657,0,0,1-.09961,1.16992h0a.90792.90792,0,0,1-.54.18946h0A.80941.80941,0,0,1,51.14246,169.90857Z" style="fill: #e5e5e5"/>
    <path d="M43.78211,163.74841a.83473.83473,0,0,1-.29981-1.13964h0a.82924.82924,0,0,1,1.12989-.29981h0a.81947.81947,0,0,1,.2998,1.12988h0a.80982.80982,0,0,1-.71972.41016h0A.8549.8549,0,0,1,43.78211,163.74841Z" style="fill: #e5e5e5"/>
    <path d="M46.27234,156.12927a.831.831,0,0,1-.36035-1.12011h0a.83535.83535,0,0,1,1.12012-.35059h0a.82688.82688,0,0,1,.35059,1.12012h0a.81307.81307,0,0,1-.73047.44043h0A.85476.85476,0,0,1,46.27234,156.12927Z" style="fill: #e5e5e5"/>
    <path d="M37.14246,152.90857a.81651.81651,0,0,1-.63965-.97949h0a.82661.82661,0,0,1,.96973-.65039h0a.8311.8311,0,0,1,.64941.98047h0a.8235.8235,0,0,1-.81933.65918h0A.93671.93671,0,0,1,37.14246,152.90857Z" style="fill: #e5e5e5"/>
    <path d="M46.9325,149.10877a.83538.83538,0,0,1-.42969-1.08985h0a.83447.83447,0,0,1,1.09961-.42968h0a.82507.82507,0,0,1,.41992,1.08984h0a.82812.82812,0,0,1-.75976.5h0A.97647.97647,0,0,1,46.9325,149.10877Z" style="fill: #e5e5e5"/>
    <path d="M42.36219,147.40857a.82755.82755,0,0,1-.54-1.04h0a.83036.83036,0,0,1,1.03027-.5498v.00976a.82181.82181,0,0,1,.54981,1.03028h0a.82926.82926,0,0,1-.79.58984h0A.75779.75779,0,0,1,42.36219,147.40857Z" style="fill: #e5e5e5"/>
    <path d="M49.44227,141.53845a.81835.81835,0,0,1-.43946-1.08007h0a.82169.82169,0,0,1,1.0791-.43946h0a.83.83,0,0,1,.44043,1.08985h0a.82812.82812,0,0,1-.75976.5h0A.703.703,0,0,1,49.44227,141.53845Z" style="fill: #e5e5e5"/>
    <path d="M57.11219,135.83924h-.00977a.841.841,0,0,1-.34961-1.12012h0a.82037.82037,0,0,1,1.11914-.35059h0a.83535.83535,0,0,1,.35059,1.12012h0a.8352.8352,0,0,1-.73047.44043h0A.85471.85471,0,0,1,57.11219,135.83924Z" style="fill: #e5e5e5"/>
    <path d="M48.09266,132.03845a.8133.8133,0,0,1-.53028-1.04h0a.82386.82386,0,0,1,1.04-.54h0a.82581.82581,0,0,1,.53028,1.05078h0a.82575.82575,0,0,1-.79.56933h0A.72009.72009,0,0,1,48.09266,132.03845Z" style="fill: #e5e5e5"/>
    <path d="M33.69227,129.2992h0a.8339.8339,0,0,1-.78028-.87012h0a.82971.82971,0,0,1,.88086-.78027h0a.82864.82864,0,0,1,.7793.87988h0a.8378.8378,0,0,1-.83008.78027h0A.093.093,0,0,1,33.69227,129.2992Z" style="fill: #e5e5e5"/>
    <path d="M52.69227,123.71912h0a.82788.82788,0,0,1-.5-1.06055h0a.82046.82046,0,0,1,1.06054-.5h-.01074a.81852.81852,0,0,1,.51074,1.04981h0a.82634.82634,0,0,1-.78027.55078h0A.92678.92678,0,0,1,52.69227,123.71912Z" style="fill: #e5e5e5"/>
    <path d="M43.2323,121.11853a.83487.83487,0,0,1-.65039-.96972h0a.82809.82809,0,0,1,.97071-.6504h.00976a.82507.82507,0,0,1,.65039.97071h0a.83327.83327,0,0,1-.81054.66015h0A.90878.90878,0,0,1,43.2323,121.11853Z" style="fill: #e5e5e5"/>
    <path d="M46.872,106.5492h0a.82407.82407,0,0,1-.63965-.98047h0a.81193.81193,0,0,1,.96973-.63965h0a.8266.8266,0,0,1,.65039.96973h0a.83307.83307,0,0,1-.82031.66992h0A.90837.90837,0,0,1,46.872,106.5492Z" style="fill: #e5e5e5"/>
    <path d="M32.2323,104.85877h0a.827.827,0,0,1-.80957-.84961h0a.8284.8284,0,0,1,.84961-.81055h0a.82781.82781,0,0,1,.80957.85059h0a.83009.83009,0,0,1-.8291.80957H32.2323Z" style="fill: #e5e5e5"/>
    <path d="M48.412,89.74841h0a.82765.82765,0,0,1-.65918-.96972h0a.81335.81335,0,0,1,.96-.66016h.00977a.83466.83466,0,0,1,.66016.97071h0a.8447.8447,0,0,1-.82032.66992h0A.71327.71327,0,0,1,48.412,89.74841Z" style="fill: #e5e5e5"/>
    <path d="M43.55262,88.95838h-.00977a.81585.81585,0,0,1-.70019-.92969h0a.82361.82361,0,0,1,.92968-.71h0a.831.831,0,0,1,.71.92968h0a.83665.83665,0,0,1-.82031.72071h0A.34366.34366,0,0,1,43.55262,88.95838Z" style="fill: #e5e5e5"/>
    <path d="M48.27234,63.74841a.83117.83117,0,0,1-.70019-.93945h0a.81729.81729,0,0,1,.93066-.70019h0a.8319.8319,0,0,1,.71.92968h0a.82776.82776,0,0,1-.82031.71h-.12012Z" style="fill: #e5e5e5"/>
    <path d="M33.52234,62.56873a.82456.82456,0,0,1-.80957-.83985h0a.814.814,0,0,1,.83985-.81054h0a.82058.82058,0,0,1,.80957.84082h0a.83032.83032,0,0,1-.83008.80957h-.00977Z" style="fill: #e5e5e5"/>
    <path d="M48.77234,37.98865h0a.83521.83521,0,0,1-.72949-.91992h0a.82426.82426,0,0,1,.91992-.72949h0a.84387.84387,0,0,1,.7295.91992h0a.83711.83711,0,0,1-.82032.72949h-.09961Z" style="fill: #e5e5e5"/>
    <path d="M45.74207,187.67908a.8261.8261,0,0,1,.82031-.83008h0a.82814.82814,0,0,1,.83008.83008h0a.83442.83442,0,0,1-.83008.83008h0A.83244.83244,0,0,1,45.74207,187.67908Z" style="fill: #e5e5e5"/>
    <path d="M45.04285,183.02869a.82666.82666,0,0,1,.53906-1.04h0a.83718.83718,0,0,1,1.04.5498h0a.81749.81749,0,0,1-.5498,1.03028h0a.66767.66767,0,0,1-.24024.04h0A.83224.83224,0,0,1,45.04285,183.02869Z" style="fill: #e5e5e5"/>
    <path d="M39.78211,175.349a.818.818,0,0,1-.12988-1.16016h0a.8272.8272,0,0,1,1.16015-.13964h0a.83887.83887,0,0,1,.13965,1.16992h0a.86018.86018,0,0,1-.64941.30957h0A.84188.84188,0,0,1,39.78211,175.349Z" style="fill: #e5e5e5"/>
    <path d="M35.71277,173.00916a.84276.84276,0,0,1-.48047-1.08008h0a.84807.84807,0,0,1,1.08008-.4707h0a.83137.83137,0,0,1,.46973,1.07031h0a.83068.83068,0,0,1-.7793.53027h0A.99969.99969,0,0,1,35.71277,173.00916Z" style="fill: #e5e5e5"/>
    <path d="M31.122,171.97888h0a.82974.82974,0,0,1-.76953-.88964h0a.8229.8229,0,0,1,.88965-.76075H31.2323a.82232.82232,0,0,1,.77051.87989h0a.82163.82163,0,0,1-.82031.7705H31.122Z" style="fill: #e5e5e5"/>
    <path d="M50.9823,187.67908h.00977a.81989.81989,0,0,1,.82031-.83008h0a.82814.82814,0,0,1,.83008.83008h0a.83442.83442,0,0,1-.83008.83008h0A.83442.83442,0,0,1,50.9823,187.67908Z" style="fill: #e5e5e5"/>
    <path d="M50.452,182.93884h0a.82057.82057,0,0,1,.62012-.99023h0a.81854.81854,0,0,1,.99023.61035h0a.827.827,0,0,1-.62011,1h0a1.12865,1.12865,0,0,1-.18946.01953h0A.8314.8314,0,0,1,50.452,182.93884Z" style="fill: #e5e5e5"/>
    <path d="M46.27234,174.42908h.00977a.82718.82718,0,0,1,.11035-1.16992h0a.82744.82744,0,0,1,1.16992.12011h0a.83726.83726,0,0,1-.12011,1.16993h0a.84521.84521,0,0,1-.51954.17968h0A.84864.84864,0,0,1,46.27234,174.42908Z" style="fill: #e5e5e5"/>
    <path d="M57.61219,187.67908a.82814.82814,0,0,1,.83008-.83008h0a.82813.82813,0,0,1,.83007.83008h0a.82526.82526,0,0,1-.83007.81933h0A.82527.82527,0,0,1,57.61219,187.67908Z" style="fill: #e5e5e5"/>
    <path d="M55.952,178.21912h0a.83176.83176,0,0,1,.49024-1.06055h0a.83092.83092,0,0,1,1.07031.5h0a.83681.83681,0,0,1-.5,1.06055h0a.94192.94192,0,0,1-.28028.0498h0A.82678.82678,0,0,1,55.952,178.21912Z" style="fill: #e5e5e5"/>
    <path d="M47.7323,166.50916h0a.8269.8269,0,0,1-.0996-1.16992h0a.82313.82313,0,0,1,1.16015-.10059h0a.83685.83685,0,0,1,.10938,1.16992h0a.8499.8499,0,0,1-.63965.29h0A.80387.80387,0,0,1,47.7323,166.50916Z" style="fill: #e5e5e5"/>
    <path d="M54.1825,161.69861a.8325.8325,0,0,1-.04-1.16992h0a.83373.83373,0,0,1,1.16992-.04h0a.83376.83376,0,0,1,.04,1.16992h0a.80337.80337,0,0,1-.61035.27051h0A.82142.82142,0,0,1,54.1825,161.69861Z" style="fill: #e5e5e5"/>
    <path d="M50.412,158.64881a.84375.84375,0,0,1-.19922-1.16016h0a.84121.84121,0,0,1,1.15918-.2002h0a.841.841,0,0,1,.2002,1.16016h0a.85424.85424,0,0,1-.67969.35059h0A.88.88,0,0,1,50.412,158.64881Z" style="fill: #e5e5e5"/>
    <path d="M41.82215,154.19861a.81764.81764,0,0,1-.50977-1.0498h0A.83653.83653,0,0,1,42.372,152.639h0a.83024.83024,0,0,1,.5,1.05957h0a.8246.8246,0,0,1-.77929.5498h0A.64753.64753,0,0,1,41.82215,154.19861Z" style="fill: #e5e5e5"/>
    <path d="M32.33191,152.25916a.81528.81528,0,0,1-.76953-.87989h0a.82825.82825,0,0,1,.87989-.7705h0a.82808.82808,0,0,1,.7705.87988h0a.83018.83018,0,0,1-.82031.78027h0A.13189.13189,0,0,1,32.33191,152.25916Z" style="fill: #e5e5e5"/>
    <path d="M55.32215,154.01892a.82931.82931,0,0,1-.16992-1.16015h0a.83978.83978,0,0,1,1.16992-.16016h-.00977a.82844.82844,0,0,1,.16992,1.16016h0a.87257.87257,0,0,1-.66992.33007h0A.80933.80933,0,0,1,55.32215,154.01892Z" style="fill: #e5e5e5"/>
    <path d="M51.26258,151.31873a.82744.82744,0,0,1-.29-1.12989h0a.8219.8219,0,0,1,1.12988-.2998h0a.831.831,0,0,1,.29981,1.13965h0a.83362.83362,0,0,1-.71973.40039h0A.82487.82487,0,0,1,51.26258,151.31873Z" style="fill: #e5e5e5"/>
    <path d="M37.6327,146.24841a.82091.82091,0,0,1-.66016-.96h0a.82833.82833,0,0,1,.96-.66992v.01074a.8271.8271,0,0,1,.66992.96h0a.82723.82723,0,0,1-.82031.67968h0A.71372.71372,0,0,1,37.6327,146.24841Z" style="fill: #e5e5e5"/>
    <path d="M32.80262,145.65857a.8306.8306,0,0,1-.77051-.88965h0a.82893.82893,0,0,1,.87988-.77051h0a.8351.8351,0,0,1,.77051.88086h0a.82937.82937,0,0,1-.82031.7793h-.05957Z" style="fill: #e5e5e5"/>
    <path d="M58.02234,146.19861a.82177.82177,0,0,1-.21972-1.14941h0a.82115.82115,0,0,1,1.14941-.22071h0a.84074.84074,0,0,1,.2207,1.15039h0a.81513.81513,0,0,1-.69043.36036h0A.77361.77361,0,0,1,58.02234,146.19861Z" style="fill: #e5e5e5"/>
    <path d="M53.84266,143.65857v.00977h0a.83618.83618,0,0,1-.33008-1.12989h0a.82568.82568,0,0,1,1.12012-.33007h0a.82343.82343,0,0,1,.33007,1.12011h0a.81078.81078,0,0,1-.7207.43067h0A.81443.81443,0,0,1,53.84266,143.65857Z" style="fill: #e5e5e5"/>
    <path d="M44.85242,139.86853a.83637.83637,0,0,1-.5498-1.04h0a.83169.83169,0,0,1,1.04-.54h0a.82714.82714,0,0,1,.5498,1.03028h0a.83394.83394,0,0,1-.7998.58984h0A.981.981,0,0,1,44.85242,139.86853Z" style="fill: #e5e5e5"/>
    <path d="M52.67273,133.74841a.83415.83415,0,0,1-.44043-1.08984h0a.83288.83288,0,0,1,1.08985-.43945h0a.82322.82322,0,0,1,.44043,1.08008h0a.822.822,0,0,1-.75977.50976h0A.95622.95622,0,0,1,52.67273,133.74841Z" style="fill: #e5e5e5"/>
    <path d="M43.372,130.71912a.82738.82738,0,0,1-.61914-.99024h0a.83475.83475,0,0,1,1-.62011h0a.837.837,0,0,1,.61914,1h0a.83212.83212,0,0,1-.80957.63964h0A.70169.70169,0,0,1,43.372,130.71912Z" style="fill: #e5e5e5"/>
    <path d="M38.56238,129.809a.82737.82737,0,0,1-.70019-.94043h0a.8345.8345,0,0,1,.94043-.70019h0a.83266.83266,0,0,1,.70019.94043h0a.82851.82851,0,0,1-.82031.71h0A.499.499,0,0,1,38.56238,129.809Z" style="fill: #e5e5e5"/>
    <path d="M56.33054,125.11267a.82893.82893,0,0,1-.43066-1.08984h0a.81959.81959,0,0,1,1.08984-.41992h0a.82977.82977,0,0,1,.43067,1.08984h0a.83051.83051,0,0,1-.76075.49024h0A.78376.78376,0,0,1,56.33054,125.11267Z" style="fill: #e5e5e5"/>
    <path d="M48.01258,122.24841h0a.83633.83633,0,0,1-.58008-1.01953h0a.83189.83189,0,0,1,1.01953-.58007h0a.83189.83189,0,0,1,.58008,1.01953h0a.83053.83053,0,0,1-.79981.61035h0A.80559.80559,0,0,1,48.01258,122.24841Z" style="fill: #e5e5e5"/>
    <path d="M56.36219,109.10877h0a.8194.8194,0,0,1-.51953-1.04981h0a.83165.83165,0,0,1,1.0498-.52051h0a.82784.82784,0,0,1,.51953,1.05079h0a.833.833,0,0,1-.79.56933h0A.84506.84506,0,0,1,56.36219,109.10877Z" style="fill: #e5e5e5"/>
    <path d="M51.65223,107.68884a.83325.83325,0,0,1-.58008-1.0205h0a.82827.82827,0,0,1,1.02051-.5791h0a.82154.82154,0,0,1,.58007,1.00976h0a.83288.83288,0,0,1-.80078.62012h0A.91807.91807,0,0,1,51.65223,107.68884Z" style="fill: #e5e5e5"/>
    <path d="M42.02234,105.69861h.00977a.83888.83888,0,0,1-.71-.93945h0a.8391.8391,0,0,1,.94043-.71l.00976.00976a.81385.81385,0,0,1,.69043.93945h0a.82047.82047,0,0,1-.82031.7002h-.12012Z" style="fill: #e5e5e5"/>
    <path d="M37.14246,105.12927a.83454.83454,0,0,1-.75976-.89062h0a.83009.83009,0,0,1,.89941-.75977h0a.83865.83865,0,0,1,.76074.90039h0a.83645.83645,0,0,1-.83008.75977h0C37.19227,105.139,37.162,105.12927,37.14246,105.12927Z" style="fill: #e5e5e5"/>
    <path d="M53.2323,90.76892a.82978.82978,0,0,1-.61035-1h0a.81946.81946,0,0,1,.99024-.61035h0a.83522.83522,0,0,1,.62011,1h0a.82343.82343,0,0,1-.80957.62988h0A.63237.63237,0,0,1,53.2323,90.76892Z" style="fill: #e5e5e5"/>
    <path d="M38.65223,88.41834a.82954.82954,0,0,1-.75977-.89942h0a.82962.82962,0,0,1,.90039-.75h0a.82732.82732,0,0,1,.75.88965h0a.81238.81238,0,0,1-.82031.75977h-.07031Z" style="fill: #e5e5e5"/>
    <path d="M33.7323,88.11853a.841.841,0,0,1-.7998-.85937h0a.84209.84209,0,0,1,.86035-.80078h0a.83568.83568,0,0,1,.79981.86035h0a.82838.82838,0,0,1-.83008.7998H33.7323Z" style="fill: #e5e5e5"/>
    <path d="M53.15223,64.52869a.82047.82047,0,0,1-.66993-.96h0a.82046.82046,0,0,1,.96-.66992h0a.8276.8276,0,0,1,.66992.96h0a.8416.8416,0,0,1-.81934.67968h0A.63213.63213,0,0,1,53.15223,64.52869Z" style="fill: #e5e5e5"/>
    <path d="M43.372,63.15857h0a.81311.81311,0,0,1-.73925-.89941h0a.82815.82815,0,0,1,.89941-.75h0a.83725.83725,0,0,1,.75.90918h0a.84128.84128,0,0,1-.83008.75h0C43.42273,63.16834,43.40223,63.15857,43.372,63.15857Z" style="fill: #e5e5e5"/>
    <path d="M38.452,62.76892a.83241.83241,0,0,1-.7793-.87011h0a.82951.82951,0,0,1,.87989-.78028h0a.82643.82643,0,0,1,.77929.87012h0a.83757.83757,0,0,1-.8291.78027H38.452Z" style="fill: #e5e5e5"/>
    <path d="M53.662,38.64881a.82492.82492,0,0,1-.68945-.94043h0a.82371.82371,0,0,1,.93945-.69922h0a.82773.82773,0,0,1,.69043.94922h0a.81693.81693,0,0,1-.80957.70019h0A.54522.54522,0,0,1,53.662,38.64881Z" style="fill: #e5e5e5"/>
    <path d="M43.85242,37.48865a.83008.83008,0,0,1-.75976-.89941h0a.82256.82256,0,0,1,.89941-.75h0a.81309.81309,0,0,1,.75.88964h0a.81875.81875,0,0,1-.81934.75977h-.07031Z" style="fill: #e5e5e5"/>
    <path d="M38.92273,37.14881h0a.82651.82651,0,0,1-.78027-.87012h0a.82652.82652,0,0,1,.86035-.79h.00977a.84357.84357,0,0,1,.78027.87988h0a.82569.82569,0,0,1-.83008.78028h-.04Z" style="fill: #e5e5e5"/>
    <path d="M33.9823,36.96912h0a.82841.82841,0,0,1-.80957-.85059h0a.82544.82544,0,0,1,.83985-.80957h0a.8276.8276,0,0,1,.80957.84961h0a.82412.82412,0,0,1-.83008.81055H33.9823Z" style="fill: #e5e5e5"/>
    <path d="M45.04285,192.32381a.82666.82666,0,0,0,.53906,1.04h0a.83718.83718,0,0,0,1.04-.54981h0a.81747.81747,0,0,0-.5498-1.03027h0a.66767.66767,0,0,0-.24024-.04h0A.83223.83223,0,0,0,45.04285,192.32381Z" style="fill: #e5e5e5"/>
    <path d="M39.78211,200.0035a.818.818,0,0,0-.12988,1.16015h0a.82721.82721,0,0,0,1.16015.13965h0a.83887.83887,0,0,0,.13965-1.16992h0a.86018.86018,0,0,0-.64941-.30957h0A.84188.84188,0,0,0,39.78211,200.0035Z" style="fill: #e5e5e5"/>
    <path d="M35.71277,202.34334a.84276.84276,0,0,0-.48047,1.08008h0a.84807.84807,0,0,0,1.08008.4707h0a.83138.83138,0,0,0,.46973-1.07031h0a.83068.83068,0,0,0-.7793-.53027h0A.99936.99936,0,0,0,35.71277,202.34334Z" style="fill: #e5e5e5"/>
    <path d="M31.122,203.37361h0a.82975.82975,0,0,0-.76953.88965h0a.82289.82289,0,0,0,.88965.76074H31.2323a.82231.82231,0,0,0,.77051-.87988h0a.82164.82164,0,0,0-.82031-.77051H31.122Z" style="fill: #e5e5e5"/>
    <path d="M50.452,192.41365h0a.82057.82057,0,0,0,.62012.99024h0a.81854.81854,0,0,0,.99023-.61035h0a.827.827,0,0,0-.62011-1h0a1.12862,1.12862,0,0,0-.18946-.01954h0A.83142.83142,0,0,0,50.452,192.41365Z" style="fill: #e5e5e5"/>
    <path d="M46.27234,200.92342h.00977a.82718.82718,0,0,0,.11035,1.16992h0a.82744.82744,0,0,0,1.16992-.12012h0a.83725.83725,0,0,0-.12011-1.16992h0a.84522.84522,0,0,0-.51954-.17969h0A.84861.84861,0,0,0,46.27234,200.92342Z" style="fill: #e5e5e5"/>
    <path d="M55.952,197.13338h0a.83176.83176,0,0,0,.49024,1.06055h0a.83093.83093,0,0,0,1.07031-.5h0a.83681.83681,0,0,0-.5-1.06055h0a.94162.94162,0,0,0-.28028-.04981h0A.82679.82679,0,0,0,55.952,197.13338Z" style="fill: #e5e5e5"/>
    <path d="M47.7323,208.84334h0a.8269.8269,0,0,0-.0996,1.16992h0a.82313.82313,0,0,0,1.16015.10059h0a.83685.83685,0,0,0,.10938-1.16992h0a.8499.8499,0,0,0-.63965-.29h0A.80387.80387,0,0,0,47.7323,208.84334Z" style="fill: #e5e5e5"/>
    <path d="M54.1825,213.65389a.8325.8325,0,0,0-.04,1.16992h0a.83373.83373,0,0,0,1.16992.04h0a.83376.83376,0,0,0,.04-1.16992h0a.80337.80337,0,0,0-.61035-.27051h0A.82142.82142,0,0,0,54.1825,213.65389Z" style="fill: #e5e5e5"/>
    <path d="M50.412,216.70369a.84375.84375,0,0,0-.19922,1.16016h0a.8412.8412,0,0,0,1.15918.20019h0a.841.841,0,0,0,.2002-1.16015h0a.85424.85424,0,0,0-.67969-.35059h0A.87992.87992,0,0,0,50.412,216.70369Z" style="fill: #e5e5e5"/>
    <path d="M41.82215,221.15389a.81764.81764,0,0,0-.50977,1.0498h0a.83653.83653,0,0,0,1.05957.50977h0a.83025.83025,0,0,0,.5-1.05957h0a.8246.8246,0,0,0-.77929-.54981h0A.64754.64754,0,0,0,41.82215,221.15389Z" style="fill: #e5e5e5"/>
    <path d="M32.33191,223.09334a.81527.81527,0,0,0-.76953.87988h0a.82826.82826,0,0,0,.87989.77051h0a.82809.82809,0,0,0,.7705-.87988h0a.83019.83019,0,0,0-.82031-.78028h0A.13177.13177,0,0,0,32.33191,223.09334Z" style="fill: #e5e5e5"/>
    <path d="M58.20291,218.5361h0a.82359.82359,0,0,0-.0293,1.16992h0a.83267.83267,0,0,0,1.16992.0293h0a.82381.82381,0,0,0,.0293-1.16992h0a.7885.7885,0,0,0-.59961-.25977h0A.80152.80152,0,0,0,58.20291,218.5361Z" style="fill: #e5e5e5"/>
    <path d="M55.32215,221.33357a.82932.82932,0,0,0-.16992,1.16016h0a.83979.83979,0,0,0,1.16992.16016h-.00977a.82844.82844,0,0,0,.16992-1.16016h0a.87259.87259,0,0,0-.66992-.33008h0A.80933.80933,0,0,0,55.32215,221.33357Z" style="fill: #e5e5e5"/>
    <path d="M51.26258,224.03377a.82742.82742,0,0,0-.29,1.12988h0a.8219.8219,0,0,0,1.12988.29981h0a.831.831,0,0,0,.29981-1.13965h0a.8336.8336,0,0,0-.71973-.40039h0A.82487.82487,0,0,0,51.26258,224.03377Z" style="fill: #e5e5e5"/>
    <path d="M58.02234,229.15389a.82177.82177,0,0,0-.21972,1.14941h0a.82113.82113,0,0,0,1.14941.2207h0a.84074.84074,0,0,0,.2207-1.15039h0a.81515.81515,0,0,0-.69043-.36035h0A.77361.77361,0,0,0,58.02234,229.15389Z" style="fill: #e5e5e5"/>
    <path d="M53.84266,231.69393v-.00977h0a.83617.83617,0,0,0-.33008,1.12988h0a.82568.82568,0,0,0,1.12012.33008h0a.82344.82344,0,0,0,.33007-1.12012h0a.81079.81079,0,0,0-.7207-.43066h0A.81432.81432,0,0,0,53.84266,231.69393Z" style="fill: #e5e5e5"/>
    <path d="M44.85242,235.484a.83636.83636,0,0,0-.5498,1.04h0a.83168.83168,0,0,0,1.04.54h0a.82713.82713,0,0,0,.5498-1.03027h0a.83394.83394,0,0,0-.7998-.58984h0A.981.981,0,0,0,44.85242,235.484Z" style="fill: #e5e5e5"/>
    <path d="M52.67273,241.60408a.83416.83416,0,0,0-.44043,1.08985h0a.83289.83289,0,0,0,1.08985.43945h0a.82322.82322,0,0,0,.44043-1.08008h0a.822.822,0,0,0-.75977-.50976h0A.9562.9562,0,0,0,52.67273,241.60408Z" style="fill: #e5e5e5"/>
    <path d="M43.372,244.63338a.82737.82737,0,0,0-.61914.99023h0a.83475.83475,0,0,0,1,.62012h0a.837.837,0,0,0,.61914-1h0a.83213.83213,0,0,0-.80957-.63965h0A.70173.70173,0,0,0,43.372,244.63338Z" style="fill: #e5e5e5"/>
    <path d="M38.56238,245.54354a.82736.82736,0,0,0-.70019.94043h0a.8345.8345,0,0,0,.94043.70019h0a.83266.83266,0,0,0,.70019-.94043h0a.82851.82851,0,0,0-.82031-.71h0A.499.499,0,0,0,38.56238,245.54354Z" style="fill: #e5e5e5"/>
    <path d="M56.33054,250.23982a.82894.82894,0,0,0-.43066,1.08985h0a.81959.81959,0,0,0,1.08984.41992h0a.82977.82977,0,0,0,.43067-1.08984h0a.83051.83051,0,0,0-.76075-.49024h0A.7839.7839,0,0,0,56.33054,250.23982Z" style="fill: #e5e5e5"/>
    <path d="M48.01258,253.10408h0a.83634.83634,0,0,0-.58008,1.01953h0a.8319.8319,0,0,0,1.01953.58008h0a.8319.8319,0,0,0,.58008-1.01953h0a.83052.83052,0,0,0-.79981-.61035h0A.80558.80558,0,0,0,48.01258,253.10408Z" style="fill: #e5e5e5"/>
    <path d="M38.39246,255.01326a.81708.81708,0,0,0-.71973.9209h0a.81632.81632,0,0,0,.91993.71973h0a.81631.81631,0,0,0,.71972-.91992h0a.83061.83061,0,0,0-.82031-.73047h0A.34888.34888,0,0,0,38.39246,255.01326Z" style="fill: #e5e5e5"/>
    <path d="M33.50281,255.43416a.82775.82775,0,0,0-.79.86914h0a.83369.83369,0,0,0,.86914.79v-.00977a.8252.8252,0,0,0,.79-.86035h0a.82544.82544,0,0,0-.8291-.78906h-.04Z" style="fill: #e5e5e5"/>
    <path d="M56.36219,266.24373h0a.8194.8194,0,0,0-.51953,1.04981h0a.83164.83164,0,0,0,1.0498.5205h0a.82782.82782,0,0,0,.51953-1.05078h0a.833.833,0,0,0-.79-.56933h0A.84506.84506,0,0,0,56.36219,266.24373Z" style="fill: #e5e5e5"/>
    <path d="M51.65223,267.66365a.83326.83326,0,0,0-.58008,1.02051h0a.82828.82828,0,0,0,1.02051.5791h0a.82154.82154,0,0,0,.58007-1.00976h0a.83288.83288,0,0,0-.80078-.62012h0A.91853.91853,0,0,0,51.65223,267.66365Z" style="fill: #e5e5e5"/>
    <path d="M42.02234,269.65389h.00977a.83888.83888,0,0,0-.71.93945h0a.8391.8391,0,0,0,.94043.71l.00976-.00976a.81386.81386,0,0,0,.69043-.93946h0a.82047.82047,0,0,0-.82031-.70019h-.12012Z" style="fill: #e5e5e5"/>
    <path d="M37.14246,270.22322a.83455.83455,0,0,0-.75976.89063h0a.83008.83008,0,0,0,.89941.75976h0a.83864.83864,0,0,0,.76074-.90039h0a.83645.83645,0,0,0-.83008-.75976h0C37.19227,270.21346,37.162,270.22322,37.14246,270.22322Z" style="fill: #e5e5e5"/>
    <path d="M53.2323,284.58357a.82979.82979,0,0,0-.61035,1h0a.81947.81947,0,0,0,.99024.61036h0a.83522.83522,0,0,0,.62011-1h0a.82343.82343,0,0,0-.80957-.62989h0A.63237.63237,0,0,0,53.2323,284.58357Z" style="fill: #e5e5e5"/>
    <path d="M53.15223,310.82381a.82047.82047,0,0,0-.66993.96h0a.82046.82046,0,0,0,.96.66992h0a.8276.8276,0,0,0,.66992-.96h0a.84161.84161,0,0,0-.81934-.67969h0A.6315.6315,0,0,0,53.15223,310.82381Z" style="fill: #e5e5e5"/>
    <path d="M43.372,312.19393h0a.81311.81311,0,0,0-.73925.89941h0a.82815.82815,0,0,0,.89941.75h0a.83725.83725,0,0,0,.75-.90918h0a.84128.84128,0,0,0-.83008-.75h0C43.42273,312.18416,43.40223,312.19393,43.372,312.19393Z" style="fill: #e5e5e5"/>
    <path d="M58.53211,335.87361h0a.82882.82882,0,0,0-.66016.96973h0a.8244.8244,0,0,0,.97071.66016h0a.82164.82164,0,0,0,.66015-.96h0a.82539.82539,0,0,0-.81054-.67969h0C58.64246,335.86385,58.58191,335.87361,58.53211,335.87361Z" style="fill: #e5e5e5"/>
    <path d="M53.662,336.70369a.82492.82492,0,0,0-.68945.94043h0a.82372.82372,0,0,0,.93945.69922h0a.82774.82774,0,0,0,.69043-.94922h0a.81693.81693,0,0,0-.80957-.70019h0A.54522.54522,0,0,0,53.662,336.70369Z" style="fill: #e5e5e5"/>
    <path d="M43.85242,337.86385a.83008.83008,0,0,0-.75976.89941h0a.82256.82256,0,0,0,.89941.75h0a.81309.81309,0,0,0,.75-.88965h0a.81875.81875,0,0,0-.81934-.75976h-.07031Z" style="fill: #e5e5e5"/>
    <path d="M38.92273,338.20369h0a.82651.82651,0,0,0-.78027.87012h0a.82652.82652,0,0,0,.86035.79h.00977a.84358.84358,0,0,0,.78027-.87988h0a.82569.82569,0,0,0-.83008-.78028h-.04Z" style="fill: #e5e5e5"/>
    <path d="M33.9823,338.38338h0a.82841.82841,0,0,0-.80957.85059h0a.82544.82544,0,0,0,.83985.80957h0a.8276.8276,0,0,0,.80957-.84961h0a.82412.82412,0,0,0-.83008-.81055H33.9823Z" style="fill: #e5e5e5"/>
    <path d="M56.32508,360.62361a.82486.82486,0,0,0-.7002.94043h0a.832.832,0,0,0,.94043.69922h0a.83774.83774,0,0,0,.69922-.93945h0a.83421.83421,0,0,0-.81933-.71h0A.49949.49949,0,0,0,56.32508,360.62361Z" style="fill: #e5e5e5"/>
    <path d="M51.85242,361.274a.83877.83877,0,0,0-.71972.92969h0a.82782.82782,0,0,0,.91992.71973h0a.82494.82494,0,0,0,.72949-.91992h0a.84685.84685,0,0,0-.83008-.7295h-.09961Z" style="fill: #e5e5e5"/>
    <path d="M37.07215,362.42342a.81477.81477,0,0,0-.79981.85058h0a.81977.81977,0,0,0,.84961.79981h0a.82345.82345,0,0,0,.80078-.86035h0a.81871.81871,0,0,0-.82031-.79h-.03027Z" style="fill: #e5e5e5"/>
    <path d="M32.122,362.524a.813.813,0,0,0-.81933.83008h0a.81836.81836,0,0,0,.83008.81934h0a.82813.82813,0,0,0,.83007-.83008h0a.83278.83278,0,0,0-.83007-.81934H32.122Z" style="fill: #e5e5e5"/>
    <path d="M51.66992,23.01728A.8261.8261,0,0,1,52.5,22.197h0a.8261.8261,0,0,1,.83008.82032h0a.82813.82813,0,0,1-.83008.83007h0A.82813.82813,0,0,1,51.66992,23.01728Z" style="fill: #e5e5e5"/>
    <path d="M46.66992,23.01728A.8261.8261,0,0,1,47.5,22.197h0a.81688.81688,0,0,1,.81933.82032h0a.81906.81906,0,0,1-.81933.83007h0A.82813.82813,0,0,1,46.66992,23.01728Z" style="fill: #e5e5e5"/>
    <path d="M41.66992,23.01728A.8261.8261,0,0,1,42.5,22.197h0a.83244.83244,0,0,1,.83008.82032h0a.83441.83441,0,0,1-.83008.83007h0A.82813.82813,0,0,1,41.66992,23.01728Z" style="fill: #e5e5e5"/>
    <path d="M36.66992,23.01728A.8261.8261,0,0,1,37.5,22.197h0a.8261.8261,0,0,1,.83008.82032h0a.82813.82813,0,0,1-.83008.83007h0A.82813.82813,0,0,1,36.66992,23.01728Z" style="fill: #e5e5e5"/>
    <path d="M31.66992,23.01728A.8261.8261,0,0,1,32.5,22.197h0a.83244.83244,0,0,1,.83008.82032h0a.83441.83441,0,0,1-.83008.83007h0A.82813.82813,0,0,1,31.66992,23.01728Z" style="fill: #e5e5e5"/>
    <path d="M57.5,23.84735a.8684.8684,0,0,1-.32032-.06054.80052.80052,0,0,1-.26953-.17969.82506.82506,0,0,1-.24023-.58008.8675.8675,0,0,1,.05957-.32031,1.30005,1.30005,0,0,1,.18066-.26953.80052.80052,0,0,1,.26953-.17969.88147.88147,0,0,1,.63965,0,.676.676,0,0,1,.26075.17969.80054.80054,0,0,1,.17968.26953.71592.71592,0,0,1,.07032.32031.79481.79481,0,0,1-.25.58008A.78574.78574,0,0,1,57.5,23.84735Z" style="fill: #e5e5e5"/>
  </g>
</svg>
