<svg id="Layer_2" data-name="Layer 2" xmlns="http://www.w3.org/2000/svg" xmlns:xlink="http://www.w3.org/1999/xlink" width="165.03074" height="380" viewBox="0 0 165.03074 380">
  <defs>
    <linearGradient id="linear-gradient" x1="-53.67204" y1="54.25538" x2="214.4784" y2="322.40581" gradientUnits="userSpaceOnUse">
      <stop offset="0.38537" stop-color="#ffcc9e"/>
      <stop offset="0.40948" stop-color="#fdc89a"/>
      <stop offset="0.66891" stop-color="#efa075"/>
      <stop offset="0.8747" stop-color="#e5875e"/>
      <stop offset="1" stop-color="#e27e56"/>
    </linearGradient>
  </defs>
  <title>BlankInfo-01</title>
  <rect y="0.58334" width="160.80636" height="375.49451" style="fill: url(#linear-gradient)"/>
  <g>
    <path d="M68.11625,186.87006h-1.308v6.4519h1.308a3.22817,3.22817,0,1,0,0-6.4519Z" style="fill: #252626"/>
    <path d="M53.62742,190.026a3.42643,3.42643,0,1,0-3.41754,3.4353A3.46063,3.46063,0,0,0,53.62742,190.026Z" style="fill: #252626"/>
    <path d="M.03074,0V380h165V0Zm114.516,183.88806h3.03437v12.41559h-3.03437ZM97.19835,194.15894l1.98791-2.28437a5.1485,5.1485,0,0,0,2.511,1.46485,3.02249,3.02249,0,0,0,.66272.087,2.04619,2.04619,0,0,0,.90655-.19171.90618.90618,0,0,0,.57544-.80212c0-.48816-.9068-.78461-1.69147-.94172a11.94476,11.94476,0,0,1-2.75506-.85443,3.42119,3.42119,0,0,1-1.7959-3.08648,3.61921,3.61921,0,0,1,.645-2.02253,4.02771,4.02771,0,0,1,1.60443-1.29052l-.01746.01745a5.03852,5.03852,0,0,1,2.12726-.47076,5.93136,5.93136,0,0,1,.92432.06982,7.25762,7.25762,0,0,1,3.57458,1.83081l-1.91809,2.30182a3.84853,3.84853,0,0,0-2.61572-1.2207,1.76077,1.76077,0,0,0-.80206.17456.721.721,0,0,0-.50562.61005c0,.471.62781.69763,1.639.90686.10474.03491.22669.03491.34882.06976a9.2371,9.2371,0,0,1,2.35394.74976h-.01746a3.47368,3.47368,0,0,1,1.91809,3.15625,3.66186,3.66186,0,0,1-.66247,2.17962,4.30419,4.30419,0,0,1-1.65656,1.3252,4.54212,4.54212,0,0,1-2.19708.471,5.88754,5.88754,0,0,1-1.25561-.13965A8.39573,8.39573,0,0,1,97.19835,194.15894Zm-29.0821,2.14471H63.80906V183.88806h4.30719a6.20933,6.20933,0,1,1,0,12.41559Zm13.59919,0V183.88806h8.45721v2.96454H84.7498v1.0636h4.74267v3.01666H84.7498v2.37164h5.30072v2.99915ZM61.204,61.03168a8.95661,8.95661,0,0,1,8.95661-8.95661h29.419a8.95661,8.95661,0,0,1,8.95661,8.95661v85.104a8.95661,8.95661,0,0,1-8.95661,8.95661h-29.419a8.95661,8.95661,0,0,1-8.95661-8.95661ZM96.24922,121.403a5.07064,5.07064,0,0,1-3.06368,2.88011,6.41632,6.41632,0,0,1-2.10993.34818,6.34361,6.34361,0,0,1-2.9167-.55,5.07429,5.07429,0,0,1-1.63245-1.28426,3.95247,3.95247,0,0,1-.78909-1.7977,11.99645,11.99645,0,0,1-.16528-1.98126q0-1.39532.05488-1.92639a1.48519,1.48519,0,0,1,.12868-.60555,3.326,3.326,0,0,1,1.21044-.10975h8.58613a2.77451,2.77451,0,0,1,.60555.05488.54615.54615,0,0,1,.36647.2933,1.86885,1.86885,0,0,1,.16526.71529q.03624.47719.03724,1.32084a6.63106,6.63106,0,0,1-.47752,2.64234M81.42731,85.70432a.81576.81576,0,0,1,.29789-.54545,1.49917,1.49917,0,0,1,.79368-.24823q.54576-.049,1.53836-.04965a7.81125,7.81125,0,0,1,5.93007,2.15829A8.03084,8.03084,0,0,1,92.047,92.80107c0,.22863-.04769.72182-.07775,1.06019-.19008-.00261-.38018-.00522-.57027-.00914q-.78093-.01667-1.6971-.08492a.42542.42542,0,0,0-.2208.39.566.566,0,0,0,.15352.45857l.61012.06794a4.31061,4.31061,0,0,1,1.01839.22014q.40762.15287.40761.3227a1.95636,1.95636,0,0,1-.2038.62775q-.20382.45858-.54283,1.10267-.34.64572-.72967,1.375-.391.73-.73032,1.37441-.78095,1.49428-1.59519,2.93564-.81429,1.44331-1.59456,2.80042-.98574-1.76472-1.93488-3.69927Q83.389,99.808,82.43852,97.90741c-.04573-.09015-.12411-.25934-.23713-.50888q-.17048-.37234-.35666-.79759c-.12477-.28286-.23254-.54807-.32269-.7976a1.85214,1.85214,0,0,1-.13522-.50887c0-.13588.08949-.243.27108-.3227a6.72436,6.72436,0,0,1,1.15429-.28808l.44092-.06794a.59449.59449,0,0,0,.15287-.47555.36189.36189,0,0,0-.25412-.373q-.72313.05684-1.77419.08165V86.64759a6.97874,6.97874,0,0,1,.04964-.94327m2.81022,25.40627q0,1.35807-.034,2.172a3.58425,3.58425,0,0,1-.23777,1.27251,1.35492,1.35492,0,0,1-.1718.29069l-.00458.00261a6.35263,6.35263,0,0,1-.99748-.26326,1.66069,1.66069,0,0,1-.96745-.893,5.23582,5.23582,0,0,1-.37233-1.81142q-.07449-1.165-.07448-3.10091v-7.066l1.77419,3.45692q.37235.71334.59379,1.20522a5.29074,5.29074,0,0,1,.32205.91649,5.576,5.576,0,0,1,.13586.8995q.03332.47523.034,1.18759Zm14.00733,4.197q.22044-.61143.44093-1.30647.22047-.6957.40761-1.35807.18618-.66141.28874-1.10332a.52917.52917,0,0,0-.39065-.30506.51416.51416,0,0,0-.45856.06794,15.90807,15.90807,0,0,1-1.30647,2.172,4.1,4.1,0,0,1-1.10266,1.1203,3.647,3.647,0,0,1-.62841.23713,4.98638,4.98638,0,0,1-.84856.15285q-.49188.051-1.18758.08492-.69568.0343-1.68011.034-1.12,0-1.85-.06793a9.28964,9.28964,0,0,1-1.17059-.16919,2.92859,2.92859,0,0,1-.69569-.23778,1.219,1.219,0,0,1-.39065-.30571,2.35536,2.35536,0,0,1-.52585-1.30647,16.84344,16.84344,0,0,1-.1189-2.22362v-2.23994c.00525-.31028.01438-.58464.02745-.81981a5.36251,5.36251,0,0,1,.18618-1.17059,5.90766,5.90766,0,0,1,.47555-1.15427c.051-.09733.10843-.2025.16919-.3129.08166-.00261.16656-.00392.26129-.00392H90.116q.98376,0,1.61217.034a4.95632,4.95632,0,0,1,1.0014.13522,1.19578,1.19578,0,0,1,.72967.47555,2.42162,2.42162,0,0,1,.32271.81459l.30505,1.32345a.51524.51524,0,0,0,.45793.15286.48794.48794,0,0,0,.4246-.18683q0-.57712-.06794-1.45932-.0686-.88286-.06794-1.799,0-.98377.06794-1.90026.0676-.91714.06794-1.52792a.49284.49284,0,0,0-.4246-.18682.51875.51875,0,0,0-.45793.15285l-.2711,1.39205a2.12106,2.12106,0,0,1-.32269.86553,1.07605,1.07605,0,0,1-.49188.32205,4.78893,4.78893,0,0,1-1.05236.15286q-.74762.051-1.833.05094H88.5822l.034-.05617,2.138-3.69927q.64374-1.08666,1.17125-2.0198A18.28577,18.28577,0,0,1,92.96017,96.482a5.86164,5.86164,0,0,1,1.05238-1.15361,2.79946,2.79946,0,0,1,.23125-.16723,2.77014,2.77014,0,0,1,1.30254,1.038,3.83941,3.83941,0,0,1,.44159.91584q.16852.50952.373,1.1203a.46019.46019,0,0,0,.44159.13587.50431.50431,0,0,0,.40695-.20381q-.06859-.54284-.11823-1.23853-.05192-.6957-.11954-1.35743c-.04507-.44158-.10452-.83548-.1522-1.18823a10.64229,10.64229,0,0,1-.09146-1.61806,8.93778,8.93778,0,0,0-4.086-7.45733,11.71712,11.71712,0,0,0-4.069-1.53837,29.33129,29.33129,0,0,0-5.45845-.44681q-3.12672,0-5.48324.07446-2.35753.07447-4.34271.3227a.6219.6219,0,0,0-.322.57027.82611.82611,0,0,0,.22341.67022l1.786.19859a4.36913,4.36913,0,0,1,1.3156.3227,1.3898,1.3898,0,0,1,.6944.8185,5.41219,5.41219,0,0,1,.273,1.588q.049.99259.04964,2.58028v18.31148q0,1.93424-.04964,3.10091a4.93982,4.93982,0,0,1-.34753,1.81142,1.68553,1.68553,0,0,1-.893.893,7.03367,7.03367,0,0,1-1.68729.39717l-1.04257.14894a.77043.77043,0,0,0-.20382.61731c-.00129.53108-.00718.69961-.01828,1.298q-.01764,1.02787-.09342,2.29808c.0503.12477.19272.19924.42983.22472a.53771.53771,0,0,0,.50495-.14959l.1117-.78519a5.30111,5.30111,0,0,1,.29919-1.26989,1.26893,1.26893,0,0,1,.67283-.67283,3.709,3.709,0,0,1,1.364-.2626q.878-.03625,2.336-.03658h4.70852a2.33892,2.33892,0,0,1,.46772.03658.336.336,0,0,1,.24235.20642,1.58534,1.58534,0,0,1,.09406.52259c.01176.23712.0183.56635.0183.9903a3.90415,3.90415,0,0,1-.28025,1.68208,2.50906,2.50906,0,0,1-.91584.972q-.63591.44877-1.40118.93412-.76722.485-1.5325.97136-.76621.486-1.47629.93478-.7104.44779-1.23331.82177a20.7356,20.7356,0,0,0-2.336,1.88785,8.27064,8.27064,0,0,0-1.43842,1.77484,6.22416,6.22416,0,0,0-.729,1.88719,10.816,10.816,0,0,0-.20511,2.18638,5.515,5.515,0,0,0,.18617,1.64419.30387.30387,0,0,0,.5239-.03723,4.91686,4.91686,0,0,1,.3547-1.41948,4.35756,4.35756,0,0,1,.69177-1.15884A14.4485,14.4485,0,0,1,76.206,129.3979q.98963-.85933,2.18637-1.75655,1.19541-.89657,2.69068-1.84931,1.49427-.9534,3.289-2.07467a2.33683,2.33683,0,0,1,.46706-.243.40818.40818,0,0,1,.42982.05617,7.65087,7.65087,0,0,0,.78453,1.51355,8.08832,8.08832,0,0,0,1.28949,1.5142,6.71119,6.71119,0,0,0,1.79378,1.17713,5.69013,5.69013,0,0,0,2.3732.46706,5.59771,5.59771,0,0,0,3.25182-.8786,6.17564,6.17564,0,0,0,1.9806-2.22361,8.23926,8.23926,0,0,0,.91584-2.89579,25.2684,25.2684,0,0,0,.20511-3.34587,14.09728,14.09728,0,0,1,.3815-3.551M20.744,193.61841l-.13934.20917a6.62522,6.62522,0,0,1-5.24866,2.66778,6.4954,6.4954,0,0,1,0-12.99078,6.42029,6.42029,0,0,1,4.60339,1.91809l.57544.59289-2.16217,1.88318-.50567-.48816a3.57933,3.57933,0,0,0-2.511-1.02874,3.6183,3.6183,0,0,0,0,7.23657,3.5491,3.5491,0,0,0,2.511-1.029v-1.53437H14.65837v-2.87732H20.744Zm16.47644-6.76581H31.79728v1.0636h4.74329v3.01666H31.79728v2.37164h5.30127v2.99915H28.76323V183.88806h8.45721ZM43.758,190.026a6.46068,6.46068,0,1,1,6.4519,6.43445A6.46323,6.46323,0,0,1,43.758,190.026Zm47.9284,142.0423a1.90455,1.90455,0,0,0,1.97168,1.93066,2.37448,2.37448,0,0,0,2.03907-1.22363l-2.27051-3.18066C92.05357,330.54584,91.68638,331.30756,91.68638,332.0683ZM75.038,327.8681c-1.00586,0-1.50879.65235-1.53614,2.44629h3.07325C76.54771,328.52045,76.04478,327.8681,75.038,327.8681Zm6.02539,0a1.38612,1.38612,0,0,0-1.14161.63867,4.22879,4.22879,0,0,0-.46289,2.46094c0,2.66406.74805,3.08594,1.57715,3.08594.81543,0,1.57715-.42188,1.57715-3.08594C82.61314,328.34369,81.85142,327.8681,81.06334,327.8681Zm-18.314-41.93945c-.81543,0-1.57715.4209-1.57715,3.08594,0,2.67773.76172,3.09961,1.57715,3.09961.8291,0,1.57715-.42188,1.57715-3.09961C64.32652,286.34955,63.57847,285.92865,62.74937,285.92865Zm32.187,40.70215a1.10859,1.10859,0,0,0-2.21679,0,3.896,3.896,0,0,0,.91113,1.9707C94.70494,327.78607,94.93638,327.16107,94.93638,326.6308Zm-26.189-40.70215c-1.00586,0-1.50879.65234-1.53613,2.44629h3.07324C70.25718,286.581,69.75425,285.92865,68.74742,285.92865ZM57.66978,327.8681c-.91015,0-1.61719.78809-1.61719,3.08594,0,2.31055.707,3.09961,1.61719,3.09961.91113,0,1.61817-.78906,1.61817-3.09961C59.288,328.65619,58.58091,327.8681,57.66978,327.8681Zm34.48486-41.93945c-1.00585,0-1.50878.65234-1.53613,2.44629h3.07324C93.66441,286.581,93.16148,285.92865,92.15464,285.92865Zm14.38965,3.09961-.67968.17676a1.40519,1.40519,0,0,0-1.23731,1.49511c0,.84278.43457,1.41407,1.1416,1.41407.99219,0,1.67188-.748,1.67188-2.03907V288.5517h-.02637C107.33238,288.79681,106.87047,288.94623,106.54429,289.02826Zm10.78516-3.09961c-1.00586,0-1.50879.65234-1.53613,2.44629h3.07324C118.83922,286.581,118.33629,285.92865,117.32945,285.92865Zm-41.251,4.2002a1.90455,1.90455,0,0,0,1.97168,1.93066,2.3745,2.3745,0,0,0,2.03907-1.22363l-2.27051-3.18067C76.44566,288.60638,76.07847,289.3681,76.07847,290.12885Zm3.25-5.4375a1.10859,1.10859,0,0,0-2.21679,0,3.896,3.896,0,0,0,.91113,1.9707C79.097,285.84662,79.32847,285.22162,79.32847,284.69135Zm21.12207,1.2373c-1.00586,0-1.50879.65234-1.53613,2.44629h3.07324C101.96031,286.581,101.45738,285.92865,100.45054,285.92865Zm-41.918,3.08594c0-2.29785-.707-3.08594-1.61816-3.08594-.91016,0-1.61719.78809-1.61719,3.08594,0,2.31054.707,3.09961,1.61719,3.09961C57.82554,292.1142,58.53257,291.32513,58.53257,289.01459Zm51.03223,1.30468h.81543v.19043c0,1.06055.46191,1.6045,1.38672,1.6045a1.26811,1.26811,0,0,0,1.42773-1.292,1.29783,1.29783,0,0,0-.97949-1.332l-1.1416-.44824c-1.01953-.39453-1.38672-.99316-1.38672-1.71387a1.91394,1.91394,0,0,1,2.14844-2.08007,1.76091,1.76091,0,0,1,1.98437,2.01269v.2041h-.81543v-.2041c0-.93848-.43554-1.332-1.18261-1.332-.95215,0-1.31934.50293-1.31934,1.22266,0,.5039.16309.89746.97949,1.21093l1.18262.44825a1.84929,1.84929,0,0,1,1.3457,1.835,2.00258,2.00258,0,0,1-2.22949,2.14843c-1.48242,0-2.21582-.61132-2.21582-2.24316Zm-2.083,1.4961v-.24512h-.02734a1.762,1.762,0,0,1-1.86231,1.22363c-1.26464,0-1.835-.78808-1.835-2.03906a1.90228,1.90228,0,0,1,1.45411-1.999l1.53613-.43457c.57129-.16309.69336-.29981.69336-1.14258a1.10689,1.10689,0,0,0-1.25-1.25c-.96582,0-1.38672.584-1.38672,1.63086h-.81641a2.017,2.017,0,0,1,2.23047-2.31152c1.49512,0,2.03906.77539,2.03906,1.917v4.26953c0,.4082.13575.59766.4209.59766h.23145v.59863a1.12145,1.12145,0,0,1-.38086.082C107.89,292.71283,107.48179,292.56244,107.48179,291.81537ZM86.65416,333.97162a1.67737,1.67737,0,0,0,.50293-.08106v.67969a1.35421,1.35421,0,0,1-.57129.082c-1.10157,0-1.52246-.2998-1.52246-1.26465v-5.35644h-.99317v-.68067h.99317v-1.998h.81543v1.998h1.27832v.68067H85.87877v5.17969C85.87877,333.78217,86.12388,333.97162,86.65416,333.97162ZM81.36754,292.6308l-.85645-1.18262a2.94542,2.94542,0,0,1-2.583,1.3457,2.5407,2.5407,0,0,1-2.71972-2.56933,3.09641,3.09641,0,0,1,1.40039-2.502l.80273-.61133a4.15928,4.15928,0,0,1-1.11523-2.39356,1.801,1.801,0,0,1,1.98535-1.79394,1.72416,1.72416,0,0,1,1.8623,1.79394c0,.78906-.32617,1.52344-1.71289,2.502l2.09375,2.93652a5.18443,5.18443,0,0,0,.35352-1.835h.81543a5.2527,5.2527,0,0,1-.67969,2.51465l1.27832,1.79492Zm-26.94043-3.61621c0-2.502.89648-3.7666,2.4873-3.7666s2.48828,1.26464,2.48828,3.7666c0,2.51465-.89746,3.77929-2.48828,3.77929S54.42711,291.52924,54.42711,289.01459Zm9.98144,3.61621v-1.19629h-.02734a1.7799,1.7799,0,0,1-1.76758,1.35937c-1.59082,0-2.31152-1.27832-2.31152-3.77929,0-2.48828.7207-3.7666,2.31152-3.7666a1.60458,1.60458,0,0,1,1.68555,1.251h.02734v-3.57519H65.142v9.707Zm4.33887-.5166c.85644,0,1.38672-.61231,1.52344-1.876h.81543c-.12207,1.53613-.96582,2.55566-2.3252,2.55566-1.52246,0-2.41992-1.06054-2.41992-3.77929,0-2.502.89746-3.7666,2.48828-3.7666,1.60449,0,2.32519,1.10156,2.32519,3.50781v.2998H67.21129v.33985C67.21129,291.47552,67.94566,292.1142,68.74742,292.1142ZM87.10972,286.54a1.91,1.91,0,0,1,1.82129-1.292,1.034,1.034,0,0,1,.28613.041v.81543a2.11974,2.11974,0,0,0-.39453-.04c-.89746,0-1.74023.65235-1.74023,2.05274v4.51367H86.266v-7.21973h.81641V286.54Zm2.63867,2.47461c0-2.502.89747-3.7666,2.48829-3.7666,1.60449,0,2.32519,1.10156,2.32519,3.50781v.2998H90.61851v.33985c0,2.08007.73438,2.71875,1.53613,2.71875.85645,0,1.38672-.61231,1.52344-1.876h.81543c-.12207,1.53613-.96582,2.55566-2.32519,2.55566C90.64586,292.79388,89.74839,291.73334,89.74839,289.01459Zm6.14747,3.61621v-9.707h.81543v9.707Zm-45.15625-9.87012a2.67715,2.67715,0,0,1,2.78711,2.99121H52.6566c0-1.31933-.666-2.25683-1.917-2.25683-1.38672,0-2.2295,1.1416-2.2295,4.28222s.84278,4.28223,2.2295,4.28223c1.22363,0,1.917-1.04688,2.01269-2.71875h.87012c-.123,2.21582-1.14258,3.45312-2.88281,3.45312-1.98438,0-3.09961-1.53613-3.09961-5.0166S48.75523,282.76068,50.73961,282.76068Zm-2.34424,46.95606c0-3.48047,1.11523-5.01661,3.09961-5.01661a2.67715,2.67715,0,0,1,2.78711,2.99122H53.412c0-1.31934-.666-2.25684-1.917-2.25684-1.38672,0-2.2295,1.1416-2.2295,4.28223s.84278,4.28222,2.2295,4.28222c1.22363,0,1.917-1.04687,2.01269-2.71875h.87012c-.123,2.21582-1.14258,3.45313-2.88281,3.45313C49.5106,334.73334,48.39537,333.1972,48.39537,329.71674Zm9.27441,5.0166c-1.58984,0-2.4873-1.26465-2.4873-3.7793,0-2.502.89746-3.7666,2.4873-3.7666,1.59082,0,2.48828,1.26465,2.48828,3.7666C60.15806,333.46869,59.2606,334.73334,57.66978,334.73334Zm6.09375-6.86524a1.63557,1.63557,0,0,0-1.59082,1.84864v4.85351h-.8164v-7.21973h.73437v1.00684H62.118a2.02744,2.02744,0,0,1,1.84864-1.16992,1.695,1.695,0,0,1,1.84961,1.93066v5.45215h-.81543v-5.2207C65.00084,328.35736,64.59263,327.8681,63.76353,327.8681Zm3.25195,3.08594c0-2.502.89649-3.7666,2.48731-3.7666a2.12842,2.12842,0,0,1,2.23047,2.31152h-.81641c-.09472-1.12793-.54394-1.63086-1.41406-1.63086-.88379,0-1.61719.543-1.61719,3.09961,0,2.71875.77442,3.08594,1.53613,3.08594.82911,0,1.35938-.6123,1.49512-1.876h.81641c-.12305,1.53614-.96582,2.55567-2.29785,2.55567C67.912,334.73334,67.01548,333.67279,67.01548,330.954Zm5.61622,0c0-2.502.89746-3.7666,2.48828-3.7666,1.60449,0,2.32519,1.10156,2.32519,3.50781v.29981H73.50181v.33984c0,2.08008.73438,2.71875,1.53614,2.71875.85644,0,1.38671-.6123,1.52343-1.876h.81543c-.12207,1.53614-.96582,2.55567-2.32519,2.55567C73.52916,334.73334,72.6317,333.67279,72.6317,330.954Zm8.54,3.7793a1.60438,1.60438,0,0,1-1.68554-1.251h-.02735v3.48047h-.81543v-9.61231h.73438v1.03418h.02734a1.82654,1.82654,0,0,1,1.78028-1.19726c1.60449,0,2.29785,1.27832,2.29785,3.78027C83.48326,333.455,82.76256,334.73334,81.17173,334.73334ZM96.119,333.38763a2.94541,2.94541,0,0,1-2.583,1.34571,2.5407,2.5407,0,0,1-2.71972-2.56934,3.09643,3.09643,0,0,1,1.40039-2.50195l.80273-.61133a4.15926,4.15926,0,0,1-1.11523-2.39355,1.801,1.801,0,0,1,1.98535-1.79395,1.72416,1.72416,0,0,1,1.8623,1.79395c0,.78906-.32617,1.52343-1.71289,2.50195l2.09375,2.93652a5.18435,5.18435,0,0,0,.35352-1.835h.81543a5.25267,5.25267,0,0,1-.67969,2.51465l1.27832,1.79492h-.9248Zm1.92529-44.373c0-2.502.89746-3.7666,2.48828-3.7666,1.6045,0,2.3252,1.10156,2.3252,3.50781v.2998H98.91441v.33985c0,2.08007.73438,2.71875,1.53613,2.71875.85645,0,1.38672-.61231,1.52344-1.876h.81543c-.12207,1.53613-.96582,2.55566-2.32519,2.55566C98.94175,292.79388,98.04429,291.73334,98.04429,289.01459Zm3.72022,40.70215c0-3.48047,1.11523-5.01661,3.09961-5.01661,1.84961,0,2.67871,1.21,2.78711,2.88184h-.87012a1.91943,1.91943,0,0,0-1.917-2.14746c-1.38672,0-2.22949,1.1416-2.22949,4.28223s.84277,4.28222,2.22949,4.28222c1.30566,0,2.02636-1.16894,2.02636-3.43945v-.2041h-2.29785V329.621h3.11328v4.94922h-.67968v-1.60449h-.02735a2.27526,2.27526,0,0,1-2.13476,1.76758C102.87974,334.73334,101.76451,333.1972,101.76451,329.71674Zm7.249-4.85352h.87012v6.97461c0,1.4541.626,2.16113,1.90332,2.16113,1.27832,0,1.9043-.707,1.9043-2.16113v-6.97461h.87011v6.98828c0,2.03906-.99316,2.88184-2.77441,2.88184-1.78027,0-2.77344-.84278-2.77344-2.88184Zm6.99121,9.707v-9.707h.87012v9.707Zm3.73194-45.51465h-3.94336v.33985c0,2.08007.73437,2.71875,1.53613,2.71875.85644,0,1.38672-.61231,1.52344-1.876h.81543c-.12207,1.53613-.96582,2.55566-2.3252,2.55566-1.52246,0-2.41992-1.06054-2.41992-3.77929,0-2.502.89746-3.7666,2.48828-3.7666,1.60449,0,2.3252,1.10156,2.3252,3.50781Zm12.07226-95.57684a3.636,3.636,0,0,0,3.01666-1.74384l2.3888,1.7613a6.56867,6.56867,0,0,1-5.40546,2.98169,6.46049,6.46049,0,1,1,0-12.921,6.70063,6.70063,0,0,1,5.47528,3.03411l-2.4237,1.77845a3.76466,3.76466,0,0,0-3.05158-1.83081,3.47,3.47,0,1,0,0,6.94006Zm20.78339,1.13342a4.30419,4.30419,0,0,1-1.65656,1.3252,4.54226,4.54226,0,0,1-2.19708.471,5.88871,5.88871,0,0,1-1.25568-.13965,8.39555,8.39555,0,0,1-3.88848-2.1098l1.98791-2.28437a5.1482,5.1482,0,0,0,2.511,1.46485,3.02249,3.02249,0,0,0,.66272.087,2.04657,2.04657,0,0,0,.90655-.19171.90629.90629,0,0,0,.57544-.80212c0-.48816-.9068-.78461-1.69147-.94172a11.94476,11.94476,0,0,1-2.75506-.85443,3.42107,3.42107,0,0,1-1.7959-3.08648,3.61962,3.61962,0,0,1,.645-2.02253,4.02789,4.02789,0,0,1,1.60449-1.29052l-.01746.01745a5.03812,5.03812,0,0,1,2.12726-.47076,5.9301,5.9301,0,0,1,.92426.06982,7.25777,7.25777,0,0,1,3.57464,1.83081l-1.91809,2.30182a3.84853,3.84853,0,0,0-2.61572-1.2207,1.76119,1.76119,0,0,0-.80212.17456.721.721,0,0,0-.50562.61005c0,.471.62781.69763,1.6391.90686.10474.03491.22662.03491.34882.06976a9.23594,9.23594,0,0,1,2.35388.74976h-.01746a3.47357,3.47357,0,0,1,1.91809,3.15625A3.66181,3.66181,0,0,1,152.59233,194.61218Z" style="fill: #252626"/>
  </g>
  <g>
    <g>
      <circle cx="23.03083" cy="7" r="5.73626" style="fill: #bcbcbc"/>
      <path d="M23.03079,1.52734A5.47266,5.47266,0,1,1,17.55817,7V7a5.47893,5.47893,0,0,1,5.47262-5.47266m0-.52734a6,6,0,1,0,6,6A6,6,0,0,0,23.03079,1Z" style="fill: gray"/>
    </g>
    <polygon points="26.526 6.341 23.69 6.341 23.69 3.505 22.372 3.505 22.372 6.341 19.537 6.341 19.537 7.659 22.372 7.659 22.372 10.495 23.69 10.495 23.69 7.659 26.526 7.659 26.526 6.341" style="fill: #6e6e6e"/>
  </g>
  <g>
    <g>
      <circle cx="142.03083" cy="7" r="5.73626" style="fill: #bcbcbc"/>
      <path d="M142.03079,1.52734A5.47266,5.47266,0,1,1,136.55817,7V7a5.47893,5.47893,0,0,1,5.47262-5.47266m0-.52734a6,6,0,1,0,6,6A6,6,0,0,0,142.03079,1Z" style="fill: gray"/>
    </g>
    <polygon points="145.526 6.341 142.69 6.341 142.69 3.505 141.372 3.505 141.372 6.341 138.537 6.341 138.537 7.659 141.372 7.659 141.372 10.495 142.69 10.495 142.69 7.659 145.526 7.659 145.526 6.341" style="fill: #6e6e6e"/>
  </g>
  <g>
    <g>
      <circle cx="23.03083" cy="373" r="5.73626" style="fill: #bcbcbc"/>
      <path d="M23.03079,367.52734A5.47266,5.47266,0,1,1,17.55817,373v0a5.47893,5.47893,0,0,1,5.47262-5.47266m0-.52734a6,6,0,1,0,6,6A6,6,0,0,0,23.03079,367Z" style="fill: gray"/>
    </g>
    <polygon points="26.526 372.341 23.69 372.341 23.69 369.505 22.372 369.505 22.372 372.341 19.537 372.341 19.537 373.659 22.372 373.659 22.372 376.495 23.69 376.495 23.69 373.659 26.526 373.659 26.526 372.341" style="fill: #6e6e6e"/>
  </g>
  <g>
    <g>
      <circle cx="142.03083" cy="373" r="5.73626" style="fill: #bcbcbc"/>
      <path d="M142.03079,367.52734A5.47266,5.47266,0,1,1,136.55817,373v0a5.47893,5.47893,0,0,1,5.47262-5.47266m0-.52734a6,6,0,1,0,6,6A6,6,0,0,0,142.03079,367Z" style="fill: gray"/>
    </g>
    <polygon points="145.526 372.341 142.69 372.341 142.69 369.505 141.372 369.505 141.372 372.341 138.537 372.341 138.537 373.659 141.372 373.659 141.372 376.495 142.69 376.495 142.69 373.659 145.526 373.659 145.526 372.341" style="fill: #6e6e6e"/>
  </g>
  <g>
    <path d="M5.034,23.83687a.83359.83359,0,0,1-.59033-.25A.76066.76066,0,0,1,4.264,23.3271a.90148.90148,0,0,1-.06006-.31933.8642.8642,0,0,1,.06006-.32031.8019.8019,0,0,1,.17969-.27051.8536.8536,0,0,1,1.17041,0,.8019.8019,0,0,1,.17969.27051.86439.86439,0,0,1,.06005.32031.90168.90168,0,0,1-.06005.31933.76066.76066,0,0,1-.17969.25977.80508.80508,0,0,1-.27.18066A.82434.82434,0,0,1,5.034,23.83687Z" style="fill: #e5e5e5"/>
    <path d="M156.784,23.00777a.82537.82537,0,0,1,.81982-.83008h0a.82752.82752,0,0,1,.83008.83008h0a.82731.82731,0,0,1-.83008.8291h0A.82515.82515,0,0,1,156.784,23.00777Zm-4.93018,0a.82752.82752,0,0,1,.83008-.83008h0a.82752.82752,0,0,1,.83008.83008h0a.82731.82731,0,0,1-.83008.8291h0A.82731.82731,0,0,1,151.85386,23.00777Zm-4.91992,0a.82752.82752,0,0,1,.83008-.83008h0a.82752.82752,0,0,1,.83008.83008h0a.82731.82731,0,0,1-.83008.8291h0A.82731.82731,0,0,1,146.93394,23.00777Zm-4.91992,0a.82752.82752,0,0,1,.83008-.83008h0a.82752.82752,0,0,1,.83008.83008h0a.82731.82731,0,0,1-.83008.8291h0A.82731.82731,0,0,1,142.014,23.00777Zm-4.91992,0a.82721.82721,0,0,1,.83008-.83008h0a.83368.83368,0,0,1,.82959.83008h0a.83347.83347,0,0,1-.82959.8291h0A.827.827,0,0,1,137.0941,23.00777Zm-4.91992,0a.8271.8271,0,0,1,.82959-.83008h0a.82547.82547,0,0,1,.82031.83008h0a.82525.82525,0,0,1-.82031.8291h0A.82689.82689,0,0,1,132.17418,23.00777Zm-4.93018,0a.83377.83377,0,0,1,.83008-.83008h0a.82752.82752,0,0,1,.83008.83008h0a.82731.82731,0,0,1-.83008.8291h0A.83357.83357,0,0,1,127.244,23.00777Zm-4.91992,0a.82721.82721,0,0,1,.83008-.83008h0a.8271.8271,0,0,1,.82959.83008h0a.82689.82689,0,0,1-.82959.8291h0A.827.827,0,0,1,122.32408,23.00777Zm-4.91992,0a.8271.8271,0,0,1,.82959-.83008h0a.82751.82751,0,0,1,.83007.83008h0a.8273.8273,0,0,1-.83007.8291h0A.82689.82689,0,0,1,117.40416,23.00777Zm-4.92041,0a.82751.82751,0,0,1,.83007-.83008h0a.82547.82547,0,0,1,.82032.83008h0a.82526.82526,0,0,1-.82032.8291h0A.8273.8273,0,0,1,112.48375,23.00777Zm-4.91993,0a.82752.82752,0,0,1,.83008-.83008h0a.82506.82506,0,0,1,.81983.83008h0a.82484.82484,0,0,1-.81983.8291h0A.82731.82731,0,0,1,107.56382,23.00777Zm-4.91992,0a.82537.82537,0,0,1,.81983-.83008h0a.82721.82721,0,0,1,.83008.83008h0a.827.827,0,0,1-.83008.8291h0A.82516.82516,0,0,1,102.6439,23.00777Zm-4.93017,0a.82751.82751,0,0,1,.83008-.83008h0a.82751.82751,0,0,1,.83007.83008h0a.8273.8273,0,0,1-.83007.8291h0A.8273.8273,0,0,1,97.71373,23.00777Zm-4.91992,0a.82751.82751,0,0,1,.83007-.83008h0a.82752.82752,0,0,1,.83008.83008h0a.82731.82731,0,0,1-.83008.8291h0A.8273.8273,0,0,1,92.79381,23.00777Zm-4.91993,0a.82752.82752,0,0,1,.83008-.83008h0a.82752.82752,0,0,1,.83008.83008h0a.82731.82731,0,0,1-.83008.8291h0A.82731.82731,0,0,1,87.87388,23.00777Zm-4.91992,0a.82752.82752,0,0,1,.83008-.83008h0a.82537.82537,0,0,1,.81982.83008h0a.82515.82515,0,0,1-.81982.8291h0A.82731.82731,0,0,1,82.954,23.00777Zm-4.91992,0a.82537.82537,0,0,1,.81982-.83008h0a.82752.82752,0,0,1,.83008.83008h0a.82731.82731,0,0,1-.83008.8291h0A.82515.82515,0,0,1,78.034,23.00777Zm-4.93018,0a.82752.82752,0,0,1,.83008-.83008h0a.82752.82752,0,0,1,.83008.83008h0a.82731.82731,0,0,1-.83008.8291h0A.82731.82731,0,0,1,73.10386,23.00777Zm-4.91992,0a.82752.82752,0,0,1,.83008-.83008h0a.82752.82752,0,0,1,.83008.83008h0a.82731.82731,0,0,1-.83008.8291h0A.82731.82731,0,0,1,68.18394,23.00777Zm-4.91992,0a.82752.82752,0,0,1,.83008-.83008h0a.82752.82752,0,0,1,.83008.83008h0a.82731.82731,0,0,1-.83008.8291h0A.82731.82731,0,0,1,63.264,23.00777Zm40.936,201.40623c.9121,0,1.2246-.89844,1.2246-1.98047,0-1.27734-.37793-1.99414-1.2246-1.99414-1.082,0-1.27735.95215-1.27735,2.05957C102.92271,223.56732,103.327,224.414,104.20006,224.414Zm-25.00879,0c1.03027,0,1.21191-.85937,1.21191-2.64453,0-1.55078-.18164-2.64551-1.21191-2.64551-1.01563,0-1.19825,1.09473-1.19825,2.64551C77.993,223.55463,78.17564,224.414,79.19127,224.414Zm-17.43946-3.80469c0-.88574-.28613-1.56347-1.081-1.56347-.89942,0-1.17285.88574-1.17285,1.79785v.14355h2.2539Zm32.9795-3.51855c-1.01661,0-1.27735.97754-1.27735,3.66211s.26074,3.66113,1.27735,3.66113c1.01562,0,1.27636-.97656,1.27636-3.66113S95.74693,217.09076,94.73131,217.09076Zm18.49511,3.94824h-.57324v-1.042h.53418c.99023,0,1.3291-.67774,1.3291-1.57715,0-.66406-.2998-1.3291-1.06933-1.3291-.91211,0-1.17188.78223-1.17188,1.61621h-1.4082a2.37621,2.37621,0,0,1,2.65918-2.6582,2.23381,2.23381,0,0,1,2.47558,2.3584,1.94283,1.94283,0,0,1-1.47265,2.01953v.03906a1.91559,1.91559,0,0,1,1.68066,2.13769,2.52587,2.52587,0,0,1-2.81445,2.85352c-1.668,0-2.63184-.82129-2.63184-2.75h1.40723c0,.80859.26074,1.707,1.26367,1.707.92578,0,1.29-.74219,1.29-1.6543C114.72447,221.62592,114.34654,221.039,113.22642,221.039ZM100.162,223.55463v1.71972H98.67662v-1.71972ZM74.034,217.27338v-1.40723h1.40723v1.40723Zm1.40723.99023v7.01074H74.034v-7.01074Zm-11.125,7.01074v-7.01074h1.40722v1.09473h.02637a1.73351,1.73351,0,0,1,1.62891-1.27735,1.07832,1.07832,0,0,1,.33886.05274v1.43262a2.70015,2.70015,0,0,0-.58691-.07813c-.63867,0-1.40723.28711-1.40723,1.58984v4.19629Zm6.09668.18262c-1.77149,0-2.30567-.82129-2.30567-2.17676v-.25976h1.251v.2207c0,.80859.28613,1.251,1.09375,1.251.76953,0,1.14746-.39063,1.14746-1.0293a1.01966,1.01966,0,0,0-.76953-1.0293l-1.14649-.40429a1.86621,1.86621,0,0,1-1.498-2.01954c0-1.3164.95117-1.92871,2.39746-1.92871,1.78515,0,2.18945,1.043,2.18945,1.916v.3125h-1.3291v-.18262c0-.56054-.19629-1.08105-.92578-1.08105-.56055,0-1.00293.26074-1.00293.91211,0,.54687.24707.76855.99023,1.02929l.89942.3125a1.89942,1.89942,0,0,1,1.52441,2.01953C72.92857,224.8183,71.83384,225.457,70.413,225.457Zm6.17285-3.6875c0-2.17676.57324-3.68848,2.60547-3.68848,2.04589,0,2.62011,1.51172,2.62011,3.68848,0,2.17578-.665,3.6875-2.62011,3.6875C77.24986,225.457,76.5858,223.94525,76.5858,221.76947Zm6.30468-3.50586h1.32911v.82129h.03906A2.01016,2.01016,0,0,1,86.0565,218.081c1.06934,0,1.74609.48243,1.74609,1.90235v5.291H86.39537v-4.80859c0-.91211-.27344-1.26367-.97656-1.26367-.57422,0-1.1211.45605-1.1211,1.36816v4.7041H82.89048ZM94.73131,225.457c-1.77247,0-2.7627-1.12109-2.7627-4.7041,0-3.584.99023-4.7041,2.7627-4.7041,1.77148,0,2.76171,1.12011,2.76171,4.7041C97.493,224.33588,96.50279,225.457,94.73131,225.457Zm9.5205-9.4082c1.61621,0,2.48926.72949,2.48926,2.24121h-1.48535c0-.53418-.248-1.19922-.99024-1.19922-1.39453,0-1.47265,1.83789-1.47265,3.17969l.03906.02636a1.90185,1.90185,0,0,1,1.79785-.97754c1.26465,0,2.28028.91211,2.28028,2.749,0,2.124-.87305,3.38867-2.82715,3.38867-2.333,0-2.77539-1.77246-2.77539-4.418C101.30748,218.27631,101.81529,216.04877,104.25181,216.04877Zm3.80274,9.22558v-1.71972h1.48535v1.71972ZM60.68345,218.081c1.95508,0,2.47559,1.17286,2.47559,3.12793v.74219H59.49791v.4043c0,.93847.11718,2.13672,1.17285,2.13672,1.00293,0,1.12012-1.14649,1.12012-1.56348H63.12a2.31717,2.31717,0,0,1-2.46289,2.52832c-1.14649,0-2.56641-.33887-2.56641-3.584C58.09068,220.03607,58.48131,218.081,60.68345,218.081Zm7.70362,89.97364c.88379,0,1.31836-.666,1.31836-1.74024v-1.22363a9.61263,9.61263,0,0,1-1.63086.67969,1.20173,1.20173,0,0,0-.59864,1.18261C67.47593,307.56537,67.77476,308.05463,68.38707,308.05463Zm25.01318,36.41992c-1.06055,0-1.251,1.1416-1.251,2.75976,0,1.86231.19043,2.75977,1.251,2.75977,1.07422,0,1.26465-.89746,1.26465-2.75977C94.6649,345.61615,94.47447,344.47455,93.40025,344.47455Zm-41.10156-2.1211h-.99317v3.3584h1.10157a1.46473,1.46473,0,0,0,1.5498-1.67285C53.95689,342.99213,53.536,342.35345,52.29869,342.35345Zm43.37158-34.29882c1.07422,0,1.26465-.89746,1.26465-2.75977,0-1.61816-.19043-2.75976-1.26465-2.75976-1.06055,0-1.251,1.1416-1.251,2.75976C94.41929,307.15717,94.60972,308.05463,95.67027,308.05463ZM61.96861,344.39252c-.93848,0-1.22363.9248-1.22363,1.877v.14941h2.35156v-.39453C63.09654,345.09955,62.79771,344.39252,61.96861,344.39252Zm28.26025-42.5918c0-1.15527-.69336-1.38672-1.56347-1.38672H87.5775v2.92285h1.22363A1.3662,1.3662,0,0,0,90.22886,301.80072Zm.3125,4.26953a1.47759,1.47759,0,0,0-1.52246-1.64551H87.5775v3.3584h1.53711C90.03843,307.78314,90.54136,307.18451,90.54136,306.07025ZM76.83482,344.39252c-.93848,0-1.22363.9248-1.22363,1.877v.14941h2.35156v-.39453C77.96275,345.09955,77.66392,344.39252,76.83482,344.39252Zm35.87647-40.30762c0-.9248-.29883-1.63184-1.12793-1.63184-.93848,0-1.22364.92481-1.22364,1.877v.14941h2.35157Zm-8.22608,44.80762c0,.6123.29883,1.10156.91113,1.10156.88379,0,1.31836-.666,1.31836-1.74023v-1.22364a9.61229,9.61229,0,0,1-1.63086.67969A1.20175,1.20175,0,0,0,104.48521,348.89252Zm11.80469-4.33692c-.84277,0-1.1416.67969-1.1416,2.65137,0,1.65918.21679,2.70605,1.2373,2.70605,1.00586,0,1.23633-1.0332,1.23633-2.59667C117.62193,345.56244,117.41881,344.5556,116.2899,344.5556Zm-2.88526-45.82715-1.4414,1.958h-1.00586l.81641-1.958Zm-5.793.51661v9.707H106.1439v-9.707Zm-28.54786,8.80957c.81543.01367,1.11524-.666,1.11524-1.76758h1.38672c-.09571,1.7539-.69336,2.85547-2.502,2.85547-2.12109,0-2.71875-1.57715-2.71875-3.84766s.59766-3.84766,2.71875-3.84766a2.35591,2.35591,0,0,1,2.51563,2.624H80.1107c0-.67969-.19043-1.56348-1.04688-1.53613-1.06054,0-1.251,1.1416-1.251,2.75976S78.00328,308.05463,79.06382,308.05463ZM63.2855,300.87592l-1.958,8.07617H60.02281l-1.958-8.07617h-.02734v8.07617H56.56871v-9.707h2.41992l1.71387,7.1914h.02636l1.68653-7.1914h2.36523v9.707H63.31285v-8.07617Zm4.42188,3.916,1.1416-.3125c.53027-.14941.85645-.2998.85645-.93848,0-.666-.23047-1.08789-1.00586-1.08789-.97852,0-1.11426.69336-1.11426,1.40039h-1.3877c0-1.5498.63965-2.40625,2.57032-2.40625,1.291,0,2.32421.50293,2.32421,1.79493v4.1875c0,.27148.16309.5166.38086.5166a.60942.60942,0,0,0,.24512-.041v.95215a1.76235,1.76235,0,0,1-.7207.17676c-.65235,0-1.19629-.25879-1.23731-.96582h-.02734a1.90242,1.90242,0,0,1-1.82129,1.07422c-1.16992,0-1.90332-.65235-1.90332-2.05274A2.007,2.007,0,0,1,67.70738,304.79193Zm4.88379-3.1543h1.46875v1.14161h.02637a1.8091,1.8091,0,0,1,1.70019-1.332,1.13065,1.13065,0,0,1,.35352.05469V302.997a2.7683,2.7683,0,0,0-.61231-.08106c-.666,0-1.46777.29883-1.46777,1.65821v4.37793H72.59117Zm13.43652,7.31446v-9.707h3.14063c1.4414,0,2.61035.63867,2.61035,2.35156a2.01722,2.01722,0,0,1-1.42676,2.20312v.02637c1.05957.19043,1.74023.83008,1.74023,2.47461,0,1.61816-1.16992,2.65137-2.99121,2.65137Zm9.64258-7.50489c2.13477,0,2.73242,1.57715,2.73242,3.84766s-.69336,3.84766-2.73242,3.84766c-2.02539,0-2.71875-1.57715-2.71875-3.84766S93.54918,301.4472,95.67027,301.4472ZM52.66588,346.8808H51.30552v4.01074h-1.5498v-9.707H52.829c1.86231,0,2.67774,1.16894,2.67774,2.82812A2.629,2.629,0,0,1,52.66588,346.8808Zm5.332,4.01074H56.53013v-7.31445h1.46778Zm0-8.34766H56.53013v-1.46875h1.46778Zm6.56738,4.88086H60.745v.42188c0,.97851.12207,2.22949,1.22363,2.22949,1.04687,0,1.169-1.19629,1.169-1.63184h1.38671a2.41746,2.41746,0,0,1-2.56933,2.6377c-1.19629,0-2.67871-.35352-2.67871-3.73926,0-1.917.4082-3.95605,2.70605-3.95605,2.03906,0,2.583,1.22363,2.583,3.26269Zm4.76172-2.48828a2.76841,2.76841,0,0,0-.61231-.08105c-.666,0-1.46875.29883-1.46875,1.6582v4.37793H65.77818v-7.31445h1.46777v1.1416h.02735a1.80909,1.80909,0,0,1,1.70019-1.332,1.1303,1.1303,0,0,1,.35352.05469Zm4.28418,0a2.76841,2.76841,0,0,0-.61231-.08105c-.666,0-1.46777.29883-1.46777,1.6582v4.37793H70.06236v-7.31445h1.46875v1.1416h.02637a1.80909,1.80909,0,0,1,1.70019-1.332,1.13036,1.13036,0,0,1,.35352.05469Zm5.82031,2.48828H75.61119v.42188c0,.97851.12207,2.22949,1.22363,2.22949,1.04688,0,1.169-1.19629,1.169-1.63184h1.38671a2.41746,2.41746,0,0,1-2.56933,2.6377c-1.19629,0-2.67871-.35352-2.67871-3.73926,0-1.917.4082-3.95605,2.70605-3.95605,2.03907,0,2.583,1.22363,2.583,3.26269Zm10.54.19043c0,1.75391-.707,3.4668-2.99121,3.4668-2.44727,0-3.208-1.57715-3.208-5.04395s.76074-5.04394,3.22168-5.04394c2.75977,0,2.92285,2.03906,2.92285,3.04492v.17676h-1.5498v-.16309c0-.89746-.27149-1.93066-1.38672-1.88965-1.1416,0-1.6582.707-1.6582,3.834s.5166,3.916,1.6582,3.916c1.292,0,1.4414-1.4414,1.4414-2.33886v-.16309h1.54981Zm3.42871,3.4668c-2.02539,0-2.71875-1.57715-2.71875-3.84766s.59766-3.84765,2.71875-3.84765c2.13477,0,2.73242,1.57715,2.73242,3.84765S95.43931,351.082,93.40025,351.082Zm5.39941-.19043H97.33189v-9.707h1.46777Zm.73389-44.1416v-5.11231h1.46777v5.248c0,.81543.36719,1.08789.99317,1.08789a1.1479,1.1479,0,0,0,1.19629-1.22363v-5.11231h1.46777v7.31446h-1.38672v-.85645h-.04a2.09921,2.09921,0,0,1-1.877,1.04688C100.26793,309.14252,99.53355,308.63959,99.53355,306.74994Zm2.28565,44.1416h-1.46778v-9.707h1.46778Zm6.9082-.09473a1.76235,1.76235,0,0,1-.7207.17676c-.65235,0-1.19629-.25879-1.23731-.96582h-.02734a1.90243,1.90243,0,0,1-1.82129,1.07422c-1.16992,0-1.90332-.65234-1.90332-2.05273a2.007,2.007,0,0,1,1.69922-2.29786l1.1416-.3125c.53027-.14941.85644-.2998.85644-.93847,0-.666-.23047-1.08789-1.00586-1.08789-.97851,0-1.11425.69336-1.11425,1.40039h-1.3877c0-1.54981.63965-2.40625,2.57031-2.40625,1.291,0,2.32422.50293,2.32422,1.79492v4.1875c0,.27148.16309.5166.38086.5166a.60965.60965,0,0,0,.24512-.041ZM111.597,301.4472c2.03906,0,2.583,1.22364,2.583,3.2627v.77539h-3.82032v.42188c0,.97851.12207,2.22949,1.22364,2.22949,1.04687,0,1.16894-1.19629,1.16894-1.63184H114.139a2.41747,2.41747,0,0,1-2.56934,2.6377c-1.19629,0-2.67871-.35352-2.67871-3.73926C108.891,303.48627,109.29918,301.4472,111.597,301.4472Zm1.55127,43.48926a2.76841,2.76841,0,0,0-.61231-.08105c-.666,0-1.46777.29883-1.46777,1.6582v4.37793h-1.46875v-7.31445h1.46875v1.1416h.02637a1.80909,1.80909,0,0,1,1.70019-1.332,1.13036,1.13036,0,0,1,.35352.05469Zm5.86035,5.95508h-1.38672v-.89746h-.02637a1.56361,1.56361,0,0,1-1.60449,1.08789c-1.71289,0-2.39258-1.42773-2.39258-3.94238,0-3.25,1.1416-3.75293,2.25684-3.75293a1.703,1.703,0,0,1,1.6582,1.04687h.02735v-3.249h1.46777ZM55.66881,225.27435H54.0272l-1.877-7.01074H53.662l1.22559,5.52539H54.913l1.10742-5.52539h1.499ZM58.3441,23.00777a.82721.82721,0,0,1,.83008-.83008h0a.83368.83368,0,0,1,.82959.83008h0a.83347.83347,0,0,1-.82959.8291h0A.827.827,0,0,1,58.3441,23.00777Zm-4.91992,0a.8271.8271,0,0,1,.82959-.83008h0a.82547.82547,0,0,1,.82031.83008h0a.82525.82525,0,0,1-.82031.8291h0A.82689.82689,0,0,1,53.42418,23.00777Zm-4.93018,0a.83377.83377,0,0,1,.83008-.83008h0a.82752.82752,0,0,1,.83008.83008h0a.82731.82731,0,0,1-.83008.8291h0A.83357.83357,0,0,1,48.494,23.00777Zm-4.91992,0a.82721.82721,0,0,1,.83008-.83008h0a.8271.8271,0,0,1,.82959.83008h0a.82689.82689,0,0,1-.82959.8291h0A.827.827,0,0,1,43.57408,23.00777Zm-4.91992,0a.8271.8271,0,0,1,.82959-.83008h0a.82751.82751,0,0,1,.83007.83008h0a.8273.8273,0,0,1-.83007.8291h0A.82689.82689,0,0,1,38.65416,23.00777Zm-4.92041,0a.82751.82751,0,0,1,.83007-.83008h0a.81928.81928,0,0,1,.82032.83008h0a.819.819,0,0,1-.82032.8291h0A.8273.8273,0,0,1,33.73375,23.00777Zm-4.91993,0a.82752.82752,0,0,1,.83008-.83008h0a.82506.82506,0,0,1,.81983.83008h0a.82484.82484,0,0,1-.81983.8291h0A.82731.82731,0,0,1,28.81382,23.00777Zm-4.91992,0a.82537.82537,0,0,1,.81983-.83008h0a.82721.82721,0,0,1,.83008.83008h0a.827.827,0,0,1-.83008.8291h0A.82516.82516,0,0,1,23.8939,23.00777Zm-4.93017,0a.82751.82751,0,0,1,.83008-.83008h0a.82751.82751,0,0,1,.83007.83008h0a.8273.8273,0,0,1-.83007.8291h0A.8273.8273,0,0,1,18.96373,23.00777Zm-4.91992,0a.82751.82751,0,0,1,.83007-.83008h0a.82752.82752,0,0,1,.83008.83008h0a.82731.82731,0,0,1-.83008.8291h0A.8273.8273,0,0,1,14.04381,23.00777Zm-4.91993,0a.82752.82752,0,0,1,.83008-.83008h0a.82752.82752,0,0,1,.83008.83008h0a.82731.82731,0,0,1-.83008.8291h0A.82731.82731,0,0,1,9.12388,23.00777Z" style="fill: #e5e5e5"/>
    <path d="M162.534,23.83687a.87669.87669,0,0,1-.32031-.06934.80508.80508,0,0,1-.27-.18066.76066.76066,0,0,1-.17969-.25977.90148.90148,0,0,1-.06006-.31933.8642.8642,0,0,1,.06006-.32031.8019.8019,0,0,1,.17969-.27051.85357.85357,0,0,1,1.17041,0,.8019.8019,0,0,1,.17969.27051.86439.86439,0,0,1,.06.32031.90168.90168,0,0,1-.06.31933.76066.76066,0,0,1-.17969.25977A.79478.79478,0,0,1,162.534,23.83687Z" style="fill: #e5e5e5"/>
  </g>
</svg>
