<svg id="Layer_5" data-name="Layer 5" xmlns="http://www.w3.org/2000/svg" xmlns:xlink="http://www.w3.org/1999/xlink" width="165" height="380" viewBox="0 0 165 380">
  <defs>
    <linearGradient id="linear-gradient" x1="-51.76143" y1="56.32288" x2="215.95509" y2="324.0394" gradientUnits="userSpaceOnUse">
      <stop offset="0.38537" stop-color="#ffcc9e"/>
      <stop offset="0.40948" stop-color="#fdc89a"/>
      <stop offset="0.66891" stop-color="#efa075"/>
      <stop offset="0.8747" stop-color="#e5875e"/>
      <stop offset="1" stop-color="#e27e56"/>
    </linearGradient>
  </defs>
  <title>BranesBG-01</title>
  <rect x="1.69365" y="2.86781" width="160.80636" height="374.62667" style="fill: url(#linear-gradient)"/>
  <g>
    <path d="M55.62988,9.46185a.38647.38647,0,0,0-.24218-.34277H54.32031v.68457H55.3877C55.51953,9.79291,55.62988,9.59369,55.62988,9.46185Z" style="fill: #252626"/>
    <path d="M55.88281,11.68158h-1.5625V13.207h1.5625a.824.824,0,0,0,.8252-.81836C56.708,11.9472,56.334,11.704,55.88281,11.68158Z" style="fill: #252626"/>
    <polygon points="77.407 10.279 77.033 11.428 77.771 11.428 77.407 10.279" style="fill: #252626"/>
    <path d="M0,0V380H165V0ZM109.85547,12.04681a7.52151,7.52151,0,0,1-1.73828-.542,2.1688,2.1688,0,0,1-1.13379-1.95508,2.301,2.301,0,0,1,.40723-1.28125,2.53911,2.53911,0,0,1,1.01269-.81738l-.01172.01074a3.16433,3.16433,0,0,1,1.34278-.29785,3.71907,3.71907,0,0,1,.583.044,4.56337,4.56337,0,0,1,2.25489,1.16015l-1.21,1.458a2.42428,2.42428,0,0,0-1.65039-.77344,1.10574,1.10574,0,0,0-.50586.11035.458.458,0,0,0-.31933.38672c0,.29883.39648.44239,1.03418.57422.0664.02246.14355.02246.2207.04492a5.76941,5.76941,0,0,1,1.48438.47461h-.01075a2.20238,2.20238,0,0,1,1.21,2,2.32775,2.32775,0,0,1-.418,1.38086,2.70842,2.70842,0,0,1-1.04493.83887,2.85069,2.85069,0,0,1-1.38574.29883,3.68026,3.68026,0,0,1-.793-.08887,5.2895,5.2895,0,0,1-2.45312-1.33594L107.98535,12.29a3.24268,3.24268,0,0,0,1.584.92773,1.88268,1.88268,0,0,0,.418.05469,1.29324,1.29324,0,0,0,.57227-.12109.57374.57374,0,0,0,.36231-.50782C110.92188,12.33392,110.35059,12.14642,109.85547,12.04681Zm-2.94141,81.94843,10.69818-10.71515a14.55643,14.55643,0,0,1,10.85358-24.28094c.04,0,.08008,0,.12012.001a.82814.82814,0,0,1-.00684,1.65625.731.731,0,0,0-.11328,0A12.924,12.924,0,1,0,141.3916,73.68469a.82838.82838,0,0,1,.82813-.82129h.00683a.828.828,0,0,1,.82129.835,14.60018,14.60018,0,0,1-14.5791,14.46289c-.04,0-.08008,0-.12012-.001a14.50106,14.50106,0,0,1-9.56634-3.70844L108.08594,95.16516a.828.828,0,1,1-1.17188-1.16992Zm0,49.999a.83109.83109,0,0,1,1.17188,0l10.7182,10.7182a14.46312,14.46312,0,0,1,9.69293-3.71331c.04,0,.08008,0,.12109.001a14.59721,14.59721,0,0,1,14.46192,14.69922.82838.82838,0,0,1-.82813.82129h-.00683a.828.828,0,0,1-.82129-.835,12.94,12.94,0,0,0-12.81934-13.0293h-.10644a12.85656,12.85656,0,0,0-8.51825,3.23175,13.01924,13.01924,0,0,0-1.17322,1.17053,12.91145,12.91145,0,0,0,9.58893,21.44538.82814.82814,0,0,1-.00684,1.65625h-.00683a14.56423,14.56423,0,0,1-10.75061-24.277l-10.71717-10.71716A.82931.82931,0,0,1,106.91406,143.99426ZM103.5,118.75989a.83008.83008,0,1,1-.83008.83008A.82527.82527,0,0,1,103.5,118.75989ZM96.96387,7.23041h5.33593V9.10834H98.87793v.67383h2.99219V11.6933H98.87793v1.50195h3.34473v1.90039H96.96387ZM99.16992,119.59a.82473.82473,0,1,1,.82031.83007A.82609.82609,0,0,1,99.16992,119.59ZM93.08008,239.14954a.8334.8334,0,0,1-.58985.25.82489.82489,0,0,1-.58007-.25.81489.81489,0,0,1,0-1.16993.82726.82726,0,1,1,1.16992,1.16993Zm0,20a.8334.8334,0,0,1-.58985.25.83512.83512,0,0,1-.58007-1.41993.82726.82726,0,1,1,1.16992,1.16993ZM91.91016,129.00989a.82349.82349,0,0,1,1.16992-.00977.8461.8461,0,0,1,0,1.17969.82364.82364,0,0,1-.58985.24023.82519.82519,0,0,1-.58007-1.41015Zm0-20a.81488.81488,0,0,1,1.16992,0,.82523.82523,0,0,1-.58985,1.41015.81445.81445,0,0,1-.58007-.24023A.83226.83226,0,0,1,91.91016,109.00989ZM97.31934,119.59a.82473.82473,0,1,1-.82911-.83008A.82526.82526,0,0,1,97.31934,119.59Zm-.40918-15.58985A.82733.82733,0,1,1,97.5,105.42a.82037.82037,0,0,1-.58984-.24023A.84422.84422,0,0,1,96.91016,104.00012Zm-1.33008,3.67969a.82364.82364,0,0,1-.58985.24023.81445.81445,0,0,1-.58007-.24023.84422.84422,0,0,1,0-1.17969.8323.8323,0,0,1,1.16992,0A.8461.8461,0,0,1,95.58008,107.67981Zm-1.16992,23.82031A.82726.82726,0,0,1,95.58008,132.67a.79487.79487,0,0,1-.58985.25.81445.81445,0,0,1-.58007-.24023A.82647.82647,0,0,1,94.41016,131.50012Zm0,103.97949a.83412.83412,0,0,1,1.16992,0,.8473.8473,0,0,1,0,1.18067.82274.82274,0,0,1-.58985.23926.81349.81349,0,0,1-.58007-.23926A.82764.82764,0,0,1,94.41016,235.47961Zm0,25a.83412.83412,0,0,1,1.16992,0,.8473.8473,0,0,1,0,1.18067.82274.82274,0,0,1-.58985.23926.78248.78248,0,0,1-.58007-.25A.83227.83227,0,0,1,94.41016,260.47961Zm1.25976-11.90918a.82473.82473,0,1,1,.82031.81934A.81689.81689,0,0,1,95.66992,248.57043Zm1.24024-114.57031a.8323.8323,0,0,1,1.16992,0,.81488.81488,0,0,1,0,1.16992.83336.83336,0,0,1-.58985.25.78607.78607,0,0,1-.58007-.25A.83226.83226,0,0,1,96.91016,134.00012ZM85.48047,7.23041h1.749l2.80567,4.18652V7.23041h1.91406v7.86523H90.21094l-2.81641-4.209v4.209H85.48047Zm-8.876,0h1.60645l3.02539,7.86523H79.17871l-.6709-1.79H76.30762l-.69336,1.79H73.58984Zm-3.1582,37.966a.82933.82933,0,0,1-.00977,1.17188A12.90719,12.90719,0,0,0,81.67188,68.462c.241.01519.48028.03906.72363.041.03613.001.07226.001.1084.001.277,0,.55017-.02252.82422-.03974a12.91361,12.91361,0,0,0,8.38378-21.94854.82867.82867,0,1,1,1.18164-1.16211,14.56219,14.56219,0,0,1-9.56542,24.7669V84.5802a.82813.82813,0,1,1-1.65625,0V70.11981a14.56768,14.56768,0,0,1-9.39747-24.93316A.83112.83112,0,0,1,73.44629,45.19641Zm9.04394,221.70313a.82959.82959,0,1,1,.82911-.82911A.82526.82526,0,0,1,82.49023,266.89954Zm.82911,2.67089a.82473.82473,0,1,1-.82911-.83007A.82443.82443,0,0,1,83.31934,269.57043Zm-.82911-6.17089a.82959.82959,0,1,1,.82911-.82911A.83224.83224,0,0,1,82.49023,263.39954Zm0-156.9795a.83008.83008,0,1,1,.82911-.83007A.82609.82609,0,0,1,82.49023,106.42Zm0-3.5a.83008.83008,0,1,1,.82911-.83007A.82609.82609,0,0,1,82.49023,102.92Zm0-3.5a.83011.83011,0,1,1,.82911-.83007A.83243.83243,0,0,1,82.49023,99.42ZM64.16992,119.59a.82473.82473,0,1,1,.82031.83007A.82814.82814,0,0,1,64.16992,119.59Zm5.24024,13.08984a.84422.84422,0,0,1,0-1.17969.83072.83072,0,0,1,1.16992,1.17969.82364.82364,0,0,1-.58985.24023A.81445.81445,0,0,1,69.41016,132.67981Zm1.16992-25a.82364.82364,0,0,1-.58985.24023.81445.81445,0,0,1-.58007-.24023.84422.84422,0,0,1,0-1.17969.83072.83072,0,0,1,1.16992,1.17969ZM69.31934,119.59a.82959.82959,0,1,1-.82911-.83008A.8273.8273,0,0,1,69.31934,119.59ZM68.08008,105.17a.79487.79487,0,0,1-.58985.25.78607.78607,0,0,1-.58007-.25.82726.82726,0,0,1,1.16992-1.16992A.81488.81488,0,0,1,68.08008,105.17Zm-1.16992,28.83008a.8323.8323,0,0,1,1.16992,0,.81488.81488,0,0,1,0,1.16992.78918.78918,0,0,1-.58008.25.835.835,0,0,1-.58984-1.41992Zm0,98.97949a.83107.83107,0,0,1,1.16992,1.18067.83467.83467,0,0,1-1.16992,0A.84543.84543,0,0,1,66.91016,232.97961Zm1.58007,14.76075a.82472.82472,0,1,1-.83007.83007A.8273.8273,0,0,1,68.49023,247.74036Zm.91993,12.73925a.83107.83107,0,1,1,1.16992,1.18067.83467.83467,0,0,1-1.16992,0A.84543.84543,0,0,1,69.41016,260.47961Zm1.16992-23.83007a.7913.7913,0,0,1-.58985.25.81349.81349,0,0,1-.58007-.23926.84543.84543,0,0,1,0-1.18067.83412.83412,0,0,1,1.16992,0A.81487.81487,0,0,1,70.58008,236.64954Zm1.33008-107.63965a.81488.81488,0,0,1,1.16992,0,.8341.8341,0,0,1,0,1.16992.82364.82364,0,0,1-.58985.24023.82519.82519,0,0,1-.58007-1.41015Zm0-20a.81488.81488,0,0,1,1.16992,0,.82523.82523,0,0,1-.58985,1.41015.82519.82519,0,0,1-.58007-1.41015Zm1.16992,130.13965a.8334.8334,0,0,1-.58985.25.82489.82489,0,0,1-.58007-.25.81489.81489,0,0,1,0-1.16993.82726.82726,0,1,1,1.16992,1.16993Zm0,20a.8334.8334,0,0,1-.58985.25.82489.82489,0,0,1-.58007-.25.81489.81489,0,0,1,0-1.16993.82726.82726,0,1,1,1.16992,1.16993ZM63.0752,7.23041h2.87207a2.12845,2.12845,0,0,1,1.50683.6289,2.37752,2.37752,0,0,1,.627,1.60254,2.22474,2.22474,0,0,1-.94628,1.85547l2.84961,3.77832H67.707L65.11035,11.6933h-.17578v3.40234H63.0752ZM61.5,118.75989a.83015.83015,0,0,1,0,1.66015.83008.83008,0,1,1,0-1.66015ZM22.74805,72.64075h.00683a.828.828,0,0,1,.82129.835A12.93921,12.93921,0,0,0,36.39551,86.504H36.502a12.854,12.854,0,0,0,8.51844-3.23157,13.02828,13.02828,0,0,0,1.17315-1.17059,12.91158,12.91158,0,0,0-9.589-21.4455.82814.82814,0,0,1,.00684-1.65625h.00683a14.56423,14.56423,0,0,1,10.75061,24.277L58.08594,93.99426a.82864.82864,0,0,1-1.17188,1.17188L46.1958,84.44788a14.46292,14.46292,0,0,1-9.69287,3.71337c-.04,0-.08008,0-.12109-.001A14.57926,14.57926,0,0,1,21.91992,73.462.82838.82838,0,0,1,22.74805,72.64075Zm8.637,46.11133a12.90116,12.90116,0,0,0-12.78058-12.09571h-.10742a12.83658,12.83658,0,0,0-9.06152,3.71192.82867.82867,0,1,1-1.16211-1.18164,14.48411,14.48411,0,0,1,10.22363-4.1875c.04,0,.08008,0,.12109.001a14.5497,14.5497,0,0,1,14.42347,13.752H47.5a.82813.82813,0,1,1,0,1.65625H33.03961a14.5476,14.5476,0,0,1-14.5357,13.75195h-.12207a14.488,14.488,0,0,1-10.27539-4.35449.82867.82867,0,1,1,1.18164-1.16211,12.83471,12.83471,0,0,0,9.10742,3.85937c.03515.001.07226.001.10742.001a12.89669,12.89669,0,0,0,12.87891-12.0957c.01519-.241.03906-.48029.041-.72364C31.42542,119.37134,31.40448,119.06177,31.38507,118.75208ZM8.26367,257.80188a.82934.82934,0,0,1,1.17188-.00977,12.91029,12.91029,0,0,0,21.94952-8.38378c.01941-.3097.04035-.61927.03778-.93262-.002-.24335-.02582-.48267-.041-.72363a12.89669,12.89669,0,0,0-12.87891-12.09571c-.03613,0-.07129,0-.10742.001a12.83471,12.83471,0,0,0-9.10742,3.85937.82867.82867,0,1,1-1.18164-1.16211,14.488,14.488,0,0,1,10.27539-4.35449h.12207a14.5476,14.5476,0,0,1,14.5357,13.752H47.5a.82813.82813,0,1,1,0,1.65625H33.04163a14.5497,14.5497,0,0,1-14.42347,13.75195c-.04.001-.08105.001-.12109.001a14.48579,14.48579,0,0,1-10.22363-4.1875A.82933.82933,0,0,1,8.26367,257.80188Zm32.57617,78.6004a13.09872,13.09872,0,0,0-1.58776,1.96521l-1.94819,4.974a13.1018,13.1018,0,0,0-.16912,2.52173.82957.82957,0,0,1-.80274.85352h-.02539a.817.817,0,0,1-.68542-.38831H17.50037a.82813.82813,0,1,1,0-1.65625h18.002a14.433,14.433,0,0,1,4.13489-9.40851c.0086-.01044.014-.02411.02289-.03424a1.03,1.03,0,0,1,.20788-.131.80573.80573,0,0,1,.3357-.09766.81615.81615,0,0,1,.10626.0047.83834.83834,0,0,1,.184.03436.79339.79339,0,0,1,.09149.03132.78526.78526,0,0,1,.24457.15832c.01764.01764.02392.041.03961.05963A.82241.82241,0,0,1,40.83984,336.40228Zm2.66016-2.083a.81262.81262,0,0,1-.41992.12012.833.833,0,1,1,.41992-.12012Zm3.10938-1.30957a.86588.86588,0,0,1-.21973.03028.82975.82975,0,1,1,.79-1.04981A.83047.83047,0,0,1,46.60938,333.0097ZM49.9502,332.54h-.01075a.82521.82521,0,0,1-.00976-1.65039A.82527.82527,0,1,1,49.9502,332.54Zm4.3496-.18067a.82245.82245,0,0,1-.7998.62012.70434.70434,0,0,1-.2002-.0293.82616.82616,0,1,1,1-.59082Zm3.25,1.54a.81814.81814,0,0,1-.71972.41992.85122.85122,0,0,1-.41016-.0996.8331.8331,0,1,1,1.12988-.32032Zm.53614-59.73321L47.36877,284.8833a14.56913,14.56913,0,0,1-10.75061,24.277h-.00683a.82814.82814,0,0,1-.00684-1.65625,12.90428,12.90428,0,0,0,9.58875-21.44519A13.01924,13.01924,0,0,0,45.02,284.88837a12.85676,12.85676,0,0,0-8.518-3.232h-.10644a12.94067,12.94067,0,0,0-12.81934,13.0293.828.828,0,0,1-.82129.835h-.00683a.82838.82838,0,0,1-.82813-.82129,14.59782,14.59782,0,0,1,14.46192-14.69922c.04-.001.08105-.001.12109-.001a14.464,14.464,0,0,1,9.69287,3.71337l10.71826-10.71826a.82864.82864,0,1,1,1.17188,1.17188Zm.001-50.001a.82987.82987,0,0,1-1.17187.002L46.13715,213.43018a14.46135,14.46135,0,0,1-9.59906,3.7301c-.041.001-.08106.001-.1211.001a14.5801,14.5801,0,0,1-14.57715-14.46191.828.828,0,0,1,.82129-.835H22.668a.82836.82836,0,0,1,.82812.82129A12.939,12.939,0,0,0,36.418,215.504h.10644a12.85706,12.85706,0,0,0,8.43567-3.24646,13.02862,13.02862,0,0,0,1.16779-1.176,12.902,12.902,0,0,0-9.706-21.42523.54923.54923,0,0,1-.11329,0,.82814.82814,0,0,1-.00683-1.65625c.041-.001.081-.001.12109-.001a14.56281,14.56281,0,0,1,10.88294,24.25592L58.085,222.99329A.8284.8284,0,0,1,58.08691,224.16516Zm-.002-78.998L47.30579,155.90533a14.56834,14.56834,0,0,1-10.88294,24.25592c-.04,0-.08008,0-.12109-.001a.82814.82814,0,0,1,.00683-1.65625.31529.31529,0,0,1,.11329,0,12.92418,12.92418,0,0,0,.10253-25.84766H36.417a12.923,12.923,0,0,0-12.9209,12.81934.82836.82836,0,0,1-.82812.82129h-.00684a.828.828,0,0,1-.82129-.835A14.58009,14.58009,0,0,1,36.417,150.99915c.04,0,.08008,0,.1211.001a14.46135,14.46135,0,0,1,9.59906,3.7301L56.915,143.99329a.82864.82864,0,0,1,1.16992,1.17382ZM57.80762,14.27826a2.73825,2.73825,0,0,1-1.92481.81738H52.42773V7.23041h2.96a2.11284,2.11284,0,0,1,1.51757.64062,2.33831,2.33831,0,0,1,.61621,1.59082,2.74764,2.74764,0,0,1-.10937.79492,1.97978,1.97978,0,0,1,.39288.34052l-.00811-.00946.01074.01172-.00263-.00226a2.44393,2.44393,0,0,1,.79462,1.79132A2.63918,2.63918,0,0,1,57.80762,14.27826ZM61.5,249.39954a.82965.82965,0,1,1,.81934-.82911A.81824.81824,0,0,1,61.5,249.39954Zm3.5,0a.82962.82962,0,1,1,.81934-.82911A.82731.82731,0,0,1,65,249.39954Zm1.91016,14.76074a.84543.84543,0,0,1,0-1.18067.83107.83107,0,1,1,1.16992,1.18067.83467.83467,0,0,1-1.16992,0ZM91.20972,372.79254A3.20747,3.20747,0,0,1,88.00226,376H77.536a3.20742,3.20742,0,0,1-3.2074-3.20746V346.46106a3.20742,3.20742,0,0,1,3.2074-3.20746H88.00226a3.20747,3.20747,0,0,1,3.20746,3.20746Zm1.68383-49.98578a.82867.82867,0,1,1-1.18164-1.16211,12.90914,12.90914,0,0,0-8.38378-21.94848c-.27405-.01721-.54725-.0398-.82422-.0398-.03614,0-.07227,0-.1084.001-.24335.00195-.48267.02582-.72363.041a12.91214,12.91214,0,0,0-8.23536,22.09375.82867.82867,0,0,1-1.16211,1.18164,14.56192,14.56192,0,0,1,9.39747-24.93316V283.5802a.82813.82813,0,0,1,1.65625,0v14.45966a14.56877,14.56877,0,0,1,9.56542,24.7669Zm5.18653-58.64648a.83467.83467,0,0,1-1.16992,0,.84543.84543,0,0,1,0-1.18067.82439.82439,0,0,1,1.16992.01075A.83409.83409,0,0,1,98.08008,264.16028Zm0-30a.8168.8168,0,0,1-.58008.23926.78828.78828,0,0,1-.58984-.25.8273.8273,0,1,1,1.16992.01074Zm1.91015,15.23926a.82959.82959,0,1,1,.82911-.82911A.82526.82526,0,0,1,99.99023,249.39954Zm3.50977,0a.82965.82965,0,1,1,.81934-.82911A.82731.82731,0,0,1,103.5,249.39954Zm-.85059-88.2295a.82842.82842,0,1,1,.81055,1.01954.69706.69706,0,0,1-.20019-.01954A.829.829,0,0,1,102.64941,161.17Zm.19043,2.74024a.83193.83193,0,0,1-.19043,1.63965.60951.60951,0,0,1-.18945-.03028.83007.83007,0,0,1-.62012-1A.8409.8409,0,0,1,102.83984,163.91028ZM99.62012,177.3302a.832.832,0,0,1-.2002,1.63965.61589.61589,0,0,1-.19043-.03027.82805.82805,0,0,1,.39063-1.60938ZM86.5293,232.63a1.37533,1.37533,0,0,1-.19922-.01953.84652.84652,0,1,1,.19922.01953Zm0,2.71973a.84.84,0,0,1-.80957.62988.735.735,0,0,1-.2002-.01953.82853.82853,0,0,1,.39063-1.61035A.83981.83981,0,0,1,86.5293,235.34973Zm.80078-6.06933a.64609.64609,0,0,1-.19043-.03028.81167.81167,0,0,1-.61035-.99023.82363.82363,0,0,1,1-.62012.83247.83247,0,0,1-.19922,1.64063Zm.80957-3.36036a1.26567,1.26567,0,0,1-.2002-.0205.82805.82805,0,0,1,.39063-1.60938.82641.82641,0,0,1-.19043,1.62988Zm.81055-3.34961a1.37813,1.37813,0,0,1-.2002-.0205.83291.83291,0,0,1-.61035-1,.82728.82728,0,0,1,1.61035.37988A.8312.8312,0,0,1,88.9502,222.57043Zm.7998-3.35058a.61584.61584,0,0,1-.19043-.03027.78621.78621,0,1,1,.19043.03027Zm.80957-3.35938a1.40632,1.40632,0,0,1-.20019-.0205.82853.82853,0,0,1,.39062-1.61036.827.827,0,0,1-.19043,1.63086Zm.79981-3.35058a.60952.60952,0,0,1-.18946-.03028.8167.8167,0,0,1-.61035-1,.82855.82855,0,1,1,.79981,1.03028Zm1-4.99024a.82629.82629,0,0,1-.18946,1.62989,1.25877,1.25877,0,0,1-.19043-.01954.8273.8273,0,1,1,.37989-1.61035Zm.62011-1.71972a.68233.68233,0,0,1-.20019-.03028.81738.81738,0,0,1-.60938-.98925.82681.82681,0,1,1,.80957,1.01953Zm.79981-3.36035a.62574.62574,0,0,1-.18946-.01954.82728.82728,0,0,1,.37989-1.61035.83569.83569,0,0,1,.62011,1A.82372.82372,0,0,1,93.7793,202.43958Zm1.81054-8.33985a.83247.83247,0,0,1-.20019,1.64063.63973.63973,0,0,1-.18945-.03028.82841.82841,0,1,1,.38964-1.61035Zm-.81054,3.36035a.81054.81054,0,0,1,.61035.99024.82949.82949,0,0,1-.79981.63965,1.38871,1.38871,0,0,1-.20019-.01954.8428.8428,0,0,1-.61035-1A.82578.82578,0,0,1,94.7793,197.46008ZM96.2002,192.38a1.24586,1.24586,0,0,1-.19043-.01953.84044.84044,0,0,1-.62012-1,.83128.83128,0,0,1,1.00976-.61035A.82759.82759,0,0,1,96.2002,192.38ZM97,189.0304a.69967.69967,0,0,1-.19043-.03028.82381.82381,0,0,1-.60937-1A.828.828,0,1,1,97,189.0304Zm-32.24023,5.18945a1.39011,1.39011,0,0,1-.2002-.01953.83353.83353,0,0,1-.60937-1,.82793.82793,0,1,1,1.60937.38965A.83129.83129,0,0,1,64.75977,194.21985ZM64.75,196.93958a.81235.81235,0,0,1-.7998.63085.69492.69492,0,0,1-.2002-.0205.82841.82841,0,0,1,.38965-1.61035A.822.822,0,0,1,64.75,196.93958Zm.80957-10.44922a.82579.82579,0,0,1,1-.61036.82629.82629,0,0,1-.18945,1.62989,1.25977,1.25977,0,0,1-.19043-.01953A.82817.82817,0,0,1,65.55957,186.49036Zm3.23047-9.04a1.391,1.391,0,0,1-.2002-.02051.8418.8418,0,1,1,.2002.02051Zm0,2.71972a.83354.83354,0,0,1-.81055.62989,1.24719,1.24719,0,0,1-.18945-.01953.82729.82729,0,0,1,.37988-1.61036A.83007.83007,0,0,1,68.79,180.17Zm.7998-6.07031a.6443.6443,0,0,1-.19043-.0293.82853.82853,0,0,1,.39063-1.61035.832.832,0,0,1-.2002,1.63965Zm-2.21972,8.41992a.8326.8326,0,0,1-.2002,1.64063.64581.64581,0,0,1-.19043-.03028.81538.81538,0,0,1-.60937-1A.83622.83622,0,0,1,67.37012,182.51965Zm3.02929-11.77929a1.53416,1.53416,0,0,1-.19921-.02051.841.841,0,0,1-.61036-1,.82854.82854,0,1,1,.80957,1.02051Zm.81055-3.35059a.70965.70965,0,0,1-.20019-.0293.80123.80123,0,1,1,.20019.0293Zm.99024-4.99023a.817.817,0,0,1,.60937,1,.80449.80449,0,0,1-.7998.63086,1.27548,1.27548,0,0,1-.19043-.02051.8274.8274,0,0,1,.38086-1.61035Zm.61914-1.71973a.67148.67148,0,0,1-.19922-.03027.81726.81726,0,0,1-.61035-.98926.83919.83919,0,0,1,1-.62012.83193.83193,0,0,1-.19043,1.63965Zm.80078-3.35938a.60368.60368,0,0,1-.19043-.0205.82157.82157,0,0,1-.61035-1,.82842.82842,0,1,1,.80078,1.0205Zm.80957-3.35058a.60985.60985,0,0,1-.18946-.03027.82211.82211,0,1,1,.37989-1.59961.81063.81063,0,0,1,.60937.99023A.82948.82948,0,0,1,74.42969,153.96985Zm.81054-3.35938A.66256.66256,0,0,1,75.04,150.59a.82842.82842,0,0,1,.38965-1.61036.83416.83416,0,0,1,.61035,1A.82123.82123,0,0,1,75.24023,150.61047Zm.79981-3.35058a1.2599,1.2599,0,0,1-.19043-.01953.82517.82517,0,0,1-.60938-1,.816.816,0,0,1,1-.61036.82643.82643,0,0,1-.20019,1.62989Zm.80957-3.34961a.71092.71092,0,0,1-.2002-.03028.79713.79713,0,1,1,.2002.03028Zm.7998-3.36035a.626.626,0,0,1-.18945-.01953.82949.82949,0,0,1-.61035-1,.81642.81642,0,0,1,1-.61036.82631.82631,0,0,1-.2002,1.62989Zm.81055-3.34961a1.26063,1.26063,0,0,1-.19043-.02051.832.832,0,1,1,.37988-1.62012.83251.83251,0,0,1-.18945,1.64063Zm.80957-3.36035a.70041.70041,0,0,1-.20019-.01954.84637.84637,0,1,1,.20019.01954ZM59.91992,209.96985a.82681.82681,0,0,1,1.60938.37988.83039.83039,0,0,1-.79981.64063,1.4065,1.4065,0,0,1-.20019-.02051A.825.825,0,0,1,59.91992,209.96985Zm2.41992-2.96973a.8324.8324,0,0,1-.81054.63965.63829.63829,0,0,1-.18946-.0293.82841.82841,0,1,1,.38965-1.61035A.84152.84152,0,0,1,62.33984,207.00012Zm.79981-3.35058a.82042.82042,0,0,1-.79981.63086.66539.66539,0,0,1-.20019-.02051.82841.82841,0,1,1,1-.61035Zm.81055-3.35938a.83142.83142,0,0,1-.80079.63965.62641.62641,0,0,1-.19921-.03027.82794.82794,0,1,1,.38964-1.60938A.834.834,0,0,1,63.9502,200.29016Zm2.40918-10.06055a.81237.81237,0,0,1-.79981.63086.59766.59766,0,0,1-.18945-.0205.82729.82729,0,1,1,.98926-.61036Zm32.26074-5.18945a.82535.82535,0,0,1-.81055.62988.6284.6284,0,0,1-.18945-.0205.82794.82794,0,1,1,1-.60938Zm0-2.71973a.76721.76721,0,0,1-.2002-.03027.819.819,0,0,1-.61035-.99023.84044.84044,0,0,1,1-.62012.8325.8325,0,0,1-.18945,1.64062Zm2.41992-7.34082a.84541.84541,0,0,1-.81055.63086,1.24919,1.24919,0,0,1-.18945-.0205.82533.82533,0,0,1-.61035-1,.81125.81125,0,0,1,.99023-.61036A.831.831,0,0,1,101.04,174.97961Zm.7998-3.35937a.82947.82947,0,0,1-.7998.63965.67763.67763,0,0,1-.2002-.03028.82793.82793,0,1,1,.38965-1.60937A.83244.83244,0,0,1,101.83984,171.62024Zm.80957-3.35059a.82343.82343,0,0,1-.80957.62989,1.25877,1.25877,0,0,1-.19043-.01954.82853.82853,0,1,1,1-.61035Zm2.41016-10.05957a.81469.81469,0,0,1-.7998.62989.6201.6201,0,0,1-.19043-.03028.82331.82331,0,1,1,.99023-.59961Zm1.85449,64.78418,10.71717-10.71716a14.56913,14.56913,0,0,1,10.75061-24.277.80479.80479,0,0,1,.835.82129.828.828,0,0,1-.82129.835,12.90428,12.90428,0,0,0-9.58875,21.44519A13.01793,13.01793,0,0,0,119.98,212.272a12.85676,12.85676,0,0,0,8.518,3.232h.10644a12.93921,12.93921,0,0,0,12.81934-13.02832.828.828,0,0,1,.82129-.835h.00683a.82838.82838,0,0,1,.82813.82129,14.57926,14.57926,0,0,1-14.46192,14.69824c-.041.001-.081.001-.12109.001a14.464,14.464,0,0,1-9.69281-3.71344l-10.71832,10.71833a.82864.82864,0,0,1-1.17188-1.17188Zm1.666,134.90509a.81968.81968,0,0,1-.7207.41992.76321.76321,0,0,1-.40918-.10937.82158.82158,0,0,1-.31055-1.12988.84144.84144,0,0,1,1.12988-.31055A.83262.83262,0,0,1,108.58008,357.89935Zm3.41015,1.14063a.83079.83079,0,0,1-.80078.62988.74767.74767,0,0,1-.21-.03027.82569.82569,0,1,1,1.01074-.59961Zm-5.07617-84.87482a.828.828,0,1,1,1.17188-1.16992l10.69635,10.71332a14.50106,14.50106,0,0,1,9.56634-3.70844c.04-.001.08008-.001.12012-.001a14.59828,14.59828,0,0,1,14.5791,14.46289.828.828,0,0,1-.82129.835h-.00683a.82838.82838,0,0,1-.82813-.82129,12.9407,12.9407,0,0,0-12.92285-12.81934h-.10645a12.8555,12.8555,0,0,0-8.41046,3.22357,13.02232,13.02232,0,0,0-1.16906,1.17273,12.90882,12.90882,0,0,0,9.68206,21.45136c.03809,0,.07129.001.11426,0a.82814.82814,0,0,1,.00684,1.65625c-.041.001-.08106.001-.1211.001a14.55643,14.55643,0,0,1-10.8526-24.28094Zm7.84571,85.93439H114.75a.82521.82521,0,1,1,.00977,0Zm3.75976-.51953a.77271.77271,0,0,1-.21.02929.83128.83128,0,0,1-.22949-1.62988.83268.83268,0,0,1,1.01953.58008A.81743.81743,0,0,1,118.51953,359.58Zm3.50977-1.48047a.79853.79853,0,0,1-.41992.11035.82684.82684,0,0,1-.41993-1.54.82906.82906,0,0,1,.83985,1.42969Zm25.41638-11.77112h-18.257a14.43306,14.43306,0,0,1-4.1471,9.413c-.00469.00556-.0075.01288-.01226.01831a.89187.89187,0,0,1-.25946.16846.81346.81346,0,0,1-.20044.04572.36873.36873,0,0,1-.28443-.005.81571.81571,0,0,1-.15533-.03125.89875.89875,0,0,1-.28-.178.98594.98594,0,0,1-.13306-.211.80438.80438,0,0,1-.0794-.25232.68708.68708,0,0,1-.02777-.12653.70859.70859,0,0,1,.03344-.15234.80707.80707,0,0,1,.036-.164l.00086-.004a.78391.78391,0,0,1,.16992-.25977l.00238-.00158a13.0984,13.0984,0,0,0,1.58728-1.9643l1.94769-4.97272a13.11186,13.11186,0,0,0,.16968-2.52233.829.829,0,0,1,.80274-.85352.77718.77718,0,0,1,.7268.39685h18.3595a.82813.82813,0,0,1,0,1.65625Zm9.44787-87.52264a14.488,14.488,0,0,1-10.27539,4.35449h-.12207a14.5476,14.5476,0,0,1-14.5357-13.75195H117.5a.82813.82813,0,0,1,0-1.65625h14.45837a14.5497,14.5497,0,0,1,14.42347-13.752c.04-.001.081-.001.12109-.001a14.48579,14.48579,0,0,1,10.22363,4.1875.82867.82867,0,1,1-1.16211,1.18164,12.91029,12.91029,0,0,0-21.94952,8.38379c-.01941.30969-.04035.61926-.03778.93261.002.24335.02582.48267.041.72364a12.89669,12.89669,0,0,0,12.87891,12.0957c.03613,0,.07129,0,.10742-.001a12.83471,12.83471,0,0,0,9.10742-3.85937.82867.82867,0,1,1,1.18164,1.16211Zm-.00976-148.2793a.82935.82935,0,0,1-1.17188-.00977,12.83471,12.83471,0,0,0-9.10742-3.85937c-.03515-.001-.07226-.001-.10742-.001a12.89669,12.89669,0,0,0-12.87891,12.09571c-.01519.241-.03906.48028-.041.72363-.00257.31335.01837.62292.03778.93262a12.90116,12.90116,0,0,0,12.78058,12.0957h.10742a12.83658,12.83658,0,0,0,9.06152-3.71192.82867.82867,0,1,1,1.16211,1.18164,14.48411,14.48411,0,0,1-10.22363,4.1875c-.04,0-.08008,0-.12109-.001a14.5497,14.5497,0,0,1-14.42347-13.75195H117.5a.82813.82813,0,0,1,0-1.65625h14.46039a14.56768,14.56768,0,0,1,24.93316-9.39747A.82933.82933,0,0,1,156.88379,110.52649Z" style="fill: #252626"/>
    <path d="M66.21094,9.46185c0-.15527-.11035-.35351-.26367-.35351h-1.0127v.707h1.0127C66.10059,9.81537,66.21094,9.61615,66.21094,9.46185Z" style="fill: #252626"/>
    <path d="M87.43567,360.4787a5.70878,5.70878,0,0,1-.46924.78009,1.47311,1.47311,0,0,1-.396.4024,1.30853,1.30853,0,0,1-.2257.08515,1.79186,1.79186,0,0,1-.30481.05493q-.17661.01832-.42652.03046-.24984.01236-.60345.0122-.4022,0-.66443-.02435a3.34179,3.34179,0,0,1-.42041-.06079,1.05347,1.05347,0,0,1-.24988-.08539.43831.43831,0,0,1-.14032-.1098.84605.84605,0,0,1-.18884-.46924,6.04673,6.04673,0,0,1-.04273-.79864v-.80451c.0019-.11145.00519-.21.00989-.29443a1.92277,1.92277,0,0,1,.06684-.42047,2.123,2.123,0,0,1,.17083-.41455c.01825-.035.03894-.07276.06073-.11237.02936-.001.05982-.0014.09388-.0014h.70715q.35329,0,.579.0122a1.77586,1.77586,0,0,1,.35968.04853.42982.42982,0,0,1,.26208.17083.87009.87009,0,0,1,.11591.29254l.10956.47535a.18507.18507,0,0,0,.16449.05493.17533.17533,0,0,0,.15246-.06714q0-.20727-.02441-.52411-.02463-.31715-.02435-.64618,0-.3533.02435-.68249.02434-.32941.02441-.54877a.177.177,0,0,0-.15246-.06708.18622.18622,0,0,0-.16449.05487l-.09735.5a.762.762,0,0,1-.11591.31085.38642.38642,0,0,1-.1767.11567,1.71883,1.71883,0,0,1-.37793.05493q-.26852.0183-.65832.01825h-.5509l.0122-.02014.76789-1.32868q.23116-.39029.42065-.7254a6.57312,6.57312,0,0,1,.37164-.59125,2.10216,2.10216,0,0,1,.378-.41431,1.00606,1.00606,0,0,1,.08307-.06012,1.00581,1.00581,0,0,1,.218.11689.99394.99394,0,0,1,.24988.256,1.3807,1.3807,0,0,1,.15857.32892q.06051.183.134.40234a.16528.16528,0,0,0,.15857.04883.18121.18121,0,0,0,.14618-.07324q-.02463-.19493-.04248-.44483-.01858-.24984-.04291-.48755c-.01618-.15857-.03754-.3-.05469-.42675a3.82847,3.82847,0,0,1-.03284-.58112,3.20992,3.20992,0,0,0-1.46752-2.67841,4.20875,4.20875,0,0,0-1.46143-.55255,10.53476,10.53476,0,0,0-1.96045-.16046q-1.12308,0-1.96942.02673-.84667.02675-1.55969.11591a.22337.22337,0,0,0-.11573.20483.29681.29681,0,0,0,.08027.24073l.64147.07129a1.56961,1.56961,0,0,1,.47248.1159.4993.4993,0,0,1,.24939.294,1.94253,1.94253,0,0,1,.09808.57037q.01758.3565.01782.9267v6.57684q0,.69471-.01782,1.11371a1.77421,1.77421,0,0,1-.12482.65064.60506.60506,0,0,1-.32074.32067,2.52245,2.52245,0,0,1-.60595.14264l-.37445.05353a.27659.27659,0,0,0-.07325.22168c-.00042.1908-.00256.25128-.00653.46619q-.0064.36923-.03357.82538c.01807.04486.06922.07159.15436.08074a.19329.19329,0,0,0,.1814-.05371l.0401-.282a1.90518,1.90518,0,0,1,.10742-.45612.456.456,0,0,1,.2417-.24163,1.33242,1.33242,0,0,1,.48987-.0943q.3153-.013.839-.01313h1.69116a.841.841,0,0,1,.168.01313.12056.12056,0,0,1,.087.07416.56778.56778,0,0,1,.03376.18768c.00427.08514.00659.20337.00659.35565a1.40228,1.40228,0,0,1-.10065.60413.90113.90113,0,0,1-.32892.34912q-.22842.16122-.50329.33551-.27549.17422-.55042.34887-.2752.1746-.53021.33576-.25516.16086-.44293.29516a7.45018,7.45018,0,0,0-.83905.678,2.97116,2.97116,0,0,0-.5166.63746,2.23461,2.23461,0,0,0-.26185.67779,3.88616,3.88616,0,0,0-.07366.78528,1.97928,1.97928,0,0,0,.06689.59051.10912.10912,0,0,0,.18817-.01336,1.76434,1.76434,0,0,1,.12738-.50983,1.56342,1.56342,0,0,1,.24848-.4162,5.1874,5.1874,0,0,1,.63745-.6579q.35541-.30863.78528-.63086.42928-.322.96636-.66418.53669-.34249,1.18128-.74518a.84112.84112,0,0,1,.16779-.08728.1466.1466,0,0,1,.15435.0202,2.74839,2.74839,0,0,0,.2818.54358,2.904,2.904,0,0,0,.46314.54389,2.40965,2.40965,0,0,0,.64422.42273,2.04376,2.04376,0,0,0,.85236.16778,2.01064,2.01064,0,0,0,1.168-.31555,2.21779,2.21779,0,0,0,.71136-.79864,2.959,2.959,0,0,0,.32892-1.0401,9.07625,9.07625,0,0,0,.07367-1.20166,5.06237,5.06237,0,0,1,.137-1.27539q.0792-.21964.15839-.46924.0792-.24995.14636-.4878.06693-.23757.1037-.39624a.19.19,0,0,0-.14026-.10962A.18486.18486,0,0,0,87.43567,360.4787Zm-5.1344-.069q0,.48778-.01215.78009a1.287,1.287,0,0,1-.08545.457.48335.48335,0,0,1-.0617.10443l-.00165.00092a2.282,2.282,0,0,1-.35822-.09455.59614.59614,0,0,1-.34747-.32067,1.88038,1.88038,0,0,1-.13373-.65064q-.02673-.41839-.02673-1.11371v-2.5379l.63721,1.24164q.13376.25615.21325.43286a1.90074,1.90074,0,0,1,.11567.32916,2.00424,2.00424,0,0,1,.04882.32306q.01191.17075.01215.42657Zm.03662-3.36444q-.3414-.695-.68274-1.37763c-.01642-.03241-.04455-.0932-.08514-.1828q-.06126-.13376-.12812-.28643c-.0448-.10163-.08349-.1969-.1159-.2865a.66624.66624,0,0,1-.04859-.18274c0-.04883.03217-.08728.09742-.11591a2.4197,2.4197,0,0,1,.41455-.10351l.15838-.02436a.21359.21359,0,0,0,.05487-.17083.13.13,0,0,0-.09124-.134q-.25974.02041-.63721.02936v-2.58642a2.508,2.508,0,0,1,.01782-.33881.29286.29286,0,0,1,.107-.19592.53843.53843,0,0,1,.285-.08912q.196-.01765.55255-.01782a2.80549,2.80549,0,0,1,2.12982.77515,2.88441,2.88441,0,0,1,.73975,2.0766c0,.08215-.01709.25928-.02789.3808-.0683-.00092-.13654-.0019-.20484-.0033q-.28052-.006-.60956-.03052a.15288.15288,0,0,0-.07928.14008.20336.20336,0,0,0,.05518.16473l.21911.02436a1.54935,1.54935,0,0,1,.36572.0791q.14649.05493.14643.1159a.70338.70338,0,0,1-.07318.22547q-.07324.1647-.195.396-.12213.23192-.26208.49384-.14044.2622-.26233.49365-.28043.53668-.57294,1.05438-.29243.51839-.57269,1.0058Q82.67879,357.74015,82.33789,357.04529Zm4.27759,7.06109a1.82131,1.82131,0,0,1-1.1004,1.03443,2.30538,2.30538,0,0,1-.75782.12506,2.27756,2.27756,0,0,1-1.04754-.19757,1.82214,1.82214,0,0,1-.58631-.46124,1.41908,1.41908,0,0,1-.28344-.6457,4.31139,4.31139,0,0,1-.05933-.71154q0-.50117.01971-.6919a.53381.53381,0,0,1,.04621-.21753,1.195,1.195,0,0,1,.43475-.03943h3.0838a.99743.99743,0,0,1,.21747.01972.19625.19625,0,0,1,.13165.10535.67161.67161,0,0,1,.05933.25689q.01309.17139.01343.47443A2.38184,2.38184,0,0,1,86.61548,364.10638Z" style="fill: #252626"/>
  </g>
  <g>
    <g>
      <circle cx="23" cy="7" r="5.73633" style="fill: #bcbcbc"/>
      <path d="M23.00005,1.52746A5.47253,5.47253,0,1,1,17.52752,7a5.47873,5.47873,0,0,1,5.47253-5.47253m0-.52747a6,6,0,1,0,6,6,6,6,0,0,0-6-6Z" style="fill: gray"/>
    </g>
    <polygon points="26.495 6.341 23.659 6.341 23.659 3.505 22.341 3.505 22.341 6.341 19.506 6.341 19.506 7.659 22.341 7.659 22.341 10.494 23.659 10.494 23.659 7.659 26.495 7.659 26.495 6.341" style="fill: #6e6e6e"/>
  </g>
  <g>
    <g>
      <circle cx="142" cy="7" r="5.73633" style="fill: #bcbcbc"/>
      <path d="M142,1.52746A5.47253,5.47253,0,1,1,136.52751,7,5.47873,5.47873,0,0,1,142,1.52746M142,1a6,6,0,1,0,6,6,6,6,0,0,0-6-6Z" style="fill: gray"/>
    </g>
    <polygon points="145.495 6.341 142.659 6.341 142.659 3.505 141.341 3.505 141.341 6.341 138.506 6.341 138.506 7.659 141.341 7.659 141.341 10.494 142.659 10.494 142.659 7.659 145.495 7.659 145.495 6.341" style="fill: #6e6e6e"/>
  </g>
  <g>
    <g>
      <circle cx="23" cy="373" r="5.73633" style="fill: #bcbcbc"/>
      <path d="M23.00005,367.52747A5.47253,5.47253,0,1,1,17.52752,373a5.47874,5.47874,0,0,1,5.47253-5.47253m0-.52747a6,6,0,1,0,6,6,6,6,0,0,0-6-6Z" style="fill: gray"/>
    </g>
    <polygon points="26.495 372.341 23.659 372.341 23.659 369.505 22.341 369.505 22.341 372.341 19.506 372.341 19.506 373.659 22.341 373.659 22.341 376.494 23.659 376.494 23.659 373.659 26.495 373.659 26.495 372.341" style="fill: #6e6e6e"/>
  </g>
  <g>
    <g>
      <circle cx="142" cy="373" r="5.73633" style="fill: #bcbcbc"/>
      <path d="M142,367.52747A5.47253,5.47253,0,1,1,136.52751,373,5.47874,5.47874,0,0,1,142,367.52747M142,367a6,6,0,1,0,6,6,6,6,0,0,0-6-6Z" style="fill: gray"/>
    </g>
    <polygon points="145.495 372.341 142.659 372.341 142.659 369.505 141.341 369.505 141.341 372.341 138.506 372.341 138.506 373.659 141.341 373.659 141.341 376.494 142.659 376.494 142.659 373.659 145.495 373.659 145.495 372.341" style="fill: #6e6e6e"/>
  </g>
  <g>
    <path d="M89.04981,44.42985a.81741.81741,0,0,1-.29-1.12989h0a.82939.82939,0,0,1,1.12988-.29h0a.81094.81094,0,0,1,.29,1.12989h0a.82719.82719,0,0,1-.71.41015h0A.81276.81276,0,0,1,89.04981,44.42985ZM75,44.01969a.82994.82994,0,0,1,.30957-1.12988h0a.82134.82134,0,0,1,1.12988.31054h0a.8238.8238,0,0,1-.30957,1.12989h0a.877.877,0,0,1-.41015.10937h0A.817.817,0,0,1,75,44.01969Zm10.95019-.89942a.81741.81741,0,0,1-.58007-1.0205h0a.83266.83266,0,0,1,1.01953-.58008h0a.8325.8325,0,0,1,.58008,1.02051h0a.84285.84285,0,0,1-.80957.60937h0A.77241.77241,0,0,1,85.9502,43.12027ZM78.25,42.46988a.82316.82316,0,0,1,.58984-1.00976h0a.82944.82944,0,0,1,1.00977.59961h0a.81969.81969,0,0,1-.58984,1h0v.01074h0a1.52555,1.52555,0,0,1-.21.01953h0A.82246.82246,0,0,1,78.25,42.46988Zm4.35937.19043a.85062.85062,0,0,1-.83007-.83984h0a.82957.82957,0,0,1,.84082-.82031h0a.83224.83224,0,0,1,.81933.83008h0a.8344.8344,0,0,1-.83008.83007Z" style="fill: #e5e5e5"/>
    <path d="M140.9795,70.33024h0a.82746.82746,0,0,1,.58985-1.00977h0a.82523.82523,0,0,1,1.01074.59961h0a.82792.82792,0,0,1-.58985,1.00977h0a.7375.7375,0,0,1-.21093.0205h0A.8216.8216,0,0,1,140.9795,70.33024ZM139.71,67.21012a.839.839,0,0,1,.30957-1.12988h0a.821.821,0,0,1,1.12988.30957h0a.8225.8225,0,0,1-.30957,1.12988h0a.86.86,0,0,1-.40039.11035h0A.84715.84715,0,0,1,139.71,67.21012Zm-2.03027-2.69043a.83518.83518,0,0,1,.00976-1.17969h0a.82341.82341,0,0,1,1.16992.00977h0a.82341.82341,0,0,1-.00976,1.16992h0a.81778.81778,0,0,1-.58008.24023h0A.84018.84018,0,0,1,137.6797,64.51969Zm-2.66016-2.08008a.829.829,0,0,1-.29-1.12988h0a.8238.8238,0,0,1,1.12988-.29981h0a.83238.83238,0,0,1,.30079,1.13965h0a.84491.84491,0,0,1-.72071.40039h0A.80083.80083,0,0,1,135.01954,62.43961Zm-3.09961-1.31934h0a.83248.83248,0,0,1-.58008-1.0205h0a.83267.83267,0,0,1,1.01953-.58008h0a.83693.83693,0,0,1,.58008,1.02051h0a.82963.82963,0,0,1-.7998.60937h0A.84926.84926,0,0,1,131.91993,61.12027Z" style="fill: #1f86cc"/>
    <path d="M157.93946,127.26969a.8372.8372,0,0,1-.2998-1.13965h.00976a.8294.8294,0,0,1,1.12989-.29h0a.82767.82767,0,0,1,.29,1.12988h0a.826.826,0,0,1-.71.41016h0A.8749.8749,0,0,1,157.93946,127.26969Zm1.60059-3.22949a.81743.81743,0,0,1-.58008-1.02051h0v.01074h0a.8196.8196,0,0,1,1.01953-.58008h0a.82123.82123,0,0,1,.58008,1.00977v.00976a.842.842,0,0,1-.7998.60059h0A.79121.79121,0,0,1,159.54005,124.0402Zm.70019-3.52051a.83385.83385,0,0,1-.82031-.83984h0a.83377.83377,0,0,1,.83985-.81934h0a.83448.83448,0,0,1,.82031.83984h0a.8394.8394,0,0,1-.83008.81934h-.00977Zm-1.23046-4.18945a.81892.81892,0,0,1,.5996-1h0a.81223.81223,0,0,1,1,.58984h0a.82229.82229,0,0,1-.58984,1.00977h0a.73805.73805,0,0,1-.21.03027h0A.82884.82884,0,0,1,159.00978,116.33024ZM157.75,113.21012a.82334.82334,0,0,1,.30957-1.12988h0a.82333.82333,0,0,1,1.12988.30957h0a.83815.83815,0,0,1-.30957,1.12988h0a.86679.86679,0,0,1-.41015.11035h0A.819.819,0,0,1,157.75,113.21012Z" style="fill: #ff4257"/>
    <path d="M131.14942,179.09977A.83821.83821,0,0,1,131.75,178.09h0a.83441.83441,0,0,1,1.00977.59961h0a.84283.84283,0,0,1-.59961,1.01074h0a1.5525,1.5525,0,0,1-.2002.01953h0A.833.833,0,0,1,131.14942,179.09977Zm3.41016-1.14942a.82076.82076,0,0,1,.31055-1.12011h0A.8215.8215,0,0,1,136,177.13981h0a.82365.82365,0,0,1-.31055,1.12988h0a.85229.85229,0,0,1-.41015.10058h0A.82125.82125,0,0,1,134.55958,177.95035Zm3-1.99023a.8243.8243,0,0,1,0-1.16992h0a.82341.82341,0,0,1,1.16992.00976h0a.81488.81488,0,0,1-.00976,1.16992h0a.79577.79577,0,0,1-.57032.24024h0A.7949.7949,0,0,1,137.55958,175.96012Zm2.37012-2.69043a.829.829,0,0,1-.29-1.12988h0a.8238.8238,0,0,1,1.12988-.29981h0a.83348.83348,0,0,1,.29981,1.13965h0a.83031.83031,0,0,1-.71973.40039h0A.80083.80083,0,0,1,139.9297,173.26969Zm1.61035-3.21973a.82425.82425,0,0,1-.58008-1.01953h0a.83191.83191,0,0,1,1.01953-.58008h0a.83634.83634,0,0,1,.58008,1.01953h0a.8392.8392,0,0,1-.7998.61036h0A.75633.75633,0,0,1,141.54005,170.05Z" style="fill: #e57fc6"/>
    <path d="M32.51954,179.63981a.83069.83069,0,0,1-.56934-1.01954h0a.81918.81918,0,0,1,1.01954-.58007h0a.81851.81851,0,0,1,.57031,1.01953h0a.82627.82627,0,0,1-.79981.60058h0A1.85712,1.85712,0,0,1,32.51954,179.63981Zm-3.5-1.49024a.83822.83822,0,0,1-.29-1.13965h0a.8294.8294,0,0,1,1.12988-.29h0a.82327.82327,0,0,1,.30079,1.12989h0a.833.833,0,0,1-.72071.41015h0A.80083.80083,0,0,1,29.01954,178.14957Zm-3-2.33984a.85552.85552,0,0,1,.00977-1.17969h0a.84634.84634,0,0,1,1.18066.00977h0a.84734.84734,0,0,1-.00977,1.18066h0a.88068.88068,0,0,1-.59082.22949h0A.85741.85741,0,0,1,26.01954,175.80973Zm-2.29-3.04h0a.83584.83584,0,0,1,.32031-1.12988h0a.821.821,0,0,1,1.12012.31054h0a.82159.82159,0,0,1-.31055,1.12989h0a.86649.86649,0,0,1-.39941.10937h0A.84662.84662,0,0,1,23.7295,172.76969Zm-1.42969-3.5293h0a.835.835,0,0,1,.59961-1.01074h0a.83558.83558,0,0,1,1.01075.60059h0a.8429.8429,0,0,1-.60059,1.00976h0a1.52971,1.52971,0,0,1-.2002.02051h0A.84312.84312,0,0,1,22.29981,169.24039Z" style="fill: #e57fc6"/>
    <path d="M23.01954,70.70035a.82886.82886,0,0,1-.58008-1.0205h0A.81855.81855,0,0,1,23.46,69.11051h0A.82739.82739,0,0,1,24.04005,70.13h0a.8254.8254,0,0,1-.79981.59961h0A.59919.59919,0,0,1,23.01954,70.70035Zm1.2002-3.37988a.84187.84187,0,0,1-.29-1.14062h0a.82938.82938,0,0,1,1.12988-.29h0a.82211.82211,0,0,1,.2998,1.12988h0a.81894.81894,0,0,1-.71972.41016h0A.94711.94711,0,0,1,24.21974,67.32047Zm2.04-2.96a.83437.83437,0,0,1,.00976-1.1709h0a.83815.83815,0,0,1,1.18066,0h0a.84642.84642,0,0,1-.01074,1.18066h0a.8394.8394,0,0,1-.58008.2295h0A.86638.86638,0,0,1,26.25978,64.36051ZM29,62.01969a.82379.82379,0,0,1,.30957-1.12988h0a.841.841,0,0,1,1.12988.31054h0a.83841.83841,0,0,1-.30957,1.12989h0a.76658.76658,0,0,1-.41015.10937h0A.817.817,0,0,1,29,62.01969Zm3.24023-1.54981a.83364.83364,0,0,1,.59961-1.00976v.00976a.82836.82836,0,0,1,1.00977.58985h0A.84284.84284,0,0,1,33.25,61.07047h0a.76942.76942,0,0,1-.2002.0293h0A.84.84,0,0,1,32.24024,60.46988Z" style="fill: #1f86cc"/>
    <path d="M81.77931,326.34a.83649.83649,0,0,1,.83007-.83984h0a.83891.83891,0,0,1,.83008.82031h0a.8344.8344,0,0,1-.81933.83984h-.01075A.84023.84023,0,0,1,81.77931,326.34Zm-2.93946.36035a.82815.82815,0,0,1-.58984-1.01074h0a.82453.82453,0,0,1,1.00977-.59961h0a.83538.83538,0,0,1,.58984,1.00977h0a.82.82,0,0,1-.79981.62011h0A1.52555,1.52555,0,0,1,78.83985,326.70035Zm6.53028-.64062a.81273.81273,0,0,1,.58007-1.01953h0a.83635.83635,0,0,1,1.01954.58007h0a.82167.82167,0,0,1-.58008,1.00977h0a.91216.91216,0,0,1-.21973.03027h0A.82454.82454,0,0,1,85.37013,326.05973Zm-10.06055-.79A.82334.82334,0,0,1,75,324.13981h0a.82333.82333,0,0,1,1.12988-.30957h0a.821.821,0,0,1,.30957,1.12988h0a.819.819,0,0,1-.71972.41992h0A.8668.8668,0,0,1,75.30958,325.26969Zm13.4502-.40918a.83009.83009,0,0,1,.29-1.14063h0a.82359.82359,0,0,1,1.12989.29981h0a.81955.81955,0,0,1-.29,1.12988h0a.81265.81265,0,0,1-.41992.12012h0A.82622.82622,0,0,1,88.75978,324.86051Z" style="fill: #e5e5e5"/>
    <path d="M131.33985,308.05973a.82751.82751,0,0,1,.58008-1.01953h0a.81851.81851,0,0,1,1.01953.57031h0a.8275.8275,0,0,1-.58008,1.01953h0a.84535.84535,0,0,1-.21972.03027h0A.82455.82455,0,0,1,131.33985,308.05973Zm3.38965-1.19922a.83094.83094,0,0,1,.29-1.14063h0a.8419.8419,0,0,1,1.14063.29h0a.83418.83418,0,0,1-.30079,1.13965h0a.77565.77565,0,0,1-.41992.11035h0A.818.818,0,0,1,134.7295,306.86051Zm2.96-2.04a.83642.83642,0,0,1-.00976-1.18066h0a.83319.83319,0,0,1,1.16992-.00977h0a.83518.83518,0,0,1,.00976,1.17969h0a.83855.83855,0,0,1-.58984.24023h0A.85431.85431,0,0,1,137.68946,304.82047Zm2.33008-2.74023a.842.842,0,0,1-.30957-1.12989h0a.82364.82364,0,0,1,1.12988-.31054h0a.823.823,0,0,1,.30957,1.12988h0a.817.817,0,0,1-.71972.41992h0A.877.877,0,0,1,140.01954,302.08024Zm1.54981-3.24024a.82835.82835,0,0,1-.58985-1.00976h0a.83876.83876,0,0,1,1.01074-.60059h0a.84283.84283,0,0,1,.59961,1.01074h0a.84108.84108,0,0,1-.81054.62988h0A.74762.74762,0,0,1,141.56935,298.84Z" style="fill: #1f86cc"/>
    <path d="M158.05958,256.08024a.82381.82381,0,0,1-.30957-1.12989h0a.82135.82135,0,0,1,1.12988-.31054h0a.83865.83865,0,0,1,.30957,1.12988h0a.84931.84931,0,0,1-.71972.41992h0A.877.877,0,0,1,158.05958,256.08024Zm1.5498-3.25a.82241.82241,0,0,1-.5996-1.00977h0a.8245.8245,0,0,1,1.00976-.59082h0a.81936.81936,0,0,1,.58984,1.01074h0a.81969.81969,0,0,1-.79.62012h0A.78517.78517,0,0,1,159.60938,252.83024Zm-.18945-4.35059a.82764.82764,0,0,1,.82031-.83984h0a.83512.83512,0,0,1,.83985.82031h0A.84283.84283,0,0,1,160.25,249.3h0A.82609.82609,0,0,1,159.41993,248.47965Zm-.46-3.34961a.816.816,0,0,1,.58008-1.01953h0a.83654.83654,0,0,1,1.01953.5791h0a.83249.83249,0,0,1-.58008,1.02051h0a.926.926,0,0,1-.22949.03027h0A.81921.81921,0,0,1,158.96,245.13Zm-1.32031-3.09961h.00976a.82678.82678,0,0,1,.29-1.14062h0a.82337.82337,0,0,1,1.12989.2998h0a.82007.82007,0,0,1-.29,1.13086h0a.81819.81819,0,0,1-.41993.11914h0A.842.842,0,0,1,157.63966,242.03043Z" style="fill: #ff4257"/>
    <path d="M140.96,199.13a.81786.81786,0,0,1,.56934-1.01953h0a.81276.81276,0,0,1,1.0205.5791h0v-.00976h0a.83358.83358,0,0,1-.57031,1.03027h0a.87473.87473,0,0,1-.21972.01953h0A.82369.82369,0,0,1,140.96,199.13Zm-1.32031-3.11035a.82939.82939,0,0,1,.29-1.12988h0a.84049.84049,0,0,1,1.13965.29h0a.83439.83439,0,0,1-.29981,1.14062h0a.773.773,0,0,1-.41016.10938h0A.82006.82006,0,0,1,139.63966,196.01969Zm-2.08008-2.64942a.84642.84642,0,0,1-.00977-1.18066h0a.837.837,0,0,1,1.17969,0h0a.83439.83439,0,0,1,.01074,1.1709h0a.87042.87042,0,0,1-.60058.23926h0A.80681.80681,0,0,1,137.55958,193.37027Zm-2.68945-2.04a.8216.8216,0,0,1-.31055-1.12989h0a.84145.84145,0,0,1,1.12988-.31054h0A.82411.82411,0,0,1,136,191.01969h0a.81967.81967,0,0,1-.7207.41992h0A.7633.7633,0,0,1,134.87013,191.33024ZM131.75,190.07047a.84346.84346,0,0,1-.60059-1.01074h0a.835.835,0,0,1,1.01075-.59961h0v.00976h0a.82739.82739,0,0,1,.59961,1h0a.8319.8319,0,0,1-.80958.62012h0A.728.728,0,0,1,131.75,190.07047Z" style="fill: #e57fc6"/>
    <path d="M22.89942,199.92985a.834.834,0,0,1-.59961-1.00977h.00977a.81907.81907,0,0,1,1-.59961h0a.83411.83411,0,0,1,.60059,1.00977h0a.8302.8302,0,0,1-.80079.62011h0A.73425.73425,0,0,1,22.89942,199.92985Zm1.14063-3.41016a.841.841,0,0,1-.31055-1.12988h0a.82379.82379,0,0,1,1.12988-.30957h0a.82135.82135,0,0,1,.31055,1.12988h0a.82013.82013,0,0,1-.71973.41992h0A.86381.86381,0,0,1,24.04005,196.51969Zm1.98926-3a.82514.82514,0,0,1,0-1.16992h0A.83437.83437,0,0,1,27.2002,192.34h0a.84607.84607,0,0,1,.00977,1.17969h0a.85736.85736,0,0,1-.58984.24023h0A.8614.8614,0,0,1,26.02931,193.51969Zm2.70019-2.37012a.83868.83868,0,0,1,.29-1.13965h0a.83611.83611,0,0,1,1.14063.29981h0a.83118.83118,0,0,1-.29,1.12988h0a.82738.82738,0,0,1-.41993.11035h0A.83307.83307,0,0,1,28.7295,191.14957Zm3.2207-1.60937a.81444.81444,0,0,1,.56934-1.00977h0a.81439.81439,0,0,1,1.02051.56934h0a.8191.8191,0,0,1-.57031,1.0205h0a.92993.92993,0,0,1-.2295.0293h0A.81832.81832,0,0,1,31.9502,189.5402Z" style="fill: #e57fc6"/>
    <path d="M5.9297,255.96988h0a.82939.82939,0,0,1,.29-1.12988h0a.82917.82917,0,0,1,1.12988.29h.00976a.833.833,0,0,1-.2998,1.13965h0a.90453.90453,0,0,1-.41992.11035h0A.82716.82716,0,0,1,5.9297,255.96988Zm-1.49024-3.5a.82784.82784,0,0,1,.58008-1.01953h0a.82486.82486,0,0,1,1.02051.58008v-.01074A.82886.82886,0,0,1,5.46,253.0402h0a.85694.85694,0,0,1-.21973.03027h0A.83523.83523,0,0,1,4.43946,252.46988Zm-.51953-3.76953a.82749.82749,0,0,1,.82031-.83984h0a.82648.82648,0,0,1,.82911.8291h0a.81836.81836,0,0,1-.81934.83008h0A.8259.8259,0,0,1,3.91993,248.70035Zm1.04981-2.7705a.8223.8223,0,0,1-.58985-1.00977h0a.82316.82316,0,0,1,1.00977-.58984h0A.81792.81792,0,0,1,5.9795,245.34h0a.82246.82246,0,0,1-.7998.62012h0A.74294.74294,0,0,1,4.96974,245.92985Zm1.15039-3.41016a.82136.82136,0,0,1-.31055-1.12988h0a.83929.83929,0,0,1,1.12988-.30957h0A.841.841,0,0,1,7.25,242.21012h0a.84872.84872,0,0,1-.73047.41992h0A.75491.75491,0,0,1,6.12013,242.51969Z" style="fill: #ff4257"/>
    <path d="M32.83985,308.70035h0a.8342.8342,0,0,1-.59961-1.01074h0A.84134.84134,0,0,1,33.25,307.09h0a.83364.83364,0,0,1,.59961,1.00977h0a.82824.82824,0,0,1-.79981.62011h0A1.52555,1.52555,0,0,1,32.83985,308.70035Zm-3.53027-1.43066A.82334.82334,0,0,1,29,306.13981h0a.821.821,0,0,1,1.12988-.30957h0a.82906.82906,0,0,1,.30957,1.12011h0a.819.819,0,0,1-.71972.41992h0A.855.855,0,0,1,29.30958,307.26969Zm-3.04-2.29981A.83318.83318,0,0,1,26.25978,303.8h0a.84428.84428,0,0,1,1.17968-.00976h0a.83326.83326,0,0,1,.01074,1.16992h0a.83568.83568,0,0,1-.60058.25h0A.85225.85225,0,0,1,26.26954,304.96988Zm-2.33984-2.99023a.83867.83867,0,0,1,.29-1.13965h0a.83472.83472,0,0,1,1.13964.29981h0a.82387.82387,0,0,1-.2998,1.12988h0a.76533.76533,0,0,1-.41016.11035h0A.83145.83145,0,0,1,23.9297,301.97965Zm-1.49024-3.50977v.00977h0a.843.843,0,0,1,.58008-1.0293h0a.8325.8325,0,0,1,1.02051.58008h0A.83267.83267,0,0,1,23.46,299.05h0a.76581.76581,0,0,1-.21973.03028h0A.83253.83253,0,0,1,22.43946,298.46988Z" style="fill: #1f86cc"/>
    <path d="M5.80958,126.76969A.83544.83544,0,0,1,6.12013,125.63h0a.83584.83584,0,0,1,1.12988.32031h0a.82412.82412,0,0,1-.31055,1.12989h0a.874.874,0,0,1-.41015.10937h0A.83957.83957,0,0,1,5.80958,126.76969Zm-1.42969-3.5293a.82524.82524,0,0,1,.59961-1.01074h0a.81356.81356,0,0,1,1,.59082h0a.8188.8188,0,0,1-.58984,1.00977h0a.77953.77953,0,0,1-.21.03027h0A.8309.8309,0,0,1,4.37989,123.24039Zm.36035-2.95019a.81322.81322,0,0,1-.82031-.83008h0a.826.826,0,0,1,.83008-.82031h0a.81836.81836,0,0,1,.81934.83007h0a.8169.8169,0,0,1-.81934.82032H4.74024Zm.2793-3.58008a.83328.83328,0,0,1-.58008-1.02051h0a.83268.83268,0,0,1,1.02051-.5791h0A.83179.83179,0,0,1,6.04005,116.13h0a.83224.83224,0,0,1-.79981.61035h0A.85847.85847,0,0,1,5.01954,116.71012Zm1.2002-3.38965a.82089.82089,0,0,1-.29-1.13086h0a.8238.8238,0,0,1,1.12988-.2998h0a.823.823,0,0,1,.29,1.14062h.00976a.853.853,0,0,1-.71972.40918h0A.82076.82076,0,0,1,6.21974,113.32047Z" style="fill: #ff4257"/>
  </g>
  <g>
    <g>
      <path d="M35.26954,22.23825a1.31559,1.31559,0,0,0-1.37012-1.16309,1.8415,1.8415,0,0,0-1.69824,2.06446,1.8415,1.8415,0,0,0,1.69824,2.06445,1.44288,1.44288,0,0,0,1.40821-1.37988h.59082a1.97115,1.97115,0,0,1-1.999,1.87695,2.31775,2.31775,0,0,1-2.28906-2.56152,2.31858,2.31858,0,0,1,2.28906-2.5625,1.81118,1.81118,0,0,1,1.96192,1.66113Z" style="fill: #e5e5e5"/>
      <path d="M41.06251,23.13962a2.304,2.304,0,1,1-4.5791,0,2.30409,2.30409,0,1,1,4.5791,0Zm-3.98828,0a1.73112,1.73112,0,1,0,3.39746,0,1.73113,1.73113,0,1,0-3.39746,0Z" style="fill: #e5e5e5"/>
      <path d="M41.95606,18.86032h.5918v6.7002h-.5918Z" style="fill: #e5e5e5"/>
      <path d="M43.69337,18.86032h.5918v6.7002h-.5918Z" style="fill: #e5e5e5"/>
      <path d="M45.43067,18.86032h.5918v.94727h-.5918Zm0,1.8584h.5918v4.8418h-.5918Z" style="fill: #e5e5e5"/>
      <path d="M51.419,25.56052H50.875v-.91993h-.01856a1.919,1.919,0,0,1-1.72656,1.06055c-1.47363,0-2.17773-1.19141-2.17773-2.56152s.7041-2.5625,2.17773-2.5625a1.72864,1.72864,0,0,1,1.67969,1.06054h.01855V18.86032H51.419Zm-2.28906-.35645c1.25684,0,1.69824-1.06055,1.69824-2.06445s-.4414-2.06446-1.69824-2.06446c-1.127,0-1.58594,1.06055-1.58594,2.06446S48.00294,25.20407,49.12989,25.20407Z" style="fill: #e5e5e5"/>
      <path d="M52.55665,18.86032h.5918v.94727h-.5918Zm0,1.8584h.5918v4.8418h-.5918Z" style="fill: #e5e5e5"/>
      <path d="M54.2754,20.71872h.59082v.835h.01953a1.64162,1.64162,0,0,1,1.54785-.97656c1.36035,0,1.77344.71386,1.77344,1.86816v3.11524h-.59082V22.539c0-.835-.27246-1.46387-1.22949-1.46387a1.529,1.529,0,0,0-1.52051,1.66114v2.82422H54.2754Z" style="fill: #e5e5e5"/>
      <path d="M63.418,25.166c-.00879,1.44532-.5625,2.32813-2.14844,2.32813-.9668,0-1.92383-.43164-2.00879-1.46484h.5918a1.27265,1.27265,0,0,0,1.417.96679c1.08789,0,1.55762-.64746,1.55762-1.83008v-.65625H62.8086a1.67877,1.67877,0,0,1-1.53906.99414c-1.54883,0-2.18652-1.10742-2.18652-2.48632a2.21515,2.21515,0,0,1,2.18652-2.44043,1.70554,1.70554,0,0,1,1.53906.97656h.01856v-.835H63.418Zm-.59082-2.083c0-.94727-.44141-2.00782-1.55762-2.00782-1.126,0-1.5957,1.00391-1.5957,2.00782,0,.97558.50683,1.92382,1.5957,1.92382C62.292,25.0068,62.82716,24.06833,62.82716,23.083Z" style="fill: #e5e5e5"/>
      <path d="M70.05665,22.13571A1.11451,1.11451,0,0,0,68.79,21.07516c-.52637,0-1.14551.20606-1.14551.835,0,.5254.60059.7129,1.00391.81641l.78906.17871a1.418,1.418,0,0,1,1.37891,1.3418c0,1.05078-1.041,1.4541-1.94239,1.4541a1.75413,1.75413,0,0,1-1.98925-1.708h.59082a1.2767,1.2767,0,0,0,1.42675,1.21094c.55371,0,1.32325-.24414,1.32325-.91992,0-.5625-.5254-.751-1.06055-.88184l-.75977-.16894c-.76953-.207-1.35156-.46973-1.35156-1.29492,0-.98536.9668-1.36133,1.82031-1.36133a1.58687,1.58687,0,0,1,1.77344,1.55859Z" style="fill: #e5e5e5"/>
      <path d="M71.61622,22.20114c.05664-1.13574.85352-1.624,1.96094-1.624.85449,0,1.7832.26269,1.7832,1.55859V24.707a.315.315,0,0,0,.34766.35645.56024.56024,0,0,0,.1875-.03809v.498a1.67109,1.67109,0,0,1-.38477.03711c-.60058,0-.69433-.3379-.69433-.84473h-.01954a1.84459,1.84459,0,0,1-1.76367.98535c-.8916,0-1.624-.44141-1.624-1.417,0-1.36035,1.32324-1.40723,2.59961-1.55762.48828-.05664.76074-.12207.76074-.65723,0-.79687-.57324-.99414-1.26758-.99414-.73144,0-1.27539.33789-1.29492,1.126Zm3.15332.71289H74.75c-.07422.14063-.33691.1875-.49707.21582C73.249,23.30856,72.001,23.2988,72.001,24.247a1.00841,1.00841,0,0,0,1.0791.957,1.55754,1.55754,0,0,0,1.68945-1.52051Z" style="fill: #e5e5e5"/>
      <path d="M76.54591,20.71872h.54394v.8164h.02832a1.69093,1.69093,0,0,1,1.58594-.958,1.34716,1.34716,0,0,1,1.38867.94824,1.63755,1.63755,0,0,1,1.53907-.94824c1.06054,0,1.60449.55371,1.60449,1.69922v3.28418h-.59082V22.30466c0-.79786-.30078-1.2295-1.14551-1.2295-1.02246,0-1.31348.84473-1.31348,1.74512v2.74024h-.59082V22.27634c.00879-.65723-.26269-1.20118-1.01367-1.20118-1.02344,0-1.43555.76954-1.44531,1.78223v2.70313h-.59082Z" style="fill: #e5e5e5"/>
      <path d="M84.36622,20.71872h.54395v.91894h.01855a1.814,1.814,0,0,1,1.72656-1.06054c1.47364,0,2.17774,1.19238,2.17774,2.5625s-.7041,2.56152-2.17774,2.56152a1.72773,1.72773,0,0,1-1.67968-1.06055H84.957v2.71192h-.59082Zm2.28906.35644c-1.30371,0-1.69824.96582-1.69824,2.06446,0,1.0039.44141,2.06445,1.69824,2.06445,1.126,0,1.58594-1.06055,1.58594-2.06445S87.78126,21.07516,86.65528,21.07516Z" style="fill: #e5e5e5"/>
      <path d="M89.76368,18.86032h.5918v6.7002h-.5918Z" style="fill: #e5e5e5"/>
      <path d="M91.83888,23.2988a1.71782,1.71782,0,0,0,1.5957,1.90527,1.4744,1.4744,0,0,0,1.51953-1.23926h.5918a1.97762,1.97762,0,0,1-2.11133,1.73633c-1.53906,0-2.18652-1.18262-2.18652-2.56152,0-1.27637.64746-2.5625,2.18652-2.5625,1.55762,0,2.17676,1.36133,2.12988,2.72168Zm3.13476-.49707a1.62707,1.62707,0,0,0-1.53906-1.72657,1.71831,1.71831,0,0,0-1.5957,1.72657Z" style="fill: #e5e5e5"/>
      <path d="M98.919,22.20114c.05665-1.13574.85352-1.624,1.96094-1.624.85449,0,1.78321.26269,1.78321,1.55859V24.707a.315.315,0,0,0,.34765.35645.56018.56018,0,0,0,.1875-.03809v.498a1.671,1.671,0,0,1-.38476.03711c-.60059,0-.69434-.3379-.69434-.84473h-.01953a1.8446,1.8446,0,0,1-1.76367.98535c-.8916,0-1.624-.44141-1.624-1.417,0-1.36035,1.32325-1.40723,2.59961-1.55762.48828-.05664.76075-.12207.76075-.65723,0-.79687-.57325-.99414-1.26758-.99414-.73145,0-1.27539.33789-1.29492,1.126Zm3.15333.71289h-.01954c-.07421.14063-.33691.1875-.49707.21582-1.0039.17871-2.252.16895-2.252,1.11719a1.00841,1.00841,0,0,0,1.0791.957,1.55756,1.55756,0,0,0,1.68946-1.52051Z" style="fill: #e5e5e5"/>
      <path d="M103.83888,20.71872h.59082v.835h.01953a1.64162,1.64162,0,0,1,1.54785-.97656c1.36035,0,1.77344.71386,1.77344,1.86816v3.11524h-.59082V22.539c0-.835-.27246-1.46387-1.2295-1.46387a1.529,1.529,0,0,0-1.5205,1.66114v2.82422h-.59082Z" style="fill: #e5e5e5"/>
      <path d="M113.1504,25.56052h-.544v-.91993h-.01855a1.91905,1.91905,0,0,1-1.72656,1.06055c-1.47364,0-2.17774-1.19141-2.17774-2.56152s.7041-2.5625,2.17774-2.5625a1.72864,1.72864,0,0,1,1.67969,1.06054h.01855V18.86032h.59082Zm-2.28906-.35645c1.25683,0,1.69824-1.06055,1.69824-2.06445s-.44141-2.06446-1.69824-2.06446c-1.127,0-1.58594,1.06055-1.58594,2.06446S109.73438,25.20407,110.86134,25.20407Z" style="fill: #e5e5e5"/>
      <path d="M116.87989,18.86032h.59082v2.69336h.01953a1.64164,1.64164,0,0,1,1.54786-.97656c1.36035,0,1.77343.71386,1.77343,1.86816v3.11524h-.59082V22.539c0-.835-.27246-1.46387-1.22949-1.46387a1.529,1.529,0,0,0-1.52051,1.66114v2.82422h-.59082Z" style="fill: #e5e5e5"/>
      <path d="M126.26661,23.13962a2.304,2.304,0,1,1-4.5791,0,2.30409,2.30409,0,1,1,4.5791,0Zm-3.98828,0a1.73112,1.73112,0,1,0,3.39746,0,1.73113,1.73113,0,1,0-3.39746,0Z" style="fill: #e5e5e5"/>
      <path d="M127.16017,18.86032h.59179v6.7002h-.59179Z" style="fill: #e5e5e5"/>
      <path d="M133.14845,25.56052h-.54395v-.91993H132.586a1.91905,1.91905,0,0,1-1.72657,1.06055c-1.47363,0-2.17773-1.19141-2.17773-2.56152s.7041-2.5625,2.17773-2.5625a1.72863,1.72863,0,0,1,1.67969,1.06054h.01856V18.86032h.59082Zm-2.28907-.35645c1.25684,0,1.69825-1.06055,1.69825-2.06445s-.44141-2.06446-1.69825-2.06446c-1.12695,0-1.58593,1.06055-1.58593,2.06446S129.73243,25.20407,130.85938,25.20407Z" style="fill: #e5e5e5"/>
    </g>
    <g>
      <path d="M2.5,23.83005a.82033.82033,0,0,1-.83008-.82032.8465.8465,0,0,1,.24024-.58984.8633.8633,0,0,1,1.17968,0,.946.946,0,0,1,.16993.26953.71608.71608,0,0,1,.07031.32031.8096.8096,0,0,1-.06055.30957,1.24117,1.24117,0,0,1-.17969.27051A.82361.82361,0,0,1,2.5,23.83005Z" style="fill: #e5e5e5"/>
      <path d="M20.9502,23.00973a.82731.82731,0,0,1,.82911-.83007h0a.82751.82751,0,0,1,.83007.83007h0a.82547.82547,0,0,1-.83007.82032h0A.82526.82526,0,0,1,20.9502,23.00973Zm-4.82031,0a.82813.82813,0,0,1,.83008-.83007h0a.82813.82813,0,0,1,.83008.83007h0a.8261.8261,0,0,1-.83008.82032h0A.8261.8261,0,0,1,16.12989,23.00973Zm-4.82031,0a.82813.82813,0,0,1,.83008-.83007h0a.82813.82813,0,0,1,.83008.83007h0a.8261.8261,0,0,1-.83008.82032h0A.8261.8261,0,0,1,11.30958,23.00973Zm-4.81934,0a.8273.8273,0,0,1,.82911-.83007h0a.82813.82813,0,0,1,.83007.83007h0a.82609.82609,0,0,1-.83007.82032h0A.82526.82526,0,0,1,6.49024,23.00973Z" style="fill: #e5e5e5"/>
      <path d="M26.59962,23.83005a.81329.81329,0,0,1-.30957-.06055.82112.82112,0,0,1-.4502-.4502.8186.8186,0,0,1-.07031-.30957.87777.87777,0,0,1,.07031-.32031.80042.80042,0,0,1,.17969-.26953.711.711,0,0,1,.27051-.17969.85576.85576,0,0,1,.62988,0,.83184.83184,0,0,1,.4502.44922.86754.86754,0,0,1,.05957.32031.80882.80882,0,0,1-.05957.30957.82938.82938,0,0,1-.4502.4502A.86832.86832,0,0,1,26.59962,23.83005Z" style="fill: #e5e5e5"/>
    </g>
    <g>
      <path d="M138.05958,23.83005a.81329.81329,0,0,1-.30957-.06055A.843.843,0,0,1,137.2295,23a.8096.8096,0,0,1,.25-.58008.64334.64334,0,0,1,.27051-.17969.85127.85127,0,0,1,.89941.17969A.841.841,0,0,1,138.88966,23a.823.823,0,0,1-.05957.31933.79758.79758,0,0,1-.18067.27051A.822.822,0,0,1,138.05958,23.83005Z" style="fill: #e5e5e5"/>
      <path d="M156.77931,23.00973a.82813.82813,0,0,1,.83007-.83007h0a.82813.82813,0,0,1,.83008.83007h0a.8261.8261,0,0,1-.83008.82032h0A.82609.82609,0,0,1,156.77931,23.00973Zm-4.87989,0a.82813.82813,0,0,1,.83008-.83007h0a.82608.82608,0,0,1,.82031.83007h0a.824.824,0,0,1-.82031.82032h0A.8261.8261,0,0,1,151.89942,23.00973Zm-4.88964,0a.82813.82813,0,0,1,.83007-.83007h0a.8344.8344,0,0,1,.83008.83007h0a.83244.83244,0,0,1-.83008.82032h0A.82609.82609,0,0,1,147.00978,23.00973Zm-4.88965,0a.82813.82813,0,0,1,.83007-.83007h0a.8273.8273,0,0,1,.82911.83007h0a.82526.82526,0,0,1-.82911.82032h0A.82609.82609,0,0,1,142.12013,23.00973Z" style="fill: #e5e5e5"/>
      <path d="M162.5,23.83981a.79158.79158,0,0,1-.58008-.25.87249.87249,0,0,1-.19043-.27051.80882.80882,0,0,1-.05957-.30957.86754.86754,0,0,1,.05957-.32031,1.0154,1.0154,0,0,1,.19043-.26953.67981.67981,0,0,1,.25977-.17969.88145.88145,0,0,1,.63965,0,.67593.67593,0,0,1,.26074.17969,1.01163,1.01163,0,0,1,.18945.26953.86836.86836,0,0,1,.06055.32031.8096.8096,0,0,1-.06055.30957.86974.86974,0,0,1-.18945.27051A.79478.79478,0,0,1,162.5,23.83981Z" style="fill: #e5e5e5"/>
    </g>
  </g>
</svg>
