<svg id="Layer_5" data-name="Layer 5" xmlns="http://www.w3.org/2000/svg" xmlns:xlink="http://www.w3.org/1999/xlink" width="165" height="380" viewBox="0 0 165 380">
  <defs>
    <linearGradient id="linear-gradient" x1="-51.86531" y1="57.88192" x2="215.8512" y2="325.59843" gradientUnits="userSpaceOnUse">
      <stop offset="0.38537" stop-color="#ffcc9e"/>
      <stop offset="0.62112" stop-color="#f1ad8c"/>
      <stop offset="0.85662" stop-color="#e6947e"/>
      <stop offset="1" stop-color="#e28b79"/>
    </linearGradient>
  </defs>
  <title>Branes-DM</title>
  <rect x="1.58977" y="4.42684" width="160.80636" height="374.62667" style="fill: url(#linear-gradient)"/>
  <g>
    <path d="M112.13281,54.002a.31967.31967,0,0,0,.05274-.44336l-.47266-.59472-.49414.3916.4707.5957A.31775.31775,0,0,0,112.13281,54.002Z" style="fill: #252626"/>
    <path d="M34.93164,359.21191l-.3291.53809.64746.39648a.316.316,0,0,0,.33008-.53906Z" style="fill: #252626"/>
    <path d="M109.91992,351.63281a1.45619,1.45619,0,1,0-1.0625,1.75977A1.45424,1.45424,0,0,0,109.91992,351.63281Z" style="fill: #252626"/>
    <path d="M31.02344,357.39453l-1.00391.86231.7041.81933a.67556.67556,0,0,0,.93067.0586.66406.66406,0,0,0,.07812-.916Z" style="fill: #252626"/>
    <path d="M49.10449,359.65625a1.45594,1.45594,0,1,0,1.98828.51563A1.45088,1.45088,0,0,0,49.10449,359.65625Z" style="fill: #252626"/>
    <polygon points="38.725 362.658 39.506 362.842 39.356 361.726 38.725 362.658" style="fill: #252626"/>
    <path d="M56.99121,45.82129a1.44665,1.44665,0,1,0,1.26758,1.61035A1.452,1.452,0,0,0,56.99121,45.82129Z" style="fill: #252626"/>
    <polygon points="115.032 56.861 114.12 57.521 114.791 57.961 115.032 56.861" style="fill: #252626"/>
    <path d="M43.28418,59.18457a.30525.30525,0,0,0,.28809-.31836.32163.32163,0,0,0-.32032-.29492l-.78906.042.0332.61328Z" style="fill: #252626"/>
    <path d="M112.38281,37.39453a1.45653,1.45653,0,1,0-2.04394.22168A1.45468,1.45468,0,0,0,112.38281,37.39453Z" style="fill: #252626"/>
    <path d="M32.60645,357.07324l-.51465-.59863-.46485.40039.51465.59863a.30439.30439,0,0,0,.42774.03223A.318.318,0,0,0,32.60645,357.07324Z" style="fill: #252626"/>
    <path d="M55.526,9.46191a.38646.38646,0,0,0-.24219-.34277H54.21643v.68457h1.06738C55.41565,9.793,55.526,9.59375,55.526,9.46191Z" style="fill: #252626"/>
    <path d="M66.10706,9.46191c0-.15527-.11036-.35351-.26368-.35351H64.83069v.707h1.01269C65.9967,9.81543,66.10706,9.61621,66.10706,9.46191Z" style="fill: #252626"/>
    <path d="M0,0V380H165V0ZM134.56934,51.76465a.82891.82891,0,0,1,1.14746-.23535,97.73437,97.73437,0,0,1,14.82129,12.00976.82866.82866,0,0,1-1.16407,1.17969,96.05862,96.05862,0,0,0-14.56933-11.80664A.82822.82822,0,0,1,134.56934,51.76465ZM113.91992,215.69843a14.57926,14.57926,0,0,1,14.46192-14.69825.80479.80479,0,0,1,.835.82129.828.828,0,0,1-.82129.835,12.924,12.924,0,0,0,.10254,25.84766h.10644a12.9392,12.9392,0,0,0,12.81934-13.02832.828.828,0,0,1,.82129-.835h.00683a.82838.82838,0,0,1,.82813.82129,14.57926,14.57926,0,0,1-14.46192,14.69824c-.041.001-.081.001-.12109.001a14.464,14.464,0,0,1-9.69281-3.71344L108.08594,237.1662a.82864.82864,0,1,1-1.17188-1.17188l10.71717-10.71716A14.46142,14.46142,0,0,1,113.91992,215.69843Zm28.332-36.17774h-.00683a.828.828,0,0,1-.82129-.835,12.94,12.94,0,0,0-12.81934-13.0293h-.10644a12.924,12.924,0,0,0-.10254,25.84766.82814.82814,0,0,1-.00684,1.65625h-.00683a14.56418,14.56418,0,0,1-10.75055-24.277L106.91406,158.1662a.82864.82864,0,0,1,1.17188-1.17188l10.71826,10.7182a14.46286,14.46286,0,0,1,9.69287-3.71331c.04,0,.08008,0,.12109.001a14.59721,14.59721,0,0,1,14.46192,14.69922A.82838.82838,0,0,1,142.252,179.52069ZM107.5,108.40839a.82813.82813,0,0,1-.58594-1.41309l10.691-10.72314a14.55641,14.55641,0,0,1,10.86072-24.27295c.04,0,.08008,0,.12012.001a.82814.82814,0,0,1-.00684,1.65625.731.731,0,0,0-.11328,0A12.924,12.924,0,1,0,141.3916,86.68475a.82838.82838,0,0,1,.82813-.82129h.00683a.828.828,0,0,1,.82129.835,14.60019,14.60019,0,0,1-14.5791,14.46289c-.04,0-.08008,0-.12012-.001a14.50065,14.50065,0,0,1-9.57422-3.7157l-10.68847,10.72058A.8244.8244,0,0,1,107.5,108.40839Zm5.91406-50.38984-1.01562.7295-.72754-.47657,3.76758-2.707.61621.4043-.97754,4.53711-.73242-.48047.2705-1.2207Zm-2.06738-17.70019-.31738.749-3.98242-1.68652.3164-.75Zm-1.86914-5.24023a2.26155,2.26155,0,1,1,.35059,3.17968A2.25978,2.25978,0,0,1,109.47754,35.07813Zm2.36328,16.77734.96191,1.21289a1.12068,1.12068,0,0,1-.17968,1.55273,1.12052,1.12052,0,0,1-1.17676.127l-.73828,2.63672-.59668-.752.7041-2.51562-.21484-.27149-1.65625,1.3125-.49024-.61914Zm17.23926,4.1582.32812.7168-1.84863.84668.26563.5791,1.61035-.7373.33691.73339-1.61133.73829.53516,1.16992,1.79785-.82325.335.72754L128.29,61.127l-1.79785-3.92871Zm-5.11817,1.5625a2.23446,2.23446,0,0,1,.88965.08008,2.19692,2.19692,0,0,1,.77832.4082l.127.10254-.53907.59082-.11328-.084a1.38938,1.38938,0,0,0-1.05469-.294,1.45854,1.45854,0,0,0,.32032,2.89942A1.47238,1.47238,0,0,0,125.377,60.71l-.09863-.89355-1.17773.1289-.08887-.80273,1.96973-.2168.21972,1.98047-.02734.03906a2.26151,2.26151,0,1,1-2.21192-3.36914Zm-5.34961-.377,1.17481,3.21191.68457-2.75.78906.19629-1.042,4.20117-.76074-.18945-1.18067-3.21777-.68457,2.75488-.791-.19629,1.04394-4.20019ZM114.668,30.81152l.69629-.42285,2.24414,3.69922-.67481.40918-3.10546-1.42676,1.46972,2.41992-.69629.42188-2.24511-3.69727.66992-.40722,3.11426,1.42871Zm-4.91638-18.76464a7.522,7.522,0,0,1-1.73828-.542,2.1688,2.1688,0,0,1-1.13379-1.95508,2.301,2.301,0,0,1,.40722-1.28125,2.5392,2.5392,0,0,1,1.0127-.81738l-.01172.01074a3.16447,3.16447,0,0,1,1.34277-.29785,3.71919,3.71919,0,0,1,.583.04395,4.5633,4.5633,0,0,1,2.25488,1.16015l-1.21,1.458a2.42428,2.42428,0,0,0-1.65039-.77344,1.10561,1.10561,0,0,0-.50586.11036.45794.45794,0,0,0-.31933.38671c0,.29883.39648.44239,1.03418.57422.0664.02246.14355.02246.2207.04493a5.7688,5.7688,0,0,1,1.48437.4746h-.01074a2.20239,2.20239,0,0,1,1.21,2,2.32768,2.32768,0,0,1-.418,1.38086,2.70832,2.70832,0,0,1-1.04492.83887,2.85072,2.85072,0,0,1-1.38574.29883,3.68026,3.68026,0,0,1-.793-.08887,5.28945,5.28945,0,0,1-2.45312-1.33594L107.88147,12.29a3.2427,3.2427,0,0,0,1.584.92773,1.88284,1.88284,0,0,0,.418.05469,1.2931,1.2931,0,0,0,.57227-.12109.57374.57374,0,0,0,.3623-.50782C110.818,12.334,110.2467,12.14648,109.75159,12.04688ZM106.0625,42.78711a2.31742,2.31742,0,0,1,.12305-.42188,2.78326,2.78326,0,0,1,.85156-1.14062l.12207-.0957.50684.63086-.12207.0957a1.99911,1.99911,0,0,0-.61426.79883v.00586a1.44633,1.44633,0,0,0-.07715.26367.96419.96419,0,0,0,.01465.416.4685.4685,0,0,0,.38183.38672.36336.36336,0,0,0,.35254-.14843,1.73983,1.73983,0,0,0,.28223-.52344,4.35861,4.35861,0,0,1,.46094-.91211,1.29253,1.29253,0,0,1,.5-.35742,1.13206,1.13206,0,0,1,.59961-.04883,1.21984,1.21984,0,0,1,.627.32617,1.444,1.444,0,0,1,.32812.59766,1.69322,1.69322,0,0,1,.03125.74023c-.01855.10156-.04882.207-.0791.3125a2.46191,2.46191,0,0,1-.73437,1.03027l-.11524.09668-.52832-.61523.11621-.09766a1.52609,1.52609,0,0,0,.55176-.87109.918.918,0,0,0-.01367-.38477.43639.43639,0,0,0-.31738-.33789.3204.3204,0,0,0-.31934.11035,1.65149,1.65149,0,0,0-.2959.52833c-.01172.03515-.03222.08007-.05273.126a2.74433,2.74433,0,0,1-.40039.77442,1.22255,1.22255,0,0,1-.51172.39257,1.14,1.14,0,0,1-.62109.05762,1.22329,1.22329,0,0,1-.67286-.33984,1.47449,1.47449,0,0,1-.3457-.63282A1.603,1.603,0,0,1,106.0625,42.78711Zm4.08105,2.93652.34278,2.8291-.78516.09571L109.458,46.627l-.63379.07618.21289,1.76171-.80273.09668-.2129-1.76074-1.27929.1543.23828,1.9668-.79688.0957-.335-2.77539ZM103.5,131.76a.83008.83008,0,1,1-.83008.83008A.82527.82527,0,0,1,103.5,131.76Zm-.85059,42.41015a.82842.82842,0,1,1,.81055,1.01954.69706.69706,0,0,1-.20019-.01954A.829.829,0,0,1,102.64941,174.1701Zm.19043,2.74024a.83193.83193,0,0,1-.19043,1.63965.60951.60951,0,0,1-.18945-.03028.83007.83007,0,0,1-.62012-1A.8409.8409,0,0,1,102.83984,176.91034ZM96.86,7.23047h5.33593V9.1084H98.77405v.67383h2.99219v1.91113H98.77405v1.50195h3.34472V15.0957H96.86ZM99.16992,132.59a.82473.82473,0,1,1,.82031.83007A.8261.8261,0,0,1,99.16992,132.59Zm.4502,57.74023a.832.832,0,0,1-.2002,1.63965.61589.61589,0,0,1-.19043-.03027.82805.82805,0,0,1,.39063-1.60938Zm-6.54,61.81934a.8334.8334,0,0,1-.58985.25.82489.82489,0,0,1-.58007-.25.81488.81488,0,0,1,0-1.16992.82726.82726,0,0,1,1.16992,1.16992Zm0,20a.8334.8334,0,0,1-.58985.25.83511.83511,0,0,1-.58007-1.41992.82726.82726,0,0,1,1.16992,1.16992ZM86.5293,245.63007a1.37535,1.37535,0,0,1-.19922-.01954.84647.84647,0,1,1,.19922.01954Zm0,2.71972a.84.84,0,0,1-.80957.62989.73469.73469,0,0,1-.2002-.01954.82853.82853,0,0,1,.39063-1.61035A.83981.83981,0,0,1,86.5293,248.34979Zm.80078-6.06933a.64609.64609,0,0,1-.19043-.03028.81167.81167,0,0,1-.61035-.99023.82363.82363,0,0,1,1-.62012.83247.83247,0,0,1-.19922,1.64063Zm.80957-3.36036a1.26567,1.26567,0,0,1-.2002-.0205.82805.82805,0,0,1,.39063-1.60938.82641.82641,0,0,1-.19043,1.62988Zm.81055-3.3496A1.37814,1.37814,0,0,1,88.75,235.55a.83291.83291,0,0,1-.61035-1,.82728.82728,0,0,1,1.61035.37988A.83121.83121,0,0,1,88.9502,235.5705Zm.7998-3.35059a.61584.61584,0,0,1-.19043-.03027.78621.78621,0,1,1,.19043.03027Zm.80957-3.35938a1.40632,1.40632,0,0,1-.20019-.0205.82852.82852,0,0,1,.39062-1.61035.827.827,0,0,1-.19043,1.63085Zm.79981-3.35058a.6098.6098,0,0,1-.18946-.03027.8167.8167,0,0,1-.61035-1,.82855.82855,0,1,1,.79981,1.03027Zm.55078-83.5a.82349.82349,0,0,1,1.16992-.00977.8461.8461,0,0,1,0,1.17969.82364.82364,0,0,1-.58985.24023.82519.82519,0,0,1-.58007-1.41015Zm0-20a.81488.81488,0,0,1,1.16992,0,.82523.82523,0,0,1-.58985,1.41015.81445.81445,0,0,1-.58007-.24023A.83226.83226,0,0,1,91.91016,122.01Zm.44922,98.50976a.82629.82629,0,0,1-.18946,1.62989,1.26,1.26,0,0,1-.19043-.01953.8273.8273,0,1,1,.37989-1.61036ZM92.97949,218.8a.68233.68233,0,0,1-.20019-.03028.81738.81738,0,0,1-.60938-.98925A.82681.82681,0,1,1,92.97949,218.8Zm.79981-3.36035a.62574.62574,0,0,1-.18946-.01954.82728.82728,0,0,1,.37989-1.61035.83569.83569,0,0,1,.62011,1A.82372.82372,0,0,1,93.7793,215.43964Zm3.54-82.84961a.82473.82473,0,1,1-.82911-.83008A.82526.82526,0,0,1,97.31934,132.59Zm-.40918-15.58985A.82733.82733,0,1,1,97.5,118.4201a.82037.82037,0,0,1-.58984-.24023A.84422.84422,0,0,1,96.91016,117.00018Zm-1.33008,3.67969a.82364.82364,0,0,1-.58985.24023.81445.81445,0,0,1-.58007-.24023.84422.84422,0,0,1,0-1.17969.8323.8323,0,0,1,1.16992,0A.8461.8461,0,0,1,95.58008,120.67987Zm-1.16992,23.82031a.82726.82726,0,0,1,1.16992,1.16992.79487.79487,0,0,1-.58985.25.81445.81445,0,0,1-.58007-.24023A.82647.82647,0,0,1,94.41016,144.50018Zm1.17968,62.59961a.83247.83247,0,0,1-.20019,1.64063.63941.63941,0,0,1-.18945-.03028.82841.82841,0,1,1,.38964-1.61035Zm-.81054,3.36035a.81054.81054,0,0,1,.61035.99024.82949.82949,0,0,1-.79981.63965,1.39011,1.39011,0,0,1-.20019-.01953.84281.84281,0,0,1-.61035-1A.82578.82578,0,0,1,94.7793,210.46014Zm-.36914,38.01954a.8341.8341,0,0,1,1.16992,0,.84729.84729,0,0,1,0,1.18066.8227.8227,0,0,1-.58985.23926.81345.81345,0,0,1-.58007-.23926A.82763.82763,0,0,1,94.41016,248.47968Zm0,25a.8341.8341,0,0,1,1.16992,0,.84729.84729,0,0,1,0,1.18066.8227.8227,0,0,1-.58985.23926.78245.78245,0,0,1-.58007-.25A.83226.83226,0,0,1,94.41016,273.47968Zm1.25976-11.90918a.82473.82473,0,1,1,.82031.81933A.81689.81689,0,0,1,95.66992,261.5705Zm.53028-56.19043a1.24587,1.24587,0,0,1-.19043-.01954.84044.84044,0,0,1-.62012-1,.83128.83128,0,0,1,1.00976-.61035.8276.8276,0,0,1-.19921,1.62989ZM97,202.03046a.69967.69967,0,0,1-.19043-.03028.82381.82381,0,0,1-.60937-1A.828.828,0,1,1,97,202.03046Zm-.08984-55.03028a.8323.8323,0,0,1,1.16992,0,.81488.81488,0,0,1,0,1.16992.83336.83336,0,0,1-.58985.25.78607.78607,0,0,1-.58007-.25A.83226.83226,0,0,1,96.91016,147.00018ZM85.37659,7.23047h1.749L89.93127,11.417V7.23047h1.91407V15.0957H90.10706l-2.81641-4.209v4.209H85.37659Zm-8.876,0h1.60645l3.02539,7.86523H79.07483l-.6709-1.79H76.20374l-.69336,1.79H73.486Zm-3.05432,50.966a.82933.82933,0,0,1-.00977,1.17188,12.92327,12.92327,0,0,0,8.959,22.13476c.03613.001.07226.001.1084.001a12.92346,12.92346,0,0,0,9.208-21.98828.82867.82867,0,1,1,1.18164-1.16211,14.5622,14.5622,0,0,1-9.56542,24.76691V97.58026a.82813.82813,0,1,1-1.65625,0V83.11987a14.56768,14.56768,0,0,1-9.39747-24.93316A.83112.83112,0,0,1,73.44629,58.19647ZM82.49023,279.8996a.82959.82959,0,1,1,.82911-.8291A.82525.82525,0,0,1,82.49023,279.8996Zm.82911,2.6709a.82473.82473,0,1,1-.82911-.83008A.82443.82443,0,0,1,83.31934,282.5705Zm-.82911-6.1709a.82959.82959,0,1,1,.82911-.8291A.83223.83223,0,0,1,82.49023,276.3996Zm0-156.9795a.83008.83008,0,1,1,.82911-.83007A.82609.82609,0,0,1,82.49023,119.4201Zm0-3.5a.83008.83008,0,1,1,.82911-.83007A.82609.82609,0,0,1,82.49023,115.9201Zm0-3.5a.83011.83011,0,1,1,.82911-.83007A.83243.83243,0,0,1,82.49023,112.4201ZM64.75977,207.21991a1.39011,1.39011,0,0,1-.2002-.01953.83353.83353,0,0,1-.60937-1,.82793.82793,0,1,1,1.60937.38965A.83129.83129,0,0,1,64.75977,207.21991ZM64.75,209.93964a.81235.81235,0,0,1-.7998.63086A.6946.6946,0,0,1,63.75,210.55a.82841.82841,0,0,1,.38965-1.61035A.822.822,0,0,1,64.75,209.93964ZM64.16992,132.59a.82473.82473,0,1,1,.82031.83007A.82814.82814,0,0,1,64.16992,132.59Zm1.38965,66.90039a.82577.82577,0,0,1,1-.61035.82628.82628,0,0,1-.18945,1.62988,1.25977,1.25977,0,0,1-.19043-.01953A.82817.82817,0,0,1,65.55957,199.49042Zm3.23047-9.04a1.391,1.391,0,0,1-.2002-.02051.8418.8418,0,1,1,.2002.02051Zm0,2.71972a.83354.83354,0,0,1-.81055.62989,1.24719,1.24719,0,0,1-.18945-.01953.82729.82729,0,0,1,.37988-1.61036A.83007.83007,0,0,1,68.79,193.1701Zm.7998-6.07031a.64462.64462,0,0,1-.19043-.02929.82853.82853,0,0,1,.39063-1.61036.832.832,0,0,1-.2002,1.63965Zm-.17968-41.41992a.84422.84422,0,0,1,0-1.17969.83072.83072,0,0,1,1.16992,1.17969.82364.82364,0,0,1-.58985.24023A.81445.81445,0,0,1,69.41016,145.67987Zm1.16992-25a.82364.82364,0,0,1-.58985.24023.81445.81445,0,0,1-.58007-.24023.84422.84422,0,0,1,0-1.17969.83072.83072,0,0,1,1.16992,1.17969ZM69.31934,132.59a.82959.82959,0,1,1-.82911-.83008A.8273.8273,0,0,1,69.31934,132.59ZM68.08008,118.1701a.79487.79487,0,0,1-.58985.25.78607.78607,0,0,1-.58007-.25.82726.82726,0,1,1,1.16992-1.16992A.81488.81488,0,0,1,68.08008,118.1701Zm-1.16992,28.83008a.8323.8323,0,0,1,1.16992,0,.81488.81488,0,0,1,0,1.16992.78918.78918,0,0,1-.58008.25.835.835,0,0,1-.58984-1.41992Zm.46,48.51953a.8326.8326,0,0,1-.2002,1.64063.64612.64612,0,0,1-.19043-.03027.81538.81538,0,0,1-.60937-1A.83622.83622,0,0,1,67.37012,195.51971Zm-.46,50.46a.83106.83106,0,0,1,1.16992,1.18066.83467.83467,0,0,1-1.16992,0A.84541.84541,0,0,1,66.91016,245.97968Zm1.58007,14.76074a.82472.82472,0,1,1-.83007.83008A.8273.8273,0,0,1,68.49023,260.74042Zm.91993,12.73926a.83106.83106,0,0,1,1.16992,1.18066.83467.83467,0,0,1-1.16992,0A.84541.84541,0,0,1,69.41016,273.47968Zm1.16992-23.83008a.79126.79126,0,0,1-.58985.25.81345.81345,0,0,1-.58007-.23926.84541.84541,0,0,1,0-1.18066.8341.8341,0,0,1,1.16992,0A.81486.81486,0,0,1,70.58008,249.6496Zm-.18067-65.90918a1.53242,1.53242,0,0,1-.19921-.02051.841.841,0,0,1-.61036-1,.82854.82854,0,1,1,.80957,1.02051Zm.81055-3.35059a.70929.70929,0,0,1-.20019-.0293.80123.80123,0,1,1,.20019.0293Zm.7002-38.37988a.81488.81488,0,0,1,1.16992,0,.8341.8341,0,0,1,0,1.16992.82364.82364,0,0,1-.58985.24023.82519.82519,0,0,1-.58007-1.41015Zm0-20a.81488.81488,0,0,1,1.16992,0,.82523.82523,0,0,1-.58985,1.41015.82519.82519,0,0,1-.58007-1.41015Zm.29,53.38965a.817.817,0,0,1,.60937,1,.80449.80449,0,0,1-.7998.63086,1.27548,1.27548,0,0,1-.19043-.02051.8274.8274,0,0,1,.38086-1.61035Zm.87988,76.75a.8334.8334,0,0,1-.58985.25.82489.82489,0,0,1-.58007-.25.81488.81488,0,0,1,0-1.16992.82726.82726,0,0,1,1.16992,1.16992Zm0,20a.8334.8334,0,0,1-.58985.25.82489.82489,0,0,1-.58007-.25.81488.81488,0,0,1,0-1.16992.82726.82726,0,0,1,1.16992,1.16992Zm-.26074-98.46973a.67148.67148,0,0,1-.19922-.03027.81726.81726,0,0,1-.61035-.98926.83919.83919,0,0,1,1-.62012.83193.83193,0,0,1-.19043,1.63965Zm.80078-3.35937a.6034.6034,0,0,1-.19043-.02051.82157.82157,0,0,1-.61035-1,.82841.82841,0,1,1,.80078,1.02051Zm.80957-3.35059a.60985.60985,0,0,1-.18946-.03027.82211.82211,0,1,1,.37989-1.59961.81063.81063,0,0,1,.60937.99023A.82948.82948,0,0,1,74.42969,166.96991Zm.81054-3.35938A.66256.66256,0,0,1,75.04,163.59a.82841.82841,0,1,1,.38965-1.61035.83415.83415,0,0,1,.61035,1A.82123.82123,0,0,1,75.24023,163.61053ZM76.04,160.26a1.2599,1.2599,0,0,1-.19043-.01953.82517.82517,0,0,1-.60938-1,.816.816,0,0,1,1-.61035A.82642.82642,0,0,1,76.04,160.26Zm.80957-3.34961a.71126.71126,0,0,1-.2002-.03027.79717.79717,0,1,1,.2002.03027Zm.7998-3.36035a.626.626,0,0,1-.18945-.01953.82949.82949,0,0,1-.61035-1,.81642.81642,0,0,1,1-.61036.82631.82631,0,0,1-.2002,1.62989Zm.81055-3.34961a1.26063,1.26063,0,0,1-.19043-.02051.832.832,0,0,1,.37988-1.62012.83251.83251,0,0,1-.18945,1.64063Zm.80957-3.36035a.70076.70076,0,0,1-.20019-.01953.84641.84641,0,1,1,.20019.01953ZM62.97131,7.23047h2.87207a2.12843,2.12843,0,0,1,1.50684.62891,2.37753,2.37753,0,0,1,.627,1.60253,2.22472,2.22472,0,0,1-.94629,1.85547l2.84961,3.77832H67.60315l-2.59668-3.40234h-.17578V15.0957H62.97131ZM61.5,131.76a.83015.83015,0,0,1,0,1.66015.83008.83008,0,1,1,0-1.66015ZM52.32385,7.23047h2.96a2.11286,2.11286,0,0,1,1.51758.64062,2.33831,2.33831,0,0,1,.61621,1.59082,2.74776,2.74776,0,0,1-.10937.79493,1.97941,1.97941,0,0,1,.39288.34051l-.00812-.00946.01075.01172-.00263-.00226a2.44393,2.44393,0,0,1,.79462,1.79132,2.63922,2.63922,0,0,1-.792,1.88965,2.73825,2.73825,0,0,1-1.92481.81738H52.32385Zm3.69178,30.03906-.00293-.00586a1.31861,1.31861,0,0,0-.11915-.248.92377.92377,0,0,0-.28808-.29981.47013.47013,0,0,0-.543-.03223.36514.36514,0,0,0-.16406.34473,1.79354,1.79354,0,0,0,.14062.58008,4.41037,4.41037,0,0,1,.26563.9873,1.29194,1.29194,0,0,1-.13379.59961,1.12546,1.12546,0,0,1-.41406.4375,1.22869,1.22869,0,0,1-.68457.17774,1.43537,1.43537,0,0,1-.64356-.22852,1.6665,1.6665,0,0,1-.51758-.5293c-.05468-.08691-.10156-.18652-.15039-.28515a2.44816,2.44816,0,0,1-.14062-1.25879l.02051-.15039.80468.10644-.02148.14942a1.51881,1.51881,0,0,0,.1709,1.01855.93126.93126,0,0,0,.2666.27735.4381.4381,0,0,0,.46191.041.3295.3295,0,0,0,.166-.29785,1.70519,1.70519,0,0,0-.13281-.58984c-.01465-.03418-.03028-.082-.0459-.12989a2.7911,2.7911,0,0,1-.21875-.84375,1.22206,1.22206,0,0,1,.11914-.63379,1.1284,1.1284,0,0,1,.42383-.458,1.21581,1.21581,0,0,1,.72851-.19825,1.47735,1.47735,0,0,1,.68067.24122,1.5622,1.5622,0,0,1,.53027.5498,2.226,2.226,0,0,1,.19043.39648,2.77511,2.77511,0,0,1,.12695,1.419l-.02539.15137-.79883-.13086.02637-.15235A2.00146,2.00146,0,0,0,56.01563,37.26953ZM45.71191,77.51581a12.83872,12.83872,0,0,0-9.10742-3.85938.82814.82814,0,0,1,.00684-1.65625h.00683a14.56423,14.56423,0,0,1,10.75061,24.277l10.71717,10.71716a.82864.82864,0,0,1-1.17188,1.17188L46.1958,97.44794a14.46292,14.46292,0,0,1-9.69287,3.71338c-.04,0-.08008,0-.12109-.001A14.57926,14.57926,0,0,1,21.91992,86.4621a.82838.82838,0,0,1,.82813-.82129h.00683a.828.828,0,0,1,.82129.835A12.9392,12.9392,0,0,0,36.39551,99.50409H36.502a12.92346,12.92346,0,0,0,9.21-21.98828ZM57.67969,52.28906,53.68555,50.627l.3125-.751,3.99414,1.66113Zm-4.32617-.80468.64941.46875-.62207.86132L56.23633,54.874l-.47656.65918-2.8545-2.05957-.62207.86231-.64843-.46973Zm-2.83887,3.33691L54.544,57.126l-.67969.55175-1.08106-.625-1.11328.90528.38672,1.18945-.67285.54883-1.43945-4.41016Zm-3.73633,2.209a1.11892,1.11892,0,0,1,1.42578.64063,1.12034,1.12034,0,0,1-.23437,1.16211l2.293,1.502-.89747.34082-2.18847-1.43066-.32422.12207.751,1.97754-.73829.28027L45.3291,57.58008Zm-3.5625.74707a1.12058,1.12058,0,0,1,1.16309,1.04493,1.18066,1.18066,0,0,1-.083.49121,1.37546,1.37546,0,0,1,.32715.22558,1.4235,1.4235,0,0,1,.48535,1.002,1.45214,1.45214,0,0,1-.375,1.05468,1.46836,1.46836,0,0,1-.4502.34082,1.34623,1.34623,0,0,1-.5459.14356l-1.89257.10156-.23145-4.31934Zm-2.57227-.11718-.79589,4.25293-.80078-.14942.79687-4.252Zm-5.17382-1.8711.793.36914L36.04,59.3877l2.333-2.2461.78808.36719-3.335,3.2207-.668-.31054Zm-21.06739,7.75A97.73437,97.73437,0,0,1,29.22363,51.5293a.82827.82827,0,1,1,.91211,1.38281A96.05862,96.05862,0,0,0,15.56641,64.71875a.82866.82866,0,0,1-1.16407-1.17969Zm13.30957,59.97675a12.83872,12.83872,0,0,0-9.10742-3.85938h-.10742a12.83658,12.83658,0,0,0-9.06152,3.71192.82867.82867,0,1,1-1.16211-1.18164,14.48411,14.48411,0,0,1,10.22363-4.1875c.04,0,.08008,0,.12109.001a14.5497,14.5497,0,0,1,14.42347,13.752H47.5a.82813.82813,0,1,1,0,1.65625H33.03961a14.54758,14.54758,0,0,1-14.5357,13.75195h-.12207a14.488,14.488,0,0,1-10.27539-4.35449.82867.82867,0,1,1,1.18164-1.16211,12.83467,12.83467,0,0,0,9.10742,3.85937c.03515.001.07226.001.10742.001a12.92416,12.92416,0,0,0,9.209-21.98828ZM8.26367,270.80194a.82933.82933,0,0,1,1.17188-.00976,12.92342,12.92342,0,1,0,9.06738-22.13575c-.03613,0-.07129,0-.10742.001a12.83471,12.83471,0,0,0-9.10742,3.85937.82867.82867,0,1,1-1.18164-1.1621,14.488,14.488,0,0,1,10.27539-4.3545h.12207a14.5476,14.5476,0,0,1,14.5357,13.752H47.5a.82813.82813,0,1,1,0,1.65625H33.04163a14.5497,14.5497,0,0,1-14.42347,13.752c-.04.001-.08105.001-.12109.001a14.48583,14.48583,0,0,1-10.22363-4.1875A.82934.82934,0,0,1,8.26367,270.80194Zm6.54688,58.87286a.8293.8293,0,0,1,1.17187-.00781,96.00722,96.00722,0,0,0,14.56934,11.80664.82827.82827,0,0,1-.91211,1.38282,97.68258,97.68258,0,0,1-14.82129-12.00977A.82932.82932,0,0,1,14.81055,329.6748ZM26.20313,351.793l3.85546-2.58106.19239.8545-2.69336,1.79492,3.2041.47558.19043.84864-4.58887-.67481Zm1.30859,3.89844,3.85449-1.96387.37012.72363L27.88184,356.416Zm3.60547,4.40234a1.45354,1.45354,0,0,1-.54492-.14941,1.36519,1.36519,0,0,1-.44825-.34375l-1.23535-1.43848,3.28028-2.81934,1.04492,1.2168a1.11865,1.11865,0,0,1-.11719,1.55859,1.16987,1.16987,0,0,1-.44043.23438,1.36475,1.36475,0,0,1,.02246.39844,1.4243,1.4243,0,0,1-.498.99511A1.45485,1.45485,0,0,1,31.11719,360.09375Zm5.24023.35938a1.11992,1.11992,0,0,1-1.06152.52636l.2168,2.72949-.81836-.5-.208-2.60449-.2959-.18164-1.10254,1.80371-.67285-.41113,2.25488-3.68848,1.32129.80762a1.11879,1.11879,0,0,1,.36621,1.51856Zm3.43653,4.48046-.16407-1.2373-1.39746-.3291-.70508,1.03222-.84668-.19824,2.61426-3.833.71582.168.63574,4.59864Zm3.668.167-.8125.02539-.11132-3.51758-1.06153.03418-.02539-.80078,2.93555-.09278.02539.79981-1.06152.03418Zm2.92872-.43555-1.12208-4.17774.78614-.21093,1.123,4.17676ZM51,362.84961a2.26117,2.26117,0,1,1,.79883-3.09766A2.26015,2.26015,0,0,1,51,362.84961Zm5.05078-4.67383-3.41113-.28906,2.206,1.78027-.51172.63379-3.3623-2.7168.49609-.61328,3.40235.29L52.669,355.4834l.51074-.63281,3.36328,2.71582Zm2.09863-3.9707a2.11718,2.11718,0,0,1-.19824.39258,2.776,2.776,0,0,1-1.04492.96777l-.13672.07129-.38476-.71094.13769-.07324a1.98636,1.98636,0,0,0,.749-.67481l.002-.00585a1.44451,1.44451,0,0,0,.124-.24512.95152.95152,0,0,0,.06152-.41211.47076.47076,0,0,0-.30566-.44922.36375.36375,0,0,0-.374.08105,1.76056,1.76056,0,0,0-.373.46485,4.38475,4.38475,0,0,1-.61914.8125,1.29708,1.29708,0,0,1-.55664.26074,1.13078,1.13078,0,0,1-.59961-.06055,1.23362,1.23362,0,0,1-.55859-.43359,1.42942,1.42942,0,0,1-.21289-.64941,1.67877,1.67877,0,0,1,.10351-.73243,3.02088,3.02088,0,0,1,.13477-.29394,2.45255,2.45255,0,0,1,.91015-.88086l.13086-.07422.40723.70117-.13086.07422a1.52709,1.52709,0,0,0-.70215.75781.919.919,0,0,0-.05664.38086.43553.43553,0,0,0,.25.38965.324.324,0,0,0,.33594-.0498,1.67251,1.67251,0,0,0,.38672-.46485c.01855-.0332.04687-.07422.07519-.11523a2.80061,2.80061,0,0,1,.53418-.69043,1.23688,1.23688,0,0,1,.5752-.291,1.13385,1.13385,0,0,1,.62109.05567,1.2304,1.2304,0,0,1,.60156.45605,1.48374,1.48374,0,0,1,.22559.68653A1.58077,1.58077,0,0,1,58.14941,354.20508Zm-.06347-67.03888L47.36877,297.88336a14.56913,14.56913,0,0,1-10.75061,24.277h-.00683a.82814.82814,0,0,1-.00684-1.65625,12.924,12.924,0,0,0-.10254-25.84766h-.10644a12.94067,12.94067,0,0,0-12.81934,13.0293.828.828,0,0,1-.82129.835h-.00683a.82838.82838,0,0,1-.82813-.82129,14.59782,14.59782,0,0,1,14.46192-14.69922c.04-.001.08105-.001.12109-.001a14.464,14.464,0,0,1,9.69287,3.71338l10.71826-10.71827a.82864.82864,0,1,1,1.17188,1.17188Zm.001-50.001a.82988.82988,0,0,1-1.17187.002L46.1181,226.44781a14.46118,14.46118,0,0,1-9.58,3.71253c-.041.001-.08106.001-.1211.001A14.5801,14.5801,0,0,1,21.83984,215.6994a.828.828,0,0,1,.82129-.835H22.668a.82836.82836,0,0,1,.82812.82129A12.939,12.939,0,0,0,36.418,228.50409h.10644a12.924,12.924,0,0,0-.10253-25.84766.54853.54853,0,0,1-.11329,0,.82814.82814,0,0,1-.00683-1.65625c.041-.001.081-.001.12109-.001a14.56282,14.56282,0,0,1,10.86566,24.27527L58.085,235.99335A.8284.8284,0,0,1,58.08691,237.16522Zm-.002-78.998-10.796,10.71936a14.56833,14.56833,0,0,1-10.86609,24.27478c-.04,0-.08008,0-.12109-.001a.82814.82814,0,0,1,.00683-1.65625.31529.31529,0,0,1,.11329,0,12.924,12.924,0,0,0,.10253-25.84766H36.417a12.923,12.923,0,0,0-12.9209,12.81934.82836.82836,0,0,1-.82812.82129h-.00684a.828.828,0,0,1-.82129-.835A14.58009,14.58009,0,0,1,36.417,163.99921c.04,0,.08008,0,.1211.001a14.461,14.461,0,0,1,9.5805,3.713L56.915,156.99335a.82864.82864,0,0,1,1.16992,1.17383ZM59.05469,47.5293a2.26123,2.26123,0,1,1-1.96485-2.52344A2.26059,2.26059,0,0,1,59.05469,47.5293Zm-4.18653-3.19239-.18457-.76757,2.30762-2.51758-2.752.6582-.18848-.791,4.2041-1.00489.18067.76074L56.126,43.20117l2.75683-.66015.18946.791Zm5.05176,178.633a.82681.82681,0,0,1,1.60938.37988.83038.83038,0,0,1-.79981.64063,1.40505,1.40505,0,0,1-.20019-.02051A.825.825,0,0,1,59.91992,222.96991ZM61.5,262.3996a.82965.82965,0,1,1,.81934-.8291A.81824.81824,0,0,1,61.5,262.3996Zm.83984-42.39942a.83239.83239,0,0,1-.81054.63965.638.638,0,0,1-.18946-.0293.82841.82841,0,0,1,.38965-1.61035A.84152.84152,0,0,1,62.33984,220.00018Zm.79981-3.35058a.82042.82042,0,0,1-.79981.63086.66539.66539,0,0,1-.20019-.02051.82841.82841,0,1,1,1-.61035Zm.81055-3.35938a.83142.83142,0,0,1-.80079.63965.62641.62641,0,0,1-.19921-.03027.82794.82794,0,1,1,.38964-1.60938A.834.834,0,0,1,63.9502,213.29022ZM65,262.3996a.82962.82962,0,1,1,.81934-.8291A.82731.82731,0,0,1,65,262.3996Zm1.35938-59.16992a.81237.81237,0,0,1-.79981.63085.59766.59766,0,0,1-.18945-.0205.82729.82729,0,1,1,.98926-.61035Zm.55078,73.93066a.84541.84541,0,0,1,0-1.18066.83106.83106,0,0,1,1.16992,1.18066.83467.83467,0,0,1-1.16992,0Zm24.2995,95.6322A3.20742,3.20742,0,0,1,88.00226,376H77.536a3.20747,3.20747,0,0,1-3.20746-3.20746V346.46106A3.20747,3.20747,0,0,1,77.536,343.2536H88.00226a3.20742,3.20742,0,0,1,3.2074,3.20746Zm1.68389-36.98572a.82867.82867,0,1,1-1.18164-1.16211,12.92383,12.92383,0,0,0-9.208-21.98828c-.03614,0-.07227,0-.1084.001a12.92308,12.92308,0,0,0-8.959,22.13477.82867.82867,0,0,1-1.16211,1.18164,14.56193,14.56193,0,0,1,9.39747-24.93317V296.58026a.82813.82813,0,0,1,1.65625,0v14.45966a14.56877,14.56877,0,0,1,9.56542,24.7669Zm5.18653-58.64648a.83467.83467,0,0,1-1.16992,0,.84541.84541,0,0,1,0-1.18066.82438.82438,0,0,1,1.16992.01074A.83409.83409,0,0,1,98.08008,277.16034Zm0-30a.81676.81676,0,0,1-.58008.23926.78824.78824,0,0,1-.58984-.25.82729.82729,0,1,1,1.16992.01074Zm.54-49.12012a.82535.82535,0,0,1-.81055.62988.6284.6284,0,0,1-.18945-.0205.82794.82794,0,1,1,1-.60938Zm0-2.71972a.76725.76725,0,0,1-.2002-.03028.819.819,0,0,1-.61035-.99023.84044.84044,0,0,1,1-.62012.83251.83251,0,0,1-.18945,1.64063Zm1.37011,67.0791a.82959.82959,0,1,1,.82911-.8291A.82525.82525,0,0,1,99.99023,262.3996ZM101.04,187.97968a.84541.84541,0,0,1-.81055.63085,1.24919,1.24919,0,0,1-.18945-.0205.82533.82533,0,0,1-.61035-1,.81124.81124,0,0,1,.99023-.61035A.831.831,0,0,1,101.04,187.97968Zm.7998-3.35938a.82947.82947,0,0,1-.7998.63965.678.678,0,0,1-.2002-.03027.82794.82794,0,1,1,.38965-1.60938A.83244.83244,0,0,1,101.83984,184.6203Zm.80957-3.35059a.82343.82343,0,0,1-.80957.62989,1.26,1.26,0,0,1-.19043-.01953.82853.82853,0,1,1,1-.61036ZM103.5,262.3996a.82965.82965,0,1,1,.81934-.8291A.82731.82731,0,0,1,103.5,262.3996Zm1.55957-91.18946a.81469.81469,0,0,1-.7998.62989.6201.6201,0,0,1-.19043-.03028.82331.82331,0,1,1,.99023-.59961Zm.80762,176.52424,3.02539-1.60938-2.82227-.2998.08594-.80957,4.30176.457-.083.78613-3.01758,1.60351,2.81543.29883-.08594.80957-4.30175-.45605Zm.45019,4.80468a2.26158,2.26158,0,1,1,2.74121,1.64844A2.26053,2.26053,0,0,1,106.31738,352.53906Zm1.543,3.83594,3.75586-2.14551.4043.707-3.75684,2.14453Zm4.418,1.69336c.02051.03125.044.07519.06836.11816a2.77467,2.77467,0,0,1,.374.78809,1.23646,1.23646,0,0,1,.001.64551,1.13531,1.13531,0,0,1-.33008.52734,1.22344,1.22344,0,0,1-.67871.33106A1.49925,1.49925,0,0,1,111,360.36914a1.58533,1.58533,0,0,1-.62305-.44043,2.213,2.213,0,0,1-.26172-.35351,2.77642,2.77642,0,0,1-.38964-1.36817l-.00293-.15527.80859-.02051.00293.15527a1.99049,1.99049,0,0,0,.2627.97266l.0039.00391a1.363,1.363,0,0,0,.16406.2207.9396.9396,0,0,0,.33887.24023.46867.46867,0,0,0,.53906-.06836.36533.36533,0,0,0,.09668-.37011,1.7645,1.7645,0,0,0-.24609-.543,4.365,4.365,0,0,1-.44531-.91895,1.298,1.298,0,0,1,.01855-.61425,1.1313,1.1313,0,0,1,.3252-.50684,1.22722,1.22722,0,0,1,.63867-.30176,1.44019,1.44019,0,0,1,.6748.10254,1.695,1.695,0,0,1,.60645.42285,3.13372,3.13372,0,0,1,.20117.25293,2.4608,2.4608,0,0,1,.374,1.209l.00684.15039-.80859.04687-.00782-.15137a1.5198,1.5198,0,0,0-.35742-.96679.9407.9407,0,0,0-.31445-.22266.43816.43816,0,0,0-.46094.04688.32814.32814,0,0,0-.10742.32226A1.69318,1.69318,0,0,0,112.27832,358.06836Zm4.96582,2.51953-1.75586-1.03125-.32226.54981,1.52929.89941-.40918.69629-1.53027-.89746-.65234,1.11035,1.709,1.00293-.40625.69238-2.41113-1.417,2.1914-3.72949,2.458,1.44336Zm-3.35644-52.88946a14.50635,14.50635,0,0,1,3.7174-9.81006l-10.691-10.72315a.828.828,0,1,1,1.17188-1.16992l10.68847,10.72058a14.5007,14.5007,0,0,1,9.57422-3.7157c.04-.001.08008-.001.12012-.001a14.59828,14.59828,0,0,1,14.5791,14.46289.828.828,0,0,1-.82129.835h-.00683a.82838.82838,0,0,1-.82813-.82129,12.9407,12.9407,0,0,0-12.92285-12.81934h-.10645a12.924,12.924,0,0,0,.10254,25.84766c.03809,0,.07129.001.11426,0a.82814.82814,0,0,1,.00684,1.65625c-.041.001-.08106.001-.1211.001a14.58007,14.58007,0,0,1-14.57714-14.46289Zm9.95605,57.40313-1.5752-2.084-.34667.00586.04,2.1123-.79.01563-.08008-4.32227,1.54785-.0293a1.12262,1.12262,0,0,1,1.126,1.085,1.12149,1.12149,0,0,1-.61329,1.01367l1.65039,2.18554Zm5.26367-1.30957-.80664-.9541-1.35351.47852-.03614,1.249-.82031.291.13184-4.6377.69433-.24512,3.0166,3.52735Zm4.56543-2.94726-3.27441-1.0127,1.77539,2.21485-.63477.50976-2.709-3.377.61719-.49414,3.26562,1.01172-1.77148-2.21.63476-.50976,2.709,3.376Zm3.19629-3.85352A2.26365,2.26365,0,1,1,133.5918,354a2.191,2.191,0,0,1,.79687-.37207l.15821-.03906.14355.78808-.13672.03809a1.3956,1.3956,0,0,0-.87207.66016,1.45876,1.45876,0,0,0,2.5,1.5039,1.47227,1.47227,0,0,0,.1582-1.14648l-.77148-.46387-.61035,1.01563-.69336-.417,1.02148-1.69726,1.708,1.02636.01563.0459A2.28237,2.28237,0,0,1,136.86914,356.99121Zm1.56738-3.62109-4.21484-.95117.627-2.77735.76953.17481-.44824,1.98242.62207.13965.38965-1.72754.78809.17773-.39063,1.72754,1.25488.28418.43555-1.92969.78125.17578ZM150.544,330.84668a97.68356,97.68356,0,0,1-14.82129,12.00977.82827.82827,0,0,1-.91211-1.38282A96.00714,96.00714,0,0,0,149.37988,329.667a.82866.82866,0,0,1,1.16407,1.17969Zm6.3496-59.04083a14.488,14.488,0,0,1-10.27539,4.35449h-.12207a14.54758,14.54758,0,0,1-14.5357-13.752H117.5a.82813.82813,0,0,1,0-1.65625h14.45837a14.5497,14.5497,0,0,1,14.42347-13.752c.04-.001.081-.001.12109-.001a14.48579,14.48579,0,0,1,10.22363,4.1875.82867.82867,0,1,1-1.16211,1.18164,12.92342,12.92342,0,1,0-9.06738,22.13574c.03613,0,.07129,0,.10742-.001a12.83467,12.83467,0,0,0,9.10742-3.85937.82867.82867,0,1,1,1.18164,1.16211Zm-.00976-148.2793a.82935.82935,0,0,1-1.17188-.00977,12.83471,12.83471,0,0,0-9.10742-3.85937c-.03515-.001-.07226-.001-.10742-.001a12.924,12.924,0,0,0-.10156,25.84766h.10742a12.83662,12.83662,0,0,0,9.06152-3.71191.82867.82867,0,1,1,1.16211,1.18164,14.48415,14.48415,0,0,1-10.22363,4.1875c-.04,0-.08008,0-.12109-.001a14.5497,14.5497,0,0,1-14.42347-13.75195H117.5a.82813.82813,0,0,1,0-1.65625h14.46039a14.56767,14.56767,0,0,1,24.93316-9.39746A.82932.82932,0,0,1,156.88379,123.52655ZM86.61544,364.10641a1.8211,1.8211,0,0,1-1.10036,1.03443,2.30454,2.30454,0,0,1-.75781.125,2.27836,2.27836,0,0,1-1.04757-.19755,1.8224,1.8224,0,0,1-.58631-.46126,1.41959,1.41959,0,0,1-.28342-.64566,4.30891,4.30891,0,0,1-.05936-.7116q0-.50115.01971-.69189a.5335.5335,0,0,1,.04622-.21749,1.19465,1.19465,0,0,1,.43475-.03942h3.08382a.99665.99665,0,0,1,.21749.01971.19617.19617,0,0,1,.13162.10535.67127.67127,0,0,1,.05936.2569q.013.17139.01337.4744a2.3816,2.3816,0,0,1-.17151.949M81.292,351.28477a.293.293,0,0,1,.107-.19591.5384.5384,0,0,1,.28506-.08915q.196-.01759.55252-.01783a2.80552,2.80552,0,0,1,2.12987.77517,2.88442,2.88442,0,0,1,.73975,2.07661c0,.08212-.01713.25925-.02792.38078-.06827-.00093-.13655-.00187-.20482-.00328q-.28049-.006-.60954-.0305a.15279.15279,0,0,0-.0793.14007.20324.20324,0,0,0,.05514.1647l.21913.0244a1.54864,1.54864,0,0,1,.36577.07906q.1464.05491.1464.11591a.70284.70284,0,0,1-.0732.22546q-.0732.16472-.195.396-.12211.23192-.26207.49387-.14042.26218-.2623.49364-.28049.53669-.57294,1.05437-.29246.51839-.5727,1.00581-.354-.63383-.69494-1.32865-.34137-.69506-.68274-1.37767c-.01643-.03238-.04458-.09315-.08517-.18277q-.06123-.13372-.1281-.28647c-.04481-.10159-.08352-.19684-.1159-.28647a.6652.6652,0,0,1-.04856-.18276c0-.0488.03214-.08728.09736-.11591a2.41673,2.41673,0,0,1,.41458-.10346l.15836-.0244a.21352.21352,0,0,0,.0549-.1708.13.13,0,0,0-.09127-.134q-.25971.02042-.63722.02933v-2.58643a2.50708,2.50708,0,0,1,.01783-.33879m1.00933,9.125q0,.48777-.0122.7801a1.28761,1.28761,0,0,1-.0854.457.48623.48623,0,0,1-.06171.1044l-.00164.00094a2.28069,2.28069,0,0,1-.35826-.09455.59648.59648,0,0,1-.34747-.32072,1.88056,1.88056,0,0,1-.13373-.6506q-.02675-.41844-.02675-1.11373v-2.53786l.63722,1.2416q.13374.2562.21327.43287a1.90019,1.90019,0,0,1,.11567.32916,2.00328,2.00328,0,0,1,.0488.32307q.012.17068.0122.42654Zm5.03092,1.50742q.07917-.2196.15836-.46924.07919-.24987.1464-.48777.06687-.23755.10371-.39627a.19006.19006,0,0,0-.14031-.10956.18463.18463,0,0,0-.1647.0244,5.7135,5.7135,0,0,1-.46924.7801,1.47265,1.47265,0,0,1-.396.40237,1.31,1.31,0,0,1-.2257.08517,1.791,1.791,0,0,1-.30478.0549q-.17665.0183-.42653.0305t-.60343.0122q-.40226,0-.66444-.0244a3.33536,3.33536,0,0,1-.42044-.06077,1.05175,1.05175,0,0,1-.24987-.0854.43794.43794,0,0,1-.1403-.1098.846.846,0,0,1-.18887-.46924,6.04929,6.04929,0,0,1-.0427-.79864v-.8045c.00188-.11145.00516-.21.00986-.29445a1.92568,1.92568,0,0,1,.06687-.42043,2.12129,2.12129,0,0,1,.1708-.41457c.0183-.035.03894-.07273.06076-.11239.02933-.00093.05983-.0014.09385-.0014h.70714q.35334,0,.579.0122a1.77977,1.77977,0,0,1,.35967.04856.42955.42955,0,0,1,.26207.1708.8698.8698,0,0,1,.11591.29257l.10956.47534a.18505.18505,0,0,0,.16447.0549.17527.17527,0,0,0,.1525-.0671q0-.20729-.0244-.52414-.02464-.31709-.0244-.64614,0-.35333.0244-.6825.02429-.3294.0244-.54877a.177.177,0,0,0-.1525-.0671.18632.18632,0,0,0-.16447.0549l-.09737.5a.76186.76186,0,0,1-.1159.31087.38648.38648,0,0,1-.17666.11567,1.72,1.72,0,0,1-.378.0549q-.26853.0183-.65834.0183h-.55089l.0122-.02018.76791-1.32864q.23121-.39029.42067-.72544a6.5676,6.5676,0,0,1,.37163-.59124,2.10491,2.10491,0,0,1,.378-.41433,1.00407,1.00407,0,0,1,.08305-.06007.99485.99485,0,0,1,.46783.37281,1.379,1.379,0,0,1,.1586.32894q.06052.183.134.40237a.16529.16529,0,0,0,.1586.0488.18114.18114,0,0,0,.14616-.0732q-.02463-.195-.04246-.44484-.01864-.24987-.04293-.48754c-.01619-.1586-.03754-.30007-.05467-.42677a3.82193,3.82193,0,0,1-.03285-.58114,3.21009,3.21009,0,0,0-1.46754-2.6784,4.20837,4.20837,0,0,0-1.46143-.55253,10.53447,10.53447,0,0,0-1.96047-.16048q-1.123,0-1.96938.02675-.84674.02675-1.55974.1159a.22336.22336,0,0,0-.11567.20482.29673.29673,0,0,0,.08024.24072l.64145.07132a1.56932,1.56932,0,0,1,.47251.1159.49921.49921,0,0,1,.24941.294,1.94421,1.94421,0,0,1,.09807.57036q.01758.35649.01782.92674v6.57681q0,.69471-.01782,1.11373a1.77458,1.77458,0,0,1-.12482.6506.6054.6054,0,0,1-.32073.32072,2.52647,2.52647,0,0,1-.606.14265l-.37445.05349a.27673.27673,0,0,0-.07321.22172c-.00046.19074-.00257.25127-.00656.46618q-.00635.36918-.03355.82539c.01806.04481.06921.07156.15437.08071a.19312.19312,0,0,0,.18136-.05373l.04012-.282a1.90386,1.90386,0,0,1,.10746-.4561.45576.45576,0,0,1,.24166-.24166,1.33216,1.33216,0,0,1,.48988-.09431q.31533-.013.839-.01314h1.69113a.84018.84018,0,0,1,.168.01314.12064.12064,0,0,1,.087.07414.56934.56934,0,0,1,.03378.18769c.00423.08517.00658.20341.00658.35568a1.40224,1.40224,0,0,1-.10066.60414.9011.9011,0,0,1-.32894.34912q-.22839.16117-.50325.3355-.27555.17421-.55041.34888-.2752.17455-.53024.33573-.25515.16085-.443.29515a7.44823,7.44823,0,0,0-.839.67805,2.97045,2.97045,0,0,0-.51663.63746,2.23535,2.23535,0,0,0-.26183.67781,3.88419,3.88419,0,0,0-.07367.78526,1.98121,1.98121,0,0,0,.06686.59054.10914.10914,0,0,0,.18817-.01337,1.766,1.766,0,0,1,.12739-.50983,1.56512,1.56512,0,0,1,.24846-.41621,5.18941,5.18941,0,0,1,.63746-.65787q.35544-.30864.78527-.63089.42934-.322.96639-.6642.53669-.34244,1.1813-.74515a.83955.83955,0,0,1,.16776-.08728.14659.14659,0,0,1,.15437.02018,2.74833,2.74833,0,0,0,.28177.54361,2.90461,2.90461,0,0,0,.46314.54384,2.41036,2.41036,0,0,0,.64426.42279,2.04383,2.04383,0,0,0,.85237.16775,2.01053,2.01053,0,0,0,1.16793-.31556,2.218,2.218,0,0,0,.71136-.79864,2.9594,2.9594,0,0,0,.32894-1.04006,9.0776,9.0776,0,0,0,.07367-1.20172,5.063,5.063,0,0,1,.137-1.27538" style="fill: #252626"/>
    <polygon points="77.303 10.279 76.929 11.428 77.667 11.428 77.303 10.279" style="fill: #252626"/>
    <path d="M56.60413,12.38867c0-.4414-.374-.68457-.8252-.707h-1.5625V13.207h1.5625A.824.824,0,0,0,56.60413,12.38867Z" style="fill: #252626"/>
    <path d="M122.6543,361.58887l-.75879.01465.01172.63086.75879-.01368a.316.316,0,1,0-.01172-.63183Z" style="fill: #252626"/>
    <path d="M42.60938,61.34375l1.0791-.05762a.67462.67462,0,0,0,.61425-.70117.6626.6626,0,0,0-.67773-.62109l-1.08594.05761Z" style="fill: #252626"/>
    <polygon points="127.008 361.328 126.979 362.454 127.735 362.187 127.008 361.328" style="fill: #252626"/>
    <path d="M47.46582,57.95117a.31788.31788,0,0,0-.40723-.18359l-.71093.27051.22558.59082.71-.26953A.31681.31681,0,0,0,47.46582,57.95117Z" style="fill: #252626"/>
    <polygon points="52.031 56.629 51.057 56.066 51.409 57.135 52.031 56.629" style="fill: #252626"/>
  </g>
  <g>
    <g>
      <circle cx="22.896" cy="7" r="5.73633" style="fill: #bcbcbc"/>
      <path d="M22.89617,1.52747A5.47253,5.47253,0,1,1,17.42364,7a5.47874,5.47874,0,0,1,5.47253-5.47253m0-.52747a6,6,0,1,0,6,6,6,6,0,0,0-6-6Z" style="fill: gray"/>
    </g>
    <polygon points="26.391 6.341 23.556 6.341 23.556 3.505 22.237 3.505 22.237 6.341 19.402 6.341 19.402 7.659 22.237 7.659 22.237 10.495 23.556 10.495 23.556 7.659 26.391 7.659 26.391 6.341" style="fill: #6e6e6e"/>
  </g>
  <g>
    <g>
      <circle cx="141.89648" cy="7" r="5.73633" style="fill: #bcbcbc"/>
      <path d="M141.89616,1.52747A5.47253,5.47253,0,1,1,136.42363,7a5.47874,5.47874,0,0,1,5.47253-5.47253m0-.52747a6,6,0,1,0,6,6,6,6,0,0,0-6-6Z" style="fill: gray"/>
    </g>
    <polygon points="145.391 6.341 142.556 6.341 142.556 3.505 141.237 3.505 141.237 6.341 138.402 6.341 138.402 7.659 141.237 7.659 141.237 10.495 142.556 10.495 142.556 7.659 145.391 7.659 145.391 6.341" style="fill: #6e6e6e"/>
  </g>
  <g>
    <g>
      <circle cx="23" cy="373" r="5.73633" style="fill: #bcbcbc"/>
      <path d="M23,367.52747A5.47253,5.47253,0,1,1,17.52751,373,5.47873,5.47873,0,0,1,23,367.52747M23,367a6,6,0,1,0,6,6,6,6,0,0,0-6-6Z" style="fill: gray"/>
    </g>
    <polygon points="26.495 372.341 23.659 372.341 23.659 369.505 22.341 369.505 22.341 372.341 19.506 372.341 19.506 373.659 22.341 373.659 22.341 376.495 23.659 376.495 23.659 373.659 26.495 373.659 26.495 372.341" style="fill: #6e6e6e"/>
  </g>
  <g>
    <g>
      <circle cx="142" cy="373" r="5.73633" style="fill: #bcbcbc"/>
      <path d="M142,367.52747A5.47253,5.47253,0,1,1,136.52751,373,5.47873,5.47873,0,0,1,142,367.52747M142,367a6,6,0,1,0,6,6,6,6,0,0,0-6-6Z" style="fill: gray"/>
    </g>
    <polygon points="145.495 372.341 142.659 372.341 142.659 369.505 141.341 369.505 141.341 372.341 138.506 372.341 138.506 373.659 141.341 373.659 141.341 376.495 142.659 376.495 142.659 373.659 145.495 373.659 145.495 372.341" style="fill: #6e6e6e"/>
  </g>
  <g>
    <path d="M140.97949,83.33025h0a.82746.82746,0,0,1,.58985-1.00976h0a.82523.82523,0,0,1,1.01074.59961h0a.8279.8279,0,0,1-.58985,1.00976h0a.73716.73716,0,0,1-.21093.02051h0A.8216.8216,0,0,1,140.97949,83.33025ZM139.71,80.21014a.83905.83905,0,0,1,.30957-1.12989h0a.82105.82105,0,0,1,1.12988.30957h0a.82252.82252,0,0,1-.30957,1.12989h0a.86.86,0,0,1-.40039.11035h0A.84715.84715,0,0,1,139.71,80.21014Zm-2.03027-2.69043a.8352.8352,0,0,1,.00976-1.17969h0a.82344.82344,0,0,1,1.16993.00976h0a.82343.82343,0,0,1-.00977,1.16993h0a.81782.81782,0,0,1-.58008.24023h0A.84022.84022,0,0,1,137.67969,77.51971Zm-2.66016-2.08008a.829.829,0,0,1-.29-1.12989h0a.82382.82382,0,0,1,1.12989-.2998h0a.83238.83238,0,0,1,.30078,1.13965h0a.84491.84491,0,0,1-.72071.40039h0A.80083.80083,0,0,1,135.01953,75.43963Zm-3.09961-1.31934h0a.8325.8325,0,0,1-.58008-1.02051h0a.83268.83268,0,0,1,1.01954-.58007h0a.83692.83692,0,0,1,.58007,1.0205h0a.82963.82963,0,0,1-.7998.60938h0A.8497.8497,0,0,1,131.91992,74.12029Z" style="fill: #1f86cc"/>
    <path d="M157.93945,140.26971a.8372.8372,0,0,1-.2998-1.13965h.00976a.8294.8294,0,0,1,1.12989-.29h0a.82767.82767,0,0,1,.29,1.12988h0a.826.826,0,0,1-.71.41016h0A.87491.87491,0,0,1,157.93945,140.26971Zm1.60059-3.2295a.81741.81741,0,0,1-.58008-1.0205h0v.01074h0a.8196.8196,0,0,1,1.01953-.58008h0a.82123.82123,0,0,1,.58008,1.00977v.00976a.842.842,0,0,1-.7998.60059h0A.79126.79126,0,0,1,159.54,137.04021Zm.70019-3.5205a.83385.83385,0,0,1-.82031-.83985h0a.83377.83377,0,0,1,.83985-.81933h0a.83448.83448,0,0,1,.82031.83984h0a.8394.8394,0,0,1-.83008.81934h-.00977Zm-1.23046-4.18946a.81893.81893,0,0,1,.59961-1h0a.81225.81225,0,0,1,1,.58985h0a.82229.82229,0,0,1-.58985,1.00976h0a.73766.73766,0,0,1-.21.03028h0A.82885.82885,0,0,1,159.00977,129.33025ZM157.75,126.21014a.82335.82335,0,0,1,.30957-1.12989h0a.82334.82334,0,0,1,1.12988.30957h0a.83817.83817,0,0,1-.30957,1.12989h0a.86676.86676,0,0,1-.41015.11035h0A.819.819,0,0,1,157.75,126.21014Z" style="fill: #ff4257"/>
    <path d="M131.14941,192.09978A.8382.8382,0,0,1,131.75,191.09h0a.83441.83441,0,0,1,1.00977.59961h0a.84284.84284,0,0,1-.59961,1.01074h0a1.5525,1.5525,0,0,1-.2002.01953h0A.833.833,0,0,1,131.14941,192.09978Zm3.41016-1.14941a.82077.82077,0,0,1,.31055-1.12012h0A.82151.82151,0,0,1,136,190.13982h0a.82366.82366,0,0,1-.31055,1.12989h0a.85229.85229,0,0,1-.41015.10058h0A.82125.82125,0,0,1,134.55957,190.95037Zm3-1.99023a.82431.82431,0,0,1,0-1.16993h0a.82341.82341,0,0,1,1.16992.00977h0a.81488.81488,0,0,1-.00976,1.16992h0a.79575.79575,0,0,1-.57032.24024h0A.7949.7949,0,0,1,137.55957,188.96014Zm2.37012-2.69043a.829.829,0,0,1-.29-1.12989h0a.82381.82381,0,0,1,1.12988-.2998h0a.83348.83348,0,0,1,.29981,1.13965h0a.83031.83031,0,0,1-.71973.40039h0A.80092.80092,0,0,1,139.92969,186.26971ZM141.54,183.05a.82425.82425,0,0,1-.58008-1.01953h0a.8319.8319,0,0,1,1.01953-.58008h0a.83634.83634,0,0,1,.58008,1.01953h0a.83918.83918,0,0,1-.7998.61035h0A.75638.75638,0,0,1,141.54,183.05Z" style="fill: #e57fc6"/>
    <path d="M32.51953,192.63982a.83067.83067,0,0,1-.56933-1.01953h0a.81918.81918,0,0,1,1.01953-.58008h0a.81852.81852,0,0,1,.57031,1.01953h0a.82626.82626,0,0,1-.79981.60059h0A1.85514,1.85514,0,0,1,32.51953,192.63982Zm-3.5-1.49023a.83822.83822,0,0,1-.29-1.13965h0a.8294.8294,0,0,1,1.12989-.29h0a.82327.82327,0,0,1,.30078,1.12988h0a.833.833,0,0,1-.72071.41016h0A.80083.80083,0,0,1,29.01953,191.14959Zm-3-2.33985a.8555.8555,0,0,1,.00977-1.17968h0a.84634.84634,0,0,1,1.18066.00976h0a.84736.84736,0,0,1-.00976,1.18067h0a.88072.88072,0,0,1-.59082.22949h0A.85738.85738,0,0,1,26.01953,188.80974Zm-2.29-3.04h0a.83586.83586,0,0,1,.32031-1.12989h0a.821.821,0,0,1,1.12012.31055h0a.82158.82158,0,0,1-.31054,1.12988h0a.86645.86645,0,0,1-.39942.10938h0A.84664.84664,0,0,1,23.72949,185.76971Zm-1.42969-3.5293h0a.835.835,0,0,1,.59961-1.01074h0a.83559.83559,0,0,1,1.01075.60058h0a.8429.8429,0,0,1-.60059,1.00977h0a1.53146,1.53146,0,0,1-.20019.02051h0A.84312.84312,0,0,1,22.2998,182.24041Z" style="fill: #e57fc6"/>
    <path d="M5.80957,139.76971a.83544.83544,0,0,1,.31055-1.13965h0a.83584.83584,0,0,1,1.12988.32031h0a.82411.82411,0,0,1-.31055,1.12988h0a.87385.87385,0,0,1-.41015.10938h0A.83957.83957,0,0,1,5.80957,139.76971Zm-1.42969-3.5293a.82524.82524,0,0,1,.59961-1.01074h0a.81356.81356,0,0,1,1,.59082h0a.81878.81878,0,0,1-.58984,1.00976h0a.77955.77955,0,0,1-.21.03028h0A.8309.8309,0,0,1,4.37988,136.24041Zm.36035-2.9502a.81322.81322,0,0,1-.82031-.83007h0a.826.826,0,0,1,.83008-.82032h0a.81837.81837,0,0,1,.81934.83008h0a.81689.81689,0,0,1-.81934.82031H4.74023Zm.2793-3.58007a.83328.83328,0,0,1-.58008-1.02051h0a.83267.83267,0,0,1,1.02051-.5791h0A.83179.83179,0,0,1,6.04,129.13006h0a.83225.83225,0,0,1-.79981.61035h0A.85847.85847,0,0,1,5.01953,129.71014Zm1.2002-3.38965a.8209.8209,0,0,1-.29-1.13086h0a.8238.8238,0,0,1,1.12988-.29981h0a.823.823,0,0,1,.29,1.14063h.00977a.85308.85308,0,0,1-.71973.40918h0A.82076.82076,0,0,1,6.21973,126.32049Z" style="fill: #ff4257"/>
    <path d="M23.01953,83.70037a.82887.82887,0,0,1-.58008-1.02051h0A.81855.81855,0,0,1,23.46,82.11053h0A.82739.82739,0,0,1,24.04,83.13006h0a.8254.8254,0,0,1-.79981.59961h0A.59919.59919,0,0,1,23.01953,83.70037Zm1.2002-3.37988a.8419.8419,0,0,1-.29-1.14063h0a.82939.82939,0,0,1,1.12988-.29h0a.82214.82214,0,0,1,.29981,1.12989h0a.819.819,0,0,1-.71973.41015h0A.94726.94726,0,0,1,24.21973,80.32049Zm2.04-2.96a.83438.83438,0,0,1,.00976-1.1709h0a.83816.83816,0,0,1,1.18067,0h0a.84643.84643,0,0,1-.01075,1.18066h0a.83938.83938,0,0,1-.58007.22949h0A.86637.86637,0,0,1,26.25977,77.36053ZM29,75.01971a.82381.82381,0,0,1,.30957-1.12989h0a.841.841,0,0,1,1.12988.31055h0a.8384.8384,0,0,1-.30957,1.12988h0a.76648.76648,0,0,1-.41015.10938h0A.817.817,0,0,1,29,75.01971Zm3.24023-1.54981a.83363.83363,0,0,1,.59961-1.00976v.00976a.82836.82836,0,0,1,1.00977.58984h0A.84285.84285,0,0,1,33.25,74.07049h0a.76932.76932,0,0,1-.2002.02929h0A.84.84,0,0,1,32.24023,73.4699Z" style="fill: #1f86cc"/>
    <path d="M131.33984,321.05974a.82752.82752,0,0,1,.58008-1.01953h0a.81851.81851,0,0,1,1.01953.57032h0a.82751.82751,0,0,1-.58007,1.01953h0a.84549.84549,0,0,1-.21973.03027h0A.82455.82455,0,0,1,131.33984,321.05974Zm3.38965-1.19921a.83094.83094,0,0,1,.29-1.14063h0a.8419.8419,0,0,1,1.14063.29h0a.83419.83419,0,0,1-.30078,1.13965h0a.77571.77571,0,0,1-.41993.11035h0A.818.818,0,0,1,134.72949,319.86053Zm2.96-2.04a.83645.83645,0,0,1-.00976-1.18067h0a.83319.83319,0,0,1,1.16992-.00976h0a.83518.83518,0,0,1,.00977,1.17968h0a.83854.83854,0,0,1-.58985.24024h0A.85431.85431,0,0,1,137.68945,317.82049Zm2.33008-2.74024a.842.842,0,0,1-.30957-1.12988h0a.82365.82365,0,0,1,1.12988-.31055h0a.823.823,0,0,1,.30957,1.12989h0a.817.817,0,0,1-.71972.41992h0A.87689.87689,0,0,1,140.01953,315.08025Zm1.54981-3.24023a.82836.82836,0,0,1-.58985-1.00977h0a.83875.83875,0,0,1,1.01074-.60058h0a.84282.84282,0,0,1,.59961,1.01074h0a.84108.84108,0,0,1-.81054.62988h0A.74762.74762,0,0,1,141.56934,311.84Z" style="fill: #1f86cc"/>
    <path d="M158.05957,269.08025a.8238.8238,0,0,1-.30957-1.12988h0a.82136.82136,0,0,1,1.12988-.31055h0a.83866.83866,0,0,1,.30957,1.12989h0a.84931.84931,0,0,1-.71972.41992h0A.87689.87689,0,0,1,158.05957,269.08025Zm1.54981-3.25a.8224.8224,0,0,1-.59961-1.00976h0a.8245.8245,0,0,1,1.00976-.59082h0a.81937.81937,0,0,1,.58985,1.01074h0a.81971.81971,0,0,1-.79.62012h0A.78506.78506,0,0,1,159.60938,265.83025Zm-.18946-4.35058a.82765.82765,0,0,1,.82031-.83985h0a.83511.83511,0,0,1,.83985.82032h0A.84284.84284,0,0,1,160.25,262.3h0A.8261.8261,0,0,1,159.41992,261.47967Zm-.46-3.34961a.816.816,0,0,1,.58008-1.01953h0a.83653.83653,0,0,1,1.01953.5791h0a.83249.83249,0,0,1-.58008,1.02051h0a.926.926,0,0,1-.22949.03027h0A.81922.81922,0,0,1,158.96,258.13006Zm-1.32031-3.09961h.00976a.82679.82679,0,0,1,.29-1.14063h0a.82337.82337,0,0,1,1.12989.29981h0a.82007.82007,0,0,1-.29,1.13086h0a.81818.81818,0,0,1-.41992.11914h0A.84207.84207,0,0,1,157.63965,255.03045Z" style="fill: #ff4257"/>
    <path d="M140.96,212.13006a.81786.81786,0,0,1,.56934-1.01953h0a.81276.81276,0,0,1,1.0205.5791h0v-.00977h0a.83359.83359,0,0,1-.57031,1.03028h0a.87473.87473,0,0,1-.21972.01953h0A.82369.82369,0,0,1,140.96,212.13006Zm-1.32031-3.11035a.8294.8294,0,0,1,.29-1.12989h0a.8405.8405,0,0,1,1.13965.29h0a.8344.8344,0,0,1-.29981,1.14063h0a.773.773,0,0,1-.41015.10937h0A.82008.82008,0,0,1,139.63965,209.01971Zm-2.08008-2.64942a.84642.84642,0,0,1-.00977-1.18066h0a.837.837,0,0,1,1.17969,0h0a.83439.83439,0,0,1,.01074,1.1709h0a.87039.87039,0,0,1-.60058.23925h0A.8068.8068,0,0,1,137.55957,206.37029Zm-2.68945-2.04a.82159.82159,0,0,1-.31055-1.12988h0a.84145.84145,0,0,1,1.12988-.31055h0A.82412.82412,0,0,1,136,204.01971h0a.81969.81969,0,0,1-.7207.41992h0A.76322.76322,0,0,1,134.87012,204.33025ZM131.75,203.07049a.84347.84347,0,0,1-.60059-1.01075h0a.835.835,0,0,1,1.01075-.5996h0v.00976h0a.82738.82738,0,0,1,.59961,1h0a.83191.83191,0,0,1-.80957.62012h0A.72808.72808,0,0,1,131.75,203.07049Z" style="fill: #e57fc6"/>
    <path d="M22.89941,212.92986a.834.834,0,0,1-.59961-1.00976h.00977a.81907.81907,0,0,1,1-.59961h0a.8341.8341,0,0,1,.60059,1.00976h0a.8302.8302,0,0,1-.80078.62012h0A.73394.73394,0,0,1,22.89941,212.92986ZM24.04,209.51971a.841.841,0,0,1-.31055-1.12989h0a.82381.82381,0,0,1,1.12989-.30957h0a.82136.82136,0,0,1,.31054,1.12989h0a.82012.82012,0,0,1-.71972.41992h0A.86381.86381,0,0,1,24.04,209.51971Zm1.98926-3a.82516.82516,0,0,1,0-1.16993h0a.83439.83439,0,0,1,1.1709-.00976h0a.84608.84608,0,0,1,.00976,1.17969h0a.85741.85741,0,0,1-.58984.24023h0A.86147.86147,0,0,1,26.0293,206.51971Zm2.70019-2.37012a.83867.83867,0,0,1,.29-1.13965h0a.83612.83612,0,0,1,1.14063.2998h0a.83119.83119,0,0,1-.29,1.12989h0a.82737.82737,0,0,1-.41992.11035h0A.83308.83308,0,0,1,28.72949,204.14959Zm3.22071-1.60938a.81442.81442,0,0,1,.56933-1.00976h0a.81439.81439,0,0,1,1.02051.56933h0a.81912.81912,0,0,1-.57031,1.02051h0a.9304.9304,0,0,1-.2295.0293h0A.8183.8183,0,0,1,31.9502,202.54021Z" style="fill: #e57fc6"/>
    <path d="M5.92969,268.9699h0a.82939.82939,0,0,1,.29-1.12988h0a.82917.82917,0,0,1,1.12988.29h.00977a.833.833,0,0,1-.29981,1.13965h0a.90453.90453,0,0,1-.41992.11035h0A.82717.82717,0,0,1,5.92969,268.9699Zm-1.49024-3.5a.82784.82784,0,0,1,.58008-1.01953h0a.82484.82484,0,0,1,1.02051.58008v-.01074a.82885.82885,0,0,1-.58008,1.0205h0a.857.857,0,0,1-.21973.03028h0A.83524.83524,0,0,1,4.43945,265.4699Zm-.51953-3.76953a.82749.82749,0,0,1,.82031-.83984h0a.82648.82648,0,0,1,.82911.8291h0a.81837.81837,0,0,1-.81934.83008h0A.8259.8259,0,0,1,3.91992,261.70037Zm1.04981-2.77051a.82229.82229,0,0,1-.58985-1.00976h0a.82318.82318,0,0,1,1.00977-.58985h0A.81793.81793,0,0,1,5.97949,258.34h0a.82246.82246,0,0,1-.7998.62012h0A.74265.74265,0,0,1,4.96973,258.92986Zm1.15039-3.41015a.82137.82137,0,0,1-.31055-1.12989h0a.8393.8393,0,0,1,1.12988-.30957h0A.841.841,0,0,1,7.25,255.21014h0a.84872.84872,0,0,1-.73047.41992h0A.755.755,0,0,1,6.12012,255.51971Z" style="fill: #ff4257"/>
    <path d="M32.83984,321.70037h0a.8342.8342,0,0,1-.59961-1.01074h0A.84134.84134,0,0,1,33.25,320.09h0a.83363.83363,0,0,1,.59961,1.00976h0a.82824.82824,0,0,1-.79981.62012h0A1.52555,1.52555,0,0,1,32.83984,321.70037Zm-3.53027-1.43066A.82335.82335,0,0,1,29,319.13982h0a.82105.82105,0,0,1,1.12988-.30957h0a.82908.82908,0,0,1,.30957,1.12012h0a.819.819,0,0,1-.71972.41992h0A.855.855,0,0,1,29.30957,320.26971Zm-3.04-2.29981A.83319.83319,0,0,1,26.25977,316.8h0a.84429.84429,0,0,1,1.17968-.00977h0a.83329.83329,0,0,1,.01075,1.16993h0a.83572.83572,0,0,1-.60059.25h0A.85225.85225,0,0,1,26.26953,317.9699Zm-2.33984-2.99023a.83867.83867,0,0,1,.29-1.13965h0a.83474.83474,0,0,1,1.13965.2998h0a.82389.82389,0,0,1-.29981,1.12989h0a.76541.76541,0,0,1-.41016.11035h0A.83146.83146,0,0,1,23.92969,314.97967Zm-1.49024-3.50977v.00977h0a.843.843,0,0,1,.58008-1.0293h0a.83249.83249,0,0,1,1.02051.58008h0A.83268.83268,0,0,1,23.46,312.05h0a.76581.76581,0,0,1-.21973.03027h0A.83252.83252,0,0,1,22.43945,311.4699Z" style="fill: #1f86cc"/>
  </g>
  <g>
    <path d="M89.0498,57.42986a.81739.81739,0,0,1-.29-1.12988h0a.82939.82939,0,0,1,1.12988-.29h0a.81092.81092,0,0,1,.29,1.12988h0a.82717.82717,0,0,1-.71.41016h0A.81268.81268,0,0,1,89.0498,57.42986ZM75,57.01971a.83.83,0,0,1,.30957-1.12989h0a.82136.82136,0,0,1,1.12988.31055h0a.82379.82379,0,0,1-.30957,1.12988h0a.87686.87686,0,0,1-.41015.10938h0A.817.817,0,0,1,75,57.01971Zm10.9502-.89942a.81742.81742,0,0,1-.58008-1.02051h0a.83267.83267,0,0,1,1.01953-.58007h0a.83248.83248,0,0,1,.58008,1.0205h0a.84283.84283,0,0,1-.80957.60938h0A.77267.77267,0,0,1,85.9502,56.12029ZM78.25,55.4699a.82316.82316,0,0,1,.58984-1.00976h0a.82943.82943,0,0,1,1.00977.5996h0a.81968.81968,0,0,1-.58984,1h0v.01075h0a1.52711,1.52711,0,0,1-.21.01953h0A.82246.82246,0,0,1,78.25,55.4699Zm4.35938.19043a.85062.85062,0,0,1-.83008-.83984h0a.82958.82958,0,0,1,.84082-.82032h0a.83225.83225,0,0,1,.81933.83008h0a.83441.83441,0,0,1-.83007.83008Z" style="fill: #e5e5e5"/>
    <path d="M81.7793,339.34a.8365.8365,0,0,1,.83008-.83985h0a.83892.83892,0,0,1,.83007.82032h0a.8344.8344,0,0,1-.81933.83984h-.01074A.84024.84024,0,0,1,81.7793,339.34Zm-2.93946.36035a.82815.82815,0,0,1-.58984-1.01074h0a.82453.82453,0,0,1,1.00977-.59961h0a.83537.83537,0,0,1,.58984,1.00976h0a.82.82,0,0,1-.79981.62012h0A1.52555,1.52555,0,0,1,78.83984,339.70037Zm6.53028-.64063a.81274.81274,0,0,1,.58008-1.01953h0a.83635.83635,0,0,1,1.01953.58008h0a.82168.82168,0,0,1-.58008,1.00977h0a.91216.91216,0,0,1-.21973.03027h0A.82454.82454,0,0,1,85.37012,339.05974Zm-10.06055-.79A.82335.82335,0,0,1,75,337.13982h0a.82334.82334,0,0,1,1.12988-.30957h0a.82105.82105,0,0,1,.30957,1.12989h0a.819.819,0,0,1-.71972.41992h0A.8668.8668,0,0,1,75.30957,338.26971Zm13.4502-.40918a.83009.83009,0,0,1,.29-1.14063h0a.82359.82359,0,0,1,1.12989.29981h0a.81955.81955,0,0,1-.29,1.12988h0a.81262.81262,0,0,1-.41992.12012h0A.82622.82622,0,0,1,88.75977,337.86053Z" style="fill: #e5e5e5"/>
    <g>
      <path d="M35.26953,22.23827a1.31558,1.31558,0,0,0-1.37012-1.16309,1.8415,1.8415,0,0,0-1.69824,2.06445,1.8415,1.8415,0,0,0,1.69824,2.06446,1.44288,1.44288,0,0,0,1.40821-1.37989h.59082a1.97115,1.97115,0,0,1-1.999,1.877,2.31775,2.31775,0,0,1-2.28906-2.56153,2.31858,2.31858,0,0,1,2.28906-2.5625,1.81118,1.81118,0,0,1,1.96192,1.66114Z" style="fill: #e5e5e5"/>
      <path d="M41.0625,23.13963a2.304,2.304,0,1,1-4.5791,0,2.30409,2.30409,0,1,1,4.5791,0Zm-3.98828,0a1.73113,1.73113,0,1,0,3.39746,0,1.73112,1.73112,0,1,0-3.39746,0Z" style="fill: #e5e5e5"/>
      <path d="M41.95605,18.86034h.5918v6.70019h-.5918Z" style="fill: #e5e5e5"/>
      <path d="M43.69336,18.86034h.5918v6.70019h-.5918Z" style="fill: #e5e5e5"/>
      <path d="M45.43066,18.86034h.5918v.94726h-.5918Zm0,1.8584h.5918v4.84179h-.5918Z" style="fill: #e5e5e5"/>
      <path d="M51.419,25.56053h-.544v-.91992h-.01855a1.91905,1.91905,0,0,1-1.72657,1.06055c-1.47363,0-2.17773-1.19141-2.17773-2.56153s.7041-2.5625,2.17773-2.5625a1.72863,1.72863,0,0,1,1.67969,1.06055h.01856V18.86034H51.419Zm-2.28907-.35644c1.25684,0,1.69825-1.06055,1.69825-2.06446s-.44141-2.06445-1.69825-2.06445c-1.127,0-1.58593,1.06055-1.58593,2.06445S48.00293,25.20409,49.12988,25.20409Z" style="fill: #e5e5e5"/>
      <path d="M52.55664,18.86034h.5918v.94726h-.5918Zm0,1.8584h.5918v4.84179h-.5918Z" style="fill: #e5e5e5"/>
      <path d="M54.27539,20.71874h.59082v.835h.01953a1.64163,1.64163,0,0,1,1.54785-.97657c1.36036,0,1.77344.71387,1.77344,1.86817v3.11523h-.59082V22.53905c0-.835-.27246-1.46387-1.22949-1.46387a1.529,1.529,0,0,0-1.52051,1.66113v2.82422h-.59082Z" style="fill: #e5e5e5"/>
      <path d="M63.418,25.166c-.00879,1.44531-.5625,2.32813-2.14844,2.32813-.9668,0-1.92383-.43164-2.00879-1.46485h.5918a1.27264,1.27264,0,0,0,1.417.9668c1.08789,0,1.55762-.64746,1.55762-1.83008v-.65625h-.01856a1.67877,1.67877,0,0,1-1.53906.99414c-1.54883,0-2.18652-1.10742-2.18652-2.48633a2.21516,2.21516,0,0,1,2.18652-2.44043,1.70555,1.70555,0,0,1,1.53906.97657h.01856v-.835H63.418Zm-.59082-2.083c0-.94726-.44141-2.00781-1.55762-2.00781-1.126,0-1.5957,1.00391-1.5957,2.00781,0,.97559.50683,1.92383,1.5957,1.92383C62.292,25.00682,62.82715,24.06834,62.82715,23.083Z" style="fill: #e5e5e5"/>
      <path d="M70.05664,22.13573A1.11451,1.11451,0,0,0,68.79,21.07518c-.52637,0-1.14551.20606-1.14551.835,0,.52539.60059.71289,1.00391.81641l.78906.17871a1.418,1.418,0,0,1,1.37891,1.3418c0,1.05078-1.041,1.4541-1.94239,1.4541a1.75413,1.75413,0,0,1-1.98925-1.708h.59082a1.2767,1.2767,0,0,0,1.42675,1.21094c.55371,0,1.32325-.24414,1.32325-.91992,0-.5625-.52539-.751-1.06055-.88184l-.75977-.16895c-.76953-.207-1.35156-.46972-1.35156-1.29492,0-.98535.9668-1.36133,1.82031-1.36133a1.58688,1.58688,0,0,1,1.77344,1.5586Z" style="fill: #e5e5e5"/>
      <path d="M71.61621,22.20116c.05664-1.13574.85352-1.624,1.96094-1.624.85449,0,1.7832.2627,1.7832,1.5586V24.707a.315.315,0,0,0,.34766.35644.56024.56024,0,0,0,.1875-.03808v.498a1.67054,1.67054,0,0,1-.38477.03711c-.60058,0-.69433-.33789-.69433-.84472h-.01953a1.84463,1.84463,0,0,1-1.76368.98535c-.8916,0-1.624-.44141-1.624-1.417,0-1.36036,1.32324-1.40723,2.59961-1.55762.48828-.05664.76074-.12207.76074-.65723,0-.79687-.57324-.99414-1.26758-.99414-.73144,0-1.27539.33789-1.29492,1.126Zm3.15332.71289H74.75c-.07422.14062-.33691.1875-.49707.21582-1.00391.17871-2.252.16894-2.252,1.11719a1.00841,1.00841,0,0,0,1.0791.957,1.55754,1.55754,0,0,0,1.68945-1.52051Z" style="fill: #e5e5e5"/>
      <path d="M76.5459,20.71874h.54394v.8164h.02832a1.69093,1.69093,0,0,1,1.58594-.958,1.34717,1.34717,0,0,1,1.38867.94825,1.63756,1.63756,0,0,1,1.53907-.94825c1.06054,0,1.60449.55371,1.60449,1.69922v3.28418h-.59082V22.30467c0-.79785-.30078-1.22949-1.14551-1.22949-1.02246,0-1.31348.84473-1.31348,1.74512v2.74023H79.5957V22.27635c.00879-.65722-.26269-1.20117-1.01367-1.20117-1.02344,0-1.43555.76953-1.44531,1.78223v2.70312H76.5459Z" style="fill: #e5e5e5"/>
      <path d="M84.36621,20.71874h.544v.91894h.01855a1.81406,1.81406,0,0,1,1.72656-1.06055c1.47364,0,2.17774,1.19239,2.17774,2.5625s-.7041,2.56153-2.17774,2.56153a1.72773,1.72773,0,0,1-1.67968-1.06055H84.957v2.71191h-.59082Zm2.28906.35644c-1.30371,0-1.69824.96582-1.69824,2.06445,0,1.00391.44141,2.06446,1.69824,2.06446,1.126,0,1.58594-1.06055,1.58594-2.06446S87.78125,21.07518,86.65527,21.07518Z" style="fill: #e5e5e5"/>
      <path d="M89.76367,18.86034h.5918v6.70019h-.5918Z" style="fill: #e5e5e5"/>
      <path d="M91.83887,23.29881a1.71783,1.71783,0,0,0,1.5957,1.90528,1.4744,1.4744,0,0,0,1.51953-1.23926h.5918a1.97763,1.97763,0,0,1-2.11133,1.73633c-1.53906,0-2.18652-1.18262-2.18652-2.56153,0-1.27636.64746-2.5625,2.18652-2.5625,1.55762,0,2.17676,1.36133,2.12988,2.72168Zm3.13476-.49707a1.62707,1.62707,0,0,0-1.53906-1.72656,1.71831,1.71831,0,0,0-1.5957,1.72656Z" style="fill: #e5e5e5"/>
      <path d="M98.919,22.20116c.05664-1.13574.85351-1.624,1.96093-1.624.8545,0,1.78321.2627,1.78321,1.5586V24.707a.315.315,0,0,0,.34765.35644.56019.56019,0,0,0,.1875-.03808v.498a1.67039,1.67039,0,0,1-.38476.03711c-.60059,0-.69434-.33789-.69434-.84472h-.01953a1.84461,1.84461,0,0,1-1.76367.98535c-.8916,0-1.624-.44141-1.624-1.417,0-1.36036,1.32325-1.40723,2.59961-1.55762.48828-.05664.76075-.12207.76075-.65723,0-.79687-.57325-.99414-1.26758-.99414-.73145,0-1.27539.33789-1.29492,1.126Zm3.15332.71289h-.01954c-.07421.14062-.33691.1875-.49707.21582-1.0039.17871-2.252.16894-2.252,1.11719a1.00841,1.00841,0,0,0,1.0791.957,1.55756,1.55756,0,0,0,1.68946-1.52051Z" style="fill: #e5e5e5"/>
      <path d="M103.83887,20.71874h.59082v.835h.01953a1.64163,1.64163,0,0,1,1.54785-.97657c1.36035,0,1.77344.71387,1.77344,1.86817v3.11523h-.59082V22.53905c0-.835-.27246-1.46387-1.22949-1.46387a1.529,1.529,0,0,0-1.52051,1.66113v2.82422h-.59082Z" style="fill: #e5e5e5"/>
      <path d="M113.15039,25.56053h-.54394v-.91992h-.01856a1.91905,1.91905,0,0,1-1.72656,1.06055c-1.47363,0-2.17774-1.19141-2.17774-2.56153s.70411-2.5625,2.17774-2.5625a1.72863,1.72863,0,0,1,1.67969,1.06055h.01855V18.86034h.59082Zm-2.28906-.35644c1.25683,0,1.69824-1.06055,1.69824-2.06446s-.44141-2.06445-1.69824-2.06445c-1.12695,0-1.58594,1.06055-1.58594,2.06445S109.73438,25.20409,110.86133,25.20409Z" style="fill: #e5e5e5"/>
      <path d="M116.87988,18.86034h.59082V21.5537h.01953a1.64164,1.64164,0,0,1,1.54786-.97657c1.36035,0,1.77343.71387,1.77343,1.86817v3.11523h-.59082V22.53905c0-.835-.27246-1.46387-1.22949-1.46387a1.529,1.529,0,0,0-1.52051,1.66113v2.82422h-.59082Z" style="fill: #e5e5e5"/>
      <path d="M126.2666,23.13963a2.304,2.304,0,1,1-4.5791,0,2.30409,2.30409,0,1,1,4.5791,0Zm-3.98828,0a1.73113,1.73113,0,1,0,3.39746,0,1.73112,1.73112,0,1,0-3.39746,0Z" style="fill: #e5e5e5"/>
      <path d="M127.16016,18.86034h.59179v6.70019h-.59179Z" style="fill: #e5e5e5"/>
      <path d="M133.14844,25.56053h-.54395v-.91992h-.01855a1.91905,1.91905,0,0,1-1.72656,1.06055c-1.47364,0-2.17774-1.19141-2.17774-2.56153s.7041-2.5625,2.17774-2.5625a1.72862,1.72862,0,0,1,1.67968,1.06055h.01856V18.86034h.59082Zm-2.28906-.35644c1.25683,0,1.69824-1.06055,1.69824-2.06446s-.44141-2.06445-1.69824-2.06445c-1.127,0-1.58594,1.06055-1.58594,2.06445S129.73242,25.20409,130.85938,25.20409Z" style="fill: #e5e5e5"/>
    </g>
    <g>
      <path d="M2.5,23.83006a.82031.82031,0,0,1-.83008-.82031.84648.84648,0,0,1,.24024-.58984.8633.8633,0,0,1,1.17968,0,.946.946,0,0,1,.16993.26953.716.716,0,0,1,.07031.32031.80968.80968,0,0,1-.06055.30957,1.24117,1.24117,0,0,1-.17969.27051A.8236.8236,0,0,1,2.5,23.83006Z" style="fill: #e5e5e5"/>
      <path d="M20.9502,23.00975a.82731.82731,0,0,1,.8291-.83008h0a.82753.82753,0,0,1,.83008.83008h0a.82547.82547,0,0,1-.83008.82031h0A.82525.82525,0,0,1,20.9502,23.00975Zm-4.82032,0a.82814.82814,0,0,1,.83008-.83008h0a.82814.82814,0,0,1,.83008.83008h0a.82609.82609,0,0,1-.83008.82031h0A.82609.82609,0,0,1,16.12988,23.00975Zm-4.82031,0a.82814.82814,0,0,1,.83008-.83008h0a.82814.82814,0,0,1,.83008.83008h0a.82609.82609,0,0,1-.83008.82031h0A.82609.82609,0,0,1,11.30957,23.00975Zm-4.81934,0a.82732.82732,0,0,1,.82911-.83008h0a.82813.82813,0,0,1,.83007.83008h0a.82608.82608,0,0,1-.83007.82031h0A.82526.82526,0,0,1,6.49023,23.00975Z" style="fill: #e5e5e5"/>
      <path d="M26.59961,23.83006a.81328.81328,0,0,1-.30957-.06054.82112.82112,0,0,1-.4502-.4502.81869.81869,0,0,1-.07031-.30957.87773.87773,0,0,1,.07031-.32031.80042.80042,0,0,1,.17969-.26953.711.711,0,0,1,.27051-.17969.85576.85576,0,0,1,.62988,0,.83184.83184,0,0,1,.4502.44922.8675.8675,0,0,1,.05957.32031.8089.8089,0,0,1-.05957.30957.82938.82938,0,0,1-.4502.4502A.86831.86831,0,0,1,26.59961,23.83006Z" style="fill: #e5e5e5"/>
    </g>
    <g>
      <path d="M138.05957,23.83006a.81332.81332,0,0,1-.30957-.06054A.843.843,0,0,1,137.22949,23a.80958.80958,0,0,1,.25-.58008.64334.64334,0,0,1,.27051-.17969.85125.85125,0,0,1,.89941.17969A.84093.84093,0,0,1,138.88965,23a.82309.82309,0,0,1-.05957.31933.79758.79758,0,0,1-.18067.27051A.822.822,0,0,1,138.05957,23.83006Z" style="fill: #e5e5e5"/>
      <path d="M156.7793,23.00975a.82814.82814,0,0,1,.83008-.83008h0a.82813.82813,0,0,1,.83007.83008h0a.82608.82608,0,0,1-.83007.82031h0A.82609.82609,0,0,1,156.7793,23.00975Zm-4.87989,0a.82814.82814,0,0,1,.83008-.83008h0a.82609.82609,0,0,1,.82031.83008h0a.824.824,0,0,1-.82031.82031h0A.82609.82609,0,0,1,151.89941,23.00975Zm-4.88964,0a.82813.82813,0,0,1,.83007-.83008h0a.83441.83441,0,0,1,.83008.83008h0a.83243.83243,0,0,1-.83008.82031h0A.82608.82608,0,0,1,147.00977,23.00975Zm-4.88965,0a.82814.82814,0,0,1,.83008-.83008h0a.82731.82731,0,0,1,.8291.83008h0a.82525.82525,0,0,1-.8291.82031h0A.82609.82609,0,0,1,142.12012,23.00975Z" style="fill: #e5e5e5"/>
      <path d="M162.5,23.83983a.79158.79158,0,0,1-.58008-.25.87249.87249,0,0,1-.19043-.27051.8089.8089,0,0,1-.05957-.30957.8675.8675,0,0,1,.05957-.32031,1.0154,1.0154,0,0,1,.19043-.26953.67981.67981,0,0,1,.25977-.17969.88145.88145,0,0,1,.63965,0,.67593.67593,0,0,1,.26074.17969,1.01163,1.01163,0,0,1,.18945.26953.86832.86832,0,0,1,.06055.32031.80968.80968,0,0,1-.06055.30957.86974.86974,0,0,1-.18945.27051A.79478.79478,0,0,1,162.5,23.83983Z" style="fill: #e5e5e5"/>
    </g>
  </g>
</svg>
