<?xml version="1.0" encoding="utf-8"?>
<!-- Generator: Adobe Illustrator 23.0.3, SVG Export Plug-In . SVG Version: 6.00 Build 0)  -->
<svg version="1.0" id="Layer_1" xmlns="http://www.w3.org/2000/svg" xmlns:xlink="http://www.w3.org/1999/xlink" x="0px" y="0px"
	 viewBox="0 0 75 380" enable-background="new 0 0 75 380" xml:space="preserve">
<g id="bg">
	
		<linearGradient id="SVGID_1_" gradientUnits="userSpaceOnUse" x1="-73.95747" y1="301.84171" x2="148.01607" y2="79.86816" gradientTransform="matrix(1 0 0 -1 0 382)">
		<stop  offset="0.38537" style="stop-color:#FFCC9E"/>
		<stop  offset="0.62112" style="stop-color:#F1AD8C"/>
		<stop  offset="0.85662" style="stop-color:#E6947E"/>
		<stop  offset="1" style="stop-color:#E28B79"/>
	</linearGradient>
	<rect x="2.59818" y="3.60264" fill="url(#SVGID_1_)" width="68.86223" height="375.08487"/>
	<g>
		<path fill="#252626" d="M42.32666,359.72339c-0.1626,0.31671-0.31885,0.5769-0.46924,0.78009
			c-0.15039,0.20343-0.28247,0.3374-0.396,0.4024c-0.06519,0.03259-0.14014,0.06073-0.22559,0.08514
			c-0.08521,0.02441-0.18701,0.04266-0.30493,0.05487c-0.11768,0.01221-0.26001,0.02252-0.42651,0.03052
			c-0.1665,0.00824-0.36768,0.01221-0.60352,0.01221c-0.26807,0-0.4895-0.008-0.66431-0.02441
			c-0.1748-0.01617-0.3147-0.03656-0.42041-0.06073c-0.10571-0.02466-0.18921-0.05304-0.24976-0.08545
			c-0.06104-0.03235-0.10791-0.06897-0.14038-0.1098c-0.09766-0.10553-0.1604-0.26202-0.18896-0.46924
			c-0.02856-0.2074-0.04272-0.47345-0.04272-0.79858v-0.8045c0.00195-0.11145,0.00537-0.21002,0.01001-0.29449
			c0.00781-0.15015,0.03027-0.29047,0.06665-0.42041c0.03662-0.13,0.09351-0.26843,0.1709-0.41455
			c0.01831-0.03497,0.03906-0.07275,0.06079-0.11243c0.0293-0.00092,0.05981-0.0014,0.09399-0.0014h0.70703
			c0.2356,0,0.42871,0.00403,0.5791,0.01221c0.15015,0.008,0.27002,0.02417,0.35962,0.04858
			c0.12183,0.03259,0.20898,0.0896,0.26196,0.17078c0.05273,0.08118,0.09131,0.17877,0.11597,0.2926l0.10962,0.47534
			c0.03223,0.04077,0.08716,0.05884,0.16455,0.05487c0.07715-0.00397,0.12793-0.02625,0.15234-0.06708
			c0-0.13818-0.0083-0.31274-0.02441-0.52417c-0.01636-0.21136-0.02441-0.42676-0.02441-0.64612
			c0-0.23553,0.00806-0.46313,0.02441-0.6825c0.01611-0.2196,0.02441-0.4024,0.02441-0.54877
			c-0.02441-0.04034-0.0752-0.06287-0.15234-0.06714c-0.07739-0.00372-0.13232,0.01434-0.16455,0.05493l-0.09741,0.49994
			c-0.03247,0.15442-0.07129,0.25812-0.11597,0.31091s-0.10352,0.09125-0.17676,0.11566
			c-0.073,0.02441-0.19922,0.04266-0.37793,0.05487c-0.17896,0.01221-0.39819,0.01831-0.6582,0.01831h-0.55078
			c0.00415-0.00677,0.00781-0.01312,0.01221-0.0202l0.76782-1.32861c0.15405-0.26019,0.29443-0.50183,0.42065-0.72546
			c0.12573-0.22333,0.24976-0.42065,0.37158-0.59119c0.12207-0.17059,0.2478-0.30878,0.37793-0.41437
			c0.0271-0.02179,0.05469-0.0415,0.08301-0.06006c0.08276,0.03284,0.15527,0.07153,0.21802,0.11682
			c0.10156,0.073,0.18481,0.15839,0.25,0.25598c0.06494,0.09735,0.11768,0.20715,0.15845,0.32892
			c0.04053,0.12201,0.08521,0.25623,0.13403,0.4024c0.03247,0.04083,0.08545,0.05701,0.15869,0.04877
			c0.073-0.00793,0.12183-0.03235,0.146-0.07318c-0.01636-0.13-0.03052-0.27826-0.04224-0.44482
			c-0.0127-0.16656-0.02686-0.32916-0.04297-0.48755c-0.01636-0.15857-0.0376-0.30005-0.05469-0.42676
			c-0.04248-0.31348-0.03296-0.58118-0.03296-0.58118c0-0.61749-0.17529-1.15735-0.44263-1.60925
			c-0.26733-0.45135-0.60913-0.80774-1.0249-1.06915c-0.41602-0.26135-0.90308-0.4455-1.46143-0.55249
			c-0.55859-0.10699-1.21191-0.16046-1.96045-0.16046s-1.40527,0.00891-1.96948,0.02673
			c-0.56445,0.01782-1.08423,0.05652-1.55957,0.11591c-0.07104,0.03564-0.10986,0.10413-0.11572,0.20477
			c-0.0061,0.10114,0.02026,0.1814,0.08032,0.24072l0.64136,0.07135c0.2019,0.02393,0.35913,0.06238,0.47241,0.11591
			c0.11279,0.05328,0.19604,0.15131,0.24951,0.29395c0.05347,0.1427,0.08594,0.3327,0.09814,0.57037
			c0.01172,0.23767,0.01758,0.54669,0.01758,0.92676v6.57678c0,0.46313-0.00586,0.83478-0.01758,1.11377
			c-0.01221,0.27942-0.05371,0.49622-0.125,0.65057s-0.17822,0.26135-0.32056,0.32074
			c-0.14282,0.05957-0.34497,0.10699-0.6062,0.14264l-0.37427,0.05347c-0.0542,0.0542-0.07837,0.12836-0.07324,0.22174
			c-0.00049,0.19073-0.00269,0.25128-0.00659,0.46619c-0.00439,0.24609-0.01563,0.52106-0.03369,0.82538
			c0.01807,0.0448,0.06934,0.07159,0.15454,0.08069c0.08496,0.00873,0.14551-0.00909,0.1814-0.05371l0.04004-0.28198
			c0.02686-0.19684,0.0625-0.34888,0.10742-0.45612c0.04492-0.10748,0.12524-0.18793,0.2417-0.24164
			c0.11621-0.05377,0.2793-0.08545,0.48975-0.09436c0.21045-0.00867,0.48999-0.01312,0.83911-0.01312h1.69116
			c0.07153,0,0.12769,0.00446,0.16797,0.01312c0.04004,0.00891,0.06934,0.03381,0.08691,0.07416
			c0.01807,0.0401,0.0293,0.10278,0.03394,0.18768c0.00415,0.08521,0.00659,0.20343,0.00659,0.35571
			c0,0.26862-0.03369,0.46991-0.10059,0.60413c-0.06714,0.13422-0.17676,0.25055-0.3291,0.34912
			c-0.15234,0.10742-0.31982,0.21912-0.50317,0.33551c-0.18384,0.11615-0.36719,0.23248-0.55054,0.34888
			c-0.18335,0.11633-0.36011,0.22827-0.53027,0.33575c-0.16992,0.10718-0.31763,0.20575-0.44287,0.2951
			c-0.34009,0.2417-0.61987,0.46759-0.83887,0.67804c-0.21924,0.21027-0.39136,0.42279-0.5166,0.63745
			c-0.12549,0.21472-0.21265,0.44061-0.26196,0.67786c-0.04907,0.23718-0.07373,0.49878-0.07373,0.78528
			c0,0.25946,0.02222,0.45654,0.06689,0.59052c0.0271,0.03589,0.06055,0.05157,0.10083,0.04712
			c0.04028-0.00464,0.06934-0.02484,0.0874-0.06049c0.01758-0.17902,0.0603-0.34888,0.12744-0.50983
			c0.06689-0.16119,0.14966-0.30011,0.24854-0.4162c0.18774-0.23279,0.40015-0.4519,0.63721-0.6579
			c0.23706-0.20575,0.49902-0.41595,0.7854-0.63086c0.28613-0.21472,0.6084-0.43616,0.96631-0.66425
			c0.35791-0.22827,0.75171-0.47675,1.1814-0.74512c0.05371-0.03589,0.10938-0.065,0.16772-0.08728
			c0.05786-0.02252,0.10962-0.01575,0.1543,0.02014c0.0625,0.16986,0.15649,0.35126,0.28198,0.54364
			c0.125,0.19238,0.27954,0.37372,0.46289,0.54382c0.18359,0.16986,0.39819,0.31067,0.64429,0.42279
			c0.24634,0.11169,0.53027,0.16772,0.85254,0.16772c0.47437,0,0.86353-0.10529,1.16772-0.31555
			c0.3042-0.21021,0.5415-0.4765,0.71143-0.79865c0.16992-0.31317,0.27979-0.65997,0.3291-1.04004
			c0.04883-0.38055,0.07544-0.78107,0.07349-1.20172c-0.00317-0.77942,0.13696-1.27539,0.13696-1.27539
			c0.05298-0.14636,0.10547-0.30261,0.15845-0.46924c0.05298-0.16656,0.10156-0.32916,0.14648-0.48773
			c0.04468-0.15839,0.0791-0.29047,0.10376-0.3963c-0.02466-0.05652-0.07129-0.09314-0.14038-0.10956
			C42.42236,359.6828,42.36768,359.6908,42.32666,359.72339z M37.19238,359.65442c0,0.32513-0.00439,0.58514-0.01221,0.78009
			c-0.0083,0.19495-0.03662,0.34747-0.08545,0.45703c-0.01733,0.03943-0.03809,0.07416-0.06152,0.10443
			c-0.00049,0.00018-0.00146,0.00067-0.00171,0.00092c-0.14209-0.02722-0.26172-0.05865-0.3584-0.09454
			c-0.1604-0.05939-0.27612-0.16638-0.34741-0.32074s-0.11597-0.37115-0.13379-0.65057
			c-0.01782-0.27899-0.02661-0.65063-0.02661-1.11377v-2.53784l0.63721,1.24158c0.08911,0.17084,0.16016,0.31512,0.21313,0.43292
			c0.05273,0.11798,0.09131,0.22754,0.11572,0.32916c0.02441,0.10181,0.04053,0.20923,0.04883,0.32306
			c0.00781,0.11377,0.01221,0.25598,0.01221,0.42651C37.19238,359.03265,37.19238,359.65442,37.19238,359.65442z M37.229,356.28998
			c-0.22754-0.46338-0.45508-0.9223-0.68286-1.37769c-0.01636-0.03235-0.04443-0.09314-0.08521-0.18274
			c-0.04077-0.08917-0.0835-0.18469-0.12793-0.2865c-0.04492-0.10156-0.0835-0.19684-0.11597-0.28644
			c-0.03247-0.08942-0.04858-0.15039-0.04858-0.1828c0-0.04877,0.03223-0.08728,0.09741-0.11591
			c0.06494-0.02838,0.20313-0.06287,0.41455-0.10345l0.15845-0.02441c0.04053-0.04059,0.05884-0.0976,0.05469-0.17078
			c-0.00415-0.073-0.03467-0.1178-0.09106-0.13397c-0.1731,0.01361-0.3855,0.02344-0.63721,0.0293v-2.58643
			c0-0.14264,0.00586-0.25549,0.01782-0.33875c0.01172-0.08282,0.04736-0.14832,0.10693-0.19592
			c0.05933-0.04736,0.15405-0.07721,0.28516-0.08917c0.13062-0.01172,0.3147-0.01782,0.55249-0.01782
			c0.92651,0,1.63647,0.2583,2.12964,0.77521c0.49316,0.51685,0.73975,1.20923,0.73975,2.0766
			c0,0.08209-0.01709,0.25922-0.02783,0.3808c-0.06836-0.00098-0.13647-0.00189-0.20483-0.0033
			c-0.18677-0.00403-0.39014-0.01434-0.60938-0.03052c-0.04883,0.02441-0.0752,0.07111-0.07935,0.14008
			c-0.00391,0.06921,0.01416,0.12408,0.05518,0.16467l0.21899,0.02441c0.14648,0.01617,0.26831,0.04272,0.36597,0.0791
			c0.09741,0.03656,0.14624,0.07526,0.14624,0.11584s-0.02441,0.11591-0.07324,0.22552
			c-0.04883,0.1098-0.11377,0.24188-0.19482,0.396c-0.08154,0.1546-0.16895,0.31934-0.26221,0.4939
			c-0.09351,0.1748-0.18115,0.33948-0.26221,0.49359c-0.18701,0.35785-0.37769,0.70905-0.573,1.05438
			c-0.19482,0.34564-0.38599,0.68091-0.57275,1.0058C37.68799,357.19604,37.4563,356.75311,37.229,356.28998z M41.50659,363.35101
			c-0.11426,0.26349-0.26587,0.48102-0.45483,0.65228s-0.40381,0.2984-0.64551,0.3822c-0.24194,0.0835-0.49438,0.125-0.75781,0.125
			c-0.44824,0-0.79736-0.06567-1.04761-0.19751c-0.25049-0.13184-0.44604-0.28552-0.58643-0.46124
			c-0.14966-0.19336-0.2439-0.40851-0.28345-0.64569s-0.05933-0.47443-0.05933-0.71161c0-0.33411,0.00684-0.56451,0.01978-0.69189
			c0.01343-0.12762,0.02832-0.19989,0.04614-0.21747c0.03491-0.02655,0.17993-0.03943,0.43481-0.03943h3.08374
			c0.08789,0,0.1604,0.00659,0.21753,0.01971c0.05688,0.01312,0.10083,0.0481,0.13159,0.10535
			c0.03076,0.05701,0.05054,0.14264,0.05933,0.2569s0.01343,0.2724,0.01343,0.47443
			C41.67798,362.77106,41.62061,363.08759,41.50659,363.35101z"/>
		<path fill="#252626" d="M28.1748,221.4502c0.25977-0.625-0.05176-1.35156-0.69727-1.61914l-0.53418-0.22363l-0.94434,2.26855
			l0.53516,0.22363C27.17969,222.36719,27.91602,222.07617,28.1748,221.4502z"/>
		<path fill="#252626" d="M37.5,178.03711c-7.14746,0-12.96289,5.81543-12.96289,12.96289S30.35254,203.96289,37.5,203.96289
			S50.46289,198.14746,50.46289,191S44.64746,178.03711,37.5,178.03711z M34.32813,201.11938
			c0,0.45801-0.37012,0.82813-0.82813,0.82813s-0.82813-0.37012-0.82813-0.82813v-20.23926
			c0-0.45801,0.37012-0.82813,0.82813-0.82813s0.82813,0.37012,0.82813,0.82813V201.11938z"/>
		<path fill="#252626" d="M32.77539,246.44727l0.49316-0.47363l-0.39355-0.40918l-0.49414,0.47266
			c-0.1084,0.10742-0.11719,0.28906-0.00684,0.40234C32.48438,246.55371,32.66602,246.55371,32.77539,246.44727z"/>
		<path fill="#252626" d="M34.84961,237.93262c-0.16895,0.67871,0.22949,1.3623,0.88574,1.52637
			c0.6582,0.16406,1.3291-0.25391,1.49902-0.93164l0.13965-0.56152l-2.38477-0.59473L34.84961,237.93262z"/>
		<path fill="#252626" d="M27.06641,281.66113c0.45313,0.56152,1.27539,0.64746,1.83203,0.2002
			c0.55664-0.44922,0.64453-1.27148,0.19141-1.83398c-0.45605-0.56445-1.27832-0.65234-1.83496-0.20313
			C26.69922,280.27441,26.61133,281.0957,27.06641,281.66113z"/>
		<path fill="#252626" d="M34.94531,228.17578c-0.6709,0.26563-1,1.02344-0.73828,1.68848
			c0.26172,0.66602,1.02051,0.99707,1.69141,0.73242c0.67578-0.2666,1.00488-1.02344,0.74316-1.68945
			C36.38086,228.24023,35.62207,227.91113,34.94531,228.17578z"/>
		<path fill="#252626" d="M37.0293,233.25781l0.03516,0.68262c0.00684,0.15332,0.13965,0.27734,0.29785,0.26855
			c0.15723-0.00684,0.27637-0.14551,0.26953-0.29785l-0.03516-0.68164L37.0293,233.25781z"/>
		<path fill="#252626" d="M23.03711,191c0-7.71521,6.07764-14.02063,13.69434-14.42395v-4.62115
			c-9.94507,0.39697-18.04199,8.45184-18.30762,18.54315c-0.27515,10.43469,7.92651,19.15076,18.32617,19.55902v-4.6322
			C29.12476,205.03088,23.03711,198.72144,23.03711,191z"/>
		<path fill="#252626" d="M24.04492,81.30469l-0.37305,0.57129l0.47461,0.31055l0.37402-0.57031
			c0.08398-0.12891,0.0498-0.30664-0.08203-0.39258C24.30664,81.13672,24.12988,81.17773,24.04492,81.30469z"/>
		<path fill="#252626" d="M31.38086,113.70117c0.09961-0.12402,0.0752-0.30371-0.04395-0.39941l-0.53223-0.42676l-0.35547,0.44434
			l0.5332,0.42578C31.10059,113.84082,31.28125,113.8252,31.38086,113.70117z"/>
		<path fill="#252626" d="M35.73633,133.3291l0.31152-0.60742l-0.50391-0.25977l-0.31152,0.60742
			c-0.07129,0.13574-0.01953,0.30957,0.12207,0.38184C35.49414,133.52441,35.66699,133.46484,35.73633,133.3291z"/>
		<path fill="#252626" d="M6.63477,228.44043l-0.2793,0.65234l0.50684,0.21777l0.27832-0.65234
			c0.06055-0.14063-0.00684-0.30078-0.14258-0.3584C6.86328,228.24121,6.7041,228.30371,6.63477,228.44043z"/>
		<path fill="#252626" d="M8.67383,228.39551c-0.29004-0.125-0.64063,0.00977-0.76953,0.29785l-0.38574,0.89941l1.09375,0.46875
			l0.38184-0.89258C9.1123,228.86816,8.96973,228.52344,8.67383,228.39551z"/>
		<path fill="#252626" d="M6.79199,122.11719c0.67871,0.24414,1.42578-0.10645,1.66895-0.7793
			c0.24121-0.67285-0.11035-1.41992-0.78711-1.66504c-0.68164-0.24512-1.42969,0.10645-1.67188,0.77734
			C5.75977,121.12305,6.11035,121.87012,6.79199,122.11719z"/>
		<polygon fill="#252626" points="6.77051,233.54004 6.85449,232.8252 5.875,233.07324 		"/>
		<polygon fill="#252626" points="65.74512,264.54883 65.33496,265.14063 66.31543,265.38281 		"/>
		<path fill="#252626" d="M52.96875,294.48633c-0.0166,0.15234,0.0957,0.28516,0.24707,0.30078
			c0.15234,0.0166,0.2959-0.09473,0.31152-0.24219l0.07227-0.66016l-0.55859-0.05957L52.96875,294.48633z"/>
		<path fill="#252626" d="M51.5332,287.30371c0.61719-0.27637,0.8877-1.02246,0.60156-1.66016l-0.2373-0.52637l-2.24219,1.00586
			l0.2373,0.52832C50.17871,287.28906,50.91504,287.58203,51.5332,287.30371z"/>
		<polygon fill="#252626" points="64.46387,245.29297 63.54102,245.70801 64.05176,246.2168 		"/>
		<path fill="#252626" d="M0,0v380h75V0H0z M68.73535,249.52637c0.00977,0.30957-0.06055,0.63184-0.19531,0.91309l-0.05566,0.12988
			l-0.65527-0.31543l0.05859-0.12305c0.17871-0.37402,0.16895-0.80078-0.0293-1.17383
			c-0.33789-0.6377-1.13184-0.88477-1.76953-0.54688c-0.64063,0.3418-0.88672,1.13867-0.54883,1.77637
			c0.19531,0.36816,0.54297,0.61621,0.95508,0.68164l0.13086,0.02344l-0.10547,0.71191l-0.1377-0.02539
			c-0.31738-0.04883-0.6084-0.16699-0.86719-0.35156c-0.25488-0.17969-0.46387-0.42188-0.61328-0.70117
			c-0.12793-0.24219-0.2041-0.50391-0.23145-0.77539c-0.01953-0.26172,0.00684-0.52344,0.08398-0.77441
			c0.0752-0.25684,0.19922-0.48926,0.37012-0.69141c0.1709-0.21484,0.37695-0.38574,0.62402-0.5166
			c0.99023-0.52539,2.22656-0.14063,2.75195,0.84961C68.64941,248.89746,68.73047,249.21289,68.73535,249.52637z M55.83081,45.24982
			c0.41992-0.17664,0.90601,0.02209,1.08301,0.44196c0.177,0.41962-0.02222,0.90558-0.44189,1.08246
			c-0.10522,0.04419-0.21582,0.06635-0.32056,0.06635c-0.32593,0-0.63013-0.18799-0.76245-0.50269
			C55.20654,45.91266,55.40527,45.4267,55.83081,45.24982z M55.23682,51.6084c0.04443,0.45844-0.2876,0.86157-0.74023,0.90558
			c-0.02808,0.00562-0.05566,0.00562-0.08301,0.00562c-0.41992,0-0.78467-0.3147-0.82349-0.74561
			c-0.04956-0.45276,0.2876-0.86157,0.74048-0.90576C54.78369,50.8186,55.19263,51.15002,55.23682,51.6084z M48.78613,8.9834h5.3584
			v1.87891h-3.43652v0.67383h3.00586v1.91113h-3.00586v1.50195h3.35938v1.90039h-5.28125
			C48.78614,16.84961,48.78614,8.9834,48.78613,8.9834z M51.10254,87.0957l-0.67676,0.22852l-0.86914-2.56934l3.68164-1.24414
			l0.2334,0.69238l-3.00391,1.0166L51.10254,87.0957z M44.39844,76.01758l0.59863,0.30371l0.08203,1.74316l1.96094-2.14355
			l0.67676,0.34375l-2.72461,2.97168l-0.59863-0.30371l-0.0957-1.98145l-1.65625,1.09375l-0.59863-0.30469l0.79004-3.95508
			l0.68164,0.3457l-0.5752,2.84668L44.39844,76.01758z M49.04004,77.62988l0.52734,0.50488l-2.68555,2.80566l-0.5293-0.50586
			L49.04004,77.62988z M50.99805,79.68555l0.40723,0.60938l-2.64063,1.76367l1.10254,1.64941l-0.59473,0.39746l-1.50879-2.25684
			L50.99805,79.68555z M50.25293,42.19208c-0.1604,0.16016-0.37012,0.23755-0.58008,0.23755
			c-0.21533,0-0.43115-0.08276-0.59131-0.24866c-0.32056-0.32574-0.32056-0.85052,0.01123-1.17059
			c0.32593-0.32037,0.85083-0.31494,1.17139,0.01105C50.58472,41.34717,50.57861,41.8717,50.25293,42.19208z M47.7998,36.76886
			c0.25439-0.38104,0.76807-0.48596,1.14941-0.2265c0.38086,0.25397,0.48022,0.7677,0.22607,1.14874
			c-0.16016,0.23755-0.41992,0.36456-0.68457,0.36456c-0.1604,0-0.32056-0.04419-0.46484-0.13806
			C47.64502,37.65796,47.5459,37.14447,47.7998,36.76886z M39.20996,8.9834h5.5127v1.90039h-1.80078v5.96582h-1.91113v-5.96582
			h-1.80078C39.20997,10.88379,39.20997,8.9834,39.20996,8.9834z M44.12549,37.82916
			c-0.12158,0.33679-0.44189,0.54688-0.7793,0.54688c-0.09375,0-0.18774-0.01672-0.28174-0.04987
			c-0.43091-0.15454-0.65161-0.62939-0.49731-1.06036c0.15479-0.4306,0.63013-0.65173,1.06079-0.49695
			C44.05908,36.92334,44.28027,37.3985,44.12549,37.82916z M42.36865,34.49341c-0.08325,0.39209-0.42578,0.66284-0.81274,0.66284
			c-0.05493,0-0.11011-0.00568-0.16577-0.01672c-0.44727-0.09381-0.73486-0.53015-0.64624-0.97754
			c0.08838-0.44733,0.5249-0.73425,0.97827-0.64612C42.16943,33.60437,42.45703,34.04608,42.36865,34.49341z M48.97266,66.44727
			c0.32422-0.32227,0.84766-0.32422,1.17188,0c0.32324,0.32324,0.32324,0.84766,0,1.17188
			c-3.19849,3.19934-7.41138,5.00171-11.91309,5.1474V89.6935c0.00513,0.00952,0.01367,0.01654,0.01855,0.02625
			c0.04004,0.09961,0.05957,0.20996,0.05957,0.32031c0,0.10938-0.01953,0.20996-0.05957,0.30957
			c-0.0498,0.10059-0.11035,0.19043-0.19043,0.27051c-0.06934,0.08008-0.16016,0.13965-0.25977,0.17969
			c-0.09961,0.0498-0.20996,0.07031-0.32031,0.07031c-0.10938,0-0.21973-0.02051-0.31934-0.07031
			c-0.10059-0.04004-0.19043-0.09961-0.26074-0.17969c-0.08008-0.08008-0.13965-0.16992-0.17969-0.27051
			c-0.0498-0.09961-0.07031-0.2002-0.07031-0.30957c0-0.11035,0.02051-0.2207,0.07031-0.32031
			c0.00269-0.00647,0.00879-0.01117,0.01172-0.01758v-16.9519c-4.37476-0.22302-8.46021-2.01117-11.58008-5.1311
			c-0.32324-0.32324-0.32324-0.84863,0-1.17188c0.32422-0.32227,0.84766-0.32227,1.17188,0
			c3.02441,3.02539,7.04688,4.69141,11.3252,4.69141S45.94922,69.47266,48.97266,66.44727z M30.00488,113.87305l-1.18652,1.48438
			l-0.55469-0.44336l2.42969-3.03613l1.08691,0.86914c0.2041,0.16406,0.33105,0.39746,0.36133,0.66699
			c0.0293,0.26953-0.04199,0.52539-0.20605,0.73047c-0.24219,0.30176-0.63965,0.43262-1.00781,0.34863l-0.11426,2.45996
			l-0.67383-0.53809l0.10938-2.34766L30.00488,113.87305z M23.875,43.66119c0.38135,0.24292,0.49756,0.75665,0.25415,1.14307
			c-0.15967,0.24866-0.43066,0.38104-0.70142,0.38104c-0.15479,0-0.30933-0.03857-0.44727-0.12701
			c-0.38696-0.24835-0.49756-0.76208-0.24878-1.14307C22.97437,43.5285,23.48877,43.41254,23.875,43.66119z M23.52686,38.81238
			c0.33203-0.315,0.85693-0.30396,1.177,0.02185c0.31519,0.32599,0.30957,0.85046-0.02222,1.17084
			c-0.15967,0.15479-0.37012,0.23193-0.57422,0.23193c-0.21582,0-0.43652-0.08282-0.59668-0.24835
			C23.19019,39.65723,23.20117,39.13245,23.52686,38.81238z M22.77588,61.75909c0.03833-0.03857,0.08252-0.07172,0.12671-0.10492
			c0.04419-0.02777,0.09399-0.05524,0.14355-0.07172c0.05029-0.02209,0.10522-0.03882,0.15503-0.04987
			c0.27075-0.0553,0.55786,0.03314,0.74609,0.2265c0.1543,0.15454,0.24292,0.37,0.24292,0.58545
			c0,0.22083-0.08862,0.43066-0.24292,0.58545c-0.03345,0.03851-0.07764,0.07172-0.12207,0.10486
			c-0.04419,0.02753-0.09375,0.0553-0.14331,0.07739c-0.04956,0.01648-0.10522,0.0329-0.15503,0.04395
			c-0.05493,0.01111-0.10986,0.01672-0.16016,0.01672c-0.2207,0-0.43066-0.08844-0.59082-0.24292
			c-0.03345-0.03888-0.07178-0.08307-0.09985-0.12701c-0.03296-0.04425-0.05493-0.09412-0.07715-0.14374
			S22.56006,62.56,22.54932,62.5047c-0.01147-0.04987-0.01685-0.10486-0.01685-0.16016
			C22.53247,62.12909,22.62109,61.91364,22.77588,61.75909z M22.54932,48.02972c-0.12158,0.34222-0.44189,0.55225-0.78467,0.55225
			c-0.08838,0-0.18237-0.01672-0.27637-0.04987c-0.43091-0.14911-0.65771-0.62402-0.50269-1.05463
			c0.15479-0.43634,0.62964-0.65723,1.06079-0.50269C22.47754,47.1239,22.69824,47.59882,22.54932,48.02972z M22.49951,58.63318
			c0.14893,0.43091-0.08301,0.90576-0.51416,1.05487c-0.08789,0.02753-0.18237,0.04425-0.27026,0.04425
			c-0.34253,0-0.6687-0.21545-0.78467-0.55792c-0.14941-0.43066,0.08276-0.90552,0.51367-1.05469
			C21.87524,57.97058,22.3501,58.20251,22.49951,58.63318z M20.98022,62.92432c0.26489-0.0553,0.55249,0.03314,0.74561,0.2265
			c0.03882,0.03857,0.07178,0.08282,0.09937,0.12701c0.03345,0.04425,0.05542,0.09387,0.07764,0.14349
			c0.02197,0.04987,0.03833,0.09949,0.04956,0.15479c0.01099,0.05524,0.01685,0.10486,0.01685,0.16016
			c0,0.22083-0.08862,0.43066-0.24341,0.58545c-0.15479,0.15448-0.37012,0.24298-0.58545,0.24298
			c-0.05542,0-0.1106-0.00568-0.16016-0.01672c-0.05566-0.01111-0.1106-0.02216-0.1604-0.04425
			c-0.04956-0.02185-0.09375-0.04962-0.13818-0.07715c-0.04956-0.02777-0.09375-0.06628-0.1272-0.10486
			c-0.15503-0.15479-0.24292-0.36462-0.24292-0.58545c0-0.0553,0.00537-0.10492,0.01636-0.16016
			c0.00586-0.0553,0.02197-0.10492,0.04419-0.15479c0.02197-0.04962,0.04956-0.09924,0.07764-0.14349
			c0.02759-0.04419,0.06641-0.08844,0.10474-0.12701c0.03345-0.03857,0.07764-0.07172,0.1272-0.09949
			c0.04443-0.0332,0.08862-0.06067,0.13818-0.07715C20.86963,62.95209,20.92456,62.93536,20.98022,62.92432z M21.49023,170.12012
			c-0.46094,0-0.83008-0.37012-0.83008-0.83008c0-0.4502,0.36914-0.83008,0.83008-0.83008
			c0.44922,0,0.81934,0.37988,0.81934,0.83008C22.30957,169.75,21.93945,170.12012,21.49023,170.12012z M22.30957,172.95996
			c0,0.45996-0.37012,0.83008-0.81934,0.83008c-0.46094,0-0.83008-0.37012-0.83008-0.83008s0.36914-0.83008,0.83008-0.83008
			C21.93945,172.12988,22.30957,172.5,22.30957,172.95996z M21.49023,166.4502c-0.46094,0-0.83008-0.37012-0.83008-0.82031
			c0-0.45996,0.36914-0.83008,0.83008-0.83008c0.44922,0,0.81934,0.37012,0.81934,0.83008
			C22.30957,166.08008,21.93945,166.4502,21.49023,166.4502z M21.49023,162.79004c-0.46094,0-0.83008-0.37012-0.83008-0.83008
			s0.36914-0.83008,0.83008-0.83008c0.44922,0,0.81934,0.37012,0.81934,0.83008S21.93945,162.79004,21.49023,162.79004z
			 M21.49023,159.12012c-0.46094,0-0.83008-0.37012-0.83008-0.83008s0.36914-0.83008,0.83008-0.83008
			c0.44922,0,0.81934,0.37012,0.81934,0.83008S21.93945,159.12012,21.49023,159.12012z M21.49023,155.4502
			c-0.46094,0-0.83008-0.37012-0.83008-0.82031c0-0.45996,0.36914-0.83008,0.83008-0.83008
			c0.44922,0,0.81934,0.37012,0.81934,0.83008C22.30957,155.08008,21.93945,155.4502,21.49023,155.4502z M21.49023,151.78027
			c-0.46094,0-0.83008-0.37012-0.83008-0.82031c0-0.45996,0.36914-0.83008,0.83008-0.83008
			c0.44922,0,0.81934,0.37012,0.81934,0.83008C22.30957,151.41016,21.93945,151.78027,21.49023,151.78027z M21.49023,148.12012
			c-0.46094,0-0.83008-0.37012-0.83008-0.83008s0.36914-0.83008,0.83008-0.83008c0.44922,0,0.81934,0.37012,0.81934,0.83008
			S21.93945,148.12012,21.49023,148.12012z M21.49023,144.4502c-0.46094,0-0.83008-0.37012-0.83008-0.83008
			s0.36914-0.83008,0.83008-0.83008c0.44922,0,0.81934,0.37012,0.81934,0.83008S21.93945,144.4502,21.49023,144.4502z
			 M21.49023,140.78027c-0.46094,0-0.83008-0.37012-0.83008-0.83008c0-0.4502,0.36914-0.82031,0.83008-0.82031
			c0.44922,0,0.81934,0.37012,0.81934,0.82031C22.30957,140.41016,21.93945,140.78027,21.49023,140.78027z M21.49023,113.52002
			c-0.46094,0-0.83008-0.36914-0.83008-0.8291c0-0.46094,0.36914-0.83008,0.83008-0.83008
			c0.44922,0,0.81934,0.36914,0.81934,0.83008C22.30957,113.15088,21.93945,113.52002,21.49023,113.52002z M21.54004,110.4502
			c-0.03027,0-0.06055-0.01074-0.08008-0.01074c-0.45996-0.04004-0.7998-0.44922-0.75-0.89941
			c0.04004-0.45996,0.4502-0.79004,0.89941-0.75c0.45996,0.0498,0.79004,0.4502,0.75,0.91016
			C22.31934,110.12988,21.95996,110.4502,21.54004,110.4502z M22.16016,106.84961c-0.41992-0.2002-0.59082-0.7002-0.39063-1.10938
			c0,0,0,0,0,0.00977c0.2002-0.41992,0.7002-0.58984,1.11035-0.39063c0.41016,0.19043,0.58008,0.69043,0.37988,1.10059v0.00977
			c-0.13965,0.29004-0.44043,0.45996-0.74023,0.45996C22.39941,106.92969,22.26953,106.91016,22.16016,106.84961z
			 M21.20898,86.00391l0.77637-2.43555l0.68164,0.2168l-0.55566,1.74414l0.54688,0.17383l0.30664-0.96191l0.68652,0.21777
			l-0.30762,0.96289l1.79004,0.57031l-0.2207,0.69336L21.20898,86.00391z M24.05957,102.55957
			c0.32031-0.31934,0.83984-0.33008,1.16992-0.00977s0.33008,0.84961,0.01074,1.16992c-0.16016,0.16992-0.38086,0.25-0.59082,0.25
			s-0.41992-0.08008-0.58008-0.22949C23.74023,103.41992,23.74023,102.88965,24.05957,102.55957z M22.68848,82.08105l0.7627-1.16504
			c0.14355-0.21973,0.36523-0.36719,0.62988-0.42383c0.26465-0.05469,0.52734-0.00781,0.74707,0.1377
			c0.32422,0.21191,0.49121,0.59473,0.44141,0.96777l2.46094-0.11816l-0.47266,0.72168l-2.34766,0.11426l-0.16992,0.26074
			l1.58984,1.04102l-0.38965,0.59375L22.68848,82.08105z M26.88477,78.76367l1.18457-1.07129l0.48828,0.53906l-1.18457,1.07031
			l0.77734,0.86035l1.32227-1.19531l0.48242,0.53516l-1.86426,1.68652l-2.61035-2.88672l1.90137-1.71973l0.47656,0.52734
			l-1.35742,1.22852L26.88477,78.76367z M30.15625,76.38379l1.41797-0.73047l0.33203,0.64648l-1.41797,0.72949l0.5293,1.03027
			l1.58496-0.81445l0.33008,0.6416l-2.23633,1.14844l-1.7793-3.45898l2.2793-1.17188l0.3252,0.63086l-1.62891,0.83789
			L30.15625,76.38379z M32.93945,95.85938c-0.16016,0.1709-0.37988,0.25-0.58984,0.25s-0.41992-0.0791-0.58008-0.23926
			c-0.33008-0.32031-0.33984-0.83984-0.00977-1.16992c0.32031-0.33008,0.83984-0.33008,1.16992-0.01074
			C33.25,95.00977,33.25977,95.53027,32.93945,95.85938z M30.37012,98.47949c-0.16016,0.16992-0.37012,0.25-0.59082,0.25
			c-0.20996,0-0.41992-0.08008-0.5791-0.22949c-0.33008-0.33008-0.33008-0.85059-0.01074-1.18066
			c0.32031-0.3291,0.83984-0.3291,1.16992-0.00977C30.68945,97.62988,30.68945,98.14941,30.37012,98.47949z M27.80957,101.09961
			c-0.16016,0.16992-0.37988,0.25-0.58984,0.25s-0.41992-0.08008-0.58008-0.24023c-0.33008-0.31934-0.33984-0.83984-0.01953-1.16992
			c0.31934-0.31934,0.84961-0.33008,1.17969-0.00977C28.12012,100.25,28.12988,100.78027,27.80957,101.09961z M27.40625,111.02051
			l-0.87695-0.37988l0.28711-0.66113l2.4248,1.0498l-0.28613,0.66113l-0.87695-0.37988l-1.25879,2.90625l-0.6709-0.29102
			L27.40625,111.02051z M34.27832,115.17578l0.45605,0.57227l-3.04297,2.42383l-0.45605-0.57324L34.27832,115.17578z
			 M36.12305,119.25c-0.30273-0.65332-1.07813-0.9375-1.73145-0.63477c-0.65918,0.30566-0.94824,1.08398-0.64453,1.7373
			c0.15332,0.33105,0.42676,0.57227,0.77246,0.69434l0.7334-0.33984l-0.44727-0.96582l0.65723-0.30469l0.75,1.61328l-1.625,0.75391
			l-0.04102-0.01074c-0.64551-0.13379-1.18457-0.55859-1.45508-1.13672c-0.46973-1.01563-0.02637-2.22559,0.99316-2.69922
			c1.01563-0.4707,2.22559-0.02734,2.69629,0.98828c0.11523,0.24707,0.17773,0.51172,0.1875,0.7793
			c0.00977,0.26563-0.03027,0.53027-0.125,0.7793l-0.05078,0.13867l-0.6582-0.29102l0.04004-0.12109
			C36.29492,119.91602,36.27246,119.57129,36.12305,119.25z M35.50977,93.24023c-0.16992,0.15918-0.37988,0.25-0.59961,0.25
			c-0.20996,0-0.41992-0.08008-0.58008-0.24023C34.00977,92.92969,34,92.41016,34.31934,92.08008
			c0.32031-0.33008,0.85059-0.33008,1.1709-0.01074C35.81934,92.38965,35.83008,92.91016,35.50977,93.24023z M32.44824,132.77246
			l2.32129-0.3584l0.14258-0.27637l-1.68945-0.87012l0.3252-0.63184l3.45703,1.78027l-0.6377,1.2373
			c-0.12012,0.2334-0.32422,0.4043-0.58203,0.4873c-0.25684,0.08203-0.52344,0.0625-0.75586-0.05859
			c-0.34473-0.17676-0.55078-0.54102-0.54102-0.91602l-2.43555,0.37305L32.44824,132.77246z M36.8916,130.54102l0.36914-1.79199
			l-0.56152-0.11523l-0.32227,1.56152l-0.71094-0.14551l0.32031-1.56348l-1.13379-0.23438l-0.35938,1.74609l-0.70703-0.14551
			l0.50781-2.46289l3.80957,0.78418l-0.51758,2.51074L36.8916,130.54102z M37.79102,125.85156l-0.0918,0.11328l-0.5293-0.48926
			l0.07813-0.10059c0.21484-0.25879,0.30664-0.59277,0.26953-0.94531c-0.07227-0.71582-0.71387-1.2373-1.43164-1.16406
			c-0.72266,0.07422-1.24902,0.7168-1.17383,1.43359c0.03711,0.36328,0.21777,0.67969,0.50391,0.9082l0.80469-0.08203
			l-0.10938-1.06055l0.72266-0.07324l0.18164,1.77051l-1.78125,0.18359l-0.03516-0.02441
			c-0.56641-0.33594-0.93848-0.91309-1.00488-1.54785c-0.11621-1.11328,0.69824-2.11328,1.81641-2.23047
			c1.11426-0.11426,2.11426,0.69824,2.23047,1.8125c0.02734,0.27148,0.00098,0.54395-0.07813,0.79883
			C38.08594,125.40918,37.96094,125.64648,37.79102,125.85156z M29.64355,35.63116c-0.1709-0.42529,0.03906-0.91119,0.45874-1.07709
			c0.43115-0.17096,0.91187,0.0332,1.08276,0.45844c0.16577,0.42529-0.03857,0.91119-0.46387,1.07703
			c-0.09985,0.04425-0.20459,0.06073-0.30371,0.06073C30.08545,36.15027,29.77637,35.95148,29.64355,35.63116z M35.97559,37.47565
			c-0.03296,0-0.06104,0.00568-0.08838,0.00568c-0.41992,0-0.7793-0.32037-0.82349-0.74567
			c-0.04956-0.45276,0.28223-0.86157,0.73486-0.91119h0.0061c0.45264-0.04419,0.8562,0.28723,0.90576,0.73999
			c0.04443,0.453-0.28174,0.86157-0.74023,0.90576C35.97021,37.47021,35.97021,37.47021,35.97559,37.47565z M32.1084,8.9834h1.61328
			l3.03711,7.86621h-2.06543l-0.67383-1.79004h-2.20996l-0.69531,1.79004h-2.0332L32.1084,8.9834z M28.33936,38.37604
			c0.38696-0.24323,0.89526-0.12164,1.13867,0.26508c0.24268,0.39209,0.12134,0.90015-0.26563,1.14313
			c-0.13818,0.08276-0.28711,0.12158-0.43652,0.12158c-0.27612,0-0.54639-0.13806-0.70679-0.39233
			C27.83105,39.12708,27.94727,38.61902,28.33936,38.37604z M21.57031,8.9834h5.3584v1.88965h-3.44727v0.67383h1.90039v1.90039
			h-1.90039v3.40234h-1.91113C21.57031,16.84961,21.57031,8.9834,21.57031,8.9834z M20.98022,41.81104
			c0.25952-0.37537,0.77905-0.46387,1.15454-0.20441c0.37549,0.25964,0.46411,0.77338,0.20459,1.15442
			c-0.16016,0.22626-0.42041,0.35327-0.67993,0.35327c-0.16553,0-0.3313-0.04962-0.47485-0.14917
			C20.80859,42.70007,20.7146,42.18665,20.98022,41.81104z M20.84839,54.49097c0.45313-0.04987,0.86157,0.28156,0.91187,0.73431
			c0.04956,0.453-0.28223,0.86157-0.73486,0.91144c-0.03369,0.00537-0.06104,0.00537-0.08862,0.00537
			c-0.41968,0-0.77905-0.3147-0.82349-0.73993C20.06372,54.94373,20.39502,54.53491,20.84839,54.49097z M20.21191,60.0249
			c0.16016,0.42523-0.05518,0.90576-0.48096,1.06598c-0.09912,0.03857-0.19849,0.05524-0.29248,0.05524
			c-0.33716,0-0.65234-0.20435-0.77905-0.53577c-0.1604-0.42529,0.05493-0.90582,0.48071-1.06598
			C19.56543,59.37878,20.04614,59.59424,20.21191,60.0249z M18.58228,57.49005c-0.04419,0.01105-0.09448,0.01105-0.13818,0.01105
			c-0.39819,0-0.74634-0.2818-0.81812-0.69031c-0.07715-0.45306,0.23218-0.87805,0.67993-0.95007
			c0.45288-0.08276,0.87866,0.22656,0.95581,0.67389C19.33887,56.98743,19.03491,57.41266,18.58228,57.49005z M17.8252,48.98517
			c0.09937-0.44739,0.54126-0.72919,0.98901-0.6297c0.44751,0.09949,0.729,0.5412,0.62964,0.98291
			c-0.08838,0.38672-0.43115,0.65179-0.80664,0.65179c-0.06104,0-0.12134-0.00537-0.18237-0.01642
			C18.00757,49.87421,17.72534,49.4325,17.8252,48.98517z M18.19531,52.08331c0.45874,0.00537,0.81738,0.38666,0.81201,0.84485
			c-0.01074,0.453-0.38135,0.80627-0.82861,0.80627c-0.00537,0-0.01685,0-0.02222,0
			c-0.45874-0.01074-0.81738-0.39209-0.80664-0.84485C17.3606,52.43115,17.74219,52.06683,18.19531,52.08331z M15.50977,110.0752
			l0.29785,0.64355l-1.65918,0.76953l0.24121,0.52051l1.44629-0.6709l0.30566,0.6582l-1.44531,0.6709l0.48535,1.0498
			l1.61523-0.74902l0.30273,0.6543l-2.27734,1.05566l-1.63574-3.52539L15.50977,110.0752z M10.11133,113.20117
			c0.2373-0.21094,0.52539-0.36328,0.82715-0.44238c0.29883-0.08203,0.62793-0.08984,0.93457-0.02539l0.13672,0.02441
			l-0.15039,0.70898l-0.13281-0.02637c-0.40625-0.08691-0.81836,0.02441-1.13281,0.30371
			c-0.54004,0.47852-0.5918,1.30664-0.11328,1.84668c0.48145,0.54297,1.31445,0.59277,1.85352,0.11328
			c0.31055-0.27441,0.46875-0.67188,0.43555-1.08789l-0.00781-0.13281l0.71582-0.06445l0.00781,0.13965
			c0.02734,0.31836-0.01855,0.62891-0.13672,0.92383c-0.11426,0.29102-0.2998,0.5498-0.53613,0.76074
			c-0.20508,0.18164-0.44141,0.31738-0.69727,0.4082c-0.24902,0.08008-0.50977,0.11621-0.77246,0.09961
			c-0.2666-0.01172-0.52148-0.07617-0.75781-0.19629c-0.24805-0.11523-0.46289-0.27539-0.64746-0.48242
			C9.19336,115.23535,9.27539,113.94434,10.11133,113.20117z M7.57813,116.14355l3.21289,2.19727l-0.41406,0.60449l-3.21191-2.19629
			L7.57813,116.14355z M5.31836,120.2041c0.38281-1.05664,1.54883-1.60547,2.60645-1.22266
			c1.05078,0.37891,1.59375,1.54395,1.21289,2.60156c-0.37988,1.05078-1.54102,1.60156-2.59375,1.22168
			C5.4873,122.42188,4.93945,121.25781,5.31836,120.2041z M8.44727,234.42676L8.3584,235.2002l-3.68652-1.93164l0.0752-0.65527
			l4.03125-1.04297l-0.08984,0.7793L7.60156,232.625l-0.14746,1.2793L8.44727,234.42676z M5.41211,229.47754l0.56836-1.32422
			c0.10254-0.24023,0.30371-0.43262,0.5459-0.52441c0.2373-0.09961,0.51758-0.09961,0.75879,0.00293
			c0.14453,0.06348,0.26465,0.15625,0.3623,0.2627c0.0957-0.07031,0.2002-0.13281,0.31152-0.17383
			c0.32617-0.13379,0.68066-0.13086,1.00195,0.00684c0.31934,0.13867,0.56738,0.39355,0.69922,0.72168
			c0.06348,0.15918,0.09766,0.32813,0.0957,0.5c0.00195,0.17285-0.03516,0.34082-0.10156,0.49707l-0.67188,1.56543
			L5.41211,229.47754z M4.96484,130.70898c-0.09082-0.30469-0.1084-0.62891-0.05078-0.93555
			c0.0498-0.30664,0.18262-0.6084,0.37012-0.85645l0.0791-0.11621l0.58203,0.43652l-0.08203,0.11035
			c-0.24902,0.33105-0.32227,0.75098-0.20215,1.15332c0.20605,0.69141,0.93457,1.08887,1.62402,0.88281
			c0.69629-0.20801,1.0918-0.94043,0.88672-1.63086c-0.11914-0.39844-0.41016-0.70996-0.80176-0.85449l-0.12402-0.0498
			l0.24316-0.67676l0.12988,0.05273c0.30078,0.10938,0.5625,0.28223,0.78125,0.51465
			c0.21387,0.22559,0.37207,0.50293,0.46191,0.80762c0.07813,0.26074,0.10254,0.5332,0.07422,0.80273
			c-0.03027,0.26074-0.10938,0.51172-0.2334,0.74316c-0.12402,0.23633-0.29102,0.43848-0.49805,0.60352
			C7.99414,131.87305,7.75977,132,7.49219,132.08008C6.4209,132.40039,5.28418,131.78125,4.96484,130.70898z M4.41113,126.34961
			l1.28613,0.0332l0.04199-1.57617l-1.28809-0.03418l0.01953-0.73047l3.88379,0.10156l-0.02051,0.73047l-1.88086-0.04883
			l-0.04102,1.5752l1.88184,0.0498l-0.01953,0.73145l-3.88281-0.10156L4.41113,126.34961z M4.9541,238.57324l-0.38086-2.61426
			l0.71387-0.10352l0.1377,0.94531l3.13086-0.45508l0.10645,0.72363l-3.13379,0.45605l0.13867,0.94336L4.9541,238.57324z
			 M6.82813,242.32715c-0.19336-0.04785-0.37793-0.14844-0.54102-0.29395c-0.16211-0.14355-0.29297-0.32617-0.38477-0.54199
			c-0.03516-0.08594-0.06445-0.18066-0.0918-0.27539c-0.08008-0.3584-0.06934-0.74805,0.05176-1.1377l0.03809-0.12988
			l0.70117,0.20703l-0.04004,0.12988c-0.12793,0.44141-0.06934,0.74805,0.00684,0.92969
			c0.0498,0.11426,0.12012,0.20996,0.19922,0.2832c0.125,0.11426,0.28418,0.15234,0.40332,0.10254
			c0.1123-0.04883,0.16406-0.11816,0.18945-0.24121s0.01465-0.29004-0.03418-0.54297
			c-0.00781-0.03223-0.01465-0.07715-0.02148-0.12109c-0.05078-0.22949-0.1084-0.53613-0.07617-0.78125
			c0.01758-0.20996,0.08789-0.39355,0.19531-0.5459s0.25977-0.27051,0.44141-0.34766
			c0.22656-0.09668,0.45215-0.12012,0.6748-0.07324c0.19043,0.04395,0.38184,0.14648,0.57129,0.31055
			c0.16504,0.1377,0.28809,0.31738,0.39355,0.56348c0.04785,0.11523,0.08398,0.24219,0.1123,0.37891
			c0.08301,0.4043,0.05469,0.84277-0.08691,1.27734l-0.0459,0.13184l-0.69043-0.22949l0.04492-0.13184
			c0.10352-0.31641,0.13086-0.62988,0.07422-0.90234l-0.00195-0.00586c-0.01758-0.08203-0.03906-0.16113-0.07129-0.2373
			c-0.05371-0.125-0.12793-0.23047-0.21289-0.30664c-0.10254-0.09961-0.27246-0.19336-0.47852-0.10645
			c-0.11133,0.04688-0.17285,0.13867-0.19434,0.28516c-0.02539,0.17676,0.01074,0.38672,0.04297,0.5332
			c0.01563,0.06543,0.12695,0.62305,0.09668,0.91406c-0.03027,0.19727-0.09863,0.36914-0.20313,0.51367
			c-0.11035,0.14844-0.25391,0.25586-0.43066,0.33008C7.26953,242.34863,7.05176,242.36816,6.82813,242.32715z M9.01953,246.30566
			l-1.59961-1.99902l0.55273-0.44336l1.14355,1.42773l0.44824-0.3584l-0.99805-1.24414l0.56641-0.4541l0.99707,1.24414
			l0.90332-0.72363l-1.1123-1.38867l0.5625-0.45117l1.56934,1.95996L9.01953,246.30566z M10.60352,227.62988l-3.01563-2.45215
			l0.46191-0.56641l2.46094,2.00098l1.25-1.53809l0.55566,0.4502L10.60352,227.62988z M13.05469,224.9541l-2.42969-3.03418
			l0.57031-0.45703l2.42969,3.03418L13.05469,224.9541z M16.34766,222.77148c-0.12891,0.17285-0.29883,0.30664-0.53906,0.42676
			c-0.11328,0.05566-0.23828,0.09961-0.37207,0.13574c-0.39941,0.10547-0.83984,0.10547-1.28223-0.00977l-0.13477-0.03711
			l0.1875-0.7041l0.13477,0.03711c0.32227,0.08301,0.6377,0.0918,0.9082,0.01855l0.00391-0.00195
			c0.08008-0.02246,0.15918-0.04883,0.23242-0.08496c0.12305-0.06152,0.22266-0.14258,0.29297-0.23242
			c0.09473-0.10645,0.17773-0.2832,0.07813-0.4834c-0.05273-0.1084-0.14844-0.16504-0.29688-0.17773
			c-0.17676-0.01465-0.38574,0.0332-0.5293,0.07422c-0.06348,0.02051-0.61426,0.16602-0.9082,0.15332
			c-0.19824-0.01758-0.37305-0.07715-0.52539-0.17285c-0.1543-0.10059-0.27051-0.23828-0.35547-0.40918
			c-0.09375-0.18555-0.12598-0.40137-0.09863-0.62891c0.03613-0.19629,0.125-0.38672,0.25879-0.55762
			c0.13574-0.1709,0.30957-0.31152,0.52051-0.41602c0.08301-0.04199,0.17578-0.07617,0.26855-0.11035
			c0.35352-0.10156,0.74414-0.1123,1.13965-0.0166l0.13281,0.03125l-0.16504,0.71191l-0.13281-0.03223
			c-0.44727-0.09961-0.75-0.02246-0.92773,0.06445c-0.11133,0.05566-0.20215,0.13184-0.27148,0.21484
			c-0.10547,0.13184-0.13477,0.29297-0.07715,0.41016c0.05371,0.10742,0.12793,0.15723,0.25293,0.1748
			s0.29004-0.00391,0.53906-0.06738c0.03223-0.01074,0.07715-0.01855,0.12012-0.0293
			c0.22656-0.06348,0.5293-0.14063,0.77539-0.12305c0.21191,0.00488,0.39941,0.06445,0.55762,0.16211
			c0.16016,0.09961,0.28711,0.24316,0.37402,0.41992c0.11035,0.2207,0.14746,0.44531,0.11328,0.6709
			C16.58984,222.375,16.49902,222.57324,16.34766,222.77148z M18.49023,222.18066l-0.72168,0.12598l-0.6709-3.83203l0.71973-0.12598
			l0.22461,1.26855l1.55469-0.27148l-0.22266-1.26953l0.72168-0.12695l0.66992,3.83203l-0.72168,0.12598l-0.32422-1.85645
			l-1.55566,0.27246L18.49023,222.18066z M49.99707,340.99707c-1.17285,1.17255-2.48755,2.14838-3.89624,2.9361v28.104
			c0,1.77142-1.43604,3.20746-3.20752,3.20746H32.427c-1.77148,0-3.20728-1.43604-3.20728-3.20746v-27.91675
			c-1.5332-0.815-2.9541-1.86096-4.2168-3.12335c-0.32324-0.32324-0.32324-0.84766,0-1.17188
			c0.32422-0.32227,0.84766-0.32422,1.17188,0c3.02539,3.02539,7.04785,4.69141,11.3252,4.69141s8.2998-1.66602,11.3252-4.69141
			c0.32422-0.32227,0.84766-0.32227,1.17188,0C50.32031,340.14941,50.32031,340.67383,49.99707,340.99707z M52.35254,338.08008
			c-0.1582,0.24512-0.4248,0.37793-0.69629,0.37793c-0.1543,0-0.30957-0.04297-0.44922-0.13281
			c-0.38379-0.24805-0.49414-0.76074-0.24512-1.14551c1.6709-2.58496,2.55469-5.58594,2.55469-8.67969
			c0-8.83105-7.18555-16.0166-16.0166-16.0166S21.48438,319.66895,21.48438,328.5c0,3.01953,0.84375,5.95898,2.43945,8.50098
			c0.24414,0.3877,0.12695,0.89844-0.26074,1.1416s-0.89844,0.12695-1.1416-0.26074c-1.7627-2.80566-2.69336-6.0498-2.69336-9.38184
			c0-9.49194,7.52686-17.23761,16.92188-17.63483v-18.62006c0-0.19922,0.0791-0.38965,0.21973-0.53027l12.93359-12.93359
			c1.81934-1.81934,2.82129-4.23926,2.82129-6.8125V211.6084c0-2.79395-1.08887-5.41895-3.06543-7.39355l-2.49268-2.48792
			c-2.39038,2.15613-5.49512,3.52118-8.9165,3.69794v4.6413c3.1438-0.12109,6.20996-1.0144,8.9248-2.61499
			c0.35449-0.21094,0.81543-0.09082,1.02734,0.26563c0.20996,0.35645,0.09082,0.81641-0.26563,1.02734
			c-2.94531,1.73621-6.27124,2.69122-9.68652,2.81415v0.95929c0,4.06152-1.58301,7.87988-4.45605,10.75098l-11.77637,11.76172
			c-0.14648,0.14648-0.33887,0.21973-0.53027,0.21973c-0.19238,0-0.38379-0.07324-0.53027-0.21973
			c-0.29297-0.29297-0.29297-0.76855,0-1.06055l11.77637-11.76172c2.58984-2.58887,4.0166-6.03027,4.0166-9.69043v-0.95752
			c-11.24561-0.41022-20.12207-9.82599-19.82617-21.10107c0.28711-10.9043,9.05322-19.62585,19.80762-20.00555v-0.97101
			c0-4.06152,1.58301-7.87988,4.45605-10.75098l1.03369-1.03235c-5.04492-5.84277-4.80811-14.67053,0.73755-20.21625
			c5.80786-5.80792,15.22461-5.80792,21.03247,0c5.80786,5.80798,5.80786,15.22449,0,21.03241
			c-5.71216,5.71222-14.90723,5.79315-20.73438,0.26929l-1.00879,1.00745c-2.58984,2.58887-4.0166,6.03027-4.0166,9.69043v0.95612
			c11.25439,0.40033,20.14087,9.82117,19.84473,21.10248c-0.10156,3.84277-1.26563,7.5625-3.36719,10.75586
			c-0.22852,0.3457-0.69336,0.44141-1.03906,0.21484c-0.34668-0.22852-0.44238-0.69336-0.21484-1.03906
			c1.94824-2.95996,3.02734-6.4082,3.12109-9.9707c0.27539-10.44098-7.93604-19.16193-18.34473-19.56042v4.63263
			C45.86523,176.9588,51.96289,183.27228,51.96289,191c0,3.71747-1.42188,7.10077-3.73511,9.66553l2.49194,2.48877
			c2.25977,2.25684,3.50488,5.25977,3.50488,8.4541v60.36035c0,2.97461-1.1582,5.77051-3.26074,7.87305L38.25,292.55566v18.30951
			c9.396,0.39709,16.92285,8.14288,16.92285,17.63483C55.17285,331.91309,54.19824,335.22559,52.35254,338.08008z
			 M23.68066,282.72754l0.39551-0.61816l3.2793,2.0957l-0.39453,0.61719l-1.58984-1.01563l-0.84961,1.33203l1.58984,1.01465
			l-0.39453,0.61719l-3.28027-2.09473l0.39551-0.61719l1.08594,0.69531l0.85156-1.33203L23.68066,282.72754z M31.06055,243.68164
			l0.51172-0.49414l2.70117,2.80469l-1.00391,0.9668c-0.18945,0.18262-0.43945,0.2793-0.70996,0.27344
			c-0.27051-0.00391-0.51563-0.11035-0.69727-0.2998c-0.26953-0.2793-0.34766-0.69043-0.2168-1.04395l-2.42871-0.43262
			l0.62305-0.60059l2.31641,0.41211l0.22461-0.21582L31.06055,243.68164z M40.35938,277.11719l-0.08008,0.7207l-1.58301-0.17188
			l-0.125,1.15039l1.76855,0.19141l-0.07813,0.71777l-2.49609-0.27246l0.4209-3.8623l2.54395,0.27637l-0.07617,0.70605
			l-1.81738-0.19824l-0.0625,0.56934L40.35938,277.11719z M35.12891,279.04297c0.40723-0.07617,0.74805-0.33398,0.93359-0.70703
			l0.0625-0.11719l0.64648,0.3125l-0.06641,0.12305c-0.14063,0.28906-0.33984,0.53027-0.5918,0.72266
			c-0.24805,0.19043-0.54199,0.31738-0.85352,0.375c-0.26855,0.05078-0.54102,0.04492-0.80664-0.00977
			c-0.25586-0.05957-0.49805-0.16406-0.71484-0.3125c-0.2207-0.14844-0.40625-0.33594-0.54785-0.55859
			c-0.15332-0.22656-0.25488-0.47461-0.30566-0.74805c-0.20508-1.10156,0.5293-2.16602,1.63086-2.37109
			c0.31152-0.05859,0.63672-0.04102,0.93555,0.04785c0.29883,0.08301,0.58594,0.24609,0.81445,0.45996l0.10547,0.09082
			l-0.49609,0.53027l-0.09961-0.0918c-0.30273-0.2832-0.71289-0.40039-1.12695-0.32422
			c-0.70898,0.13281-1.18164,0.81641-1.05078,1.52441C33.73242,278.70313,34.41992,279.17578,35.12891,279.04297z
			 M35.56055,240.16309c-1.03906-0.25684-1.6709-1.33789-1.4043-2.40332l0.31543-1.26563l3.77246,0.93945l-0.31543,1.26563
			C37.66309,239.76465,36.59863,240.42285,35.56055,240.16309z M38.08105,234.58789
			c-0.18066,0.20117-0.41992,0.31738-0.68262,0.33008c-0.38672,0.01953-0.74707-0.19043-0.92773-0.52051l-1.91699,1.5459
			l-0.04395-0.86035l1.82715-1.47754l-0.0166-0.31055l-1.89746,0.09766l-0.03613-0.70996l3.88281-0.19727l0.07129,1.38965
			C38.35352,234.13672,38.2627,234.3877,38.08105,234.58789z M36.16797,231.28223c-1.04297,0.41113-2.2207-0.10645-2.63281-1.15332
			c-0.41016-1.04297,0.10059-2.22363,1.14355-2.63379c1.04688-0.41211,2.22949,0.10352,2.63965,1.14551
			C37.73047,229.68848,37.21582,230.87109,36.16797,231.28223z M36.71094,242.26465l-1.27246,2.22754l-0.61816-0.35254
			l0.90918-1.59082l-0.49902-0.28418l-0.79199,1.38574l-0.63184-0.35938l0.79199-1.38867l-1.00684-0.57422l-0.88379,1.54883
			l-0.62598-0.35742l1.24609-2.18555L36.71094,242.26465z M32.42578,280.51563l-0.66602,0.30469l-1.6084-3.54492l0.66699-0.30176
			L32.42578,280.51563z M29.66406,279.56543c0.70313,0.87012,0.5625,2.14941-0.3125,2.85645
			c-0.87207,0.70313-2.15137,0.57031-2.85352-0.30176c-0.70703-0.875-0.57031-2.15723,0.30078-2.86035
			C27.6748,278.55371,28.95703,278.68945,29.66406,279.56543z M22.65723,287.31543l-0.12695,0.05176
			c-0.38379,0.1543-0.66504,0.47461-0.77051,0.88184c-0.18164,0.69727,0.23535,1.41504,0.93359,1.59668
			c0.70117,0.18262,1.4209-0.23926,1.60156-0.93652c0.10449-0.40234,0.0166-0.81934-0.24414-1.14648l-0.07813-0.10547
			l0.55664-0.45313l0.08398,0.1123c0.20117,0.25,0.33594,0.5332,0.40039,0.84375c0.06836,0.30469,0.05859,0.62402-0.02148,0.93164
			c-0.06836,0.2627-0.18848,0.50781-0.35156,0.72461c-0.16211,0.20605-0.35938,0.38086-0.58496,0.51367
			c-0.22754,0.1377-0.47656,0.22461-0.73828,0.25879c-0.27051,0.04199-0.53809,0.02832-0.80762-0.04004
			c-1.08301-0.2832-1.73438-1.39941-1.45117-2.48242c0.07813-0.30566,0.23242-0.59375,0.43945-0.82715
			c0.20215-0.23535,0.4707-0.4248,0.76074-0.54102l0.12793-0.05762L22.65723,287.31543z M43.43945,279.32031
			c-0.10645-0.14453-0.2793-0.26758-0.40625-0.34766c-0.05664-0.03516-0.5293-0.35156-0.71387-0.5791
			c-0.11816-0.16016-0.18848-0.33105-0.21777-0.50879c-0.02734-0.18066-0.00098-0.35938,0.07031-0.53516
			c0.0791-0.19336,0.2168-0.36035,0.40625-0.49023c0.16992-0.10156,0.37109-0.16016,0.58789-0.17188
			c0.2168-0.01367,0.43848,0.02441,0.65625,0.11133c0.08594,0.03516,0.17188,0.08398,0.25977,0.13086
			c0.30859,0.19531,0.57617,0.48145,0.76563,0.8418l0.06348,0.11914l-0.6416,0.3457l-0.06445-0.11914
			c-0.21875-0.40234-0.47754-0.57813-0.66016-0.65234c-0.11523-0.0459-0.23242-0.06445-0.33984-0.0625
			c-0.16797,0.00977-0.30859,0.09375-0.35742,0.21582c-0.04688,0.11035-0.03516,0.19824,0.03516,0.30273
			c0.06836,0.10449,0.19531,0.21484,0.40723,0.36035c0.02832,0.0166,0.06445,0.04492,0.10059,0.07031
			c0.19727,0.12695,0.45508,0.30273,0.60547,0.5c0.13477,0.16113,0.21484,0.33984,0.24609,0.52344s0.00586,0.37402-0.06641,0.55664
			c-0.09375,0.22656-0.23633,0.4043-0.42773,0.52832c-0.16504,0.10254-0.375,0.16504-0.62207,0.18262
			c-0.21387,0.01855-0.42773-0.02148-0.6748-0.12109c-0.11719-0.04883-0.23242-0.1123-0.34863-0.18945
			c-0.34375-0.22754-0.63379-0.55762-0.83887-0.96582l-0.06055-0.12598l0.65039-0.32324l0.06055,0.12402
			c0.15039,0.29688,0.35254,0.53906,0.58496,0.69141l0.00586,0.00391c0.06934,0.04492,0.1416,0.08594,0.21582,0.11719
			c0.12793,0.05176,0.25391,0.07227,0.36914,0.06641c0.14063-0.00195,0.32813-0.05469,0.41309-0.26172
			C43.54785,279.54688,43.52734,279.4375,43.43945,279.32031z M43.77832,244.14844l1.27734-0.94922l0.43359,0.58105l-1.2793,0.9502
			l0.69141,0.92773l1.42578-1.06055l0.43164,0.57813l-2.01563,1.49707l-2.31641-3.11621l2.05273-1.52637l0.42383,0.56934
			l-1.4668,1.08984L43.77832,244.14844z M50.71191,243.58008l-0.83789,0.30664l-1.43555-0.98047l-0.46777,1.67969l-0.83691,0.30566
			l0.66797-2.41699l-1.88477-1.28223l0.84375-0.30957l1.24609,0.84766l0.40527-1.45313l0.83691-0.30664l-0.60938,2.19727
			L50.71191,243.58008z M24.34668,219.46973l-0.07813,0.72168l-1.58496-0.1709l-0.12305,1.15039l1.76953,0.19141l-0.07715,0.71582
			l-2.49707-0.26758l0.41504-3.86523l2.5459,0.27344l-0.07617,0.70703l-1.81836-0.19629l-0.06055,0.56934L24.34668,219.46973z
			 M25.05371,222.25781l1.49316-3.58887l1.20508,0.50098c1.01367,0.4209,1.50488,1.57227,1.09473,2.55957
			c-0.41113,0.9873-1.57324,1.4502-2.58691,1.0293L25.05371,222.25781z M49.56543,297.3125l0.25293-0.68652l2.9707,1.09277
			l0.33008-0.89648l0.67676,0.24805l-0.91113,2.48047l-0.67676-0.24805l0.3291-0.89648L49.56543,297.3125z M50.7793,302.95801
			l-0.42383,0.59766l-3.17578-2.24902l0.42285-0.59766l1.53906,1.08984l0.91113-1.29004l-1.53809-1.08887l0.42383-0.59863
			l3.17676,2.24902l-0.42383,0.59863l-1.05273-0.74609l-0.91211,1.29004L50.7793,302.95801z M48.70605,285.75391l3.5459-1.59375
			l0.53516,1.19141c0.44922,1.00098,0.01953,2.17578-0.95703,2.61523c-0.97656,0.43848-2.14063-0.02148-2.58984-1.02344
			L48.70605,285.75391z M53.13672,295.51367c-0.54688-0.05957-0.9375-0.55859-0.87793-1.10547l0.07129-0.66211l-1.88184-0.20313
			l0.07813-0.72266l3.8623,0.42188l-0.15039,1.38281c-0.0293,0.26563-0.15918,0.50293-0.36914,0.67188
			C53.65918,295.46094,53.40234,295.54297,53.13672,295.51367z M53.7041,291.58008l-0.2666-1.8125l-0.56836,0.08398l0.23242,1.5791
			l-0.71875,0.10645l-0.2334-1.58008l-1.14648,0.16992l0.25977,1.76465l-0.71387,0.10645l-0.36816-2.49023l3.85254-0.56934
			l0.375,2.53809L53.7041,291.58008z M60.00879,245.20898l1.14648-2.33105l-1.52246,0.7959l-0.29395-1.68945l-1.14648,2.33105
			l-0.65039-0.32129l1.71484-3.48633l0.61328,0.30273l0.30469,1.76172l1.58398-0.83203l0.61719,0.30273l-1.71582,3.48633
			L60.00879,245.20898z M61.80664,246.47656l-0.55371-0.55078l3.80078-1.69922l0.46875,0.46582l-1.67773,3.81348l-0.55664-0.55469
			l0.45703-1.02441l-0.91211-0.90918L61.80664,246.47656z M67.09375,266.31836l-4.0459-0.97852l0.44727-0.64453l1.08691,0.26758
			l0.73242-1.05664l-0.62988-0.92969l0.44434-0.64063l2.34082,3.44141L67.09375,266.31836z M69.77734,260.64648L66.833,261.5332
			l2.43164,0.75781l-0.21777,0.69922l-3.7168-1.1582l0.20996-0.67383l2.95215-0.88867l-2.43848-0.76074l0.21875-0.69824
			l3.7168,1.15723L69.77734,260.64648z M70.22949,257.81348l-3.88281-0.2334l0.04297-0.73047l3.88477,0.2334L70.22949,257.81348z
			 M66.45801,255.70313l-0.125-0.72168l1.85547-0.32324l-0.27148-1.55371l-1.85449,0.32324l-0.12598-0.72168l3.83008-0.66602
			l0.125,0.71973l-1.26953,0.22168l0.27051,1.55371l1.27051-0.2207l0.125,0.7207L66.45801,255.70313z"/>
		<polygon fill="#252626" points="32.91504,12.0332 32.53906,13.18164 33.2793,13.18164 		"/>
	</g>
	<g>
		<g>
			<g>
				<g>
					<g>
						<circle fill="#BCBCBC" cx="8.17472" cy="6.39054" r="5.73626"/>
					</g>
					<g>
						<path fill="#808080" d="M8.17476,11.8632c3.02102-0.00348,5.46916-2.45164,5.47262-5.47267c0,0,0-0.00001,0-0.00003
							c-0.00002-3.02247-2.45023-5.47264-5.4727-5.47262s-5.47264,2.45023-5.47262,5.4727S5.15229,11.86322,8.17476,11.8632
							 M2.17476,6.39054c0-3.31371,2.68629-6,6-6s6,2.68629,6,6s-2.68629,6-6,6C4.86111,12.39038,2.17492,9.70418,2.17476,6.39054z"
							/>
					</g>
				</g>
				<g>
					<polygon fill="#6E6E6E" points="4.67976,7.04954 7.51576,7.04954 7.51576,9.88554 8.83376,9.88554 8.83376,7.04954 
						11.66876,7.04954 11.66876,5.73154 8.83376,5.73154 8.83376,2.89554 7.51576,2.89554 7.51576,5.73154 4.67976,5.73154 					"/>
				</g>
			</g>
		</g>
	</g>
	<g>
		<g>
			<g>
				<g>
					<g>
						<circle fill="#BCBCBC" cx="67.18465" cy="373.60947" r="5.73626"/>
					</g>
					<g>
						<path fill="#808080" d="M67.1846,379.08212c-3.02102-0.00348-5.46916-2.45166-5.47262-5.47269c0,0,0,0,0-0.00003
							c0.00002-3.02246,2.45023-5.47263,5.4727-5.4726c3.02247,0,5.47264,2.45023,5.47262,5.47269
							S70.20707,379.08215,67.1846,379.08212 M73.1846,373.60947c0-3.31372-2.68629-6-6-6c-3.31371,0-6,2.68628-6,6
							c0,3.31369,2.68629,6,6,6C70.49825,379.60928,73.18444,376.9231,73.1846,373.60947z"/>
					</g>
				</g>
				<g>
					<polygon fill="#6E6E6E" points="70.6796,374.26846 67.84361,374.26846 67.84361,377.10446 66.5256,377.10446 
						66.5256,374.26846 63.69061,374.26846 63.69061,372.95047 66.5256,372.95047 66.5256,370.11447 67.84361,370.11447 
						67.84361,372.95047 70.6796,372.95047 					"/>
				</g>
			</g>
		</g>
	</g>
</g>
<g id="serigraphy">
	<g>
		<g>
			<g>
				<g>
					<path fill="#E5E5E5" d="M44.10938,198.79004c-0.31934-0.32031-0.31934-0.85059,0-1.16992l0,0
						c0.32031-0.33008,0.85059-0.33008,1.16992,0l0,0c0.33008,0.31934,0.33008,0.84961,0,1.16992l0,0
						c-0.15918,0.16016-0.36914,0.24023-0.58984,0.24023l0,0C44.47949,199.03027,44.26953,198.9502,44.10938,198.79004z
						 M41.66016,196c-0.23047-0.39063-0.10059-0.90039,0.29004-1.12988l0,0c0.39941-0.23047,0.89941-0.10059,1.13965,0.29004l0,0
						l0,0l0,0c0.22949,0.39941,0.09961,0.90918-0.2998,1.13965l0,0c-0.12988,0.08008-0.27051,0.11035-0.41992,0.11035l0,0
						C42.08984,196.41016,41.80957,196.26953,41.66016,196z M40.64941,192.22949c0-0.45996,0.37012-0.83008,0.83008-0.83008l0,0
						c0.4502,0,0.83008,0.37012,0.83008,0.83008l0,0c0,0.45996-0.37988,0.83008-0.83008,0.83008l0,0
						C41.01953,193.05957,40.64941,192.68945,40.64941,192.22949z M40.64941,188.70996c0-0.45996,0.37012-0.83008,0.83008-0.83008
						l0,0c0.4502,0,0.83008,0.37012,0.83008,0.83008l0,0c0,0.45996-0.37988,0.83008-0.83008,0.83008l0,0
						C41.01953,189.54004,40.64941,189.16992,40.64941,188.70996z M40.64941,185.2002c0-0.45996,0.37012-0.83008,0.83008-0.83008
						l0,0c0.4502,0,0.83008,0.37012,0.83008,0.83008l0,0c0,0.44922-0.37988,0.83008-0.83008,0.83008l0,0
						C41.01953,186.03027,40.64941,185.64941,40.64941,185.2002z M40.64941,181.67969c0-0.4502,0.37012-0.82031,0.83008-0.82031l0,0
						c0.4502,0,0.83008,0.37012,0.83008,0.82031l0,0c0,0.45996-0.37988,0.83008-0.83008,0.83008l0,0
						C41.01953,182.50977,40.64941,182.13965,40.64941,181.67969z M40.64941,174.64941c0-0.44922,0.37012-0.83008,0.83008-0.83008
						l0,0c0.4502,0,0.83008,0.38086,0.83008,0.83008l0,0c0,0.45996-0.37988,0.83008-0.83008,0.83008l0,0
						C41.01953,175.47949,40.64941,175.10938,40.64941,174.64941z M41.66992,169.45996c-0.4502-0.11035-0.73047-0.5498-0.62012-1
						l0,0c0.09961-0.44043,0.5498-0.71973,1-0.61035l0,0c0.44043,0.10059,0.71973,0.5498,0.61035,0.99023l0,0
						c-0.09082,0.37988-0.43066,0.63965-0.80078,0.63965l0,0C41.79004,169.47949,41.72949,169.46973,41.66992,169.45996z
						 M42.09687,165.92461c-0.41016-0.20996-0.57031-0.70996-0.36035-1.12012l0,0c0.21973-0.39941,0.71973-0.55957,1.12012-0.34961
						l0,0c0.41016,0.20996,0.55957,0.70996,0.34961,1.12012l0,0l0,0l0,0c-0.13965,0.28027-0.42969,0.43945-0.72949,0.43945l0,0
						C42.34687,166.01445,42.21601,165.99492,42.09687,165.92461z M44.51953,163.09961
						c-0.33984-0.2998-0.37012-0.83008-0.06934-1.16992l0,0c0.30957-0.33984,0.8291-0.37012,1.16992-0.07031l0,0
						c0.33984,0.31055,0.37012,0.83008,0.06934,1.1709l0,0c-0.16016,0.18945-0.38965,0.2793-0.62012,0.2793l0,0
						C44.87012,163.30957,44.67969,163.24023,44.51953,163.09961z"/>
				</g>
			</g>
		</g>
		<g>
			<g>
				<g>
					<path fill="#E5E5E5" d="M3.13965,24.01953c-0.21973,0-0.42969-0.08984-0.58984-0.25s-0.24023-0.35938-0.24023-0.58008
						c0-0.21973,0.08984-0.43945,0.24023-0.58984c0.08008-0.08008,0.16992-0.13965,0.26953-0.17969
						c0.2002-0.08008,0.43066-0.08008,0.63086,0c0.09961,0.04004,0.19922,0.09961,0.26953,0.17969
						c0.16016,0.15039,0.25,0.37012,0.25,0.58984c0,0.11035-0.03027,0.20996-0.07031,0.31055
						c-0.04004,0.09961-0.09961,0.18945-0.17969,0.26953C3.55957,23.92969,3.35938,24.01953,3.13965,24.01953z"/>
				</g>
			</g>
			<g>
				<g>
					<path fill="#E5E5E5" d="M7.46973,24.00977c-0.21973,0-0.42969-0.08008-0.58984-0.24023
						c-0.15039-0.14941-0.24023-0.35938-0.24023-0.58008c0-0.10938,0.02051-0.21973,0.06055-0.31934
						c0.04004-0.10059,0.10938-0.19043,0.17969-0.27051c0.08008-0.08008,0.16992-0.13965,0.26953-0.17969
						c0.2002-0.08008,0.43066-0.08008,0.62988,0c0.11035,0.04004,0.2002,0.09961,0.27051,0.17969
						c0.08008,0.08008,0.13965,0.16992,0.17969,0.27051c0.04004,0.09961,0.07031,0.20996,0.07031,0.31934
						c0,0.11035-0.03027,0.20996-0.07031,0.31055c-0.04004,0.10938-0.09961,0.2002-0.17969,0.26953
						C7.89941,23.92969,7.68945,24.00977,7.46973,24.00977z"/>
				</g>
			</g>
		</g>
		<g>
			<g>
				<g>
					<path fill="#E5E5E5" d="M67.76953,24.01953c-0.21973,0-0.42969-0.08984-0.58984-0.25
						c-0.15039-0.14941-0.24023-0.35938-0.24023-0.58008c0-0.21973,0.08984-0.43945,0.24023-0.58984
						c0.08008-0.08008,0.16992-0.13965,0.27051-0.17969c0.19922-0.08008,0.42969-0.08008,0.63965,0
						c0.09961,0.04004,0.18945,0.09961,0.26953,0.17969c0.07031,0.08008,0.13086,0.16992,0.16992,0.27051
						c0.04004,0.09961,0.06055,0.20996,0.06055,0.31934c0,0.2207-0.08008,0.43066-0.23047,0.58008
						c-0.08008,0.08008-0.16992,0.14063-0.26953,0.18066C67.97949,23.99023,67.87988,24.01953,67.76953,24.01953z"/>
				</g>
			</g>
			<g>
				<g>
					<path fill="#E5E5E5" d="M72.09961,24.01953c-0.10938,0-0.21973-0.0293-0.32031-0.06934
						c-0.09961-0.04004-0.18945-0.10059-0.26953-0.18066c-0.07031-0.06934-0.12988-0.16016-0.17969-0.25977
						c-0.04004-0.11035-0.06055-0.20996-0.06055-0.32031c0-0.21973,0.08984-0.43945,0.24023-0.58984
						c0.08008-0.06934,0.16992-0.13965,0.26953-0.17969c0.21094-0.08008,0.43066-0.08008,0.64063,0
						c0.09961,0.04004,0.18945,0.09961,0.26953,0.17969c0.15039,0.15039,0.24023,0.37012,0.24023,0.58984
						c0,0.11035-0.03027,0.20996-0.07031,0.32031c-0.04004,0.09961-0.09961,0.19043-0.16992,0.25977
						c-0.08008,0.08008-0.16992,0.14063-0.26953,0.18066C72.31934,23.99023,72.20996,24.01953,72.09961,24.01953z"/>
				</g>
			</g>
		</g>
		<g>
			<g>
				<g>
					<path fill="#E5E5E5" d="M10.59863,23.02051c0.00977,0.86328,0.45996,1.90527,1.5957,1.90527
						c0.86328,0,1.33203-0.50684,1.51953-1.23926h0.5918c-0.25391,1.09863-0.8916,1.73633-2.11133,1.73633
						c-1.53906,0-2.18652-1.18262-2.18652-2.56152c0-1.27637,0.64746-2.5625,2.18652-2.5625
						c1.55762,0,2.17676,1.36133,2.12988,2.72168H10.59863z M13.7334,22.52344c-0.02832-0.8916-0.58203-1.72656-1.53906-1.72656
						c-0.9668,0-1.50195,0.84473-1.5957,1.72656H13.7334z"/>
				</g>
			</g>
			<g>
				<g>
					<path fill="#E5E5E5" d="M14.58008,20.44043h0.65723l1.52051,4.25098h0.01855l1.50098-4.25098h0.61035l-1.81152,4.8418h-0.62891
						L14.58008,20.44043z"/>
				</g>
			</g>
			<g>
				<g>
					<path fill="#E5E5E5" d="M19.81836,23.02051c0.00977,0.86328,0.45996,1.90527,1.5957,1.90527
						c0.86328,0,1.33203-0.50684,1.51953-1.23926h0.5918c-0.25391,1.09863-0.8916,1.73633-2.11133,1.73633
						c-1.53906,0-2.18652-1.18262-2.18652-2.56152c0-1.27637,0.64746-2.5625,2.18652-2.5625
						c1.55762,0,2.17676,1.36133,2.12988,2.72168H19.81836z M22.95313,22.52344c-0.02832-0.8916-0.58203-1.72656-1.53906-1.72656
						c-0.9668,0-1.50195,0.84473-1.5957,1.72656H22.95313z"/>
				</g>
			</g>
			<g>
				<g>
					<path fill="#E5E5E5" d="M24.33496,20.44043h0.59082v0.83496h0.01953c0.21582-0.58203,0.86328-0.97656,1.54785-0.97656
						c1.36035,0,1.77344,0.71387,1.77344,1.86816v3.11523h-0.59082v-3.02148c0-0.83496-0.27246-1.46387-1.22949-1.46387
						c-0.93848,0-1.50098,0.71289-1.52051,1.66113v2.82422h-0.59082C24.33496,25.28222,24.33496,20.44043,24.33496,20.44043z"/>
				</g>
			</g>
			<g>
				<g>
					<path fill="#E5E5E5" d="M30.3252,20.44043h0.98438v0.49707H30.3252v3.26563c0,0.38477,0.05566,0.61035,0.47852,0.6377
						c0.16895,0,0.33789-0.00879,0.50586-0.02734v0.50586c-0.17773,0-0.34668,0.01953-0.52539,0.01953
						c-0.78809,0-1.06055-0.2627-1.05078-1.08887v-3.3125h-0.84473v-0.49707h0.84473v-1.45508h0.5918
						C30.32521,18.98536,30.32521,20.44043,30.3252,20.44043z"/>
				</g>
			</g>
			<g>
				<g>
					<path fill="#E5E5E5" d="M34.77637,20.44043h0.54395v0.81641h0.02832c0.30957-0.58203,0.81641-0.95801,1.58594-0.95801
						c0.6377,0,1.20996,0.31055,1.38867,0.94824c0.29102-0.6377,0.90039-0.94824,1.53906-0.94824
						c1.06055,0,1.60449,0.55371,1.60449,1.69922v3.28418h-0.59082v-3.25586c0-0.79785-0.30078-1.22949-1.14551-1.22949
						c-1.02246,0-1.31348,0.84473-1.31348,1.74512v2.74023h-0.59082v-3.28418c0.00879-0.65723-0.2627-1.20117-1.01367-1.20117
						c-1.02344,0-1.43555,0.76953-1.44531,1.78223v2.70313h-0.59082C34.77636,25.28224,34.77636,20.44043,34.77637,20.44043z"/>
				</g>
			</g>
			<g>
				<g>
					<path fill="#E5E5E5" d="M46.93164,22.86133c0,1.38867-0.80664,2.56152-2.29004,2.56152
						c-1.48242,0-2.28906-1.17285-2.28906-2.56152s0.80664-2.5625,2.28906-2.5625
						C46.125,20.29883,46.93164,21.47266,46.93164,22.86133z M42.94336,22.86133c0,1.03223,0.56348,2.06445,1.69824,2.06445
						c1.13574,0,1.69922-1.03223,1.69922-2.06445s-0.56348-2.06445-1.69922-2.06445
						C43.50684,20.79688,42.94336,21.8291,42.94336,22.86133z"/>
				</g>
			</g>
			<g>
				<g>
					<path fill="#E5E5E5" d="M52.07617,25.28223h-0.54395V24.3623h-0.01855c-0.25391,0.62891-1.02344,1.06055-1.72656,1.06055
						c-1.47363,0-2.17773-1.19141-2.17773-2.56152s0.7041-2.5625,2.17773-2.5625c0.72168,0,1.42578,0.36621,1.67969,1.06055h0.01855
						v-2.77734h0.59082C52.07618,18.58204,52.07618,25.28223,52.07617,25.28223z M49.78711,24.92578
						c1.25684,0,1.69824-1.06055,1.69824-2.06445s-0.44141-2.06445-1.69824-2.06445c-1.12695,0-1.58594,1.06055-1.58594,2.06445
						S48.66016,24.92578,49.78711,24.92578z"/>
				</g>
			</g>
			<g>
				<g>
					<path fill="#E5E5E5" d="M53.21387,18.58203h0.5918v0.94727h-0.5918V18.58203z M53.21387,20.44043h0.5918v4.8418h-0.5918
						V20.44043z"/>
				</g>
			</g>
			<g>
				<g>
					<path fill="#E5E5E5" d="M55.26074,20.9375h-0.8252v-0.49707h0.8252v-0.44141c-0.00879-0.83496,0.22559-1.41699,1.17285-1.41699
						c0.16895,0,0.31055,0.00977,0.49805,0.03711v0.50684C56.77148,19.09766,56.64063,19.0791,56.5,19.0791
						c-0.65723,0-0.63867,0.41309-0.64746,0.93848v0.42285h0.95703v0.49707h-0.95703v4.34473h-0.5918V20.9375z M57.38184,18.58203
						h0.59082v0.94727h-0.59082V18.58203z M57.38184,20.44043h0.59082v4.8418h-0.59082V20.44043z"/>
				</g>
			</g>
			<g>
				<g>
					<path fill="#E5E5E5" d="M59.45703,23.02051c0.00977,0.86328,0.45996,1.90527,1.5957,1.90527
						c0.86328,0,1.33203-0.50684,1.51953-1.23926h0.5918c-0.25391,1.09863-0.8916,1.73633-2.11133,1.73633
						c-1.53906,0-2.18652-1.18262-2.18652-2.56152c0-1.27637,0.64746-2.5625,2.18652-2.5625
						c1.55762,0,2.17676,1.36133,2.12988,2.72168H59.45703z M62.5918,22.52344c-0.02832-0.8916-0.58203-1.72656-1.53906-1.72656
						c-0.9668,0-1.50195,0.84473-1.5957,1.72656H62.5918z"/>
				</g>
			</g>
			<g>
				<g>
					<path fill="#E5E5E5" d="M63.9834,20.44043h0.54395v1.13477h0.01855c0.30078-0.77832,0.95703-1.23828,1.83008-1.20117v0.5918
						c-1.07031-0.05664-1.80176,0.73145-1.80176,1.73535v2.58105H63.9834V20.44043z"/>
				</g>
			</g>
		</g>
		<g>
			<g>
				<g>
					<path fill="#E5E5E5" d="M52.21077,63.80828c-0.05558,0-0.10522-0.00539-0.16026-0.01645s-0.10522-0.02211-0.15486-0.04423
						c-0.04964-0.02211-0.09928-0.04962-0.14353-0.07739c-0.04424-0.0275-0.08849-0.06634-0.12734-0.1049
						c-0.15432-0.15452-0.24281-0.36459-0.24281-0.58544c0-0.21546,0.08849-0.43065,0.24281-0.58544
						c0.03885-0.03856,0.0831-0.07173,0.12734-0.1049c0.04425-0.0275,0.09389-0.05528,0.14353-0.07173
						c0.04964-0.02211,0.09982-0.03856,0.15486-0.04962c0.27087-0.04988,0.55792,0.03856,0.7457,0.22625
						c0.15486,0.15479,0.24335,0.36998,0.24335,0.58544c0,0.22086-0.08849,0.43092-0.24335,0.58544
						C52.64189,63.71983,52.43145,63.80828,52.21077,63.80828z"/>
				</g>
			</g>
			<g>
				<g>
					<path fill="#E5E5E5" d="M53.7318,59.85923c-0.43112-0.15479-0.65181-0.62967-0.49749-1.06059l0,0
						c0.15486-0.43065,0.63023-0.65151,1.06081-0.49699l0,0c0.43112,0.15479,0.65235,0.63506,0.4921,1.06031h0.00539
						c-0.12141,0.33708-0.44191,0.54688-0.77915,0.54688l0,0C53.91957,59.90885,53.82569,59.89213,53.7318,59.85923z"/>
				</g>
			</g>
			<g>
				<g>
					<path fill="#E5E5E5" d="M54.79517,56.58718c-0.44785-0.05528-0.77376-0.46949-0.71872-0.92764l0,0
						c0.05558-0.45303,0.46997-0.77879,0.92322-0.71811l0,0c0.45271,0.05528,0.77861,0.46382,0.72358,0.92225l0,0
						c-0.05504,0.41986-0.409,0.72917-0.8234,0.72917l0,0C54.86694,56.59284,54.83348,56.58718,54.79517,56.58718z"/>
				</g>
			</g>
			<g>
				<g>
					<path fill="#E5E5E5" d="M21.21356,52.70758c-0.4581-0.05501-0.77861-0.46922-0.72897-0.92225l0,0
						c0.05504-0.45277,0.46404-0.77879,0.91728-0.7289l0,0c0.45864,0.05528,0.78455,0.46382,0.72897,0.92225l0,0
						c-0.04964,0.4196-0.40846,0.73456-0.82286,0.73456l0,0C21.27453,52.71325,21.24162,52.70758,21.21356,52.70758z"/>
				</g>
			</g>
			<g>
				<g>
					<path fill="#E5E5E5" d="M53.22733,48.70929c-0.14893-0.43092,0.08849-0.90014,0.51962-1.04926l0,0
						c0.43058-0.14912,0.90055,0.08818,1.04948,0.5191l0,0c0.14946,0.43065-0.08256,0.90014-0.51908,1.04926l0,0
						c-0.08849,0.03317-0.17698,0.04422-0.26547,0.04422l0,0C53.66925,49.27261,53.34334,49.05715,53.22733,48.70929z"/>
				</g>
			</g>
			<g>
				<g>
					<path fill="#E5E5E5" d="M51.69709,45.462c-0.23796-0.39236-0.11601-0.9058,0.27033-1.14337l0,0
						c0.39227-0.2373,0.90056-0.11596,1.13851,0.27074h0.00539c0.23742,0.38643,0.11601,0.90014-0.27087,1.13771l0,0
						c-0.13813,0.08818-0.28706,0.12701-0.43652,0.12701l0,0C52.12767,45.85409,51.85734,45.71602,51.69709,45.462z"/>
				</g>
			</g>
			<g>
				<g>
					<path fill="#E5E5E5" d="M25.61761,42.45201c-0.32591-0.32575-0.32051-0.85052,0.0054-1.17088l0,0
						c0.3259-0.32575,0.85092-0.32036,1.17143,0.00566l0,0c0.32051,0.32575,0.32051,0.85052-0.0054,1.17061l0,0
						c-0.16026,0.16018-0.37609,0.23757-0.58598,0.23757l0,0C25.99315,42.69498,25.77786,42.61219,25.61761,42.45201z"/>
				</g>
			</g>
			<g>
				<g>
					<path fill="#E5E5E5" d="M46.69087,40.36455c-0.38688-0.24863-0.49695-0.76234-0.24874-1.14877l0,0
						c0.24335-0.38103,0.75703-0.49726,1.14391-0.24863l0,0c0.38148,0.24863,0.49749,0.76207,0.24874,1.1431l0,0
						c-0.16026,0.24863-0.42573,0.3813-0.69606,0.3813l0,0C46.98386,40.49156,46.829,40.45273,46.69087,40.36455z"/>
				</g>
			</g>
			<g>
				<g>
					<path fill="#E5E5E5" d="M31.80604,38.17731c-0.14407-0.43605,0.08256-0.90553,0.51908-1.05465l0,0
						c0.43112-0.14912,0.90055,0.08818,1.05002,0.5191l0,0c0.14893,0.43065-0.0831,0.90014-0.51422,1.04926l0,0
						c-0.08795,0.03317-0.18238,0.04422-0.27033,0.04422l0,0C32.24796,38.73524,31.92205,38.51978,31.80604,38.17731z"/>
				</g>
			</g>
			<g>
				<g>
					<path fill="#E5E5E5" d="M39.96663,37.95107c-0.45325-0.05528-0.77915-0.46949-0.72358-0.92225l0,0
						c0.05504-0.45303,0.46404-0.77879,0.92268-0.72351l0,0c0.45271,0.05528,0.77916,0.46382,0.72358,0.92225l0,0
						c-0.04964,0.41959-0.409,0.7289-0.82339,0.7289l0,0C40.033,37.95646,39.99955,37.95107,39.96663,37.95107z"/>
				</g>
			</g>
			<g>
				<g>
					<path fill="#E5E5E5" d="M54.41549,65.23318c-0.21583,0-0.43113-0.08845-0.58598-0.24297
						c-0.03831-0.03883-0.07177-0.08279-0.09928-0.12701c-0.03345-0.04422-0.05558-0.09384-0.07716-0.14373
						c-0.02213-0.04961-0.03885-0.09924-0.05018-0.15452c-0.01079-0.05527-0.01619-0.1049-0.01619-0.16018
						c0-0.22086,0.08795-0.43631,0.24281-0.58544c0.19371-0.19335,0.48077-0.28153,0.75163-0.23191
						c0.04964,0.01105,0.10468,0.02751,0.15486,0.04962c0.04964,0.02211,0.09389,0.04422,0.14353,0.07739
						c0.04424,0.02751,0.08849,0.06634,0.1214,0.1049c0.15486,0.14912,0.24335,0.36458,0.24335,0.58544
						c0,0.05528-0.00594,0.1049-0.01673,0.16018c-0.00539,0.05528-0.02212,0.1049-0.04424,0.15452
						c-0.02213,0.04989-0.04964,0.09951-0.07716,0.14373c-0.02806,0.04423-0.06637,0.08818-0.10522,0.12701
						c-0.03291,0.03856-0.07716,0.07173-0.1214,0.09924c-0.04964,0.03316-0.09389,0.05528-0.14353,0.07739
						c-0.05018,0.02211-0.10522,0.03883-0.15486,0.04989C54.52556,65.22752,54.47052,65.23318,54.41549,65.23318z"/>
				</g>
			</g>
			<g>
				<g>
					<path fill="#E5E5E5" d="M55.84105,61.82005c-0.42573-0.17124-0.63023-0.65151-0.45864-1.07677l0,0
						c0.16565-0.42526,0.64642-0.63506,1.0716-0.46409l0,0c0.42573,0.17124,0.63562,0.65178,0.46404,1.07704l0,0
						c-0.1268,0.32575-0.44191,0.5191-0.76782,0.5191l0,0C56.04501,61.87533,55.94573,61.85888,55.84105,61.82005z"/>
				</g>
			</g>
			<g>
				<g>
					<path fill="#E5E5E5" d="M57.04539,58.23595c-0.44785-0.08279-0.74624-0.51371-0.66314-0.96647l0,0
						c0.0831-0.44737,0.51368-0.74562,0.96693-0.66283l0,0c0.44785,0.08279,0.7457,0.51371,0.66314,0.96647l0,0
						c-0.07177,0.39775-0.4198,0.67928-0.818,0.67928l0,0C57.14468,58.2524,57.09504,58.24701,57.04539,58.23595z"/>
				</g>
			</g>
			<g>
				<g>
					<path fill="#E5E5E5" d="M56.69197,53.66866c0-0.45843,0.36422-0.8284,0.82286-0.83407l0,0
						c0.45864-0.00539,0.83473,0.35919,0.83473,0.81735l0,0c0.0054,0.45843-0.35936,0.83407-0.818,0.83407l0,0
						c-0.0054,0-0.01079,0-0.01079,0l0,0C57.06752,54.48602,56.69736,54.12143,56.69197,53.66866z"/>
				</g>
			</g>
			<g>
				<g>
					<path fill="#E5E5E5" d="M56.31049,50.07324c-0.08849-0.44737,0.1991-0.88342,0.64642-0.97753l0,0
						c0.44731-0.08818,0.88383,0.19901,0.97826,0.64639l0,0c0.09388,0.4471-0.19371,0.88342-0.64696,0.97753l0,0
						c-0.05504,0.01079-0.11007,0.01645-0.16565,0.01645l0,0C56.73568,50.73608,56.39358,50.46533,56.31049,50.07324z"/>
				</g>
			</g>
			<g>
				<g>
					<path fill="#E5E5E5" d="M19.31882,46.52948c-0.41979-0.18769-0.60757-0.67362-0.42519-1.09349l0,0
						c0.18238-0.41959,0.67393-0.60755,1.08833-0.42526l0,0c0.41979,0.18795,0.6135,0.67389,0.42573,1.09349l0,0l0,0l0,0
						c-0.13274,0.3093-0.43652,0.49726-0.75703,0.49726l0,0C19.54005,46.60148,19.42404,46.57937,19.31882,46.52948z"/>
				</g>
			</g>
			<g>
				<g>
					<path fill="#E5E5E5" d="M53.52032,43.446c-0.25414-0.38103-0.15486-0.89447,0.22662-1.1485l0,0
						c0.38094-0.25429,0.89462-0.16018,1.1493,0.22086l0,0c0.25414,0.38103,0.15432,0.89447-0.22662,1.14877l0,0
						c-0.13813,0.09924-0.30433,0.14346-0.45864,0.14346l0,0C53.94012,43.81058,53.68058,43.68357,53.52032,43.446z"/>
				</g>
			</g>
			<g>
				<g>
					<path fill="#E5E5E5" d="M51.22172,40.65714c-0.32591-0.32036-0.32591-0.84485,0-1.17088l0,0
						c0.32051-0.32576,0.84552-0.32576,1.17142,0l0,0c0.32051,0.32036,0.32051,0.84512,0,1.17088l0,0
						c-0.16565,0.16018-0.37609,0.24297-0.58598,0.24297l0,0C51.59187,40.9001,51.38197,40.81732,51.22172,40.65714z"/>
				</g>
			</g>
			<g>
				<g>
					<path fill="#E5E5E5" d="M26.76691,37.96212c-0.24875-0.3867-0.14407-0.90041,0.24281-1.14877l0,0
						c0.38148-0.24863,0.89516-0.13807,1.14391,0.24297l0,0c0.25414,0.3867,0.14353,0.89474-0.24335,1.14877l0,0
						c-0.13813,0.08845-0.29245,0.1324-0.44731,0.1324l0,0C27.1921,38.33749,26.92123,38.20509,26.76691,37.96212z"/>
				</g>
			</g>
			<g>
				<g>
					<path fill="#E5E5E5" d="M45.24318,36.64751c-0.41979-0.17663-0.62429-0.66256-0.44731-1.08243l0,0
						c0.18238-0.4196,0.66314-0.61834,1.08833-0.44171l0,0C46.304,35.3,46.5031,35.7862,46.32612,36.2058l0,0
						c-0.1322,0.3147-0.43652,0.50805-0.76242,0.50805l0,0C45.45901,36.71385,45.3484,36.69174,45.24318,36.64751z"/>
				</g>
			</g>
			<g>
				<g>
					<path fill="#E5E5E5" d="M33.62388,34.86935c-0.0831-0.45276,0.21529-0.88369,0.6626-0.96647l0,0
						c0.44785-0.08279,0.88437,0.2098,0.96693,0.66283l0,0c0.0831,0.4471-0.2099,0.87802-0.66261,0.96647l0,0
						c-0.05018,0.00539-0.09982,0.01078-0.15486,0.01078l0,0C34.04907,35.54297,33.70104,35.26683,33.62388,34.86935z"/>
				</g>
			</g>
			<g>
				<g>
					<path fill="#E5E5E5" d="M38.19304,35.21182L38.19304,35.21182L38.19304,35.21182c-0.45864,0-0.8288-0.37564-0.8234-0.83407l0,0
						c0.00539-0.45843,0.37609-0.82274,0.83419-0.82274l0,0c0.45864,0.00539,0.82879,0.38103,0.82339,0.8338l0,0
						c-0.00539,0.45304-0.37015,0.82301-0.82339,0.82301l0,0C38.19843,35.21182,38.19843,35.21182,38.19304,35.21182z"/>
				</g>
			</g>
		</g>
		<g>
			<path fill="#E5E5E5" d="M37.5,202.5403c-0.45801,0-0.82813-0.37012-0.82813-0.82813v-21.42578
				c0-0.45801,0.37012-0.82813,0.82813-0.82813s0.82813,0.37012,0.82813,0.82813v21.42578
				C38.32813,202.17018,37.95801,202.5403,37.5,202.5403z"/>
		</g>
	</g>
</g>
</svg>
