<?xml version="1.0" encoding="utf-8"?>
<!-- Generator: Adobe Illustrator 23.0.3, SVG Export Plug-In . SVG Version: 6.00 Build 0)  -->
<svg version="1.0" id="Layer_5" xmlns="http://www.w3.org/2000/svg" xmlns:xlink="http://www.w3.org/1999/xlink" x="0px" y="0px"
	 viewBox="0 0 165 380" enable-background="new 0 0 165 380" xml:space="preserve">
<linearGradient id="SVGID_1_" gradientUnits="userSpaceOnUse" x1="-53.09117" y1="326.67706" x2="214.62535" y2="58.96054" gradientTransform="matrix(1 0 0 -1 0 382)">
	<stop  offset="0.38537" style="stop-color:#FFCC9E"/>
	<stop  offset="0.62112" style="stop-color:#F1AD8C"/>
	<stop  offset="0.85662" style="stop-color:#E6947E"/>
	<stop  offset="1" style="stop-color:#E28B79"/>
</linearGradient>
<rect x="0.36391" y="1.86787" fill="url(#SVGID_1_)" width="160.80637" height="374.62668"/>
<g>
	<path fill="#252626" d="M51.49609,9.46191c0-0.14355-0.09961-0.34277-0.23145-0.34277h-0.99512v0.69629h0.99512
		C51.39648,9.81543,51.49609,9.60547,51.49609,9.46191z"/>
	<polygon fill="#252626" points="107.03516,353.05859 107.05176,351.93359 106.28906,352.76172 	"/>
	<polygon fill="#252626" points="30.68555,221.14648 29.93848,221.98926 30.69043,222.27246 	"/>
	<path fill="#252626" d="M49.05664,37.56836c0.78613-0.12988,1.32227-0.87598,1.19238-1.66797
		c-0.13086-0.79785-0.87891-1.33398-1.66504-1.20508c-0.78516,0.12891-1.32129,0.87598-1.18945,1.67383
		C47.52344,37.16211,48.27051,37.69727,49.05664,37.56836z"/>
	<path fill="#252626" d="M104.05469,349.76367l-0.60059-0.43262l-0.36621,0.50684l0.59961,0.43359
		c0.13867,0.09863,0.32813,0.06348,0.42773-0.07422C104.21484,350.06055,104.1875,349.86035,104.05469,349.76367z"/>
	<polygon fill="#252626" points="92.54199,10.2793 92.16602,11.42773 92.90625,11.42773 	"/>
	<path fill="#252626" d="M110.47266,320.27148c0.02637,0.17285,0.19238,0.29004,0.36035,0.26367l0.75-0.11621l-0.09668-0.625
		l-0.75,0.11719C110.56836,319.93652,110.44531,320.09668,110.47266,320.27148z"/>
	<polygon fill="#252626" points="107.9043,35.92676 107.85645,37.04883 108.61621,36.7959 	"/>
	<path fill="#252626" d="M103.69629,9.46191c0-0.15527-0.11035-0.35352-0.26465-0.35352h-1.0166v0.70703h1.0166
		C103.58594,9.81543,103.69629,9.61621,103.69629,9.46191z"/>
	<path fill="#252626" d="M24.17969,164.41406c0.04102-0.34961-0.21289-0.67969-0.5625-0.72656l-1.08008-0.12598l-0.1543,1.31543
		l1.07422,0.125C23.81445,165.03125,24.13867,164.76953,24.17969,164.41406z"/>
	<path fill="#252626" d="M51.77637,352.43945c-0.7959,0.02832-1.42383,0.70215-1.39453,1.51074
		c0.02832,0.80176,0.70215,1.42969,1.49902,1.40039c0.7959-0.02734,1.42285-0.70215,1.39453-1.50391
		C53.24609,353.03809,52.57227,352.41113,51.77637,352.43945z"/>
	<path fill="#252626" d="M11.13477,225.45605l-0.5127,0.55957l0.46582,0.42676l0.51172-0.55957
		c0.11426-0.12598,0.11035-0.32715-0.02051-0.44629C11.4502,225.31836,11.24902,225.33008,11.13477,225.45605z"/>
	<path fill="#252626" d="M23.75,162.59668c0.01953-0.16309-0.09766-0.31152-0.26563-0.34277l-0.7832-0.0918l-0.07227,0.60938
		l0.78516,0.0918C23.58203,162.88281,23.73242,162.75977,23.75,162.59668z"/>
	<path fill="#252626" d="M67.81836,330.81738c0.73633-0.31934,1.07422-1.17578,0.75781-1.90527
		c-0.31641-0.73047-1.17285-1.06934-1.9082-0.75c-0.74121,0.32129-1.0791,1.17676-0.76367,1.90723
		C66.22168,330.7998,67.07617,331.1377,67.81836,330.81738z"/>
	<path fill="#252626" d="M20.78027,219.77148c-0.77832,0.16406-1.28125,0.93359-1.11523,1.72461
		c0.16504,0.78418,0.93457,1.28711,1.71289,1.12305c0.7793-0.16211,1.28125-0.93262,1.11719-1.7168
		C22.3291,220.1123,21.55859,219.60938,20.78027,219.77148z"/>
	<path fill="#252626" d="M110.89746,70.31348l0.75195,0.11133l0.0918-0.625l-0.75-0.11035
		c-0.16895-0.02539-0.33301,0.09082-0.35938,0.26563C110.60645,70.12988,110.73047,70.28906,110.89746,70.31348z"/>
	<path fill="#252626" d="M7.30664,233.36816c-0.16699-0.03418-0.33691,0.07422-0.37012,0.23438l-0.14746,0.72656l0.61426,0.125
		l0.14746-0.72656C7.58398,233.56055,7.47363,233.40137,7.30664,233.36816z"/>
	<path fill="#252626" d="M97.61816,331.32422c0.16699,0.05664,0.3457-0.03613,0.40137-0.19629l0.24707-0.71777l-0.59668-0.2041
		l-0.24805,0.71582C97.36719,331.08301,97.45215,331.2666,97.61816,331.32422z"/>
	<path fill="#252626" d="M62.84961,64.79297c0.54785,0.51758,1.42773,0.47949,1.96289-0.08594l0.44238-0.46875l-1.98828-1.87891
		l-0.44238,0.46777C62.28906,63.39355,62.30078,64.27539,62.84961,64.79297z"/>
	<path fill="#252626" d="M138.12012,227.00586l1.07227-0.12598c0.35449-0.05371,0.60742-0.38281,0.56641-0.73828
		c-0.04004-0.34863-0.36426-0.61035-0.71484-0.5752l-1.07813,0.12598L138.12012,227.00586z"/>
	<polygon fill="#252626" points="136.15234,167.69824 136.32422,168.81152 136.9375,167.86621 	"/>
	<path fill="#252626" d="M155.02148,161.65039l0.42285-0.62988l-0.52441-0.35254l-0.42285,0.62988
		c-0.09473,0.14063-0.05957,0.33887,0.08594,0.4375S154.92578,161.79102,155.02148,161.65039z"/>
	<path fill="#252626" d="M138.65625,224.81152c0.16895-0.01953,0.28516-0.17383,0.2666-0.33691
		c-0.01953-0.16211-0.16797-0.2793-0.33691-0.27148l-0.78418,0.0918l0.07129,0.6084L138.65625,224.81152z"/>
	<path fill="#252626" d="M146.32324,168.70117c0.74609-0.27637,1.12891-1.1123,0.84766-1.86914
		c-0.2793-0.75195-1.11426-1.13477-1.86035-0.85742c-0.74609,0.27637-1.12891,1.1123-0.84961,1.86328
		C144.74316,168.5957,145.57715,168.97754,146.32324,168.70117z"/>
	<path fill="#252626" d="M157.63574,153.28125c0.16895,0.00879,0.32227-0.12305,0.33105-0.28711l0.03711-0.73926l-0.625-0.0332
		l-0.03809,0.74121C157.33203,153.13281,157.46484,153.27344,157.63574,153.28125z"/>
	<path fill="#252626" d="M96.54785,57.71875c-0.16797,0.05469-0.25684,0.2373-0.2041,0.39941l0.23242,0.72363l0.60156-0.19434
		l-0.23145-0.72363C96.89355,57.76172,96.71582,57.66602,96.54785,57.71875z"/>
	<path fill="#252626" d="M103.96484,37.20117l-0.62207,0.4043l0.34082,0.52539l0.62109-0.4043
		c0.14355-0.0918,0.17969-0.28223,0.08691-0.4248C104.29883,37.1582,104.10254,37.1123,103.96484,37.20117z"/>
	<path fill="#252626" d="M61.36523,322.14746c-0.47461,0.58594-0.36914,1.46191,0.23633,1.95117l0.50098,0.40527l1.7207-2.12695
		l-0.50098-0.40625C62.71777,321.48242,61.83887,321.56152,61.36523,322.14746z"/>
	<path fill="#252626" d="M67.22266,58.32617c0.78027,0.20996,1.57813-0.24805,1.78516-1.01758
		c0.20801-0.76855-0.25-1.56738-1.03125-1.77734c-0.77441-0.20898-1.57227,0.25-1.7793,1.01758
		C65.98926,57.31836,66.44727,58.11621,67.22266,58.32617z"/>
	<path fill="#252626" d="M113.65399,261.55823c0-7.10272,4.98279-13.03296,11.64099-14.50983
		c-0.66565-1.95758-1.45941-3.85522-2.3761-5.68256c-2.18958,1.26874-4.72485,2.00677-7.43756,2.00677
		c-8.21368,0-14.87219-6.65851-14.87219-14.87213c0-2.70081,0.73108-5.22601,1.98944-7.40906
		c-1.8205-0.90796-3.71088-1.69305-5.65991-2.35211c-1.48065,6.65308-7.4082,11.63092-14.50726,11.63092
		c-7.08368,0-12.99957-4.95679-14.49634-11.58813c-1.9209,0.65594-3.78412,1.43488-5.57947,2.33282
		c1.24976,2.17755,1.97491,4.69434,1.97491,7.38507c0,8.21368-6.65851,14.87219-14.87219,14.87219
		c-2.69336,0-5.21234-0.72668-7.39136-1.9787c-0.91083,1.81879-1.69965,3.70721-2.36194,5.65485
		c6.6582,1.47681,11.64099,7.40717,11.64099,14.50989c0,7.10278-4.98291,13.03314-11.64117,14.50995
		c0.65369,1.92236,1.42981,3.78741,2.32574,5.58441c2.19684-1.28033,4.74335-2.02612,7.46942-2.02612
		c8.21368,0,14.87219,6.65845,14.87219,14.87213c0,2.73517-0.7511,5.28943-2.03937,7.49121
		c1.81958,0.91132,3.70886,1.70056,5.65741,2.36304c1.47699-6.65796,7.40717-11.64063,14.50977-11.64063
		s13.03284,4.98267,14.50983,11.64063c1.94159-0.66016,3.8244-1.44586,5.63794-2.35309
		c-1.29193-2.20404-2.04541-4.76184-2.04541-7.50116c0-8.21368,6.65851-14.87213,14.87219-14.87213
		c2.73419,0,5.28754,0.75049,7.48883,2.0379c0.89844-1.8006,1.6767-3.66956,2.33179-5.59619
		C118.6369,274.59137,113.65399,268.66101,113.65399,261.55823z"/>
	<path fill="#252626" d="M29.01355,200.29291c-0.77539,0.18359-1.25879,0.9668-1.07324,1.75293
		c0.18457,0.78027,0.9668,1.26367,1.74219,1.08105c0.77539-0.18359,1.25879-0.96582,1.07422-1.74609
		C30.57117,200.59369,29.78796,200.11029,29.01355,200.29291z"/>
	<path fill="#252626" d="M154.17566,196.78119c0.68555-0.42773,0.89551-1.32227,0.47461-2
		c-0.4209-0.67578-1.31641-0.88477-2.00293-0.45898c-0.68164,0.42383-0.89063,1.32031-0.46973,1.99609
		C152.59753,196.99603,153.49402,197.20502,154.17566,196.78119z"/>
	<path fill="#252626" d="M130.1571,189.21869c-0.09375-0.15039-0.29102-0.19141-0.43555-0.10352l-0.64551,0.39844l0.33105,0.53711
		l0.64551-0.39648C130.19812,189.56439,130.2489,189.36908,130.1571,189.21869z"/>
	<polygon fill="#252626" points="144.39734,187.64838 143.70593,188.5351 144.47156,188.77142 	"/>
	<path fill="#252626" d="M0,0v380h165V0H0z M158.14844,146.72266l-2.63867,0.59375c-0.47363,0.10742-0.77832,0.58105-0.67285,1.0498
		c0.10742,0.47363,0.58398,0.76563,1.05762,0.6582l2.63867-0.59375l0.17871,0.79297l-2.63867,0.59473
		c-0.43848,0.09961-0.8916,0.02051-1.27051-0.21777c-0.37891-0.24512-0.64453-0.62109-0.74316-1.05957
		c-0.2041-0.90723,0.36523-1.80859,1.27344-2.0127l2.6377-0.59473L158.14844,146.72266z M152.42676,142.94043l0.0332-0.15137
		l0.79199,0.16895l-0.0332,0.15137c-0.0752,0.36328-0.06738,0.71387,0.02832,1.00781l0.00293,0.00586
		c0.02832,0.08789,0.0625,0.17383,0.10742,0.25293c0.07422,0.13281,0.16895,0.24023,0.27441,0.31445
		c0.12402,0.09668,0.32422,0.17969,0.54102,0.05859c0.11621-0.06543,0.17383-0.1748,0.18066-0.33789
		c0.00586-0.19824-0.05957-0.42773-0.11328-0.58496c-0.02539-0.07031-0.21582-0.67383-0.21875-1
		c0.00879-0.22168,0.06445-0.41992,0.16309-0.59375c0.10254-0.17578,0.24902-0.3125,0.43457-0.41797
		c0.20117-0.1123,0.43848-0.16113,0.69141-0.14453c0.21973,0.03125,0.43652,0.11914,0.63379,0.25977s0.36328,0.3252,0.49219,0.55371
		c0.0498,0.08984,0.09375,0.19141,0.13574,0.29297c0.13379,0.38477,0.16699,0.81836,0.08203,1.26465l-0.02832,0.14746
		l-0.79883-0.14453l0.02832-0.14746c0.08789-0.50293-0.01563-0.83594-0.12207-1.02734
		c-0.06836-0.12109-0.1582-0.21777-0.25293-0.29004c-0.15332-0.10938-0.33301-0.13281-0.46094-0.06152
		c-0.11719,0.06445-0.16602,0.15039-0.17969,0.28906c-0.0127,0.13867,0.02051,0.32227,0.10449,0.5957
		c0.0127,0.03516,0.02539,0.08301,0.03906,0.13184c0.08301,0.24609,0.18555,0.5791,0.17969,0.85449
		c0.00488,0.23438-0.0498,0.44629-0.15039,0.62793c-0.09961,0.18164-0.25293,0.33105-0.44434,0.4375
		c-0.23926,0.13379-0.48633,0.18848-0.7373,0.16309c-0.21777-0.02441-0.44238-0.11523-0.66992-0.27246
		c-0.19922-0.13281-0.3584-0.31641-0.50391-0.5752c-0.06836-0.12207-0.12305-0.25879-0.17188-0.40527
		C152.34473,143.92578,152.32227,143.4375,152.42676,142.94043z M151.46289,160.61133l2.60938-0.09668l0.19336-0.28613
		l-1.75293-1.17871l0.44043-0.65527l3.58594,2.41113l-0.86328,1.28418c-0.16309,0.24219-0.41113,0.4043-0.70508,0.46191
		c-0.29492,0.05762-0.58594,0.00195-0.82813-0.16211c-0.35742-0.23926-0.53711-0.66797-0.47852-1.08105l-2.73535,0.09766
		L151.46289,160.61133z M148.51953,218.66016c0.44043-0.11035,0.90039,0.14941,1.00977,0.58984h0.01074
		c0.10938,0.43945-0.15039,0.89941-0.58984,1.00977c-0.07031,0.02051-0.14063,0.03027-0.20996,0.03027
		c-0.37012,0-0.71094-0.24023-0.81055-0.61035c0,0,0,0,0.00977,0C147.81934,219.22949,148.08008,218.78027,148.51953,218.66016z
		 M147.33386,188.21869l0.41406-0.68555l2.51855,1.52148l-0.41504,0.68555l-0.91113-0.55078l-1.82324,3.01758l-0.69727-0.42188
		l1.82324-3.01563L147.33386,188.21869z M147.35376,214.33984c0.41992-0.17969,0.91016,0.01953,1.08008,0.44043
		c0.17969,0.41992-0.01953,0.90918-0.44043,1.08984c-0.10938,0.04004-0.20996,0.05957-0.31934,0.05957
		c-0.33008,0-0.62988-0.18945-0.77051-0.50977C146.73364,215,146.93384,214.51953,147.35376,214.33984z M148.80524,223.28516
		c0.04004-0.10059,0.09961-0.19043,0.17969-0.26074c0.07031-0.08008,0.16016-0.13965,0.25977-0.17969
		c0.20996-0.08984,0.44043-0.08984,0.64063,0c0.09961,0.04004,0.18945,0.09961,0.26953,0.17969
		c0.15039,0.15039,0.24023,0.37012,0.24023,0.58008c0,0.2207-0.08984,0.43066-0.24023,0.58984
		c-0.16016,0.15039-0.37012,0.24023-0.58984,0.24023s-0.42969-0.08984-0.58008-0.24023c-0.16016-0.15918-0.25-0.36914-0.25-0.58984
		C148.73492,223.49512,148.75446,223.39453,148.80524,223.28516z M149.52234,194.14642l-0.59277-0.56055l2.97266-3.14844
		l0.59277,0.56055L149.52234,194.14642z M152.21667,193.6308c1.06445-0.66016,2.46191-0.33398,3.12012,0.72461
		c0.66211,1.0625,0.33594,2.46094-0.72754,3.12109c-1.05859,0.66016-2.45215,0.33008-3.11328-0.73438
		C150.83777,195.68549,151.15906,194.29095,152.21667,193.6308z M148.37402,163.56934l3.27734,0.98535l-1.79004-2.19824
		l0.63086-0.51465l2.73047,3.35254l-0.61133,0.49902l-3.27148-0.98633l1.78809,2.19434l-0.63086,0.51367l-2.73047-3.35156
		L148.37402,163.56934z M145.03125,165.22266c1.16699-0.43359,2.46973,0.15918,2.90332,1.3252
		c0.43457,1.17285-0.16309,2.47754-1.33008,2.91113c-1.17285,0.43457-2.47656-0.16211-2.91211-1.33594
		C143.25879,166.95605,143.8584,165.65723,145.03125,165.22266z M142.39343,190.1933l-0.83105-0.25781l2.86523-3.64648
		l0.7041,0.2168l0.3252,4.63086l-0.83789-0.25977l-0.08105-1.24609l-1.37012-0.42188L142.39343,190.1933z M142.91797,223.53516
		l-0.64063,4.27637l-0.80469-0.12012l0.63965-4.27637L142.91797,223.53516z M142.02637,170.43066l-1.29395-2.96387l-1.03027,3.06836
		l-0.86719,0.03906l1.46875-4.39551l0.73438-0.0332l1.8623,4.24609L142.02637,170.43066z M130.93152,192.52338l-0.67188,0.41406
		l-2.27051-3.67969l1.31836-0.8125c0.24805-0.1543,0.54102-0.19922,0.83301-0.13086c0.29297,0.07031,0.53516,0.24219,0.6875,0.49023
		c0.22656,0.36719,0.21387,0.83203-0.01074,1.18359l2.53418,1.04102l-0.81738,0.50391l-2.41699-0.99219l-0.29492,0.18359
		L130.93152,192.52338z M83.02057,174.34131v-1.65625c24.68188-0.28131,44.67767-20.43774,44.67767-45.18506
		c0-24.92188-20.27637-45.19824-45.19824-45.19824S37.30176,102.57813,37.30176,127.5
		c0,24.74731,19.99573,44.90375,44.67773,45.18506v1.65625C56.38348,174.05994,35.64551,153.16138,35.64551,127.5
		c0-25.83594,21.01855-46.85449,46.85449-46.85449s46.85449,21.01855,46.85449,46.85449
		C129.35449,153.16138,108.61652,174.05988,83.02057,174.34131z M124.5293,194.93945
		c-0.09961,0.37988-0.42969,0.62988-0.7998,0.62988c-0.06934,0-0.13965-0.00977-0.20996-0.0293
		c-0.43945-0.11035-0.70996-0.56055-0.58984-1.00977c0.11035-0.44043,0.56055-0.71094,1-0.60059
		C124.37988,194.0498,124.63965,194.5,124.5293,194.93945z M120.01953,193.99023c-0.0498,0.41992-0.39941,0.72949-0.81934,0.72949
		c-0.03027,0-0.06055,0-0.09082,0c-0.45996-0.05957-0.79004-0.46973-0.72949-0.91992
		c0.0498-0.45996,0.46973-0.78027,0.91992-0.73047C119.75,193.12988,120.08008,193.54004,120.01953,193.99023z M115.42969,193.63965
		c0.00977,0.45996-0.36035,0.83008-0.80957,0.83984c-0.01074,0-0.01074,0-0.01074,0c-0.45996,0-0.83008-0.37012-0.83008-0.81934
		c-0.00977-0.45996,0.36035-0.83008,0.82031-0.84082C115.0498,192.81934,115.42969,193.17969,115.42969,193.63965z
		 M101.50977,197.26953c-0.11035,0.0498-0.21973,0.07031-0.33008,0.07031c-0.32031,0-0.62988-0.17969-0.76953-0.49023
		c-0.18066-0.42969,0.01953-0.91992,0.43945-1.09961c0.41992-0.18066,0.90039,0.01953,1.08984,0.43945
		C102.12012,196.59961,101.92969,197.08984,101.50977,197.26953z M96.64941,197.91016
		c0.40039-0.23047,0.91016-0.11035,1.14063,0.2793c0.23926,0.40039,0.10938,0.91016-0.28027,1.14063
		c-0.12988,0.08008-0.28027,0.12012-0.42969,0.12012c-0.28027,0-0.55078-0.14063-0.70996-0.40039
		c-0.23047-0.38965-0.10059-0.90039,0.29004-1.13965H96.64941z M93.81934,201.89941
		c-0.14941,0.12012-0.3291,0.18066-0.51953,0.18066c-0.24023,0-0.48047-0.11035-0.63965-0.31055
		c-0.29004-0.35938-0.23047-0.87988,0.12988-1.16992c0.34961-0.28027,0.87988-0.22949,1.16016,0.12988
		C94.24023,201.08984,94.17969,201.60938,93.81934,201.89941z M82.5,142.37219c-8.21368,0-14.87213-6.65851-14.87213-14.87213
		c0-8.21368,6.65845-14.87219,14.87213-14.87219s14.87219,6.65851,14.87219,14.87219
		C97.37219,135.71368,90.71368,142.37219,82.5,142.37219z M75.62988,185.26953h-0.00977
		c-0.16016,0.16992-0.37012,0.26074-0.59082,0.26074c-0.20996,0-0.41992-0.08008-0.5791-0.23047
		c-0.33008-0.32031-0.34082-0.84961-0.02051-1.16992c0.32031-0.33008,0.83984-0.34961,1.16992-0.03027
		C75.92969,184.41992,75.93945,184.93945,75.62988,185.26953z M72.13965,188.4502c-0.14941,0.11914-0.33008,0.17969-0.50977,0.17969
		c-0.25,0-0.49023-0.11035-0.65039-0.31055c-0.29004-0.35938-0.22949-0.87988,0.12988-1.16992
		c0.36035-0.2793,0.88086-0.21973,1.16016,0.14063C72.55957,187.63965,72.5,188.16016,72.13965,188.4502z M68.26953,191.13965
		c-0.12988,0.08008-0.2793,0.12012-0.41992,0.12012c-0.28027,0-0.55957-0.13965-0.70996-0.40039
		c-0.24023-0.38965-0.11035-0.89941,0.28027-1.13965c0.38965-0.22949,0.89941-0.11035,1.13965,0.28027
		C68.79004,190.38965,68.66992,190.89941,68.26953,191.13965z M63.41992,191.78027c0.41992-0.18066,0.91016,0.00977,1.08984,0.42969
		c0.19043,0.41992-0.00977,0.91016-0.42969,1.08984c-0.10059,0.0498-0.20996,0.07031-0.32031,0.07031
		c-0.32031,0-0.62988-0.19043-0.76953-0.5c-0.18066-0.41992,0.00977-0.91016,0.43945-1.08984
		C63.42969,191.78027,63.42969,191.78027,63.41992,191.78027z M51.14941,195.38965c0.01074,0.45996-0.35938,0.83984-0.81934,0.83984
		S49.5,195.87012,49.5,195.41992c-0.00977-0.45996,0.35938-0.83984,0.80957-0.85059
		C50.76953,194.56934,51.14941,194.93945,51.14941,195.38965z M46.5498,195.25977c-0.0498,0.41992-0.41016,0.73047-0.82031,0.73047
		c-0.0293,0-0.06934,0-0.09961-0.01074c-0.45996-0.0498-0.78027-0.45996-0.71973-0.91992
		c0.0498-0.4502,0.45996-0.7793,0.91992-0.71973C46.2793,194.38965,46.60938,194.7998,46.5498,195.25977z M42.00977,194.51953
		c-0.09961,0.37988-0.44043,0.62988-0.80957,0.62988c-0.07031,0-0.13086-0.00977-0.2002-0.0293
		c-0.4502-0.11035-0.70996-0.57031-0.60059-1.01074c0.11035-0.43945,0.57031-0.70996,1.01074-0.59961
		C41.84961,193.62988,42.12012,194.08008,42.00977,194.51953z M34.93542,201.90326l-0.69238,0.42871l-2.28125-3.67578
		l0.66992-0.41602l3.12012,1.39648l-1.49316-2.40625l0.69141-0.42969l2.2832,3.67578l-0.66699,0.41406l-3.12793-1.39941
		L34.93542,201.90326z M36.83008,193.70996c-0.11035,0-0.20996-0.02051-0.31055-0.06055
		c-0.41992-0.16992-0.62988-0.65918-0.45996-1.08008c0.16992-0.42969,0.65039-0.62988,1.08008-0.45996
		c0.42969,0.1709,0.62988,0.66016,0.45996,1.08008C37.46973,193.50977,37.16016,193.70996,36.83008,193.70996z M70.33984,52.84082
		l0.04004,0.86621L65.98633,52.25l-0.03516-0.73242l4.23828-1.87109l0.04004,0.87305l-2.95703,1.2998L70.33984,52.84082z
		 M68.18945,54.74414c1.20898,0.32715,1.92383,1.57227,1.59961,2.77539c-0.32617,1.20898-1.57129,1.9248-2.78027,1.59863
		c-1.20313-0.32422-1.91309-1.56934-1.58691-2.77734C65.74707,55.1377,66.98633,54.4209,68.18945,54.74414z M68.05371,61.50977
		l-0.40137,0.70801l-3.76172-2.13574l0.40234-0.70801L68.05371,61.50977z M66.38965,64.19824l-0.99805,1.05664
		c-0.83984,0.8877-2.23145,0.94434-3.09766,0.12598s-0.88867-2.21191-0.04883-3.09961l0.99805-1.05566L66.38965,64.19824z
		 M95.52441,53.64844c0.08496,0.16602,0.23535,0.26953,0.38184,0.26367c0.13281-0.00586,0.2168-0.05762,0.29004-0.17578
		c0.0752-0.11816,0.12891-0.29688,0.17773-0.5791c0.00488-0.03613,0.01465-0.08594,0.02539-0.13477
		c0.03809-0.25684,0.09766-0.59961,0.22754-0.84277c0.10059-0.21094,0.24707-0.375,0.41895-0.49121
		c0.1709-0.11621,0.37598-0.17871,0.59375-0.18848c0.27344-0.01074,0.52051,0.05273,0.73242,0.18945
		c0.18066,0.12012,0.33984,0.30371,0.47168,0.54785c0.11816,0.20703,0.17578,0.44336,0.18848,0.74023
		c0.00488,0.14063-0.00684,0.28613-0.03223,0.43945c-0.07227,0.45313-0.27344,0.89844-0.59277,1.29492l-0.09863,0.11914
		l-0.62793-0.50879l0.09863-0.12012c0.23145-0.29004,0.38379-0.60547,0.43164-0.91211v-0.00586
		c0.01367-0.0918,0.02246-0.18359,0.01855-0.27441c-0.00488-0.15137-0.04199-0.29004-0.10059-0.40332
		c-0.06641-0.14258-0.20801-0.30859-0.45605-0.29883c-0.13477,0.00586-0.23535,0.07715-0.31445,0.21973
		c-0.0957,0.17383-0.1416,0.40723-0.16504,0.57324c-0.00977,0.07324-0.1123,0.69727-0.25879,0.98926
		c-0.1084,0.19238-0.24805,0.34375-0.41406,0.4541c-0.17188,0.11133-0.36328,0.16699-0.57617,0.17578
		c-0.23145,0.00879-0.46484-0.05469-0.68359-0.18555c-0.18164-0.12695-0.33496-0.30371-0.44629-0.5166
		c-0.11133-0.21484-0.17578-0.45605-0.1875-0.7168c-0.00293-0.10449,0.00391-0.21387,0.0127-0.32324
		c0.05566-0.4043,0.22266-0.80566,0.50098-1.16406l0.0918-0.11914l0.64551,0.49023l-0.0918,0.12109
		c-0.30664,0.40625-0.36426,0.75-0.35645,0.96875C95.43555,53.41406,95.4707,53.54004,95.52441,53.64844z M97.93066,58.40527
		l2.01563-0.64648l0.24219,0.75195l-4.12305,1.3252l-0.47363-1.47559c-0.08984-0.27832-0.06348-0.5752,0.07324-0.84277
		c0.13867-0.2666,0.36328-0.45996,0.64063-0.5498c0.41113-0.13281,0.86035-0.00879,1.14941,0.29395l1.62012-2.21289l0.29297,0.91406
		l-1.54297,2.11328L97.93066,58.40527z M105.26367,40.56836l-0.67773,0.43945l-2.35547-3.63086l1.30078-0.84375
		c0.25-0.16211,0.54785-0.2168,0.8418-0.1543c0.28906,0.06641,0.54004,0.22949,0.70215,0.47949
		c0.33398,0.51465,0.17871,1.20313-0.33691,1.53711l-0.62207,0.40332L105.26367,40.56836z M105.38086,67.93652l0.31641-0.74414
		l1.63379,0.69727l0.50586-1.18555l-1.82324-0.77832l0.31445-0.73926l2.57324,1.09863l-1.69922,3.98242l-2.62305-1.11914
		l0.30957-0.72754l1.87305,0.7998l0.25195-0.58691L105.38086,67.93652z M104.43359,63.81152l-1.50879,4.37891l-0.66699-0.5625
		l1.05762-3.05273l-2.83594,1.55469l-0.66309-0.55957l4.05566-2.23145L104.43359,63.81152z M98.6377,64.11816l-1.6084-2.34766
		l0.65039-0.44629l1.14941,1.67773l0.52441-0.36035l-1.00098-1.46191l0.66602-0.45605l1.00195,1.46191l1.06152-0.72559
		l-1.11719-1.63281L100.625,59.375l1.57715,2.30176L98.6377,64.11816z M113.36035,37.30371
		c0.46094-0.00684,0.88379-0.22754,1.15625-0.60254l0.08984-0.11816l0.65234,0.46387l-0.0957,0.12305
		c-0.20801,0.28906-0.47168,0.51855-0.78516,0.68262c-0.30664,0.16406-0.65234,0.24902-1.00488,0.25391
		c-0.30371,0.00586-0.60352-0.0498-0.88477-0.16016c-0.26953-0.1123-0.51563-0.27148-0.72656-0.47461
		c-0.21582-0.20313-0.38281-0.44336-0.49707-0.71582c-0.12695-0.27734-0.19238-0.56836-0.19824-0.87793
		c-0.02051-1.24707,0.98242-2.2793,2.22949-2.30176c0.35352-0.00586,0.70703,0.07324,1.02051,0.22656
		c0.3125,0.14746,0.5957,0.37891,0.80664,0.65527l0.10059,0.12109l-0.64355,0.49121l-0.09277-0.12012
		c-0.28027-0.36719-0.70898-0.57227-1.17773-0.56445c-0.80273,0.01367-1.44824,0.6748-1.43457,1.47852
		C111.88867,36.67188,112.55664,37.31836,113.36035,37.30371z M111.51465,68.96875l0.3418,0.05078l0.30859-2.09082l0.78125,0.11523
		l-0.63086,4.27637l-1.5332-0.22559c-0.28809-0.04297-0.54199-0.19629-0.7207-0.43848
		c-0.17871-0.24121-0.25293-0.52832-0.21094-0.81641c0.06348-0.42676,0.37305-0.77344,0.77148-0.89941l-1.26758-2.42676
		l0.94824,0.13965L111.51465,68.96875z M127.33008,195.85938c0.16992-0.41992,0.66016-0.62988,1.08008-0.45996
		c0.42969,0.18066,0.62988,0.66016,0.45996,1.08008C128.74023,196.80957,128.42969,197,128.09961,197
		c-0.09961,0-0.20996-0.02051-0.30957-0.06055C127.37012,196.76953,127.16016,196.29004,127.33008,195.85938z M132.85925,188.83392
		c-0.31738-1.21094,0.40723-2.45117,1.61133-2.76563c1.21094-0.31836,2.4502,0.40625,2.7666,1.61523
		c0.31641,1.20703-0.4082,2.43945-1.61914,2.75586C134.41296,190.7558,133.17566,190.039,132.85925,188.83392z M134.96582,165.42773
		l0.85645,0.18359l0.18945,1.23535l1.40332,0.30078l0.68457-1.04688l0.85059,0.18262l-2.53809,3.88379l-0.71875-0.1543
		L134.96582,165.42773z M138.49805,223.41309c0.28906-0.03418,0.58594,0.05371,0.80957,0.23535
		c0.22852,0.1748,0.38086,0.44336,0.41504,0.73242c0.02148,0.1748-0.00195,0.34277-0.05078,0.49512
		c0.12207,0.05273,0.24023,0.11816,0.3418,0.2041c0.30859,0.23828,0.50098,0.58203,0.54688,0.96777s-0.0625,0.76465-0.30762,1.07422
		c-0.11719,0.14844-0.26074,0.27539-0.42676,0.36816c-0.16504,0.09863-0.34863,0.15625-0.53516,0.17871l-1.87891,0.2207
		l-0.50488-4.29004L138.49805,223.41309z M140.36121,186.40619l-0.12988,3.51953l-0.81348-0.0293l0.12988-3.51953l-1.0625-0.03906
		l0.0293-0.80273l2.9375,0.10742l-0.0293,0.80273L140.36121,186.40619z M140.91406,70.7666
		c-0.16211,0.16113-0.37402,0.24219-0.58594,0.24219s-0.42383-0.08105-0.58594-0.24219
		c-4.02832-4.03027-8.49512-7.64063-13.27637-10.7334c-0.38379-0.24805-0.49414-0.76074-0.24512-1.14551
		s0.76074-0.49219,1.14551-0.24512c4.87793,3.15527,9.43652,6.83984,13.54785,10.95215
		C141.2373,69.91895,141.2373,70.44336,140.91406,70.7666z M131.97656,49.04297l-0.76172,0.20898l-0.53906-1.96191l-0.61523,0.16797
		l0.4707,1.71094l-0.7793,0.21387l-0.46973-1.70996l-1.24219,0.3418l0.52539,1.91016l-0.77344,0.21191l-0.74121-2.69531
		l4.16992-1.14648L131.97656,49.04297z M128.70898,41.47949l-0.7373,1.85156l1.98828,0.13281l0.4082,0.64746l-3.66016,2.30762
		l-0.43066-0.68359l2.44629-1.54199l-1.9082-0.13379l0.70703-1.77344l-2.44824,1.54102l-0.43066-0.68262l3.66016-2.30859
		L128.70898,41.47949z M126.57617,39.06836l-2.95703,3.15234l-0.59277-0.55762l2.95703-3.15039L126.57617,39.06836z
		 M121.41797,36.30957l0.41211-0.68848l2.52246,1.50977l-0.41113,0.68848l-0.91211-0.5459l-1.80859,3.02441l-0.7002-0.41797
		l1.80957-3.02441L121.41797,36.30957z M120.11719,34.86426l-0.21484,0.75879l-1.95801-0.55273l-0.17188,0.61426l1.70508,0.48145
		l-0.21875,0.77637l-1.70605-0.48047l-0.34961,1.23828l1.90527,0.53809l-0.21777,0.77051l-2.6875-0.75781l1.17383-4.16016
		L120.11719,34.86426z M114.02441,12.04688c-0.2207-0.04492-1.30273-0.27637-1.74512-0.54199
		c-0.75098-0.44141-1.1377-1.11523-1.1377-1.95508c0-0.46387,0.1543-0.90527,0.4082-1.28125
		c0.25488-0.35352,0.6084-0.62988,1.0166-0.81738l-0.01074,0.01074c0.41992-0.19922,0.89453-0.29785,1.34766-0.29785
		c0.1875,0,0.36426,0.01074,0.58594,0.04395c0.70703,0.12109,1.3584,0.4082,2.26465,1.16016l-1.21582,1.45801
		c-0.81738-0.67383-1.2373-0.77344-1.65723-0.77344c-0.20996,0-0.375,0.04395-0.50781,0.11035
		c-0.20996,0.08887-0.32031,0.24316-0.32031,0.38672c0,0.29883,0.39746,0.44238,1.03809,0.57422
		c0.06641,0.02246,0.14355,0.02246,0.22168,0.04492c0.43066,0.09863,1.07129,0.23145,1.49121,0.47461h-0.01172
		c0.7959,0.44238,1.21582,1.1377,1.21582,2c0,0.50781-0.13281,0.98242-0.41992,1.38086
		c-0.25391,0.36426-0.62988,0.62988-1.0498,0.83887c-0.44141,0.23242-0.89453,0.29883-1.3916,0.29883
		c-0.26563,0-0.55273-0.0332-0.7959-0.08887c-0.79492-0.16504-1.52441-0.53027-2.46289-1.33594l1.25879-1.44727
		c0.69629,0.60742,1.10547,0.83887,1.59082,0.92773c0.14355,0.0332,0.28711,0.05469,0.41992,0.05469
		c0.2207,0,0.41992-0.04395,0.57422-0.12109c0.13281-0.06641,0.36523-0.20996,0.36523-0.50781
		C115.09668,12.33398,114.52148,12.14648,114.02441,12.04688z M110.78516,38.14648l-0.82813,0.27637l-0.78906-0.9668
		l-1.35938,0.45215l-0.05762,1.24805l-0.82422,0.27344l0.21484-4.62402l0.69727-0.23242L110.78516,38.14648z M100.54785,7.23047
		h2.88379c0.57422,0,1.11523,0.23145,1.51367,0.62891c0.39746,0.40918,0.62891,1.02734,0.62891,1.60254
		c0,0.75098-0.36426,1.47949-0.94922,1.85547l2.86133,3.77832h-2.28711l-2.60742-3.40234h-0.17676v3.40234h-1.86719V7.23047z
		 M99.10449,40.51367c0.07129-0.23145,0.19434-0.44824,0.37012-0.6416c0.06934-0.07617,0.15137-0.14941,0.23438-0.22168
		c0.32422-0.24707,0.72461-0.41699,1.17383-0.47656l0.14844-0.02051l0.11719,0.80371l-0.15039,0.02051
		c-0.50391,0.0752-0.78711,0.27734-0.93555,0.43945c-0.09277,0.10352-0.15625,0.21777-0.19434,0.33203
		c-0.05566,0.17773-0.02148,0.35742,0.08691,0.45605c0.09766,0.08984,0.19336,0.11035,0.33008,0.0791
		c0.13574-0.03223,0.2998-0.12109,0.53223-0.28711c0.0293-0.02344,0.07129-0.05176,0.11328-0.0791
		c0.20703-0.15625,0.49121-0.3584,0.75293-0.44043c0.2207-0.07813,0.43848-0.09375,0.64258-0.05566
		c0.20313,0.03809,0.39355,0.13672,0.55566,0.28418c0.20215,0.18359,0.33301,0.40039,0.38672,0.64844
		c0.0459,0.21289,0.03027,0.4541-0.04688,0.7207c-0.0625,0.23047-0.18555,0.43848-0.38672,0.65918
		c-0.09473,0.10254-0.20508,0.19824-0.33008,0.29004c-0.37012,0.27148-0.82715,0.44727-1.33105,0.50586l-0.1543,0.01563
		l-0.08984-0.80371l0.1543-0.0166c0.36816-0.04199,0.69824-0.16113,0.94727-0.3457l0.00391-0.00391
		c0.07422-0.05469,0.14551-0.11523,0.20703-0.18262c0.10254-0.11133,0.17383-0.23535,0.21094-0.35742
		c0.05273-0.14844,0.06836-0.36523-0.11523-0.53223c-0.09961-0.09082-0.2207-0.11035-0.37793-0.06445
		c-0.19043,0.05664-0.38672,0.19043-0.51953,0.29102c-0.05762,0.04688-0.56836,0.41895-0.87891,0.52246
		c-0.21191,0.06152-0.41797,0.07227-0.6123,0.03418c-0.2002-0.04199-0.37695-0.1377-0.53418-0.28027
		c-0.1709-0.15527-0.29297-0.36523-0.35547-0.61133C99.01855,40.97754,99.03418,40.74512,99.10449,40.51367z M96.84375,47.25781
		l0.78613,0.18262l-0.40039,1.72656l1.25391,0.29199l0.44727-1.92969l0.78125,0.18164l-0.63086,2.7207l-4.21191-0.97559
		l0.6416-2.77441l0.76953,0.17871l-0.45898,1.98047l0.62207,0.14551L96.84375,47.25781z M91.73535,7.23047h1.6123l3.03809,7.86523
		h-2.06543l-0.67383-1.79004h-2.20996l-0.69531,1.79004h-2.0332L91.73535,7.23047z M82.0918,12.04688
		c-0.2207-0.04492-1.30273-0.27637-1.74512-0.54199c-0.75098-0.44141-1.1377-1.11523-1.1377-1.95508
		c0-0.46387,0.1543-0.90527,0.4082-1.28125c0.25488-0.35352,0.6084-0.62988,1.0166-0.81738l-0.01074,0.01074
		c0.41992-0.19922,0.89453-0.29785,1.34766-0.29785c0.1875,0,0.36426,0.01074,0.58594,0.04395
		c0.70703,0.12109,1.3584,0.4082,2.26465,1.16016l-1.21582,1.45801c-0.81738-0.67383-1.2373-0.77344-1.65723-0.77344
		c-0.20996,0-0.375,0.04395-0.50781,0.11035c-0.20996,0.08887-0.32031,0.24316-0.32031,0.38672
		c0,0.29883,0.39746,0.44238,1.03809,0.57422c0.06641,0.02246,0.14355,0.02246,0.22168,0.04492
		c0.43066,0.09863,1.07129,0.23145,1.49121,0.47461h-0.01172c0.7959,0.44238,1.21582,1.1377,1.21582,2
		c0,0.50781-0.13281,0.98242-0.41992,1.38086c-0.25391,0.36426-0.62988,0.62988-1.0498,0.83887
		c-0.44141,0.23242-0.89453,0.29883-1.3916,0.29883c-0.26563,0-0.55273-0.0332-0.7959-0.08887
		c-0.79492-0.16504-1.52441-0.53027-2.46289-1.33594l1.25879-1.44727c0.69629,0.60742,1.10547,0.83887,1.59082,0.92773
		c0.14355,0.0332,0.28711,0.05469,0.41992,0.05469c0.2207,0,0.41992-0.04395,0.57422-0.12109
		c0.13281-0.06641,0.36523-0.20996,0.36523-0.50781C83.16406,12.33398,82.58984,12.14648,82.0918,12.04688z M69.25684,7.23047
		h1.91113v5.97656h3.73438v1.88867h-5.64551V7.23047z M67.19141,41.96973c0.19922,0.29004,0.3291,0.62793,0.375,0.97363
		c0.0498,0.34082,0.01367,0.70605-0.09961,1.03418l-0.04492,0.14941l-0.76465-0.26367l0.04883-0.14355
		c0.15039-0.43555,0.08496-0.90625-0.18066-1.29199c-0.45508-0.66113-1.36328-0.83398-2.02344-0.37891
		c-0.66602,0.45801-0.83496,1.37207-0.37988,2.03223c0.26172,0.37988,0.67871,0.61133,1.1416,0.63086l0.14648,0.00879
		l-0.02539,0.80078l-0.1543-0.0127c-0.35547-0.01172-0.69336-0.10449-1.00195-0.27539
		c-0.30566-0.16602-0.56836-0.40723-0.76758-0.69727c-0.17188-0.25-0.29102-0.53027-0.35449-0.82617
		c-0.05664-0.28613-0.05957-0.5791-0.00586-0.86621c0.0498-0.29199,0.15723-0.56445,0.32031-0.81055
		c0.16113-0.25879,0.36719-0.47363,0.62305-0.64941C65.07031,40.67773,66.48438,40.94336,67.19141,41.96973z M61.38379,41.98633
		l-0.61035-0.53906l2.86133-3.24219l0.61035,0.53906L61.38379,41.98633z M57.99023,7.23047h1.90039v4.83789
		c0,0.68555,0.55176,1.2373,1.21484,1.2373c0.67383,0,1.21484-0.55176,1.21484-1.2373V7.23047h1.91113v4.83789
		c0,1.72363-1.40234,3.12695-3.12598,3.12695c-1.71191,0-3.11523-1.40332-3.11523-3.12695V7.23047z M58.10449,34.86426
		l0.68066,0.33691l0.33789,1.96484l1.76758-0.92383l0.68555,0.33789l-1.91895,3.88281l-0.72559-0.35938l1.28418-2.59375
		l-1.69824,0.88281l-0.32422-1.88281l-1.2832,2.59375l-0.72559-0.3584L58.10449,34.86426z M54.26855,33.93652
		c0.10254,0.01465,0.20898,0.04199,0.31543,0.07129c0.38672,0.13086,0.75,0.37012,1.04883,0.70898l0.10059,0.11426l-0.60352,0.54297
		l-0.09961-0.11328c-0.34375-0.37695-0.66992-0.49902-0.88574-0.53125c-0.13867-0.02051-0.26953-0.01074-0.38477,0.02246
		c-0.17969,0.05273-0.30957,0.18066-0.33105,0.3252c-0.02051,0.13184,0.01465,0.22363,0.11816,0.31836
		c0.10156,0.09473,0.26758,0.18164,0.53516,0.2832c0.03516,0.01172,0.08203,0.03027,0.12793,0.0498
		c0.24609,0.08594,0.57129,0.20801,0.78516,0.38184c0.18848,0.13867,0.32227,0.3125,0.4043,0.50391
		c0.08203,0.18945,0.10547,0.40137,0.07324,0.61816c-0.04004,0.27148-0.14844,0.50098-0.32324,0.68359
		c-0.15234,0.15527-0.36133,0.27734-0.62598,0.3623c-0.22559,0.07617-0.46777,0.08887-0.7627,0.0459
		c-0.1377-0.02051-0.2793-0.06055-0.42578-0.11328c-0.43164-0.15723-0.83203-0.4375-1.16211-0.8252l-0.09863-0.11914
		l0.61914-0.52246l0.09961,0.11914c0.24023,0.28223,0.52246,0.49023,0.81445,0.5957h0.00586
		c0.08789,0.03223,0.17578,0.05664,0.2666,0.07129c0.15039,0.02246,0.29297,0.0127,0.41504-0.02441
		c0.1543-0.03809,0.3418-0.14551,0.37891-0.39258c0.01953-0.13281-0.03223-0.24414-0.15723-0.34863
		c-0.15332-0.12793-0.37402-0.2168-0.53125-0.27051c-0.07031-0.02246-0.66504-0.24023-0.9248-0.43945
		c-0.16895-0.1416-0.29199-0.30762-0.36914-0.49121c-0.07617-0.18945-0.0957-0.38867-0.06445-0.59961
		c0.03516-0.22949,0.14063-0.44727,0.31055-0.63672c0.1582-0.1543,0.36035-0.27246,0.5918-0.3418
		C53.76172,33.91602,54.00977,33.89648,54.26855,33.93652z M48.3584,7.23047h2.90625c0.57422,0,1.11523,0.23145,1.52441,0.62891
		c0.39746,0.40918,0.62988,1.02734,0.62988,1.60254c0,1.19238-0.9834,2.24219-2.1543,2.24219h-0.99512v3.3916H48.3584V7.23047z
		 M48.45313,33.89648c1.23633-0.20313,2.40234,0.63379,2.60547,1.87109c0.20215,1.22852-0.63574,2.38965-1.87109,2.59375
		c-1.23047,0.2002-2.39551-0.62988-2.59766-1.86035C46.38672,35.26563,47.22363,34.09961,48.45313,33.89648z M42.57617,35.90918
		c0.30859-0.16992,0.6582-0.26465,1.00488-0.27637c0.34473-0.01563,0.70313,0.05859,1.01855,0.2041l0.14355,0.05957
		l-0.33887,0.73242l-0.13867-0.06348c-0.41699-0.19238-0.89258-0.1748-1.30078,0.05078
		c-0.70313,0.38574-0.96484,1.27051-0.5791,1.97266c0.38867,0.70703,1.2793,0.9668,1.98047,0.58008
		c0.40527-0.2207,0.6748-0.6123,0.74121-1.07031l0.02441-0.14648l0.79199,0.10645l-0.02734,0.15234
		c-0.04883,0.35352-0.1748,0.67773-0.375,0.96875c-0.19531,0.28711-0.46094,0.52344-0.76953,0.69238
		c-0.26563,0.14551-0.55566,0.23535-0.85547,0.26855c-0.29004,0.02734-0.58105,0.00098-0.86133-0.08008
		c-0.28613-0.0791-0.5459-0.21289-0.77344-0.39941c-0.24121-0.18652-0.43457-0.41309-0.58398-0.68457
		C41.08008,37.88672,41.48535,36.50781,42.57617,35.90918z M24.61719,69.89844c4.15039-4.14941,8.75-7.86035,13.67285-11.03125
		c0.38477-0.24902,0.89746-0.13672,1.14453,0.24805c0.24805,0.38379,0.13672,0.89648-0.24805,1.14453
		c-4.82324,3.10742-9.33105,6.74414-13.39746,10.81055c-0.16211,0.16113-0.37402,0.24219-0.58594,0.24219
		s-0.42383-0.08105-0.58594-0.24219C24.29395,70.74609,24.29395,70.22168,24.61719,69.89844z M25.28418,218.69727l0.84082,3.12305
		l1.47363-2.88086l0.86426,0.08887l-2.10352,4.12988l-0.73047-0.07617l-1.21387-4.47559L25.28418,218.69727z M24.60144,204.3642
		l0.06836-4.3252l0.81445,0.01367l-0.06836,4.3252L24.60144,204.3642z M26.07227,161.49902l0.80469-0.11426l0.60742,4.27734
		l-0.80469,0.11426L26.07227,161.49902z M30.79883,219.79199l0.68848,0.25879l0.03906,4.6416l-0.81934-0.30859l-0.00391-1.24902
		l-1.34375-0.50586l-0.83203,0.93359l-0.81445-0.30664L30.79883,219.79199z M29.86707,203.90717
		c-1.21289,0.28711-2.43262-0.46191-2.71973-1.67383c-0.28809-1.21875,0.46777-2.44043,1.68066-2.72656
		c1.21777-0.28809,2.43848,0.46582,2.72656,1.68457C31.8407,202.40424,31.08484,203.61908,29.86707,203.90717z M24.31836,161.87988
		c0.18164,0.22363,0.26953,0.52051,0.23438,0.81055c-0.01953,0.1748-0.08203,0.33301-0.16406,0.46973
		c0.10742,0.08008,0.20508,0.1709,0.28516,0.27832c0.24609,0.30371,0.35352,0.68359,0.30859,1.06934
		c-0.04492,0.38672-0.23828,0.73047-0.54688,0.97559c-0.14844,0.11719-0.31836,0.20703-0.50195,0.25879
		c-0.18555,0.05859-0.37695,0.07227-0.5625,0.05078l-1.88281-0.21973l0.50195-4.2959l1.59375,0.18652
		C23.87305,161.49805,24.14258,161.65234,24.31836,161.87988z M20.3241,200.11908l0.17871-0.78125l2.86719,0.65332l-0.17871,0.78223
		l-1.03613-0.23633L21.37,203.97357l-0.79395-0.18262l0.78613-3.43555L20.3241,200.11908z M21.17285,135.94434l1.17871,4.16309
		l-0.7832,0.2207l-1.17871-4.16211L21.17285,135.94434z M15.91797,138.40332l3.13672,1.35547l-1.52441-2.38574l0.6875-0.4375
		l2.32715,3.64453l-0.66113,0.42188l-3.14453-1.35742l1.52832,2.39063l-0.68652,0.4375l-2.32813-3.64453L15.91797,138.40332z
		 M13.60144,195.8808l0.52832-0.60352l2.21191,1.9375l-0.53027,0.60254l-0.79785-0.7002l-2.32227,2.65039l-0.6123-0.53711
		l2.32129-2.64941L13.60144,195.8808z M14.61469,165.39594c0-0.10938,0.02051-0.20996,0.05957-0.30957
		c0.05078-0.11035,0.11035-0.2002,0.18066-0.26953c0.08008-0.08008,0.16992-0.14063,0.26953-0.18066
		c0.2002-0.08984,0.43066-0.08984,0.64063,0c0.09961,0.04004,0.18945,0.10059,0.26953,0.18066
		c0.07031,0.06934,0.12988,0.16992,0.17969,0.26953c0.04004,0.09961,0.06055,0.2002,0.06055,0.30957
		c0,0.11035-0.02051,0.2207-0.06055,0.32031c-0.0498,0.10059-0.10938,0.19043-0.17969,0.27051
		c-0.08008,0.08008-0.16992,0.13965-0.26953,0.17969c-0.10059,0.04004-0.20996,0.05957-0.32031,0.05957
		s-0.21973-0.01953-0.32031-0.05957c-0.09961-0.04004-0.18945-0.09961-0.26953-0.17969
		c-0.07031-0.08008-0.12988-0.16992-0.18066-0.27051C14.63519,165.61664,14.61469,165.50629,14.61469,165.39594z M16.2002,170.41992
		c-0.37012,0-0.70996-0.24023-0.80078-0.61035c-0.12012-0.4502,0.14063-0.89941,0.58008-1.01953
		c0.44043-0.12012,0.90039,0.14941,1.02051,0.58984c0.10938,0.43945-0.15039,0.88965-0.58984,1.00977
		C16.33984,170.41016,16.26953,170.41992,16.2002,170.41992z M17.35938,173.18945c0.43066-0.17969,0.91016,0.02051,1.09082,0.44043
		c0.16992,0.41992-0.03027,0.91016-0.4502,1.08008c-0.10059,0.0498-0.20996,0.07031-0.32031,0.07031
		c-0.32031,0-0.62988-0.19043-0.75977-0.51074C16.74023,173.84961,16.93945,173.35938,17.35938,173.18945z M12.0957,142.47559
		l2.19238,1.58301c0.39355,0.28516,0.9502,0.19922,1.23047-0.18945c0.28613-0.39355,0.1875-0.94336-0.20605-1.22852
		l-2.19141-1.58398l0.47754-0.66016l2.19043,1.58398c0.36426,0.26367,0.60645,0.65527,0.67773,1.09668
		c0.06738,0.44629-0.03906,0.89355-0.30273,1.25879c-0.54492,0.75293-1.59668,0.92188-2.34961,0.37793l-2.19238-1.58301
		L12.0957,142.47559z M12.49109,192.82806c0.66504,1.05859,0.3457,2.45703-0.71387,3.12305
		c-1.05371,0.66309-2.44727,0.34082-3.1123-0.71875c-0.66406-1.05469-0.34961-2.44922,0.7041-3.1123
		C10.42859,191.45502,11.82703,191.77338,12.49109,192.82806z M10.14734,187.28314l0.4209,1.49414
		c0.0791,0.28027,0.04199,0.5752-0.10547,0.83789s-0.37988,0.44727-0.65918,0.52734
		c-0.41602,0.11719-0.85938-0.02344-1.1377-0.33691l-1.7002,2.15332l-0.25977-0.9248l1.61914-2.05566l-0.09375-0.33203
		l-2.03711,0.57324l-0.21484-0.76074L10.14734,187.28314z M6.15625,233.44434c0.05957-0.29199,0.22754-0.54297,0.47949-0.70801
		c0.24902-0.16113,0.54102-0.22656,0.83301-0.16699c0.60156,0.12207,0.98438,0.71484,0.86133,1.31641l-0.14746,0.72656
		l2.06836,0.41895l-0.16113,0.79199l-4.24121-0.85938L6.15625,233.44434z M5.82813,239.75586l2.69727-0.19629
		c0.48438-0.03516,0.85547-0.45898,0.82129-0.9375c-0.03613-0.48535-0.46484-0.84375-0.94824-0.80762l-2.69824,0.19629
		l-0.05859-0.81152l2.69727-0.19727c0.44824-0.03418,0.88574,0.11133,1.22363,0.40332
		c0.33887,0.29883,0.5459,0.71094,0.57813,1.15918c0.06738,0.92773-0.62891,1.7334-1.55664,1.80078l-2.69727,0.19727
		L5.82813,239.75586z M10.92578,244.3457l-0.05566,0.14453l-0.75781-0.28418l0.05566-0.14551
		c0.12793-0.34766,0.17188-0.69531,0.12109-1.00098l-0.00098-0.00488c-0.01563-0.0918-0.03711-0.18164-0.06934-0.26758
		c-0.05371-0.1416-0.13184-0.26172-0.22461-0.35156c-0.10742-0.11328-0.29395-0.22559-0.52637-0.1377
		c-0.125,0.04785-0.19824,0.14648-0.22852,0.30762c-0.03711,0.19531-0.00586,0.43066,0.02344,0.59473
		c0.01563,0.07324,0.11523,0.69824,0.06934,1.02246c-0.04199,0.2168-0.12598,0.40527-0.24805,0.56152
		c-0.12891,0.15918-0.29395,0.27344-0.49219,0.34863c-0.2168,0.08203-0.45801,0.0957-0.70605,0.04102
		c-0.21289-0.0625-0.41406-0.18164-0.58887-0.34961c-0.17383-0.16797-0.31152-0.37598-0.4043-0.62109
		c-0.03613-0.0957-0.06348-0.20215-0.0918-0.30859c-0.07324-0.40234-0.04199-0.83691,0.10742-1.26367l0.0498-0.14258
		l0.76953,0.26074l-0.05078,0.14258c-0.16113,0.48438-0.1084,0.8291-0.03027,1.0332c0.04883,0.13086,0.12305,0.24023,0.20703,0.3252
		c0.13379,0.13086,0.30957,0.18066,0.44629,0.12988c0.12402-0.04785,0.18652-0.12402,0.21973-0.25977
		s0.02734-0.32227-0.01465-0.60547c-0.00781-0.03613-0.0127-0.08594-0.01953-0.13574
		c-0.04395-0.25586-0.09766-0.60059-0.05078-0.87207c0.0293-0.23145,0.11523-0.43262,0.24121-0.59766
		s0.30078-0.28906,0.50488-0.36816c0.25586-0.0957,0.50977-0.11328,0.75488-0.05078
		c0.20898,0.05664,0.41797,0.17969,0.62012,0.36914c0.17871,0.16016,0.30762,0.36426,0.41309,0.64355
		c0.0498,0.12988,0.08496,0.27246,0.10938,0.42578C11.15332,243.38281,11.10352,243.86914,10.92578,244.3457z M10.94824,232.2998
		l-3.89648-1.8877l1.24316-2.56738l0.71191,0.34473l-0.8877,1.83301l0.57324,0.27832l0.77539-1.59766l0.72754,0.35254
		L9.4209,230.6543l1.16016,0.56152l0.86426-1.7832l0.72266,0.34961L10.94824,232.2998z M14.49902,227.01172l-2.5957-0.29199
		l-0.2334,0.25488l1.55859,1.4248l-0.53223,0.58301l-3.18848-2.91602l1.04395-1.1416
		c0.19629-0.21582,0.4668-0.33887,0.76563-0.35254c0.30078-0.01367,0.58008,0.08496,0.79492,0.28223
		c0.31836,0.29004,0.43262,0.74121,0.31348,1.1416l2.71875,0.30762L14.49902,227.01172z M17.99316,224.54492l-3.09668-1.46191
		l1.44531,2.44043l-0.69922,0.41406l-2.20508-3.71973l0.67969-0.40234l3.08887,1.45996l-1.44336-2.43457l0.7002-0.41602
		l2.20313,3.71973L17.99316,224.54492z M18.24011,203.16986l-0.77734-0.4043l0.14258-1.23828l-1.27148-0.65918l-0.93555,0.8291
		l-0.77246-0.40039l3.4668-3.07422l0.65332,0.33789L18.24011,203.16986z M18.86914,221.66309
		c-0.25684-1.22461,0.52637-2.4248,1.74512-2.68164c1.22559-0.25684,2.42578,0.52832,2.68262,1.75293
		c0.25586,1.21777-0.53027,2.41309-1.75488,2.66992C20.32422,223.66016,19.12402,222.88184,18.86914,221.66309z M39.30957,330.52734
		c-0.1582,0.24512-0.4248,0.37793-0.69629,0.37793c-0.1543,0-0.30957-0.04297-0.44922-0.13281
		c-4.87695-3.1543-9.43457-6.83984-13.54785-10.95215c-0.32324-0.32324-0.32324-0.84863,0-1.17188
		c0.32422-0.32227,0.84766-0.32227,1.17188,0c4.03027,4.03027,8.49707,7.6416,13.27637,10.7334
		C39.44824,329.62988,39.55859,330.14258,39.30957,330.52734z M45.86621,354.59961c0.44141,0.13574,0.91113,0.05664,1.28711-0.2168
		l0.12109-0.08301l0.47754,0.6416l-0.12793,0.08789c-0.28809,0.21094-0.60938,0.34766-0.95801,0.40723
		c-0.34277,0.06055-0.69824,0.03418-1.03418-0.06934c-0.29199-0.08887-0.55859-0.2334-0.79199-0.42676
		c-0.22266-0.18848-0.40723-0.41602-0.54395-0.6748c-0.14355-0.25977-0.22949-0.54004-0.25391-0.83398
		c-0.03418-0.30371-0.00684-0.60059,0.08398-0.89648c0.36426-1.19238,1.63867-1.86426,2.83008-1.5
		c0.33691,0.10254,0.65039,0.28711,0.89941,0.5293c0.25293,0.23633,0.45117,0.54492,0.56738,0.87305l0.05664,0.14453
		l-0.76172,0.26953l-0.05176-0.14355c-0.15332-0.43457-0.49805-0.7627-0.94629-0.89941
		c-0.76758-0.23535-1.58691,0.19531-1.82129,0.96289C44.66211,353.54492,45.09863,354.36523,45.86621,354.59961z
		 M51.90918,356.15332c-1.24609,0.04395-2.29785-0.92871-2.3418-2.17383c-0.04492-1.25293,0.93359-2.30469,2.18066-2.34863
		c1.25195-0.04492,2.30273,0.93359,2.34766,2.18652C54.14063,355.06348,53.16113,356.1084,51.90918,356.15332z M58.88574,353.98047
		c-0.0625,0.20801-0.19043,0.41406-0.38477,0.61133c-0.16309,0.1748-0.37109,0.29883-0.65234,0.39746
		c-0.13086,0.04688-0.27441,0.07813-0.42871,0.09961c-0.4541,0.06348-0.93945,0.00195-1.41113-0.18555l-0.14355-0.05957
		l0.30273-0.75l0.14355,0.05859c0.34375,0.13574,0.69043,0.18848,0.99707,0.14453l0.00586-0.00195
		c0.0918-0.0127,0.18164-0.03125,0.26855-0.06152c0.14258-0.05078,0.26367-0.12598,0.35547-0.21582
		c0.11719-0.10547,0.23242-0.28809,0.15039-0.52344c-0.04395-0.12598-0.1416-0.20117-0.30176-0.23535
		c-0.19434-0.04102-0.43066-0.01563-0.59473,0.01074c-0.07324,0.0127-0.7002,0.09766-1.02246,0.04395
		c-0.21582-0.04688-0.40234-0.13574-0.55566-0.26172c-0.15625-0.13281-0.2666-0.29883-0.33691-0.5
		c-0.07617-0.21777-0.08496-0.45996-0.02441-0.70703c0.06836-0.21094,0.19238-0.4082,0.36328-0.57813
		c0.17188-0.1709,0.38379-0.30273,0.62988-0.38965c0.09766-0.03418,0.2041-0.05957,0.3125-0.08398
		c0.40234-0.06445,0.83496-0.02441,1.25879,0.13672l0.1416,0.05371l-0.2793,0.76172l-0.1416-0.05371
		c-0.47949-0.17285-0.8252-0.12891-1.03125-0.05664c-0.13184,0.04688-0.24219,0.11816-0.3291,0.20117
		c-0.13379,0.12988-0.18945,0.30371-0.14063,0.44141c0.04395,0.12598,0.11816,0.19043,0.25391,0.22656
		s0.32227,0.03516,0.60547-0.00098c0.03613-0.00586,0.08691-0.01074,0.13672-0.01563
		c0.25586-0.03906,0.60156-0.08301,0.87109-0.03027c0.23145,0.03516,0.43066,0.12598,0.5918,0.25586
		c0.16309,0.12988,0.2832,0.30664,0.35547,0.5127C58.94141,353.4834,58.9541,353.73633,58.88574,353.98047z M63.85059,351.55371
		l-1.72852-2.31738l0.0166,1.91211l-1.82422-0.56543l1.72949,2.31934l-0.64746,0.4834l-2.58594-3.46875l0.6084-0.45313
		l1.90332,0.58984l-0.02344-1.99219l0.61426-0.45703l2.58594,3.4668L63.85059,351.55371z M63.60156,327.37598l-0.49805-0.64258
		l3.41602-2.64746l0.49805,0.64355L63.60156,327.37598z M69.31348,328.59277c0.49512,1.14355-0.02832,2.47559-1.17188,2.97168
		c-1.14844,0.49805-2.4834-0.03027-2.97852-1.17383c-0.49805-1.14844,0.0293-2.4834,1.17871-2.98145
		C67.48535,326.91406,68.81445,327.44336,69.31348,328.59277z M62.23047,325.63184l-1.12988-0.91406
		c-0.9502-0.76953-1.11328-2.15234-0.36426-3.07813c0.74902-0.92773,2.13672-1.05664,3.08691-0.28809l1.12988,0.91504
		L62.23047,325.63184z M66.32031,349.04199l-3.38281-2.69629l0.50781-0.63672l3.38281,2.69629L66.32031,349.04199z
		 M69.16211,344.65039c-0.12793,0.27539-0.30957,0.51855-0.53223,0.72266c-0.21777,0.19336-0.46973,0.34375-0.74414,0.44238
		c-0.27734,0.10547-0.56738,0.15039-0.86035,0.13281c-0.30469-0.00879-0.59375-0.07715-0.875-0.20801
		c-1.12598-0.52832-1.61133-1.88184-1.08301-3.00879c0.14844-0.31934,0.375-0.60156,0.64941-0.81543
		c0.26953-0.21582,0.60156-0.36816,0.94238-0.43652l0.15137-0.03613l0.15918,0.79199l-0.14941,0.03027
		c-0.45117,0.09082-0.82324,0.38574-1.02148,0.80859c-0.33984,0.72559-0.03027,1.59473,0.69531,1.93457
		c0.73047,0.34277,1.60254,0.02832,1.94238-0.69824c0.19629-0.41797,0.18457-0.89258-0.03223-1.30273l-0.06641-0.13086
		l0.70117-0.38184l0.07031,0.13965c0.16699,0.31348,0.25781,0.65039,0.2666,1.00293
		C69.3877,343.98535,69.3125,344.33203,69.16211,344.65039z M66.68652,336.83594l-0.09473-0.87012l2.87891-1.47656l-3.12695-0.83691
		l-0.09277-0.86328l4.47754,1.19238l0.0791,0.73047L66.68652,336.83594z M91.20972,372.79254
		c0,1.77142-1.43604,3.20746-3.20746,3.20746H77.53595c-1.77142,0-3.2074-1.43604-3.2074-3.20746v-26.33142
		c0-1.77142,1.43597-3.20746,3.2074-3.20746h10.46631c1.77142,0,3.20746,1.43604,3.20746,3.20746V372.79254z M93.5625,335.30762
		c0.00977-0.13965,0.03809-0.28418,0.07813-0.43359c0.12207-0.44238,0.36914-0.86426,0.72852-1.22363l0.11133-0.1084
		l0.57031,0.57422l-0.11133,0.1084c-0.26172,0.2627-0.44629,0.56152-0.52734,0.86035v0.00586
		c-0.02441,0.08984-0.04297,0.17969-0.04883,0.27148c-0.00977,0.15137,0.01074,0.29199,0.05762,0.41016
		c0.0498,0.15039,0.17285,0.33008,0.4209,0.34668c0.13281,0.00879,0.24121-0.05176,0.33594-0.18555
		c0.11426-0.16211,0.18359-0.38965,0.22559-0.5498c0.0166-0.07324,0.18652-0.68262,0.36328-0.95703
		c0.12793-0.17969,0.2832-0.31445,0.45996-0.40723c0.18262-0.09082,0.37988-0.12598,0.5918-0.1123
		c0.23047,0.01563,0.45508,0.10352,0.65918,0.25879c0.16602,0.14355,0.2998,0.33594,0.3877,0.56152s0.12695,0.4707,0.10938,0.73145
		c-0.00781,0.10254-0.02734,0.21191-0.04688,0.31934c-0.09961,0.39551-0.30762,0.77734-0.62207,1.10352l-0.10449,0.10938
		l-0.58984-0.55859l0.10547-0.10742c0.34766-0.37305,0.44238-0.70898,0.45703-0.92578
		c0.00977-0.14063-0.01172-0.26855-0.05273-0.38086c-0.06836-0.17578-0.20605-0.29492-0.35156-0.30469
		c-0.13281-0.00879-0.2207,0.0332-0.30762,0.14453c-0.08691,0.10938-0.15918,0.28125-0.23828,0.55566
		c-0.00879,0.03613-0.02441,0.08496-0.04004,0.13086c-0.06445,0.25195-0.16113,0.58691-0.31641,0.81348
		c-0.12305,0.19824-0.28516,0.3457-0.46875,0.44336c-0.18262,0.09766-0.39258,0.1377-0.61133,0.12305
		c-0.27246-0.01855-0.50977-0.10742-0.70605-0.2666c-0.16699-0.13965-0.30566-0.33789-0.41113-0.59473
		C93.57617,335.84375,93.54297,335.60449,93.5625,335.30762z M94.9248,329.26172l0.25684-0.74707l4.08789,1.40625l-0.50391,1.46387
		c-0.09473,0.27539-0.29297,0.49609-0.5625,0.62793s-0.56641,0.15234-0.8418,0.05762
		c-0.40723-0.13965-0.69141-0.50684-0.74219-0.92285L94,331.94824l0.3125-0.90625l2.49805-0.7666l0.11133-0.32715L94.9248,329.26172
		z M102.51563,325.44727l-0.66699,0.55469l-1.48535-4.38965l0.56641-0.46875l4.04883,2.25684l-0.67383,0.55957l-2.82031-1.58008
		L102.51563,325.44727z M101.375,326.67188l-1.62988,2.33691l-0.64844-0.45215l1.16504-1.66895l-0.52246-0.36426l-1.01563,1.4541
		l-0.66309-0.46289l1.01563-1.4541l-1.05664-0.7373l-1.13281,1.62402l-0.6582-0.45801l1.59961-2.29199L101.375,326.67188z
		 M97.0498,341.06348l-0.79199,0.1582l-0.34863-1.74023l-1.2627,0.25293l0.3877,1.94238l-0.78613,0.15723l-0.54883-2.74023
		l4.24414-0.84961l0.55859,2.7959l-0.77539,0.1543l-0.39844-1.99609l-0.62695,0.12402L97.0498,341.06348z M100.48047,348.94629
		c-0.06543,0.19629-0.19043,0.37012-0.35938,0.50977c-0.20996,0.17383-0.44336,0.27246-0.69531,0.29102
		c-0.2168,0.01465-0.45313-0.03418-0.70605-0.14844c-0.21973-0.09375-0.40723-0.24512-0.59766-0.47559
		c-0.08887-0.10742-0.16699-0.23047-0.24121-0.36621c-0.21582-0.4043-0.32617-0.88086-0.3125-1.38867l0.00684-0.1543
		l0.80762,0.02539l-0.00586,0.15332c-0.00879,0.37012,0.06152,0.71289,0.20801,0.98535l0.00488,0.00586
		c0.04297,0.08105,0.0918,0.16016,0.15039,0.22852c0.09668,0.11816,0.20898,0.20605,0.32422,0.25977
		c0.13965,0.07422,0.35156,0.11914,0.54297-0.03809c0.10352-0.08594,0.13965-0.20313,0.11719-0.36426
		c-0.0293-0.19824-0.13477-0.41016-0.21582-0.55566c-0.03711-0.06445-0.33301-0.62207-0.39355-0.94336
		c-0.03125-0.21875-0.01172-0.42285,0.05371-0.61035c0.07031-0.19238,0.18848-0.35352,0.35254-0.48926
		c0.17773-0.14648,0.40137-0.23828,0.65527-0.26563c0.2207-0.00977,0.44824,0.03809,0.66797,0.1416
		c0.21777,0.10156,0.41504,0.25391,0.58203,0.45605c0.06543,0.0791,0.12598,0.1709,0.18555,0.26367
		c0.19922,0.35449,0.31055,0.77539,0.30664,1.22754l-0.00098,0.15039l-0.81055,0.00098l0.00098-0.15137
		c-0.00391-0.50879-0.16406-0.81738-0.30273-0.98535c-0.08984-0.10742-0.19434-0.18652-0.30176-0.24023
		c-0.16895-0.08008-0.35059-0.07129-0.46289,0.02148c-0.10352,0.08398-0.1377,0.17676-0.125,0.31543
		c0.0127,0.13965,0.07813,0.3125,0.20898,0.56738c0.01855,0.03223,0.04004,0.07715,0.06152,0.12207
		c0.12598,0.22852,0.28613,0.53613,0.3291,0.80762C100.56348,348.53223,100.54688,348.75,100.48047,348.94629z M102.62305,350.4834
		l-1.23242,1.70801l-0.6543-0.47266l2.52734-3.50488l1.25586,0.90625c0.24023,0.17383,0.40039,0.42969,0.44727,0.72656
		c0.04395,0.29297-0.01758,0.58594-0.19141,0.82715c-0.3584,0.49707-1.05469,0.60059-1.55273,0.24121L102.62305,350.4834z
		 M107.82422,355.49414l-0.8125-0.32324l0.01953-1.24902l-1.33301-0.53125l-0.85059,0.91699l-0.80664-0.32129l3.15039-3.40527
		l0.68359,0.27344L107.82422,355.49414z M105.67383,323.04395l-0.31348-0.72461l1.86816-0.80859l-0.25391-0.58594l-1.62793,0.70605
		l-0.32129-0.74219l1.62793-0.7041l-0.51074-1.18262l-1.81836,0.78711l-0.31836-0.73633l2.56445-1.11035l1.71875,3.96973
		L105.67383,323.04395z M111.04199,316.9248l0.78027-0.12012l0.66211,4.27344l-1.53027,0.2373
		c-0.28906,0.04492-0.57617-0.02832-0.81934-0.20605c-0.24219-0.17676-0.39844-0.42871-0.44238-0.7168
		c-0.06543-0.42676,0.12598-0.84961,0.4707-1.08691l-1.92871-1.94531l0.94727-0.14648l1.8418,1.85352l0.34277-0.05273
		L111.04199,316.9248z M111.81738,355.35645c0.45996,0.03809,0.90137-0.1377,1.20996-0.4834l0.10059-0.1084l0.60156,0.52539
		l-0.10645,0.11328c-0.23633,0.26758-0.52051,0.46875-0.84863,0.59961c-0.32129,0.13184-0.67285,0.18164-1.02441,0.15234
		c-0.30273-0.02637-0.59375-0.11133-0.8623-0.24902c-0.25684-0.1377-0.48633-0.32129-0.67383-0.54395
		c-0.19531-0.22461-0.33789-0.47949-0.4248-0.76172c-0.09766-0.28809-0.13281-0.58301-0.10742-0.89258
		c0.10352-1.24023,1.20508-2.16504,2.44629-2.06152c0.35059,0.02832,0.69434,0.14355,0.99023,0.32617
		c0.2959,0.17676,0.55469,0.43652,0.7373,0.73242l0.08691,0.12988l-0.68848,0.42285l-0.08008-0.12891
		c-0.24219-0.3916-0.64746-0.63867-1.11328-0.67773c-0.7998-0.06738-1.50781,0.52539-1.57422,1.32422
		C110.41992,354.58105,111.01758,355.28906,111.81738,355.35645z M115.98438,355.99414l-0.87305-4.24121l2.79395-0.5752
		l0.15918,0.77441l-1.99512,0.41016l0.12891,0.62598l1.73828-0.35938l0.16309,0.79297l-1.73828,0.3584l0.25977,1.2627
		l1.94141-0.39941l0.16211,0.78613L115.98438,355.99414z M121.59082,354.28125l-1.57129-3.15527l-0.95117,0.47266l-0.35742-0.71777
		l2.63281-1.31055l0.35742,0.71875l-0.95215,0.47266l1.57129,3.15625L121.59082,354.28125z M125.05078,352.19922l-2.66992-3.40039
		l0.63965-0.50293l2.66895,3.39941L125.05078,352.19922z M129.50781,347.55957l-2.29688-1.75488l0.54004,1.83398l-1.90723-0.04199
		l2.29688,1.75293l-0.48926,0.64258l-3.43652-2.62402l0.46094-0.60254l1.98926,0.04395l-0.56738-1.9082l0.46484-0.60742
		l3.43555,2.62305L129.50781,347.55957z M131.12012,344.72754l-4.04004-1.55371l1.02246-2.66016l0.7373,0.28418l-0.73047,1.89941
		l0.59668,0.22949l0.63574-1.65723l0.75586,0.29004l-0.63672,1.6582l1.20215,0.46191l0.71094-1.85059l0.74902,0.28809
		L131.12012,344.72754z M140.09375,319.36328c-4.14844,4.14844-8.74805,7.86035-13.67188,11.03125
		c-0.13867,0.08984-0.29395,0.13184-0.44727,0.13184c-0.27246,0-0.53906-0.13379-0.69727-0.37988
		c-0.24805-0.38379-0.13672-0.89648,0.24805-1.14453c4.82422-3.10742,9.33105-6.74512,13.39648-10.81055
		c0.32422-0.32227,0.84766-0.32227,1.17188,0C140.41699,318.51465,140.41699,319.04004,140.09375,319.36328z M128.52618,276.43042
		c-0.53278,0-1.05811-0.0307-1.57635-0.08533c-0.71851,2.15405-1.58801,4.23816-2.59857,6.24121
		c3.63269,2.71161,5.99542,7.03052,5.99542,11.91229c0,8.21368-6.65851,14.87219-14.87213,14.87219
		c-4.87653,0-9.19141-2.35767-11.90356-5.98376c-2.01617,1.01978-4.11469,1.89685-6.28418,2.62048
		c0.05469,0.51843,0.08539,1.04395,0.08539,1.5769c0,8.21362-6.65851,14.87213-14.87219,14.87213
		s-14.87213-6.65851-14.87213-14.87213c0-0.53296,0.0307-1.05847,0.08539-1.5769c-2.17615-0.72583-4.28076-1.60608-6.30261-2.62988
		c-2.71173,3.63141-7.02991,5.99316-11.91064,5.99316c-8.21368,0-14.87213-6.65851-14.87213-14.87219
		c0-4.89001,2.37061-9.21545,6.01379-11.92609c-1.00757-1.99878-1.87463-4.07831-2.59149-6.22736
		c-0.51825,0.05463-1.04358,0.08527-1.57629,0.08527c-8.21368,0-14.87219-6.65851-14.87219-14.87219
		s6.65851-14.87213,14.87219-14.87213c0.53278,0,1.05811,0.0307,1.57635,0.08533c0.72437-2.17163,1.60248-4.27209,2.6236-6.2901
		c-3.6853-2.70685-6.08765-7.05823-6.08765-11.98132c0-8.21368,6.65851-14.87213,14.87213-14.87213
		c4.92578,0,9.2793,2.40497,11.98578,6.09363c1.99286-1.00708,4.0661-1.87439,6.20874-2.59235
		c-0.05853-0.53619-0.09363-1.07928-0.09363-1.6311c0-8.21368,6.65851-14.87219,14.87219-14.87219
		s14.87213,6.65851,14.87213,14.87219c0,0.53638-0.03156,1.06512-0.08691,1.58685c2.1734,0.72107,4.27582,1.59613,6.2959,2.61432
		c2.70776-3.67572,7.05322-6.07092,11.96881-6.07092c8.21368,0,14.87213,6.65851,14.87213,14.87219
		c0,4.90344-2.38354,9.23938-6.04388,11.94855c1.02808,2.02795,1.91193,4.13916,2.6402,6.32239
		c0.51831-0.05463,1.04364-0.08533,1.57642-0.08533c8.21362,0,14.87213,6.65845,14.87213,14.87213
		S136.73981,276.43042,128.52618,276.43042z M145.96094,252.16992c-0.20703,0.40039-0.55762,0.69922-0.98535,0.83887
		c-0.88281,0.28613-1.83301-0.19629-2.12012-1.0791l-0.83496-2.57031l0.76758-0.24902l0.83594,2.56934
		c0.15039,0.46191,0.64941,0.7207,1.10645,0.57227c0.46094-0.15039,0.70703-0.65234,0.55566-1.11328l-0.83496-2.57031
		l0.77344-0.25195l0.83594,2.57031C146.2002,251.31348,146.16309,251.77344,145.96094,252.16992z M150.63281,249.64844
		l-3.27637-0.98438l1.79004,2.19531l-0.63086,0.51367l-2.72754-3.34766l0.61035-0.49805l3.26855,0.98438l-1.78613-2.19141
		l0.62891-0.51367l2.72949,3.34863L150.63281,249.64844z M152.65332,247.29883l-3.58789-2.40625l0.45313-0.6748l3.58789,2.40625
		L152.65332,247.29883z M153.76746,202.8847l-0.17285-0.76367l2.34375-2.49805l-2.7666,0.62695l-0.18066-0.79492l4.21777-0.95313
		l0.17383,0.76953l-2.33691,2.49023l2.75977-0.625l0.17969,0.79297L153.76746,202.8847z M157.45605,158.8916l-0.75293-0.23633
		l0.61133-1.94141l-0.60938-0.19141l-0.53223,1.69141l-0.77051-0.24219l0.53223-1.69238l-1.22852-0.38672l-0.59473,1.88867
		l-0.76465-0.23926l0.83789-2.66602l4.12695,1.29688L157.45605,158.8916z M158.76172,153.03516
		c-0.01563,0.29785-0.14453,0.57129-0.36816,0.77344c-0.22266,0.19531-0.50293,0.30176-0.7998,0.28711
		c-0.61328-0.03223-1.0791-0.56055-1.04785-1.17383l0.03809-0.74023l-2.10645-0.1084l0.04199-0.80664l4.32129,0.22168
		L158.76172,153.03516z"/>
	<path fill="#252626" d="M9.58875,189.3808c0.16895-0.04688,0.26465-0.22656,0.21875-0.38965l-0.20703-0.73145l-0.6084,0.1709
		l0.20605,0.73145C9.245,189.32611,9.41882,189.42963,9.58875,189.3808z"/>
	<polygon fill="#252626" points="17.69421,200.66986 17.82117,199.55267 16.9823,200.30072 	"/>
	<path fill="#252626" d="M9.34265,194.8056c0.42383,0.67383,1.31934,0.87793,1.99805,0.45215
		c0.68359-0.42969,0.88965-1.32617,0.46582-2s-1.32031-0.87891-2.00391-0.44824C9.1239,193.23627,8.9198,194.13177,9.34265,194.8056
		z"/>
	<path fill="#252626" d="M135.41492,189.664c0.76855-0.20117,1.23242-0.99609,1.0293-1.77148
		c-0.20508-0.78125-0.99805-1.24609-1.76758-1.04297c-0.77051,0.20117-1.23535,0.99609-1.0293,1.77734
		C133.85046,189.40228,134.64441,189.86713,135.41492,189.664z"/>
	<path fill="#252626" d="M87.43567,360.47876c-0.1626,0.31671-0.31885,0.5769-0.46924,0.78009
		c-0.15039,0.20343-0.28247,0.3374-0.396,0.4024c-0.06525,0.03259-0.14032,0.06073-0.22571,0.08514
		c-0.08521,0.02441-0.18701,0.04272-0.30481,0.05487c-0.11774,0.01221-0.25995,0.02258-0.42651,0.03052
		c-0.16656,0.00824-0.36786,0.01221-0.60345,0.01221c-0.26813,0-0.48962-0.008-0.66443-0.02441
		c-0.1748-0.01617-0.31488-0.03656-0.42041-0.06073c-0.10583-0.02466-0.18915-0.05304-0.24988-0.08539
		c-0.06104-0.03241-0.10791-0.06903-0.14032-0.1098c-0.0976-0.10559-0.16046-0.26208-0.18884-0.46924
		c-0.02863-0.20746-0.04272-0.47351-0.04272-0.79865v-0.8045c0.00189-0.11145,0.00519-0.21002,0.00989-0.29449
		c0.00793-0.15015,0.03021-0.29041,0.06683-0.42041s0.09338-0.26837,0.17084-0.41455
		c0.01825-0.03497,0.03894-0.07275,0.06073-0.11243c0.02936-0.00092,0.05981-0.0014,0.09387-0.0014h0.70715
		c0.23553,0,0.42859,0.00403,0.57898,0.01221c0.15021,0.008,0.27008,0.02417,0.35968,0.04858
		c0.12177,0.03259,0.20905,0.0896,0.26208,0.17078c0.0528,0.08118,0.09125,0.17883,0.11591,0.2926l0.10956,0.47534
		c0.03235,0.04083,0.08728,0.0589,0.16449,0.05487c0.07715-0.00397,0.12805-0.02625,0.15247-0.06708
		c0-0.13818-0.00818-0.31274-0.02441-0.52417c-0.01642-0.21136-0.02435-0.42676-0.02435-0.64612
		c0-0.23553,0.00793-0.46313,0.02435-0.6825c0.01624-0.2196,0.02441-0.40234,0.02441-0.54877
		c-0.02441-0.04034-0.07532-0.06287-0.15247-0.06714c-0.07721-0.00372-0.13214,0.01434-0.16449,0.05493l-0.09735,0.5
		c-0.03259,0.15436-0.07135,0.25806-0.11591,0.31085c-0.0448,0.0528-0.1037,0.09125-0.1767,0.11566
		c-0.07318,0.02441-0.1994,0.04266-0.37793,0.05487c-0.17902,0.01221-0.39838,0.01831-0.65833,0.01831h-0.5509
		c0.00421-0.00677,0.00793-0.01312,0.01221-0.02014l0.76788-1.32867c0.15411-0.26019,0.29443-0.50183,0.42065-0.7254
		c0.12579-0.22339,0.24988-0.42072,0.37164-0.59125c0.12201-0.17059,0.24774-0.30878,0.37799-0.41437
		c0.02698-0.02179,0.05469-0.0415,0.08307-0.06006c0.08258,0.03284,0.15527,0.07159,0.21796,0.11682
		c0.10156,0.073,0.18463,0.15839,0.24988,0.25598c0.06494,0.09741,0.11774,0.20721,0.15857,0.32898
		c0.04034,0.12195,0.08514,0.25616,0.13397,0.40234c0.03235,0.04083,0.08539,0.05701,0.15857,0.04883
		c0.073-0.008,0.12177-0.03241,0.14618-0.07324c-0.01642-0.12994-0.03046-0.27826-0.04248-0.44482
		c-0.01239-0.16656-0.02673-0.32916-0.04291-0.48755c-0.01617-0.15857-0.03754-0.30005-0.05469-0.42676
		c-0.04242-0.31348-0.03284-0.58118-0.03284-0.58118c0-0.61749-0.17523-1.15735-0.44269-1.60919
		c-0.26727-0.45142-0.60907-0.8078-1.02484-1.06915c-0.41595-0.26141-0.90302-0.44556-1.46143-0.55255
		c-0.55865-0.10699-1.21204-0.16046-1.96045-0.16046c-0.74872,0-1.4054,0.00891-1.96942,0.02673
		c-0.56445,0.01782-1.08441,0.05652-1.55969,0.11591c-0.07111,0.03564-0.10986,0.10419-0.11572,0.20483
		c-0.0061,0.10107,0.02045,0.18134,0.08026,0.24072l0.64148,0.07129c0.20197,0.02393,0.35919,0.06244,0.47247,0.11591
		c0.11261,0.05328,0.19592,0.15131,0.24939,0.29401c0.05353,0.14264,0.08612,0.33264,0.09808,0.57031
		c0.01172,0.23767,0.01782,0.54669,0.01782,0.92676v6.57678c0,0.4632-0.0061,0.83478-0.01782,1.11377
		c-0.01196,0.27942-0.05347,0.49622-0.12482,0.65057c-0.07129,0.15442-0.17828,0.26135-0.32074,0.32074
		c-0.14264,0.05957-0.34485,0.10699-0.60596,0.14264l-0.37445,0.05353c-0.05426,0.0542-0.07837,0.1283-0.07324,0.22168
		c-0.00043,0.19073-0.00256,0.25128-0.00653,0.46619c-0.00427,0.24609-0.0155,0.52112-0.03357,0.82538
		c0.01807,0.0448,0.06921,0.07159,0.15436,0.08075c0.08496,0.00867,0.14545-0.00916,0.1814-0.05377l0.0401-0.28198
		c0.02698-0.19684,0.06262-0.34888,0.10742-0.45612c0.04486-0.10742,0.12531-0.18793,0.2417-0.24164
		c0.11615-0.05371,0.27942-0.08539,0.48987-0.0943c0.21021-0.00873,0.48987-0.01318,0.83899-0.01318h1.69116
		c0.07153,0,0.12762,0.00446,0.16797,0.01318c0.0401,0.00891,0.06921,0.03375,0.08704,0.0741
		c0.01782,0.04016,0.02911,0.10278,0.03375,0.18768c0.00427,0.08521,0.00659,0.20343,0.00659,0.35571
		c0,0.26862-0.03357,0.46991-0.10065,0.60413s-0.1767,0.25061-0.32892,0.34912c-0.15228,0.10748-0.32001,0.21912-0.5033,0.33551
		c-0.18365,0.11615-0.36713,0.23248-0.55042,0.34888c-0.18347,0.11633-0.36011,0.22827-0.53021,0.33575
		c-0.1701,0.10718-0.31769,0.20575-0.44293,0.2951c-0.34021,0.2417-0.61987,0.46759-0.83905,0.67804
		c-0.21912,0.21027-0.3913,0.42279-0.5166,0.63751c-0.12555,0.21466-0.21259,0.44061-0.26184,0.6778
		c-0.04901,0.23718-0.07367,0.49878-0.07367,0.78528c0,0.25946,0.02228,0.45654,0.06689,0.59052
		c0.02698,0.03589,0.06049,0.05164,0.10089,0.04718c0.0401-0.0047,0.06921-0.0249,0.08728-0.06055
		c0.01758-0.17902,0.06024-0.34888,0.12738-0.50983c0.06708-0.16119,0.14966-0.30011,0.24847-0.4162
		c0.18793-0.23279,0.40021-0.4519,0.63745-0.6579c0.23694-0.20575,0.49878-0.41595,0.78528-0.63086
		c0.28619-0.21472,0.60834-0.43616,0.96637-0.66425c0.35779-0.22827,0.75171-0.47675,1.18127-0.74512
		c0.05377-0.03589,0.10938-0.065,0.16779-0.08728c0.05792-0.02252,0.10956-0.01575,0.15436,0.02014
		c0.06244,0.16986,0.15649,0.35126,0.2818,0.54364c0.12524,0.19238,0.27966,0.37372,0.46313,0.54382
		c0.18347,0.16986,0.39813,0.31067,0.64423,0.42279c0.24615,0.11169,0.53027,0.16779,0.85236,0.16779
		c0.47443,0,0.86365-0.10535,1.16797-0.31561c0.30408-0.21021,0.54126-0.4765,0.71136-0.79858
		c0.16986-0.31323,0.27966-0.66003,0.32892-1.0401c0.04901-0.38055,0.07556-0.78101,0.07367-1.20172
		c-0.0033-0.77936,0.13702-1.27539,0.13702-1.27539c0.0528-0.14636,0.10535-0.30261,0.15839-0.46924
		c0.0528-0.16656,0.10156-0.32916,0.14636-0.48773c0.04462-0.15839,0.0791-0.29047,0.1037-0.3963
		c-0.0246-0.05652-0.07129-0.09314-0.14026-0.10956C87.53119,360.43817,87.4765,360.44617,87.43567,360.47876z M82.30127,360.40979
		c0,0.3252-0.00421,0.58514-0.01215,0.78009c-0.00824,0.19495-0.03662,0.34747-0.08545,0.45703
		c-0.01733,0.03943-0.03796,0.07416-0.06171,0.10443c-0.00043,0.00024-0.00116,0.00067-0.00165,0.00092
		c-0.14191-0.02722-0.2616-0.05865-0.35822-0.09454c-0.16052-0.05939-0.27618-0.16632-0.34747-0.32074
		c-0.07135-0.15436-0.11591-0.37115-0.13373-0.65057c-0.01782-0.27899-0.02673-0.65057-0.02673-1.11377v-2.53784l0.63721,1.24164
		c0.08917,0.17078,0.16022,0.31506,0.21326,0.43286c0.0528,0.11798,0.09125,0.22754,0.11566,0.32916
		c0.02441,0.10181,0.04059,0.20929,0.04883,0.32306c0.00793,0.11377,0.01215,0.25598,0.01215,0.42651V360.40979z
		 M82.33789,357.04535c-0.2276-0.46338-0.45514-0.9223-0.68274-1.37769c-0.01642-0.03235-0.04456-0.09314-0.08514-0.18274
		c-0.04083-0.08917-0.08356-0.18463-0.12811-0.2865c-0.0448-0.10156-0.0835-0.19684-0.11591-0.28644
		c-0.03259-0.08942-0.04858-0.15039-0.04858-0.1828c0-0.04877,0.03217-0.08728,0.09741-0.11591
		c0.06494-0.02838,0.20319-0.06287,0.41455-0.10345l0.15839-0.02441c0.04059-0.04059,0.05884-0.0976,0.05487-0.17078
		c-0.00421-0.07294-0.03473-0.1178-0.09125-0.13397c-0.17316,0.01361-0.3855,0.0235-0.63721,0.02936v-2.58643
		c0-0.1427,0.00586-0.25555,0.01782-0.33881c0.01172-0.08282,0.04736-0.14832,0.10699-0.19592
		c0.05933-0.04736,0.15411-0.07721,0.28503-0.08917c0.13068-0.01172,0.31488-0.01782,0.55255-0.01782
		c0.9267,0,1.63666,0.25836,2.12982,0.77521c0.49292,0.51685,0.73975,1.20923,0.73975,2.0766
		c0,0.08209-0.01709,0.25922-0.02789,0.3808c-0.0683-0.00098-0.13654-0.00189-0.20483-0.0033
		c-0.18701-0.00403-0.39014-0.01434-0.60956-0.03052c-0.04877,0.02441-0.07507,0.07111-0.07928,0.14008
		c-0.00397,0.06921,0.0141,0.12408,0.05518,0.16467l0.21912,0.02441c0.14636,0.01617,0.26813,0.04272,0.36572,0.0791
		c0.09766,0.03656,0.14642,0.07532,0.14642,0.11591s-0.02441,0.11591-0.07318,0.22546
		c-0.04883,0.1098-0.11383,0.24188-0.19495,0.396c-0.08142,0.1546-0.16895,0.31934-0.26208,0.4939
		c-0.09363,0.1748-0.18115,0.33948-0.26233,0.49365c-0.18695,0.35779-0.37775,0.70898-0.57294,1.05432
		c-0.19495,0.34564-0.38593,0.68091-0.57269,1.00586C82.79681,357.95148,82.56525,357.50848,82.33789,357.04535z
		 M86.61548,364.10645c-0.11426,0.26343-0.26587,0.48096-0.45471,0.65222c-0.18909,0.17126-0.40399,0.2984-0.64569,0.3822
		c-0.24188,0.0835-0.49432,0.12506-0.75781,0.12506c-0.44812,0-0.79724-0.06573-1.04755-0.19757
		c-0.25037-0.13184-0.44598-0.28552-0.5863-0.46124c-0.14972-0.19336-0.24402-0.40851-0.28345-0.64569
		c-0.03961-0.23718-0.05933-0.47443-0.05933-0.71161c0-0.33411,0.00677-0.56445,0.01971-0.69189
		c0.01337-0.12762,0.02838-0.19989,0.0462-0.21747c0.03497-0.02649,0.17993-0.03943,0.43475-0.03943h3.0838
		c0.08777,0,0.16022,0.00659,0.21747,0.01971c0.05682,0.01312,0.10089,0.0481,0.13165,0.10535
		c0.0307,0.05701,0.05042,0.14264,0.05933,0.2569c0.00873,0.11426,0.01343,0.2724,0.01343,0.47443
		C86.78699,363.52643,86.72949,363.84296,86.61548,364.10645z"/>
</g>
<title>Pulsars-DM</title>
<g>
	<g>
		<circle fill="#BCBCBC" cx="23" cy="7" r="5.73633"/>
		<path fill="#808080" d="M23.00005,1.5275c3.02239,0,5.47253,2.45014,5.47253,5.47253s-2.45014,5.47253-5.47253,5.47253
			s-5.47253-2.45014-5.47253-5.47253c0-0.00001,0-0.00002,0-0.00003C17.53096,3.97904,19.97908,1.53092,23.00005,1.5275
			 M23.00005,1.00003c-3.31371,0-6,2.68629-6,6s2.68629,6,6,6s6-2.68629,6-6S26.31376,1.00003,23.00005,1.00003z"/>
	</g>
	<polygon fill="#6E6E6E" points="26.495,6.341 23.659,6.341 23.659,3.506 22.341,3.506 22.341,6.341 19.506,6.341 19.506,7.659 
		22.341,7.659 22.341,10.495 23.659,10.495 23.659,7.659 26.495,7.659 	"/>
</g>
<g>
	<g>
		<circle fill="#BCBCBC" cx="142" cy="7" r="5.73633"/>
		<path fill="#808080" d="M142,1.5275c3.0224-0.00002,5.47255,2.45009,5.47256,5.47249
			c0.00003,3.0224-2.45009,5.47255-5.47249,5.47257c-3.02238,0.00002-5.47253-2.45009-5.47256-5.47249
			c0-0.00002,0-0.00005,0-0.00007C136.53094,3.97905,138.97905,1.53095,142,1.5275 M142,1c-3.31371,0-6,2.68629-6,6s2.68629,6,6,6
			s6-2.68629,6-6S145.31371,1,142,1z"/>
	</g>
	<polygon fill="#6E6E6E" points="145.495,6.341 142.659,6.341 142.659,3.506 141.341,3.506 141.341,6.341 138.506,6.341 
		138.506,7.659 141.341,7.659 141.341,10.495 142.659,10.495 142.659,7.659 145.495,7.659 	"/>
</g>
<g>
	<g>
		<circle fill="#BCBCBC" cx="23" cy="373" r="5.73633"/>
		<path fill="#808080" d="M23.00005,367.5275c3.02239,0,5.47253,2.45013,5.47253,5.47253s-2.45014,5.47253-5.47253,5.47253
			s-5.47253-2.45013-5.47253-5.47253V373c0.00341-3.02097,2.45155-5.46912,5.47253-5.47253 M23.00005,367c-3.31371,0-6,2.68628-6,6
			s2.68629,6,6,6s6-2.68628,6-6S26.31376,367,23.00005,367z"/>
	</g>
	<polygon fill="#6E6E6E" points="26.495,372.341 23.659,372.341 23.659,369.50601 22.341,369.50601 22.341,372.341 19.506,372.341 
		19.506,373.659 22.341,373.659 22.341,376.495 23.659,376.495 23.659,373.659 26.495,373.659 	"/>
</g>
<g>
	<g>
		<circle fill="#BCBCBC" cx="142" cy="373" r="5.73633"/>
		<path fill="#808080" d="M142,367.5275c3.0224-0.00003,5.47255,2.4501,5.47256,5.47247
			c0.00003,3.0224-2.45009,5.47256-5.47249,5.4726c-3.02238,0-5.47253-2.4501-5.47256-5.4725c0-0.00003,0-0.00003,0-0.00006
			C136.53094,369.97903,138.97905,367.53094,142,367.5275 M142,367c-3.31371,0-6,2.68628-6,6s2.68629,6,6,6s6-2.68628,6-6
			S145.31371,367,142,367z"/>
	</g>
	<polygon fill="#6E6E6E" points="145.495,372.341 142.659,372.341 142.659,369.50601 141.341,369.50601 141.341,372.341 
		138.506,372.341 138.506,373.659 141.341,373.659 141.341,376.495 142.659,376.495 142.659,373.659 145.495,373.659 	"/>
</g>
<g>
	<g>
		<g>
			<path fill="#E5E5E5" d="M2.50001,23.83011c-0.11035,0-0.2207-0.02051-0.32031-0.06055s-0.18945-0.09961-0.26953-0.17969
				c-0.07031-0.08008-0.13086-0.16992-0.18066-0.27051c-0.04004-0.09961-0.05957-0.19922-0.05957-0.30957
				s0.01953-0.21973,0.07031-0.32031c0.03906-0.09961,0.09961-0.18945,0.16992-0.26953
				c0.08008-0.08008,0.16992-0.13965,0.26953-0.17969c0.20996-0.08008,0.42969-0.08008,0.63965,0
				c0.10059,0.04004,0.19043,0.09961,0.26074,0.17969c0.08008,0.08008,0.13965,0.16992,0.18945,0.26953
				c0.04004,0.10059,0.06055,0.20996,0.06055,0.32031s-0.02051,0.20996-0.06055,0.30957
				c-0.0498,0.10059-0.10938,0.19043-0.18945,0.27051c-0.07031,0.08008-0.16016,0.13965-0.26074,0.17969
				C2.71974,23.8096,2.60938,23.83011,2.50001,23.83011z"/>
		</g>
		<g>
			<path fill="#E5E5E5" d="M13.20997,23.0098c0-0.45996,0.37012-0.83008,0.83008-0.83008l0,0
				c0.45996,0,0.83008,0.37012,0.83008,0.83008l0,0c0,0.4502-0.37012,0.82031-0.83008,0.82031l0,0
				C13.58009,23.83011,13.20997,23.45999,13.20997,23.0098z M7.43946,23.0098c0-0.45996,0.37012-0.83008,0.83008-0.83008l0,0
				c0.45996,0,0.83008,0.37012,0.83008,0.83008l0,0c0,0.4502-0.37012,0.82031-0.83008,0.82031l0,0
				C7.80958,23.83011,7.43946,23.45999,7.43946,23.0098z"/>
		</g>
		<g>
			<path fill="#E5E5E5" d="M19.80958,23.83011c-0.10938,0-0.20996-0.02051-0.31934-0.06055
				c-0.09082-0.04004-0.19043-0.09961-0.26074-0.17969c-0.08008-0.08008-0.13965-0.16992-0.17969-0.27051
				c-0.04004-0.09961-0.07031-0.19922-0.07031-0.30957s0.03027-0.21973,0.07031-0.32031
				c0.04004-0.09961,0.09961-0.18945,0.17969-0.26953c0.07031-0.08008,0.16016-0.13965,0.27051-0.17969
				c0.2998-0.13086,0.66992-0.05078,0.89941,0.17969c0.08008,0.08008,0.14063,0.16992,0.18066,0.26953
				c0.04004,0.10059,0.05957,0.20996,0.05957,0.32031s-0.01953,0.20996-0.05957,0.30957
				c-0.04004,0.10059-0.10059,0.19043-0.18066,0.27051C20.24024,23.75003,20.02931,23.83011,19.80958,23.83011z"/>
		</g>
	</g>
	<g>
		<g>
			<path fill="#E5E5E5" d="M145.72951,23.83011c-0.12012,0-0.21973-0.02051-0.31934-0.06055
				c-0.10059-0.04004-0.19043-0.09961-0.27051-0.17969s-0.13965-0.16992-0.17969-0.27051
				c-0.04004-0.09961-0.06055-0.20996-0.06055-0.30957c0-0.11035,0.02051-0.21973,0.06055-0.32031
				c0.04004-0.09961,0.09961-0.18945,0.17969-0.26953c0.07031-0.08008,0.16992-0.13965,0.27051-0.17969
				c0.19922-0.08008,0.42969-0.08008,0.62988,0c0.09961,0.04004,0.2002,0.09961,0.26953,0.17969
				c0.08008,0.08008,0.14063,0.16992,0.18066,0.26953c0.03906,0.10059,0.06934,0.20996,0.06934,0.32031
				c0,0.09961-0.03027,0.20996-0.06934,0.30957c-0.04004,0.10059-0.10059,0.19043-0.18066,0.27051s-0.16992,0.13965-0.26953,0.17969
				C145.93947,23.8096,145.83986,23.83011,145.72951,23.83011z"/>
		</g>
		<g>
			<path fill="#E5E5E5" d="M156.08009,23.0098c0-0.45996,0.37012-0.83008,0.83008-0.83008l0,0
				c0.44922,0,0.83008,0.37012,0.83008,0.83008l0,0c0,0.4502-0.38086,0.82031-0.83008,0.82031l0,0
				C156.45021,23.83011,156.08009,23.45999,156.08009,23.0098z M150.49025,23.0098c0-0.45996,0.36914-0.83008,0.8291-0.83008l0,0
				c0.4502,0,0.83008,0.37012,0.83008,0.83008l0,0c0,0.4502-0.37988,0.82031-0.83008,0.82031l0,0
				C150.85939,23.83011,150.49025,23.45999,150.49025,23.0098z"/>
		</g>
		<g>
			<path fill="#E5E5E5" d="M162.50002,23.83011c-0.2207,0-0.43066-0.08008-0.58984-0.24023
				c-0.15039-0.16016-0.24023-0.36035-0.24023-0.58008s0.08984-0.42969,0.24023-0.58984
				c0.08008-0.08008,0.16992-0.13965,0.26953-0.17969c0.20996-0.08008,0.42969-0.08008,0.63965,0
				c0.10059,0.04004,0.19043,0.09961,0.27051,0.17969c0.07031,0.08008,0.12988,0.16992,0.16992,0.26953
				c0.0498,0.10059,0.07031,0.20996,0.07031,0.32031c0,0.21973-0.08984,0.41992-0.24023,0.58008
				C162.9297,23.75003,162.71974,23.83011,162.50002,23.83011z"/>
		</g>
	</g>
	<g>
		<g>
			<path fill="#E5E5E5" d="M65.50977,198.39944c-0.04004-0.44922,0.30957-0.84961,0.75977-0.87988l0,0l0,0l0,0
				c0.45996-0.04004,0.86035,0.31055,0.89063,0.76074l0,0c0.0293,0.45996-0.31055,0.85938-0.77051,0.88965l0,0
				c-0.01953,0-0.04004,0-0.05957,0l0,0C65.89942,199.16995,65.54005,198.83987,65.50977,198.39944z M61.2295,198.54984
				L61.2295,198.54984c-0.41992-0.16992-0.62988-0.65039-0.46973-1.08008l0,0c0.16992-0.41992,0.65039-0.63965,1.08008-0.46973l0,0
				c0.42969,0.16992,0.62988,0.64941,0.46973,1.08008l0,0c-0.12988,0.31934-0.43945,0.51953-0.76953,0.51953l0,0
				C61.43946,198.59964,61.33009,198.58011,61.2295,198.54984z M70.31934,197.70023
				c-0.10938-0.4502,0.16016-0.89063,0.60059-1.01074l0,0l0,0l0,0c0.43945-0.10938,0.88965,0.15039,1.00977,0.59082l0,0
				c0.11035,0.44922-0.15039,0.89941-0.58984,1.00977h-0.00977c-0.07031,0.01953-0.14063,0.0293-0.2002,0.0293l0,0
				C70.75977,198.31937,70.41993,198.06937,70.31934,197.70023z M75.00001,196.33011
				c-0.14063-0.43066,0.08984-0.90039,0.51953-1.0498l0,0c0.43066-0.15039,0.90039,0.0791,1.0498,0.50977l0,0
				c0.15039,0.43945-0.0791,0.91016-0.50977,1.05957l0,0c-0.08984,0.03027-0.17969,0.04004-0.26953,0.04004l0,0
				C75.43946,196.88968,75.12012,196.66995,75.00001,196.33011z M79.58985,194.68948
				c-0.16016-0.42969,0.05957-0.90918,0.49023-1.06934l0,0c0.41992-0.16016,0.89941,0.0498,1.06934,0.47949l0,0
				c0.16016,0.43066-0.05957,0.91016-0.48926,1.07031l0,0c-0.09082,0.04004-0.19043,0.0498-0.29004,0.0498l0,0
				C80.0293,195.21976,79.71973,195.01956,79.58985,194.68948z M84.14942,192.95999
				c-0.14941-0.42969,0.06055-0.91016,0.49023-1.07031l0,0c0.42969-0.16016,0.91016,0.06055,1.07031,0.49023l0,0
				c0.16016,0.42969-0.06055,0.90039-0.49023,1.05957l0,0c-0.08984,0.04004-0.19043,0.06055-0.29004,0.06055l0,0
				C84.59962,193.50003,84.2793,193.29007,84.14942,192.95999z M88.74024,191.29984c-0.14063-0.44043,0.08984-0.91016,0.5293-1.0498
				l0,0c0.43066-0.14063,0.90039,0.08984,1.04004,0.53027l0,0c0.15039,0.42969-0.08984,0.89941-0.51953,1.0498l0,0
				c-0.08984,0.01953-0.18066,0.04004-0.26074,0.04004l0,0C89.1797,191.87015,88.85938,191.64944,88.74024,191.29984z
				 M103.37012,190.76956c-0.40039-0.20996-0.55078-0.71973-0.34082-1.12012l0,0c0.21094-0.39941,0.71094-0.55957,1.12012-0.33984
				l0,0c0.40039,0.20996,0.56055,0.70996,0.34082,1.11035l0,0c-0.14063,0.29004-0.43066,0.4502-0.73047,0.4502l0,0
				C103.62989,190.87015,103.50001,190.83011,103.37012,190.76956z M93.41016,189.88968
				c-0.10059-0.4502,0.17969-0.88965,0.61914-0.99023l0,0c0.4502-0.09961,0.89063,0.16992,0.99023,0.62012l0,0
				c0.11035,0.4502-0.16992,0.89063-0.62012,0.99023l0,0c-0.05957,0.02051-0.12012,0.02051-0.17969,0.02051l0,0
				C93.83985,190.5303,93.49024,190.26956,93.41016,189.88968z M98.20997,189.06937
				c-0.00977-0.45996,0.35938-0.8291,0.81934-0.83984l0,0c0.4502,0,0.83008,0.36035,0.84082,0.82031l0,0
				c0,0.45996-0.36035,0.83008-0.82031,0.83984l0,0h-0.00977l0,0C98.58985,189.88968,98.21973,189.5303,98.20997,189.06937z"/>
		</g>
	</g>
	<g>
		<path fill="#E5E5E5" d="M27.46632,20.4556h0.59082v0.83496h0.01953c0.21582-0.58203,0.86328-0.97656,1.54785-0.97656
			c1.36035,0,1.77344,0.71387,1.77344,1.86816v3.11523h-0.59082v-3.02148c0-0.83496-0.27246-1.46387-1.22949-1.46387
			c-0.93848,0-1.50098,0.71289-1.52051,1.66113v2.82422h-0.59082V20.4556z"/>
		<path fill="#E5E5E5" d="M32.86475,23.03568c0.00977,0.86328,0.45996,1.90527,1.5957,1.90527
			c0.86328,0,1.33203-0.50684,1.51953-1.23926h0.5918c-0.25391,1.09863-0.8916,1.73633-2.11133,1.73633
			c-1.53906,0-2.18652-1.18262-2.18652-2.56152c0-1.27637,0.64746-2.5625,2.18652-2.5625c1.55762,0,2.17676,1.36133,2.12988,2.72168
			H32.86475z M35.99952,22.5386c-0.02832-0.8916-0.58203-1.72656-1.53906-1.72656c-0.9668,0-1.50195,0.84473-1.5957,1.72656
			H35.99952z"/>
		<path fill="#E5E5E5" d="M41.313,25.29739h-0.54395v-0.87305H40.7505c-0.30957,0.64746-0.94824,1.01367-1.6709,1.01367
			c-1.21973,0-1.69824-0.71289-1.69824-1.83887V20.4556h0.59082v3.15234c0.02832,0.87305,0.35742,1.33301,1.29492,1.33301
			c1.01367,0,1.45508-0.95703,1.45508-1.94238V20.4556H41.313V25.29739z"/>
		<path fill="#E5E5E5" d="M43.37061,20.4556h0.98535v0.49707h-0.98535v3.26563c0,0.38477,0.05664,0.61035,0.47949,0.6377
			c0.16895,0,0.33789-0.00879,0.50586-0.02734v0.50586c-0.17773,0-0.34668,0.01953-0.52539,0.01953
			c-0.78809,0-1.05957-0.2627-1.05078-1.08887v-3.3125h-0.84473V20.4556h0.84473v-1.45508h0.59082V20.4556z"/>
		<path fill="#E5E5E5" d="M45.21241,20.4556h0.54395v1.13477h0.01855c0.30078-0.77832,0.95703-1.23828,1.83008-1.20117v0.5918
			c-1.07031-0.05664-1.80176,0.73145-1.80176,1.73535v2.58105h-0.59082V20.4556z"/>
		<path fill="#E5E5E5" d="M52.33546,22.8765c0,1.38867-0.80664,2.56152-2.29004,2.56152c-1.48242,0-2.28906-1.17285-2.28906-2.56152
			s0.80664-2.5625,2.28906-2.5625C51.52882,20.314,52.33546,21.48782,52.33546,22.8765z M48.34718,22.8765
			c0,1.03223,0.56348,2.06445,1.69824,2.06445c1.13574,0,1.69922-1.03223,1.69922-2.06445s-0.56348-2.06445-1.69922-2.06445
			C48.91065,20.81204,48.34718,21.84427,48.34718,22.8765z"/>
		<path fill="#E5E5E5" d="M53.21046,20.4556h0.59082v0.83496h0.01953c0.21582-0.58203,0.86328-0.97656,1.54785-0.97656
			c1.36035,0,1.77344,0.71387,1.77344,1.86816v3.11523h-0.59082v-3.02148c0-0.83496-0.27246-1.46387-1.22949-1.46387
			c-0.93848,0-1.50098,0.71289-1.52051,1.66113v2.82422h-0.59082V20.4556z"/>
		<path fill="#E5E5E5" d="M60.87257,20.4556h0.54395v0.91895h0.01855c0.27246-0.65625,0.94824-1.06055,1.72656-1.06055
			c1.47363,0,2.17773,1.19238,2.17773,2.5625s-0.7041,2.56152-2.17773,2.56152c-0.72266,0-1.42578-0.36621-1.67969-1.06055h-0.01855
			v2.71191h-0.59082V20.4556z M63.16163,20.81204c-1.30371,0-1.69824,0.96582-1.69824,2.06445
			c0,1.00391,0.44141,2.06445,1.69824,2.06445c1.12598,0,1.58594-1.06055,1.58594-2.06445S64.28761,20.81204,63.16163,20.81204z"/>
		<path fill="#E5E5E5" d="M70.5962,22.8765c0,1.38867-0.80664,2.56152-2.29004,2.56152c-1.48242,0-2.28906-1.17285-2.28906-2.56152
			s0.80664-2.5625,2.28906-2.5625C69.78956,20.314,70.5962,21.48782,70.5962,22.8765z M66.60792,22.8765
			c0,1.03223,0.56348,2.06445,1.69824,2.06445c1.13574,0,1.69922-1.03223,1.69922-2.06445s-0.56348-2.06445-1.69922-2.06445
			C67.17139,20.81204,66.60792,21.84427,66.60792,22.8765z"/>
		<path fill="#E5E5E5" d="M70.99268,20.4556h0.62891l1.23828,4.14746h0.01855l1.18262-4.14746h0.66602l1.18262,4.14746h0.01855
			l1.23926-4.14746h0.62891l-1.55762,4.8418h-0.64844l-1.19141-4.07227h-0.01855l-1.18262,4.07227H72.5503L70.99268,20.4556z"/>
		<path fill="#E5E5E5" d="M78.78468,23.03568c0.00977,0.86328,0.45996,1.90527,1.5957,1.90527
			c0.86328,0,1.33203-0.50684,1.51953-1.23926h0.5918c-0.25391,1.09863-0.8916,1.73633-2.11133,1.73633
			c-1.53906,0-2.18652-1.18262-2.18652-2.56152c0-1.27637,0.64746-2.5625,2.18652-2.5625c1.55762,0,2.17676,1.36133,2.12988,2.72168
			H78.78468z M81.91944,22.5386c-0.02832-0.8916-0.58203-1.72656-1.53906-1.72656c-0.9668,0-1.50195,0.84473-1.5957,1.72656
			H81.91944z"/>
		<path fill="#E5E5E5" d="M83.31104,20.4556h0.54395v1.13477h0.01855c0.30078-0.77832,0.95703-1.23828,1.83008-1.20117v0.5918
			c-1.07031-0.05664-1.80176,0.73145-1.80176,1.73535v2.58105h-0.59082V20.4556z"/>
		<path fill="#E5E5E5" d="M86.44581,23.03568c0.00977,0.86328,0.45996,1.90527,1.5957,1.90527
			c0.86328,0,1.33203-0.50684,1.51953-1.23926h0.5918c-0.25391,1.09863-0.8916,1.73633-2.11133,1.73633
			c-1.53906,0-2.18652-1.18262-2.18652-2.56152c0-1.27637,0.64746-2.5625,2.18652-2.5625c1.55762,0,2.17676,1.36133,2.12988,2.72168
			H86.44581z M89.58057,22.5386c-0.02832-0.8916-0.58203-1.72656-1.53906-1.72656c-0.9668,0-1.50195,0.84473-1.5957,1.72656
			H89.58057z"/>
		<path fill="#E5E5E5" d="M95.23194,25.29739H94.688v-0.91992h-0.01855c-0.25391,0.62891-1.02344,1.06055-1.72656,1.06055
			c-1.47363,0-2.17773-1.19141-2.17773-2.56152s0.7041-2.5625,2.17773-2.5625c0.72168,0,1.42578,0.36621,1.67969,1.06055h0.01855
			V18.5972h0.59082V25.29739z M92.94288,24.94095c1.25684,0,1.69824-1.06055,1.69824-2.06445s-0.44141-2.06445-1.69824-2.06445
			c-1.12695,0-1.58594,1.06055-1.58594,2.06445S91.81593,24.94095,92.94288,24.94095z"/>
		<path fill="#E5E5E5" d="M101.58155,20.4556h0.54395V21.272h0.02832c0.30957-0.58203,0.81641-0.95801,1.58594-0.95801
			c0.6377,0,1.20996,0.31055,1.38867,0.94824c0.29102-0.6377,0.90039-0.94824,1.53906-0.94824
			c1.06055,0,1.60449,0.55371,1.60449,1.69922v3.28418h-0.59082v-3.25586c0-0.79785-0.30078-1.22949-1.14551-1.22949
			c-1.02246,0-1.31348,0.84473-1.31348,1.74512v2.74023h-0.59082v-3.28418c0.00879-0.65723-0.2627-1.20117-1.01367-1.20117
			c-1.02344,0-1.43555,0.76953-1.44531,1.78223v2.70313h-0.59082V20.4556z"/>
		<path fill="#E5E5E5" d="M113.73682,22.8765c0,1.38867-0.80664,2.56152-2.29004,2.56152
			c-1.48242,0-2.28906-1.17285-2.28906-2.56152s0.80664-2.5625,2.28906-2.5625
			C112.93018,20.314,113.73682,21.48782,113.73682,22.8765z M109.74854,22.8765c0,1.03223,0.56348,2.06445,1.69824,2.06445
			c1.13574,0,1.69922-1.03223,1.69922-2.06445s-0.56348-2.06445-1.69922-2.06445
			C110.31202,20.81204,109.74854,21.84427,109.74854,22.8765z"/>
		<path fill="#E5E5E5" d="M114.62159,20.4556h0.54395v1.13477h0.01855c0.30078-0.77832,0.95703-1.23828,1.83008-1.20117v0.5918
			c-1.07031-0.05664-1.80176,0.73145-1.80176,1.73535v2.58105h-0.59082V20.4556z"/>
		<path fill="#E5E5E5" d="M117.57862,20.4556h0.54395v0.91895h0.01855c0.27246-0.65625,0.94824-1.06055,1.72656-1.06055
			c1.47363,0,2.17773,1.19238,2.17773,2.5625s-0.7041,2.56152-2.17773,2.56152c-0.72266,0-1.42578-0.36621-1.67969-1.06055h-0.01855
			v2.71191h-0.59082V20.4556z M119.86768,20.81204c-1.30371,0-1.69824,0.96582-1.69824,2.06445
			c0,1.00391,0.44141,2.06445,1.69824,2.06445c1.12598,0,1.58594-1.06055,1.58594-2.06445S120.99366,20.81204,119.86768,20.81204z"
			/>
		<path fill="#E5E5E5" d="M122.95753,18.5972h0.59082v2.69336h0.01953c0.21582-0.58203,0.86328-0.97656,1.54785-0.97656
			c1.36035,0,1.77344,0.71387,1.77344,1.86816v3.11523h-0.59082v-3.02148c0-0.83496-0.27246-1.46387-1.22949-1.46387
			c-0.93848,0-1.50098,0.71289-1.52051,1.66113v2.82422h-0.59082V18.5972z"/>
		<path fill="#E5E5E5" d="M128.01808,18.5972h0.5918v0.94727h-0.5918V18.5972z M128.01808,20.4556h0.5918v4.8418h-0.5918V20.4556z"
			/>
		<path fill="#E5E5E5" d="M129.73683,20.4556h0.59082v0.83496h0.01953c0.21582-0.58203,0.86328-0.97656,1.54785-0.97656
			c1.36035,0,1.77344,0.71387,1.77344,1.86816v3.11523h-0.59082v-3.02148c0-0.83496-0.27246-1.46387-1.22949-1.46387
			c-0.93848,0-1.50098,0.71289-1.52051,1.66113v2.82422h-0.59082V20.4556z"/>
		<path fill="#E5E5E5" d="M138.87941,24.90286c-0.00879,1.44531-0.5625,2.32813-2.14844,2.32813
			c-0.9668,0-1.92383-0.43164-2.00879-1.46484h0.5918c0.13086,0.71387,0.75977,0.9668,1.41699,0.9668
			c1.08789,0,1.55762-0.64746,1.55762-1.83008v-0.65625h-0.01855c-0.27246,0.59082-0.84473,0.99414-1.53906,0.99414
			c-1.54883,0-2.18652-1.10742-2.18652-2.48633c0-1.33301,0.78809-2.44043,2.18652-2.44043
			c0.70313,0,1.30371,0.44141,1.53906,0.97656h0.01855V20.4556h0.59082V24.90286z M138.28859,22.81985
			c0-0.94727-0.44141-2.00781-1.55762-2.00781c-1.12598,0-1.5957,1.00391-1.5957,2.00781c0,0.97559,0.50684,1.92383,1.5957,1.92383
			C137.75343,24.74368,138.28859,23.80521,138.28859,22.81985z"/>
	</g>
</g>
</svg>
