<svg xmlns="http://www.w3.org/2000/svg" width="195" height="380" viewBox="0 0 195 380">
  <title>black holes - ready</title>
  <g id="BACKGROUND">
    <rect width="195" height="380" style="fill: #e5e5e5"/>
    <g>
      <path d="M108.64,94.19a.83.83,0,0,1-.37-1.11h0a.81.81,0,0,1,1.11-.37h0a.82.82,0,0,1,.37,1.11h0a.81.81,0,0,1-.74.46h0A.83.83,0,0,1,108.64,94.19Zm2-4.32a.83.83,0,0,1-.47-1.07h0a.82.82,0,0,1,1.07-.47h0a.83.83,0,0,1,.46,1.08h0a.85.85,0,0,1-.78.52h0A.8.8,0,0,1,110.65,89.87Zm1.63-4.47a.84.84,0,0,1-.56-1h0a.83.83,0,0,1,1-.56h0a.83.83,0,0,1,.56,1h0a.81.81,0,0,1-.79.59h0A1,1,0,0,1,112.28,85.4Zm1.15-4.62a.83.83,0,0,1-.68-1h0a.83.83,0,0,1,1-.68h0a.83.83,0,0,1,.69.95h0a.84.84,0,0,1-.82.69h-.14Zm.62-4.72a.83.83,0,0,1-.77-.88h0a.83.83,0,0,1,.88-.78h0a.84.84,0,0,1,.77.89h0a.82.82,0,0,1-.82.77h-.06Zm-.62-5.59h0a.83.83,0,0,1,.83-.83h0a.84.84,0,0,1,.82.84h0a.83.83,0,0,1-.83.82h0A.83.83,0,0,1,113.43,70.47Zm-.07-4.73a.83.83,0,0,1,.8-.86h0a.84.84,0,0,1,.86.8h0a.84.84,0,0,1-.81.85h0A.82.82,0,0,1,113.36,65.74Zm.69-4h0" style="fill: #ff4257"/>
      <path d="M114.13,100.33a.82.82,0,0,1,.18-1.15h0a.83.83,0,0,1,1.16.18h0a.83.83,0,0,1-.19,1.16h0a.81.81,0,0,1-.48.16h0A.81.81,0,0,1,114.13,100.33Zm3.84-2.9a.82.82,0,0,1,.11-1.16h0a.83.83,0,0,1,1.17.1h0a.83.83,0,0,1-.12,1.17h0a.8.8,0,0,1-.52.19h0A.81.81,0,0,1,118,97.43Zm3.64-3.16a.82.82,0,0,1,0-1.17h0a.83.83,0,0,1,1.17,0h0a.82.82,0,0,1,0,1.17h0a.83.83,0,0,1-.57.23h0A.8.8,0,0,1,121.61,94.27Zm3.4-3.4A.82.82,0,0,1,125,89.7h0a.82.82,0,0,1,1.17,0h0a.82.82,0,0,1,.05,1.17h0a.82.82,0,0,1-.61.27h0A.81.81,0,0,1,125,90.87Zm3.15-3.64a.83.83,0,0,1-.14-1.16h0a.83.83,0,0,1,1.17-.14h0a.83.83,0,0,1,.14,1.16h0a.84.84,0,0,1-.66.32h0A.84.84,0,0,1,128.16,87.23Zm2.89-3.85a.82.82,0,0,1-.21-1.15h0A.82.82,0,0,1,132,82h0a.83.83,0,0,1,.21,1.15h0a.81.81,0,0,1-.68.36h0A.81.81,0,0,1,131.05,83.38Zm2.64-4a.83.83,0,0,1-.28-1.14h0a.83.83,0,0,1,1.14-.28h0a.83.83,0,0,1,.28,1.13h0a.84.84,0,0,1-.71.41h0A.85.85,0,0,1,133.69,79.35Zm2.4-4.18a.83.83,0,0,1-.36-1.12h0a.84.84,0,0,1,1.12-.35h0a.83.83,0,0,1,.35,1.11h0a.81.81,0,0,1-.73.45h0A.85.85,0,0,1,136.09,75.17Zm2.11-4.33a.82.82,0,0,1-.43-1.08h0a.83.83,0,0,1,1.09-.44h0a.83.83,0,0,1,.43,1.09h0a.83.83,0,0,1-.76.5h0A.78.78,0,0,1,138.2,70.84Z" style="fill: #ff4257"/>
    </g>
    <g>
      <path d="M80.52,151.72a.82.82,0,0,1,.8-.85h0a.83.83,0,0,1,.86.8h0a.83.83,0,0,1-.81.85h0A.82.82,0,0,1,80.52,151.72Zm.75-4a.83.83,0,0,1-.83-.83h0a.83.83,0,0,1,.83-.83h0a.84.84,0,0,1,.83.84h0a.83.83,0,0,1-.83.82Zm.1-4.76a.83.83,0,0,1-.77-.88h0a.84.84,0,0,1,.89-.77h0a.83.83,0,0,1,.77.88h0a.83.83,0,0,1-.83.77h-.06Zm.46-4.74a.82.82,0,0,1-.68-.95h0a.83.83,0,0,1,.95-.68h0a.81.81,0,0,1,.68,1h0a.82.82,0,0,1-.81.69h-.14Zm1-4.66a.83.83,0,0,1-.55-1h0a.81.81,0,0,1,1-.56h0a.83.83,0,0,1,.56,1h0a.81.81,0,0,1-.79.59h0A1,1,0,0,1,82.78,133.6Zm1.5-4.53a.82.82,0,0,1-.47-1.07h0a.83.83,0,0,1,1.08-.47h0a.84.84,0,0,1,.46,1.08h0a.81.81,0,0,1-.77.52h0A.8.8,0,0,1,84.28,129.07Zm1.88-4.37a.82.82,0,0,1-.38-1.11h0a.82.82,0,0,1,1.11-.37h0a.83.83,0,0,1,.38,1.11h0a.84.84,0,0,1-.75.46h0A.77.77,0,0,1,86.16,124.7Z" style="fill: #ff4257"/>
      <path d="M56.68,148.09a.82.82,0,0,1-.43-1.09h0a.83.83,0,0,1,1.09-.44h0a.83.83,0,0,1,.43,1.09h0a.82.82,0,0,1-.76.5h0A1,1,0,0,1,56.68,148.09Zm2-4.38a.82.82,0,0,1-.35-1.12h0a.83.83,0,0,1,1.11-.35h0a.83.83,0,0,1,.36,1.12h0a.84.84,0,0,1-.74.44h0A.85.85,0,0,1,58.69,143.71Zm2.3-4.23a.83.83,0,0,1-.28-1.14h0a.83.83,0,0,1,1.14-.28h0a.83.83,0,0,1,.28,1.13h0a.83.83,0,0,1-.71.41h0A.85.85,0,0,1,61,139.48Zm2.56-4.08a.83.83,0,0,1-.22-1.15h0a.84.84,0,0,1,1.16-.21h0a.83.83,0,0,1,.21,1.15h0a.81.81,0,0,1-.68.36h0A.89.89,0,0,1,63.55,135.4Zm2.8-3.92a.83.83,0,0,1-.14-1.16h0a.82.82,0,0,1,1.16-.14h0a.83.83,0,0,1,.15,1.16h0a.84.84,0,0,1-.66.32h0A.81.81,0,0,1,66.35,131.48Zm3.06-3.72a.82.82,0,0,1,0-1.17h0a.81.81,0,0,1,1.16,0h0a.81.81,0,0,1,.06,1.16h0A.83.83,0,0,1,70,128h0A.86.86,0,0,1,69.41,127.76Zm3.32-3.48a.83.83,0,0,1,0-1.17h0a.82.82,0,0,1,1.17,0h0a.84.84,0,0,1,0,1.18h0a.84.84,0,0,1-.58.22h0A.85.85,0,0,1,72.73,124.28ZM76.29,121a.82.82,0,0,1,.11-1.16h0a.82.82,0,0,1,1.17.11h0a.82.82,0,0,1-.11,1.16h0a.8.8,0,0,1-.53.19h0A.83.83,0,0,1,76.29,121Zm3.78-3a.82.82,0,0,1,.18-1.15h0a.81.81,0,0,1,1.15.19h0a.81.81,0,0,1-.19,1.15h0a.82.82,0,0,1-.49.16h0A.81.81,0,0,1,80.07,118Z" style="fill: #ff4257"/>
    </g>
    <g>
      <path d="M82.14,98.2a.83.83,0,0,1-.37-1.11h0a.83.83,0,0,1,1.11-.37h0a.82.82,0,0,1,.37,1.11h0a.82.82,0,0,1-.74.46h0A.84.84,0,0,1,82.14,98.2Zm-4.28-1.91a.83.83,0,0,1-.46-1.08h0a.82.82,0,0,1,1.07-.46h0a.83.83,0,0,1,.47,1.07h0a.84.84,0,0,1-.78.53h0A.8.8,0,0,1,77.86,96.29Zm-4.43-1.54a.84.84,0,0,1-.56-1h0a.83.83,0,0,1,1-.56h0a.83.83,0,0,1,.56,1h0a.81.81,0,0,1-.79.59h0A1,1,0,0,1,73.43,94.75Zm-4.54-1a.83.83,0,0,1-.68-1h0a.83.83,0,0,1,1-.69h0a.84.84,0,0,1,.69,1h0a.84.84,0,0,1-.82.69h-.14Zm-4.65-.53a.83.83,0,0,1-.77-.88h0a.83.83,0,0,1,.88-.77h0a.82.82,0,0,1,.77.88h0a.82.82,0,0,1-.82.77h-.06ZM54,92.31a.81.81,0,0,1,.8-.85h0a.81.81,0,0,1,.85.8h0a.82.82,0,0,1-.8.85h0A.82.82,0,0,1,54,92.31Zm5.59.72a.83.83,0,0,1-.83-.83h0a.83.83,0,0,1,.83-.82h0a.83.83,0,0,1,.83.83h0a.83.83,0,0,1-.83.83h0Z" style="fill: #ff4257"/>
      <path d="M88.24,92.16A.83.83,0,0,1,88.43,91h0a.83.83,0,0,1,1.16.19h0a.84.84,0,0,1-.19,1.16h0a.88.88,0,0,1-.49.15h0A.84.84,0,0,1,88.24,92.16ZM85.33,88.4a.84.84,0,0,1,.11-1.17h0a.83.83,0,0,1,1.17.11h0a.82.82,0,0,1-.11,1.16h0a.84.84,0,0,1-.53.19h0A.84.84,0,0,1,85.33,88.4Zm-3.16-3.56a.83.83,0,0,1,0-1.17h0a.84.84,0,0,1,1.18,0h0a.83.83,0,0,1,0,1.17h0a.85.85,0,0,1-.57.23h0A.83.83,0,0,1,82.17,84.84Zm-3.4-3.32a.84.84,0,0,1-.06-1.18h0a.85.85,0,0,1,1.18,0h0a.84.84,0,0,1,0,1.17h0a.84.84,0,0,1-.62.27h0A.84.84,0,0,1,78.77,81.52Zm-3.64-3.07A.83.83,0,0,1,75,77.29h0a.82.82,0,0,1,1.16-.14h0a.83.83,0,0,1,.15,1.16h0a.84.84,0,0,1-.66.32h0A.81.81,0,0,1,75.13,78.45Zm-3.84-2.81h0a.83.83,0,0,1-.21-1.16h0a.83.83,0,0,1,1.15-.21h0a.83.83,0,0,1,.21,1.15h0a.81.81,0,0,1-.68.36h0A.89.89,0,0,1,71.29,75.64Zm-4-2.58A.83.83,0,0,1,67,71.93h0a.83.83,0,0,1,1.14-.29h0a.83.83,0,0,1,.28,1.14h0a.81.81,0,0,1-.71.4h0A.81.81,0,0,1,67.28,73.06Zm-4.16-2.32a.82.82,0,0,1-.36-1.11h0a.83.83,0,0,1,1.12-.36h0a.83.83,0,0,1,.35,1.12h0a.81.81,0,0,1-.73.44h0A.85.85,0,0,1,63.12,70.74Zm-4.3-2h0a.84.84,0,0,1-.43-1.1h0a.83.83,0,0,1,1.09-.43h0a.83.83,0,0,1,.43,1.09h0a.84.84,0,0,1-.76.5h0A.78.78,0,0,1,58.82,68.7Z" style="fill: #ff4257"/>
    </g>
    <g>
      <path d="M135.17,125.2a.83.83,0,0,1,.83-.83h0a.83.83,0,0,1,.83.83h0a.83.83,0,0,1-.83.83h0A.84.84,0,0,1,135.17,125.2Zm4.76,0a.84.84,0,0,1,.81-.86h0a.83.83,0,0,1,.85.8h0a.84.84,0,0,1-.8.86h0A.84.84,0,0,1,139.93,125.15Zm-8.74.72a.84.84,0,0,1-.78-.89h0a.84.84,0,0,1,.89-.77h0a.83.83,0,0,1,.77.88h0a.84.84,0,0,1-.83.77h-.05Zm-4.81-.55h0a.83.83,0,0,1-.69-.95h0a.83.83,0,0,1,1-.68h0a.83.83,0,0,1,.68,1h0a.84.84,0,0,1-.82.69h-.13Zm-4.74-1.07h0a.83.83,0,0,1-.56-1h0a.81.81,0,0,1,1-.56h0a.83.83,0,0,1,.56,1h0a.81.81,0,0,1-.79.59h0A.85.85,0,0,1,121.64,124.25Zm-4.57-1.59a.83.83,0,0,1-.47-1.08h0a.83.83,0,0,1,1.08-.46h0a.83.83,0,0,1,.46,1.07h0a.83.83,0,0,1-.77.53h0A.8.8,0,0,1,117.07,122.66Zm-4.41-2a.83.83,0,0,1-.38-1.11h0a.83.83,0,0,1,1.12-.37h0a.83.83,0,0,1,.38,1.11h0a.83.83,0,0,1-.75.45h0A.76.76,0,0,1,112.66,120.69Z" style="fill: #ff4257"/>
      <path d="M136.06,150.23h0a.83.83,0,0,1-.43-1.09h0a.83.83,0,0,1,1.09-.44h0a.83.83,0,0,1,.43,1.09h0a.82.82,0,0,1-.76.5h0A1,1,0,0,1,136.06,150.23Zm-4.4-2.09a.83.83,0,0,1-.36-1.12h0a.82.82,0,0,1,1.12-.35h0a.84.84,0,0,1,.36,1.12h0a.83.83,0,0,1-.74.45h0A.85.85,0,0,1,131.66,148.14Zm-4.25-2.37h0a.82.82,0,0,1-.29-1.13h0a.84.84,0,0,1,1.14-.29h0a.83.83,0,0,1,.28,1.14h0a.82.82,0,0,1-.71.4h0A.91.91,0,0,1,127.41,145.77Zm-4.1-2.63a.82.82,0,0,1-.21-1.15h0a.82.82,0,0,1,1.15-.22h0a.83.83,0,0,1,.21,1.15h0a.81.81,0,0,1-.68.36h0A.89.89,0,0,1,123.31,143.14Zm-3.93-2.88a.83.83,0,0,1-.14-1.16h0a.82.82,0,0,1,1.16-.14h0a.83.83,0,0,1,.15,1.16h0a.84.84,0,0,1-.66.32h0A.81.81,0,0,1,119.38,140.26Zm-3.73-3.14a.83.83,0,0,1-.05-1.17h0a.83.83,0,0,1,1.17-.06h0a.82.82,0,0,1,0,1.17h0a.8.8,0,0,1-.61.27h0A.85.85,0,0,1,115.65,137.12Zm-3.48-3.41h0a.83.83,0,0,1,0-1.17h0a.82.82,0,0,1,1.17,0h0a.83.83,0,0,1,0,1.17h0a.83.83,0,0,1-.57.23h0A.83.83,0,0,1,112.17,133.71Zm-3.24-3.64a.84.84,0,0,1,.11-1.17h0a.84.84,0,0,1,1.17.11h0a.84.84,0,0,1-.11,1.17h0a.82.82,0,0,1-.53.19h0A.83.83,0,0,1,108.93,130.07Zm-3-3.85a.83.83,0,0,1,.19-1.16h0a.83.83,0,0,1,1.16.19h0a.83.83,0,0,1-.19,1.15h0a.82.82,0,0,1-.49.16h0A.84.84,0,0,1,106,126.22Z" style="fill: #ff4257"/>
    </g>
    <g>
      <path d="M108.64,257.72a.83.83,0,0,1-.37-1.11h0a.83.83,0,0,1,1.11-.37h0a.82.82,0,0,1,.37,1.11h0a.82.82,0,0,1-.74.46h0A.84.84,0,0,1,108.64,257.72Zm2-4.31a.84.84,0,0,1-.47-1.08h0a.82.82,0,0,1,1.07-.46h0a.82.82,0,0,1,.46,1.07h0a.84.84,0,0,1-.78.53h0A.8.8,0,0,1,110.65,253.41Zm1.63-4.47a.85.85,0,0,1-.56-1h0a.84.84,0,0,1,1-.56h0a.83.83,0,0,1,.56,1h0a.82.82,0,0,1-.79.6h0A1,1,0,0,1,112.28,248.94Zm1.15-4.62a.84.84,0,0,1-.68-1h0a.83.83,0,0,1,1-.68h0a.83.83,0,0,1,.69.95h0a.84.84,0,0,1-.82.7h-.14Zm.62-4.73a.82.82,0,0,1-.77-.88h0a.83.83,0,0,1,.88-.77h0a.83.83,0,0,1,.77.88h0a.83.83,0,0,1-.82.78h-.06Zm-.62-5.59h0a.83.83,0,0,1,.83-.82h0a.83.83,0,0,1,.82.83h0a.83.83,0,0,1-.83.83h0A.84.84,0,0,1,113.43,234Zm-.07-4.73a.82.82,0,0,1,.8-.85h0a.83.83,0,0,1,.86.8h0a.84.84,0,0,1-.81.86h0A.83.83,0,0,1,113.36,229.27Z" style="fill: #ff4257"/>
      <path d="M114.13,263.87a.83.83,0,0,1,.18-1.16h0a.83.83,0,0,1,1.16.19h0a.83.83,0,0,1-.19,1.16h0a.85.85,0,0,1-.48.15h0A.82.82,0,0,1,114.13,263.87ZM118,261a.83.83,0,0,1,.11-1.17h0a.84.84,0,0,1,1.17.11h0a.83.83,0,0,1-.12,1.17h0a.85.85,0,0,1-.52.19h0A.85.85,0,0,1,118,261Zm3.64-3.16a.82.82,0,0,1,0-1.17h0a.82.82,0,0,1,1.17,0h0a.82.82,0,0,1,0,1.17h0a.83.83,0,0,1-.57.23h0A.8.8,0,0,1,121.61,257.81Zm3.4-3.4a.82.82,0,0,1-.05-1.17h0a.82.82,0,0,1,1.17-.05h0a.82.82,0,0,1,.05,1.17h0a.85.85,0,0,1-.61.26h0A.85.85,0,0,1,125,254.41Zm3.15-3.64a.83.83,0,0,1-.14-1.16h0a.83.83,0,0,1,1.17-.15h0a.84.84,0,0,1,.14,1.17h0a.86.86,0,0,1-.66.31h0A.8.8,0,0,1,128.16,250.77Zm2.89-3.86a.82.82,0,0,1-.21-1.15h0a.83.83,0,0,1,1.15-.22h0a.84.84,0,0,1,.21,1.16h0a.84.84,0,0,1-.68.36h0A.82.82,0,0,1,131.05,246.91Zm2.64-4a.83.83,0,0,1-.28-1.14h0a.83.83,0,0,1,1.14-.28h0a.83.83,0,0,1,.28,1.13h0a.83.83,0,0,1-.71.4h0A.84.84,0,0,1,133.69,242.89Zm2.4-4.19a.82.82,0,0,1-.36-1.11h0a.83.83,0,0,1,1.12-.36h0a.84.84,0,0,1,.35,1.12h0a.83.83,0,0,1-.73.45h0A.75.75,0,0,1,136.09,238.7Zm2.11-4.32a.83.83,0,0,1-.43-1.09h0a.83.83,0,0,1,1.09-.43h0a.83.83,0,0,1,.43,1.09h0a.83.83,0,0,1-.76.5h0A.78.78,0,0,1,138.2,234.38Z" style="fill: #ff4257"/>
    </g>
    <g>
      <path d="M80.52,315.26a.83.83,0,0,1,.8-.86h0a.84.84,0,0,1,.86.81h0a.83.83,0,0,1-.81.85h0A.83.83,0,0,1,80.52,315.26Zm.75-4a.83.83,0,0,1-.83-.83h0a.83.83,0,0,1,.83-.83h0a.83.83,0,0,1,.83.83h0a.83.83,0,0,1-.83.83Zm.1-4.76a.84.84,0,0,1-.77-.89h0a.83.83,0,0,1,.89-.76h0a.82.82,0,0,1,.77.88h0a.84.84,0,0,1-.83.77h-.06Zm.46-4.74a.83.83,0,0,1-.68-.95h0a.83.83,0,0,1,.95-.69h0a.82.82,0,0,1,.68.95h0a.82.82,0,0,1-.81.7h-.14Zm1-4.67a.83.83,0,0,1-.55-1h0a.81.81,0,0,1,1-.56h0a.83.83,0,0,1,.56,1h0a.82.82,0,0,1-.79.6h0A.67.67,0,0,1,82.78,297.13Zm1.5-4.52a.84.84,0,0,1-.47-1.08h0a.84.84,0,0,1,1.08-.46h0a.83.83,0,0,1,.46,1.08h0a.82.82,0,0,1-.77.52h0A.8.8,0,0,1,84.28,292.61Zm1.88-4.37a.83.83,0,0,1-.38-1.11h0a.82.82,0,0,1,1.11-.37h0a.82.82,0,0,1,.38,1.1h0a.82.82,0,0,1-.75.46h0A.76.76,0,0,1,86.16,288.24Z" style="fill: #ff4257"/>
      <path d="M56.68,311.62a.82.82,0,0,1-.43-1.09h0a.83.83,0,0,1,1.09-.43h0a.83.83,0,0,1,.43,1.09h0a.84.84,0,0,1-.76.5h0A.78.78,0,0,1,56.68,311.62Zm2-4.37a.82.82,0,0,1-.35-1.12h0a.82.82,0,0,1,1.11-.36h0a.83.83,0,0,1,.36,1.12h0a.83.83,0,0,1-.74.45h0A.85.85,0,0,1,58.69,307.25ZM61,303a.82.82,0,0,1-.28-1.13h0a.84.84,0,0,1,1.14-.28h0a.84.84,0,0,1,.28,1.14h0a.82.82,0,0,1-.71.4h0A.85.85,0,0,1,61,303Zm2.56-4.08a.83.83,0,0,1-.22-1.15h0a.84.84,0,0,1,1.16-.22h0a.84.84,0,0,1,.21,1.16h0a.84.84,0,0,1-.68.36h0A.82.82,0,0,1,63.55,298.93Zm2.8-3.91a.84.84,0,0,1-.14-1.17h0a.83.83,0,0,1,1.16-.14h0a.83.83,0,0,1,.15,1.16h0a.84.84,0,0,1-.66.32h0A.87.87,0,0,1,66.35,295Zm3.06-3.73a.82.82,0,0,1,0-1.17h0a.81.81,0,0,1,1.16-.05h0a.83.83,0,0,1,.06,1.17h0a.82.82,0,0,1-.61.27h0A.81.81,0,0,1,69.41,291.29Zm3.32-3.48a.83.83,0,0,1,0-1.17h0a.82.82,0,0,1,1.17,0h0a.82.82,0,0,1,0,1.17h0a.87.87,0,0,1-.58.23h0A.84.84,0,0,1,72.73,287.81Zm3.56-3.24a.84.84,0,0,1,.11-1.17h0a.84.84,0,0,1,1.17.11h0a.84.84,0,0,1-.11,1.17h0a.8.8,0,0,1-.53.19h0A.83.83,0,0,1,76.29,284.57Zm3.78-3a.83.83,0,0,1,.18-1.16h0a.83.83,0,0,1,1.16.19h0a.83.83,0,0,1-.18,1.16h0a.88.88,0,0,1-.49.15h0A.82.82,0,0,1,80.07,281.58Z" style="fill: #ff4257"/>
    </g>
    <g>
      <path d="M82.14,261.74h0a.83.83,0,0,1-.37-1.12h0a.84.84,0,0,1,1.11-.37h0a.83.83,0,0,1,.37,1.12h0a.82.82,0,0,1-.74.45h0A.83.83,0,0,1,82.14,261.74Zm-4.28-1.92h0a.84.84,0,0,1-.46-1.08h0a.82.82,0,0,1,1.07-.47h0a.84.84,0,0,1,.47,1.08h0a.83.83,0,0,1-.77.52h0A.81.81,0,0,1,77.86,259.82Zm-4.43-1.54a.83.83,0,0,1-.56-1h0a.83.83,0,0,1,1-.57h0a.82.82,0,0,1,.56,1h0a.83.83,0,0,1-.79.59h0A.67.67,0,0,1,73.43,258.28Zm-4.54-1a.83.83,0,0,1-.68-.95h0a.83.83,0,0,1,1-.69h0a.83.83,0,0,1,.69.95h0a.84.84,0,0,1-.82.7h-.14Zm-4.65-.53a.83.83,0,0,1-.77-.88h0a.82.82,0,0,1,.88-.77h0a.82.82,0,0,1,.77.88h0a.82.82,0,0,1-.82.77h-.06ZM54,255.84a.82.82,0,0,1,.8-.85h0a.83.83,0,0,1,.86.8h0a.84.84,0,0,1-.81.86h0A.83.83,0,0,1,54,255.84Zm5.59.73a.83.83,0,0,1-.83-.83h0a.83.83,0,0,1,.83-.83h0a.84.84,0,0,1,.83.84h0a.83.83,0,0,1-.83.82Z" style="fill: #ff4257"/>
      <path d="M88.24,255.69a.82.82,0,0,1,.19-1.15h0a.82.82,0,0,1,1.16.19h0a.83.83,0,0,1-.19,1.15h0a.82.82,0,0,1-.49.16h0A.82.82,0,0,1,88.24,255.69Zm-2.91-3.76a.84.84,0,0,1,.11-1.17h0a.84.84,0,0,1,1.17.11h0A.84.84,0,0,1,86.5,252h0a.84.84,0,0,1-.53.19h0A.81.81,0,0,1,85.33,251.93Zm-3.16-3.55h0a.82.82,0,0,1,0-1.17h0a.84.84,0,0,1,1.18,0h0a.83.83,0,0,1,0,1.17h0a.8.8,0,0,1-.57.23h0A.82.82,0,0,1,82.17,248.38Zm-3.4-3.33a.83.83,0,0,1-.06-1.17h0a.84.84,0,0,1,1.18,0h0a.84.84,0,0,1,0,1.17h0a.84.84,0,0,1-.61.27h0A.86.86,0,0,1,78.77,245.05ZM75.13,242a.84.84,0,0,1-.14-1.17h0a.83.83,0,0,1,1.16-.14h0a.84.84,0,0,1,.15,1.17h0a.86.86,0,0,1-.66.31h0A.8.8,0,0,1,75.13,242Zm-3.84-2.82a.82.82,0,0,1-.21-1.15h0a.82.82,0,0,1,1.15-.21h0a.83.83,0,0,1,.21,1.15h0a.84.84,0,0,1-.68.36h0A.82.82,0,0,1,71.29,239.17Zm-4-2.57a.84.84,0,0,1-.29-1.14h0a.83.83,0,0,1,1.14-.28h0a.83.83,0,0,1,.29,1.13h0a.84.84,0,0,1-.72.41h0A.81.81,0,0,1,67.28,236.6Zm-4.16-2.32a.84.84,0,0,1-.36-1.12h0a.82.82,0,0,1,1.12-.35h0a.83.83,0,0,1,.35,1.12h0a.8.8,0,0,1-.73.45h0A.85.85,0,0,1,63.12,234.28Zm-4.3-2h0a.83.83,0,0,1-.43-1.09h0a.82.82,0,0,1,1.09-.43h0a.83.83,0,0,1,.43,1.09h0a.83.83,0,0,1-.76.5h0A.78.78,0,0,1,58.82,232.24Z" style="fill: #ff4257"/>
    </g>
    <g>
      <path d="M135.17,288.73a.83.83,0,0,1,.83-.83h0a.84.84,0,0,1,.83.84h0a.83.83,0,0,1-.83.82h0A.83.83,0,0,1,135.17,288.73Zm4.76-.05a.83.83,0,0,1,.81-.85h0a.82.82,0,0,1,.86.8h0a.83.83,0,0,1-.8.85h0A.83.83,0,0,1,139.93,288.68Zm-8.74.72a.83.83,0,0,1-.78-.88h0a.83.83,0,0,1,.89-.77h0a.83.83,0,0,1,.77.88h0a.83.83,0,0,1-.83.77h-.05Zm-4.81-.54h0a.84.84,0,0,1-.69-1h0a.84.84,0,0,1,1-.68h0a.83.83,0,0,1,.68.95h0a.84.84,0,0,1-.82.7h-.13Zm-4.74-1.08h0a.83.83,0,0,1-.56-1h0a.82.82,0,0,1,1-.55h0a.83.83,0,0,1,.56,1h0a.81.81,0,0,1-.79.59h0A.59.59,0,0,1,121.64,287.78Zm-4.57-1.59h0a.83.83,0,0,1-.47-1.08h0a.82.82,0,0,1,1.08-.46h0a.82.82,0,0,1,.46,1.07h0a.82.82,0,0,1-.77.52h0A.8.8,0,0,1,117.07,286.19Zm-4.41-2h0a.83.83,0,0,1-.37-1.12h0a.83.83,0,0,1,1.11-.37h0a.84.84,0,0,1,.37,1.11h0a.84.84,0,0,1-.75.46h0A.9.9,0,0,1,112.66,284.23Z" style="fill: #ff4257"/>
      <path d="M136.06,313.76h0a.83.83,0,0,1-.43-1.09h0a.83.83,0,0,1,1.09-.43h0a.83.83,0,0,1,.43,1.09h0a.84.84,0,0,1-.76.5h0A.78.78,0,0,1,136.06,313.76Zm-4.4-2.09a.82.82,0,0,1-.36-1.11h0a.83.83,0,0,1,1.12-.36h0a.84.84,0,0,1,.36,1.12h0a.85.85,0,0,1-.74.45h0A.75.75,0,0,1,131.66,311.67Zm-4.25-2.37a.83.83,0,0,1-.29-1.14h0a.83.83,0,0,1,1.14-.28h0a.83.83,0,0,1,.28,1.14h0a.84.84,0,0,1-.71.4h0A.81.81,0,0,1,127.41,309.3Zm-4.1-2.63a.82.82,0,0,1-.21-1.15h0a.82.82,0,0,1,1.15-.21h0a.82.82,0,0,1,.21,1.15h0a.84.84,0,0,1-.68.36h0A.82.82,0,0,1,123.31,306.67Zm-3.93-2.87a.84.84,0,0,1-.14-1.17h0a.83.83,0,0,1,1.16-.14h0a.84.84,0,0,1,.15,1.17h0a.86.86,0,0,1-.66.31h0A.8.8,0,0,1,119.38,303.8Zm-3.73-3.15a.82.82,0,0,1-.05-1.17h0a.83.83,0,0,1,1.17-.05h0a.82.82,0,0,1,0,1.17h0a.8.8,0,0,1-.61.27h0A.81.81,0,0,1,115.65,300.65Zm-3.48-3.4a.83.83,0,0,1,0-1.17h0a.82.82,0,0,1,1.17,0h0a.82.82,0,0,1,0,1.17h0a.78.78,0,0,1-.57.23h0A.82.82,0,0,1,112.17,297.25Zm-3.24-3.64h0a.84.84,0,0,1,.11-1.17h0a.84.84,0,0,1,1.17.11h0a.84.84,0,0,1-.11,1.17h0a.87.87,0,0,1-.53.18h0A.85.85,0,0,1,108.93,293.61Zm-3-3.86h0a.83.83,0,0,1,.19-1.15h0a.83.83,0,0,1,1.16.18h0a.84.84,0,0,1-.19,1.16h0a.82.82,0,0,1-.49.16h0A.82.82,0,0,1,106,289.75Z" style="fill: #ff4257"/>
    </g>
    <path d="M41.94,7.09h3a2.13,2.13,0,0,1,1.53.64,2.33,2.33,0,0,1,.62,1.59,3,3,0,0,1-.11.8,2.12,2.12,0,0,1,.39.34h0a2.44,2.44,0,0,1,.81,1.8,2.63,2.63,0,0,1-.8,1.89,2.73,2.73,0,0,1-1.93.82H41.94Zm3,2.57c.14,0,.25-.21.25-.34S45.05,9,44.91,9H43.84v.68Zm.5,3.41a.83.83,0,0,0,.83-.82c0-.44-.38-.69-.83-.71H43.84v1.53Z" style="fill: #1d1d1b"/>
    <path d="M52.74,7.09h1.91v6h3.74V15H52.74Z" style="fill: #1d1d1b"/>
    <path d="M67.35,13.17H65.14L64.44,15h-2l3-7.87h1.61l3,7.87H68Zm-1.11-3-.37,1.15h.74Z" style="fill: #1d1d1b"/>
    <path d="M79.75,12.06l1.51,1.12a4.16,4.16,0,0,1-3.42,1.89,4.1,4.1,0,1,1,0-8.19A4.26,4.26,0,0,1,81.31,8.8L79.77,9.93a2.38,2.38,0,0,0-1.93-1.16,2.2,2.2,0,0,0,0,4.4A2.31,2.31,0,0,0,79.75,12.06Z" style="fill: #1d1d1b"/>
    <path d="M88.55,11.27c-.26.24-.54.52-.86.81V15h-1.9V7.09h1.9v2.4l2.55-2.4H93L90,9.94l3.58,5H91.18Z" style="fill: #1d1d1b"/>
    <path d="M108.25,11.61h-2.44V15h-1.92V7.09h1.92V9.72h2.44V7.09h1.92V15h-1.92Z" style="fill: #1d1d1b"/>
    <path d="M122.87,11a4.09,4.09,0,1,1-4.1-4.1A4.11,4.11,0,0,1,122.87,11Zm-1.93,0a2.17,2.17,0,1,0-2.17,2.18A2.19,2.19,0,0,0,120.94,11Z" style="fill: #1d1d1b"/>
    <path d="M127.5,7.09h1.91v6h3.73V15H127.5Z" style="fill: #1d1d1b"/>
    <path d="M137.85,7.09h5.36V9h-3.44v.67h3v1.91h-3v1.51h3.36V15h-5.28Z" style="fill: #1d1d1b"/>
    <path d="M150.12,14.93a5.32,5.32,0,0,1-2.46-1.33l1.26-1.45a3.22,3.22,0,0,0,1.59.93,2,2,0,0,0,.42.05,1.23,1.23,0,0,0,.57-.12.57.57,0,0,0,.37-.51c0-.31-.58-.49-1.08-.59a8.1,8.1,0,0,1-1.74-.54,2.19,2.19,0,0,1-1.14-2,2.32,2.32,0,0,1,.41-1.28,2.58,2.58,0,0,1,1-.82h0a3.15,3.15,0,0,1,1.34-.3,4.27,4.27,0,0,1,.59.05,4.55,4.55,0,0,1,2.26,1.16l-1.21,1.46a2.44,2.44,0,0,0-1.66-.78,1.24,1.24,0,0,0-.51.11.47.47,0,0,0-.32.39c0,.3.4.44,1,.57a1.42,1.42,0,0,0,.22,0,6,6,0,0,1,1.49.47h0a2.21,2.21,0,0,1,1.22,2,2.35,2.35,0,0,1-.42,1.38,2.72,2.72,0,0,1-1.05.84,2.8,2.8,0,0,1-1.39.3A3.44,3.44,0,0,1,150.12,14.93Z" style="fill: #1d1d1b"/>
    <path d="M53.35,25c0,1.45-.56,2.33-2.15,2.33-1,0-1.92-.43-2-1.46h.6a1.26,1.26,0,0,0,1.41,1c1.09,0,1.56-.64,1.56-1.83v-.65h0a1.67,1.67,0,0,1-1.54,1c-1.55,0-2.18-1.11-2.18-2.48a2.21,2.21,0,0,1,2.18-2.44,1.7,1.7,0,0,1,1.54,1h0v-.83h.59ZM52.76,23c0-.95-.44-2-1.56-2s-1.59,1-1.59,2,.5,1.93,1.59,1.93S52.76,23.94,52.76,23Z" style="fill: #1d1d1b"/>
    <path d="M54.48,20.59H55v1.13h0a1.79,1.79,0,0,1,1.83-1.2v.59a1.67,1.67,0,0,0-1.8,1.74v2.58h-.59Z" style="fill: #1d1d1b"/>
    <path d="M57.38,22.07c.06-1.14.85-1.62,2-1.62.86,0,1.78.26,1.78,1.55v2.58a.32.32,0,0,0,.35.35.53.53,0,0,0,.19,0v.5a1.56,1.56,0,0,1-.39,0c-.6,0-.69-.34-.69-.85h0a1.84,1.84,0,0,1-1.76,1c-.89,0-1.63-.44-1.63-1.42,0-1.36,1.33-1.4,2.6-1.56.49-.05.76-.12.76-.65,0-.8-.57-1-1.26-1S58,21.28,58,22.07Zm3.15.71h0c-.07.14-.33.19-.49.22-1,.18-2.26.17-2.26,1.12a1,1,0,0,0,1.08.95,1.56,1.56,0,0,0,1.69-1.52Z" style="fill: #1d1d1b"/>
    <path d="M61.76,20.59h.66l1.52,4.25h0l1.5-4.25h.61l-1.81,4.84h-.63Z" style="fill: #1d1d1b"/>
    <path d="M66.67,18.73h.59v.95h-.59Zm0,1.86h.59v4.84h-.59Z" style="fill: #1d1d1b"/>
    <path d="M69.33,20.59h1v.49h-1v3.27c0,.38.06.61.48.64a4.36,4.36,0,0,0,.51,0v.51l-.53,0c-.79,0-1.06-.27-1.05-1.09V21.08H67.9v-.49h.84V19.13h.59Z" style="fill: #1d1d1b"/>
    <path d="M71.12,22.07c0-1.14.85-1.62,2-1.62.85,0,1.78.26,1.78,1.55v2.58a.31.31,0,0,0,.35.35.58.58,0,0,0,.19,0v.5a1.61,1.61,0,0,1-.39,0c-.6,0-.69-.34-.69-.85h0a1.86,1.86,0,0,1-1.77,1c-.89,0-1.62-.44-1.62-1.42,0-1.36,1.32-1.4,2.6-1.56.49-.05.76-.12.76-.65,0-.8-.57-1-1.27-1s-1.27.34-1.29,1.13Zm3.15.71h0c-.07.14-.34.19-.5.22-1,.18-2.25.17-2.25,1.12a1,1,0,0,0,1.08.95,1.56,1.56,0,0,0,1.69-1.52Z" style="fill: #1d1d1b"/>
    <path d="M77,20.59h1v.49H77v3.27c0,.38.06.61.48.64A4.36,4.36,0,0,0,78,25v.51l-.53,0c-.78,0-1.06-.27-1-1.09V21.08h-.84v-.49h.84V19.13H77Z" style="fill: #1d1d1b"/>
    <path d="M78.83,18.73h.6v.95h-.6Zm0,1.86h.6v4.84h-.6Z" style="fill: #1d1d1b"/>
    <path d="M84.9,23a2.3,2.3,0,1,1-4.58,0,2.3,2.3,0,1,1,4.58,0Zm-4,0a1.73,1.73,0,1,0,3.4,0,1.73,1.73,0,1,0-3.4,0Z" style="fill: #1d1d1b"/>
    <path d="M85.77,20.59h.59v.83h0a1.65,1.65,0,0,1,1.55-1c1.36,0,1.77.71,1.77,1.86v3.12h-.59v-3c0-.84-.27-1.47-1.23-1.47a1.54,1.54,0,0,0-1.52,1.66v2.83h-.59Z" style="fill: #1d1d1b"/>
    <path d="M90.77,22.07c0-1.14.85-1.62,2-1.62.85,0,1.78.26,1.78,1.55v2.58a.31.31,0,0,0,.35.35.58.58,0,0,0,.19,0v.5a1.56,1.56,0,0,1-.39,0c-.6,0-.69-.34-.69-.85h0a1.85,1.85,0,0,1-1.77,1c-.89,0-1.62-.44-1.62-1.42,0-1.36,1.32-1.4,2.6-1.56.49-.05.76-.12.76-.65,0-.8-.57-1-1.27-1s-1.27.34-1.29,1.13Zm3.15.71h0c-.07.14-.34.19-.5.22-1,.18-2.25.17-2.25,1.12a1,1,0,0,0,1.08.95,1.56,1.56,0,0,0,1.69-1.52Z" style="fill: #1d1d1b"/>
    <path d="M95.71,18.73h.59v6.7h-.59Z" style="fill: #1d1d1b"/>
    <path d="M100,22.07c.05-1.14.85-1.62,2-1.62.85,0,1.78.26,1.78,1.55v2.58a.31.31,0,0,0,.35.35.53.53,0,0,0,.19,0v.5a1.56,1.56,0,0,1-.39,0c-.6,0-.69-.34-.69-.85h0a1.85,1.85,0,0,1-1.76,1c-.9,0-1.63-.44-1.63-1.42,0-1.36,1.32-1.4,2.6-1.56.49-.05.76-.12.76-.65,0-.8-.57-1-1.27-1s-1.27.34-1.29,1.13Zm3.15.71h0c-.07.14-.33.19-.49.22-1,.18-2.26.17-2.26,1.12a1,1,0,0,0,1.08.95,1.56,1.56,0,0,0,1.69-1.52Z" style="fill: #1d1d1b"/>
    <path d="M105.86,20.59h1v.49h-1v3.27c0,.38,0,.61.47.64a4.36,4.36,0,0,0,.51,0v.51l-.52,0c-.79,0-1.06-.27-1.06-1.09V21.08h-.84v-.49h.84V19.13h.6Z" style="fill: #1d1d1b"/>
    <path d="M108.63,20.59h1v.49h-1v3.27c0,.38.06.61.48.64a4.36,4.36,0,0,0,.51,0v.51l-.53,0c-.78,0-1-.27-1-1.09V21.08h-.84v-.49H108V19.13h.59Z" style="fill: #1d1d1b"/>
    <path d="M110.82,23.17a1.72,1.72,0,0,0,1.6,1.9,1.47,1.47,0,0,0,1.52-1.24h.59a2,2,0,0,1-2.11,1.74c-1.54,0-2.19-1.18-2.19-2.56s.65-2.56,2.19-2.56,2.18,1.36,2.13,2.72Zm3.14-.5a1.63,1.63,0,0,0-1.54-1.73,1.73,1.73,0,0,0-1.6,1.73Z" style="fill: #1d1d1b"/>
    <path d="M115.34,20.59h.59v.83h0a1.64,1.64,0,0,1,1.55-1c1.36,0,1.77.71,1.77,1.86v3.12h-.59v-3c0-.84-.27-1.47-1.23-1.47a1.53,1.53,0,0,0-1.52,1.66v2.83h-.59Z" style="fill: #1d1d1b"/>
    <path d="M124.31,25.43h-.54v-.87h0a1.81,1.81,0,0,1-1.67,1c-1.22,0-1.7-.71-1.7-1.84V20.59H121v3.15c0,.87.36,1.33,1.3,1.33s1.45-.95,1.45-1.94V20.59h.59Z" style="fill: #1d1d1b"/>
    <path d="M125.43,20.59H126v.81h0a1.68,1.68,0,0,1,1.58-.95,1.35,1.35,0,0,1,1.39.94,1.64,1.64,0,0,1,1.54-.94c1.06,0,1.6.55,1.6,1.69v3.29h-.59V22.17c0-.79-.3-1.23-1.14-1.23-1,0-1.32.85-1.32,1.75v2.74h-.59V22.14c0-.65-.26-1.2-1-1.2-1,0-1.44.77-1.45,1.79v2.7h-.59Z" style="fill: #1d1d1b"/>
    <path d="M133.26,18.73h.59v.95h-.59Zm0,1.86h.59v4.84h-.59Z" style="fill: #1d1d1b"/>
    <path d="M136.31,22.91l-1.73-2.32h.74l1.38,1.84,1.35-1.84h.74l-1.74,2.31,1.88,2.53h-.75l-1.52-2-1.49,2h-.73Z" style="fill: #1d1d1b"/>
    <path d="M139.85,23.17a1.72,1.72,0,0,0,1.6,1.9A1.47,1.47,0,0,0,143,23.83h.59a2,2,0,0,1-2.11,1.74c-1.54,0-2.19-1.18-2.19-2.56s.65-2.56,2.19-2.56,2.18,1.36,2.13,2.72Zm3.14-.5a1.63,1.63,0,0,0-1.54-1.73,1.73,1.73,0,0,0-1.6,1.73Z" style="fill: #1d1d1b"/>
    <path d="M144.38,20.59h.54v1.13h0a1.79,1.79,0,0,1,1.83-1.2v.59a1.67,1.67,0,0,0-1.8,1.74v2.58h-.59Z" style="fill: #1d1d1b"/>
    <path d="M32.24,153.49a2.82,2.82,0,0,1,1.36.41l.13.08-.42.69-.13-.08a1.92,1.92,0,0,0-1-.3h0a1.23,1.23,0,0,0-.27,0,1.13,1.13,0,0,0-.39.15.49.49,0,0,0-.23.5.37.37,0,0,0,.26.28,1.78,1.78,0,0,0,.59.08,4.72,4.72,0,0,1,1,.12,1.29,1.29,0,0,1,.5.35,1.08,1.08,0,0,1,.26.55,1.24,1.24,0,0,1-.09.7,1.55,1.55,0,0,1-.45.51,1.78,1.78,0,0,1-.69.29l-.32,0a2.42,2.42,0,0,1-1.22-.34l-.13-.07.4-.71.13.08a1.53,1.53,0,0,0,1,.21.78.78,0,0,0,.35-.14.42.42,0,0,0,.21-.41.31.31,0,0,0-.21-.27,1.88,1.88,0,0,0-.6-.09H32.2a2.54,2.54,0,0,1-.86-.11,1.21,1.21,0,0,1-.55-.35,1,1,0,0,1-.26-.56,1.19,1.19,0,0,1,.08-.75,1.6,1.6,0,0,1,.48-.54,1.48,1.48,0,0,1,.71-.29A2.94,2.94,0,0,1,32.24,153.49Z" style="fill: #1d1d1b"/>
    <path d="M28.17,154.59l1.92,3.87-1.38.69a1.11,1.11,0,1,1-1-2l.66-.33L27.45,155Zm-.09,3.29a.3.3,0,0,0-.14.41.31.31,0,0,0,.41.14l.66-.32-.27-.56Z" style="fill: #1d1d1b"/>
    <path d="M22.21,158.61l1.1.57,1.08-1L24,157.06l.65-.58,1.63,4.35-.55.48-4.13-2.12Zm1.87,1,1,.52-.4-1.05Z" style="fill: #1d1d1b"/>
    <path d="M22.29,161.68a2.26,2.26,0,0,1,.84,3.08,2.21,2.21,0,0,1-.58.67,2.25,2.25,0,0,1-.79.39l-.16,0-.16-.78.14,0a1.37,1.37,0,0,0,.85-.68,1.45,1.45,0,0,0-.54-2,1.47,1.47,0,0,0-2,.54,1.48,1.48,0,0,0-.13,1.15l.78.44.59-1,.7.4-1,1.72-1.73-1,0-.05a2.31,2.31,0,0,1,.1-2A2.27,2.27,0,0,1,22.29,161.68Z" style="fill: #1d1d1b"/>
    <path d="M17.07,169.15l2.06.36.31-1.72-2.06-.37.14-.8,4.25.76-.14.8-1.41-.25-.31,1.72,1.41.26-.14.8L16.93,170Z" style="fill: #1d1d1b"/>
    <path d="M16.93,172.51l4.29-.54.35,2.83-.78.09-.25-2-.64.08.22,1.75-.79.11-.23-1.76-1.27.16.25,2-.8.1Z" style="fill: #1d1d1b"/>
    <path d="M18.27,178.31l3.23-1.39-.42-1,.74-.32,1.16,2.7-.73.32-.42-1-3.24,1.4Z" style="fill: #1d1d1b"/>
    <path d="M20.72,182.58l2.74-2.21-.67-.82.62-.51,1.84,2.29-.62.5L24,181l-2.73,2.2Z" style="fill: #1d1d1b"/>
    <path d="M23.62,185.58l2.67-3.4.64.5-2.67,3.4Z" style="fill: #1d1d1b"/>
    <path d="M26.37,187.48l1.82-3.92,2.59,1.19-.34.73-1.85-.86-.27.58,1,.47-.33.73-1-.47-.88,1.9Z" style="fill: #1d1d1b"/>
    <path d="M31.07,189.24,32,185l.8.16-.88,4.24Z" style="fill: #1d1d1b"/>
    <path d="M35.48,189.6a2.26,2.26,0,0,1-.74-.45,2,2,0,0,1-.52-.69,2,2,0,0,1-.23-.87,2.25,2.25,0,0,1,3.16-2.19A2.11,2.11,0,0,1,38,186l.1.12-.62.51-.1-.12a1.42,1.42,0,0,0-1.19-.51,1.46,1.46,0,0,0-1.38,1.53,1.48,1.48,0,0,0,1.54,1.38,1.45,1.45,0,0,0,1.13-.65l.08-.12.67.44-.09.12a2.24,2.24,0,0,1-.75.72,2.36,2.36,0,0,1-1,.29A2.47,2.47,0,0,1,35.48,189.6Z" style="fill: #1d1d1b"/>
    <path d="M43.25,187.85l-.85-.9-1.33.55,0,1.25-.81.33-.12-4.63.68-.28,3.2,3.35Zm-1.45-1.52-.78-.82,0,1.13Z" style="fill: #1d1d1b"/>
    <path d="M46.1,186.06l-2.18-2.77-.83.66-.5-.63,2.31-1.82.5.63-.84.66,2.18,2.77Z" style="fill: #1d1d1b"/>
    <path d="M49.09,183.24l-3.36-2.72.52-.64,3.36,2.73Z" style="fill: #1d1d1b"/>
    <path d="M49,179.9a2.27,2.27,0,0,1-1.18-3,2.25,2.25,0,1,1,1.18,3Zm.33-.75a1.44,1.44,0,1,0-.77-1.9A1.45,1.45,0,0,0,49.33,179.15Z" style="fill: #1d1d1b"/>
    <path d="M53.42,171.37l-2.92,1.79,2.83.13,0,.82L49,173.9l0-.79,2.92-1.78-2.83-.13,0-.82,4.32.21Z" style="fill: #1d1d1b"/>
    <circle cx="80.57" cy="177.14" r="3.73" style="fill: #252626"/>
    <path d="M82.76,176.59H81.12V175a.54.54,0,0,0-.55-.55A.55.55,0,0,0,80,175v1.64H78.38a.55.55,0,0,0-.55.55.54.54,0,0,0,.55.55H80v1.64a.55.55,0,0,0,.55.55.54.54,0,0,0,.55-.55v-1.64h1.64a.55.55,0,0,0,.56-.55A.56.56,0,0,0,82.76,176.59Z" style="fill: #e6e5e5"/>
    <circle cx="115.07" cy="177.14" r="3.73" style="fill: #252626"/>
    <path d="M117.26,177.69h-4.38a.55.55,0,0,1-.56-.55.56.56,0,0,1,.56-.55h4.38a.55.55,0,0,1,.55.55A.55.55,0,0,1,117.26,177.69Z" style="fill: #e6e5e5"/>
    <circle cx="115.07" cy="40.27" r="3.73" style="fill: #252626"/>
    <path d="M117.26,39.71h-1.64V38.08a.56.56,0,1,0-1.11,0v1.63h-1.63a.56.56,0,1,0,0,1.11h1.63v1.64a.56.56,0,0,0,1.11,0V40.82h1.64a.56.56,0,0,0,0-1.11Z" style="fill: #e6e5e5"/>
    <circle cx="80.57" cy="40.27" r="3.73" style="fill: #252626"/>
    <path d="M82.76,40.82H78.38a.56.56,0,0,1,0-1.11h4.38a.56.56,0,1,1,0,1.11Z" style="fill: #e6e5e5"/>
    <circle cx="29.38" cy="91.46" r="3.73" style="fill: #252626"/>
    <path d="M31.57,90.9H29.94V89.26a.56.56,0,0,0-1.11,0V90.9H27.19a.56.56,0,0,0,0,1.11h1.64v1.64a.56.56,0,0,0,1.11,0V92h1.63a.56.56,0,1,0,0-1.11Z" style="fill: #e6e5e5"/>
    <circle cx="29.38" cy="125.95" r="3.73" style="fill: #252626"/>
    <path d="M29.38,128.7a.56.56,0,0,1-.55-.56v-4.38a.56.56,0,0,1,1.11,0v4.38A.56.56,0,0,1,29.38,128.7Z" style="fill: #e6e5e5"/>
    <circle cx="166.25" cy="125.95" r="3.73" style="fill: #252626"/>
    <path d="M168.45,125.4h-1.64v-1.64a.56.56,0,0,0-1.11,0v1.64h-1.64a.55.55,0,0,0-.55.55.55.55,0,0,0,.55.55h1.64v1.64a.56.56,0,1,0,1.11,0V126.5h1.64A.55.55,0,0,0,169,126,.55.55,0,0,0,168.45,125.4Z" style="fill: #e6e5e5"/>
    <circle cx="166.25" cy="91.46" r="3.73" style="fill: #252626"/>
    <path d="M166.25,94.2a.55.55,0,0,1-.55-.55V89.26a.56.56,0,0,1,1.11,0v4.39A.56.56,0,0,1,166.25,94.2Z" style="fill: #e6e5e5"/>
    <circle cx="97.5" cy="108.5" r="14.87" style="fill: #252626"/>
    <circle cx="97.5" cy="272.5" r="14.87" style="fill: #252626"/>
    <path d="M146,207.91a2.79,2.79,0,0,1-.8,1.18l-.12.1-.53-.61.11-.1a2,2,0,0,0,.59-.83h0a1.31,1.31,0,0,0,.06-.27.92.92,0,0,0,0-.41.48.48,0,0,0-.4-.38.37.37,0,0,0-.34.17,1.54,1.54,0,0,0-.26.53,4.56,4.56,0,0,1-.43.93,1.23,1.23,0,0,1-.48.38,1.11,1.11,0,0,1-.6.07,1.24,1.24,0,0,1-.64-.29,1.41,1.41,0,0,1-.35-.59,1.66,1.66,0,0,1-.07-.74c0-.1,0-.21.07-.31a2.41,2.41,0,0,1,.69-1.06l.11-.11.56.6-.12.1a1.53,1.53,0,0,0-.51.89.84.84,0,0,0,0,.39.42.42,0,0,0,.33.32.34.34,0,0,0,.32-.12,1.76,1.76,0,0,0,.27-.54,1.12,1.12,0,0,1,.05-.13,2.68,2.68,0,0,1,.36-.79,1.21,1.21,0,0,1,.5-.41,1.09,1.09,0,0,1,.62-.09,1.23,1.23,0,0,1,.69.32,1.51,1.51,0,0,1,.37.61,1.61,1.61,0,0,1,.06.77A2.17,2.17,0,0,1,146,207.91Z" style="fill: #1d1d1b"/>
    <path d="M146.54,205.09l-4-1.65.59-1.43a1.09,1.09,0,0,1,.6-.61,1.14,1.14,0,0,1,.85,0,1.11,1.11,0,0,1,.6,1.45l-.29.69,2,.8Zm-2.1-2.54a.31.31,0,0,0-.17-.4.32.32,0,0,0-.41.16l-.28.69.58.23Z" style="fill: #1d1d1b"/>
    <path d="M149.49,199.88l-1.2-.35-.86,1.15.66,1.06-.52.69-2.46-3.92.44-.59,4.46,1.26Zm-2-.58-1.08-.3.6.95Z" style="fill: #1d1d1b"/>
    <path d="M148.9,197.21a2.27,2.27,0,0,1,.51-3.16,2.21,2.21,0,0,1,.81-.37,2.37,2.37,0,0,1,.88,0l.16,0-.18.78-.14,0a1.41,1.41,0,0,0-1.06.27,1.44,1.44,0,0,0-.33,2,1.45,1.45,0,0,0,2.63-.65l-.52-.73-1,.69-.48-.65,1.61-1.16,1.17,1.61v0a2.26,2.26,0,0,1-4.09,1.32Z" style="fill: #1d1d1b"/>
    <path d="M156.89,195.41l-.63-2-1.67.53.63,2-.78.24-1.3-4.13.78-.24.43,1.37,1.67-.53-.43-1.37.78-.24,1.3,4.12Z" style="fill: #1d1d1b"/>
    <path d="M158.8,195.05l-.1-4.33,2.85-.06,0,.79-2,.05,0,.63,1.77,0,0,.81-1.78,0,0,1.29,2,0,0,.8Z" style="fill: #1d1d1b"/>
    <path d="M163.4,195.33l.82-3.43-1-.25.19-.78,2.85.69-.19.78-1-.25-.82,3.43Z" style="fill: #1d1d1b"/>
    <path d="M166.88,196.55l1.67-3.1-.94-.5.38-.71,2.59,1.39-.38.71-.94-.5-1.67,3.1Z" style="fill: #1d1d1b"/>
    <path d="M169.44,198.21l2.81-3.29.62.53-2.81,3.29Z" style="fill: #1d1d1b"/>
    <path d="M171.14,199.75l3.44-2.62,1.73,2.26-.64.48-1.23-1.62-.51.39.68.89L174,200l-.68-.9-1.66,1.27Z" style="fill: #1d1d1b"/>
    <path d="M173.31,203l3.92-1.82.35.74-3.93,1.82Z" style="fill: #1d1d1b"/>
    <path d="M174.54,206a2.28,2.28,0,0,1,.34-.8,1.9,1.9,0,0,1,.62-.61,2.1,2.1,0,0,1,.83-.35,2.27,2.27,0,0,1,2.65,1.8,2.15,2.15,0,0,1,0,1,2.2,2.2,0,0,1-.5.91l-.1.12-.6-.55.1-.11a1.45,1.45,0,0,0,.36-1.26,1.46,1.46,0,0,0-2.87.55,1.46,1.46,0,0,0,.79,1l.13.07-.34.72-.14-.07a2.24,2.24,0,0,1-.8-.66,2.18,2.18,0,0,1-.43-.94A2.47,2.47,0,0,1,174.54,206Z" style="fill: #1d1d1b"/>
    <path d="M174.56,212.46l1.21-.29.19-1.42-1.1-.6.11-.86L179,211.5l-.09.72-4.5,1.11Zm2.05-.5,1.09-.26-1-.53Z" style="fill: #1d1d1b"/>
    <path d="M174,214.4l3.29,1.29.39-1,.74.29-1.07,2.74-.75-.29.39-1-3.28-1.29Z" style="fill: #1d1d1b"/>
    <path d="M172.63,217.15l3.6,2.41-.46.68-3.59-2.41Z" style="fill: #1d1d1b"/>
    <path d="M173.14,220.39a2.27,2.27,0,1,1-3.19-.17A2.27,2.27,0,0,1,173.14,220.39Zm-.61.55a1.44,1.44,0,1,0-.1,2.05A1.44,1.44,0,0,0,172.53,220.94Z" style="fill: #1d1d1b"/>
    <path d="M165,223.21l2.86,1.88-1.09-2.62.75-.31,1.66,4-.73.3-2.85-1.88,1.09,2.62-.75.31-1.66-4Z" style="fill: #1d1d1b"/>
    <circle cx="80.57" cy="340.68" r="3.73" style="fill: #252626"/>
    <path d="M82.76,340.12H81.12v-1.64a.55.55,0,0,0-.55-.55.55.55,0,0,0-.55.55v1.64H78.38a.56.56,0,0,0,0,1.11H80v1.64a.55.55,0,0,0,.55.55.55.55,0,0,0,.55-.55v-1.64h1.64a.56.56,0,1,0,0-1.11Z" style="fill: #e6e5e5"/>
    <circle cx="115.07" cy="340.68" r="3.73" style="fill: #252626"/>
    <path d="M117.26,341.23h-4.38a.56.56,0,1,1,0-1.11h4.38a.56.56,0,0,1,0,1.11Z" style="fill: #e6e5e5"/>
    <path d="M67.27,57.67a.77.77,0,0,0,.41-.11A59.78,59.78,0,0,1,114.34,52,15,15,0,1,0,115,50.4a61.47,61.47,0,0,0-16.49-2.49v-16a.83.83,0,1,0-1.65,0v16a61.32,61.32,0,0,0-30,8.22.83.83,0,0,0,.42,1.54Z" style="fill: #252626"/>
    <path d="M127.43,161.14a59.84,59.84,0,0,1-46.13,5.71,14.85,14.85,0,1,0-.69,1.53,61.86,61.86,0,0,0,16.2,2.38v16a.83.83,0,0,0,1.65,0v-16a61.47,61.47,0,0,0,29.8-8.18.83.83,0,0,0-.83-1.44Z" style="fill: #252626"/>
    <path d="M37.81,109.33a60.09,60.09,0,0,1,2.42-16.84,14.86,14.86,0,1,0-1.54-.65,61.55,61.55,0,0,0-2.52,16.66h-16a.83.83,0,0,0,0,1.66h16A61.43,61.43,0,0,0,44.34,140a.86.86,0,0,0,.72.41.8.8,0,0,0,.42-.11.83.83,0,0,0,.3-1.13A59.69,59.69,0,0,1,37.81,109.33Z" style="fill: #252626"/>
    <path d="M110.13,60A.83.83,0,0,0,109,60a16,16,0,0,1-22.65,0,.83.83,0,0,0-1.17,0,.85.85,0,0,0,0,1.18A17.51,17.51,0,0,0,96.8,66.35L96.71,79a.83.83,0,0,0,.82.84h0a.84.84,0,0,0,.83-.82l.09-12.71a17.51,17.51,0,0,0,11.67-5.13A.83.83,0,0,0,110.13,60Z" style="fill: #252626"/>
    <path d="M85.14,158.62a.83.83,0,0,0,1.17,0,16,16,0,0,1,22.65,0,.84.84,0,0,0,.59.24.83.83,0,0,0,.58-1.41,17.48,17.48,0,0,0-11.67-5.14l-.09-12.7a.83.83,0,0,0-.83-.82h0a.83.83,0,0,0-.82.83l.09,12.69a17.52,17.52,0,0,0-11.66,5.14A.83.83,0,0,0,85.14,158.62Z" style="fill: #252626"/>
    <path d="M175,108.5H159a61.4,61.4,0,0,0-8.16-29.81.83.83,0,1,0-1.44.82,59.89,59.89,0,0,1,8,29.75.25.25,0,0,0,0,.07.14.14,0,0,0,0,.07,60.15,60.15,0,0,1-2,15.08,14.82,14.82,0,1,0,1.55.64,62.15,62.15,0,0,0,2-15h16a.83.83,0,0,0,0-1.66Z" style="fill: #252626"/>
    <path d="M127.82,108.5a.83.83,0,0,0,0,1.66h12.73a17.51,17.51,0,0,0,5.13,11.67.85.85,0,0,0,1.18,0,.83.83,0,0,0,0-1.17,16,16,0,0,1,0-22.65.83.83,0,0,0-1.18-1.17,17.51,17.51,0,0,0-5.13,11.66Z" style="fill: #252626"/>
    <path d="M67.26,110.16a.83.83,0,0,0,0-1.66H54.61a17.51,17.51,0,0,0-5.13-11.66A.83.83,0,0,0,48.3,98a16,16,0,0,1,0,22.65.83.83,0,0,0,0,1.17.85.85,0,0,0,1.18,0,17.51,17.51,0,0,0,5.13-11.67Z" style="fill: #252626"/>
    <circle cx="115.07" cy="203.8" r="3.73" style="fill: #252626"/>
    <path d="M117.26,203.25h-1.64v-1.64a.56.56,0,0,0-1.11,0v1.64h-1.63a.56.56,0,1,0,0,1.11h1.63V206a.56.56,0,0,0,1.11,0v-1.64h1.64a.56.56,0,0,0,0-1.11Z" style="fill: #e6e5e5"/>
    <circle cx="80.57" cy="203.8" r="3.73" style="fill: #252626"/>
    <path d="M82.76,204.36H78.38a.56.56,0,0,1,0-1.11h4.38a.56.56,0,1,1,0,1.11Z" style="fill: #e6e5e5"/>
    <circle cx="29.38" cy="254.99" r="3.73" style="fill: #252626"/>
    <path d="M31.57,254.44H29.94V252.8a.56.56,0,0,0-1.11,0v1.64H27.19a.55.55,0,0,0-.55.55.55.55,0,0,0,.55.55h1.64v1.64a.56.56,0,1,0,1.11,0v-1.64h1.63a.55.55,0,0,0,.56-.55A.56.56,0,0,0,31.57,254.44Z" style="fill: #e6e5e5"/>
    <circle cx="29.38" cy="289.49" r="3.73" style="fill: #252626"/>
    <path d="M29.38,292.23a.55.55,0,0,1-.55-.55V287.3a.56.56,0,1,1,1.11,0v4.38A.56.56,0,0,1,29.38,292.23Z" style="fill: #e6e5e5"/>
    <circle cx="166.25" cy="289.49" r="3.73" style="fill: #252626"/>
    <path d="M168.45,288.94h-1.64V287.3a.56.56,0,1,0-1.11,0v1.64h-1.64a.55.55,0,0,0-.55.55.55.55,0,0,0,.55.55h1.64v1.64a.56.56,0,0,0,1.11,0V290h1.64a.55.55,0,0,0,.55-.55A.55.55,0,0,0,168.45,288.94Z" style="fill: #e6e5e5"/>
    <circle cx="166.25" cy="254.99" r="3.73" style="fill: #252626"/>
    <path d="M166.25,257.74a.56.56,0,0,1-.55-.56V252.8a.56.56,0,0,1,1.11,0v4.38A.56.56,0,0,1,166.25,257.74Z" style="fill: #e6e5e5"/>
    <path d="M67.2,220.84a.87.87,0,0,0,.41-.11,59.83,59.83,0,0,1,46.68-5.61,14.89,14.89,0,1,0,.58-1.56,61.78,61.78,0,0,0-16.47-2.48V195a.83.83,0,0,0-1.66,0v16a61.42,61.42,0,0,0-30,8.21.83.83,0,0,0,.42,1.55Z" style="fill: #252626"/>
    <path d="M127.36,324.31A59.82,59.82,0,0,1,81.24,330a14.75,14.75,0,1,0-.7,1.52,61.33,61.33,0,0,0,16.2,2.39V343h-5a2.67,2.67,0,0,0-2.67,2.68v27.65A2.67,2.67,0,0,0,91.74,376h11.65a2.68,2.68,0,0,0,2.68-2.67V345.66a2.68,2.68,0,0,0-2.68-2.68h-5v-9.05a61.43,61.43,0,0,0,29.79-8.18.83.83,0,1,0-.83-1.44Z" style="fill: #252626"/>
    <path d="M37.74,272.5a59.91,59.91,0,0,1,2.31-16.45,14.87,14.87,0,1,0-1.52-.7,61.15,61.15,0,0,0-2.43,16.32h-16a.83.83,0,0,0,0,1.66h16a61.33,61.33,0,0,0,8.18,29.85.83.83,0,0,0,.72.41.77.77,0,0,0,.41-.11.83.83,0,0,0,.3-1.13A59.8,59.8,0,0,1,37.74,272.5Z" style="fill: #252626"/>
    <path d="M110.07,223.21a.85.85,0,0,0-1.18,0,16,16,0,0,1-22.65,0,.83.83,0,0,0-1.17,1.17,17.52,17.52,0,0,0,11.66,5.14l-.09,12.69a.84.84,0,0,0,.82.84h0a.83.83,0,0,0,.83-.82l.09-12.71a17.56,17.56,0,0,0,11.68-5.13A.85.85,0,0,0,110.07,223.21Z" style="fill: #252626"/>
    <path d="M85.07,321.79a.83.83,0,0,0,1.17,0,16,16,0,0,1,22.65,0,.85.85,0,0,0,1.18,0,.85.85,0,0,0,0-1.18,17.56,17.56,0,0,0-11.68-5.13l-.09-12.7a.82.82,0,0,0-.83-.82h0a.83.83,0,0,0-.82.83l.09,12.69a17.51,17.51,0,0,0-11.66,5.13A.85.85,0,0,0,85.07,321.79Z" style="fill: #252626"/>
    <path d="M175,271.67h-16a61.37,61.37,0,0,0-8.16-29.81.83.83,0,1,0-1.44.82,59.68,59.68,0,0,1,8,29.75s0,.05,0,.07,0,.05,0,.08a60,60,0,0,1-2.17,15.87,14.85,14.85,0,1,0,1.55.63,61.84,61.84,0,0,0,2.26-15.75h16a.83.83,0,0,0,0-1.66Z" style="fill: #252626"/>
    <path d="M127.75,271.67a.83.83,0,0,0,0,1.66h12.73A17.48,17.48,0,0,0,145.62,285a.82.82,0,0,0,.58.24.83.83,0,0,0,.59-1.41,16,16,0,0,1,0-22.65.83.83,0,0,0,0-1.17.82.82,0,0,0-1.17,0,17.48,17.48,0,0,0-5.14,11.66Z" style="fill: #252626"/>
    <path d="M67.19,273.33a.83.83,0,1,0,0-1.66H54.54A17.51,17.51,0,0,0,49.41,260a.83.83,0,0,0-1.17,1.17,16,16,0,0,1,0,22.65.83.83,0,0,0,.58,1.41.84.84,0,0,0,.59-.24,17.51,17.51,0,0,0,5.13-11.67Z" style="fill: #252626"/>
    <path d="M101.41,364a1.72,1.72,0,0,1-.45.65,1.88,1.88,0,0,1-.65.39,2.36,2.36,0,0,1-.75.12,2.18,2.18,0,0,1-1-.2,1.76,1.76,0,0,1-.59-.46,1.41,1.41,0,0,1-.28-.64,4.34,4.34,0,0,1-.06-.71c0-.34,0-.57,0-.7a.64.64,0,0,1,0-.21,1.14,1.14,0,0,1,.44,0h3.08a.72.72,0,0,1,.22,0,.17.17,0,0,1,.13.1.71.71,0,0,1,.06.26c0,.11,0,.27,0,.47a2.27,2.27,0,0,1-.17.95m-5.32-12.82a.31.31,0,0,1,.11-.2.58.58,0,0,1,.28-.08,4.2,4.2,0,0,1,.55,0,2.82,2.82,0,0,1,2.13.77,2.86,2.86,0,0,1,.74,2.08c0,.08,0,.26,0,.38h-.21l-.61,0s-.07.07-.08.14a.21.21,0,0,0,.06.16l.22,0a1.64,1.64,0,0,1,.36.07q.15.06.15.12a1,1,0,0,1-.07.23c0,.11-.12.24-.2.39l-.26.5c-.1.17-.18.34-.26.49-.19.36-.38.71-.58,1.05s-.38.68-.57,1c-.24-.42-.47-.87-.69-1.33l-.69-1.38-.08-.18c0-.09-.09-.18-.13-.29s-.08-.19-.12-.28a.63.63,0,0,1,0-.19s0-.08.09-.11a2.58,2.58,0,0,1,.42-.1l.16,0a.23.23,0,0,0,0-.17c0-.07,0-.12-.09-.13l-.64,0v-2.59a2.82,2.82,0,0,1,0-.34m1,9.13c0,.32,0,.58,0,.78a1.27,1.27,0,0,1-.09.45l-.06.11h0a2.28,2.28,0,0,1-.36-.1.58.58,0,0,1-.35-.32,1.94,1.94,0,0,1-.13-.65q0-.42,0-1.11v-2.54l.64,1.24c.09.17.16.32.21.43a1.92,1.92,0,0,1,.12.33,3.26,3.26,0,0,1,0,.33c0,.11,0,.25,0,.42Zm5,1.5c.05-.14.11-.3.16-.47s.1-.33.14-.48.08-.29.11-.4a.2.2,0,0,0-.14-.11.19.19,0,0,0-.17,0,5.15,5.15,0,0,1-.47.78,1.55,1.55,0,0,1-.39.41,1.23,1.23,0,0,1-.23.08,1.76,1.76,0,0,1-.3.06l-.43,0h-.6l-.67,0a3,3,0,0,1-.42-.07,1.05,1.05,0,0,1-.25-.08.53.53,0,0,1-.14-.11.93.93,0,0,1-.19-.47c0-.21,0-.47,0-.8v-.8c0-.11,0-.21,0-.3a1.84,1.84,0,0,1,.07-.42,1.55,1.55,0,0,1,.17-.41l.06-.11h.8l.58,0a1.63,1.63,0,0,1,.36,0,.43.43,0,0,1,.26.18,1,1,0,0,1,.12.29l.11.47a.18.18,0,0,0,.16.06c.08,0,.13,0,.15-.07a5.17,5.17,0,0,0,0-.52c0-.21,0-.43,0-.65s0-.46,0-.68,0-.4,0-.55-.07-.06-.15-.07a.18.18,0,0,0-.16.06l-.1.5a.66.66,0,0,1-.12.31.34.34,0,0,1-.17.11,1.35,1.35,0,0,1-.38.06l-.66,0h-.55v0l.77-1.33.42-.73c.13-.22.25-.42.37-.59a1.9,1.9,0,0,1,.38-.41l.08-.06a.9.9,0,0,1,.22.11,1,1,0,0,1,.25.26,1.26,1.26,0,0,1,.16.33l.13.4a.18.18,0,0,0,.16.05.21.21,0,0,0,.15-.07c0-.13,0-.28,0-.45s0-.33,0-.49,0-.3,0-.42a4,4,0,0,1,0-.58,3.25,3.25,0,0,0-1.47-2.68,4.18,4.18,0,0,0-1.46-.55,10.29,10.29,0,0,0-2-.17c-.75,0-1.41,0-2,0s-1.09.06-1.56.12a.22.22,0,0,0-.12.2.28.28,0,0,0,.08.24l.64.07a2.08,2.08,0,0,1,.48.12.47.47,0,0,1,.24.29,1.77,1.77,0,0,1,.1.57c0,.24,0,.55,0,.93v6.58c0,.46,0,.83,0,1.11a1.75,1.75,0,0,1-.12.65.59.59,0,0,1-.32.32,2.85,2.85,0,0,1-.61.15l-.37,0a.27.27,0,0,0-.08.22v.47c0,.24,0,.52,0,.82,0,0,.07.07.16.08a.21.21,0,0,0,.18-.05l0-.28a1.82,1.82,0,0,1,.11-.46.41.41,0,0,1,.24-.24,1.22,1.22,0,0,1,.49-.09l.84,0H96.8l.17,0a.08.08,0,0,1,.08.07.61.61,0,0,1,0,.19v.35a1.4,1.4,0,0,1-.1.61.84.84,0,0,1-.33.35l-.5.33-.55.35-.53.34a4.81,4.81,0,0,0-.44.29,7.43,7.43,0,0,0-.84.68,3,3,0,0,0-.52.64,2.39,2.39,0,0,0-.26.67,3.87,3.87,0,0,0-.07.79,2.17,2.17,0,0,0,.06.59.11.11,0,0,0,.1.05.15.15,0,0,0,.09-.06,1.77,1.77,0,0,1,.38-.93,5.56,5.56,0,0,1,.63-.66c.24-.2.5-.41.79-.63s.61-.43,1-.66l1.18-.75.17-.08a.12.12,0,0,1,.15,0,2.8,2.8,0,0,0,.28.54,3.3,3.3,0,0,0,.46.54,2.72,2.72,0,0,0,.65.43,2,2,0,0,0,.85.16,2,2,0,0,0,1.17-.31,2.27,2.27,0,0,0,.71-.8,3,3,0,0,0,.33-1,9.22,9.22,0,0,0,.07-1.2,5.21,5.21,0,0,1,.14-1.28" style="fill: #e5e5e5"/>
  </g>
  <g id="SCREWS">
    <g>
      <g>
        <circle cx="15" cy="6" r="5.74" style="fill: #bcbcbc"/>
        <path d="M15,.53A5.47,5.47,0,1,1,9.53,6,5.47,5.47,0,0,1,15,.53M15,0a6,6,0,1,0,6,6,6,6,0,0,0-6-6Z" style="fill: gray"/>
      </g>
      <polygon points="18.5 5.34 15.66 5.34 15.66 2.5 14.34 2.5 14.34 5.34 11.51 5.34 11.51 6.66 14.34 6.66 14.34 9.49 15.66 9.49 15.66 6.66 18.5 6.66 18.5 5.34" style="fill: #6e6e6e"/>
    </g>
    <g>
      <g>
        <circle cx="180" cy="6" r="5.74" style="fill: #bcbcbc"/>
        <path d="M180,.53A5.47,5.47,0,1,1,174.53,6,5.47,5.47,0,0,1,180,.53M180,0a6,6,0,1,0,6,6,6,6,0,0,0-6-6Z" style="fill: gray"/>
      </g>
      <polygon points="183.5 5.34 180.66 5.34 180.66 2.5 179.34 2.5 179.34 5.34 176.51 5.34 176.51 6.66 179.34 6.66 179.34 9.49 180.66 9.49 180.66 6.66 183.5 6.66 183.5 5.34" style="fill: #6e6e6e"/>
    </g>
    <g>
      <g>
        <circle cx="15" cy="374" r="5.74" style="fill: #bcbcbc"/>
        <path d="M15,368.53A5.47,5.47,0,1,1,9.53,374,5.47,5.47,0,0,1,15,368.53m0-.53a6,6,0,1,0,6,6,6,6,0,0,0-6-6Z" style="fill: gray"/>
      </g>
      <polygon points="18.5 373.34 15.66 373.34 15.66 370.5 14.34 370.5 14.34 373.34 11.51 373.34 11.51 374.66 14.34 374.66 14.34 377.5 15.66 377.5 15.66 374.66 18.5 374.66 18.5 373.34" style="fill: #6e6e6e"/>
    </g>
    <g>
      <g>
        <circle cx="180" cy="374" r="5.74" style="fill: #bcbcbc"/>
        <path d="M180,368.53a5.47,5.47,0,1,1-5.47,5.47,5.47,5.47,0,0,1,5.47-5.47m0-.53a6,6,0,1,0,6,6,6,6,0,0,0-6-6Z" style="fill: gray"/>
      </g>
      <polygon points="183.5 373.34 180.66 373.34 180.66 370.5 179.34 370.5 179.34 373.34 176.51 373.34 176.51 374.66 179.34 374.66 179.34 377.5 180.66 377.5 180.66 374.66 183.5 374.66 183.5 373.34" style="fill: #6e6e6e"/>
    </g>
  </g>
  <g id="WHITE_LEDS" data-name="WHITE LEDS">
    <g>
      <path d="M150.5,223.74a3.24,3.24,0,1,1,2.29-1A3.21,3.21,0,0,1,150.5,223.74Z" style="fill: #8e8e8e"/>
      <path d="M150.5,217.52a3,3,0,1,1-2.1.88,2.91,2.91,0,0,1,2.1-.88m0-.52a3.44,3.44,0,0,0-2.47,1,3.48,3.48,0,0,0,0,4.94,3.48,3.48,0,0,0,4.94,0,3.48,3.48,0,0,0,0-4.94,3.44,3.44,0,0,0-2.47-1Z" style="fill: #80807f"/>
    </g>
    <g>
      <path d="M44.5,162.74a3.24,3.24,0,1,1,2.29-1A3.23,3.23,0,0,1,44.5,162.74Z" style="fill: #8e8e8e"/>
      <path d="M44.5,156.52a3,3,0,1,1-2.1.88,2.91,2.91,0,0,1,2.1-.88m0-.52A3.44,3.44,0,0,0,42,157,3.48,3.48,0,0,0,42,162,3.48,3.48,0,0,0,47,162,3.48,3.48,0,0,0,47,157a3.44,3.44,0,0,0-2.47-1Z" style="fill: #80807f"/>
    </g>
  </g>
  <g id="PUSH">
    <g>
      <g>
        <circle cx="35.5" cy="171.5" r="7.2"/>
        <path d="M35.5,164.59a6.91,6.91,0,1,1-6.91,6.91,6.92,6.92,0,0,1,6.91-6.91m0-.59a7.5,7.5,0,1,0,7.5,7.5,7.5,7.5,0,0,0-7.5-7.5Z"/>
      </g>
      <g>
        <circle cx="35.5" cy="171.5" r="6.2" style="fill: #707070"/>
        <path d="M35.5,165.59a5.91,5.91,0,1,1-5.91,5.91,5.92,5.92,0,0,1,5.91-5.91m0-.59a6.5,6.5,0,1,0,6.5,6.5,6.5,6.5,0,0,0-6.5-6.5Z" style="fill: gray"/>
      </g>
    </g>
    <g>
      <g>
        <circle cx="160.5" cy="209.5" r="7.2"/>
        <path d="M160.5,202.59a6.91,6.91,0,1,1-6.91,6.91,6.92,6.92,0,0,1,6.91-6.91m0-.59a7.5,7.5,0,1,0,7.5,7.5,7.5,7.5,0,0,0-7.5-7.5Z"/>
      </g>
      <g>
        <circle cx="160.5" cy="209.5" r="6.2" style="fill: #707070"/>
        <path d="M160.5,203.59a5.91,5.91,0,1,1-5.91,5.91,5.92,5.92,0,0,1,5.91-5.91m0-.59a6.5,6.5,0,1,0,6.5,6.5,6.5,6.5,0,0,0-6.5-6.5Z" style="fill: gray"/>
      </g>
    </g>
  </g>
  <g id="JACKS">
    <g>
      <g>
        <circle cx="67.5" cy="56.5" r="11.22" style="fill: #e5e5e5"/>
        <path d="M67.5,45.57A10.93,10.93,0,1,1,56.57,56.5,10.94,10.94,0,0,1,67.5,45.57m0-.57A11.5,11.5,0,1,0,79,56.5,11.5,11.5,0,0,0,67.5,45Z" style="fill: #878787"/>
      </g>
      <path d="M67.5,47.27a9.23,9.23,0,1,0,9.23,9.23A9.24,9.24,0,0,0,67.5,47.27Zm0,16.8a7.57,7.57,0,1,1,7.57-7.57A7.57,7.57,0,0,1,67.5,64.07Z" style="fill: #969696"/>
      <g>
        <circle cx="67.5" cy="56.5" r="5.48" style="fill: #0e0e0e"/>
        <path d="M67.5,62.26a5.76,5.76,0,1,1,5.76-5.76A5.76,5.76,0,0,1,67.5,62.26Zm0-10.95a5.19,5.19,0,1,0,5.19,5.19A5.2,5.2,0,0,0,67.5,51.31Z" style="fill: #2b2b2b"/>
      </g>
    </g>
    <g>
      <g>
        <circle cx="128.5" cy="56.5" r="11.22" style="fill: #e5e5e5"/>
        <path d="M128.5,45.57A10.93,10.93,0,1,1,117.57,56.5,10.94,10.94,0,0,1,128.5,45.57m0-.57A11.5,11.5,0,1,0,140,56.5,11.5,11.5,0,0,0,128.5,45Z" style="fill: #878787"/>
      </g>
      <path d="M128.5,47.27a9.23,9.23,0,1,0,9.23,9.23A9.24,9.24,0,0,0,128.5,47.27Zm0,16.8a7.57,7.57,0,1,1,7.57-7.57A7.57,7.57,0,0,1,128.5,64.07Z" style="fill: #969696"/>
      <g>
        <circle cx="128.5" cy="56.5" r="5.48" style="fill: #0e0e0e"/>
        <path d="M128.5,62.26a5.76,5.76,0,1,1,5.76-5.76A5.77,5.77,0,0,1,128.5,62.26Zm0-10.95a5.19,5.19,0,1,0,5.19,5.19A5.2,5.2,0,0,0,128.5,51.31Z" style="fill: #2b2b2b"/>
      </g>
    </g>
    <g>
      <g>
        <circle cx="150.5" cy="78.5" r="11.22" style="fill: #e5e5e5"/>
        <path d="M150.5,67.57A10.93,10.93,0,1,1,139.57,78.5,10.94,10.94,0,0,1,150.5,67.57m0-.57A11.5,11.5,0,1,0,162,78.5,11.5,11.5,0,0,0,150.5,67Z" style="fill: #878787"/>
      </g>
      <path d="M150.5,69.27a9.23,9.23,0,1,0,9.23,9.23A9.24,9.24,0,0,0,150.5,69.27Zm0,16.8a7.57,7.57,0,1,1,7.57-7.57A7.57,7.57,0,0,1,150.5,86.07Z" style="fill: #969696"/>
      <g>
        <circle cx="150.5" cy="78.5" r="5.48" style="fill: #0e0e0e"/>
        <path d="M150.5,84.26a5.76,5.76,0,1,1,5.76-5.76A5.77,5.77,0,0,1,150.5,84.26Zm0-11a5.19,5.19,0,1,0,5.19,5.19A5.2,5.2,0,0,0,150.5,73.31Z" style="fill: #2b2b2b"/>
      </g>
    </g>
    <g>
      <g>
        <circle cx="150.5" cy="138.5" r="11.22" style="fill: #e5e5e5"/>
        <path d="M150.5,127.57a10.93,10.93,0,1,1-10.93,10.93,10.94,10.94,0,0,1,10.93-10.93m0-.57A11.5,11.5,0,1,0,162,138.5,11.5,11.5,0,0,0,150.5,127Z" style="fill: #878787"/>
      </g>
      <path d="M150.5,129.27a9.23,9.23,0,1,0,9.23,9.23A9.24,9.24,0,0,0,150.5,129.27Zm0,16.8a7.57,7.57,0,1,1,7.57-7.57A7.57,7.57,0,0,1,150.5,146.07Z" style="fill: #969696"/>
      <g>
        <circle cx="150.5" cy="138.5" r="5.48" style="fill: #0e0e0e"/>
        <path d="M150.5,144.26a5.76,5.76,0,1,1,5.76-5.76A5.77,5.77,0,0,1,150.5,144.26Zm0-10.95a5.19,5.19,0,1,0,5.19,5.19A5.2,5.2,0,0,0,150.5,133.31Z" style="fill: #2b2b2b"/>
      </g>
    </g>
    <g>
      <g>
        <circle cx="128.5" cy="161.5" r="11.22" style="fill: #e5e5e5"/>
        <path d="M128.5,150.57a10.93,10.93,0,1,1-10.93,10.93,10.94,10.94,0,0,1,10.93-10.93m0-.57A11.5,11.5,0,1,0,140,161.5,11.5,11.5,0,0,0,128.5,150Z" style="fill: #878787"/>
      </g>
      <path d="M128.5,152.27a9.23,9.23,0,1,0,9.23,9.23A9.24,9.24,0,0,0,128.5,152.27Zm0,16.8a7.57,7.57,0,1,1,7.57-7.57A7.57,7.57,0,0,1,128.5,169.07Z" style="fill: #969696"/>
      <g>
        <circle cx="128.5" cy="161.5" r="5.48" style="fill: #0e0e0e"/>
        <path d="M128.5,167.26a5.76,5.76,0,1,1,5.76-5.76A5.77,5.77,0,0,1,128.5,167.26Zm0-10.95a5.19,5.19,0,1,0,5.19,5.19A5.2,5.2,0,0,0,128.5,156.31Z" style="fill: #2b2b2b"/>
      </g>
    </g>
    <g>
      <g>
        <circle cx="67.5" cy="161.5" r="11.22" style="fill: #e5e5e5"/>
        <path d="M67.5,150.57A10.93,10.93,0,1,1,56.57,161.5,10.94,10.94,0,0,1,67.5,150.57m0-.57A11.5,11.5,0,1,0,79,161.5,11.5,11.5,0,0,0,67.5,150Z" style="fill: #878787"/>
      </g>
      <path d="M67.5,152.27a9.23,9.23,0,1,0,9.23,9.23A9.24,9.24,0,0,0,67.5,152.27Zm0,16.8a7.57,7.57,0,1,1,7.57-7.57A7.57,7.57,0,0,1,67.5,169.07Z" style="fill: #969696"/>
      <g>
        <circle cx="67.5" cy="161.5" r="5.48" style="fill: #0e0e0e"/>
        <path d="M67.5,167.26a5.76,5.76,0,1,1,5.76-5.76A5.76,5.76,0,0,1,67.5,167.26Zm0-10.95a5.19,5.19,0,1,0,5.19,5.19A5.2,5.2,0,0,0,67.5,156.31Z" style="fill: #2b2b2b"/>
      </g>
    </g>
    <g>
      <g>
        <circle cx="45.5" cy="138.5" r="11.22" style="fill: #e5e5e5"/>
        <path d="M45.5,127.57A10.93,10.93,0,1,1,34.57,138.5,10.94,10.94,0,0,1,45.5,127.57m0-.57A11.5,11.5,0,1,0,57,138.5,11.5,11.5,0,0,0,45.5,127Z" style="fill: #878787"/>
      </g>
      <path d="M45.5,129.27a9.23,9.23,0,1,0,9.23,9.23A9.24,9.24,0,0,0,45.5,129.27Zm0,16.8a7.57,7.57,0,1,1,7.57-7.57A7.57,7.57,0,0,1,45.5,146.07Z" style="fill: #969696"/>
      <g>
        <circle cx="45.5" cy="138.5" r="5.48" style="fill: #0e0e0e"/>
        <path d="M45.5,144.26a5.76,5.76,0,1,1,5.76-5.76A5.76,5.76,0,0,1,45.5,144.26Zm0-10.95a5.19,5.19,0,1,0,5.19,5.19A5.2,5.2,0,0,0,45.5,133.31Z" style="fill: #2b2b2b"/>
      </g>
    </g>
    <g>
      <g>
        <circle cx="45.5" cy="78.5" r="11.22" style="fill: #e5e5e5"/>
        <path d="M45.5,67.57A10.93,10.93,0,1,1,34.57,78.5,10.94,10.94,0,0,1,45.5,67.57m0-.57A11.5,11.5,0,1,0,57,78.5,11.5,11.5,0,0,0,45.5,67Z" style="fill: #878787"/>
      </g>
      <path d="M45.5,69.27a9.23,9.23,0,1,0,9.23,9.23A9.24,9.24,0,0,0,45.5,69.27Zm0,16.8a7.57,7.57,0,1,1,7.57-7.57A7.57,7.57,0,0,1,45.5,86.07Z" style="fill: #969696"/>
      <g>
        <circle cx="45.5" cy="78.5" r="5.48" style="fill: #0e0e0e"/>
        <path d="M45.5,84.26a5.76,5.76,0,1,1,5.76-5.76A5.76,5.76,0,0,1,45.5,84.26Zm0-11a5.19,5.19,0,1,0,5.19,5.19A5.2,5.2,0,0,0,45.5,73.31Z" style="fill: #2b2b2b"/>
      </g>
    </g>
    <g>
      <g>
        <circle cx="97.5" cy="78.5" r="11.22" style="fill: #e5e5e5"/>
        <path d="M97.5,67.57A10.93,10.93,0,1,1,86.57,78.5,10.94,10.94,0,0,1,97.5,67.57m0-.57A11.5,11.5,0,1,0,109,78.5,11.5,11.5,0,0,0,97.5,67Z" style="fill: #878787"/>
      </g>
      <path d="M97.5,69.27a9.23,9.23,0,1,0,9.23,9.23A9.24,9.24,0,0,0,97.5,69.27Zm0,16.8a7.57,7.57,0,1,1,7.57-7.57A7.57,7.57,0,0,1,97.5,86.07Z" style="fill: #969696"/>
      <g>
        <circle cx="97.5" cy="78.5" r="5.48" style="fill: #0e0e0e"/>
        <path d="M97.5,84.26a5.76,5.76,0,1,1,5.76-5.76A5.76,5.76,0,0,1,97.5,84.26Zm0-11a5.19,5.19,0,1,0,5.19,5.19A5.2,5.2,0,0,0,97.5,73.31Z" style="fill: #2b2b2b"/>
      </g>
    </g>
    <g>
      <g>
        <circle cx="97.5" cy="108.5" r="11.22" style="fill: #e5e5e5"/>
        <path d="M97.5,97.57A10.93,10.93,0,1,1,86.57,108.5,10.94,10.94,0,0,1,97.5,97.57m0-.57A11.5,11.5,0,1,0,109,108.5,11.5,11.5,0,0,0,97.5,97Z" style="fill: #878787"/>
      </g>
      <path d="M97.5,99.27a9.23,9.23,0,1,0,9.23,9.23A9.24,9.24,0,0,0,97.5,99.27Zm0,16.8a7.57,7.57,0,1,1,7.57-7.57A7.57,7.57,0,0,1,97.5,116.07Z" style="fill: #969696"/>
      <g>
        <circle cx="97.5" cy="108.5" r="5.48" style="fill: #0e0e0e"/>
        <path d="M97.5,114.26a5.76,5.76,0,1,1,5.76-5.76A5.76,5.76,0,0,1,97.5,114.26Zm0-11a5.19,5.19,0,1,0,5.19,5.19A5.2,5.2,0,0,0,97.5,103.31Z" style="fill: #2b2b2b"/>
      </g>
    </g>
    <g>
      <g>
        <circle cx="128.5" cy="108.5" r="11.22" style="fill: #e5e5e5"/>
        <path d="M128.5,97.57a10.93,10.93,0,1,1-10.93,10.93A10.94,10.94,0,0,1,128.5,97.57m0-.57A11.5,11.5,0,1,0,140,108.5,11.5,11.5,0,0,0,128.5,97Z" style="fill: #878787"/>
      </g>
      <path d="M128.5,99.27a9.23,9.23,0,1,0,9.23,9.23A9.24,9.24,0,0,0,128.5,99.27Zm0,16.8a7.57,7.57,0,1,1,7.57-7.57A7.57,7.57,0,0,1,128.5,116.07Z" style="fill: #969696"/>
      <g>
        <circle cx="128.5" cy="108.5" r="5.48" style="fill: #0e0e0e"/>
        <path d="M128.5,114.26a5.76,5.76,0,1,1,5.76-5.76A5.77,5.77,0,0,1,128.5,114.26Zm0-11a5.19,5.19,0,1,0,5.19,5.19A5.2,5.2,0,0,0,128.5,103.31Z" style="fill: #2b2b2b"/>
      </g>
    </g>
    <g>
      <g>
        <circle cx="97.5" cy="139.5" r="11.22" style="fill: #e5e5e5"/>
        <path d="M97.5,128.57A10.93,10.93,0,1,1,86.57,139.5,10.94,10.94,0,0,1,97.5,128.57m0-.57A11.5,11.5,0,1,0,109,139.5,11.5,11.5,0,0,0,97.5,128Z" style="fill: #878787"/>
      </g>
      <path d="M97.5,130.27a9.23,9.23,0,1,0,9.23,9.23A9.24,9.24,0,0,0,97.5,130.27Zm0,16.8a7.57,7.57,0,1,1,7.57-7.57A7.57,7.57,0,0,1,97.5,147.07Z" style="fill: #969696"/>
      <g>
        <circle cx="97.5" cy="139.5" r="5.48" style="fill: #0e0e0e"/>
        <path d="M97.5,145.26a5.76,5.76,0,1,1,5.76-5.76A5.76,5.76,0,0,1,97.5,145.26Zm0-10.95a5.19,5.19,0,1,0,5.19,5.19A5.2,5.2,0,0,0,97.5,134.31Z" style="fill: #2b2b2b"/>
      </g>
    </g>
    <g>
      <g>
        <circle cx="67.5" cy="108.5" r="11.22" style="fill: #e5e5e5"/>
        <path d="M67.5,97.57A10.93,10.93,0,1,1,56.57,108.5,10.94,10.94,0,0,1,67.5,97.57m0-.57A11.5,11.5,0,1,0,79,108.5,11.5,11.5,0,0,0,67.5,97Z" style="fill: #878787"/>
      </g>
      <path d="M67.5,99.27a9.23,9.23,0,1,0,9.23,9.23A9.24,9.24,0,0,0,67.5,99.27Zm0,16.8a7.57,7.57,0,1,1,7.57-7.57A7.57,7.57,0,0,1,67.5,116.07Z" style="fill: #969696"/>
      <g>
        <circle cx="67.5" cy="108.5" r="5.48" style="fill: #0e0e0e"/>
        <path d="M67.5,114.26a5.76,5.76,0,1,1,5.76-5.76A5.76,5.76,0,0,1,67.5,114.26Zm0-11a5.19,5.19,0,1,0,5.19,5.19A5.2,5.2,0,0,0,67.5,103.31Z" style="fill: #2b2b2b"/>
      </g>
    </g>
    <g>
      <g>
        <circle cx="128.5" cy="219.5" r="11.22" style="fill: #e5e5e5"/>
        <path d="M128.5,208.57a10.93,10.93,0,1,1-10.93,10.93,10.94,10.94,0,0,1,10.93-10.93m0-.57A11.5,11.5,0,1,0,140,219.5,11.5,11.5,0,0,0,128.5,208Z" style="fill: #878787"/>
      </g>
      <path d="M128.5,210.27a9.23,9.23,0,1,0,9.23,9.23A9.24,9.24,0,0,0,128.5,210.27Zm0,16.8a7.57,7.57,0,1,1,7.57-7.57A7.57,7.57,0,0,1,128.5,227.07Z" style="fill: #969696"/>
      <g>
        <circle cx="128.5" cy="219.5" r="5.48" style="fill: #0e0e0e"/>
        <path d="M128.5,225.26a5.76,5.76,0,1,1,5.76-5.76A5.77,5.77,0,0,1,128.5,225.26Zm0-10.95a5.19,5.19,0,1,0,5.19,5.19A5.2,5.2,0,0,0,128.5,214.31Z" style="fill: #2b2b2b"/>
      </g>
    </g>
    <g>
      <g>
        <circle cx="150.5" cy="242.5" r="11.22" style="fill: #e5e5e5"/>
        <path d="M150.5,231.57a10.93,10.93,0,1,1-10.93,10.93,10.94,10.94,0,0,1,10.93-10.93m0-.57A11.5,11.5,0,1,0,162,242.5,11.5,11.5,0,0,0,150.5,231Z" style="fill: #878787"/>
      </g>
      <path d="M150.5,233.27a9.23,9.23,0,1,0,9.23,9.23A9.24,9.24,0,0,0,150.5,233.27Zm0,16.8a7.57,7.57,0,1,1,7.57-7.57A7.57,7.57,0,0,1,150.5,250.07Z" style="fill: #969696"/>
      <g>
        <circle cx="150.5" cy="242.5" r="5.48" style="fill: #0e0e0e"/>
        <path d="M150.5,248.26a5.76,5.76,0,1,1,5.76-5.76A5.77,5.77,0,0,1,150.5,248.26Zm0-10.95a5.19,5.19,0,1,0,5.19,5.19A5.2,5.2,0,0,0,150.5,237.31Z" style="fill: #2b2b2b"/>
      </g>
    </g>
    <g>
      <g>
        <circle cx="150.5" cy="302.5" r="11.22" style="fill: #e5e5e5"/>
        <path d="M150.5,291.57a10.93,10.93,0,1,1-10.93,10.93,10.94,10.94,0,0,1,10.93-10.93m0-.57A11.5,11.5,0,1,0,162,302.5,11.5,11.5,0,0,0,150.5,291Z" style="fill: #878787"/>
      </g>
      <path d="M150.5,293.27a9.23,9.23,0,1,0,9.23,9.23A9.24,9.24,0,0,0,150.5,293.27Zm0,16.8a7.57,7.57,0,1,1,7.57-7.57A7.57,7.57,0,0,1,150.5,310.07Z" style="fill: #969696"/>
      <g>
        <circle cx="150.5" cy="302.5" r="5.48" style="fill: #0e0e0e"/>
        <path d="M150.5,308.26a5.76,5.76,0,1,1,5.76-5.76A5.77,5.77,0,0,1,150.5,308.26Zm0-10.95a5.19,5.19,0,1,0,5.19,5.19A5.2,5.2,0,0,0,150.5,297.31Z" style="fill: #2b2b2b"/>
      </g>
    </g>
    <g>
      <g>
        <circle cx="128.5" cy="324.5" r="11.22" style="fill: #e5e5e5"/>
        <path d="M128.5,313.57a10.93,10.93,0,1,1-10.93,10.93,10.94,10.94,0,0,1,10.93-10.93m0-.57A11.5,11.5,0,1,0,140,324.5,11.5,11.5,0,0,0,128.5,313Z" style="fill: #878787"/>
      </g>
      <path d="M128.5,315.27a9.23,9.23,0,1,0,9.23,9.23A9.24,9.24,0,0,0,128.5,315.27Zm0,16.8a7.57,7.57,0,1,1,7.57-7.57A7.57,7.57,0,0,1,128.5,332.07Z" style="fill: #969696"/>
      <g>
        <circle cx="128.5" cy="324.5" r="5.48" style="fill: #0e0e0e"/>
        <path d="M128.5,330.26a5.76,5.76,0,1,1,5.76-5.76A5.77,5.77,0,0,1,128.5,330.26Zm0-10.95a5.19,5.19,0,1,0,5.19,5.19A5.2,5.2,0,0,0,128.5,319.31Z" style="fill: #2b2b2b"/>
      </g>
    </g>
    <g>
      <g>
        <circle cx="67.5" cy="324.5" r="11.22" style="fill: #e5e5e5"/>
        <path d="M67.5,313.57A10.93,10.93,0,1,1,56.57,324.5,10.94,10.94,0,0,1,67.5,313.57m0-.57A11.5,11.5,0,1,0,79,324.5,11.5,11.5,0,0,0,67.5,313Z" style="fill: #878787"/>
      </g>
      <path d="M67.5,315.27a9.23,9.23,0,1,0,9.23,9.23A9.24,9.24,0,0,0,67.5,315.27Zm0,16.8a7.57,7.57,0,1,1,7.57-7.57A7.57,7.57,0,0,1,67.5,332.07Z" style="fill: #969696"/>
      <g>
        <circle cx="67.5" cy="324.5" r="5.48" style="fill: #0e0e0e"/>
        <path d="M67.5,330.26a5.76,5.76,0,1,1,5.76-5.76A5.77,5.77,0,0,1,67.5,330.26Zm0-10.95a5.19,5.19,0,1,0,5.19,5.19A5.2,5.2,0,0,0,67.5,319.31Z" style="fill: #2b2b2b"/>
      </g>
    </g>
    <g>
      <g>
        <circle cx="45.5" cy="302.5" r="11.22" style="fill: #e5e5e5"/>
        <path d="M45.5,291.57A10.93,10.93,0,1,1,34.57,302.5,10.94,10.94,0,0,1,45.5,291.57m0-.57A11.5,11.5,0,1,0,57,302.5,11.5,11.5,0,0,0,45.5,291Z" style="fill: #878787"/>
      </g>
      <path d="M45.5,293.27a9.23,9.23,0,1,0,9.23,9.23A9.24,9.24,0,0,0,45.5,293.27Zm0,16.8a7.57,7.57,0,1,1,7.57-7.57A7.57,7.57,0,0,1,45.5,310.07Z" style="fill: #969696"/>
      <g>
        <circle cx="45.5" cy="302.5" r="5.48" style="fill: #0e0e0e"/>
        <path d="M45.5,308.26a5.76,5.76,0,1,1,5.76-5.76A5.77,5.77,0,0,1,45.5,308.26Zm0-10.95a5.19,5.19,0,1,0,5.19,5.19A5.2,5.2,0,0,0,45.5,297.31Z" style="fill: #2b2b2b"/>
      </g>
    </g>
    <g>
      <g>
        <circle cx="45.5" cy="242.5" r="11.22" style="fill: #e5e5e5"/>
        <path d="M45.5,231.57A10.93,10.93,0,1,1,34.57,242.5,10.94,10.94,0,0,1,45.5,231.57m0-.57A11.5,11.5,0,1,0,57,242.5,11.5,11.5,0,0,0,45.5,231Z" style="fill: #878787"/>
      </g>
      <path d="M45.5,233.27a9.23,9.23,0,1,0,9.23,9.23A9.24,9.24,0,0,0,45.5,233.27Zm0,16.8a7.57,7.57,0,1,1,7.57-7.57A7.57,7.57,0,0,1,45.5,250.07Z" style="fill: #969696"/>
      <g>
        <circle cx="45.5" cy="242.5" r="5.48" style="fill: #0e0e0e"/>
        <path d="M45.5,248.26a5.76,5.76,0,1,1,5.76-5.76A5.77,5.77,0,0,1,45.5,248.26Zm0-10.95a5.19,5.19,0,1,0,5.19,5.19A5.2,5.2,0,0,0,45.5,237.31Z" style="fill: #2b2b2b"/>
      </g>
    </g>
    <g>
      <g>
        <circle cx="67.5" cy="219.5" r="11.22" style="fill: #e5e5e5"/>
        <path d="M67.5,208.57A10.93,10.93,0,1,1,56.57,219.5,10.94,10.94,0,0,1,67.5,208.57m0-.57A11.5,11.5,0,1,0,79,219.5,11.5,11.5,0,0,0,67.5,208Z" style="fill: #878787"/>
      </g>
      <path d="M67.5,210.27a9.23,9.23,0,1,0,9.23,9.23A9.24,9.24,0,0,0,67.5,210.27Zm0,16.8a7.57,7.57,0,1,1,7.57-7.57A7.57,7.57,0,0,1,67.5,227.07Z" style="fill: #969696"/>
      <g>
        <circle cx="67.5" cy="219.5" r="5.48" style="fill: #0e0e0e"/>
        <path d="M67.5,225.26a5.76,5.76,0,1,1,5.76-5.76A5.77,5.77,0,0,1,67.5,225.26Zm0-10.95a5.19,5.19,0,1,0,5.19,5.19A5.2,5.2,0,0,0,67.5,214.31Z" style="fill: #2b2b2b"/>
      </g>
    </g>
    <g>
      <g>
        <circle cx="97.5" cy="241.5" r="11.22" style="fill: #e5e5e5"/>
        <path d="M97.5,230.57A10.93,10.93,0,1,1,86.57,241.5,10.94,10.94,0,0,1,97.5,230.57m0-.57A11.5,11.5,0,1,0,109,241.5,11.5,11.5,0,0,0,97.5,230Z" style="fill: #878787"/>
      </g>
      <path d="M97.5,232.27a9.23,9.23,0,1,0,9.23,9.23A9.24,9.24,0,0,0,97.5,232.27Zm0,16.8a7.57,7.57,0,1,1,7.57-7.57A7.57,7.57,0,0,1,97.5,249.07Z" style="fill: #969696"/>
      <g>
        <circle cx="97.5" cy="241.5" r="5.48" style="fill: #0e0e0e"/>
        <path d="M97.5,247.26a5.76,5.76,0,1,1,5.76-5.76A5.77,5.77,0,0,1,97.5,247.26Zm0-10.95a5.19,5.19,0,1,0,5.19,5.19A5.2,5.2,0,0,0,97.5,236.31Z" style="fill: #2b2b2b"/>
      </g>
    </g>
    <g>
      <g>
        <circle cx="97.5" cy="272.5" r="11.22" style="fill: #e5e5e5"/>
        <path d="M97.5,261.57A10.93,10.93,0,1,1,86.57,272.5,10.94,10.94,0,0,1,97.5,261.57m0-.57A11.5,11.5,0,1,0,109,272.5,11.5,11.5,0,0,0,97.5,261Z" style="fill: #878787"/>
      </g>
      <path d="M97.5,263.27a9.23,9.23,0,1,0,9.23,9.23A9.24,9.24,0,0,0,97.5,263.27Zm0,16.8a7.57,7.57,0,1,1,7.57-7.57A7.57,7.57,0,0,1,97.5,280.07Z" style="fill: #969696"/>
      <g>
        <circle cx="97.5" cy="272.5" r="5.48" style="fill: #0e0e0e"/>
        <path d="M97.5,278.26a5.76,5.76,0,1,1,5.76-5.76A5.77,5.77,0,0,1,97.5,278.26Zm0-10.95a5.19,5.19,0,1,0,5.19,5.19A5.2,5.2,0,0,0,97.5,267.31Z" style="fill: #2b2b2b"/>
      </g>
    </g>
    <g>
      <g>
        <circle cx="128.5" cy="272.5" r="11.22" style="fill: #e5e5e5"/>
        <path d="M128.5,261.57a10.93,10.93,0,1,1-10.93,10.93,10.94,10.94,0,0,1,10.93-10.93m0-.57A11.5,11.5,0,1,0,140,272.5,11.5,11.5,0,0,0,128.5,261Z" style="fill: #878787"/>
      </g>
      <path d="M128.5,263.27a9.23,9.23,0,1,0,9.23,9.23A9.24,9.24,0,0,0,128.5,263.27Zm0,16.8a7.57,7.57,0,1,1,7.57-7.57A7.57,7.57,0,0,1,128.5,280.07Z" style="fill: #969696"/>
      <g>
        <circle cx="128.5" cy="272.5" r="5.48" style="fill: #0e0e0e"/>
        <path d="M128.5,278.26a5.76,5.76,0,1,1,5.76-5.76A5.77,5.77,0,0,1,128.5,278.26Zm0-10.95a5.19,5.19,0,1,0,5.19,5.19A5.2,5.2,0,0,0,128.5,267.31Z" style="fill: #2b2b2b"/>
      </g>
    </g>
    <g>
      <g>
        <circle cx="97.5" cy="302.5" r="11.22" style="fill: #e5e5e5"/>
        <path d="M97.5,291.57A10.93,10.93,0,1,1,86.57,302.5,10.94,10.94,0,0,1,97.5,291.57m0-.57A11.5,11.5,0,1,0,109,302.5,11.5,11.5,0,0,0,97.5,291Z" style="fill: #878787"/>
      </g>
      <path d="M97.5,293.27a9.23,9.23,0,1,0,9.23,9.23A9.24,9.24,0,0,0,97.5,293.27Zm0,16.8a7.57,7.57,0,1,1,7.57-7.57A7.57,7.57,0,0,1,97.5,310.07Z" style="fill: #969696"/>
      <g>
        <circle cx="97.5" cy="302.5" r="5.48" style="fill: #0e0e0e"/>
        <path d="M97.5,308.26a5.76,5.76,0,1,1,5.76-5.76A5.77,5.77,0,0,1,97.5,308.26Zm0-10.95a5.19,5.19,0,1,0,5.19,5.19A5.2,5.2,0,0,0,97.5,297.31Z" style="fill: #2b2b2b"/>
      </g>
    </g>
    <g>
      <g>
        <circle cx="67.5" cy="272.5" r="11.22" style="fill: #e5e5e5"/>
        <path d="M67.5,261.57A10.93,10.93,0,1,1,56.57,272.5,10.94,10.94,0,0,1,67.5,261.57m0-.57A11.5,11.5,0,1,0,79,272.5,11.5,11.5,0,0,0,67.5,261Z" style="fill: #878787"/>
      </g>
      <path d="M67.5,263.27a9.23,9.23,0,1,0,9.23,9.23A9.24,9.24,0,0,0,67.5,263.27Zm0,16.8a7.57,7.57,0,1,1,7.57-7.57A7.57,7.57,0,0,1,67.5,280.07Z" style="fill: #969696"/>
      <g>
        <circle cx="67.5" cy="272.5" r="5.48" style="fill: #0e0e0e"/>
        <path d="M67.5,278.26a5.76,5.76,0,1,1,5.76-5.76A5.77,5.77,0,0,1,67.5,278.26Zm0-10.95a5.19,5.19,0,1,0,5.19,5.19A5.2,5.2,0,0,0,67.5,267.31Z" style="fill: #2b2b2b"/>
      </g>
    </g>
  </g>
  <g id="KNOBS">
    <g>
      <path d="M110.82,46.32a.5.5,0,0,0-.49-.42h0a.46.46,0,0,1-.45-.37,12.74,12.74,0,0,0-1.51-3.67.47.47,0,0,1,.06-.58h0a.5.5,0,0,0,0-.65,13.24,13.24,0,0,0-3.08-3.08.5.5,0,0,0-.65.05h0a.47.47,0,0,1-.58.07,12.6,12.6,0,0,0-3.7-1.54.46.46,0,0,1-.35-.45h0a.5.5,0,0,0-.42-.49,13.29,13.29,0,0,0-4.36,0,.5.5,0,0,0-.42.49h0a.46.46,0,0,1-.35.45,12.6,12.6,0,0,0-3.7,1.54.47.47,0,0,1-.58-.07h0a.5.5,0,0,0-.65-.05,13,13,0,0,0-3.08,3.08.5.5,0,0,0,0,.65h0a.47.47,0,0,1,.06.58,12.74,12.74,0,0,0-1.51,3.67.46.46,0,0,1-.45.37h-.07a.47.47,0,0,0-.46.39A13.45,13.45,0,0,0,84,48.5a13.09,13.09,0,0,0,.18,2.18.5.5,0,0,0,.49.42h.06a.47.47,0,0,1,.46.36,12.87,12.87,0,0,0,1.52,3.64.47.47,0,0,1-.06.58l-.06,0a.5.5,0,0,0,0,.65,13,13,0,0,0,3.08,3.08.5.5,0,0,0,.65-.05l.06-.07a.48.48,0,0,1,.59-.07,12.31,12.31,0,0,0,3.62,1.5.47.47,0,0,1,.36.46v.1a.5.5,0,0,0,.42.49,13.29,13.29,0,0,0,4.36,0,.5.5,0,0,0,.42-.49v-.1a.47.47,0,0,1,.36-.46,12.31,12.31,0,0,0,3.62-1.5.48.48,0,0,1,.59.07l.06.07a.5.5,0,0,0,.65.05,13.24,13.24,0,0,0,3.08-3.08.5.5,0,0,0,0-.65l-.06,0a.47.47,0,0,1-.06-.58,12.87,12.87,0,0,0,1.52-3.64.47.47,0,0,1,.46-.36h.06a.5.5,0,0,0,.49-.42,13.29,13.29,0,0,0,0-4.36Z" style="fill: #2d2d2d"/>
      <path d="M110.82,46.32a.5.5,0,0,0-.49-.42h-2.1a1,1,0,0,1-.92-.65,9.94,9.94,0,0,0-.58-1.39,1,1,0,0,1,.19-1.11l1.49-1.48a.5.5,0,0,0,0-.65,13.24,13.24,0,0,0-3.08-3.08.5.5,0,0,0-.65.05l-1.48,1.49a1,1,0,0,1-1.11.19,9.94,9.94,0,0,0-1.39-.58,1,1,0,0,1-.65-.92v-2.1a.5.5,0,0,0-.42-.49,13.29,13.29,0,0,0-4.36,0,.5.5,0,0,0-.42.49v2.1a1,1,0,0,1-.65.92,9.94,9.94,0,0,0-1.39.58,1,1,0,0,1-1.11-.19l-1.48-1.49a.5.5,0,0,0-.65-.05,13,13,0,0,0-3.08,3.08.5.5,0,0,0,0,.65l1.49,1.48a1,1,0,0,1,.19,1.11,9.94,9.94,0,0,0-.58,1.39,1,1,0,0,1-.92.65H84.66a.49.49,0,0,0-.48.41,13.35,13.35,0,0,0,0,4.37.5.5,0,0,0,.49.42h2.1a1,1,0,0,1,.92.65,9.94,9.94,0,0,0,.58,1.39,1,1,0,0,1-.19,1.11l-1.49,1.48a.5.5,0,0,0,0,.65,13,13,0,0,0,3.08,3.08.5.5,0,0,0,.65-.05l1.48-1.49a1,1,0,0,1,1.11-.19,9.94,9.94,0,0,0,1.39.58,1,1,0,0,1,.65.92v2.1a.5.5,0,0,0,.42.49,13.29,13.29,0,0,0,4.36,0,.5.5,0,0,0,.42-.49v-2.1a1,1,0,0,1,.65-.92,9.94,9.94,0,0,0,1.39-.58,1,1,0,0,1,1.11.19l1.48,1.49a.5.5,0,0,0,.65.05,13.24,13.24,0,0,0,3.08-3.08.5.5,0,0,0,0-.65l-1.49-1.48a1,1,0,0,1-.19-1.11,9.94,9.94,0,0,0,.58-1.39,1,1,0,0,1,.92-.65h2.1a.5.5,0,0,0,.49-.42,13.29,13.29,0,0,0,0-4.36Z" style="fill: #3d3d3d"/>
      <circle cx="97.5" cy="48.5" r="10.34" style="fill: #545454"/>
      <path d="M98.79,35.06V48.5H96.21V35.06S96.77,35,97.5,35,98.79,35.06,98.79,35.06Z" style="fill: #f3f3f3"/>
      <g>
        <path d="M96.21,35.06v4.19a.94.94,0,0,1-.73.92,8.6,8.6,0,1,0,4,0,1,1,0,0,1-.73-.93V35.06" style="fill: #f3f3f3"/>
        <path d="M97.5,57.37l-.44,0a8.86,8.86,0,0,1-1.64-17.46.65.65,0,0,0,.5-.64V35.06h.58v4.19a1.23,1.23,0,0,1-1,1.2,8.31,8.31,0,1,0,3.91,0,1.26,1.26,0,0,1-1-1.21V35.06h.58v4.19a.65.65,0,0,0,.51.64A8.86,8.86,0,0,1,97.5,57.37Z" style="fill: #b2b2b2"/>
      </g>
    </g>
    <g>
      <path d="M160.1,122.82a.49.49,0,0,0,.4-.49v0a.46.46,0,0,1,.36-.45,12,12,0,0,0,3.53-1.51.44.44,0,0,1,.56.06l0,0a.46.46,0,0,0,.62,0,13.38,13.38,0,0,0,3-3.08.53.53,0,0,0-.06-.65h0a.48.48,0,0,1-.06-.58,12.75,12.75,0,0,0,1.48-3.7.45.45,0,0,1,.43-.35h0a.49.49,0,0,0,.48-.42,14.06,14.06,0,0,0,0-4.36.49.49,0,0,0-.48-.42h0a.45.45,0,0,1-.43-.35,12.75,12.75,0,0,0-1.48-3.7.48.48,0,0,1,.06-.58h0a.53.53,0,0,0,.06-.65,13.67,13.67,0,0,0-1.37-1.67,12.61,12.61,0,0,0-1.6-1.41.46.46,0,0,0-.62,0l0,0a.44.44,0,0,1-.56.06,12,12,0,0,0-3.53-1.51.46.46,0,0,1-.36-.45v-.07a.46.46,0,0,0-.37-.46A12.41,12.41,0,0,0,158,96a12.06,12.06,0,0,0-2.1.18.49.49,0,0,0-.4.49v.06a.47.47,0,0,1-.35.46,12,12,0,0,0-3.5,1.52.44.44,0,0,1-.56-.06l-.06-.06a.46.46,0,0,0-.62,0,12.61,12.61,0,0,0-1.6,1.41,13.67,13.67,0,0,0-1.37,1.67.53.53,0,0,0,.06.65l.06.06a.5.5,0,0,1,.07.59,12.77,12.77,0,0,0-1.45,3.62.45.45,0,0,1-.44.36h-.09a.49.49,0,0,0-.48.42,14.06,14.06,0,0,0,0,4.36.49.49,0,0,0,.48.42h.09a.45.45,0,0,1,.44.36,12.77,12.77,0,0,0,1.45,3.62.5.5,0,0,1-.07.59l-.06.06a.53.53,0,0,0-.06.65,13.38,13.38,0,0,0,3,3.08.46.46,0,0,0,.62,0l.06-.06a.44.44,0,0,1,.56-.06,12,12,0,0,0,3.5,1.52.47.47,0,0,1,.35.46v.06a.49.49,0,0,0,.4.49,12.34,12.34,0,0,0,4.2,0Z" style="fill: #2d2d2d"/>
      <path d="M160.1,122.82a.49.49,0,0,0,.4-.49v-2.1a1,1,0,0,1,.63-.92,8.77,8.77,0,0,0,1.33-.58.93.93,0,0,1,1.08.19l1.43,1.49a.46.46,0,0,0,.62,0,13.38,13.38,0,0,0,3-3.08.53.53,0,0,0-.06-.65l-1.43-1.48a1,1,0,0,1-.18-1.11,9.8,9.8,0,0,0,.55-1.39.94.94,0,0,1,.89-.65h2a.49.49,0,0,0,.48-.42,14.06,14.06,0,0,0,0-4.36.49.49,0,0,0-.48-.42h-2a.94.94,0,0,1-.89-.65,9.8,9.8,0,0,0-.55-1.39,1,1,0,0,1,.18-1.11l1.43-1.48a.53.53,0,0,0,.06-.65,13.67,13.67,0,0,0-1.37-1.67,12.61,12.61,0,0,0-1.6-1.41.46.46,0,0,0-.62,0l-1.43,1.49a.93.93,0,0,1-1.08.19,8.77,8.77,0,0,0-1.33-.58,1,1,0,0,1-.63-.92V96.66a.48.48,0,0,0-.39-.48A12.26,12.26,0,0,0,158,96a12.06,12.06,0,0,0-2.1.18.49.49,0,0,0-.4.49v2.1a1,1,0,0,1-.63.92,8.77,8.77,0,0,0-1.33.58.93.93,0,0,1-1.08-.19L151,98.59a.46.46,0,0,0-.62,0,12.61,12.61,0,0,0-1.6,1.41,13.67,13.67,0,0,0-1.37,1.67.53.53,0,0,0,.06.65l1.43,1.48a1,1,0,0,1,.18,1.11,9.8,9.8,0,0,0-.55,1.39.94.94,0,0,1-.89.65h-2a.49.49,0,0,0-.48.42,14.06,14.06,0,0,0,0,4.36.49.49,0,0,0,.48.42h2a.94.94,0,0,1,.89.65,9.8,9.8,0,0,0,.55,1.39,1,1,0,0,1-.18,1.11l-1.43,1.48a.53.53,0,0,0-.06.65,13.38,13.38,0,0,0,3,3.08.46.46,0,0,0,.62,0l1.43-1.49a.93.93,0,0,1,1.08-.19,8.77,8.77,0,0,0,1.33.58,1,1,0,0,1,.63.92v2.1a.49.49,0,0,0,.4.49,12.34,12.34,0,0,0,4.2,0Z" style="fill: #3d3d3d"/>
      <ellipse cx="158" cy="109.5" rx="9.96" ry="10.34" style="fill: #545454"/>
      <path d="M170.94,110.79H158v-2.58h12.94s.06.56.06,1.29S170.94,110.79,170.94,110.79Z" style="fill: #f3f3f3"/>
      <g>
        <path d="M170.94,108.21h-4a.93.93,0,0,1-.89-.73,8.32,8.32,0,0,0-8.25-6.55,8.59,8.59,0,0,0,.23,17.15,8.33,8.33,0,0,0,8-6.56.93.93,0,0,1,.89-.73h4" style="fill: #f3f3f3"/>
        <path d="M158,118.36a8.31,8.31,0,0,1-6.07-2.63,9.06,9.06,0,0,1-2.46-6.67,8.73,8.73,0,0,1,8.3-8.42,8.61,8.61,0,0,1,8.52,6.78.64.64,0,0,0,.62.5h4v.57h-4a1.21,1.21,0,0,1-1.17-.94,8.08,8.08,0,0,0-8-6.34,8.18,8.18,0,0,0-7.75,7.88,8.55,8.55,0,0,0,2.31,6.25,7.78,7.78,0,0,0,5.66,2.45,8,8,0,0,0,7.74-6.33,1.21,1.21,0,0,1,1.17-.95h4v.57h-4a.65.65,0,0,0-.62.51A8.57,8.57,0,0,1,158,118.36Z" style="fill: #b2b2b2"/>
      </g>
    </g>
    <g>
      <path d="M84.18,170.68a.5.5,0,0,0,.49.42h0a.46.46,0,0,1,.45.37,12.74,12.74,0,0,0,1.51,3.67.47.47,0,0,1-.06.58h0a.5.5,0,0,0,0,.65,13.24,13.24,0,0,0,3.08,3.08.5.5,0,0,0,.65-.05h0a.47.47,0,0,1,.58-.07,12.6,12.6,0,0,0,3.7,1.54.46.46,0,0,1,.35.45h0a.5.5,0,0,0,.42.49,13.29,13.29,0,0,0,4.36,0,.5.5,0,0,0,.42-.49h0a.46.46,0,0,1,.35-.45,12.6,12.6,0,0,0,3.7-1.54.47.47,0,0,1,.58.07h0a.5.5,0,0,0,.65.05,13,13,0,0,0,3.08-3.08.5.5,0,0,0,0-.65h0a.47.47,0,0,1-.06-.58,12.74,12.74,0,0,0,1.51-3.67.46.46,0,0,1,.45-.37h.07a.47.47,0,0,0,.46-.39,13.45,13.45,0,0,0,.18-2.21,13.09,13.09,0,0,0-.18-2.18.5.5,0,0,0-.49-.42h-.06a.47.47,0,0,1-.46-.36,12.87,12.87,0,0,0-1.52-3.64.47.47,0,0,1,.06-.58l.06,0a.5.5,0,0,0,0-.65,13,13,0,0,0-3.08-3.08.5.5,0,0,0-.65.05l-.06.07a.48.48,0,0,1-.59.07,12.31,12.31,0,0,0-3.62-1.5.47.47,0,0,1-.36-.46v-.1a.5.5,0,0,0-.42-.49,13.29,13.29,0,0,0-4.36,0,.5.5,0,0,0-.42.49v.1a.47.47,0,0,1-.36.46,12.31,12.31,0,0,0-3.62,1.5.48.48,0,0,1-.59-.07l-.06-.07a.5.5,0,0,0-.65-.05,13.24,13.24,0,0,0-3.08,3.08.5.5,0,0,0,0,.65l.06,0a.47.47,0,0,1,.06.58,12.87,12.87,0,0,0-1.52,3.64.47.47,0,0,1-.46.36h-.06a.5.5,0,0,0-.49.42,13.29,13.29,0,0,0,0,4.36Z" style="fill: #2d2d2d"/>
      <path d="M84.18,170.68a.5.5,0,0,0,.49.42h2.1a1,1,0,0,1,.92.65,9.94,9.94,0,0,0,.58,1.39,1,1,0,0,1-.19,1.11l-1.49,1.48a.5.5,0,0,0,0,.65,13.24,13.24,0,0,0,3.08,3.08.5.5,0,0,0,.65-.05l1.48-1.49a1,1,0,0,1,1.11-.19,9.94,9.94,0,0,0,1.39.58,1,1,0,0,1,.65.92v2.1a.5.5,0,0,0,.42.49,13.29,13.29,0,0,0,4.36,0,.5.5,0,0,0,.42-.49v-2.1a1,1,0,0,1,.65-.92,9.94,9.94,0,0,0,1.39-.58,1,1,0,0,1,1.11.19l1.48,1.49a.5.5,0,0,0,.65.05,13,13,0,0,0,3.08-3.08.5.5,0,0,0,0-.65l-1.49-1.48a1,1,0,0,1-.19-1.11,9.94,9.94,0,0,0,.58-1.39,1,1,0,0,1,.92-.65h2.11a.49.49,0,0,0,.48-.41,13.35,13.35,0,0,0,0-4.37.5.5,0,0,0-.49-.42h-2.1a1,1,0,0,1-.92-.65,9.94,9.94,0,0,0-.58-1.39,1,1,0,0,1,.19-1.11l1.49-1.48a.5.5,0,0,0,0-.65,13,13,0,0,0-3.08-3.08.5.5,0,0,0-.65.05l-1.48,1.49a1,1,0,0,1-1.11.19,9.94,9.94,0,0,0-1.39-.58,1,1,0,0,1-.65-.92v-2.1a.5.5,0,0,0-.42-.49,13.29,13.29,0,0,0-4.36,0,.5.5,0,0,0-.42.49v2.1a1,1,0,0,1-.65.92,9.94,9.94,0,0,0-1.39.58,1,1,0,0,1-1.11-.19l-1.48-1.49a.5.5,0,0,0-.65-.05,13.24,13.24,0,0,0-3.08,3.08.5.5,0,0,0,0,.65l1.49,1.48a1,1,0,0,1,.19,1.11,9.94,9.94,0,0,0-.58,1.39,1,1,0,0,1-.92.65h-2.1a.5.5,0,0,0-.49.42,13.29,13.29,0,0,0,0,4.36Z" style="fill: #3d3d3d"/>
      <circle cx="97.5" cy="168.5" r="10.34" style="fill: #545454"/>
      <path d="M96.21,181.94V168.5h2.58v13.44s-.56.06-1.29.06S96.21,181.94,96.21,181.94Z" style="fill: #f3f3f3"/>
      <g>
        <path d="M98.79,181.94v-4.19a.94.94,0,0,1,.73-.92,8.6,8.6,0,1,0-4,0,1,1,0,0,1,.73.93v4.19" style="fill: #f3f3f3"/>
        <path d="M99.08,181.94H98.5v-4.19a1.23,1.23,0,0,1,1-1.2,8.31,8.31,0,1,0-3.91,0,1.26,1.26,0,0,1,1,1.21v4.19h-.58v-4.19a.65.65,0,0,0-.51-.64,8.87,8.87,0,1,1,4.17,0,.65.65,0,0,0-.5.64Z" style="fill: #b2b2b2"/>
      </g>
    </g>
    <g>
      <path d="M34.9,96.18a.49.49,0,0,0-.4.49v0a.46.46,0,0,1-.36.45,12,12,0,0,0-3.53,1.51.44.44,0,0,1-.56-.06l0,0a.46.46,0,0,0-.62,0,13.38,13.38,0,0,0-3,3.08.53.53,0,0,0,.06.65h0a.48.48,0,0,1,.06.58,12.75,12.75,0,0,0-1.48,3.7.45.45,0,0,1-.43.35h0a.49.49,0,0,0-.48.42,14.06,14.06,0,0,0,0,4.36.49.49,0,0,0,.48.42h0a.45.45,0,0,1,.43.35,12.75,12.75,0,0,0,1.48,3.7.48.48,0,0,1-.06.58h0a.53.53,0,0,0-.06.65,13.67,13.67,0,0,0,1.37,1.67,12.61,12.61,0,0,0,1.6,1.41.46.46,0,0,0,.62,0l0,0a.44.44,0,0,1,.56-.06,12,12,0,0,0,3.53,1.51.46.46,0,0,1,.36.45v.07a.46.46,0,0,0,.37.46A12.41,12.41,0,0,0,37,123a12.06,12.06,0,0,0,2.1-.18.49.49,0,0,0,.4-.49v-.06a.47.47,0,0,1,.35-.46,12,12,0,0,0,3.5-1.52.44.44,0,0,1,.56.06l.06.06a.46.46,0,0,0,.62,0,12.61,12.61,0,0,0,1.6-1.41,13.67,13.67,0,0,0,1.37-1.67.53.53,0,0,0-.06-.65l-.06-.06a.5.5,0,0,1-.07-.59,12.77,12.77,0,0,0,1.45-3.62.45.45,0,0,1,.44-.36h.09a.49.49,0,0,0,.48-.42,14.06,14.06,0,0,0,0-4.36.49.49,0,0,0-.48-.42h-.09a.45.45,0,0,1-.44-.36,12.77,12.77,0,0,0-1.45-3.62.5.5,0,0,1,.07-.59l.06-.06a.53.53,0,0,0,.06-.65,13.38,13.38,0,0,0-3-3.08.46.46,0,0,0-.62,0l-.06.06a.44.44,0,0,1-.56.06,12,12,0,0,0-3.5-1.52.47.47,0,0,1-.35-.46v-.06a.49.49,0,0,0-.4-.49,12.34,12.34,0,0,0-4.2,0Z" style="fill: #2d2d2d"/>
      <path d="M34.9,96.18a.49.49,0,0,0-.4.49v2.1a1,1,0,0,1-.63.92,8.77,8.77,0,0,0-1.33.58.93.93,0,0,1-1.08-.19L30,98.59a.46.46,0,0,0-.62,0,13.38,13.38,0,0,0-3,3.08.53.53,0,0,0,.06.65l1.43,1.48a1,1,0,0,1,.18,1.11,9.8,9.8,0,0,0-.55,1.39.94.94,0,0,1-.89.65h-2a.49.49,0,0,0-.48.42,14.06,14.06,0,0,0,0,4.36.49.49,0,0,0,.48.42h2a.94.94,0,0,1,.89.65,9.8,9.8,0,0,0,.55,1.39,1,1,0,0,1-.18,1.11l-1.43,1.48a.53.53,0,0,0-.06.65,13.67,13.67,0,0,0,1.37,1.67,12.61,12.61,0,0,0,1.6,1.41.46.46,0,0,0,.62,0l1.43-1.49a.93.93,0,0,1,1.08-.19,8.77,8.77,0,0,0,1.33.58,1,1,0,0,1,.63.92v2.11a.48.48,0,0,0,.39.48A12.26,12.26,0,0,0,37,123a12.06,12.06,0,0,0,2.1-.18.49.49,0,0,0,.4-.49v-2.1a1,1,0,0,1,.63-.92,8.77,8.77,0,0,0,1.33-.58.93.93,0,0,1,1.08.19L44,120.41a.46.46,0,0,0,.62,0,12.61,12.61,0,0,0,1.6-1.41,13.67,13.67,0,0,0,1.37-1.67.53.53,0,0,0-.06-.65l-1.43-1.48a1,1,0,0,1-.18-1.11,9.8,9.8,0,0,0,.55-1.39.94.94,0,0,1,.89-.65h2a.49.49,0,0,0,.48-.42,14.06,14.06,0,0,0,0-4.36.49.49,0,0,0-.48-.42h-2a.94.94,0,0,1-.89-.65,9.8,9.8,0,0,0-.55-1.39,1,1,0,0,1,.18-1.11l1.43-1.48a.53.53,0,0,0,.06-.65,13.38,13.38,0,0,0-3-3.08.46.46,0,0,0-.62,0l-1.43,1.49a.93.93,0,0,1-1.08.19,8.77,8.77,0,0,0-1.33-.58,1,1,0,0,1-.63-.92v-2.1a.49.49,0,0,0-.4-.49,12.34,12.34,0,0,0-4.2,0Z" style="fill: #3d3d3d"/>
      <ellipse cx="37" cy="109.5" rx="9.96" ry="10.34" style="fill: #545454"/>
      <path d="M24.06,108.21H37v2.58H24.06s-.06-.56-.06-1.29S24.06,108.21,24.06,108.21Z" style="fill: #f3f3f3"/>
      <g>
        <path d="M24.06,110.79h4a.93.93,0,0,1,.89.73,8.32,8.32,0,0,0,8.25,6.55A8.59,8.59,0,0,0,37,100.92a8.33,8.33,0,0,0-8,6.56.93.93,0,0,1-.89.73h-4" style="fill: #f3f3f3"/>
        <path d="M37,118.36a8.63,8.63,0,0,1-8.3-6.78.64.64,0,0,0-.62-.5h-4v-.57h4a1.21,1.21,0,0,1,1.17.94,8.07,8.07,0,0,0,8,6.34A8.15,8.15,0,0,0,45,109.91a8.5,8.5,0,0,0-2.3-6.25A7.78,7.78,0,0,0,37,101.21a8,8,0,0,0-7.74,6.33,1.21,1.21,0,0,1-1.17.95h-4v-.57h4a.65.65,0,0,0,.62-.51A8.57,8.57,0,0,1,37,100.64a8.31,8.31,0,0,1,6.07,2.63,9.06,9.06,0,0,1,2.46,6.67,8.73,8.73,0,0,1-8.3,8.42Z" style="fill: #b2b2b2"/>
      </g>
    </g>
    <g>
      <path d="M110.82,210.32a.5.5,0,0,0-.49-.42h0a.46.46,0,0,1-.45-.37,12.74,12.74,0,0,0-1.51-3.67.47.47,0,0,1,.06-.58h0a.5.5,0,0,0,0-.65,13.24,13.24,0,0,0-3.08-3.08.5.5,0,0,0-.65.05h0a.47.47,0,0,1-.58.07,12.6,12.6,0,0,0-3.7-1.54.46.46,0,0,1-.35-.45h0a.5.5,0,0,0-.42-.49,13.29,13.29,0,0,0-4.36,0,.5.5,0,0,0-.42.49h0a.46.46,0,0,1-.35.45,12.6,12.6,0,0,0-3.7,1.54.47.47,0,0,1-.58-.07h0a.5.5,0,0,0-.65-.05,13,13,0,0,0-3.08,3.08.5.5,0,0,0,0,.65h0a.47.47,0,0,1,.06.58,12.74,12.74,0,0,0-1.51,3.67.46.46,0,0,1-.45.37h-.07a.47.47,0,0,0-.46.39A13.45,13.45,0,0,0,84,212.5a13.09,13.09,0,0,0,.18,2.18.5.5,0,0,0,.49.42h.06a.47.47,0,0,1,.46.36,12.87,12.87,0,0,0,1.52,3.64.47.47,0,0,1-.06.58l-.06,0a.5.5,0,0,0,0,.65,13,13,0,0,0,3.08,3.08.5.5,0,0,0,.65-.05l.06-.07a.48.48,0,0,1,.59-.07,12.31,12.31,0,0,0,3.62,1.5.47.47,0,0,1,.36.46v.1a.5.5,0,0,0,.42.49,13.29,13.29,0,0,0,4.36,0,.5.5,0,0,0,.42-.49v-.1a.47.47,0,0,1,.36-.46,12.31,12.31,0,0,0,3.62-1.5.48.48,0,0,1,.59.07l.06.07a.5.5,0,0,0,.65.05,13.24,13.24,0,0,0,3.08-3.08.5.5,0,0,0,0-.65l-.06,0a.47.47,0,0,1-.06-.58,12.87,12.87,0,0,0,1.52-3.64.47.47,0,0,1,.46-.36h.06a.5.5,0,0,0,.49-.42,13.29,13.29,0,0,0,0-4.36Z" style="fill: #2d2d2d"/>
      <path d="M110.82,210.32a.5.5,0,0,0-.49-.42h-2.1a1,1,0,0,1-.92-.65,9.94,9.94,0,0,0-.58-1.39,1,1,0,0,1,.19-1.11l1.49-1.48a.5.5,0,0,0,0-.65,13.24,13.24,0,0,0-3.08-3.08.5.5,0,0,0-.65.05l-1.48,1.49a1,1,0,0,1-1.11.19,9.94,9.94,0,0,0-1.39-.58,1,1,0,0,1-.65-.92v-2.1a.5.5,0,0,0-.42-.49,13.29,13.29,0,0,0-4.36,0,.5.5,0,0,0-.42.49v2.1a1,1,0,0,1-.65.92,9.94,9.94,0,0,0-1.39.58,1,1,0,0,1-1.11-.19l-1.48-1.49a.5.5,0,0,0-.65-.05,13,13,0,0,0-3.08,3.08.5.5,0,0,0,0,.65l1.49,1.48a1,1,0,0,1,.19,1.11,9.94,9.94,0,0,0-.58,1.39,1,1,0,0,1-.92.65H84.66a.49.49,0,0,0-.48.41,13.35,13.35,0,0,0,0,4.37.5.5,0,0,0,.49.42h2.1a1,1,0,0,1,.92.65,9.94,9.94,0,0,0,.58,1.39,1,1,0,0,1-.19,1.11l-1.49,1.48a.5.5,0,0,0,0,.65,13,13,0,0,0,3.08,3.08.5.5,0,0,0,.65-.05l1.48-1.49a1,1,0,0,1,1.11-.19,9.94,9.94,0,0,0,1.39.58,1,1,0,0,1,.65.92v2.1a.5.5,0,0,0,.42.49,13.29,13.29,0,0,0,4.36,0,.5.5,0,0,0,.42-.49v-2.1a1,1,0,0,1,.65-.92,9.94,9.94,0,0,0,1.39-.58,1,1,0,0,1,1.11.19l1.48,1.49a.5.5,0,0,0,.65.05,13.24,13.24,0,0,0,3.08-3.08.5.5,0,0,0,0-.65l-1.49-1.48a1,1,0,0,1-.19-1.11,9.94,9.94,0,0,0,.58-1.39,1,1,0,0,1,.92-.65h2.1a.5.5,0,0,0,.49-.42,13.29,13.29,0,0,0,0-4.36Z" style="fill: #3d3d3d"/>
      <circle cx="97.5" cy="212.5" r="10.34" style="fill: #545454"/>
      <path d="M98.79,199.06V212.5H96.21V199.06s.56-.06,1.29-.06S98.79,199.06,98.79,199.06Z" style="fill: #f3f3f3"/>
      <g>
        <path d="M96.21,199.06v4.19a.94.94,0,0,1-.73.92,8.6,8.6,0,1,0,4,0,1,1,0,0,1-.73-.93v-4.19" style="fill: #f3f3f3"/>
        <path d="M97.51,221.37l-.45,0a8.86,8.86,0,0,1-1.64-17.46.65.65,0,0,0,.5-.64v-4.19h.58v4.19a1.23,1.23,0,0,1-1,1.2,8.31,8.31,0,1,0,3.91,0,1.26,1.26,0,0,1-1-1.21v-4.19h.58v4.19a.65.65,0,0,0,.51.64,8.87,8.87,0,0,1-2.08,17.48Z" style="fill: #b2b2b2"/>
      </g>
    </g>
    <g>
      <path d="M160.1,285.82a.49.49,0,0,0,.4-.49v0a.46.46,0,0,1,.36-.45,12,12,0,0,0,3.53-1.51.44.44,0,0,1,.56.06l0,0a.46.46,0,0,0,.62,0,13.38,13.38,0,0,0,3-3.08.53.53,0,0,0-.06-.65h0a.48.48,0,0,1-.06-.58,12.75,12.75,0,0,0,1.48-3.7.45.45,0,0,1,.43-.35h0a.49.49,0,0,0,.48-.42,14.06,14.06,0,0,0,0-4.36.49.49,0,0,0-.48-.42h0a.45.45,0,0,1-.43-.35,12.75,12.75,0,0,0-1.48-3.7.48.48,0,0,1,.06-.58h0a.53.53,0,0,0,.06-.65,13.67,13.67,0,0,0-1.37-1.67,12.61,12.61,0,0,0-1.6-1.41.46.46,0,0,0-.62,0l0,0a.44.44,0,0,1-.56.06,12,12,0,0,0-3.53-1.51.46.46,0,0,1-.36-.45v-.07a.46.46,0,0,0-.37-.46A12.41,12.41,0,0,0,158,259a12.06,12.06,0,0,0-2.1.18.49.49,0,0,0-.4.49v.06a.47.47,0,0,1-.35.46,12,12,0,0,0-3.5,1.52.44.44,0,0,1-.56-.06l-.06-.06a.46.46,0,0,0-.62,0,12.61,12.61,0,0,0-1.6,1.41,13.67,13.67,0,0,0-1.37,1.67.53.53,0,0,0,.06.65l.06.06a.5.5,0,0,1,.07.59,12.77,12.77,0,0,0-1.45,3.62.45.45,0,0,1-.44.36h-.09a.49.49,0,0,0-.48.42,14.06,14.06,0,0,0,0,4.36.49.49,0,0,0,.48.42h.09a.45.45,0,0,1,.44.36,12.77,12.77,0,0,0,1.45,3.62.5.5,0,0,1-.07.59l-.06.06a.53.53,0,0,0-.06.65,13.38,13.38,0,0,0,3,3.08.46.46,0,0,0,.62,0l.06-.06a.44.44,0,0,1,.56-.06,12,12,0,0,0,3.5,1.52.47.47,0,0,1,.35.46v.06a.49.49,0,0,0,.4.49,12.34,12.34,0,0,0,4.2,0Z" style="fill: #2d2d2d"/>
      <path d="M160.1,285.82a.49.49,0,0,0,.4-.49v-2.1a1,1,0,0,1,.63-.92,8.77,8.77,0,0,0,1.33-.58.93.93,0,0,1,1.08.19l1.43,1.49a.46.46,0,0,0,.62,0,13.38,13.38,0,0,0,3-3.08.53.53,0,0,0-.06-.65l-1.43-1.48a1,1,0,0,1-.18-1.11,9.8,9.8,0,0,0,.55-1.39.94.94,0,0,1,.89-.65h2a.49.49,0,0,0,.48-.42,14.06,14.06,0,0,0,0-4.36.49.49,0,0,0-.48-.42h-2a.94.94,0,0,1-.89-.65,9.8,9.8,0,0,0-.55-1.39,1,1,0,0,1,.18-1.11l1.43-1.48a.53.53,0,0,0,.06-.65,13.67,13.67,0,0,0-1.37-1.67,12.61,12.61,0,0,0-1.6-1.41.46.46,0,0,0-.62,0l-1.43,1.49a.93.93,0,0,1-1.08.19,8.77,8.77,0,0,0-1.33-.58,1,1,0,0,1-.63-.92v-2.11a.48.48,0,0,0-.39-.48A12.26,12.26,0,0,0,158,259a12.06,12.06,0,0,0-2.1.18.49.49,0,0,0-.4.49v2.1a1,1,0,0,1-.63.92,8.77,8.77,0,0,0-1.33.58.93.93,0,0,1-1.08-.19L151,261.59a.46.46,0,0,0-.62,0,12.61,12.61,0,0,0-1.6,1.41,13.67,13.67,0,0,0-1.37,1.67.53.53,0,0,0,.06.65l1.43,1.48a1,1,0,0,1,.18,1.11,9.8,9.8,0,0,0-.55,1.39.94.94,0,0,1-.89.65h-2a.49.49,0,0,0-.48.42,14.06,14.06,0,0,0,0,4.36.49.49,0,0,0,.48.42h2a.94.94,0,0,1,.89.65,9.8,9.8,0,0,0,.55,1.39,1,1,0,0,1-.18,1.11l-1.43,1.48a.53.53,0,0,0-.06.65,13.38,13.38,0,0,0,3,3.08.46.46,0,0,0,.62,0l1.43-1.49a.93.93,0,0,1,1.08-.19,8.77,8.77,0,0,0,1.33.58,1,1,0,0,1,.63.92v2.1a.49.49,0,0,0,.4.49,12.34,12.34,0,0,0,4.2,0Z" style="fill: #3d3d3d"/>
      <ellipse cx="158" cy="272.5" rx="9.96" ry="10.34" style="fill: #545454"/>
      <path d="M170.94,273.79H158v-2.58h12.94s.06.56.06,1.29S170.94,273.79,170.94,273.79Z" style="fill: #f3f3f3"/>
      <g>
        <path d="M170.94,271.21h-4a.93.93,0,0,1-.89-.73,8.32,8.32,0,0,0-8.25-6.55,8.59,8.59,0,0,0,.23,17.15,8.33,8.33,0,0,0,8-6.56.93.93,0,0,1,.89-.73h4" style="fill: #f3f3f3"/>
        <path d="M158,281.36a8.31,8.31,0,0,1-6.07-2.63,9.06,9.06,0,0,1-2.46-6.67,8.74,8.74,0,0,1,8.3-8.42,8.65,8.65,0,0,1,8.52,6.78.64.64,0,0,0,.62.5h4v.57h-4a1.21,1.21,0,0,1-1.17-.94,8.05,8.05,0,0,0-8-6.34,8.17,8.17,0,0,0-7.75,7.88,8.55,8.55,0,0,0,2.31,6.25,7.78,7.78,0,0,0,5.66,2.45,8,8,0,0,0,7.74-6.33,1.21,1.21,0,0,1,1.17-.95h4v.57h-4a.65.65,0,0,0-.62.51A8.57,8.57,0,0,1,158,281.36Z" style="fill: #b2b2b2"/>
      </g>
    </g>
    <g>
      <path d="M84.18,334.68a.5.5,0,0,0,.49.42h0a.46.46,0,0,1,.45.37,12.74,12.74,0,0,0,1.51,3.67.47.47,0,0,1-.06.58h0a.5.5,0,0,0,0,.65,13.24,13.24,0,0,0,3.08,3.08.5.5,0,0,0,.65,0h0a.47.47,0,0,1,.58-.07,12.6,12.6,0,0,0,3.7,1.54.46.46,0,0,1,.35.45h0a.5.5,0,0,0,.42.49,13.29,13.29,0,0,0,4.36,0,.5.5,0,0,0,.42-.49h0a.46.46,0,0,1,.35-.45,12.6,12.6,0,0,0,3.7-1.54.47.47,0,0,1,.58.07h0a.5.5,0,0,0,.65,0,13,13,0,0,0,3.08-3.08.5.5,0,0,0,0-.65h0a.47.47,0,0,1-.06-.58,12.74,12.74,0,0,0,1.51-3.67.46.46,0,0,1,.45-.37h.07a.47.47,0,0,0,.46-.39,13.45,13.45,0,0,0,.18-2.21,13.09,13.09,0,0,0-.18-2.18.5.5,0,0,0-.49-.42h-.06a.47.47,0,0,1-.46-.36,12.87,12.87,0,0,0-1.52-3.64.47.47,0,0,1,.06-.58l.06-.05a.5.5,0,0,0,0-.65,13,13,0,0,0-3.08-3.08.5.5,0,0,0-.65,0l-.06.07a.48.48,0,0,1-.59.07,12.31,12.31,0,0,0-3.62-1.5.47.47,0,0,1-.36-.46v-.1a.5.5,0,0,0-.42-.49,13.29,13.29,0,0,0-4.36,0,.5.5,0,0,0-.42.49v.1a.47.47,0,0,1-.36.46,12.31,12.31,0,0,0-3.62,1.5.48.48,0,0,1-.59-.07l-.06-.07a.5.5,0,0,0-.65,0,13.24,13.24,0,0,0-3.08,3.08.5.5,0,0,0,0,.65l.06.05a.47.47,0,0,1,.06.58,12.87,12.87,0,0,0-1.52,3.64.47.47,0,0,1-.46.36h-.06a.5.5,0,0,0-.49.42,13.29,13.29,0,0,0,0,4.36Z" style="fill: #2d2d2d"/>
      <path d="M84.18,334.68a.5.5,0,0,0,.49.42h2.1a1,1,0,0,1,.92.65,9.94,9.94,0,0,0,.58,1.39,1,1,0,0,1-.19,1.11l-1.49,1.48a.5.5,0,0,0,0,.65,13.24,13.24,0,0,0,3.08,3.08.5.5,0,0,0,.65,0l1.48-1.49a1,1,0,0,1,1.11-.19,9.94,9.94,0,0,0,1.39.58,1,1,0,0,1,.65.92v2.1a.5.5,0,0,0,.42.49,13.29,13.29,0,0,0,4.36,0,.5.5,0,0,0,.42-.49v-2.1a1,1,0,0,1,.65-.92,9.94,9.94,0,0,0,1.39-.58,1,1,0,0,1,1.11.19l1.48,1.49a.5.5,0,0,0,.65,0,13,13,0,0,0,3.08-3.08.5.5,0,0,0,0-.65l-1.49-1.48a1,1,0,0,1-.19-1.11,9.94,9.94,0,0,0,.58-1.39,1,1,0,0,1,.92-.65h2.11a.49.49,0,0,0,.48-.41,13.35,13.35,0,0,0,0-4.37.5.5,0,0,0-.49-.42h-2.1a1,1,0,0,1-.92-.65,9.94,9.94,0,0,0-.58-1.39,1,1,0,0,1,.19-1.11l1.49-1.48a.5.5,0,0,0,0-.65,13,13,0,0,0-3.08-3.08.5.5,0,0,0-.65,0l-1.48,1.49a1,1,0,0,1-1.11.19,9.94,9.94,0,0,0-1.39-.58,1,1,0,0,1-.65-.92v-2.1a.5.5,0,0,0-.42-.49,13.29,13.29,0,0,0-4.36,0,.5.5,0,0,0-.42.49v2.1a1,1,0,0,1-.65.92,9.94,9.94,0,0,0-1.39.58,1,1,0,0,1-1.11-.19l-1.48-1.49a.5.5,0,0,0-.65,0,13.24,13.24,0,0,0-3.08,3.08.5.5,0,0,0,0,.65l1.49,1.48a1,1,0,0,1,.19,1.11,9.94,9.94,0,0,0-.58,1.39,1,1,0,0,1-.92.65h-2.1a.5.5,0,0,0-.49.42,13.29,13.29,0,0,0,0,4.36Z" style="fill: #3d3d3d"/>
      <circle cx="97.5" cy="332.5" r="10.34" style="fill: #545454"/>
      <path d="M96.21,345.94V332.5h2.58v13.44s-.56.06-1.29.06S96.21,345.94,96.21,345.94Z" style="fill: #f3f3f3"/>
      <g>
        <path d="M98.79,345.94v-4.19a.94.94,0,0,1,.73-.92,8.6,8.6,0,1,0-4,0,1,1,0,0,1,.73.93v4.19" style="fill: #f3f3f3"/>
        <path d="M99.08,345.94H98.5v-4.19a1.23,1.23,0,0,1,1-1.2,8.31,8.31,0,1,0-3.91,0,1.26,1.26,0,0,1,1,1.21v4.19h-.58v-4.19a.65.65,0,0,0-.51-.64,8.87,8.87,0,1,1,4.17,0,.65.65,0,0,0-.5.64Z" style="fill: #b2b2b2"/>
      </g>
    </g>
    <g>
      <path d="M34.9,259.18a.49.49,0,0,0-.4.49v0a.46.46,0,0,1-.36.45,12,12,0,0,0-3.53,1.51.44.44,0,0,1-.56-.06l0,0a.46.46,0,0,0-.62,0,13.38,13.38,0,0,0-3,3.08.53.53,0,0,0,.06.65h0a.48.48,0,0,1,.06.58,12.75,12.75,0,0,0-1.48,3.7.45.45,0,0,1-.43.35h0a.49.49,0,0,0-.48.42,14.06,14.06,0,0,0,0,4.36.49.49,0,0,0,.48.42h0a.45.45,0,0,1,.43.35,12.75,12.75,0,0,0,1.48,3.7.48.48,0,0,1-.06.58h0a.53.53,0,0,0-.06.65,13.67,13.67,0,0,0,1.37,1.67,12.61,12.61,0,0,0,1.6,1.41.46.46,0,0,0,.62,0l0,0a.44.44,0,0,1,.56-.06,12,12,0,0,0,3.53,1.51.46.46,0,0,1,.36.45v.07a.46.46,0,0,0,.37.46A12.41,12.41,0,0,0,37,286a12.06,12.06,0,0,0,2.1-.18.49.49,0,0,0,.4-.49v-.06a.47.47,0,0,1,.35-.46,12,12,0,0,0,3.5-1.52.44.44,0,0,1,.56.06l.06.06a.46.46,0,0,0,.62,0,12.61,12.61,0,0,0,1.6-1.41,13.67,13.67,0,0,0,1.37-1.67.53.53,0,0,0-.06-.65l-.06-.06a.5.5,0,0,1-.07-.59,12.77,12.77,0,0,0,1.45-3.62.45.45,0,0,1,.44-.36h.09a.49.49,0,0,0,.48-.42,14.06,14.06,0,0,0,0-4.36.49.49,0,0,0-.48-.42h-.09a.45.45,0,0,1-.44-.36,12.77,12.77,0,0,0-1.45-3.62.5.5,0,0,1,.07-.59l.06-.06a.53.53,0,0,0,.06-.65,13.38,13.38,0,0,0-3-3.08.46.46,0,0,0-.62,0l-.06.06a.44.44,0,0,1-.56.06,12,12,0,0,0-3.5-1.52.47.47,0,0,1-.35-.46v-.06a.49.49,0,0,0-.4-.49,12.34,12.34,0,0,0-4.2,0Z" style="fill: #2d2d2d"/>
      <path d="M34.9,259.18a.49.49,0,0,0-.4.49v2.1a1,1,0,0,1-.63.92,8.77,8.77,0,0,0-1.33.58.93.93,0,0,1-1.08-.19L30,261.59a.46.46,0,0,0-.62,0,13.38,13.38,0,0,0-3,3.08.53.53,0,0,0,.06.65l1.43,1.48a1,1,0,0,1,.18,1.11,9.8,9.8,0,0,0-.55,1.39.94.94,0,0,1-.89.65h-2a.49.49,0,0,0-.48.42,14.06,14.06,0,0,0,0,4.36.49.49,0,0,0,.48.42h2a.94.94,0,0,1,.89.65,9.8,9.8,0,0,0,.55,1.39,1,1,0,0,1-.18,1.11l-1.43,1.48a.53.53,0,0,0-.06.65,13.67,13.67,0,0,0,1.37,1.67,12.61,12.61,0,0,0,1.6,1.41.46.46,0,0,0,.62,0l1.43-1.49a.93.93,0,0,1,1.08-.19,8.77,8.77,0,0,0,1.33.58,1,1,0,0,1,.63.92v2.11a.48.48,0,0,0,.39.48A12.26,12.26,0,0,0,37,286a12.06,12.06,0,0,0,2.1-.18.49.49,0,0,0,.4-.49v-2.1a1,1,0,0,1,.63-.92,8.77,8.77,0,0,0,1.33-.58.93.93,0,0,1,1.08.19L44,283.41a.46.46,0,0,0,.62,0,12.61,12.61,0,0,0,1.6-1.41,13.67,13.67,0,0,0,1.37-1.67.53.53,0,0,0-.06-.65l-1.43-1.48a1,1,0,0,1-.18-1.11,9.8,9.8,0,0,0,.55-1.39.94.94,0,0,1,.89-.65h2a.49.49,0,0,0,.48-.42,14.06,14.06,0,0,0,0-4.36.49.49,0,0,0-.48-.42h-2a.94.94,0,0,1-.89-.65,9.8,9.8,0,0,0-.55-1.39,1,1,0,0,1,.18-1.11l1.43-1.48a.53.53,0,0,0,.06-.65,13.38,13.38,0,0,0-3-3.08.46.46,0,0,0-.62,0l-1.43,1.49a.93.93,0,0,1-1.08.19,8.77,8.77,0,0,0-1.33-.58,1,1,0,0,1-.63-.92v-2.1a.49.49,0,0,0-.4-.49,12.34,12.34,0,0,0-4.2,0Z" style="fill: #3d3d3d"/>
      <ellipse cx="37" cy="272.5" rx="9.96" ry="10.34" style="fill: #545454"/>
      <path d="M24.06,271.21H37v2.58H24.06s-.06-.56-.06-1.29S24.06,271.21,24.06,271.21Z" style="fill: #f3f3f3"/>
      <g>
        <path d="M24.06,273.79h4a.93.93,0,0,1,.89.73,8.32,8.32,0,0,0,8.25,6.55A8.59,8.59,0,0,0,37,263.92a8.33,8.33,0,0,0-8,6.56.93.93,0,0,1-.89.73h-4" style="fill: #f3f3f3"/>
        <path d="M37,281.36a8.64,8.64,0,0,1-8.3-6.78.64.64,0,0,0-.62-.5h-4v-.57h4a1.21,1.21,0,0,1,1.17.94,8.05,8.05,0,0,0,8,6.34A8.15,8.15,0,0,0,45,272.91a8.5,8.5,0,0,0-2.3-6.25A7.78,7.78,0,0,0,37,264.21a8,8,0,0,0-7.74,6.33,1.21,1.21,0,0,1-1.17.95h-4v-.57h4a.65.65,0,0,0,.62-.51A8.57,8.57,0,0,1,37,263.64a8.31,8.31,0,0,1,6.07,2.63,9.06,9.06,0,0,1,2.46,6.67,8.74,8.74,0,0,1-8.3,8.42Z" style="fill: #b2b2b2"/>
      </g>
    </g>
  </g>
</svg>
