<svg id="Layer_1" data-name="Layer 1" xmlns="http://www.w3.org/2000/svg" width="195" height="380" viewBox="0 0 195 380">
  <title>BlackHolesBG</title>
  <rect width="195" height="380" style="fill: #e5e5e5"/>
  <g>
    <g>
      <circle cx="23" cy="6" r="5.73633" style="fill: #bcbcbc"/>
      <path d="M23,.52747A5.47253,5.47253,0,1,1,17.52751,6,5.47874,5.47874,0,0,1,23,.52747M23,0a6,6,0,1,0,6,6,6,6,0,0,0-6-6Z" style="fill: gray"/>
    </g>
    <polygon points="26.495 5.341 23.659 5.341 23.659 2.505 22.341 2.505 22.341 5.341 19.506 5.341 19.506 6.659 22.341 6.659 22.341 9.495 23.659 9.495 23.659 6.659 26.495 6.659 26.495 5.341" style="fill: #6e6e6e"/>
  </g>
  <g>
    <g>
      <circle cx="172" cy="6" r="5.73633" style="fill: #bcbcbc"/>
      <path d="M172,.52747A5.47253,5.47253,0,1,1,166.52751,6,5.47874,5.47874,0,0,1,172,.52747M172,0a6,6,0,1,0,6,6,6,6,0,0,0-6-6Z" style="fill: gray"/>
    </g>
    <polygon points="175.495 5.341 172.659 5.341 172.659 2.505 171.341 2.505 171.341 5.341 168.506 5.341 168.506 6.659 171.341 6.659 171.341 9.495 172.659 9.495 172.659 6.659 175.495 6.659 175.495 5.341" style="fill: #6e6e6e"/>
  </g>
  <g>
    <g>
      <circle cx="23" cy="374" r="5.73633" style="fill: #bcbcbc"/>
      <path d="M23,368.52747A5.47253,5.47253,0,1,1,17.52751,374,5.47873,5.47873,0,0,1,23,368.52747M23,368a6,6,0,1,0,6,6,6,6,0,0,0-6-6Z" style="fill: gray"/>
    </g>
    <polygon points="26.495 373.341 23.659 373.341 23.659 370.505 22.341 370.505 22.341 373.341 19.506 373.341 19.506 374.659 22.341 374.659 22.341 377.495 23.659 377.495 23.659 374.659 26.495 374.659 26.495 373.341" style="fill: #6e6e6e"/>
  </g>
  <g>
    <g>
      <circle cx="172" cy="374" r="5.73633" style="fill: #bcbcbc"/>
      <path d="M172,368.52747A5.47253,5.47253,0,1,1,166.52751,374,5.47873,5.47873,0,0,1,172,368.52747M172,368a6,6,0,1,0,6,6,6,6,0,0,0-6-6Z" style="fill: gray"/>
    </g>
    <polygon points="175.495 373.341 172.659 373.341 172.659 370.505 171.341 370.505 171.341 373.341 168.506 373.341 168.506 374.659 171.341 374.659 171.341 377.495 172.659 377.495 172.659 374.659 175.495 374.659 175.495 373.341" style="fill: #6e6e6e"/>
  </g>
  <g>
    <path d="M108.37012,93.98A.82708.82708,0,0,1,108,92.8706h0a.83047.83047,0,0,1,1.10938-.37011h0a.81938.81938,0,0,1,.37011,1.10937h0a.81586.81586,0,0,1-.73926.46094h0A.8336.8336,0,0,1,108.37012,93.98Zm2.00976-4.30957a.8383.8383,0,0,1-.46972-1.08008h.00976a.81111.81111,0,0,1,1.07031-.46h0a.82275.82275,0,0,1,.46,1.07031H111.46a.84072.84072,0,0,1-.78027.5293h0A.80013.80013,0,0,1,110.37988,89.67041Zm1.62989-4.48047a.83456.83456,0,0,1-.55957-1.0293h0a.83949.83949,0,0,1,1.02929-.56054h0a.82791.82791,0,0,1,.56055,1.03027h0a.82246.82246,0,0,1-.79.59961h0A.66758.66758,0,0,1,112.00977,85.18994Zm1.15039-4.60937a.84327.84327,0,0,1-.68067-.96h0a.83351.83351,0,0,1,.9502-.68066h0a.828.828,0,0,1,.69043.9502h0a.83538.83538,0,0,1-.82032.70019h0C113.25,80.59033,113.21,80.58057,113.16016,80.58057Zm.62011-4.73047a.82046.82046,0,0,1-.7705-.87989h0a.8209.8209,0,0,1,.87988-.76953h0a.82752.82752,0,0,1,.77051.87989h0a.82152.82152,0,0,1-.82032.76953h-.05957ZM113.16016,70.27h.00976A.82814.82814,0,0,1,114,69.43994h0a.81907.81907,0,0,1,.81934.83008h0a.82731.82731,0,0,1-.82911.83008h0A.83441.83441,0,0,1,113.16016,70.27Zm-.07032-4.73926a.82643.82643,0,0,1,.79981-.85059h0a.81477.81477,0,0,1,.85058.79981h0a.82935.82935,0,0,1-.80078.86035h-.01953A.83032.83032,0,0,1,113.08984,65.53076Z" style="fill: #ff4257"/>
    <path d="M113.85938,100.13037a.83123.83123,0,0,1,.18066-1.16016h0a.83313.83313,0,0,1,1.16016.19043h0a.83313.83313,0,0,1-.19043,1.16016h0a.85191.85191,0,0,1-.4795.14941h0A.826.826,0,0,1,113.85938,100.13037ZM117.7002,97.23a.82711.82711,0,0,1,.10937-1.16992h0a.82508.82508,0,0,1,1.16016.11035h0a.81533.81533,0,0,1-.09961,1.16016h0a.857.857,0,0,1-.53028.20019h0A.844.844,0,0,1,117.7002,97.23Zm3.62988-3.15918a.83456.83456,0,0,1,.0293-1.1709h0a.8171.8171,0,0,1,1.17089.03027h0a.82445.82445,0,0,1-.0205,1.16993h0a.86894.86894,0,0,1-.58008.23047h0A.84251.84251,0,0,1,121.33008,94.0708Zm3.41015-3.40039a.82417.82417,0,0,1-.05078-1.16992h0a.8345.8345,0,0,1,1.16993-.06055h0a.82456.82456,0,0,1,.05078,1.16992h0a.83043.83043,0,0,1-.61036.28028h0A.85792.85792,0,0,1,124.74023,90.67041Zm3.15918-3.63965a.83357.83357,0,0,1-.14941-1.1709h0a.83871.83871,0,0,1,1.16992-.13965h0a.83793.83793,0,0,1,.13965,1.16993h0a.86451.86451,0,0,1-.66016.31054h0A.80232.80232,0,0,1,127.89941,87.03076Zm2.88086-3.86035a.82177.82177,0,0,1-.21093-1.15039h0a.82083.82083,0,0,1,1.15039-.21h0a.82947.82947,0,0,1,.21,1.15039h0a.83747.83747,0,0,1-.67969.36035h0A.8439.8439,0,0,1,130.78027,83.17041Zm2.63965-4.02051a.83039.83039,0,0,1-.28027-1.13965h0a.82814.82814,0,0,1,1.14062-.28027h0a.82535.82535,0,0,1,.2793,1.12988h0a.83713.83713,0,0,1-.71.41016h0A.84664.84664,0,0,1,133.41992,79.1499Zm2.39942-4.18945A.82239.82239,0,0,1,135.46,73.8501h0a.83005.83005,0,0,1,1.12012-.35938h0a.835.835,0,0,1,.34961,1.11914h0a.846.846,0,0,1-.74024.4502h0A.73308.73308,0,0,1,135.81934,74.96045Zm2.11035-4.32031A.82852.82852,0,0,1,137.5,69.55029h0a.82851.82851,0,0,1,1.08984-.42969h0a.8285.8285,0,0,1,.42969,1.08985h0a.8271.8271,0,0,1-.75976.5h0A.78816.78816,0,0,1,137.92969,70.64014Z" style="fill: #ff4257"/>
  </g>
  <g>
    <path d="M80.25,151.52a.84085.84085,0,0,1,.7998-.85938h0a.84316.84316,0,0,1,.86036.80957h0a.84229.84229,0,0,1-.81055.85059h-.01953A.82856.82856,0,0,1,80.25,151.52Zm-.08008-4.79h0A.83441.83441,0,0,1,81,145.8999h0a.82814.82814,0,0,1,.83008.83008h0A.82814.82814,0,0,1,81,147.56006h0A.83442.83442,0,0,1,80.16992,146.73Zm.92969-3.92969a.83644.83644,0,0,1-.76953-.88965h0a.84322.84322,0,0,1,.88965-.7705h0a.84482.84482,0,0,1,.7705.89062h0a.838.838,0,0,1-.83007.76953h-.06055Zm.46-4.74023a.83209.83209,0,0,1-.67969-.9502h0a.83175.83175,0,0,1,.9502-.68945h0a.83908.83908,0,0,1,.68945.95019h0a.83436.83436,0,0,1-.81933.7002h0C81.64941,138.0708,81.60938,138.06006,81.55957,138.06006Zm.96-4.66992A.80494.80494,0,0,1,81.96,132.3706h0a.82272.82272,0,0,1,1.01953-.57031h0a.84148.84148,0,0,1,.57031,1.03028h0a.84414.84414,0,0,1-.7998.5996h0A.58491.58491,0,0,1,82.51953,133.39014Zm1.49024-4.51954a.81818.81818,0,0,1-.46-1.07031H83.54a.82979.82979,0,0,1,1.08008-.46972h0a.84633.84633,0,0,1,.46972,1.08007h0a.83475.83475,0,0,1-.7705.51953h0A.81245.81245,0,0,1,84.00977,128.8706Zm1.87988-4.37011a.82565.82565,0,0,1-.37012-1.11035h0a.81191.81191,0,0,1,1.10059-.37012h0A.824.824,0,0,1,87,124.1206h0v.00977h0a.82957.82957,0,0,1-.74023.4502h0A.77816.77816,0,0,1,85.88965,124.50049Z" style="fill: #ff4257"/>
    <path d="M56.41016,147.88037a.82164.82164,0,0,1-.43067-1.08984h0a.83009.83009,0,0,1,1.08985-.43067h0A.83037.83037,0,0,1,57.5,147.45068v-.01074a.83241.83241,0,0,1-.75977.51074h0A.785.785,0,0,1,56.41016,147.88037Zm2.00976-4.37012a.8295.8295,0,0,1-.35058-1.12011h0a.82208.82208,0,0,1,1.11035-.35938h0A.82957.82957,0,0,1,59.54,143.1499h0a.84835.84835,0,0,1-.74024.4502h0A.84177.84177,0,0,1,58.41992,143.51025ZM60.71973,139.27a.81755.81755,0,0,1-.28028-1.12988h0a.81173.81173,0,0,1,1.12989-.29h0a.8251.8251,0,0,1,.29,1.14062h0a.82733.82733,0,0,1-.71.39942h0A.8466.8466,0,0,1,60.71973,139.27Zm2.56054-4.08008a.83144.83144,0,0,1-.2207-1.14941h0a.834.834,0,0,1,1.16016-.21h0a.8283.8283,0,0,1,.21,1.14941h0a.83488.83488,0,0,1-.67969.36035h0A.81348.81348,0,0,1,63.28027,135.18994Zm2.79981-3.90918a.84111.84111,0,0,1-.14063-1.1709h0a.82705.82705,0,0,1,1.16016-.13965h0a.82767.82767,0,0,1,.15039,1.16016h0a.8434.8434,0,0,1-.66016.32031h0A.87035.87035,0,0,1,66.08008,131.28076Zm3.05957-3.73047a.82454.82454,0,0,1-.04981-1.16992h0a.82369.82369,0,0,1,1.16993-.0498h0a.83293.83293,0,0,1,.0498,1.16992h0a.82048.82048,0,0,1-.60937.26953h0A.81006.81006,0,0,1,69.13965,127.55029Zm3.33008-3.47949a.82476.82476,0,0,1,.0205-1.1709h0a.83654.83654,0,0,1,1.17969.03027h0a.83362.83362,0,0,1-.03027,1.16993h0a.85074.85074,0,0,1-.58008.23047h0A.821.821,0,0,1,72.46973,124.0708Zm3.5498-3.24023a.83689.83689,0,0,1,.11035-1.16993h0a.83685.83685,0,0,1,1.16992.10938h0a.836.836,0,0,1-.11035,1.16992h0a.85694.85694,0,0,1-.52929.19043h0A.82911.82911,0,0,1,76.01953,120.83057Zm3.78027-2.99024a.82365.82365,0,0,1,.19043-1.16016h0a.819.819,0,0,1,1.14942.19043h0A.81861.81861,0,0,1,80.9502,118.02h0a.77162.77162,0,0,1-.48047.16015h0A.82554.82554,0,0,1,79.7998,117.84033Z" style="fill: #ff4257"/>
  </g>
  <g>
    <path d="M81.87012,98.00049h0A.83413.83413,0,0,1,81.5,96.89014h0A.8114.8114,0,0,1,82.60938,96.52v-.00977a.83639.83639,0,0,1,.38085,1.11035h0a.84263.84263,0,0,1-.75.46h0A.83137.83137,0,0,1,81.87012,98.00049Zm-4.28028-1.91992h0a.82628.82628,0,0,1-.46-1.07032h0a.831.831,0,0,1,1.07032-.46972h0a.8298.8298,0,0,1,.46972,1.08007h0a.84485.84485,0,0,1-.77051.51954h0A.81268.81268,0,0,1,77.58984,96.08057Zm-4.42968-1.54a.8148.8148,0,0,1-.55078-1.03028h0a.81824.81824,0,0,1,1.0205-.55957h0a.8275.8275,0,0,1,.55957,1.0293h0a.82162.82162,0,0,1-.79.60059h0A.66244.66244,0,0,1,73.16016,94.54053Zm-4.54-1.03028a.81545.81545,0,0,1-.68067-.95019h0a.83208.83208,0,0,1,.9502-.67969h0a.83519.83519,0,0,1,.69043.9502h0a.83537.83537,0,0,1-.82031.70019h0A.68869.68869,0,0,1,68.62012,93.51025ZM63.2002,92.1001a.83279.83279,0,0,1,.87988-.76953h0a.82264.82264,0,0,1,.76953.88964h0a.82892.82892,0,0,1-.87988.77051h0A.83644.83644,0,0,1,63.2002,92.1001Zm-9.52051,0a.82512.82512,0,0,1,.7998-.84961h0a.821.821,0,0,1,.85059.7998h0a.82915.82915,0,0,1-.79981.86035h-.0205A.83048.83048,0,0,1,53.67969,92.1001Zm5.58984.73047a.82814.82814,0,0,1-.83008-.83008h0a.82814.82814,0,0,1,.83008-.83008h0a.83441.83441,0,0,1,.83008.83008h0a.83441.83441,0,0,1-.83008.83008Z" style="fill: #ff4257"/>
    <path d="M87.96973,91.95068a.82.82,0,0,1,.19043-1.15039h0a.82236.82236,0,0,1,1.15918.19043h0a.828.828,0,0,1-.18946,1.14942h0a.81243.81243,0,0,1-.48047.16015h0A.82668.82668,0,0,1,87.96973,91.95068Zm-2.91016-3.76074h0A.83607.83607,0,0,1,85.16992,87.02h0a.83779.83779,0,0,1,1.16992.11035h-.00976a.82693.82693,0,0,1-.10059,1.16992h0a.842.842,0,0,1-.52929.19043h0A.83009.83009,0,0,1,85.05957,88.18994Zm-3.16016-3.5498h0a.82427.82427,0,0,1,.03028-1.16993h0a.82357.82357,0,0,1,1.16992.02051h0a.8325.8325,0,0,1-.03027,1.16992h0a.79667.79667,0,0,1-.56934.2295h0A.81835.81835,0,0,1,81.89941,84.64014ZM78.5,81.31006a.83445.83445,0,0,1-.06055-1.16992h0a.8349.8349,0,0,1,1.16993-.05957h0a.83643.83643,0,0,1,.06054,1.17968h0a.822.822,0,0,1-.61035.27051h0A.856.856,0,0,1,78.5,81.31006Zm-3.64062-3.05957a.83986.83986,0,0,1-.13965-1.16992h0a.84.84,0,0,1,1.16992-.14063h0a.82718.82718,0,0,1,.14062,1.16016h0a.8448.8448,0,0,1-.66015.32031h0A.87332.87332,0,0,1,74.85938,78.25049Zm-3.83985-2.82032a.82126.82126,0,0,1-.21-1.14941h0a.8309.8309,0,0,1,1.15039-.2207h0a.843.843,0,0,1,.21,1.16015h0a.83488.83488,0,0,1-.67969.36036h0A.81869.81869,0,0,1,71.01953,75.43017Zm-4.00976-2.57031a.843.843,0,0,1-.29-1.13965h0a.83148.83148,0,0,1,1.13965-.28027h0a.82858.82858,0,0,1,.29,1.13086h0a.83706.83706,0,0,1-.71.40918h0A.82085.82085,0,0,1,67.00977,72.85986Zm-4.16016-2.31933h0a.83005.83005,0,0,1-.35938-1.12012h0a.82957.82957,0,0,1,1.11915-.36035h0a.83041.83041,0,0,1,.36035,1.12011h0a.8285.8285,0,0,1-.74024.4502h0A.85474.85474,0,0,1,62.84961,70.54053Zm-4.29981-2.04h0a.83209.83209,0,0,1-.42968-1.08985h0A.82164.82164,0,0,1,59.21,66.98h0a.81871.81871,0,0,1,.42969,1.08008h0a.81043.81043,0,0,1-.75977.5h0A.9589.9589,0,0,1,58.5498,68.50049Z" style="fill: #ff4257"/>
  </g>
  <g>
    <path d="M134.89941,124.99072a.81381.81381,0,0,1,.83008-.82031h0a.82814.82814,0,0,1,.83008.83008h0a.83244.83244,0,0,1-.83008.82031h0A.82814.82814,0,0,1,134.89941,124.99072Zm4.76075-.05078a.827.827,0,0,1,.80957-.84961h0a.81918.81918,0,0,1,.84961.79981h0a.82673.82673,0,0,1-.79981.85058h-.0293A.83509.83509,0,0,1,139.66016,124.93994Zm-8.74024.7207a.83587.83587,0,0,1-.78027-.87988h0a.83083.83083,0,0,1,.89062-.77051h0a.82815.82815,0,0,1,.76953.87989h0a.83063.83063,0,0,1-.83007.7705h-.04981Zm-4.81054-.54a.83749.83749,0,0,1-.68946-.95019h0a.83317.83317,0,0,1,.9502-.69043h0a.83982.83982,0,0,1,.68945.95019h0a.83437.83437,0,0,1-.81934.7002h0C126.18945,125.13037,126.14941,125.1206,126.10938,125.1206Zm-4.75-1.07031a.851.851,0,0,1-.55958-1.04h0a.83236.83236,0,0,1,1.03028-.55957h0a.8411.8411,0,0,1,.56933,1.0293h0a.83015.83015,0,0,1-.7998.60059h0A.96406.96406,0,0,1,121.35938,124.05029Zm-4.55958-1.59961a.82289.82289,0,0,1-.46972-1.07031h0a.8298.8298,0,0,1,1.08008-.46973h0a.83329.83329,0,0,1,.46,1.08008h0a.83476.83476,0,0,1-.77051.51953h0A.80013.80013,0,0,1,116.7998,122.45068Zm-4.41015-1.9707a.83084.83084,0,0,1-.37988-1.10938h0a.8426.8426,0,0,1,1.12011-.37011h0a.83619.83619,0,0,1,.37012,1.10937h0a.84009.84009,0,0,1-.74023.46094h0A.8033.8033,0,0,1,112.38965,120.48Z" style="fill: #ff4257"/>
    <path d="M135.79,150.02h0a.82976.82976,0,0,1-.43066-1.08985h0a.83075.83075,0,0,1,1.09082-.42968h0a.82932.82932,0,0,1,.42968,1.08984h0a.83842.83842,0,0,1-.75976.5h0A.7703.7703,0,0,1,135.79,150.02Zm-4.40039-2.08985a.81988.81988,0,0,1-.35938-1.10937h0a.82956.82956,0,0,1,1.11914-.36035h0a.81869.81869,0,0,1,.35059,1.12012h0a.82405.82405,0,0,1-.73047.45019h0A.74343.74343,0,0,1,131.38965,147.93017Zm-4.25-2.37011a.83822.83822,0,0,1-.29-1.13965h0a.83153.83153,0,0,1,1.14062-.28027h0a.81684.81684,0,0,1,.2793,1.12988h0a.82389.82389,0,0,1-.71.41015h0A.81261.81261,0,0,1,127.13965,145.56006ZM123.04,142.93017a.82041.82041,0,0,1-.21-1.14941h0a.818.818,0,0,1,1.14941-.21h0a.8274.8274,0,0,1,.21,1.14941h0a.83356.83356,0,0,1-.67968.36036h0A.81349.81349,0,0,1,123.04,142.93017Zm-3.93066-2.87011a.83976.83976,0,0,1-.13965-1.16992h0a.83758.83758,0,0,1,1.16992-.13965h0a.848.848,0,0,1,.14062,1.16992h0a.865.865,0,0,1-.66015.30957h0A.80486.80486,0,0,1,119.10938,140.06006Zm-3.7295-3.14942h0a.82411.82411,0,0,1-.0498-1.16992h0a.82413.82413,0,0,1,1.16992-.05078h0a.825.825,0,0,1,.0498,1.16992h0a.80337.80337,0,0,1-.61035.27051h0A.8139.8139,0,0,1,115.37988,136.91064Zm-3.48047-3.40039a.84532.84532,0,0,1,.03028-1.17968h0a.83335.83335,0,0,1,1.16992.02929h0a.81542.81542,0,0,1-.03027,1.1709h0a.78491.78491,0,0,1-.56934.22949h0A.83412.83412,0,0,1,111.89941,133.51025Zm-3.23925-3.63965a.8359.8359,0,0,1,.10937-1.16992h0a.827.827,0,0,1,1.16992.10938h0a.825.825,0,0,1-.10937,1.16015h0a.80476.80476,0,0,1-.53028.19043h0A.85326.85326,0,0,1,108.66016,129.8706Zm-2.98047-3.86035h0a.83311.83311,0,0,1,.19043-1.16015h0a.84206.84206,0,0,1,1.16015.19043h0a.84056.84056,0,0,1-.19043,1.16015h0a.82483.82483,0,0,1-.49023.15918h0A.8197.8197,0,0,1,105.67969,126.01025Z" style="fill: #ff4257"/>
  </g>
  <g>
    <path d="M41.93945,7.23h2.96a2.118,2.118,0,0,1,1.51758.63769,2.32561,2.32561,0,0,1,.61621,1.585,2.73709,2.73709,0,0,1-.10937.792,1.97574,1.97574,0,0,1,.39551.34082l-.01075-.01074a2.43151,2.43151,0,0,1,.80274,1.793,2.62076,2.62076,0,0,1-.792,1.88086,2.73949,2.73949,0,0,1-1.92481.81446H41.93945Zm2.96,2.56348c.13184-.01075.24219-.209.24219-.34082a.38622.38622,0,0,0-.24219-.3418H43.832v.68262Zm.49512,3.38867a.82257.82257,0,0,0,.8252-.81446c0-.44042-.374-.68261-.8252-.7041H43.832v1.51856Z" style="fill: #1d1d1b"/>
    <path d="M52.69824,7.23h1.90332v5.95215h3.71875V15.063H52.69824Z" style="fill: #1d1d1b"/>
    <path d="M67.24121,13.28076H65.041L64.34766,15.063H62.32324L65.33789,7.23h1.60645l3.02539,7.833H67.91211Zm-1.10058-3.01465-.374,1.14453h.73731Z" style="fill: #1d1d1b"/>
    <path d="M79.59473,12.18017l1.50683,1.11133a4.14526,4.14526,0,0,1-3.41015,1.88184,4.07617,4.07617,0,1,1,0-8.15234,4.2268,4.2268,0,0,1,3.4541,1.91406l-1.5293,1.12207a2.375,2.375,0,0,0-1.9248-1.15528,2.18946,2.18946,0,1,0,0,4.37891A2.29467,2.29467,0,0,0,79.59473,12.18017Z" style="fill: #1d1d1b"/>
    <path d="M88.35938,11.38818c-.26368.24219-.53907.51758-.85743.81446V15.063H85.60938V7.23h1.89257V9.61767L90.043,7.23h2.75L89.79,10.06787c1.07812,1.50781,2.57422,3.59766,3.56445,4.99512h-2.376Z" style="fill: #1d1d1b"/>
    <path d="M107.97363,11.73H105.542v3.333h-1.90332V7.23H105.542V9.84814h2.43164V7.23h1.91407v7.833h-1.91407Z" style="fill: #1d1d1b"/>
    <path d="M122.53809,11.10205a4.07618,4.07618,0,1,1-4.082-4.081A4.09,4.09,0,0,1,122.53809,11.10205Zm-1.92579,0a2.16163,2.16163,0,1,0-2.15625,2.168A2.18333,2.18333,0,0,0,120.6123,11.10205Z" style="fill: #1d1d1b"/>
    <path d="M127.14551,7.23h1.90332v5.95215h3.71875V15.063h-5.62207Z" style="fill: #1d1d1b"/>
    <path d="M137.45313,7.23h5.33593V9.1001h-3.42187V9.771h2.99219v1.90332h-2.99219v1.49609h3.34472V15.063h-5.25878Z" style="fill: #1d1d1b"/>
    <path d="M149.67285,15.04053a5.29215,5.29215,0,0,1-2.45312-1.33106l1.25488-1.44043a3.24445,3.24445,0,0,0,1.584.92383,1.88343,1.88343,0,0,0,.418.05469,1.2931,1.2931,0,0,0,.57227-.1211.57067.57067,0,0,0,.3623-.50586c0-.30761-.57129-.49511-1.0664-.59375a7.54092,7.54092,0,0,1-1.73828-.53906,2.16009,2.16009,0,0,1-1.13379-1.94726,2.28293,2.28293,0,0,1,.40722-1.27637,2.54064,2.54064,0,0,1,1.0127-.81445l-.01172.01074a3.1927,3.1927,0,0,1,1.34277-.29688,3.84146,3.84146,0,0,1,.583.04395,4.57744,4.57744,0,0,1,2.25488,1.15527l-1.21,1.45215a2.42792,2.42792,0,0,0-1.65039-.76953,1.119,1.119,0,0,0-.50586.10937.45576.45576,0,0,0-.31933.38575c0,.29687.39648.43945,1.03418.57129.0664.02246.14355.02246.2207.04492a5.80092,5.80092,0,0,1,1.48437.47265h-.01074a2.19157,2.19157,0,0,1,1.21,1.99121,2.30784,2.30784,0,0,1-.418,1.375,2.71055,2.71055,0,0,1-1.04492.83594,2.86094,2.86094,0,0,1-1.38574.29785A3.68089,3.68089,0,0,1,149.67285,15.04053Z" style="fill: #1d1d1b"/>
  </g>
  <g>
    <path d="M50.40234,25.38428c-.00879,1.46386-.57031,2.35742-2.17675,2.35742-.9795,0-1.94825-.4375-2.03418-1.48242H46.79a1.28976,1.28976,0,0,0,1.43555.97851c1.10254,0,1.57812-.65527,1.57812-1.85351v-.665h-.01855A1.70242,1.70242,0,0,1,48.22559,25.727c-1.56836,0-2.21485-1.12207-2.21485-2.51953a2.2442,2.2442,0,0,1,2.21485-2.47168,1.72868,1.72868,0,0,1,1.55957.98828h.01855v-.8457h.59863Zm-.59863-2.11036c0-.96-.44726-2.03417-1.57812-2.03417-1.14063,0-1.61621,1.01757-1.61621,2.03417,0,.98926.51367,1.94922,1.61621,1.94922C49.26172,25.22314,49.80371,24.272,49.80371,23.27392Z" style="fill: #1d1d1b"/>
    <path d="M51.54,20.87842h.55176v1.15039h.01855a1.81277,1.81277,0,0,1,1.85352-1.2168v.59863a1.69014,1.69014,0,0,0-1.8252,1.75879v2.61426H51.54Z" style="fill: #1d1d1b"/>
    <path d="M54.47559,22.38037c.05664-1.15039.86425-1.64453,1.98632-1.64453.86524,0,1.80664.2666,1.80664,1.57812v2.6045a.31851.31851,0,0,0,.35157.36132.55426.55426,0,0,0,.19043-.03808v.5039a1.66177,1.66177,0,0,1-.39063.03809c-.6084,0-.70312-.3418-.70312-.85547h-.01856a1.87169,1.87169,0,0,1-1.78711.998c-.90332,0-1.6455-.44629-1.6455-1.43555,0-1.37793,1.34082-1.42578,2.63378-1.57812.49414-.05664.76954-.12305.76954-.665,0-.8086-.57911-1.00781-1.28321-1.00781-.74121,0-1.293.34179-1.31152,1.14062ZM57.669,23.103h-.01856c-.07617.14257-.3418.19043-.50391.21875-1.01757.18066-2.28125.17089-2.28125,1.13086a1.02153,1.02153,0,0,0,1.09278.96972,1.57656,1.57656,0,0,0,1.71094-1.54Z" style="fill: #1d1d1b"/>
    <path d="M58.91113,20.87842h.666l1.54,4.30664h.01855l1.52149-4.30664h.61816l-1.835,4.90527h-.63672Z" style="fill: #1d1d1b"/>
    <path d="M63.87109,18.99658h.59864v.96h-.59864Zm0,1.88184h.59864v4.90527h-.59864Z" style="fill: #1d1d1b"/>
    <path d="M66.57031,20.87842h.998v.5039h-.998v3.3086c0,.38965.05664.61718.48438.6455a4.53782,4.53782,0,0,0,.51367-.02832v.51368c-.18066,0-.35254.01855-.5332.01855-.79786,0-1.07422-.26562-1.06446-1.10254V21.38232h-.85547v-.5039h.85547V19.40478h.59961Z" style="fill: #1d1d1b"/>
    <path d="M68.374,22.38037c.05664-1.15039.86426-1.64453,1.98633-1.64453.86524,0,1.80664.2666,1.80664,1.57812v2.6045a.31851.31851,0,0,0,.35156.36132.55421.55421,0,0,0,.19043-.03808v.5039a1.66163,1.66163,0,0,1-.39062.03809c-.6084,0-.70313-.3418-.70313-.85547h-.01855a1.8717,1.8717,0,0,1-1.78711.998c-.90332,0-1.64551-.44629-1.64551-1.43555,0-1.37793,1.34082-1.42578,2.63379-1.57812.49414-.05664.76953-.12305.76953-.665,0-.8086-.5791-1.00781-1.2832-1.00781-.74121,0-1.293.34179-1.31152,1.14062Zm3.19336.72266h-.01855c-.07617.14257-.3418.19043-.50391.21875-1.01758.18066-2.28125.17089-2.28125,1.13086a1.02153,1.02153,0,0,0,1.09278.96972,1.57654,1.57654,0,0,0,1.71093-1.54Z" style="fill: #1d1d1b"/>
    <path d="M74.3125,20.87842h.99805v.5039H74.3125v3.3086c0,.38965.05664.61718.48438.6455a4.538,4.538,0,0,0,.51367-.02832v.51368c-.18067,0-.35254.01855-.53321.01855-.79785,0-1.07421-.26562-1.06445-1.10254V21.38232h-.85547v-.5039h.85547V19.40478h.59961Z" style="fill: #1d1d1b"/>
    <path d="M76.18262,18.99658h.59863v.96h-.59863Zm0,1.88184h.59863v4.90527h-.59863Z" style="fill: #1d1d1b"/>
    <path d="M82.32227,23.33154a2.334,2.334,0,1,1-4.63868,0,2.33405,2.33405,0,1,1,4.63868,0Zm-4.04,0a1.75346,1.75346,0,1,0,3.4414,0,1.75362,1.75362,0,1,0-3.4414,0Z" style="fill: #1d1d1b"/>
    <path d="M83.20313,20.87842h.5996v.8457h.01856a1.66407,1.66407,0,0,1,1.56836-.98828c1.3789,0,1.79687.72266,1.79687,1.8916v3.15625h-.59863V22.72314c0-.84668-.27637-1.48339-1.24512-1.48339a1.548,1.548,0,0,0-1.54,1.68261v2.86133h-.5996Z" style="fill: #1d1d1b"/>
    <path d="M88.25781,22.38037c.05664-1.15039.86426-1.64453,1.98633-1.64453.86524,0,1.80664.2666,1.80664,1.57812v2.6045a.31851.31851,0,0,0,.35156.36132.55421.55421,0,0,0,.19043-.03808v.5039a1.66168,1.66168,0,0,1-.39062.03809c-.6084,0-.70313-.3418-.70313-.85547h-.01855a1.8717,1.8717,0,0,1-1.78711.998c-.90332,0-1.64453-.44629-1.64453-1.43555,0-1.37793,1.33984-1.42578,2.63281-1.57812.49414-.05664.76953-.12305.76953-.665,0-.8086-.5791-1.00781-1.2832-1.00781-.74121,0-1.293.34179-1.31152,1.14062Zm3.19336.72266h-.01855c-.07617.14257-.34278.19043-.50391.21875-1.01758.18066-2.28125.17089-2.28125,1.13086a1.02153,1.02153,0,0,0,1.09277.96972,1.57654,1.57654,0,0,0,1.71094-1.54Z" style="fill: #1d1d1b"/>
    <path d="M93.25488,18.99658h.59864v6.78711h-.59864Z" style="fill: #1d1d1b"/>
    <path d="M97.58691,22.38037c.05664-1.15039.86426-1.64453,1.98633-1.64453.86524,0,1.80664.2666,1.80664,1.57812v2.6045a.31851.31851,0,0,0,.35157.36132.5543.5543,0,0,0,.19043-.03808v.5039a1.66177,1.66177,0,0,1-.39063.03809c-.6084,0-.70312-.3418-.70312-.85547h-.01856a1.87169,1.87169,0,0,1-1.78711.998c-.90332,0-1.64551-.44629-1.64551-1.43555,0-1.37793,1.34082-1.42578,2.63379-1.57812.49414-.05664.76953-.12305.76953-.665,0-.8086-.5791-1.00781-1.2832-1.00781-.74121,0-1.293.34179-1.31152,1.14062Zm3.19336.72266h-.01855c-.07617.14257-.3418.19043-.50391.21875-1.01758.18066-2.28125.17089-2.28125,1.13086a1.02153,1.02153,0,0,0,1.09278.96972,1.57654,1.57654,0,0,0,1.71093-1.54Z" style="fill: #1d1d1b"/>
    <path d="M103.52539,20.87842h.998v.5039h-.998v3.3086c0,.38965.05664.61718.48438.6455a4.538,4.538,0,0,0,.51367-.02832v.51368c-.18067,0-.35254.01855-.53321.01855-.79785,0-1.07421-.26562-1.06445-1.10254V21.38232h-.85547v-.5039h.85547V19.40478h.59961Z" style="fill: #1d1d1b"/>
    <path d="M106.33594,20.87842h.999v.5039h-.999v3.3086c0,.38965.05761.61718.48535.6455a4.5377,4.5377,0,0,0,.51367-.02832v.51368c-.18066,0-.35254.01855-.5332.01855-.79785,0-1.07324-.26562-1.06446-1.10254V21.38232h-.85546v-.5039h.85546V19.40478h.59864Z" style="fill: #1d1d1b"/>
    <path d="M108.54883,23.49267a1.7394,1.7394,0,0,0,1.61621,1.92969,1.49457,1.49457,0,0,0,1.54-1.25488h.59863a2.0029,2.0029,0,0,1-2.13867,1.75879c-1.55859,0-2.21484-1.19824-2.21484-2.59473,0-1.293.65625-2.5957,2.21484-2.5957,1.57812,0,2.20508,1.37891,2.1582,2.75683Zm3.17578-.5039a1.64878,1.64878,0,0,0-1.55957-1.749,1.74073,1.74073,0,0,0-1.61621,1.749Z" style="fill: #1d1d1b"/>
    <path d="M113.11816,20.87842h.59961v.8457h.01856a1.66407,1.66407,0,0,1,1.56836-.98828c1.3789,0,1.79687.72266,1.79687,1.8916v3.15625h-.59863V22.72314c0-.84668-.27637-1.48339-1.24512-1.48339a1.548,1.548,0,0,0-1.54,1.68261v2.86133h-.59961Z" style="fill: #1d1d1b"/>
    <path d="M122.20313,25.78369h-.55176V24.8999h-.01856a1.82521,1.82521,0,0,1-1.69238,1.02637c-1.23535,0-1.7207-.72266-1.7207-1.86328V20.87842h.59961v3.19433c.02832.88379.36035,1.34961,1.31152,1.34961,1.02637,0,1.47363-.96972,1.47363-1.96777V20.87842h.59864Z" style="fill: #1d1d1b"/>
    <path d="M123.33105,20.87842h.55176v.82715h.02832a1.71188,1.71188,0,0,1,1.60645-.96973,1.36358,1.36358,0,0,1,1.40722.96,1.65649,1.65649,0,0,1,1.5586-.96c1.07422,0,1.626.56055,1.626,1.7207v3.32715h-.59961V22.48486c0-.80761-.30372-1.24511-1.15918-1.24511-1.03614,0-1.33106.85546-1.33106,1.76855v2.77539h-.59863V22.45654c.00879-.665-.2666-1.21679-1.02735-1.21679-1.03613,0-1.4541.77929-1.46386,1.80664v2.7373h-.59864Z" style="fill: #1d1d1b"/>
    <path d="M131.25391,18.99658h.59863v.96h-.59863Zm0,1.88184h.59863v4.90527h-.59863Z" style="fill: #1d1d1b"/>
    <path d="M134.34277,23.23584,132.584,20.87842h.751l1.39746,1.86328,1.36817-1.86328h.751L135.084,23.22607l1.91016,2.55762h-.75976l-1.54-2.0625-1.51172,2.0625h-.74121Z" style="fill: #1d1d1b"/>
    <path d="M140.50879,22.314a1.12878,1.12878,0,0,0-1.2832-1.07421c-.53223,0-1.16016.209-1.16016.8457,0,.53222.6084.72265,1.01758.82715l.79883.18066a1.43753,1.43753,0,0,1,1.39648,1.35938c0,1.06445-1.05469,1.47363-1.96777,1.47363a1.77647,1.77647,0,0,1-2.01465-1.73047h.59863a1.29293,1.29293,0,0,0,1.44531,1.22656c.56055,0,1.33985-.24707,1.33985-.93164,0-.57031-.53223-.76074-1.07422-.89355l-.76953-.1709c-.7793-.209-1.36914-.47559-1.36914-1.31152,0-.999.97949-1.37891,1.84375-1.37891a1.608,1.608,0,0,1,1.79687,1.57812Z" style="fill: #1d1d1b"/>
    <path d="M142.49219,23.49267a1.7394,1.7394,0,0,0,1.61621,1.92969,1.49457,1.49457,0,0,0,1.54-1.25488h.59863a2.0029,2.0029,0,0,1-2.13867,1.75879c-1.5586,0-2.21485-1.19824-2.21485-2.59473,0-1.293.65625-2.5957,2.21485-2.5957,1.57812,0,2.20508,1.37891,2.1582,2.75683Zm3.17578-.5039a1.64878,1.64878,0,0,0-1.55957-1.749,1.74073,1.74073,0,0,0-1.61621,1.749Z" style="fill: #1d1d1b"/>
    <path d="M148.02148,20.87842h.999v.5039h-.999v3.3086c0,.38965.05762.61718.48536.6455a4.538,4.538,0,0,0,.51367-.02832v.51368c-.18067,0-.35254.01855-.53321.01855-.79785,0-1.07324-.26562-1.06445-1.10254V21.38232h-.85547v-.5039h.85547V19.40478h.59863Z" style="fill: #1d1d1b"/>
  </g>
  <g>
    <path d="M32.19336,153.54443a2.7951,2.7951,0,0,1,1.36328.40821l.13184.082-.418.6914-.13184-.08007a1.98972,1.98972,0,0,0-.96191-.30079h-.00684a1.27149,1.27149,0,0,0-.27344.01954.96539.96539,0,0,0-.38671.15625.47176.47176,0,0,0-.23145.49218.36968.36968,0,0,0,.26074.28125,1.77634,1.77634,0,0,0,.58985.084,4.2691,4.2691,0,0,1,1.01562.11914,1.27753,1.27753,0,0,1,.50684.34765,1.11561,1.11561,0,0,1,.2539.54688,1.23614,1.23614,0,0,1-.08984.70117,1.433,1.433,0,0,1-.4502.51367,1.6558,1.6558,0,0,1-.68359.28321,2.78718,2.78718,0,0,1-.32129.03515,2.48477,2.48477,0,0,1-1.22168-.33594l-.13086-.07617.39649-.707.13183.07422a1.517,1.517,0,0,0,1.00879.2207.922.922,0,0,0,.35645-.14648.43414.43414,0,0,0,.209-.41406.32864.32864,0,0,0-.21387-.26368,1.67525,1.67525,0,0,0-.59863-.0957c-.03711,0-.08691-.00195-.13672-.00586a2.736,2.736,0,0,1-.86523-.10937,1.21516,1.21516,0,0,1-.54395-.34571,1.13952,1.13952,0,0,1-.26953-.5625,1.23971,1.23971,0,0,1,.08692-.752,1.50268,1.50268,0,0,1,.47558-.543,1.59136,1.59136,0,0,1,.709-.28711A2.26107,2.26107,0,0,1,32.19336,153.54443Z" style="fill: #1d1d1b"/>
    <path d="M28.13281,154.648l1.91407,3.86719-1.38575.68554a1.09928,1.09928,0,0,1-.85058.05664,1.10135,1.10135,0,0,1-.13086-2.03906l.66308-.32812-.93359-1.88477Zm-.10058,3.28125a.307.307,0,0,0-.13477.41211.31572.31572,0,0,0,.41211.14844l.66309-.32813-.27735-.56055Z" style="fill: #1d1d1b"/>
    <path d="M22.165,158.66162l1.10644.57813,1.07227-.95313-.43848-1.16992.64942-.57813,1.6289,4.3418-.5498.48828-4.124-2.125Zm1.875.9668.998.52148-.39844-1.05273Z" style="fill: #1d1d1b"/>
    <path d="M22.24707,161.73975a2.25919,2.25919,0,0,1,.8418,3.07617,2.25629,2.25629,0,0,1-1.37207,1.06054l-.15821.043-.16015-.7832.13476-.041a1.38819,1.38819,0,0,0,.8545-.67773,1.45566,1.45566,0,0,0-2.52832-1.44336,1.4688,1.4688,0,0,0-.12989,1.14844l.7793.44336.58594-1.02735.70019.40039-.97949,1.7168-1.72754-.98633-.0166-.043a2.28752,2.28752,0,0,1,.09277-2.04882A2.2607,2.2607,0,0,1,22.24707,161.73975Z" style="fill: #1d1d1b"/>
    <path d="M17.02734,169.20068l2.0586.36719.30859-1.72266-2.05859-.36914.14258-.80078,4.248.76172-.14355.79883-1.40723-.25195-.30859,1.72461,1.4082.252-.14258.79883-4.248-.75977Z" style="fill: #1d1d1b"/>
    <path d="M16.88965,172.56787l4.28418-.53711.35449,2.82031-.78223.09766-.25293-2.01367-.63183.07812.2207,1.75586-.80078.10156-.2207-1.75585-1.27539.16015.24609,1.96094-.79395.09961Z" style="fill: #1d1d1b"/>
    <path d="M18.22461,178.3667,21.46,176.97021,21.04,175.9956l.73535-.31835,1.165,2.69921-.73633.31836-.42187-.97656-3.23438,1.39453Z" style="fill: #1d1d1b"/>
    <path d="M20.67285,182.63623l2.73828-2.207-.666-.82617.623-.502,1.8418,2.28516-.62207.50195-.666-.82617-2.73926,2.207Z" style="fill: #1d1d1b"/>
    <path d="M23.57813,185.63232l2.66992-3.40039.64062.50391-2.66992,3.40039Z" style="fill: #1d1d1b"/>
    <path d="M26.33105,187.54053l1.82032-3.92774,2.58105,1.19727-.33594.72265-1.84668-.85742-.26855.58008,1.02051.47266-.33789.72851-1.02051-.47265-.87891,1.89648Z" style="fill: #1d1d1b"/>
    <path d="M31.03223,189.29053l.875-4.23828.79687.16406-.875,4.24023Z" style="fill: #1d1d1b"/>
    <path d="M35.44043,189.65381a2.28678,2.28678,0,0,1-.74219-.44531,2.06793,2.06793,0,0,1-.52344-.69336,2.19505,2.19505,0,0,1-.23144-.86914,2.26482,2.26482,0,0,1,2.13769-2.37891,2.23782,2.23782,0,0,1,1.02442.18555,2.2123,2.2123,0,0,1,.83105.623l.10352.11524-.62109.51562-.09864-.11523a1.43185,1.43185,0,0,0-1.19629-.51953,1.4573,1.4573,0,0,0,.16114,2.91015,1.44075,1.44075,0,0,0,1.13086-.64648l.085-.11914.66894.43554-.08984.127a2.2337,2.2337,0,0,1-.75684.71094,2.20727,2.20727,0,0,1-.99414.293A2.33038,2.33038,0,0,1,35.44043,189.65381Z" style="fill: #1d1d1b"/>
    <path d="M43.21,187.90967l-.85644-.90625-1.32422.54883.03222,1.25-.80078.332-.12207-4.63086.67774-.28125,3.20019,3.35156Zm-1.45605-1.52539-.77246-.81641.03222,1.12305Z" style="fill: #1d1d1b"/>
    <path d="M46.05664,186.11865l-2.17578-2.77148-.835.6582-.4961-.63086,2.31153-1.81445.49512.63086-.835.65625,2.17383,2.76758Z" style="fill: #1d1d1b"/>
    <path d="M49.05078,183.29443l-3.36133-2.72265.51368-.63282,3.36035,2.72266Z" style="fill: #1d1d1b"/>
    <path d="M48.96191,179.95264a2.259,2.259,0,1,1,2.959-1.1836A2.26157,2.26157,0,0,1,48.96191,179.95264Zm.32129-.7461a1.44365,1.44365,0,1,0-.7666-1.90234A1.44861,1.44861,0,0,0,49.2832,179.20654Z" style="fill: #1d1d1b"/>
    <path d="M53.37891,171.4292l-2.92676,1.7832,2.834.13477-.03906.81445-4.32129-.209.03809-.78907,2.9209-1.77539-2.82911-.13672.03907-.8125,4.32129.209Z" style="fill: #1d1d1b"/>
  </g>
  <circle cx="97.5" cy="47.49999" r="16.84425" style="fill: none"/>
  <polyline points="85.589 59.411 97.5 47.5 109.411 59.411" style="fill: none"/>
  <circle cx="97.5" cy="169.50001" r="16.84425" style="fill: none"/>
  <polyline points="109.411 157.589 97.5 169.5 85.589 157.589" style="fill: none"/>
  <g>
    <circle cx="80.20224" cy="178.14023" r="3.73497" style="fill: #252626"/>
    <path d="M80.20215,180.88525a.55348.55348,0,0,1-.55274-.55273v-4.38379a.55274.55274,0,0,1,1.10547,0v4.38379A.55347.55347,0,0,1,80.20215,180.88525Z" style="fill: #e6e5e5"/>
    <path d="M82.39453,178.69287H78.01074a.55274.55274,0,0,1,0-1.10547h4.38379a.55274.55274,0,1,1,0,1.10547Z" style="fill: #e6e5e5"/>
  </g>
  <g>
    <circle cx="114.69871" cy="178.14023" r="3.73497" style="fill: #252626"/>
    <path d="M116.89063,178.69287h-4.38379a.55274.55274,0,1,1,0-1.10547h4.38379a.55274.55274,0,0,1,0,1.10547Z" style="fill: #e6e5e5"/>
  </g>
  <circle cx="158.49999" cy="108.50052" r="16.84425" style="fill: none"/>
  <polyline points="146.589 96.589 158.5 108.5 146.589 120.411" style="fill: none"/>
  <circle cx="36.50001" cy="108.5" r="16.84425" style="fill: none"/>
  <polyline points="48.403 120.411 36.492 108.5 48.403 96.589" style="fill: none"/>
  <g>
    <circle cx="115.06692" cy="39.26781" r="3.73497" style="fill: #252626"/>
    <path d="M115.06738,42.01221a.55348.55348,0,0,1-.55273-.55274V37.07568a.55274.55274,0,0,1,1.10547,0v4.38379A.55348.55348,0,0,1,115.06738,42.01221Z" style="fill: #e6e5e5"/>
    <path d="M117.25879,39.8208H112.875a.55274.55274,0,0,1,0-1.10547h4.38379a.55274.55274,0,0,1,0,1.10547Z" style="fill: #e6e5e5"/>
  </g>
  <g>
    <circle cx="80.57046" cy="39.26781" r="3.73497" style="fill: #252626"/>
    <path d="M82.7627,39.8208H78.37891a.55274.55274,0,1,1,0-1.10547H82.7627a.55274.55274,0,0,1,0,1.10547Z" style="fill: #e6e5e5"/>
  </g>
  <g>
    <circle cx="28.38248" cy="91.45579" r="3.73497" style="fill: #252626"/>
    <path d="M30.57422,92.0083H26.19043a.55274.55274,0,0,1,0-1.10547h4.38379a.55274.55274,0,0,1,0,1.10547Z" style="fill: #e6e5e5"/>
    <path d="M28.38281,94.20068a.55347.55347,0,0,1-.55273-.55273V89.26416a.55274.55274,0,1,1,1.10547,0V93.648A.55348.55348,0,0,1,28.38281,94.20068Z" style="fill: #e6e5e5"/>
  </g>
  <g>
    <circle cx="28.38248" cy="125.95225" r="3.73497" style="fill: #252626"/>
    <path d="M28.38281,128.69678a.55348.55348,0,0,1-.55273-.55274v-4.38379a.55274.55274,0,0,1,1.10547,0V128.144A.55348.55348,0,0,1,28.38281,128.69678Z" style="fill: #e6e5e5"/>
  </g>
  <g>
    <circle cx="166.2549" cy="125.95225" r="3.73497" style="fill: #252626"/>
    <path d="M168.44629,126.50537h-4.38281a.55274.55274,0,1,1,0-1.10547h4.38281a.55274.55274,0,0,1,0,1.10547Z" style="fill: #e6e5e5"/>
    <path d="M166.25488,128.69678a.55348.55348,0,0,1-.55273-.55274v-4.38379a.55274.55274,0,0,1,1.10547,0V128.144A.55348.55348,0,0,1,166.25488,128.69678Z" style="fill: #e6e5e5"/>
  </g>
  <g>
    <circle cx="166.2549" cy="91.45579" r="3.73497" style="fill: #252626"/>
    <path d="M166.25488,94.20068a.55347.55347,0,0,1-.55273-.55273V89.26416a.55274.55274,0,1,1,1.10547,0V93.648A.55348.55348,0,0,1,166.25488,94.20068Z" style="fill: #e6e5e5"/>
  </g>
  <circle cx="127.50004" cy="55.50002" r="14.87217" style="fill: #252626"/>
  <circle cx="150.5" cy="138.49998" r="14.87217" style="fill: #252626"/>
  <circle cx="67.5" cy="161.49998" r="14.87217" style="fill: #252626"/>
  <circle cx="44.5" cy="78.49998" r="14.87217" style="fill: #252626"/>
  <g>
    <path d="M145.98438,207.91553a2.77317,2.77317,0,0,1-.80372,1.17382l-.11816.10157-.5332-.60938.11816-.10156a1.9813,1.9813,0,0,0,.58106-.82227l.001-.00781a1.40812,1.40812,0,0,0,.06543-.26758.93313.93313,0,0,0-.03125-.41406.47229.47229,0,0,0-.39746-.37109.3624.3624,0,0,0-.34668.16406,1.7499,1.7499,0,0,0-.26074.5332,4.3497,4.3497,0,0,1-.42383.93164,1.28809,1.28809,0,0,1-.48437.377,1.12951,1.12951,0,0,1-.59864.07422,1.23375,1.23375,0,0,1-.64062-.29883,1.4201,1.4201,0,0,1-.35059-.58594,1.67013,1.67013,0,0,1-.06347-.73633,3.15386,3.15386,0,0,1,.06738-.3164,2.46641,2.46641,0,0,1,.6914-1.0625l.11133-.10157.55274.59571-.11133.10156a1.51874,1.51874,0,0,0-.5166.89453.91524.91524,0,0,0,.02929.38281.442.442,0,0,0,.33106.32617.33447.33447,0,0,0,.31641-.123,1.69288,1.69288,0,0,0,.27343-.541c.01075-.03515.0293-.082.04785-.1289a2.74792,2.74792,0,0,1,.36817-.791,1.23721,1.23721,0,0,1,.49609-.41211,1.11781,1.11781,0,0,1,.61719-.084,1.23415,1.23415,0,0,1,.68848.31054,1.50578,1.50578,0,0,1,.37207.61914,1.58513,1.58513,0,0,1,.05761.76172A2.27627,2.27627,0,0,1,145.98438,207.91553Z" style="fill: #1d1d1b"/>
    <path d="M146.53906,205.09131l-4-1.64844.59082-1.43359a1.10919,1.10919,0,1,1,2.05078.8457l-.2832.68555,1.94922.80273Zm-2.0957-2.53906a.30418.30418,0,0,0-.16992-.39844.31332.31332,0,0,0-.40821.16015l-.28222.6836.5791.24023Z" style="fill: #1d1d1b"/>
    <path d="M149.49219,199.88037l-1.2002-.3457-.85937,1.14843.66406,1.0586-.52051.69531-2.46387-3.92578.44043-.58789,4.46387,1.25586Zm-2.03125-.57422-1.08106-.30859.60157.95312Z" style="fill: #1d1d1b"/>
    <path d="M148.90234,197.2085a2.25885,2.25885,0,0,1,1.32129-3.52344,2.22654,2.22654,0,0,1,.87989-.0293l.16113.02734-.17871.78125-.14063-.01953a1.39246,1.39246,0,0,0-1.06054.26368,1.45846,1.45846,0,0,0,1.707,2.36523,1.46849,1.46849,0,0,0,.59472-.99219l-.52636-.72851-.96094.69336-.47168-.6543,1.60547-1.16016,1.166,1.61524-.00293.04687a2.28954,2.28954,0,0,1-.93457,1.83008A2.26508,2.26508,0,0,1,148.90234,197.2085Z" style="fill: #1d1d1b"/>
    <path d="M156.89453,195.41162l-.62793-2-1.67578.52734.62793,2-.77539.24219-1.29883-4.12695.77735-.24414.43066,1.36914,1.6748-.52735-.42968-1.36718.77636-.24414,1.29786,4.127Z" style="fill: #1d1d1b"/>
    <path d="M158.79883,195.05029l-.09473-4.32422,2.84863-.0625.01758.78907-2.03515.04492.01367.63867,1.77344-.03906.01757.80664-1.77246.03906.02735,1.28906,1.98047-.043.0166.80079Z" style="fill: #1d1d1b"/>
    <path d="M163.39844,195.32764l.82519-3.42383-1.0332-.25.1875-.7793,2.8584.68945-.18848.7793-1.0332-.248-.8252,3.42383Z" style="fill: #1d1d1b"/>
    <path d="M166.88086,196.5542l1.66992-3.10156-.93555-.50391.37989-.70508,2.58789,1.39258-.38086.70508-.93457-.502-1.6709,3.09961Z" style="fill: #1d1d1b"/>
    <path d="M169.44629,198.21045l2.80371-3.28906.61914.52929-2.80273,3.28711Z" style="fill: #1d1d1b"/>
    <path d="M171.14258,199.74951l3.44531-2.623,1.72363,2.26368-.63379.48437-1.23437-1.62109-.50781.38476.68164.89649-.63965.48633-.68066-.89649-1.665,1.26953Z" style="fill: #1d1d1b"/>
    <path d="M173.31152,203.00342l3.92676-1.82422.34277.73828-3.92578,1.82422Z" style="fill: #1d1d1b"/>
    <path d="M174.543,206.019a2.31384,2.31384,0,0,1,.34277-.79687,2.06769,2.06769,0,0,1,.61817-.61328,2.19291,2.19291,0,0,1,.83105-.34571,2.27012,2.27012,0,0,1,2.64844,1.80078,2.26563,2.26563,0,0,1-.55371,1.95118l-.10059.11718-.59472-.54687.10156-.11328a1.43848,1.43848,0,0,0,.35449-1.25586,1.45914,1.45914,0,1,0-2.07324,1.58594l.13086.06835-.34473.72266-.13769-.07422a2.23147,2.23147,0,0,1-1.2295-1.60156A2.29919,2.29919,0,0,1,174.543,206.019Z" style="fill: #1d1d1b"/>
    <path d="M174.56348,212.4624l1.21289-.28906.18261-1.42188-1.09863-.5957.11133-.86133,4.07617,2.20313-.09375.72851-4.501,1.10547Zm2.0498-.5,1.0918-.26367-.99024-.53125Z" style="fill: #1d1d1b"/>
    <path d="M173.97754,214.3999l3.28223,1.291.38964-.99024.74707.29492-1.07714,2.73829-.74707-.293.38964-.99219-3.28222-1.291Z" style="fill: #1d1d1b"/>
    <path d="M172.63184,217.15576l3.59765,2.4082-.45215.67579-3.59765-2.40625Z" style="fill: #1d1d1b"/>
    <path d="M173.14355,220.396a2.263,2.263,0,1,1-3.18652-.17579A2.2653,2.2653,0,0,1,173.14355,220.396Zm-.60742.543a1.44557,1.44557,0,1,0-.10742,2.05079A1.44924,1.44924,0,0,0,172.53613,220.939Z" style="fill: #1d1d1b"/>
    <path d="M165.01465,223.2085l2.8584,1.88281-1.08594-2.61719.751-.3125,1.65625,3.99023-.72852.30274-2.85059-1.87891,1.084,2.61328-.75.31055-1.65723-3.99023Z" style="fill: #1d1d1b"/>
  </g>
  <path d="M67.26855,56.21826a.82817.82817,0,0,1-.416-1.54492,61.51325,61.51325,0,0,1,61.4082-.03711.82864.82864,0,0,1-.82812,1.43555,59.852,59.852,0,0,0-59.75.03515A.81937.81937,0,0,1,67.26855,56.21826Z" style="fill: #252626"/>
  <path d="M150.38184,139.647a.81926.81926,0,0,1-.41407-.11133.82828.82828,0,0,1-.30175-1.13183,59.85159,59.85159,0,0,0,.04882-59.72266.82864.82864,0,0,1,1.43555-.82812,61.51289,61.51289,0,0,1-.05078,61.38086A.82654.82654,0,0,1,150.38184,139.647Z" style="fill: #252626"/>
  <path d="M97.40137,170.18408a61.41482,61.41482,0,0,1-30.749-8.23633.82828.82828,0,0,1,.83008-1.43359,59.85535,59.85535,0,0,0,59.76367.042.82864.82864,0,1,1,.82813,1.43555A61.42312,61.42312,0,0,1,97.40137,170.18408Z" style="fill: #252626"/>
  <path d="M44.584,139.58838a.83022.83022,0,0,1-.71875-.41406,61.51593,61.51593,0,0,1-.0039-61.3418.82864.82864,0,0,1,1.43555.82812,59.85191,59.85191,0,0,0,.0039,59.68555.82782.82782,0,0,1-.7168,1.24219Z" style="fill: #252626"/>
  <path d="M97.5,48.32666a.82791.82791,0,0,1-.82812-.82813V30.65576a.82813.82813,0,0,1,1.65625,0V47.49853A.82792.82792,0,0,1,97.5,48.32666Z" style="fill: #252626"/>
  <path d="M97.5,65.17236a17.56113,17.56113,0,0,1-12.49707-5.17578.82864.82864,0,1,1,1.17187-1.17187,16.01541,16.01541,0,0,0,22.6504,0,.82864.82864,0,1,1,1.17187,1.17187A17.56113,17.56113,0,0,1,97.5,65.17236Z" style="fill: #252626"/>
  <path d="M97.4502,187.17236a.82792.82792,0,0,1-.82813-.82812V169.08642a.82813.82813,0,0,1,1.65625,0v17.25782A.82792.82792,0,0,1,97.4502,187.17236Z" style="fill: #252626"/>
  <path d="M85.54,158.41748a.82813.82813,0,0,1-.58594-1.41406,17.674,17.674,0,0,1,24.99317,0,.82864.82864,0,1,1-1.17188,1.17187,16.01422,16.01422,0,0,0-22.64941,0A.82913.82913,0,0,1,85.54,158.41748Z" style="fill: #252626"/>
  <path d="M175.34473,109.32861H158.5a.82813.82813,0,0,1,0-1.65625h16.84473a.82813.82813,0,0,1,0,1.65625Z" style="fill: #252626"/>
  <path d="M146.58887,121.21631a.82912.82912,0,0,1-.58594-.24219,17.674,17.674,0,0,1,0-24.99316.82864.82864,0,1,1,1.17187,1.17187,16.01423,16.01423,0,0,0,0,22.64942.82813.82813,0,0,1-.58593,1.41406Z" style="fill: #252626"/>
  <path d="M36.49219,109.32764H19.64746a.82813.82813,0,0,1,0-1.65625H36.49219a.82813.82813,0,0,1,0,1.65625Z" style="fill: #252626"/>
  <path d="M48.40332,121.21631a.82813.82813,0,0,1-.58594-1.41406,16.0142,16.0142,0,0,0,0-22.64942A.82864.82864,0,1,1,48.98926,95.981a17.674,17.674,0,0,1,0,24.99316A.82913.82913,0,0,1,48.40332,121.21631Z" style="fill: #252626"/>
  <path d="M97.35254,79.02392h-.00586a.82732.82732,0,0,1-.82227-.834l.09766-13.85156a.828.828,0,0,1,.82813-.82227h.00585a.82732.82732,0,0,1,.82227.834l-.09766,13.85156A.82793.82793,0,0,1,97.35254,79.02392Z" style="fill: #252626"/>
  <path d="M141.65527,109.32568H127.5a.84766.84766,0,1,1,0-1.69531h14.15527a.84766.84766,0,1,1,0,1.69531Z" style="fill: #252626"/>
  <path d="M97.5,153.48389a.82792.82792,0,0,1-.82812-.82813V138.50049a.82813.82813,0,1,1,1.65625,0v14.15527A.82793.82793,0,0,1,97.5,153.48389Z" style="fill: #252626"/>
  <path d="M67.5,109.3042H53.34473a.82618.82618,0,1,1,0-1.65235H67.5a.82618.82618,0,0,1,0,1.65235Z" style="fill: #252626"/>
  <g>
    <rect x="89" y="339" width="17" height="37" rx="3.21688" ry="3.21688" style="fill: #252626"/>
    <path d="M101.587,363.9a1.82122,1.82122,0,0,1-1.10036,1.03444,2.30462,2.30462,0,0,1-.75781.125,2.27843,2.27843,0,0,1-1.04757-.19755,1.82258,1.82258,0,0,1-.58632-.46126,1.41951,1.41951,0,0,1-.28341-.64567,4.30892,4.30892,0,0,1-.05937-.7116q0-.50114.01972-.69188a.53359.53359,0,0,1,.04621-.2175,1.19485,1.19485,0,0,1,.43475-.03941h3.08382a.99658.99658,0,0,1,.21749.01971.19617.19617,0,0,1,.13163.10534.67116.67116,0,0,1,.05935.25691q.013.17139.01338.4744a2.38151,2.38151,0,0,1-.17151.949m-5.32349-12.82164a.293.293,0,0,1,.107-.1959.53848.53848,0,0,1,.28506-.08916q.196-.0176.55253-.01783a2.80552,2.80552,0,0,1,2.12986.77518,2.88439,2.88439,0,0,1,.73975,2.07661c0,.08211-.01712.25925-.02792.38078-.06827-.00094-.13655-.00188-.20482-.00329q-.28049-.006-.60954-.0305a.15282.15282,0,0,0-.0793.14007.20328.20328,0,0,0,.05514.1647l.21913.0244a1.5481,1.5481,0,0,1,.36577.07907q.1464.0549.1464.1159a.70261.70261,0,0,1-.0732.22547q-.0732.1647-.195.396-.12213.23192-.26207.49387-.14043.26219-.26231.49363-.28048.5367-.57293,1.05437-.29247.5184-.57271,1.00581-.354-.63381-.69494-1.32864-.34137-.69505-.68274-1.37768c-.01642-.03237-.04458-.09314-.08517-.18276q-.06121-.13374-.12809-.28647c-.04482-.10159-.08353-.19685-.1159-.28647a.66492.66492,0,0,1-.04857-.18277c0-.0488.03214-.08728.09736-.1159a2.41544,2.41544,0,0,1,.41458-.10347l.15836-.0244a.21355.21355,0,0,0,.05491-.1708.13.13,0,0,0-.09127-.134q-.25972.02042-.63723.02933v-2.58643a2.50718,2.50718,0,0,1,.01783-.33879m1.00933,9.125q0,.48777-.0122.78011a1.28727,1.28727,0,0,1-.0854.457.4867.4867,0,0,1-.0617.10441l-.00165.00094a2.28289,2.28289,0,0,1-.35826-.09455.59649.59649,0,0,1-.34747-.32073,1.88044,1.88044,0,0,1-.13373-.65059q-.02675-.41844-.02675-1.11373V356.8284l.63723,1.2416q.13372.2562.21326.43287a1.89914,1.89914,0,0,1,.11567.32917,2.00217,2.00217,0,0,1,.0488.32307q.012.17068.0122.42654Zm5.03092,1.50742q.07917-.2196.15836-.46923.07919-.24987.1464-.48777.06687-.23755.10371-.39627a.19005.19005,0,0,0-.14031-.10957.18467.18467,0,0,0-.1647.0244,5.71412,5.71412,0,0,1-.46923.78011,1.47265,1.47265,0,0,1-.396.40237,1.30973,1.30973,0,0,1-.2257.08516,1.791,1.791,0,0,1-.30477.0549q-.17667.0183-.42654.0305t-.60343.0122q-.40225,0-.66444-.0244a3.337,3.337,0,0,1-.42043-.06076,1.05233,1.05233,0,0,1-.24987-.0854.43776.43776,0,0,1-.14031-.10981.8459.8459,0,0,1-.18887-.46923,6.051,6.051,0,0,1-.0427-.79864v-.80451c.00189-.11144.00516-.21.00986-.29444a1.92638,1.92638,0,0,1,.06687-.42044,2.12154,2.12154,0,0,1,.1708-.41457c.0183-.035.03894-.07273.06077-.11238.02932-.00094.05982-.00141.09384-.00141h.70714q.35334,0,.579.0122a1.78038,1.78038,0,0,1,.35966.04857.42946.42946,0,0,1,.26207.1708.8698.8698,0,0,1,.11591.29257l.10956.47534a.18508.18508,0,0,0,.16447.0549.17525.17525,0,0,0,.1525-.0671q0-.2073-.0244-.52414-.02463-.31708-.0244-.64614,0-.35334.0244-.6825.02428-.32941.0244-.54878a.177.177,0,0,0-.1525-.06709.18629.18629,0,0,0-.16447.0549l-.09737.5a.76166.76166,0,0,1-.1159.31086.38634.38634,0,0,1-.17666.11567,1.71986,1.71986,0,0,1-.378.0549q-.26851.0183-.65834.0183h-.55089l.01221-.02017.7679-1.32865q.23121-.39029.42067-.72543a6.5676,6.5676,0,0,1,.37163-.59124,2.10527,2.10527,0,0,1,.378-.41434.17031.17031,0,0,1,.301.05678.99463.99463,0,0,1,.24987.256,1.37892,1.37892,0,0,1,.1586.32893q.06053.183.134.40237a.16527.16527,0,0,0,.1586.0488.18112.18112,0,0,0,.14617-.0732q-.02464-.195-.04247-.44483-.01865-.24987-.04293-.48754c-.01619-.1586-.03754-.30008-.05467-.42677a3.82358,3.82358,0,0,1-.03285-.58115,3.21012,3.21012,0,0,0-1.46754-2.6784,4.20838,4.20838,0,0,0-1.46142-.55252,10.53451,10.53451,0,0,0-1.96048-.16048q-1.123,0-1.96938.02674-.84673.02676-1.55974.11591a.22336.22336,0,0,0-.11567.20482.29669.29669,0,0,0,.08024.24071l.64145.07133a1.56947,1.56947,0,0,1,.47252.1159.49916.49916,0,0,1,.2494.294,1.94374,1.94374,0,0,1,.09807.57035q.0176.3565.01783.92674v6.57682q0,.6947-.01783,1.11373a1.77406,1.77406,0,0,1-.12482.65059.60544.60544,0,0,1-.32072.32073,2.52651,2.52651,0,0,1-.606.14264l-.37445.0535a.27666.27666,0,0,0-.0732.22171c-.00047.19075-.00258.25128-.00657.46619q-.00633.36917-.03355.82538c.01806.04482.06921.07156.15438.08071a.19312.19312,0,0,0,.18136-.05373l.04012-.282a1.904,1.904,0,0,1,.10745-.45609.45579.45579,0,0,1,.24166-.24166,1.33214,1.33214,0,0,1,.48988-.09432q.31533-.013.839-.01313H96.972a.84024.84024,0,0,1,.168.01313.12068.12068,0,0,1,.087.07414.56936.56936,0,0,1,.03379.1877c.00422.08516.00657.20341.00657.35568a1.40209,1.40209,0,0,1-.10066.60414.90111.90111,0,0,1-.32893.34911q-.2284.16119-.50326.33551-.27555.17419-.55041.34887-.2752.17456-.53023.33574-.25515.16083-.443.29515a7.44732,7.44732,0,0,0-.839.678,2.97071,2.97071,0,0,0-.51663.63745,2.23581,2.23581,0,0,0-.26183.67781,3.88494,3.88494,0,0,0-.07367.78527,1.9807,1.9807,0,0,0,.06687.59053.10913.10913,0,0,0,.18816-.01337,1.7656,1.7656,0,0,1,.1274-.50982,1.56466,1.56466,0,0,1,.24846-.41622,5.1887,5.1887,0,0,1,.63746-.65787q.35542-.30864.78526-.63088.42935-.322.96639-.66421.5367-.34242,1.18131-.74514a.8392.8392,0,0,1,.16775-.08728.14659.14659,0,0,1,.15437.02018,2.74788,2.74788,0,0,0,.28178.54361,2.90518,2.90518,0,0,0,.46313.54384,2.41063,2.41063,0,0,0,.64427.42278,2.0436,2.0436,0,0,0,.85236.16775,2.01051,2.01051,0,0,0,1.16794-.31556,2.2181,2.2181,0,0,0,.71135-.79864,2.95913,2.95913,0,0,0,.32894-1.04006,9.07564,9.07564,0,0,0,.07367-1.20171,5.06313,5.06313,0,0,1,.137-1.27539" style="fill: #e6e5e5"/>
  </g>
  <g>
    <path d="M2.5,23.83057A.86832.86832,0,0,1,2.17969,23.77a.80032.80032,0,0,1-.26953-.17969.82726.82726,0,1,1,1.16992-1.16992.80932.80932,0,0,1,0,1.16992.67593.67593,0,0,1-.26074.17969A.86327.86327,0,0,1,2.5,23.83057Z"/>
    <path d="M35.33984,23.01025a.82814.82814,0,0,1,.83008-.83008h0A.82814.82814,0,0,1,37,23.01025h0a.8261.8261,0,0,1-.83008.82032h0A.8261.8261,0,0,1,35.33984,23.01025Zm-4.80957,0a.82731.82731,0,0,1,.82911-.83008h0a.83441.83441,0,0,1,.83007.83008h0a.83244.83244,0,0,1-.83007.82032h0A.82526.82526,0,0,1,30.53027,23.01025Zm-4.81054,0a.82813.82813,0,0,1,.83007-.83008h0a.82814.82814,0,0,1,.83008.83008h0a.8261.8261,0,0,1-.83008.82032h0A.82609.82609,0,0,1,25.71973,23.01025Zm-4.80957,0a.82813.82813,0,0,1,.83007-.83008h0a.82731.82731,0,0,1,.82911.83008h0a.82526.82526,0,0,1-.82911.82032h0A.82609.82609,0,0,1,20.91016,23.01025Zm-4.81055,0a.82814.82814,0,0,1,.83008-.83008h0a.82814.82814,0,0,1,.83008.83008h0a.8261.8261,0,0,1-.83008.82032h0A.8261.8261,0,0,1,16.09961,23.01025Zm-4.80957,0a.82814.82814,0,0,1,.83008-.83008h0a.82814.82814,0,0,1,.83008.83008h0a.8261.8261,0,0,1-.83008.82032h0A.8261.8261,0,0,1,11.29,23.01025Zm-4.81055,0a.82814.82814,0,0,1,.83008-.83008h0a.82814.82814,0,0,1,.83008.83008h0a.8261.8261,0,0,1-.83008.82032h0A.8261.8261,0,0,1,6.47949,23.01025Z"/>
    <path d="M40.97949,23.83057a.86326.86326,0,0,1-.31933-.06055.79472.79472,0,0,1-.27051-.17969.82962.82962,0,0,1,.91015-1.34961.67253.67253,0,0,1,.25977.17969.81662.81662,0,0,1,.25.58984.8268.8268,0,0,1-.06934.31055.80317.80317,0,0,1-.18066.26953.67253.67253,0,0,1-.25977.17969A.86454.86454,0,0,1,40.97949,23.83057Z"/>
  </g>
  <g>
    <path d="M153.9502,23.83057a.8646.8646,0,0,1-.32032-.06055.8041.8041,0,0,1-.2705-.17969.968.968,0,0,1-.16993-.26953.80551.80551,0,0,1,.16993-.90039.86457.86457,0,0,1,1.18066,0,.85259.85259,0,0,1,.24023.58984.81826.81826,0,0,1-.06054.31055,1,1,0,0,1-.17969.26953A.82364.82364,0,0,1,153.9502,23.83057Z"/>
    <path d="M186.84961,23.00049a.8261.8261,0,0,1,.83008-.82032h0a.8261.8261,0,0,1,.83008.82032h0a.82814.82814,0,0,1-.83008.83008h0A.82814.82814,0,0,1,186.84961,23.00049Zm-4.82031,0a.8261.8261,0,0,1,.83008-.82032h0a.82609.82609,0,0,1,.83007.82032h0a.82813.82813,0,0,1-.83007.83008h0A.82814.82814,0,0,1,182.0293,23.00049Zm-4.81934,0a.83244.83244,0,0,1,.83008-.82032h0a.8261.8261,0,0,1,.83008.82032h0a.82814.82814,0,0,1-.83008.83008h0A.83441.83441,0,0,1,177.21,23.00049Zm-4.81055,0a.8261.8261,0,0,1,.83008-.82032h0a.824.824,0,0,1,.82031.82032h0a.82609.82609,0,0,1-.82031.83008h0A.82814.82814,0,0,1,172.39941,23.00049Zm-4.81933,0a.8261.8261,0,0,1,.83008-.82032h0a.83307.83307,0,0,1,.83007.82032h0a.835.835,0,0,1-.83007.83008h0A.82814.82814,0,0,1,167.58008,23.00049Zm-4.82031,0a.82609.82609,0,0,1,.83007-.82032h0a.8261.8261,0,0,1,.83008.82032h0a.82814.82814,0,0,1-.83008.83008h0A.82813.82813,0,0,1,162.75977,23.00049Zm-4.82032,0a.8261.8261,0,0,1,.83008-.82032h0a.8261.8261,0,0,1,.83008.82032h0a.82814.82814,0,0,1-.83008.83008h0A.82814.82814,0,0,1,157.93945,23.00049Z"/>
    <path d="M192.5,23.83057a.86458.86458,0,0,1-.32031-.06055.80032.80032,0,0,1-.26953-.17969.86114.86114,0,0,1-.24024-.58008.84827.84827,0,0,1,.24024-.58984.80032.80032,0,0,1,.26953-.17969.83274.83274,0,0,1,.90039.17969.88141.88141,0,0,1,.25.58984.79481.79481,0,0,1-.25.58008.67593.67593,0,0,1-.26074.17969A.86327.86327,0,0,1,192.5,23.83057Z"/>
  </g>
  <g>
    <g>
      <path d="M87.84961,99.52a.82672.82672,0,0,1-.58984-.23926.8668.8668,0,0,1-.24024-.59082.81333.81333,0,0,1,.06055-.30957.90081.90081,0,0,1,.17969-.27051.84841.84841,0,0,1,.91015-.17969.69073.69073,0,0,1,.25977.17969.79481.79481,0,0,1,.25.58008.83393.83393,0,0,1-.25.59082.69073.69073,0,0,1-.25977.17969A.8675.8675,0,0,1,87.84961,99.52Z" style="fill: #00bc8b"/>
      <path d="M84.7998,115.68017a.83232.83232,0,0,1,.30958-1.12988h0a.8317.8317,0,0,1,1.13085.30957h0a.8227.8227,0,0,1-.31054,1.13086h0a.76426.76426,0,0,1-.41016.10938h0A.81817.81817,0,0,1,84.7998,115.68017Zm-1.41992-3.53027h-.00976a.84226.84226,0,0,1,.59961-1.00976h0a.83455.83455,0,0,1,1.00976.60058h0a.83538.83538,0,0,1-.58984,1.00977h0a.7658.7658,0,0,1-.21.01953h0A.81083.81083,0,0,1,83.37988,112.1499Zm.34961-2.93945a.82521.82521,0,0,1-.81933-.83008h0a.82207.82207,0,0,1,.83984-.82031h0a.82527.82527,0,0,1,.81934.83008h0a.83214.83214,0,0,1-.82911.82031h-.01074Zm.29-3.58008a.82914.82914,0,0,1-.58008-1.02051h0a.82243.82243,0,0,1,1.01075-.5791h0a.84643.84643,0,0,1,.58984,1.01953h0a.844.844,0,0,1-.81055.61035h0A.7851.7851,0,0,1,84.01953,105.63037ZM85.21,102.24072a.83784.83784,0,0,1-.29-1.14062h0a.83845.83845,0,0,1,1.13965-.29h0a.82765.82765,0,0,1,.29,1.12988h0v.01074h0a.82852.82852,0,0,1-.71.39942h0A.83376.83376,0,0,1,85.21,102.24072Z" style="fill: #00bc8b"/>
      <path d="M87.68945,118.97021a.82505.82505,0,0,1-.58007-.24023.83572.83572,0,0,1-.25-.58984.79856.79856,0,0,1,.25-.58008.81516.81516,0,0,1,.90039-.17969.8041.8041,0,0,1,.2705.17969.82831.82831,0,0,1,.23926.58008.86792.86792,0,0,1-.23926.58984,1.30666,1.30666,0,0,1-.2705.18066A.86387.86387,0,0,1,87.68945,118.97021Z" style="fill: #00bc8b"/>
    </g>
    <g>
      <path d="M107.05957,119.05029a.69918.69918,0,0,1-.31934-.07031.93767.93767,0,0,1-.2705-.16992,1.25846,1.25846,0,0,1-.17969-.26953.86837.86837,0,0,1-.06055-.32032.71608.71608,0,0,1,.07031-.32031.946.946,0,0,1,.16993-.26953.86939.86939,0,0,1,.91015-.17969,1.259,1.259,0,0,1,.26953.17969.8589.8589,0,0,1,.18067.91016.80335.80335,0,0,1-.18067.26953A.86258.86258,0,0,1,107.05957,119.05029Z" style="fill: #00bc8b"/>
      <path d="M108.84961,116.1001a.82918.82918,0,0,1-.29-1.12989h0a.823.823,0,0,1,1.12988-.2998h0a.83215.83215,0,0,1,.30078,1.13965h0a.84244.84244,0,0,1-.7207.41015h0A.8127.8127,0,0,1,108.84961,116.1001Zm1.60059-3.21973a.83249.83249,0,0,1-.58008-1.02051h0a.83209.83209,0,0,1,1.01953-.5791h0a.831.831,0,0,1,.58008,1.01953h0a.83053.83053,0,0,1-.79981.61035h0A.84535.84535,0,0,1,110.4502,112.88037Zm.71-3.53027a.81383.81383,0,0,1-.82032-.83008h0a.81241.81241,0,0,1,.83008-.81934h0a.81381.81381,0,0,1,.82031.83008h0a.81688.81688,0,0,1-.82031.81934h-.00976Zm-1.23047-4.17969h0a.82791.82791,0,0,1,.58984-1.00977h0a.8342.8342,0,0,1,1.01074.59961h0a.82694.82694,0,0,1-.60058,1.00977h0a.63138.63138,0,0,1-.2002.02051h0A.82246.82246,0,0,1,109.92969,105.17041Zm-1.26953-3.12012v-.00976h0a.82908.82908,0,0,1,.30957-1.12012h0a.83467.83467,0,0,1,1.13965.30957h0a.83747.83747,0,0,1-.31934,1.12988h0a.8668.8668,0,0,1-.41016.11035h0A.85146.85146,0,0,1,108.66016,102.05029Z" style="fill: #00bc8b"/>
      <path d="M107.21973,99.6001a.86759.86759,0,0,1-.32032-.05957.80335.80335,0,0,1-.26953-.18067.86258.86258,0,0,1-.24023-.58984.84275.84275,0,0,1,.24023-.58008.81792.81792,0,0,1,.90039-.17969.64607.64607,0,0,1,.26953.17969.79478.79478,0,0,1,.25.58008.83.83,0,0,1-.25.58984.91011.91011,0,0,1-.26953.18067A.78251.78251,0,0,1,107.21973,99.6001Z" style="fill: #00bc8b"/>
    </g>
    <path d="M107.29688,99.6792a.82578.82578,0,0,1-.59083-.24707,12.83872,12.83872,0,0,0-9.10742-3.85938h-.10742a12.83569,12.83569,0,0,0-9.06152,3.71094.82867.82867,0,1,1-1.16211-1.18164,14.59926,14.59926,0,0,1,20.62012.168.82812.82812,0,0,1-.59082,1.40918Z" style="fill: #252626"/>
    <path d="M97.49805,123.07666H97.376a14.48972,14.48972,0,0,1-10.27539-4.35449.82867.82867,0,1,1,1.18164-1.16211,12.83468,12.83468,0,0,0,9.10742,3.85937,12.656,12.656,0,0,0,9.16894-3.71093.82867.82867,0,1,1,1.16211,1.18164A14.48508,14.48508,0,0,1,97.49805,123.07666Z" style="fill: #252626"/>
  </g>
  <g>
    <path d="M108.37012,257.98A.82708.82708,0,0,1,108,256.8706h0a.83047.83047,0,0,1,1.10938-.37011h0a.8221.8221,0,0,1,.37011,1.10937h0a.81586.81586,0,0,1-.73926.46094h0A.8336.8336,0,0,1,108.37012,257.98Zm2.00976-4.30957a.84193.84193,0,0,1-.46972-1.08008h.00976a.81111.81111,0,0,1,1.07031-.46h0a.82626.82626,0,0,1,.46,1.07031H111.46a.82824.82824,0,0,1-.77051.51953h0A.80536.80536,0,0,1,110.37988,253.67041Zm1.62989-4.48047a.82845.82845,0,0,1-.55957-1.01953h0a.84532.84532,0,0,1,1.02929-.57031h0a.82791.82791,0,0,1,.56055,1.03027h0a.82246.82246,0,0,1-.79.59961h0A.66758.66758,0,0,1,112.00977,249.18994Zm1.15039-4.60937a.84327.84327,0,0,1-.68067-.96h0a.83351.83351,0,0,1,.9502-.68066h0a.828.828,0,0,1,.69043.9502h0a.83538.83538,0,0,1-.82032.70019h0C113.25,244.59033,113.21,244.58057,113.16016,244.58057Zm.62011-4.73047a.82046.82046,0,0,1-.7705-.87989h0a.8209.8209,0,0,1,.87988-.76953h0a.82752.82752,0,0,1,.77051.87989h0a.83006.83006,0,0,1-.82032.77929h0A.12592.12592,0,0,1,113.78027,239.8501Zm.21-4.75a.83441.83441,0,0,1-.83007-.83008h.00976A.82814.82814,0,0,1,114,233.43994h0a.81907.81907,0,0,1,.81934.83008h0a.82731.82731,0,0,1-.82911.83008Zm-.90039-5.56934h0a.82042.82042,0,0,1,.79981-.85059h0a.81477.81477,0,0,1,.85058.79981h0a.815.815,0,0,1-.80078.85059h-.01953A.822.822,0,0,1,113.08984,229.53076Z" style="fill: #ff4257"/>
    <path d="M113.85938,264.13037a.83123.83123,0,0,1,.18066-1.16016h0a.83313.83313,0,0,1,1.16016.19043h0a.83313.83313,0,0,1-.19043,1.16016h0a.85191.85191,0,0,1-.4795.14941h0A.826.826,0,0,1,113.85938,264.13037ZM117.7002,261.23a.82711.82711,0,0,1,.10937-1.16992h0a.82508.82508,0,0,1,1.16016.11035h0a.81533.81533,0,0,1-.09961,1.16016h0a.857.857,0,0,1-.53028.20019h0A.844.844,0,0,1,117.7002,261.23Zm3.62988-3.15918a.83456.83456,0,0,1,.0293-1.1709h0a.8171.8171,0,0,1,1.17089.03027h0a.82445.82445,0,0,1-.0205,1.16993h0a.86894.86894,0,0,1-.58008.23047h0A.84251.84251,0,0,1,121.33008,258.0708Zm3.41015-3.40039a.82417.82417,0,0,1-.05078-1.16992h0a.8345.8345,0,0,1,1.16993-.06055h0a.82456.82456,0,0,1,.05078,1.16992h0a.80341.80341,0,0,1-.61036.27051h0A.84735.84735,0,0,1,124.74023,254.67041Zm3.15918-3.63965a.83357.83357,0,0,1-.14941-1.1709h0a.83871.83871,0,0,1,1.16992-.13965h0a.83793.83793,0,0,1,.13965,1.16993h0a.86451.86451,0,0,1-.66016.31054h0A.80232.80232,0,0,1,127.89941,251.03076Zm2.88086-3.86035a.82177.82177,0,0,1-.21093-1.15039h0a.82083.82083,0,0,1,1.15039-.21h0a.82947.82947,0,0,1,.21,1.15039h0a.83747.83747,0,0,1-.67969.36035h0A.8439.8439,0,0,1,130.78027,247.17041Zm2.63965-4.02051a.83039.83039,0,0,1-.28027-1.13965h0a.82814.82814,0,0,1,1.14062-.28027h0a.82535.82535,0,0,1,.2793,1.12988h0a.83713.83713,0,0,1-.71.41016h0A.84664.84664,0,0,1,133.41992,243.1499Zm2.39942-4.18945a.82239.82239,0,0,1-.35938-1.11035h0a.83005.83005,0,0,1,1.12012-.35938h0a.835.835,0,0,1,.34961,1.11914h0a.846.846,0,0,1-.74024.4502h0A.73308.73308,0,0,1,135.81934,238.96045Zm2.48763-3.82957a.82851.82851,0,0,1-.42968-1.08985h0a.82849.82849,0,0,1,1.08984-.42968h0a.82851.82851,0,0,1,.42969,1.08984h0a.82713.82713,0,0,1-.75977.5h0A.78822.78822,0,0,1,138.307,235.13088Z" style="fill: #ff4257"/>
  </g>
  <g>
    <path d="M80.25,315.52a.84085.84085,0,0,1,.7998-.85938h0a.84316.84316,0,0,1,.86036.80957h0a.84229.84229,0,0,1-.81055.85059h-.01953A.82856.82856,0,0,1,80.25,315.52Zm-.08008-4.79h0A.83441.83441,0,0,1,81,309.8999h0a.82814.82814,0,0,1,.83008.83008h0A.82814.82814,0,0,1,81,311.56006h0A.83442.83442,0,0,1,80.16992,310.73Zm.92969-3.92969a.83644.83644,0,0,1-.76953-.88965h0a.84322.84322,0,0,1,.88965-.7705h0a.84482.84482,0,0,1,.7705.89062h0a.838.838,0,0,1-.83007.76953h-.06055Zm.46-4.74023a.83209.83209,0,0,1-.67969-.9502h0a.83175.83175,0,0,1,.9502-.68945h0a.83908.83908,0,0,1,.68945.95019h0a.83436.83436,0,0,1-.81933.7002h0C81.64941,302.0708,81.60938,302.06006,81.55957,302.06006Zm.96-4.66992a.81167.81167,0,0,1-.55957-1.03028h0a.82492.82492,0,0,1,1.01953-.55957h0a.84148.84148,0,0,1,.57031,1.03028h0a.84414.84414,0,0,1-.7998.5996h0A.58491.58491,0,0,1,82.51953,297.39014Zm1.49024-4.51954a.81818.81818,0,0,1-.46-1.07031H83.54a.82979.82979,0,0,1,1.08008-.46972h0a.84633.84633,0,0,1,.46972,1.08007h0a.83475.83475,0,0,1-.7705.51953h0A.81245.81245,0,0,1,84.00977,292.8706Zm1.87988-4.37011a.82565.82565,0,0,1-.37012-1.11035h0a.81191.81191,0,0,1,1.10059-.37012h0A.824.824,0,0,1,87,288.1206h0v.00977h0a.82957.82957,0,0,1-.74023.4502h0A.77816.77816,0,0,1,85.88965,288.50049Z" style="fill: #ff4257"/>
    <path d="M55.58016,311.48887a.82164.82164,0,0,1-.43066-1.08984h0a.83008.83008,0,0,1,1.08984-.43066h0a.82678.82678,0,0,1,.43067,1.09082h0a.84312.84312,0,0,1-.77051.5h0A.77287.77287,0,0,1,55.58016,311.48887Zm2.83976-3.98838a.81832.81832,0,0,1-.35058-1.11035h0a.82208.82208,0,0,1,1.11035-.35938h0A.82957.82957,0,0,1,59.54,307.1499h0a.82958.82958,0,0,1-.74024.4502h0A.7424.7424,0,0,1,58.41992,307.50049ZM60.71973,303.27a.81755.81755,0,0,1-.28028-1.12988h0a.82082.82082,0,0,1,1.12989-.29h0a.8251.8251,0,0,1,.29,1.14062h0a.82733.82733,0,0,1-.71.39942h0A.8466.8466,0,0,1,60.71973,303.27Zm2.56054-4.08008a.83144.83144,0,0,1-.2207-1.14941h0a.83525.83525,0,0,1,1.16016-.21973h0a.84168.84168,0,0,1,.21,1.15918h0a.83488.83488,0,0,1-.67969.36035h0A.81348.81348,0,0,1,63.28027,299.18994ZM66.08008,295.27a.827.827,0,0,1-.14063-1.16016h0a.82705.82705,0,0,1,1.16016-.13965h0a.82767.82767,0,0,1,.15039,1.16016h0a.8434.8434,0,0,1-.66016.32031h0A.81347.81347,0,0,1,66.08008,295.27Zm3.05957-3.71973a.82494.82494,0,0,1-.04981-1.16992h0a.82369.82369,0,0,1,1.16993-.0498h0a.83293.83293,0,0,1,.0498,1.16992h0a.82048.82048,0,0,1-.60937.26953h0A.81006.81006,0,0,1,69.13965,291.55029Zm3.33008-3.47949a.82476.82476,0,0,1,.0205-1.1709h0a.84562.84562,0,0,1,1.17969.03027h0a.83339.83339,0,0,1-.03027,1.16993h0a.85074.85074,0,0,1-.58008.23047h0A.821.821,0,0,1,72.46973,288.0708Zm3.5498-3.24023a.83689.83689,0,0,1,.11035-1.16993h0a.83685.83685,0,0,1,1.16992.10938h0a.8368.8368,0,0,1-.11035,1.16992h0a.79719.79719,0,0,1-.52929.19043h0A.84375.84375,0,0,1,76.01953,284.83057Zm3.78027-2.99024a.83313.83313,0,0,1,.19043-1.16016h0a.819.819,0,0,1,1.14942.19043h0a.82345.82345,0,0,1-.18945,1.16016V282.02a.77162.77162,0,0,1-.48047.16015h0A.82554.82554,0,0,1,79.7998,281.84033Z" style="fill: #ff4257"/>
  </g>
  <g>
    <path d="M81.87012,262.00049h0A.83413.83413,0,0,1,81.5,260.89014h0a.82312.82312,0,0,1,1.10938-.37989h0a.82294.82294,0,0,1,.37011,1.11035h0a.815.815,0,0,1-.73926.46h0A.83137.83137,0,0,1,81.87012,262.00049Zm-4.28028-1.91992h0a.82628.82628,0,0,1-.46-1.07032h0a.8182.8182,0,0,1,1.07032-.46v-.00976a.8298.8298,0,0,1,.46972,1.08007h0a.84485.84485,0,0,1-.77051.51954h0A.81268.81268,0,0,1,77.58984,260.08057Zm-4.42968-1.54v.00976h0a.82909.82909,0,0,1-.55078-1.04h0a.80522.80522,0,0,1,1.0205-.5498h0a.81307.81307,0,0,1,.55957,1.01953h0a.82162.82162,0,0,1-.79.60059h0A.66244.66244,0,0,1,73.16016,258.54053Zm-4.54-1.03028a.82044.82044,0,0,1-.68067-.95019h0a.83208.83208,0,0,1,.9502-.67969h0a.83519.83519,0,0,1,.69043.9502h0a.83537.83537,0,0,1-.82031.70019h0A.68869.68869,0,0,1,68.62012,257.51025Zm-4.65039-.51953a.83063.83063,0,0,1-.76953-.89062h0a.83279.83279,0,0,1,.87988-.76953h0a.82882.82882,0,0,1,.76953.88964h0a.82877.82877,0,0,1-.81934.77051h-.06054Zm-10.29-.89062a.81917.81917,0,0,1,.7998-.84961h0a.82738.82738,0,0,1,.85059.7998h0a.82915.82915,0,0,1-.79981.86035h-.0205A.83048.83048,0,0,1,53.67969,256.1001Zm5.58984.73047a.82814.82814,0,0,1-.83008-.83008h0a.82814.82814,0,0,1,.83008-.83008h0a.83441.83441,0,0,1,.83008.83008h0a.83441.83441,0,0,1-.83008.83008Z" style="fill: #ff4257"/>
    <path d="M87.96973,255.95068v.00977a.83007.83007,0,0,1,.19043-1.16016h0a.82236.82236,0,0,1,1.15918.19043h0a.82657.82657,0,0,1-.18946,1.14942h0a.81243.81243,0,0,1-.48047.16015h0A.82668.82668,0,0,1,87.96973,255.95068Zm-2.91016-3.76074a.837.837,0,0,1,.11035-1.16992h0a.83779.83779,0,0,1,1.16992.11035h0a.83606.83606,0,0,1-.11035,1.16992h0a.842.842,0,0,1-.52929.19043h0A.81587.81587,0,0,1,85.05957,252.18994Zm-3.16016-3.5498h0a.816.816,0,0,1,.03028-1.16993h0a.82357.82357,0,0,1,1.16992.02051h0a.83224.83224,0,0,1-.03027,1.16992h0a.79667.79667,0,0,1-.56934.2295h0A.81835.81835,0,0,1,81.89941,248.64014ZM78.5,245.31006a.83445.83445,0,0,1-.06055-1.16992h0a.82539.82539,0,0,1,1.16993-.04981h0a.82423.82423,0,0,1,.06054,1.16992h0a.83772.83772,0,0,1-.61035.27051h0A.856.856,0,0,1,78.5,245.31006Zm-3.64062-3.05957a.8388.8388,0,0,1-.13965-1.16992h0a.84.84,0,0,1,1.16992-.14063h0a.82718.82718,0,0,1,.14062,1.16016h0a.8448.8448,0,0,1-.66015.32031h0A.87332.87332,0,0,1,74.85938,242.25049Zm-3.83985-2.82032a.82126.82126,0,0,1-.21-1.14941h0a.8309.8309,0,0,1,1.15039-.2207h0a.843.843,0,0,1,.21,1.16015h0a.83488.83488,0,0,1-.67969.36036h0A.81869.81869,0,0,1,71.01953,239.43017Zm-4.00976-2.57031h0a.843.843,0,0,1-.29-1.13965h0a.83148.83148,0,0,1,1.13965-.28027h0a.83785.83785,0,0,1,.29,1.14063h0a.84958.84958,0,0,1-.71.39941h0A.82085.82085,0,0,1,67.00977,236.85986Zm-4.16016-2.31933h0a.83005.83005,0,0,1-.35938-1.12012h0a.82957.82957,0,0,1,1.11915-.36035h0a.83337.83337,0,0,1,.36035,1.12011h0a.8285.8285,0,0,1-.74024.4502h0A.85474.85474,0,0,1,62.84961,234.54053Zm-3.80731-2.67448h0a.82852.82852,0,0,1-.42969-1.08985h0a.82976.82976,0,0,1,1.08984-.43066h0a.83042.83042,0,0,1,.42969,1.09082h0a.8271.8271,0,0,1-.75976.5h0A.97642.97642,0,0,1,59.0423,231.86605Z" style="fill: #ff4257"/>
  </g>
  <g>
    <path d="M134.89941,288.99072a.8204.8204,0,0,1,.83008-.82031h0a.82814.82814,0,0,1,.83008.83008h0a.83244.83244,0,0,1-.83008.82031h0A.82814.82814,0,0,1,134.89941,288.99072Zm4.76075-.05078a.827.827,0,0,1,.80957-.84961h0a.81918.81918,0,0,1,.84961.79981h0a.835.835,0,0,1-.79981.86035h-.0293A.837.837,0,0,1,139.66016,288.93994Zm-8.74024.7207a.81525.81525,0,0,1-.77051-.87988h0a.822.822,0,0,1,.88086-.77051h0a.82665.82665,0,0,1,.76953.87989h0a.83063.83063,0,0,1-.83007.7705h-.04981Zm-4.81054-.54a.83612.83612,0,0,1-.68946-.96h0a.838.838,0,0,1,.96-.68066h0a.83208.83208,0,0,1,.67969.95019h0a.83437.83437,0,0,1-.81934.7002h0A.54455.54455,0,0,1,126.10938,289.1206Zm-4.75-1.08007a.82417.82417,0,0,1-.54981-1.02051h0a.816.816,0,0,1,1.02051-.56934h0a.8411.8411,0,0,1,.56933,1.0293h0a.842.842,0,0,1-.7998.60059h0A.66758.66758,0,0,1,121.35938,288.04053Zm-4.55958-1.58985a.81944.81944,0,0,1-.46972-1.07031h0a.83794.83794,0,0,1,1.08008-.46973h0a.83329.83329,0,0,1,.46,1.08008h0a.83476.83476,0,0,1-.77051.51953h0A.80013.80013,0,0,1,116.7998,286.45068Zm-4.41015-1.9707a.81884.81884,0,0,1-.37012-1.10938h0a.82861.82861,0,0,1,1.10059-.37011h.00976a.83046.83046,0,0,1,.37012,1.10937h0a.84009.84009,0,0,1-.74023.46094h0A.8033.8033,0,0,1,112.38965,284.48Z" style="fill: #ff4257"/>
    <path d="M135.29816,314.98865h0a.82976.82976,0,0,1-.43066-1.08984h0a.83075.83075,0,0,1,1.09082-.42969h0a.82934.82934,0,0,1,.42969,1.08984h0a.83842.83842,0,0,1-.75977.5h0A.77033.77033,0,0,1,135.29816,314.98865Zm-3.90851-3.05848a.81988.81988,0,0,1-.35938-1.10937h0a.82956.82956,0,0,1,1.11914-.36035h0a.83041.83041,0,0,1,.36036,1.12012h0a.85028.85028,0,0,1-.74024.45019h0A.74343.74343,0,0,1,131.38965,311.93017Zm-4.25-2.37011a.843.843,0,0,1-.29-1.13965h0a.83153.83153,0,0,1,1.14062-.28027h0a.81684.81684,0,0,1,.2793,1.12988h0a.82389.82389,0,0,1-.71.41015h0A.81261.81261,0,0,1,127.13965,309.56006ZM123.04,306.93017a.83233.83233,0,0,1-.2207-1.14941h0a.83239.83239,0,0,1,1.16015-.21h0a.8204.8204,0,0,1,.21,1.14941h0a.83356.83356,0,0,1-.67968.36036h0A.83626.83626,0,0,1,123.04,306.93017Zm-3.93066-2.87011a.829.829,0,0,1-.13965-1.16016h0a.8302.8302,0,0,1,1.16992-.14941h0a.848.848,0,0,1,.14062,1.16992h0a.865.865,0,0,1-.66015.30957h0A.80486.80486,0,0,1,119.10938,304.06006Zm-3.7295-3.14942a.82411.82411,0,0,1-.0498-1.16992h0a.82413.82413,0,0,1,1.16992-.05078h0a.825.825,0,0,1,.0498,1.16992h0a.80337.80337,0,0,1-.61035.27051h0A.8139.8139,0,0,1,115.37988,300.91064Zm-3.48047-3.41015v.00976h0a.84556.84556,0,0,1,.03028-1.17968h0a.83357.83357,0,0,1,1.16992.02929h0a.82483.82483,0,0,1-.03027,1.1709h0a.78491.78491,0,0,1-.56934.22949h0A.792.792,0,0,1,111.89941,297.50049Zm-3.23925-3.62989a.8359.8359,0,0,1,.10937-1.16992h0a.8287.8287,0,0,1,1.16992.10938h0a.825.825,0,0,1-.10937,1.16015h0a.8344.8344,0,0,1-.53028.2002h0A.86349.86349,0,0,1,108.66016,293.8706Zm-2.98047-3.86035h0a.8288.8288,0,0,1,.19043-1.15039h0a.83123.83123,0,0,1,1.16015.18067h0a.84056.84056,0,0,1-.19043,1.16015h0a.81781.81781,0,0,1-.48046.15918h0A.82413.82413,0,0,1,105.67969,290.01025Z" style="fill: #ff4257"/>
  </g>
  <circle cx="97.5" cy="211.49999" r="16.84425" style="fill: none"/>
  <polyline points="85.589 223.411 97.5 211.5 109.411 223.411" style="fill: none"/>
  <circle cx="97.5" cy="333.50001" r="16.84425" style="fill: none"/>
  <polyline points="109.411 321.589 97.5 333.5 85.589 321.589" style="fill: none"/>
  <g>
    <circle cx="80.20224" cy="342.14023" r="3.73497" style="fill: #252626"/>
    <path d="M80.20215,344.88525a.55348.55348,0,0,1-.55274-.55273v-4.38379a.55274.55274,0,0,1,1.10547,0v4.38379A.55347.55347,0,0,1,80.20215,344.88525Z" style="fill: #e6e5e5"/>
    <path d="M82.39453,342.69287H78.01074a.55274.55274,0,0,1,0-1.10547h4.38379a.55274.55274,0,1,1,0,1.10547Z" style="fill: #e6e5e5"/>
  </g>
  <g>
    <circle cx="114.69871" cy="342.14023" r="3.73497" style="fill: #252626"/>
    <path d="M116.89063,342.69287h-4.38379a.55274.55274,0,1,1,0-1.10547h4.38379a.55274.55274,0,0,1,0,1.10547Z" style="fill: #e6e5e5"/>
  </g>
  <circle cx="158.49999" cy="272.50052" r="16.84425" style="fill: none"/>
  <polyline points="146.589 260.589 158.5 272.5 146.589 284.411" style="fill: none"/>
  <circle cx="36.50001" cy="272.5" r="16.84425" style="fill: none"/>
  <polyline points="48.403 284.411 36.492 272.5 48.403 260.589" style="fill: none"/>
  <g>
    <circle cx="115.06692" cy="203.26781" r="3.73497" style="fill: #252626"/>
    <path d="M115.06738,206.01221a.55348.55348,0,0,1-.55273-.55274v-4.38379a.55274.55274,0,0,1,1.10547,0v4.38379A.55348.55348,0,0,1,115.06738,206.01221Z" style="fill: #e6e5e5"/>
    <path d="M117.25879,203.8208H112.875a.55274.55274,0,0,1,0-1.10547h4.38379a.55274.55274,0,0,1,0,1.10547Z" style="fill: #e6e5e5"/>
  </g>
  <g>
    <circle cx="80.57046" cy="203.26781" r="3.73497" style="fill: #252626"/>
    <path d="M82.7627,203.8208H78.37891a.55274.55274,0,1,1,0-1.10547H82.7627a.55274.55274,0,0,1,0,1.10547Z" style="fill: #e6e5e5"/>
  </g>
  <g>
    <circle cx="28.38248" cy="255.45579" r="3.73497" style="fill: #252626"/>
    <path d="M30.57422,256.0083H26.19043a.55274.55274,0,0,1,0-1.10547h4.38379a.55274.55274,0,0,1,0,1.10547Z" style="fill: #e6e5e5"/>
    <path d="M28.38281,258.20068a.55347.55347,0,0,1-.55273-.55273v-4.38379a.55274.55274,0,1,1,1.10547,0V257.648A.55348.55348,0,0,1,28.38281,258.20068Z" style="fill: #e6e5e5"/>
  </g>
  <g>
    <circle cx="28.38248" cy="289.95225" r="3.73497" style="fill: #252626"/>
    <path d="M28.38281,292.69678a.55348.55348,0,0,1-.55273-.55274v-4.38379a.55274.55274,0,0,1,1.10547,0V292.144A.55348.55348,0,0,1,28.38281,292.69678Z" style="fill: #e6e5e5"/>
  </g>
  <g>
    <circle cx="166.2549" cy="289.95225" r="3.73497" style="fill: #252626"/>
    <path d="M168.44629,290.50537h-4.38281a.55274.55274,0,1,1,0-1.10547h4.38281a.55274.55274,0,0,1,0,1.10547Z" style="fill: #e6e5e5"/>
    <path d="M166.25488,292.69678a.55348.55348,0,0,1-.55273-.55274v-4.38379a.55274.55274,0,0,1,1.10547,0V292.144A.55348.55348,0,0,1,166.25488,292.69678Z" style="fill: #e6e5e5"/>
  </g>
  <g>
    <circle cx="166.2549" cy="255.45579" r="3.73497" style="fill: #252626"/>
    <path d="M166.25488,258.20068a.55347.55347,0,0,1-.55273-.55273v-4.38379a.55274.55274,0,1,1,1.10547,0V257.648A.55348.55348,0,0,1,166.25488,258.20068Z" style="fill: #e6e5e5"/>
  </g>
  <circle cx="127.50004" cy="219.50002" r="14.87217" style="fill: #252626"/>
  <circle cx="150.5" cy="302.49998" r="14.87217" style="fill: #252626"/>
  <circle cx="97.5" cy="272.49998" r="14.87217" style="fill: #252626"/>
  <circle cx="67.5" cy="325.49998" r="14.87217" style="fill: #252626"/>
  <circle cx="44.5" cy="242.49998" r="14.87217" style="fill: #252626"/>
  <path d="M67.26855,220.21826a.82817.82817,0,0,1-.416-1.54492,61.51325,61.51325,0,0,1,61.4082-.03711.82864.82864,0,0,1-.82812,1.43555,59.852,59.852,0,0,0-59.75.03515A.81937.81937,0,0,1,67.26855,220.21826Z" style="fill: #252626"/>
  <path d="M150.38184,303.647a.81926.81926,0,0,1-.41407-.11133.82828.82828,0,0,1-.30175-1.13183,59.85159,59.85159,0,0,0,.04882-59.72266.82864.82864,0,0,1,1.43555-.82812,61.51289,61.51289,0,0,1-.05078,61.38086A.82654.82654,0,0,1,150.38184,303.647Z" style="fill: #252626"/>
  <path d="M97.40137,334.18408a61.41482,61.41482,0,0,1-30.749-8.23633.82828.82828,0,0,1,.83008-1.43359,59.85535,59.85535,0,0,0,59.76367.042.82864.82864,0,1,1,.82813,1.43555A61.42312,61.42312,0,0,1,97.40137,334.18408Z" style="fill: #252626"/>
  <path d="M44.584,303.58838a.83022.83022,0,0,1-.71875-.41406,61.51593,61.51593,0,0,1-.0039-61.3418.82864.82864,0,0,1,1.43555.82812,59.85191,59.85191,0,0,0,.0039,59.68555.82782.82782,0,0,1-.7168,1.24219Z" style="fill: #252626"/>
  <path d="M97.5,212.32666a.82791.82791,0,0,1-.82812-.82813V194.65576a.82813.82813,0,0,1,1.65625,0v16.84277A.82792.82792,0,0,1,97.5,212.32666Z" style="fill: #252626"/>
  <path d="M97.5,229.17236a17.56113,17.56113,0,0,1-12.49707-5.17578.82864.82864,0,1,1,1.17187-1.17187,16.01541,16.01541,0,0,0,22.6504,0,.82864.82864,0,1,1,1.17187,1.17187A17.56113,17.56113,0,0,1,97.5,229.17236Z" style="fill: #252626"/>
  <path d="M85.54,322.41748a.82813.82813,0,0,1-.58594-1.41406,17.674,17.674,0,0,1,24.99317,0,.82864.82864,0,1,1-1.17188,1.17187,16.01422,16.01422,0,0,0-22.64941,0A.82913.82913,0,0,1,85.54,322.41748Z" style="fill: #252626"/>
  <path d="M175.34473,273.32861H158.5a.82813.82813,0,0,1,0-1.65625h16.84473a.82813.82813,0,0,1,0,1.65625Z" style="fill: #252626"/>
  <path d="M146.58887,285.21631a.82912.82912,0,0,1-.58594-.24219,17.674,17.674,0,0,1,0-24.99316.82864.82864,0,0,1,1.17187,1.17187,16.01423,16.01423,0,0,0,0,22.64942.82813.82813,0,0,1-.58593,1.41406Z" style="fill: #252626"/>
  <path d="M36.49219,273.32764H19.64746a.82813.82813,0,0,1,0-1.65625H36.49219a.82813.82813,0,0,1,0,1.65625Z" style="fill: #252626"/>
  <path d="M48.40332,285.21631a.82813.82813,0,0,1-.58594-1.41406,16.0142,16.0142,0,0,0,0-22.64942.82864.82864,0,1,1,1.17188-1.17187,17.674,17.674,0,0,1,0,24.99316A.82913.82913,0,0,1,48.40332,285.21631Z" style="fill: #252626"/>
  <path d="M97.35254,243.02392h-.00586a.82732.82732,0,0,1-.82227-.834l.09766-13.85156a.828.828,0,0,1,.82813-.82227h.00585a.82732.82732,0,0,1,.82227.834l-.09766,13.85156A.82793.82793,0,0,1,97.35254,243.02392Z" style="fill: #252626"/>
  <path d="M141.65527,273.32568H127.5a.84766.84766,0,1,1,0-1.69531h14.15527a.84766.84766,0,1,1,0,1.69531Z" style="fill: #252626"/>
  <path d="M97.5,317.48389a.82792.82792,0,0,1-.82812-.82813V302.50049a.82813.82813,0,1,1,1.65625,0v14.15527A.82793.82793,0,0,1,97.5,317.48389Z" style="fill: #252626"/>
  <path d="M67.5,273.3042H53.34473a.82618.82618,0,1,1,0-1.65235H67.5a.82618.82618,0,0,1,0,1.65235Z" style="fill: #252626"/>
  <g>
    <g>
      <path d="M58.87988,209.43017a.86754.86754,0,0,1-.32031-.05957.68209.68209,0,0,1-.25977-.18066.80054.80054,0,0,1-.17968-.26953.70042.70042,0,0,1-.07032-.32031.81128.81128,0,0,1,.25-.58008.67989.67989,0,0,1,.25977-.17969.83623.83623,0,0,1,.91016.17969.82506.82506,0,0,1,.24023.58008.86458.86458,0,0,1-.06055.32031.80039.80039,0,0,1-.17968.26953A.86625.86625,0,0,1,58.87988,209.43017Z" style="fill: #00bc8b"/>
      <path d="M53.7998,225.1001A.82909.82909,0,0,1,54.25,224.02h0a.81993.81993,0,0,1,1.08008.44043h0a.81993.81993,0,0,1-.44043,1.08008h0a.74129.74129,0,0,1-.32031.06933h0A.83371.83371,0,0,1,53.7998,225.1001Zm-.99023-3.67969a.83083.83083,0,0,1,.7207-.92969h0a.831.831,0,0,1,.92969.71h0a.84014.84014,0,0,1-.71973.93946h-.11035A.83652.83652,0,0,1,52.80957,221.42041Zm.71-2.87012a.83064.83064,0,0,1-.71-.92969h0a.8346.8346,0,0,1,.93066-.7207h0a.83286.83286,0,0,1,.71.93067h0a.82191.82191,0,0,1-.82032.71972h-.11035Zm.7207-3.53027a.8149.8149,0,0,1-.45019-1.08008h0a.82829.82829,0,0,1,1.08008-.44922h0a.83094.83094,0,0,1,.44922,1.08008h0a.83345.83345,0,0,1-.76954.51953h0A.68722.68722,0,0,1,54.24023,215.02Zm1.59961-3.21973a.81879.81879,0,0,1-.15039-1.16015h0a.82608.82608,0,0,1,1.16016-.14942h0A.82536.82536,0,0,1,57,211.6499h0a.82943.82943,0,0,1-.66016.32031h0A.79645.79645,0,0,1,55.83984,211.80029Z" style="fill: #00bc8b"/>
      <path d="M56.37012,228.72021a.82785.82785,0,0,1-.31055-.07031.80042.80042,0,0,1-.26953-.17969.81122.81122,0,0,1-.25-.58007.71091.71091,0,0,1,.06934-.31934.7974.7974,0,0,1,.18066-.27051,1.0387,1.0387,0,0,1,.26953-.17969.85586.85586,0,0,1,.62988,0,1.24189,1.24189,0,0,1,.27051.17969.79472.79472,0,0,1,.17969.27051.86327.86327,0,0,1,.06055.31934.82052.82052,0,0,1-.51075.75976A.87269.87269,0,0,1,56.37012,228.72021Z" style="fill: #00bc8b"/>
    </g>
    <path d="M78.16825,211.111A13.75229,13.75229,0,0,0,58.882,208.60285" style="fill: none"/>
    <path d="M56.37387,227.88912a13.75229,13.75229,0,0,0,19.28627,2.50811" style="fill: none"/>
  </g>
  <g>
    <path d="M139.545,250.77162a13.75228,13.75228,0,0,0,19.26878,2.63908" style="fill: none"/>
    <g>
      <path d="M161.35938,235.04053a.80743.80743,0,0,1-.57911-.25.78576.78576,0,0,1-.24023-.58008.8675.8675,0,0,1,.05957-.32031.8035.8035,0,0,1,.18066-.26954,1.275,1.275,0,0,1,.26953-.18066.85579.85579,0,0,1,.62989,0,1.28164,1.28164,0,0,1,.27051.18066.80057.80057,0,0,1,.17968.26954.8675.8675,0,0,1,.05957.32031.7886.7886,0,0,1-.23925.58008A.83393.83393,0,0,1,161.35938,235.04053Z" style="fill: #00bc8b"/>
      <path d="M158.33008,232.31006a.82755.82755,0,0,1-.15039-1.16016h0a.83131.83131,0,0,1,1.16992-.14941h0a.82706.82706,0,0,1,.14062,1.16015h0a.81.81,0,0,1-.65039.31934h0A.86368.86368,0,0,1,158.33008,232.31006Zm-2.91016-1.7002a.83047.83047,0,0,1-.44043-1.08984h0a.81868.81868,0,0,1,1.08008-.43945h0a.82321.82321,0,0,1,.44043,1.08007h0a.822.822,0,0,1-.75977.50977h0A.86458.86458,0,0,1,155.41992,230.60986Zm-10.96972-.50976a.82863.82863,0,0,1,.44921-1.08008h0a.82068.82068,0,0,1,1.08008.45019h0a.81978.81978,0,0,1-.44922,1.08008h0a.8585.8585,0,0,1-.31054.05957h0A.82291.82291,0,0,1,144.4502,230.1001Zm7.71-.37989h0a.81585.81585,0,0,1-.7002-.92968h0a.81609.81609,0,0,1,.92969-.71h0a.82993.82993,0,0,1,.71.92968h0a.84435.84435,0,0,1-.81934.71973h0C152.24023,229.73,152.2002,229.72021,152.16016,229.72021Zm-4.30078-.74023a.84022.84022,0,0,1,.7207-.92969v.00977a.82594.82594,0,0,1,.92969.71h0a.841.841,0,0,1-.71973.93066h-.10059A.83243.83243,0,0,1,147.85938,228.98Z" style="fill: #00bc8b"/>
      <path d="M142.09961,232.3999a.681.681,0,0,1-.31934-.06933.95894.95894,0,0,1-.2705-.16993.82361.82361,0,0,1-.24024-.58984.86458.86458,0,0,1,.06055-.32031.79472.79472,0,0,1,.17969-.27051.95891.95891,0,0,1,.2705-.16992.83132.83132,0,0,1,.89942.16992.79472.79472,0,0,1,.17969.27051.87507.87507,0,0,1,0,.63965.79468.79468,0,0,1-.17969.2705.968.968,0,0,1-.26953.16993A.67478.67478,0,0,1,142.09961,232.3999Z" style="fill: #00bc8b"/>
    </g>
    <path d="M142.18407,231.50284a13.75229,13.75229,0,0,0-2.63907,19.26878" style="fill: none"/>
    <path d="M158.81378,253.4107a13.75228,13.75228,0,0,0,2.63907-19.26878" style="fill: none"/>
  </g>
  <g>
    <path d="M119.65552,314.23017a13.75228,13.75228,0,0,0-3.39473,19.1501" style="fill: none"/>
    <g>
      <path d="M135.34961,337.51025a.86245.86245,0,0,1-.31934-.05957.82934.82934,0,0,1-.45019-.45019.86837.86837,0,0,1-.06055-.32032.81333.81333,0,0,1,.06055-.30957.6433.6433,0,0,1,.17969-.2705.853.853,0,0,1,1.16992,0,.6433.6433,0,0,1,.17969.2705.81351.81351,0,0,1,.06054.30957.86857.86857,0,0,1-.06054.32032.83178.83178,0,0,1-.44922.45019A.8547.8547,0,0,1,135.34961,337.51025Z" style="fill: #00bc8b"/>
      <path d="M137.46973,334.8999a.82675.82675,0,0,1-.09961-1.16992h0a.80688.80688,0,0,1,1.16015-.09961h0a.81525.81525,0,0,1,.09961,1.16016h0a.80941.80941,0,0,1-.62988.2998h0A.7997.7997,0,0,1,137.46973,334.8999Zm2.11035-2.91992a.81406.81406,0,0,1-.40039-1.09961h0a.83224.83224,0,0,1,1.10058-.40039h0a.83528.83528,0,0,1,.39942,1.10059v.00976a.82166.82166,0,0,1-.75.46973h0A.70961.70961,0,0,1,139.58008,331.98Zm1.2793-3.34961a.82834.82834,0,0,1-.66993-.96h0a.814.814,0,0,1,.96-.66992h0a.813.813,0,0,1,.66993.95019h0a.8232.8232,0,0,1-.80957.68946h0C140.96,328.64014,140.91016,328.63037,140.85938,328.63037Zm-.50977-4.33008h-.00977a.84474.84474,0,0,1,.75977-.90039h0a.83087.83087,0,0,1,.90039.75h-.00977a.82346.82346,0,0,1-.75.90039h-.07031A.812.812,0,0,1,140.34961,324.30029Zm-.72949-3.2998a.82745.82745,0,0,1,.5-1.06055h0a.82013.82013,0,0,1,1.05957.5h0a.836.836,0,0,1-.5,1.06055h0a.90673.90673,0,0,1-.28028.0498h0A.82553.82553,0,0,1,139.62012,321.00049Z" style="fill: #00bc8b"/>
      <path d="M138.74023,318.35986a.81719.81719,0,0,1-.83007-.8291.82422.82422,0,0,1,1.40918-.58008.79162.79162,0,0,1,.25.58008.86265.86265,0,0,1-.05957.31934.8272.8272,0,0,1-.19043.2705.66533.66533,0,0,1-.25977.17969A.86245.86245,0,0,1,138.74023,318.35986Z" style="fill: #00bc8b"/>
    </g>
    <path d="M138.80562,317.6249a13.75228,13.75228,0,0,0-19.1501-3.39473" style="fill: none"/>
    <path d="M116.26079,333.38027a13.75228,13.75228,0,0,0,19.1501,3.39473" style="fill: none"/>
  </g>
  <g>
    <g>
      <path d="M32.84961,310.8706a.71185.71185,0,0,1-.31934-.07031.7783.7783,0,0,1-.26074-.16992.8334.8334,0,0,1-.25-.58984.71609.71609,0,0,1,.07031-.32032.67978.67978,0,0,1,.17969-.25976.78749.78749,0,0,1,1.16992,0,.68211.68211,0,0,1,.18067.25976.88834.88834,0,0,1,0,.63965.79758.79758,0,0,1-.18067.27051.946.946,0,0,1-.26953.16992A.71591.71591,0,0,1,32.84961,310.8706Z" style="fill: #00bc8b"/>
      <path d="M45.04,317.30029a.82851.82851,0,0,1-.86035-.7998h0a.82061.82061,0,0,1,.7998-.85059h0a.81962.81962,0,0,1,.85059.79h0a.82705.82705,0,0,1-.79.86035Zm-3.79-.36035a.82508.82508,0,0,1-.62988-.98926h0a.82651.82651,0,0,1,1-.62011h0a.82825.82825,0,0,1,.62011.99023h0a.83406.83406,0,0,1-.81054.63965h0A.53882.53882,0,0,1,41.25,316.93994Zm6.5-.81934a.83637.83637,0,0,1,.5498-1.04h0a.8218.8218,0,0,1,1.03028.5498h0a.82387.82387,0,0,1-.54,1.04h0a1.0122,1.0122,0,0,1-.24024.03027h0A.8246.8246,0,0,1,47.75,316.1206Zm-10.07031-.5a.82678.82678,0,0,1-.33985-1.12011h0a.81832.81832,0,0,1,1.11036-.35059h0a.83313.83313,0,0,1,.3496,1.12012h0a.845.845,0,0,1-.73046.45019h0A.78754.78754,0,0,1,37.67969,315.6206Zm-3.09961-2.20019h0a.82447.82447,0,0,1-.04981-1.16992h0a.82477.82477,0,0,1,1.16993-.04981h0l.00976.00977h0a.833.833,0,0,1,.04,1.16992h0a.86659.86659,0,0,1-.61035.25977h0A.83878.83878,0,0,1,34.58008,313.42041Z" style="fill: #00bc8b"/>
      <path d="M51.80957,315.21045a.712.712,0,0,1-.31934-.07031.79468.79468,0,0,1-.2705-.17969.80757.80757,0,0,1-.17969-.25977.8775.8775,0,0,1,0-.64062,1.25821,1.25821,0,0,1,.17969-.26953.97128.97128,0,0,1,.2705-.18067.89176.89176,0,0,1,.63965,0,.98078.98078,0,0,1,.26953.18067.92511.92511,0,0,1,.16993.26953.70314.70314,0,0,1,.07031.32031.7316.7316,0,0,1-.07031.32031.76894.76894,0,0,1-.16993.25977.80032.80032,0,0,1-.26953.17969A.71321.71321,0,0,1,51.80957,315.21045Z" style="fill: #00bc8b"/>
    </g>
    <path d="M56.05451,295.48108a13.75227,13.75227,0,0,0-18.95848-4.339" style="fill: none"/>
    <path d="M37.19025,291.08192a13.75228,13.75228,0,0,0-4.339,18.95848" style="fill: none"/>
    <path d="M51.80975,314.37937a13.75229,13.75229,0,0,0,4.339-18.95848" style="fill: none"/>
  </g>
</svg>
