<svg id="Layer_1" data-name="Layer 1" xmlns="http://www.w3.org/2000/svg" width="165" height="380" viewBox="0 0 165 380">
  <title>BlackHolesBG165</title>
  <rect width="165" height="380" style="fill: #e5e5e5"/>
  <g>
    <g>
      <circle cx="23" cy="6" r="5.73633" style="fill: #bcbcbc"/>
      <path d="M23,.52747A5.47253,5.47253,0,1,1,17.52751,6,5.47873,5.47873,0,0,1,23,.52747M23,0a6,6,0,1,0,6,6,6,6,0,0,0-6-6Z" style="fill: gray"/>
    </g>
    <polygon points="26.495 5.341 23.659 5.341 23.659 2.505 22.341 2.505 22.341 5.341 19.506 5.341 19.506 6.659 22.341 6.659 22.341 9.495 23.659 9.495 23.659 6.659 26.495 6.659 26.495 5.341" style="fill: #6e6e6e"/>
  </g>
  <g>
    <g>
      <circle cx="142" cy="6" r="5.73633" style="fill: #bcbcbc"/>
      <path d="M142,.52747A5.47253,5.47253,0,1,1,136.52751,6,5.47873,5.47873,0,0,1,142,.52747M142,0a6,6,0,1,0,6,6,6,6,0,0,0-6-6Z" style="fill: gray"/>
    </g>
    <polygon points="145.495 5.341 142.659 5.341 142.659 2.505 141.341 2.505 141.341 5.341 138.506 5.341 138.506 6.659 141.341 6.659 141.341 9.495 142.659 9.495 142.659 6.659 145.495 6.659 145.495 5.341" style="fill: #6e6e6e"/>
  </g>
  <g>
    <g>
      <circle cx="23" cy="374" r="5.73633" style="fill: #bcbcbc"/>
      <path d="M23,368.52747A5.47253,5.47253,0,1,1,17.52751,374,5.47874,5.47874,0,0,1,23,368.52747M23,368a6,6,0,1,0,6,6,6,6,0,0,0-6-6Z" style="fill: gray"/>
    </g>
    <polygon points="26.495 373.341 23.659 373.341 23.659 370.505 22.341 370.505 22.341 373.341 19.506 373.341 19.506 374.659 22.341 374.659 22.341 377.495 23.659 377.495 23.659 374.659 26.495 374.659 26.495 373.341" style="fill: #6e6e6e"/>
  </g>
  <g>
    <g>
      <circle cx="142" cy="374" r="5.73633" style="fill: #bcbcbc"/>
      <path d="M142,368.52747A5.47253,5.47253,0,1,1,136.52751,374,5.47874,5.47874,0,0,1,142,368.52747M142,368a6,6,0,1,0,6,6,6,6,0,0,0-6-6Z" style="fill: gray"/>
    </g>
    <polygon points="145.495 373.341 142.659 373.341 142.659 370.505 141.341 370.505 141.341 373.341 138.506 373.341 138.506 374.659 141.341 374.659 141.341 377.495 142.659 377.495 142.659 374.659 145.495 374.659 145.495 373.341" style="fill: #6e6e6e"/>
  </g>
  <g>
    <path d="M93.37012,93.98A.82708.82708,0,0,1,93,92.8706h0a.83047.83047,0,0,1,1.10938-.37011h0a.81938.81938,0,0,1,.37011,1.10937h0a.81586.81586,0,0,1-.73926.46094h0A.8336.8336,0,0,1,93.37012,93.98Zm2.00976-4.30957a.8383.8383,0,0,1-.46972-1.08008h.00976a.81111.81111,0,0,1,1.07031-.46h0a.82275.82275,0,0,1,.46,1.07031H96.46a.84072.84072,0,0,1-.78027.5293h0A.80013.80013,0,0,1,95.37988,89.67041Zm1.62989-4.48047a.83456.83456,0,0,1-.55957-1.0293h0a.83949.83949,0,0,1,1.02929-.56054h0A.82791.82791,0,0,1,98.04,84.63037h0a.82246.82246,0,0,1-.79.59961h0A.66758.66758,0,0,1,97.00977,85.18994Zm1.15039-4.60937a.84327.84327,0,0,1-.68067-.96h0a.83351.83351,0,0,1,.9502-.68066h0a.828.828,0,0,1,.69043.9502h0a.83538.83538,0,0,1-.82032.70019h0C98.25,80.59033,98.21,80.58057,98.16016,80.58057Zm.62011-4.73047a.82046.82046,0,0,1-.7705-.87989h0a.8209.8209,0,0,1,.87988-.76953h0a.82752.82752,0,0,1,.77051.87989h0a.82152.82152,0,0,1-.82032.76953h-.05957ZM98.16016,70.27h.00976A.82814.82814,0,0,1,99,69.43994h0a.81907.81907,0,0,1,.81934.83008h0a.82731.82731,0,0,1-.82911.83008h0A.83441.83441,0,0,1,98.16016,70.27Zm-.07032-4.73926a.82643.82643,0,0,1,.79981-.85059h0a.81477.81477,0,0,1,.85058.79981h0a.82935.82935,0,0,1-.80078.86035h-.01953A.83032.83032,0,0,1,98.08984,65.53076Z" style="fill: #ff4257"/>
    <path d="M98.85938,100.13037A.83123.83123,0,0,1,99.04,98.97021h0a.83313.83313,0,0,1,1.16016.19043h0a.83313.83313,0,0,1-.19043,1.16016h0a.85191.85191,0,0,1-.4795.14941h0A.826.826,0,0,1,98.85938,100.13037ZM102.7002,97.23a.82711.82711,0,0,1,.10937-1.16992h0a.82508.82508,0,0,1,1.16016.11035h0a.81533.81533,0,0,1-.09961,1.16016h0a.857.857,0,0,1-.53028.20019h0A.844.844,0,0,1,102.7002,97.23Zm3.62988-3.15918a.83456.83456,0,0,1,.0293-1.1709h0a.8171.8171,0,0,1,1.17089.03027h0a.82445.82445,0,0,1-.0205,1.16993h0a.86894.86894,0,0,1-.58008.23047h0A.84251.84251,0,0,1,106.33008,94.0708Zm3.41015-3.40039a.82417.82417,0,0,1-.05078-1.16992h0a.8345.8345,0,0,1,1.16993-.06055h0a.82456.82456,0,0,1,.05078,1.16992h0a.83043.83043,0,0,1-.61036.28028h0A.85792.85792,0,0,1,109.74023,90.67041Zm3.15918-3.63965a.83357.83357,0,0,1-.14941-1.1709h0a.83871.83871,0,0,1,1.16992-.13965h0a.83793.83793,0,0,1,.13965,1.16993h0a.86451.86451,0,0,1-.66016.31054h0A.80232.80232,0,0,1,112.89941,87.03076Zm2.88086-3.86035a.82177.82177,0,0,1-.21093-1.15039h0a.82083.82083,0,0,1,1.15039-.21h0a.82947.82947,0,0,1,.21,1.15039h0a.83747.83747,0,0,1-.67969.36035h0A.8439.8439,0,0,1,115.78027,83.17041Zm2.63965-4.02051a.83039.83039,0,0,1-.28027-1.13965h0a.82814.82814,0,0,1,1.14062-.28027h0a.82535.82535,0,0,1,.2793,1.12988h0a.83713.83713,0,0,1-.71.41016h0A.84664.84664,0,0,1,118.41992,79.1499Zm2.39942-4.18945A.82239.82239,0,0,1,120.46,73.8501h0a.83005.83005,0,0,1,1.12012-.35938h0a.835.835,0,0,1,.34961,1.11914h0a.846.846,0,0,1-.74024.4502h0A.73308.73308,0,0,1,120.81934,74.96045Zm2.11035-4.32031A.82852.82852,0,0,1,122.5,69.55029h0a.82851.82851,0,0,1,1.08984-.42969h0a.8285.8285,0,0,1,.42969,1.08985h0a.8271.8271,0,0,1-.75976.5h0A.78816.78816,0,0,1,122.92969,70.64014Z" style="fill: #ff4257"/>
  </g>
  <g>
    <path d="M65.25,151.52a.84085.84085,0,0,1,.7998-.85938h0a.84316.84316,0,0,1,.86036.80957h0a.84229.84229,0,0,1-.81055.85059h-.01953A.82856.82856,0,0,1,65.25,151.52Zm-.08008-4.79h0A.83441.83441,0,0,1,66,145.8999h0a.82814.82814,0,0,1,.83008.83008h0A.82814.82814,0,0,1,66,147.56006h0A.83442.83442,0,0,1,65.16992,146.73Zm.92969-3.92969a.83644.83644,0,0,1-.76953-.88965h0a.84322.84322,0,0,1,.88965-.7705h0a.84482.84482,0,0,1,.7705.89062h0a.838.838,0,0,1-.83007.76953h-.06055Zm.46-4.74023a.83209.83209,0,0,1-.67969-.9502h0a.83175.83175,0,0,1,.9502-.68945h0a.83908.83908,0,0,1,.68945.95019h0a.83436.83436,0,0,1-.81933.7002h0C66.64941,138.0708,66.60938,138.06006,66.55957,138.06006Zm.96-4.66992A.80494.80494,0,0,1,66.96,132.3706h0a.82272.82272,0,0,1,1.01953-.57031h0a.84148.84148,0,0,1,.57031,1.03028h0a.84414.84414,0,0,1-.7998.5996h0A.58491.58491,0,0,1,67.51953,133.39014Zm1.49024-4.51954a.81818.81818,0,0,1-.46-1.07031H68.54a.82979.82979,0,0,1,1.08008-.46972h0a.84633.84633,0,0,1,.46972,1.08007h0a.83475.83475,0,0,1-.7705.51953h0A.81245.81245,0,0,1,69.00977,128.8706Zm1.87988-4.37011a.82565.82565,0,0,1-.37012-1.11035h0a.81191.81191,0,0,1,1.10059-.37012h0A.824.824,0,0,1,72,124.1206h0v.00977h0a.82957.82957,0,0,1-.74023.4502h0A.77816.77816,0,0,1,70.88965,124.50049Z" style="fill: #ff4257"/>
    <path d="M41.41016,147.88037a.82164.82164,0,0,1-.43067-1.08984h0a.83009.83009,0,0,1,1.08985-.43067h0A.83037.83037,0,0,1,42.5,147.45068v-.01074a.83241.83241,0,0,1-.75977.51074h0A.785.785,0,0,1,41.41016,147.88037Zm2.00976-4.37012a.8295.8295,0,0,1-.35058-1.12011h0a.82208.82208,0,0,1,1.11035-.35938h0A.82957.82957,0,0,1,44.54,143.1499h0a.84835.84835,0,0,1-.74024.4502h0A.84177.84177,0,0,1,43.41992,143.51025ZM45.71973,139.27a.81755.81755,0,0,1-.28028-1.12988h0a.81173.81173,0,0,1,1.12989-.29h0a.8251.8251,0,0,1,.29,1.14062h0a.82733.82733,0,0,1-.71.39942h0A.8466.8466,0,0,1,45.71973,139.27Zm2.56054-4.08008a.83144.83144,0,0,1-.2207-1.14941h0a.834.834,0,0,1,1.16016-.21h0a.8283.8283,0,0,1,.21,1.14941h0a.83488.83488,0,0,1-.67969.36035h0A.81348.81348,0,0,1,48.28027,135.18994Zm2.79981-3.90918a.84111.84111,0,0,1-.14063-1.1709h0a.82705.82705,0,0,1,1.16016-.13965h0a.82767.82767,0,0,1,.15039,1.16016h0a.8434.8434,0,0,1-.66016.32031h0A.87035.87035,0,0,1,51.08008,131.28076Zm3.05957-3.73047a.82454.82454,0,0,1-.04981-1.16992h0a.82369.82369,0,0,1,1.16993-.0498h0a.83293.83293,0,0,1,.0498,1.16992h0a.82048.82048,0,0,1-.60937.26953h0A.81006.81006,0,0,1,54.13965,127.55029Zm3.33008-3.47949a.82476.82476,0,0,1,.0205-1.1709h0a.83654.83654,0,0,1,1.17969.03027h0a.83362.83362,0,0,1-.03027,1.16993h0a.85074.85074,0,0,1-.58008.23047h0A.821.821,0,0,1,57.46973,124.0708Zm3.5498-3.24023a.83689.83689,0,0,1,.11035-1.16993h0a.83685.83685,0,0,1,1.16992.10938h0a.836.836,0,0,1-.11035,1.16992h0a.85694.85694,0,0,1-.52929.19043h0A.82911.82911,0,0,1,61.01953,120.83057Zm3.78027-2.99024a.82365.82365,0,0,1,.19043-1.16016h0a.819.819,0,0,1,1.14942.19043h0A.81861.81861,0,0,1,65.9502,118.02h0a.77162.77162,0,0,1-.48047.16015h0A.82554.82554,0,0,1,64.7998,117.84033Z" style="fill: #ff4257"/>
  </g>
  <g>
    <path d="M66.87012,98.00049h0A.83413.83413,0,0,1,66.5,96.89014h0A.8114.8114,0,0,1,67.60938,96.52v-.00977a.83639.83639,0,0,1,.38085,1.11035h0a.84263.84263,0,0,1-.75.46h0A.83137.83137,0,0,1,66.87012,98.00049Zm-4.28028-1.91992h0a.82628.82628,0,0,1-.46-1.07032h0a.831.831,0,0,1,1.07032-.46972h0a.8298.8298,0,0,1,.46972,1.08007h0a.84485.84485,0,0,1-.77051.51954h0A.81268.81268,0,0,1,62.58984,96.08057Zm-4.42968-1.54a.8148.8148,0,0,1-.55078-1.03028h0a.81824.81824,0,0,1,1.0205-.55957h0a.8275.8275,0,0,1,.55957,1.0293h0a.82162.82162,0,0,1-.79.60059h0A.66244.66244,0,0,1,58.16016,94.54053Zm-4.54-1.03028a.81545.81545,0,0,1-.68067-.95019h0a.83208.83208,0,0,1,.9502-.67969h0a.83519.83519,0,0,1,.69043.9502h0a.83537.83537,0,0,1-.82031.70019h0A.68869.68869,0,0,1,53.62012,93.51025ZM48.2002,92.1001a.83279.83279,0,0,1,.87988-.76953h0a.82264.82264,0,0,1,.76953.88964h0a.82892.82892,0,0,1-.87988.77051h0A.83644.83644,0,0,1,48.2002,92.1001Zm-9.52051,0a.82512.82512,0,0,1,.7998-.84961h0a.821.821,0,0,1,.85059.7998h0a.82915.82915,0,0,1-.79981.86035h-.0205A.83048.83048,0,0,1,38.67969,92.1001Zm5.58984.73047a.82814.82814,0,0,1-.83008-.83008h0a.82814.82814,0,0,1,.83008-.83008h0a.83441.83441,0,0,1,.83008.83008h0a.83441.83441,0,0,1-.83008.83008Z" style="fill: #ff4257"/>
    <path d="M72.96973,91.95068a.82.82,0,0,1,.19043-1.15039h0a.82236.82236,0,0,1,1.15918.19043h0a.828.828,0,0,1-.18946,1.14942h0a.81243.81243,0,0,1-.48047.16015h0A.82668.82668,0,0,1,72.96973,91.95068Zm-2.91016-3.76074h0A.83607.83607,0,0,1,70.16992,87.02h0a.83779.83779,0,0,1,1.16992.11035h-.00976a.82693.82693,0,0,1-.10059,1.16992h0a.842.842,0,0,1-.52929.19043h0A.83009.83009,0,0,1,70.05957,88.18994Zm-3.16016-3.5498h0a.82427.82427,0,0,1,.03028-1.16993h0a.82357.82357,0,0,1,1.16992.02051h0a.8325.8325,0,0,1-.03027,1.16992h0a.79667.79667,0,0,1-.56934.2295h0A.81835.81835,0,0,1,66.89941,84.64014ZM63.5,81.31006a.83445.83445,0,0,1-.06055-1.16992h0a.8349.8349,0,0,1,1.16993-.05957h0a.83643.83643,0,0,1,.06054,1.17968h0a.822.822,0,0,1-.61035.27051h0A.856.856,0,0,1,63.5,81.31006Zm-3.64062-3.05957a.83986.83986,0,0,1-.13965-1.16992h0a.84.84,0,0,1,1.16992-.14063h0a.82718.82718,0,0,1,.14062,1.16016h0a.8448.8448,0,0,1-.66015.32031h0A.87332.87332,0,0,1,59.85938,78.25049Zm-3.83985-2.82032a.82126.82126,0,0,1-.21-1.14941h0a.8309.8309,0,0,1,1.15039-.2207h0a.843.843,0,0,1,.21,1.16015h0a.83488.83488,0,0,1-.67969.36036h0A.81869.81869,0,0,1,56.01953,75.43017Zm-4.00976-2.57031a.843.843,0,0,1-.29-1.13965h0a.83148.83148,0,0,1,1.13965-.28027h0a.82858.82858,0,0,1,.29,1.13086h0a.83706.83706,0,0,1-.71.40918h0A.82085.82085,0,0,1,52.00977,72.85986Zm-4.16016-2.31933h0a.83005.83005,0,0,1-.35938-1.12012h0a.82957.82957,0,0,1,1.11915-.36035h0a.83041.83041,0,0,1,.36035,1.12011h0a.8285.8285,0,0,1-.74024.4502h0A.85474.85474,0,0,1,47.84961,70.54053Zm-4.29981-2.04h0a.83209.83209,0,0,1-.42968-1.08985h0A.82164.82164,0,0,1,44.21,66.98h0a.81871.81871,0,0,1,.42969,1.08008h0a.81043.81043,0,0,1-.75977.5h0A.9589.9589,0,0,1,43.5498,68.50049Z" style="fill: #ff4257"/>
  </g>
  <g>
    <path d="M119.89941,124.99072a.81381.81381,0,0,1,.83008-.82031h0a.82814.82814,0,0,1,.83008.83008h0a.83244.83244,0,0,1-.83008.82031h0A.82814.82814,0,0,1,119.89941,124.99072Zm4.76075-.05078a.827.827,0,0,1,.80957-.84961h0a.81918.81918,0,0,1,.84961.79981h0a.82673.82673,0,0,1-.79981.85058h-.0293A.83509.83509,0,0,1,124.66016,124.93994Zm-8.74024.7207a.83587.83587,0,0,1-.78027-.87988h0a.83083.83083,0,0,1,.89062-.77051h0a.82815.82815,0,0,1,.76953.87989h0a.83063.83063,0,0,1-.83007.7705h-.04981Zm-4.81054-.54a.83749.83749,0,0,1-.68946-.95019h0a.83317.83317,0,0,1,.9502-.69043h0a.83982.83982,0,0,1,.68945.95019h0a.83437.83437,0,0,1-.81934.7002h0C111.18945,125.13037,111.14941,125.1206,111.10938,125.1206Zm-4.75-1.07031a.851.851,0,0,1-.55958-1.04h0a.83236.83236,0,0,1,1.03028-.55957h0a.8411.8411,0,0,1,.56933,1.0293h0a.83015.83015,0,0,1-.7998.60059h0A.96406.96406,0,0,1,106.35938,124.05029Zm-4.55958-1.59961a.82289.82289,0,0,1-.46972-1.07031h0a.8298.8298,0,0,1,1.08008-.46973h0a.83329.83329,0,0,1,.46,1.08008h0a.83476.83476,0,0,1-.77051.51953h0A.80013.80013,0,0,1,101.7998,122.45068ZM97.38965,120.48a.83084.83084,0,0,1-.37988-1.10938h0a.8426.8426,0,0,1,1.12011-.37011h0A.83619.83619,0,0,1,98.5,120.10986h0a.84009.84009,0,0,1-.74023.46094h0A.8033.8033,0,0,1,97.38965,120.48Z" style="fill: #ff4257"/>
    <path d="M120.79,150.02h0a.82976.82976,0,0,1-.43066-1.08985h0a.83075.83075,0,0,1,1.09082-.42968h0a.82932.82932,0,0,1,.42968,1.08984h0a.83842.83842,0,0,1-.75976.5h0A.7703.7703,0,0,1,120.79,150.02Zm-4.40039-2.08985a.81988.81988,0,0,1-.35938-1.10937h0a.82956.82956,0,0,1,1.11914-.36035h0a.81869.81869,0,0,1,.35059,1.12012h0a.82405.82405,0,0,1-.73047.45019h0A.74343.74343,0,0,1,116.38965,147.93017Zm-4.25-2.37011a.83822.83822,0,0,1-.29-1.13965h0a.83153.83153,0,0,1,1.14062-.28027h0a.81684.81684,0,0,1,.2793,1.12988h0a.82389.82389,0,0,1-.71.41015h0A.81261.81261,0,0,1,112.13965,145.56006ZM108.04,142.93017a.82041.82041,0,0,1-.21-1.14941h0a.818.818,0,0,1,1.14941-.21h0a.8274.8274,0,0,1,.21,1.14941h0a.83356.83356,0,0,1-.67968.36036h0A.81349.81349,0,0,1,108.04,142.93017Zm-3.93066-2.87011a.83976.83976,0,0,1-.13965-1.16992h0a.83758.83758,0,0,1,1.16992-.13965h0a.848.848,0,0,1,.14062,1.16992h0a.865.865,0,0,1-.66015.30957h0A.80486.80486,0,0,1,104.10938,140.06006Zm-3.7295-3.14942h0a.82411.82411,0,0,1-.0498-1.16992h0a.82413.82413,0,0,1,1.16992-.05078h0a.825.825,0,0,1,.0498,1.16992h0a.80337.80337,0,0,1-.61035.27051h0A.8139.8139,0,0,1,100.37988,136.91064Zm-3.48047-3.40039a.84532.84532,0,0,1,.03028-1.17968h0a.83335.83335,0,0,1,1.16992.02929h0a.81542.81542,0,0,1-.03027,1.1709h0a.78491.78491,0,0,1-.56934.22949h0A.83412.83412,0,0,1,96.89941,133.51025Zm-3.23925-3.63965a.8359.8359,0,0,1,.10937-1.16992h0a.827.827,0,0,1,1.16992.10938h0a.825.825,0,0,1-.10937,1.16015h0a.80476.80476,0,0,1-.53028.19043h0A.85326.85326,0,0,1,93.66016,129.8706Zm-2.98047-3.86035h0a.83311.83311,0,0,1,.19043-1.16015h0a.84206.84206,0,0,1,1.16015.19043h0a.84056.84056,0,0,1-.19043,1.16015h0a.82483.82483,0,0,1-.49023.15918h0A.8197.8197,0,0,1,90.67969,126.01025Z" style="fill: #ff4257"/>
  </g>
  <g>
    <path d="M35.40234,25.38428c-.00879,1.46386-.57031,2.35742-2.17675,2.35742-.9795,0-1.94825-.4375-2.03418-1.48242H31.79a1.28976,1.28976,0,0,0,1.43555.97851c1.10254,0,1.57812-.65527,1.57812-1.85351v-.665h-.01855A1.70242,1.70242,0,0,1,33.22559,25.727c-1.56836,0-2.21485-1.12207-2.21485-2.51953a2.2442,2.2442,0,0,1,2.21485-2.47168,1.72868,1.72868,0,0,1,1.55957.98828h.01855v-.8457h.59863Zm-.59863-2.11036c0-.96-.44726-2.03417-1.57812-2.03417-1.14063,0-1.61621,1.01757-1.61621,2.03417,0,.98926.51367,1.94922,1.61621,1.94922C34.26172,25.22314,34.80371,24.272,34.80371,23.27392Z" style="fill: #1d1d1b"/>
    <path d="M36.54,20.87842h.55176v1.15039h.01855a1.81277,1.81277,0,0,1,1.85352-1.2168v.59863a1.69014,1.69014,0,0,0-1.8252,1.75879v2.61426H36.54Z" style="fill: #1d1d1b"/>
    <path d="M39.47559,22.38037c.05664-1.15039.86425-1.64453,1.98632-1.64453.86524,0,1.80664.2666,1.80664,1.57812v2.6045a.31851.31851,0,0,0,.35157.36132.55426.55426,0,0,0,.19043-.03808v.5039a1.66177,1.66177,0,0,1-.39063.03809c-.6084,0-.70312-.3418-.70312-.85547h-.01856a1.87169,1.87169,0,0,1-1.78711.998c-.90332,0-1.6455-.44629-1.6455-1.43555,0-1.37793,1.34082-1.42578,2.63378-1.57812.49414-.05664.76954-.12305.76954-.665,0-.8086-.57911-1.00781-1.28321-1.00781-.74121,0-1.293.34179-1.31152,1.14062ZM42.669,23.103h-.01856c-.07617.14257-.3418.19043-.50391.21875-1.01757.18066-2.28125.17089-2.28125,1.13086a1.02153,1.02153,0,0,0,1.09278.96972,1.57656,1.57656,0,0,0,1.71094-1.54Z" style="fill: #1d1d1b"/>
    <path d="M43.91113,20.87842h.666l1.54,4.30664h.01855l1.52149-4.30664h.61816l-1.835,4.90527h-.63672Z" style="fill: #1d1d1b"/>
    <path d="M48.87109,18.99658h.59864v.96h-.59864Zm0,1.88184h.59864v4.90527h-.59864Z" style="fill: #1d1d1b"/>
    <path d="M51.57031,20.87842h.998v.5039h-.998v3.3086c0,.38965.05664.61718.48438.6455a4.53782,4.53782,0,0,0,.51367-.02832v.51368c-.18066,0-.35254.01855-.5332.01855-.79786,0-1.07422-.26562-1.06446-1.10254V21.38232h-.85547v-.5039h.85547V19.40478h.59961Z" style="fill: #1d1d1b"/>
    <path d="M53.374,22.38037c.05664-1.15039.86426-1.64453,1.98633-1.64453.86524,0,1.80664.2666,1.80664,1.57812v2.6045a.31851.31851,0,0,0,.35156.36132.55421.55421,0,0,0,.19043-.03808v.5039a1.66163,1.66163,0,0,1-.39062.03809c-.6084,0-.70313-.3418-.70313-.85547h-.01855a1.8717,1.8717,0,0,1-1.78711.998c-.90332,0-1.64551-.44629-1.64551-1.43555,0-1.37793,1.34082-1.42578,2.63379-1.57812.49414-.05664.76953-.12305.76953-.665,0-.8086-.5791-1.00781-1.2832-1.00781-.74121,0-1.293.34179-1.31152,1.14062Zm3.19336.72266h-.01855c-.07617.14257-.3418.19043-.50391.21875-1.01758.18066-2.28125.17089-2.28125,1.13086a1.02153,1.02153,0,0,0,1.09278.96972,1.57654,1.57654,0,0,0,1.71093-1.54Z" style="fill: #1d1d1b"/>
    <path d="M59.3125,20.87842h.998v.5039h-.998v3.3086c0,.38965.05664.61718.48438.6455a4.538,4.538,0,0,0,.51367-.02832v.51368c-.18067,0-.35254.01855-.53321.01855-.79785,0-1.07421-.26562-1.06445-1.10254V21.38232h-.85547v-.5039h.85547V19.40478h.59961Z" style="fill: #1d1d1b"/>
    <path d="M61.18262,18.99658h.59863v.96h-.59863Zm0,1.88184h.59863v4.90527h-.59863Z" style="fill: #1d1d1b"/>
    <path d="M67.32227,23.33154a2.334,2.334,0,1,1-4.63868,0,2.33405,2.33405,0,1,1,4.63868,0Zm-4.04,0a1.75346,1.75346,0,1,0,3.4414,0,1.75362,1.75362,0,1,0-3.4414,0Z" style="fill: #1d1d1b"/>
    <path d="M68.20313,20.87842h.5996v.8457h.01856a1.66407,1.66407,0,0,1,1.56836-.98828c1.3789,0,1.79687.72266,1.79687,1.8916v3.15625h-.59863V22.72314c0-.84668-.27637-1.48339-1.24512-1.48339a1.548,1.548,0,0,0-1.54,1.68261v2.86133h-.5996Z" style="fill: #1d1d1b"/>
    <path d="M73.25781,22.38037c.05664-1.15039.86426-1.64453,1.98633-1.64453.86524,0,1.80664.2666,1.80664,1.57812v2.6045a.31851.31851,0,0,0,.35156.36132.55421.55421,0,0,0,.19043-.03808v.5039a1.66168,1.66168,0,0,1-.39062.03809c-.6084,0-.70313-.3418-.70313-.85547h-.01855a1.8717,1.8717,0,0,1-1.78711.998c-.90332,0-1.64453-.44629-1.64453-1.43555,0-1.37793,1.33984-1.42578,2.63281-1.57812.49414-.05664.76953-.12305.76953-.665,0-.8086-.5791-1.00781-1.2832-1.00781-.74121,0-1.293.34179-1.31152,1.14062Zm3.19336.72266h-.01855c-.07617.14257-.34278.19043-.50391.21875-1.01758.18066-2.28125.17089-2.28125,1.13086a1.02153,1.02153,0,0,0,1.09277.96972,1.57654,1.57654,0,0,0,1.71094-1.54Z" style="fill: #1d1d1b"/>
    <path d="M78.25488,18.99658h.59864v6.78711h-.59864Z" style="fill: #1d1d1b"/>
    <path d="M82.58691,22.38037c.05664-1.15039.86426-1.64453,1.98633-1.64453.86524,0,1.80664.2666,1.80664,1.57812v2.6045a.31851.31851,0,0,0,.35157.36132.5543.5543,0,0,0,.19043-.03808v.5039a1.66177,1.66177,0,0,1-.39063.03809c-.6084,0-.70312-.3418-.70312-.85547h-.01856a1.87169,1.87169,0,0,1-1.78711.998c-.90332,0-1.64551-.44629-1.64551-1.43555,0-1.37793,1.34082-1.42578,2.63379-1.57812.49414-.05664.76953-.12305.76953-.665,0-.8086-.5791-1.00781-1.2832-1.00781-.74121,0-1.293.34179-1.31152,1.14062Zm3.19336.72266h-.01855c-.07617.14257-.3418.19043-.50391.21875-1.01758.18066-2.28125.17089-2.28125,1.13086a1.02153,1.02153,0,0,0,1.09278.96972,1.57654,1.57654,0,0,0,1.71093-1.54Z" style="fill: #1d1d1b"/>
    <path d="M88.52539,20.87842h.998v.5039h-.998v3.3086c0,.38965.05664.61718.48438.6455a4.538,4.538,0,0,0,.51367-.02832v.51368c-.18067,0-.35254.01855-.53321.01855-.79785,0-1.07421-.26562-1.06445-1.10254V21.38232h-.85547v-.5039h.85547V19.40478h.59961Z" style="fill: #1d1d1b"/>
    <path d="M91.33594,20.87842h.999v.5039h-.999v3.3086c0,.38965.05761.61718.48535.6455a4.5377,4.5377,0,0,0,.51367-.02832v.51368c-.18066,0-.35254.01855-.5332.01855-.79785,0-1.07324-.26562-1.06446-1.10254V21.38232h-.85546v-.5039h.85546V19.40478h.59864Z" style="fill: #1d1d1b"/>
    <path d="M93.54883,23.49267A1.7394,1.7394,0,0,0,95.165,25.42236a1.49457,1.49457,0,0,0,1.54-1.25488h.59863A2.0029,2.0029,0,0,1,95.165,25.92627c-1.55859,0-2.21484-1.19824-2.21484-2.59473,0-1.293.65625-2.5957,2.21484-2.5957,1.57812,0,2.20508,1.37891,2.1582,2.75683Zm3.17578-.5039a1.64878,1.64878,0,0,0-1.55957-1.749,1.74073,1.74073,0,0,0-1.61621,1.749Z" style="fill: #1d1d1b"/>
    <path d="M98.11816,20.87842h.59961v.8457h.01856a1.66407,1.66407,0,0,1,1.56836-.98828c1.3789,0,1.79687.72266,1.79687,1.8916v3.15625h-.59863V22.72314c0-.84668-.27637-1.48339-1.24512-1.48339a1.548,1.548,0,0,0-1.54,1.68261v2.86133h-.59961Z" style="fill: #1d1d1b"/>
    <path d="M107.20313,25.78369h-.55176V24.8999h-.01856a1.82521,1.82521,0,0,1-1.69238,1.02637c-1.23535,0-1.7207-.72266-1.7207-1.86328V20.87842h.59961v3.19433c.02832.88379.36035,1.34961,1.31152,1.34961,1.02637,0,1.47363-.96972,1.47363-1.96777V20.87842h.59864Z" style="fill: #1d1d1b"/>
    <path d="M108.33105,20.87842h.55176v.82715h.02832a1.71188,1.71188,0,0,1,1.60645-.96973,1.36358,1.36358,0,0,1,1.40722.96,1.65649,1.65649,0,0,1,1.5586-.96c1.07422,0,1.626.56055,1.626,1.7207v3.32715h-.59961V22.48486c0-.80761-.30372-1.24511-1.15918-1.24511-1.03614,0-1.33106.85546-1.33106,1.76855v2.77539h-.59863V22.45654c.00879-.665-.2666-1.21679-1.02735-1.21679-1.03613,0-1.4541.77929-1.46386,1.80664v2.7373h-.59864Z" style="fill: #1d1d1b"/>
    <path d="M116.25391,18.99658h.59863v.96h-.59863Zm0,1.88184h.59863v4.90527h-.59863Z" style="fill: #1d1d1b"/>
    <path d="M119.34277,23.23584,117.584,20.87842h.751l1.39746,1.86328,1.36817-1.86328h.751L120.084,23.22607l1.91016,2.55762h-.75976l-1.54-2.0625-1.51172,2.0625h-.74121Z" style="fill: #1d1d1b"/>
    <path d="M125.50879,22.314a1.12878,1.12878,0,0,0-1.2832-1.07421c-.53223,0-1.16016.209-1.16016.8457,0,.53222.6084.72265,1.01758.82715l.79883.18066a1.43753,1.43753,0,0,1,1.39648,1.35938c0,1.06445-1.05469,1.47363-1.96777,1.47363a1.77647,1.77647,0,0,1-2.01465-1.73047h.59863a1.29293,1.29293,0,0,0,1.44531,1.22656c.56055,0,1.33985-.24707,1.33985-.93164,0-.57031-.53223-.76074-1.07422-.89355l-.76953-.1709c-.7793-.209-1.36914-.47559-1.36914-1.31152,0-.999.97949-1.37891,1.84375-1.37891a1.608,1.608,0,0,1,1.79687,1.57812Z" style="fill: #1d1d1b"/>
    <path d="M127.49219,23.49267a1.7394,1.7394,0,0,0,1.61621,1.92969,1.49457,1.49457,0,0,0,1.54-1.25488h.59863a2.0029,2.0029,0,0,1-2.13867,1.75879c-1.5586,0-2.21485-1.19824-2.21485-2.59473,0-1.293.65625-2.5957,2.21485-2.5957,1.57812,0,2.20508,1.37891,2.1582,2.75683Zm3.17578-.5039a1.64878,1.64878,0,0,0-1.55957-1.749,1.74073,1.74073,0,0,0-1.61621,1.749Z" style="fill: #1d1d1b"/>
    <path d="M133.02148,20.87842h.999v.5039h-.999v3.3086c0,.38965.05762.61718.48536.6455a4.538,4.538,0,0,0,.51367-.02832v.51368c-.18067,0-.35254.01855-.53321.01855-.79785,0-1.07324-.26562-1.06445-1.10254V21.38232h-.85547v-.5039h.85547V19.40478h.59863Z" style="fill: #1d1d1b"/>
  </g>
  <circle cx="82.5" cy="47.49999" r="16.84425" style="fill: none"/>
  <polyline points="70.589 59.411 82.5 47.5 94.411 59.411" style="fill: none"/>
  <circle cx="82.5" cy="169.50001" r="16.84425" style="fill: none"/>
  <polyline points="94.411 157.589 82.5 169.5 70.589 157.589" style="fill: none"/>
  <g>
    <circle cx="65.20224" cy="178.14023" r="3.73497" style="fill: #252626"/>
    <path d="M65.20215,180.88525a.55348.55348,0,0,1-.55274-.55273v-4.38379a.55274.55274,0,0,1,1.10547,0v4.38379A.55347.55347,0,0,1,65.20215,180.88525Z" style="fill: #e6e5e5"/>
    <path d="M67.39453,178.69287H63.01074a.55274.55274,0,0,1,0-1.10547h4.38379a.55274.55274,0,1,1,0,1.10547Z" style="fill: #e6e5e5"/>
  </g>
  <g>
    <circle cx="99.69871" cy="178.14023" r="3.73497" style="fill: #252626"/>
    <path d="M101.89063,178.69287H97.50684a.55274.55274,0,1,1,0-1.10547h4.38379a.55274.55274,0,0,1,0,1.10547Z" style="fill: #e6e5e5"/>
  </g>
  <circle cx="143.49999" cy="108.50052" r="16.84425" style="fill: none"/>
  <polyline points="131.589 96.589 143.5 108.5 131.589 120.411" style="fill: none"/>
  <circle cx="21.50001" cy="108.5" r="16.84425" style="fill: none"/>
  <polyline points="33.403 120.411 21.492 108.5 33.403 96.589" style="fill: none"/>
  <g>
    <circle cx="100.06692" cy="39.26781" r="3.73497" style="fill: #252626"/>
    <path d="M100.06738,42.01221a.55348.55348,0,0,1-.55273-.55274V37.07568a.55274.55274,0,0,1,1.10547,0v4.38379A.55348.55348,0,0,1,100.06738,42.01221Z" style="fill: #e6e5e5"/>
    <path d="M102.25879,39.8208H97.875a.55274.55274,0,0,1,0-1.10547h4.38379a.55274.55274,0,0,1,0,1.10547Z" style="fill: #e6e5e5"/>
  </g>
  <g>
    <circle cx="65.57046" cy="39.26781" r="3.73497" style="fill: #252626"/>
    <path d="M67.7627,39.8208H63.37891a.55274.55274,0,1,1,0-1.10547H67.7627a.55274.55274,0,0,1,0,1.10547Z" style="fill: #e6e5e5"/>
  </g>
  <g>
    <circle cx="13.38248" cy="91.45579" r="3.73497" style="fill: #252626"/>
    <path d="M15.57422,92.0083H11.19043a.55274.55274,0,0,1,0-1.10547h4.38379a.55274.55274,0,0,1,0,1.10547Z" style="fill: #e6e5e5"/>
    <path d="M13.38281,94.20068a.55347.55347,0,0,1-.55273-.55273V89.26416a.55274.55274,0,1,1,1.10547,0V93.648A.55348.55348,0,0,1,13.38281,94.20068Z" style="fill: #e6e5e5"/>
  </g>
  <g>
    <circle cx="13.38248" cy="125.95225" r="3.73497" style="fill: #252626"/>
    <path d="M13.38281,128.69678a.55348.55348,0,0,1-.55273-.55274v-4.38379a.55274.55274,0,0,1,1.10547,0V128.144A.55348.55348,0,0,1,13.38281,128.69678Z" style="fill: #e6e5e5"/>
  </g>
  <g>
    <circle cx="151.2549" cy="125.95225" r="3.73497" style="fill: #252626"/>
    <path d="M153.44629,126.50537h-4.38281a.55274.55274,0,1,1,0-1.10547h4.38281a.55274.55274,0,0,1,0,1.10547Z" style="fill: #e6e5e5"/>
    <path d="M151.25488,128.69678a.55348.55348,0,0,1-.55273-.55274v-4.38379a.55274.55274,0,0,1,1.10547,0V128.144A.55348.55348,0,0,1,151.25488,128.69678Z" style="fill: #e6e5e5"/>
  </g>
  <g>
    <circle cx="151.2549" cy="91.45579" r="3.73497" style="fill: #252626"/>
    <path d="M151.25488,94.20068a.55347.55347,0,0,1-.55273-.55273V89.26416a.55274.55274,0,1,1,1.10547,0V93.648A.55348.55348,0,0,1,151.25488,94.20068Z" style="fill: #e6e5e5"/>
  </g>
  <circle cx="112.50004" cy="55.50002" r="14.87217" style="fill: #252626"/>
  <circle cx="135.5" cy="138.49998" r="14.87217" style="fill: #252626"/>
  <circle cx="52.5" cy="161.49998" r="14.87217" style="fill: #252626"/>
  <circle cx="29.5" cy="78.49998" r="14.87217" style="fill: #252626"/>
  <path d="M52.26855,56.21826a.82817.82817,0,0,1-.416-1.54492,61.51325,61.51325,0,0,1,61.4082-.03711.82864.82864,0,0,1-.82812,1.43555,59.852,59.852,0,0,0-59.75.03515A.81937.81937,0,0,1,52.26855,56.21826Z" style="fill: #252626"/>
  <path d="M135.38184,139.647a.81926.81926,0,0,1-.41407-.11133.82828.82828,0,0,1-.30175-1.13183,59.85159,59.85159,0,0,0,.04882-59.72266.82864.82864,0,0,1,1.43555-.82812,61.51289,61.51289,0,0,1-.05078,61.38086A.82654.82654,0,0,1,135.38184,139.647Z" style="fill: #252626"/>
  <path d="M82.40137,170.18408a61.41482,61.41482,0,0,1-30.749-8.23633.82828.82828,0,0,1,.83008-1.43359,59.85535,59.85535,0,0,0,59.76367.042.82864.82864,0,0,1,.82813,1.43555A61.42312,61.42312,0,0,1,82.40137,170.18408Z" style="fill: #252626"/>
  <path d="M29.584,139.58838a.83022.83022,0,0,1-.71875-.41406,61.51593,61.51593,0,0,1-.0039-61.3418.82864.82864,0,0,1,1.43555.82812,59.85191,59.85191,0,0,0,.0039,59.68555.82782.82782,0,0,1-.7168,1.24219Z" style="fill: #252626"/>
  <path d="M82.5,48.32666a.82791.82791,0,0,1-.82812-.82813V30.65576a.82813.82813,0,0,1,1.65625,0V47.49853A.82792.82792,0,0,1,82.5,48.32666Z" style="fill: #252626"/>
  <path d="M82.5,65.17236a17.56113,17.56113,0,0,1-12.49707-5.17578.82864.82864,0,1,1,1.17187-1.17187,16.01541,16.01541,0,0,0,22.6504,0,.82864.82864,0,1,1,1.17187,1.17187A17.56113,17.56113,0,0,1,82.5,65.17236Z" style="fill: #252626"/>
  <path d="M82.4502,187.17236a.82792.82792,0,0,1-.82813-.82812V169.08642a.82813.82813,0,0,1,1.65625,0v17.25782A.82792.82792,0,0,1,82.4502,187.17236Z" style="fill: #252626"/>
  <path d="M70.54,158.41748a.82813.82813,0,0,1-.58594-1.41406,17.674,17.674,0,0,1,24.99317,0,.82864.82864,0,1,1-1.17188,1.17187,16.01422,16.01422,0,0,0-22.64941,0A.82913.82913,0,0,1,70.54,158.41748Z" style="fill: #252626"/>
  <path d="M160.34473,109.32861H143.5a.82813.82813,0,0,1,0-1.65625h16.84473a.82813.82813,0,0,1,0,1.65625Z" style="fill: #252626"/>
  <path d="M131.58887,121.21631a.82912.82912,0,0,1-.58594-.24219,17.674,17.674,0,0,1,0-24.99316.82864.82864,0,1,1,1.17187,1.17187,16.01423,16.01423,0,0,0,0,22.64942.82813.82813,0,0,1-.58593,1.41406Z" style="fill: #252626"/>
  <path d="M21.49219,109.32764H4.64746a.82813.82813,0,0,1,0-1.65625H21.49219a.82813.82813,0,0,1,0,1.65625Z" style="fill: #252626"/>
  <path d="M33.40332,121.21631a.82813.82813,0,0,1-.58594-1.41406,16.0142,16.0142,0,0,0,0-22.64942A.82864.82864,0,1,1,33.98926,95.981a17.674,17.674,0,0,1,0,24.99316A.82913.82913,0,0,1,33.40332,121.21631Z" style="fill: #252626"/>
  <path d="M82.35254,79.02392h-.00586a.82732.82732,0,0,1-.82227-.834l.09766-13.85156a.828.828,0,0,1,.82813-.82227h.00585a.82732.82732,0,0,1,.82227.834l-.09766,13.85156A.82793.82793,0,0,1,82.35254,79.02392Z" style="fill: #252626"/>
  <path d="M126.65527,109.32568H112.5a.84766.84766,0,1,1,0-1.69531h14.15527a.84766.84766,0,1,1,0,1.69531Z" style="fill: #252626"/>
  <path d="M82.5,153.48389a.82792.82792,0,0,1-.82812-.82813V138.50049a.82813.82813,0,1,1,1.65625,0v14.15527A.82793.82793,0,0,1,82.5,153.48389Z" style="fill: #252626"/>
  <path d="M52.5,109.3042H38.34473a.82618.82618,0,1,1,0-1.65235H52.5a.82618.82618,0,0,1,0,1.65235Z" style="fill: #252626"/>
  <g>
    <rect x="74" y="339" width="17" height="37" rx="3.21688" ry="3.21688" style="fill: #252626"/>
    <path d="M86.587,363.9a1.82122,1.82122,0,0,1-1.10036,1.03444,2.30462,2.30462,0,0,1-.75781.125,2.27843,2.27843,0,0,1-1.04757-.19755,1.82258,1.82258,0,0,1-.58632-.46126,1.41951,1.41951,0,0,1-.28341-.64567,4.30892,4.30892,0,0,1-.05937-.7116q0-.50114.01972-.69188a.53359.53359,0,0,1,.04621-.2175,1.19485,1.19485,0,0,1,.43475-.03941h3.08382a.99658.99658,0,0,1,.21749.01971.19617.19617,0,0,1,.13163.10534.67116.67116,0,0,1,.05935.25691q.013.17139.01338.4744a2.38151,2.38151,0,0,1-.17151.949m-5.32349-12.82164a.293.293,0,0,1,.107-.1959.53848.53848,0,0,1,.28506-.08916q.196-.0176.55253-.01783a2.80552,2.80552,0,0,1,2.12986.77518,2.88439,2.88439,0,0,1,.73975,2.07661c0,.08211-.01712.25925-.02792.38078-.06827-.00094-.13655-.00188-.20482-.00329q-.28049-.006-.60954-.0305a.15282.15282,0,0,0-.0793.14007.20328.20328,0,0,0,.05514.1647l.21913.0244a1.5481,1.5481,0,0,1,.36577.07907q.1464.0549.1464.1159a.70261.70261,0,0,1-.0732.22547q-.0732.1647-.195.396-.12213.23192-.26207.49387-.14043.26219-.26231.49363-.28048.5367-.57293,1.05437-.29247.5184-.57271,1.00581-.354-.63381-.69494-1.32864-.34137-.69505-.68274-1.37768c-.01642-.03237-.04458-.09314-.08517-.18276q-.06121-.13374-.12809-.28647c-.04482-.10159-.08353-.19685-.1159-.28647a.66492.66492,0,0,1-.04857-.18277c0-.0488.03214-.08728.09736-.1159a2.41544,2.41544,0,0,1,.41458-.10347l.15836-.0244a.21355.21355,0,0,0,.05491-.1708.13.13,0,0,0-.09127-.134q-.25972.02042-.63723.02933v-2.58643a2.50718,2.50718,0,0,1,.01783-.33879m1.00933,9.125q0,.48777-.0122.78011a1.28727,1.28727,0,0,1-.0854.457.4867.4867,0,0,1-.0617.10441l-.00165.00094a2.28289,2.28289,0,0,1-.35826-.09455.59649.59649,0,0,1-.34747-.32073,1.88044,1.88044,0,0,1-.13373-.65059q-.02675-.41844-.02675-1.11373V356.8284l.63723,1.2416q.13372.2562.21326.43287a1.89914,1.89914,0,0,1,.11567.32917,2.00217,2.00217,0,0,1,.0488.32307q.012.17068.0122.42654Zm5.03092,1.50742q.07917-.2196.15836-.46923.07919-.24987.1464-.48777.06687-.23755.10371-.39627a.19005.19005,0,0,0-.14031-.10957.18467.18467,0,0,0-.1647.0244,5.71412,5.71412,0,0,1-.46923.78011,1.47265,1.47265,0,0,1-.396.40237,1.30973,1.30973,0,0,1-.2257.08516,1.791,1.791,0,0,1-.30477.0549q-.17667.0183-.42654.0305t-.60343.0122q-.40225,0-.66444-.0244a3.337,3.337,0,0,1-.42043-.06076,1.05233,1.05233,0,0,1-.24987-.0854.43776.43776,0,0,1-.14031-.10981.8459.8459,0,0,1-.18887-.46923,6.051,6.051,0,0,1-.0427-.79864v-.80451c.00189-.11144.00516-.21.00986-.29444a1.92638,1.92638,0,0,1,.06687-.42044,2.12154,2.12154,0,0,1,.1708-.41457c.0183-.035.03894-.07273.06077-.11238.02932-.00094.05982-.00141.09384-.00141h.70714q.35334,0,.579.0122a1.78038,1.78038,0,0,1,.35966.04857.42946.42946,0,0,1,.26207.1708.8698.8698,0,0,1,.11591.29257l.10956.47534a.18508.18508,0,0,0,.16447.0549.17525.17525,0,0,0,.1525-.0671q0-.2073-.0244-.52414-.02463-.31708-.0244-.64614,0-.35334.0244-.6825.02428-.32941.0244-.54878a.177.177,0,0,0-.1525-.06709.18629.18629,0,0,0-.16447.0549l-.09737.5a.76166.76166,0,0,1-.1159.31086.38634.38634,0,0,1-.17666.11567,1.71986,1.71986,0,0,1-.378.0549q-.26851.0183-.65834.0183h-.55089l.01221-.02017.7679-1.32865q.23121-.39029.42067-.72543a6.5676,6.5676,0,0,1,.37163-.59124,2.10527,2.10527,0,0,1,.378-.41434,1.00731,1.00731,0,0,1,.08305-.06006.99485.99485,0,0,1,.46783.37281,1.37892,1.37892,0,0,1,.1586.32893q.06053.183.134.40237a.16527.16527,0,0,0,.1586.0488.18112.18112,0,0,0,.14617-.0732q-.02464-.195-.04247-.44483-.01865-.24987-.04293-.48754c-.01619-.1586-.03754-.30008-.05467-.42677a3.82358,3.82358,0,0,1-.03285-.58115,3.21012,3.21012,0,0,0-1.46754-2.6784,4.20838,4.20838,0,0,0-1.46142-.55252,10.53451,10.53451,0,0,0-1.96048-.16048q-1.123,0-1.96938.02674-.84673.02676-1.55974.11591a.22336.22336,0,0,0-.11567.20482.29669.29669,0,0,0,.08024.24071l.64145.07133a1.56947,1.56947,0,0,1,.47252.1159.49916.49916,0,0,1,.2494.294,1.94374,1.94374,0,0,1,.09807.57035q.0176.3565.01783.92674v6.57682q0,.6947-.01783,1.11373a1.77406,1.77406,0,0,1-.12482.65059.60544.60544,0,0,1-.32072.32073,2.52651,2.52651,0,0,1-.606.14264l-.37445.0535a.27666.27666,0,0,0-.0732.22171c-.00047.19075-.00258.25128-.00657.46619q-.00633.36917-.03355.82538c.01806.04482.06921.07156.15438.08071a.19312.19312,0,0,0,.18136-.05373l.04012-.282a1.904,1.904,0,0,1,.10745-.45609.45579.45579,0,0,1,.24166-.24166,1.33214,1.33214,0,0,1,.48988-.09432q.31533-.013.839-.01313H81.972a.84024.84024,0,0,1,.168.01313.12068.12068,0,0,1,.087.07414.56936.56936,0,0,1,.03379.1877c.00422.08516.00657.20341.00657.35568a1.40209,1.40209,0,0,1-.10066.60414.90111.90111,0,0,1-.32893.34911q-.2284.16119-.50326.33551-.27555.17419-.55041.34887-.2752.17456-.53023.33574-.25515.16083-.443.29515a7.44732,7.44732,0,0,0-.839.678,2.97071,2.97071,0,0,0-.51663.63745,2.23581,2.23581,0,0,0-.26183.67781,3.88494,3.88494,0,0,0-.07367.78527,1.9807,1.9807,0,0,0,.06687.59053.10913.10913,0,0,0,.18816-.01337,1.7656,1.7656,0,0,1,.1274-.50982,1.56466,1.56466,0,0,1,.24846-.41622,5.1887,5.1887,0,0,1,.63746-.65787q.35542-.30864.78526-.63088.42935-.322.96639-.66421.5367-.34242,1.18131-.74514a.8392.8392,0,0,1,.16775-.08728.14659.14659,0,0,1,.15437.02018,2.74788,2.74788,0,0,0,.28178.54361,2.90518,2.90518,0,0,0,.46313.54384,2.41063,2.41063,0,0,0,.64427.42278,2.0436,2.0436,0,0,0,.85236.16775,2.01051,2.01051,0,0,0,1.16794-.31556,2.2181,2.2181,0,0,0,.71135-.79864,2.95913,2.95913,0,0,0,.32894-1.04006,9.07564,9.07564,0,0,0,.07367-1.20171,5.06313,5.06313,0,0,1,.137-1.27539" style="fill: #e6e5e5"/>
  </g>
  <g>
    <g>
      <path d="M72.84961,99.52a.82672.82672,0,0,1-.58984-.23926.8668.8668,0,0,1-.24024-.59082.81333.81333,0,0,1,.06055-.30957.90081.90081,0,0,1,.17969-.27051.84841.84841,0,0,1,.91015-.17969.69073.69073,0,0,1,.25977.17969.79481.79481,0,0,1,.25.58008.83393.83393,0,0,1-.25.59082.69073.69073,0,0,1-.25977.17969A.8675.8675,0,0,1,72.84961,99.52Z" style="fill: #00bc8b"/>
      <path d="M69.7998,115.68017a.83232.83232,0,0,1,.30958-1.12988h0a.8317.8317,0,0,1,1.13085.30957h0a.8227.8227,0,0,1-.31054,1.13086h0a.76426.76426,0,0,1-.41016.10938h0A.81817.81817,0,0,1,69.7998,115.68017Zm-1.41992-3.53027h-.00976a.84226.84226,0,0,1,.59961-1.00976h0a.83455.83455,0,0,1,1.00976.60058h0a.83538.83538,0,0,1-.58984,1.00977h0a.7658.7658,0,0,1-.21.01953h0A.81083.81083,0,0,1,68.37988,112.1499Zm.34961-2.93945a.82521.82521,0,0,1-.81933-.83008h0a.82207.82207,0,0,1,.83984-.82031h0a.82527.82527,0,0,1,.81934.83008h0a.83214.83214,0,0,1-.82911.82031h-.01074Zm.29-3.58008a.82914.82914,0,0,1-.58008-1.02051h0a.82243.82243,0,0,1,1.01075-.5791h0a.84643.84643,0,0,1,.58984,1.01953h0a.844.844,0,0,1-.81055.61035h0A.7851.7851,0,0,1,69.01953,105.63037ZM70.21,102.24072a.83784.83784,0,0,1-.29-1.14062h0a.83845.83845,0,0,1,1.13965-.29h0a.82765.82765,0,0,1,.29,1.12988h0v.01074h0a.82852.82852,0,0,1-.71.39942h0A.83376.83376,0,0,1,70.21,102.24072Z" style="fill: #00bc8b"/>
      <path d="M72.68945,118.97021a.82505.82505,0,0,1-.58007-.24023.83572.83572,0,0,1-.25-.58984.79856.79856,0,0,1,.25-.58008.81516.81516,0,0,1,.90039-.17969.8041.8041,0,0,1,.2705.17969.82831.82831,0,0,1,.23926.58008.86792.86792,0,0,1-.23926.58984,1.30666,1.30666,0,0,1-.2705.18066A.86387.86387,0,0,1,72.68945,118.97021Z" style="fill: #00bc8b"/>
    </g>
    <g>
      <path d="M92.05957,119.05029a.69918.69918,0,0,1-.31934-.07031.93767.93767,0,0,1-.2705-.16992,1.25846,1.25846,0,0,1-.17969-.26953.86837.86837,0,0,1-.06055-.32032.71608.71608,0,0,1,.07031-.32031.946.946,0,0,1,.16993-.26953.86939.86939,0,0,1,.91015-.17969,1.259,1.259,0,0,1,.26953.17969.8589.8589,0,0,1,.18067.91016.80335.80335,0,0,1-.18067.26953A.86258.86258,0,0,1,92.05957,119.05029Z" style="fill: #00bc8b"/>
      <path d="M93.84961,116.1001a.82918.82918,0,0,1-.29-1.12989h0a.823.823,0,0,1,1.12988-.2998h0a.83215.83215,0,0,1,.30078,1.13965h0a.84244.84244,0,0,1-.7207.41015h0A.8127.8127,0,0,1,93.84961,116.1001Zm1.60059-3.21973a.83249.83249,0,0,1-.58008-1.02051h0a.83209.83209,0,0,1,1.01953-.5791h0a.831.831,0,0,1,.58008,1.01953h0a.83053.83053,0,0,1-.79981.61035h0A.84535.84535,0,0,1,95.4502,112.88037Zm.71-3.53027a.81383.81383,0,0,1-.82032-.83008h0a.81241.81241,0,0,1,.83008-.81934h0a.81381.81381,0,0,1,.82031.83008h0a.81688.81688,0,0,1-.82031.81934h-.00976Zm-1.23047-4.17969h0a.82791.82791,0,0,1,.58984-1.00977h0a.8342.8342,0,0,1,1.01074.59961h0a.82694.82694,0,0,1-.60058,1.00977h0a.63138.63138,0,0,1-.2002.02051h0A.82246.82246,0,0,1,94.92969,105.17041Zm-1.26953-3.12012v-.00976h0a.82908.82908,0,0,1,.30957-1.12012h0a.83467.83467,0,0,1,1.13965.30957h0a.83747.83747,0,0,1-.31934,1.12988h0a.8668.8668,0,0,1-.41016.11035h0A.85146.85146,0,0,1,93.66016,102.05029Z" style="fill: #00bc8b"/>
      <path d="M92.21973,99.6001a.86759.86759,0,0,1-.32032-.05957.80335.80335,0,0,1-.26953-.18067.86258.86258,0,0,1-.24023-.58984.84275.84275,0,0,1,.24023-.58008.81792.81792,0,0,1,.90039-.17969.64607.64607,0,0,1,.26953.17969.79478.79478,0,0,1,.25.58008.83.83,0,0,1-.25.58984.91011.91011,0,0,1-.26953.18067A.78251.78251,0,0,1,92.21973,99.6001Z" style="fill: #00bc8b"/>
    </g>
    <path d="M92.29688,99.6792a.82578.82578,0,0,1-.59083-.24707,12.83872,12.83872,0,0,0-9.10742-3.85938h-.10742a12.83569,12.83569,0,0,0-9.06152,3.71094.82867.82867,0,1,1-1.16211-1.18164,14.59926,14.59926,0,0,1,20.62012.168.82812.82812,0,0,1-.59082,1.40918Z" style="fill: #252626"/>
    <path d="M82.49805,123.07666H82.376a14.48972,14.48972,0,0,1-10.27539-4.35449.82867.82867,0,1,1,1.18164-1.16211,12.83468,12.83468,0,0,0,9.10742,3.85937,12.656,12.656,0,0,0,9.16894-3.71093.82867.82867,0,1,1,1.16211,1.18164A14.48508,14.48508,0,0,1,82.49805,123.07666Z" style="fill: #252626"/>
  </g>
  <g>
    <path d="M93.37012,257.98A.82708.82708,0,0,1,93,256.8706h0a.83047.83047,0,0,1,1.10938-.37011h0a.8221.8221,0,0,1,.37011,1.10937h0a.81586.81586,0,0,1-.73926.46094h0A.8336.8336,0,0,1,93.37012,257.98Zm2.00976-4.30957a.84193.84193,0,0,1-.46972-1.08008h.00976a.81111.81111,0,0,1,1.07031-.46h0a.82626.82626,0,0,1,.46,1.07031H96.46a.82824.82824,0,0,1-.77051.51953h0A.80536.80536,0,0,1,95.37988,253.67041Zm1.62989-4.48047a.82845.82845,0,0,1-.55957-1.01953h0a.84532.84532,0,0,1,1.02929-.57031h0a.82791.82791,0,0,1,.56055,1.03027h0a.82246.82246,0,0,1-.79.59961h0A.66758.66758,0,0,1,97.00977,249.18994Zm1.15039-4.60937a.84327.84327,0,0,1-.68067-.96h0a.83351.83351,0,0,1,.9502-.68066h0a.828.828,0,0,1,.69043.9502h0a.83538.83538,0,0,1-.82032.70019h0C98.25,244.59033,98.21,244.58057,98.16016,244.58057Zm.62011-4.73047a.82046.82046,0,0,1-.7705-.87989h0a.8209.8209,0,0,1,.87988-.76953h0a.82752.82752,0,0,1,.77051.87989h0a.83006.83006,0,0,1-.82032.77929h0A.12592.12592,0,0,1,98.78027,239.8501Zm.21-4.75a.83441.83441,0,0,1-.83007-.83008h.00976A.82814.82814,0,0,1,99,233.43994h0a.81907.81907,0,0,1,.81934.83008h0a.82731.82731,0,0,1-.82911.83008Zm-.90039-5.56934h0a.82042.82042,0,0,1,.79981-.85059h0a.81477.81477,0,0,1,.85058.79981h0a.815.815,0,0,1-.80078.85059h-.01953A.822.822,0,0,1,98.08984,229.53076Z" style="fill: #ff4257"/>
    <path d="M98.85938,264.13037a.83123.83123,0,0,1,.18066-1.16016h0a.83313.83313,0,0,1,1.16016.19043h0a.83313.83313,0,0,1-.19043,1.16016h0a.85191.85191,0,0,1-.4795.14941h0A.826.826,0,0,1,98.85938,264.13037ZM102.7002,261.23a.82711.82711,0,0,1,.10937-1.16992h0a.82508.82508,0,0,1,1.16016.11035h0a.81533.81533,0,0,1-.09961,1.16016h0a.857.857,0,0,1-.53028.20019h0A.844.844,0,0,1,102.7002,261.23Zm3.62988-3.15918a.83456.83456,0,0,1,.0293-1.1709h0a.8171.8171,0,0,1,1.17089.03027h0a.82445.82445,0,0,1-.0205,1.16993h0a.86894.86894,0,0,1-.58008.23047h0A.84251.84251,0,0,1,106.33008,258.0708Zm3.41015-3.40039a.82417.82417,0,0,1-.05078-1.16992h0a.8345.8345,0,0,1,1.16993-.06055h0a.82456.82456,0,0,1,.05078,1.16992h0a.80341.80341,0,0,1-.61036.27051h0A.84735.84735,0,0,1,109.74023,254.67041Zm3.15918-3.63965a.83357.83357,0,0,1-.14941-1.1709h0a.83871.83871,0,0,1,1.16992-.13965h0a.83793.83793,0,0,1,.13965,1.16993h0a.86451.86451,0,0,1-.66016.31054h0A.80232.80232,0,0,1,112.89941,251.03076Zm2.88086-3.86035a.82177.82177,0,0,1-.21093-1.15039h0a.82083.82083,0,0,1,1.15039-.21h0a.82947.82947,0,0,1,.21,1.15039h0a.83747.83747,0,0,1-.67969.36035h0A.8439.8439,0,0,1,115.78027,247.17041Zm2.63965-4.02051a.83039.83039,0,0,1-.28027-1.13965h0a.82814.82814,0,0,1,1.14062-.28027h0a.82535.82535,0,0,1,.2793,1.12988h0a.83713.83713,0,0,1-.71.41016h0A.84664.84664,0,0,1,118.41992,243.1499Zm2.39942-4.18945a.82239.82239,0,0,1-.35938-1.11035h0a.83005.83005,0,0,1,1.12012-.35938h0a.835.835,0,0,1,.34961,1.11914h0a.846.846,0,0,1-.74024.4502h0A.73308.73308,0,0,1,120.81934,238.96045Zm2.48763-3.82957a.82851.82851,0,0,1-.42968-1.08985h0a.82849.82849,0,0,1,1.08984-.42968h0a.82851.82851,0,0,1,.42969,1.08984h0a.82713.82713,0,0,1-.75977.5h0A.78822.78822,0,0,1,123.307,235.13088Z" style="fill: #ff4257"/>
  </g>
  <g>
    <path d="M65.25,315.52a.84085.84085,0,0,1,.7998-.85938h0a.84316.84316,0,0,1,.86036.80957h0a.84229.84229,0,0,1-.81055.85059h-.01953A.82856.82856,0,0,1,65.25,315.52Zm-.08008-4.79h0A.83441.83441,0,0,1,66,309.8999h0a.82814.82814,0,0,1,.83008.83008h0A.82814.82814,0,0,1,66,311.56006h0A.83442.83442,0,0,1,65.16992,310.73Zm.92969-3.92969a.83644.83644,0,0,1-.76953-.88965h0a.84322.84322,0,0,1,.88965-.7705h0a.84482.84482,0,0,1,.7705.89062h0a.838.838,0,0,1-.83007.76953h-.06055Zm.46-4.74023a.83209.83209,0,0,1-.67969-.9502h0a.83175.83175,0,0,1,.9502-.68945h0a.83908.83908,0,0,1,.68945.95019h0a.83436.83436,0,0,1-.81933.7002h0C66.64941,302.0708,66.60938,302.06006,66.55957,302.06006Zm.96-4.66992a.81167.81167,0,0,1-.55957-1.03028h0a.82492.82492,0,0,1,1.01953-.55957h0a.84148.84148,0,0,1,.57031,1.03028h0a.84414.84414,0,0,1-.7998.5996h0A.58491.58491,0,0,1,67.51953,297.39014Zm1.49024-4.51954a.81818.81818,0,0,1-.46-1.07031H68.54a.82979.82979,0,0,1,1.08008-.46972h0a.84633.84633,0,0,1,.46972,1.08007h0a.83475.83475,0,0,1-.7705.51953h0A.81245.81245,0,0,1,69.00977,292.8706Zm1.87988-4.37011a.82565.82565,0,0,1-.37012-1.11035h0a.81191.81191,0,0,1,1.10059-.37012h0A.824.824,0,0,1,72,288.1206h0v.00977h0a.82957.82957,0,0,1-.74023.4502h0A.77816.77816,0,0,1,70.88965,288.50049Z" style="fill: #ff4257"/>
    <path d="M40.58016,311.48887a.82164.82164,0,0,1-.43066-1.08984h0a.83008.83008,0,0,1,1.08984-.43066h0a.82678.82678,0,0,1,.43067,1.09082h0a.84312.84312,0,0,1-.77051.5h0A.77287.77287,0,0,1,40.58016,311.48887Zm2.83976-3.98838a.81832.81832,0,0,1-.35058-1.11035h0a.82208.82208,0,0,1,1.11035-.35938h0A.82957.82957,0,0,1,44.54,307.1499h0a.82958.82958,0,0,1-.74024.4502h0A.7424.7424,0,0,1,43.41992,307.50049ZM45.71973,303.27a.81755.81755,0,0,1-.28028-1.12988h0a.82082.82082,0,0,1,1.12989-.29h0a.8251.8251,0,0,1,.29,1.14062h0a.82733.82733,0,0,1-.71.39942h0A.8466.8466,0,0,1,45.71973,303.27Zm2.56054-4.08008a.83144.83144,0,0,1-.2207-1.14941h0a.83525.83525,0,0,1,1.16016-.21973h0a.84168.84168,0,0,1,.21,1.15918h0a.83488.83488,0,0,1-.67969.36035h0A.81348.81348,0,0,1,48.28027,299.18994ZM51.08008,295.27a.827.827,0,0,1-.14063-1.16016h0a.82705.82705,0,0,1,1.16016-.13965h0a.82767.82767,0,0,1,.15039,1.16016h0a.8434.8434,0,0,1-.66016.32031h0A.81347.81347,0,0,1,51.08008,295.27Zm3.05957-3.71973a.82494.82494,0,0,1-.04981-1.16992h0a.82369.82369,0,0,1,1.16993-.0498h0a.83293.83293,0,0,1,.0498,1.16992h0a.82048.82048,0,0,1-.60937.26953h0A.81006.81006,0,0,1,54.13965,291.55029Zm3.33008-3.47949a.82476.82476,0,0,1,.0205-1.1709h0a.84562.84562,0,0,1,1.17969.03027h0a.83339.83339,0,0,1-.03027,1.16993h0a.85074.85074,0,0,1-.58008.23047h0A.821.821,0,0,1,57.46973,288.0708Zm3.5498-3.24023a.83689.83689,0,0,1,.11035-1.16993h0a.83685.83685,0,0,1,1.16992.10938h0a.8368.8368,0,0,1-.11035,1.16992h0a.79719.79719,0,0,1-.52929.19043h0A.84375.84375,0,0,1,61.01953,284.83057Zm3.78027-2.99024a.83313.83313,0,0,1,.19043-1.16016h0a.819.819,0,0,1,1.14942.19043h0a.82345.82345,0,0,1-.18945,1.16016V282.02a.77162.77162,0,0,1-.48047.16015h0A.82554.82554,0,0,1,64.7998,281.84033Z" style="fill: #ff4257"/>
  </g>
  <g>
    <path d="M66.87012,262.00049h0A.83413.83413,0,0,1,66.5,260.89014h0a.82312.82312,0,0,1,1.10938-.37989h0a.82294.82294,0,0,1,.37011,1.11035h0a.815.815,0,0,1-.73926.46h0A.83137.83137,0,0,1,66.87012,262.00049Zm-4.28028-1.91992h0a.82628.82628,0,0,1-.46-1.07032h0a.8182.8182,0,0,1,1.07032-.46v-.00976a.8298.8298,0,0,1,.46972,1.08007h0a.84485.84485,0,0,1-.77051.51954h0A.81268.81268,0,0,1,62.58984,260.08057Zm-4.42968-1.54v.00976h0a.82909.82909,0,0,1-.55078-1.04h0a.80522.80522,0,0,1,1.0205-.5498h0a.81307.81307,0,0,1,.55957,1.01953h0a.82162.82162,0,0,1-.79.60059h0A.66244.66244,0,0,1,58.16016,258.54053Zm-4.54-1.03028a.82044.82044,0,0,1-.68067-.95019h0a.83208.83208,0,0,1,.9502-.67969h0a.83519.83519,0,0,1,.69043.9502h0a.83537.83537,0,0,1-.82031.70019h0A.68869.68869,0,0,1,53.62012,257.51025Zm-4.65039-.51953a.83063.83063,0,0,1-.76953-.89062h0a.83279.83279,0,0,1,.87988-.76953h0a.82882.82882,0,0,1,.76953.88964h0a.82877.82877,0,0,1-.81934.77051h-.06054Zm-10.29-.89062a.81917.81917,0,0,1,.7998-.84961h0a.82738.82738,0,0,1,.85059.7998h0a.82915.82915,0,0,1-.79981.86035h-.0205A.83048.83048,0,0,1,38.67969,256.1001Zm5.58984.73047a.82814.82814,0,0,1-.83008-.83008h0a.82814.82814,0,0,1,.83008-.83008h0a.83441.83441,0,0,1,.83008.83008h0a.83441.83441,0,0,1-.83008.83008Z" style="fill: #ff4257"/>
    <path d="M72.96973,255.95068v.00977a.83007.83007,0,0,1,.19043-1.16016h0a.82236.82236,0,0,1,1.15918.19043h0a.82657.82657,0,0,1-.18946,1.14942h0a.81243.81243,0,0,1-.48047.16015h0A.82668.82668,0,0,1,72.96973,255.95068Zm-2.91016-3.76074a.837.837,0,0,1,.11035-1.16992h0a.83779.83779,0,0,1,1.16992.11035h0a.83606.83606,0,0,1-.11035,1.16992h0a.842.842,0,0,1-.52929.19043h0A.81587.81587,0,0,1,70.05957,252.18994Zm-3.16016-3.5498h0a.816.816,0,0,1,.03028-1.16993h0a.82357.82357,0,0,1,1.16992.02051h0a.83224.83224,0,0,1-.03027,1.16992h0a.79667.79667,0,0,1-.56934.2295h0A.81835.81835,0,0,1,66.89941,248.64014ZM63.5,245.31006a.83445.83445,0,0,1-.06055-1.16992h0a.82539.82539,0,0,1,1.16993-.04981h0a.82423.82423,0,0,1,.06054,1.16992h0a.83772.83772,0,0,1-.61035.27051h0A.856.856,0,0,1,63.5,245.31006Zm-3.64062-3.05957a.8388.8388,0,0,1-.13965-1.16992h0a.84.84,0,0,1,1.16992-.14063h0a.82718.82718,0,0,1,.14062,1.16016h0a.8448.8448,0,0,1-.66015.32031h0A.87332.87332,0,0,1,59.85938,242.25049Zm-3.83985-2.82032a.82126.82126,0,0,1-.21-1.14941h0a.8309.8309,0,0,1,1.15039-.2207h0a.843.843,0,0,1,.21,1.16015h0a.83488.83488,0,0,1-.67969.36036h0A.81869.81869,0,0,1,56.01953,239.43017Zm-4.00976-2.57031h0a.843.843,0,0,1-.29-1.13965h0a.83148.83148,0,0,1,1.13965-.28027h0a.83785.83785,0,0,1,.29,1.14063h0a.84958.84958,0,0,1-.71.39941h0A.82085.82085,0,0,1,52.00977,236.85986Zm-4.16016-2.31933h0a.83005.83005,0,0,1-.35938-1.12012h0a.82957.82957,0,0,1,1.11915-.36035h0a.83337.83337,0,0,1,.36035,1.12011h0a.8285.8285,0,0,1-.74024.4502h0A.85474.85474,0,0,1,47.84961,234.54053Zm-3.80731-2.67448h0a.82852.82852,0,0,1-.42969-1.08985h0a.82976.82976,0,0,1,1.08984-.43066h0a.83042.83042,0,0,1,.42969,1.09082h0a.8271.8271,0,0,1-.75976.5h0A.97642.97642,0,0,1,44.0423,231.86605Z" style="fill: #ff4257"/>
  </g>
  <g>
    <path d="M119.89941,288.99072a.8204.8204,0,0,1,.83008-.82031h0a.82814.82814,0,0,1,.83008.83008h0a.83244.83244,0,0,1-.83008.82031h0A.82814.82814,0,0,1,119.89941,288.99072Zm4.76075-.05078a.827.827,0,0,1,.80957-.84961h0a.81918.81918,0,0,1,.84961.79981h0a.835.835,0,0,1-.79981.86035h-.0293A.837.837,0,0,1,124.66016,288.93994Zm-8.74024.7207a.81525.81525,0,0,1-.77051-.87988h0a.822.822,0,0,1,.88086-.77051h0a.82665.82665,0,0,1,.76953.87989h0a.83063.83063,0,0,1-.83007.7705h-.04981Zm-4.81054-.54a.83612.83612,0,0,1-.68946-.96h0a.838.838,0,0,1,.96-.68066h0a.83208.83208,0,0,1,.67969.95019h0a.83437.83437,0,0,1-.81934.7002h0A.54455.54455,0,0,1,111.10938,289.1206Zm-4.75-1.08007a.82417.82417,0,0,1-.54981-1.02051h0a.816.816,0,0,1,1.02051-.56934h0a.8411.8411,0,0,1,.56933,1.0293h0a.842.842,0,0,1-.7998.60059h0A.66758.66758,0,0,1,106.35938,288.04053Zm-4.55958-1.58985a.81944.81944,0,0,1-.46972-1.07031h0a.83794.83794,0,0,1,1.08008-.46973h0a.83329.83329,0,0,1,.46,1.08008h0a.83476.83476,0,0,1-.77051.51953h0A.80013.80013,0,0,1,101.7998,286.45068ZM97.38965,284.48a.81884.81884,0,0,1-.37012-1.10938h0a.82861.82861,0,0,1,1.10059-.37011h.00976A.83046.83046,0,0,1,98.5,284.10986h0a.84009.84009,0,0,1-.74023.46094h0A.8033.8033,0,0,1,97.38965,284.48Z" style="fill: #ff4257"/>
    <path d="M120.29816,314.98865h0a.82976.82976,0,0,1-.43066-1.08984h0a.83075.83075,0,0,1,1.09082-.42969h0a.82934.82934,0,0,1,.42969,1.08984h0a.83842.83842,0,0,1-.75977.5h0A.77033.77033,0,0,1,120.29816,314.98865Zm-3.90851-3.05848a.81988.81988,0,0,1-.35938-1.10937h0a.82956.82956,0,0,1,1.11914-.36035h0a.83041.83041,0,0,1,.36036,1.12012h0a.85028.85028,0,0,1-.74024.45019h0A.74343.74343,0,0,1,116.38965,311.93017Zm-4.25-2.37011a.843.843,0,0,1-.29-1.13965h0a.83153.83153,0,0,1,1.14062-.28027h0a.81684.81684,0,0,1,.2793,1.12988h0a.82389.82389,0,0,1-.71.41015h0A.81261.81261,0,0,1,112.13965,309.56006ZM108.04,306.93017a.83233.83233,0,0,1-.2207-1.14941h0a.83239.83239,0,0,1,1.16015-.21h0a.8204.8204,0,0,1,.21,1.14941h0a.83356.83356,0,0,1-.67968.36036h0A.83626.83626,0,0,1,108.04,306.93017Zm-3.93066-2.87011a.829.829,0,0,1-.13965-1.16016h0a.8302.8302,0,0,1,1.16992-.14941h0a.848.848,0,0,1,.14062,1.16992h0a.865.865,0,0,1-.66015.30957h0A.80486.80486,0,0,1,104.10938,304.06006Zm-3.7295-3.14942a.82411.82411,0,0,1-.0498-1.16992h0a.82413.82413,0,0,1,1.16992-.05078h0a.825.825,0,0,1,.0498,1.16992h0a.80337.80337,0,0,1-.61035.27051h0A.8139.8139,0,0,1,100.37988,300.91064Zm-3.48047-3.41015v.00976h0a.84556.84556,0,0,1,.03028-1.17968h0a.83357.83357,0,0,1,1.16992.02929h0a.82483.82483,0,0,1-.03027,1.1709h0a.78491.78491,0,0,1-.56934.22949h0A.792.792,0,0,1,96.89941,297.50049Zm-3.23925-3.62989a.8359.8359,0,0,1,.10937-1.16992h0a.8287.8287,0,0,1,1.16992.10938h0a.825.825,0,0,1-.10937,1.16015h0a.8344.8344,0,0,1-.53028.2002h0A.86349.86349,0,0,1,93.66016,293.8706Zm-2.98047-3.86035h0a.8288.8288,0,0,1,.19043-1.15039h0a.83123.83123,0,0,1,1.16015.18067h0a.84056.84056,0,0,1-.19043,1.16015h0a.81781.81781,0,0,1-.48046.15918h0A.82413.82413,0,0,1,90.67969,290.01025Z" style="fill: #ff4257"/>
  </g>
  <circle cx="82.5" cy="211.49999" r="16.84425" style="fill: none"/>
  <polyline points="70.589 223.411 82.5 211.5 94.411 223.411" style="fill: none"/>
  <circle cx="82.5" cy="333.50001" r="16.84425" style="fill: none"/>
  <polyline points="94.411 321.589 82.5 333.5 70.589 321.589" style="fill: none"/>
  <g>
    <circle cx="65.20224" cy="342.14023" r="3.73497" style="fill: #252626"/>
    <path d="M65.20215,344.88525a.55348.55348,0,0,1-.55274-.55273v-4.38379a.55274.55274,0,0,1,1.10547,0v4.38379A.55347.55347,0,0,1,65.20215,344.88525Z" style="fill: #e6e5e5"/>
    <path d="M67.39453,342.69287H63.01074a.55274.55274,0,0,1,0-1.10547h4.38379a.55274.55274,0,1,1,0,1.10547Z" style="fill: #e6e5e5"/>
  </g>
  <g>
    <circle cx="99.69871" cy="342.14023" r="3.73497" style="fill: #252626"/>
    <path d="M101.89063,342.69287H97.50684a.55274.55274,0,1,1,0-1.10547h4.38379a.55274.55274,0,0,1,0,1.10547Z" style="fill: #e6e5e5"/>
  </g>
  <circle cx="143.49999" cy="272.50052" r="16.84425" style="fill: none"/>
  <polyline points="131.589 260.589 143.5 272.5 131.589 284.411" style="fill: none"/>
  <circle cx="21.50001" cy="272.5" r="16.84425" style="fill: none"/>
  <polyline points="33.403 284.411 21.492 272.5 33.403 260.589" style="fill: none"/>
  <g>
    <circle cx="100.06692" cy="203.26781" r="3.73497" style="fill: #252626"/>
    <path d="M100.06738,206.01221a.55348.55348,0,0,1-.55273-.55274v-4.38379a.55274.55274,0,0,1,1.10547,0v4.38379A.55348.55348,0,0,1,100.06738,206.01221Z" style="fill: #e6e5e5"/>
    <path d="M102.25879,203.8208H97.875a.55274.55274,0,0,1,0-1.10547h4.38379a.55274.55274,0,0,1,0,1.10547Z" style="fill: #e6e5e5"/>
  </g>
  <g>
    <circle cx="65.57046" cy="203.26781" r="3.73497" style="fill: #252626"/>
    <path d="M67.7627,203.8208H63.37891a.55274.55274,0,1,1,0-1.10547H67.7627a.55274.55274,0,0,1,0,1.10547Z" style="fill: #e6e5e5"/>
  </g>
  <g>
    <circle cx="13.38248" cy="255.45579" r="3.73497" style="fill: #252626"/>
    <path d="M15.57422,256.0083H11.19043a.55274.55274,0,0,1,0-1.10547h4.38379a.55274.55274,0,0,1,0,1.10547Z" style="fill: #e6e5e5"/>
    <path d="M13.38281,258.20068a.55347.55347,0,0,1-.55273-.55273v-4.38379a.55274.55274,0,1,1,1.10547,0V257.648A.55348.55348,0,0,1,13.38281,258.20068Z" style="fill: #e6e5e5"/>
  </g>
  <g>
    <circle cx="13.38248" cy="289.95225" r="3.73497" style="fill: #252626"/>
    <path d="M13.38281,292.69678a.55348.55348,0,0,1-.55273-.55274v-4.38379a.55274.55274,0,0,1,1.10547,0V292.144A.55348.55348,0,0,1,13.38281,292.69678Z" style="fill: #e6e5e5"/>
  </g>
  <g>
    <circle cx="151.2549" cy="289.95225" r="3.73497" style="fill: #252626"/>
    <path d="M153.44629,290.50537h-4.38281a.55274.55274,0,1,1,0-1.10547h4.38281a.55274.55274,0,0,1,0,1.10547Z" style="fill: #e6e5e5"/>
    <path d="M151.25488,292.69678a.55348.55348,0,0,1-.55273-.55274v-4.38379a.55274.55274,0,0,1,1.10547,0V292.144A.55348.55348,0,0,1,151.25488,292.69678Z" style="fill: #e6e5e5"/>
  </g>
  <g>
    <circle cx="151.2549" cy="255.45579" r="3.73497" style="fill: #252626"/>
    <path d="M151.25488,258.20068a.55347.55347,0,0,1-.55273-.55273v-4.38379a.55274.55274,0,1,1,1.10547,0V257.648A.55348.55348,0,0,1,151.25488,258.20068Z" style="fill: #e6e5e5"/>
  </g>
  <circle cx="112.50004" cy="219.50002" r="14.87217" style="fill: #252626"/>
  <circle cx="135.5" cy="302.49998" r="14.87217" style="fill: #252626"/>
  <circle cx="82.5" cy="272.49998" r="14.87217" style="fill: #252626"/>
  <circle cx="52.5" cy="325.49998" r="14.87217" style="fill: #252626"/>
  <circle cx="29.5" cy="242.49998" r="14.87217" style="fill: #252626"/>
  <path d="M52.26855,220.21826a.82817.82817,0,0,1-.416-1.54492,61.51325,61.51325,0,0,1,61.4082-.03711.82864.82864,0,0,1-.82812,1.43555,59.852,59.852,0,0,0-59.75.03515A.81937.81937,0,0,1,52.26855,220.21826Z" style="fill: #252626"/>
  <path d="M135.38184,303.647a.81926.81926,0,0,1-.41407-.11133.82828.82828,0,0,1-.30175-1.13183,59.85159,59.85159,0,0,0,.04882-59.72266.82864.82864,0,0,1,1.43555-.82812,61.51289,61.51289,0,0,1-.05078,61.38086A.82654.82654,0,0,1,135.38184,303.647Z" style="fill: #252626"/>
  <path d="M82.40137,334.18408a61.41482,61.41482,0,0,1-30.749-8.23633.82828.82828,0,0,1,.83008-1.43359,59.85535,59.85535,0,0,0,59.76367.042.82864.82864,0,0,1,.82813,1.43555A61.42312,61.42312,0,0,1,82.40137,334.18408Z" style="fill: #252626"/>
  <path d="M29.584,303.58838a.83022.83022,0,0,1-.71875-.41406,61.51593,61.51593,0,0,1-.0039-61.3418.82864.82864,0,0,1,1.43555.82812,59.85191,59.85191,0,0,0,.0039,59.68555.82782.82782,0,0,1-.7168,1.24219Z" style="fill: #252626"/>
  <path d="M82.5,212.32666a.82791.82791,0,0,1-.82812-.82813V194.65576a.82813.82813,0,0,1,1.65625,0v16.84277A.82792.82792,0,0,1,82.5,212.32666Z" style="fill: #252626"/>
  <path d="M82.5,229.17236a17.56113,17.56113,0,0,1-12.49707-5.17578.82864.82864,0,1,1,1.17187-1.17187,16.01541,16.01541,0,0,0,22.6504,0,.82864.82864,0,1,1,1.17187,1.17187A17.56113,17.56113,0,0,1,82.5,229.17236Z" style="fill: #252626"/>
  <path d="M70.54,322.41748a.82813.82813,0,0,1-.58594-1.41406,17.674,17.674,0,0,1,24.99317,0,.82864.82864,0,1,1-1.17188,1.17187,16.01422,16.01422,0,0,0-22.64941,0A.82913.82913,0,0,1,70.54,322.41748Z" style="fill: #252626"/>
  <path d="M160.34473,273.32861H143.5a.82813.82813,0,0,1,0-1.65625h16.84473a.82813.82813,0,0,1,0,1.65625Z" style="fill: #252626"/>
  <path d="M131.58887,285.21631a.82912.82912,0,0,1-.58594-.24219,17.674,17.674,0,0,1,0-24.99316.82864.82864,0,0,1,1.17187,1.17187,16.01423,16.01423,0,0,0,0,22.64942.82813.82813,0,0,1-.58593,1.41406Z" style="fill: #252626"/>
  <path d="M21.49219,273.32764H4.64746a.82813.82813,0,0,1,0-1.65625H21.49219a.82813.82813,0,0,1,0,1.65625Z" style="fill: #252626"/>
  <path d="M33.40332,285.21631a.82813.82813,0,0,1-.58594-1.41406,16.0142,16.0142,0,0,0,0-22.64942.82864.82864,0,1,1,1.17188-1.17187,17.674,17.674,0,0,1,0,24.99316A.82913.82913,0,0,1,33.40332,285.21631Z" style="fill: #252626"/>
  <path d="M82.35254,243.02392h-.00586a.82732.82732,0,0,1-.82227-.834l.09766-13.85156a.828.828,0,0,1,.82813-.82227h.00585a.82732.82732,0,0,1,.82227.834l-.09766,13.85156A.82793.82793,0,0,1,82.35254,243.02392Z" style="fill: #252626"/>
  <path d="M126.65527,273.32568H112.5a.84766.84766,0,1,1,0-1.69531h14.15527a.84766.84766,0,1,1,0,1.69531Z" style="fill: #252626"/>
  <path d="M82.5,317.48389a.82792.82792,0,0,1-.82812-.82813V302.50049a.82813.82813,0,1,1,1.65625,0v14.15527A.82793.82793,0,0,1,82.5,317.48389Z" style="fill: #252626"/>
  <path d="M52.5,273.3042H38.34473a.82618.82618,0,1,1,0-1.65235H52.5a.82618.82618,0,0,1,0,1.65235Z" style="fill: #252626"/>
  <g>
    <g>
      <path d="M43.87988,209.43017a.86754.86754,0,0,1-.32031-.05957.68209.68209,0,0,1-.25977-.18066.80054.80054,0,0,1-.17968-.26953.70042.70042,0,0,1-.07032-.32031.81128.81128,0,0,1,.25-.58008.67989.67989,0,0,1,.25977-.17969.83623.83623,0,0,1,.91016.17969.82506.82506,0,0,1,.24023.58008.86458.86458,0,0,1-.06055.32031.80039.80039,0,0,1-.17968.26953A.86625.86625,0,0,1,43.87988,209.43017Z" style="fill: #00bc8b"/>
      <path d="M38.7998,225.1001A.82909.82909,0,0,1,39.25,224.02h0a.81993.81993,0,0,1,1.08008.44043h0a.81993.81993,0,0,1-.44043,1.08008h0a.74129.74129,0,0,1-.32031.06933h0A.83371.83371,0,0,1,38.7998,225.1001Zm-.99023-3.67969a.83083.83083,0,0,1,.7207-.92969h0a.831.831,0,0,1,.92969.71h0a.84014.84014,0,0,1-.71973.93946h-.11035A.83652.83652,0,0,1,37.80957,221.42041Zm.71-2.87012a.83064.83064,0,0,1-.71-.92969h0a.8346.8346,0,0,1,.93066-.7207h0a.83286.83286,0,0,1,.71.93067h0a.82191.82191,0,0,1-.82032.71972h-.11035Zm.7207-3.53027a.8149.8149,0,0,1-.45019-1.08008h0a.82829.82829,0,0,1,1.08008-.44922h0a.83094.83094,0,0,1,.44922,1.08008h0a.83345.83345,0,0,1-.76954.51953h0A.68722.68722,0,0,1,39.24023,215.02Zm1.59961-3.21973a.81879.81879,0,0,1-.15039-1.16015h0a.82608.82608,0,0,1,1.16016-.14942h0A.82536.82536,0,0,1,42,211.6499h0a.82943.82943,0,0,1-.66016.32031h0A.79645.79645,0,0,1,40.83984,211.80029Z" style="fill: #00bc8b"/>
      <path d="M41.37012,228.72021a.82785.82785,0,0,1-.31055-.07031.80042.80042,0,0,1-.26953-.17969.81122.81122,0,0,1-.25-.58007.71091.71091,0,0,1,.06934-.31934.7974.7974,0,0,1,.18066-.27051,1.0387,1.0387,0,0,1,.26953-.17969.85586.85586,0,0,1,.62988,0,1.24189,1.24189,0,0,1,.27051.17969.79472.79472,0,0,1,.17969.27051.86327.86327,0,0,1,.06055.31934.82052.82052,0,0,1-.51075.75976A.87269.87269,0,0,1,41.37012,228.72021Z" style="fill: #00bc8b"/>
    </g>
    <path d="M63.16825,211.111A13.75229,13.75229,0,0,0,43.882,208.60285" style="fill: none"/>
    <path d="M41.37387,227.88912a13.75229,13.75229,0,0,0,19.28627,2.50811" style="fill: none"/>
  </g>
  <g>
    <path d="M31.7492,7.23615h2.96a2.118,2.118,0,0,1,1.51758.6377,2.32563,2.32563,0,0,1,.61621,1.585,2.73671,2.73671,0,0,1-.10938.792,1.97578,1.97578,0,0,1,.39551.34082l-.01074-.01074a2.43154,2.43154,0,0,1,.80273,1.793,2.62078,2.62078,0,0,1-.792,1.88086,2.73951,2.73951,0,0,1-1.9248.81445H31.7492Zm2.96,2.56348c.13184-.01074.24219-.209.24219-.34082a.38622.38622,0,0,0-.24219-.3418H33.64178v.68262Zm.49512,3.38867a.82256.82256,0,0,0,.82519-.81445c0-.44043-.374-.68262-.82519-.7041h-1.5625V13.1883Z" style="fill: #1d1d1b"/>
    <path d="M42.07928,7.23615H43.9826V13.1883h3.71875v1.88086H42.07928Z" style="fill: #1d1d1b"/>
    <path d="M56.19256,13.28693h-2.2002L53.299,15.06916H51.27459l3.01465-7.833h1.60644l3.02539,7.833H56.86346ZM55.092,10.27229l-.374,1.14453h.7373Z" style="fill: #1d1d1b"/>
    <path d="M68.11736,12.18635l1.50684,1.11133A4.14527,4.14527,0,0,1,66.214,15.17951a4.07617,4.07617,0,1,1,0-8.15234,4.2268,4.2268,0,0,1,3.4541,1.91406L68.13885,10.0633A2.375,2.375,0,0,0,66.214,8.908a2.18945,2.18945,0,1,0,0,4.3789A2.29468,2.29468,0,0,0,68.11736,12.18635Z" style="fill: #1d1d1b"/>
    <path d="M76.4533,11.39436c-.26367.24218-.53906.51757-.85742.81445v2.86035H73.7033v-7.833h1.89258v2.3877l2.541-2.3877h2.75L77.884,10.074c1.07813,1.50782,2.57422,3.59766,3.56446,4.99512h-2.376Z" style="fill: #1d1d1b"/>
    <path d="M89.69842,11.73615H87.26678v3.333H85.36346v-7.833h1.90332V9.85432h2.43164V7.23615h1.91406v7.833H89.69842Z" style="fill: #1d1d1b"/>
    <path d="M103.83318,11.10822a4.07617,4.07617,0,1,1-4.082-4.081A4.09,4.09,0,0,1,103.83318,11.10822Zm-1.92578,0a2.16163,2.16163,0,1,0-2.15625,2.168A2.18332,2.18332,0,0,0,101.9074,11.10822Z" style="fill: #1d1d1b"/>
    <path d="M108.01189,7.23615h1.90332V13.1883H113.634v1.88086h-5.62207Z" style="fill: #1d1d1b"/>
    <path d="M117.88982,7.23615h5.33594V9.10627h-3.42187v.6709h2.99218v1.90332h-2.99218v1.49609h3.34472v1.89258h-5.25879Z" style="fill: #1d1d1b"/>
    <path d="M129.68182,15.0467a5.29208,5.29208,0,0,1-2.45313-1.33106l1.25488-1.44043a3.24439,3.24439,0,0,0,1.584.92383,1.88277,1.88277,0,0,0,.418.05469,1.29305,1.29305,0,0,0,.57226-.12109.57068.57068,0,0,0,.36231-.50586c0-.30762-.57129-.49512-1.06641-.59375a7.54116,7.54116,0,0,1-1.73828-.53907,2.16007,2.16007,0,0,1-1.13379-1.94726,2.283,2.283,0,0,1,.40723-1.27637,2.54068,2.54068,0,0,1,1.01269-.81445l-.01172.01074a3.19288,3.19288,0,0,1,1.34278-.29687,3.84125,3.84125,0,0,1,.583.04394A4.57755,4.57755,0,0,1,133.07049,8.369l-1.21,1.45215a2.428,2.428,0,0,0-1.65039-.76953,1.1189,1.1189,0,0,0-.50586.10938.45574.45574,0,0,0-.31934.38574c0,.29687.39649.43945,1.03418.57129.06641.02246.14356.02246.2207.04492a5.80075,5.80075,0,0,1,1.48438.47266h-.01074a2.19156,2.19156,0,0,1,1.21,1.99121,2.30793,2.30793,0,0,1-.418,1.375,2.71062,2.71062,0,0,1-1.04492.83593,2.861,2.861,0,0,1-1.38575.29786A3.6808,3.6808,0,0,1,129.68182,15.0467Z" style="fill: #1d1d1b"/>
  </g>
  <g>
    <path d="M21.10271,171.55158a2.78337,2.78337,0,0,1,1.36329.40723l.13183.083-.418.6914-.13183-.08008a1.9916,1.9916,0,0,0-.96192-.30175l-.00683.001a1.27208,1.27208,0,0,0-.27344.01953.95087.95087,0,0,0-.38672.15528.47323.47323,0,0,0-.23144.49316.3671.3671,0,0,0,.26074.28028,1.7788,1.7788,0,0,0,.58984.085,4.30828,4.30828,0,0,1,1.01563.11816,1.28747,1.28747,0,0,1,.50683.34766,1.12377,1.12377,0,0,1,.25391.54687,1.23413,1.23413,0,0,1-.08985.70117,1.433,1.433,0,0,1-.45019.51368,1.67035,1.67035,0,0,1-.68359.28418,3.02615,3.02615,0,0,1-.32129.03417,2.4642,2.4642,0,0,1-1.22168-.33593l-.13086-.0752.39648-.707.13184.07422a1.52089,1.52089,0,0,0,1.00879.21973.92087.92087,0,0,0,.35644-.14551.435.435,0,0,0,.209-.41406.32731.32731,0,0,0-.21387-.26368,1.69315,1.69315,0,0,0-.59863-.09668c-.03711.001-.08692-.00195-.13672-.00586a2.76341,2.76341,0,0,1-.86524-.10839,1.21682,1.21682,0,0,1-.54394-.34668,1.1396,1.1396,0,0,1-.26953-.5625,1.23579,1.23579,0,0,1,.08691-.751,1.49484,1.49484,0,0,1,.47559-.543,1.60321,1.60321,0,0,1,.709-.28808A2.18827,2.18827,0,0,1,21.10271,171.55158Z" style="fill: #1d1d1b"/>
    <path d="M17.04217,172.65412l1.91406,3.86817-1.38574.68554a1.09921,1.09921,0,0,1-.85059.05567,1.10136,1.10136,0,0,1-.13086-2.03907l.66309-.32812-.9336-1.88477Zm-.10059,3.28223a.3067.3067,0,0,0-.13476.41211.31529.31529,0,0,0,.41211.14746l.66308-.32813-.27734-.55957Z" style="fill: #1d1d1b"/>
    <path d="M11.07439,176.66877l1.10645.57812,1.07226-.95312-.43847-1.1709.64941-.57715,1.62891,4.34082-.54981.48828-4.124-2.125Zm1.875.9668.99805.52148-.39844-1.05273Z" style="fill: #1d1d1b"/>
    <path d="M11.15643,179.74689a2.25919,2.25919,0,0,1,.84179,3.07618,2.25629,2.25629,0,0,1-1.37207,1.06054l-.1582.042-.16016-.78223.13477-.041a1.39477,1.39477,0,0,0,.85449-.67773,1.45566,1.45566,0,0,0-2.52832-1.44336,1.46594,1.46594,0,0,0-.12988,1.14746l.77929.44434.58594-1.02735.7002.40039-.9795,1.7168-1.72753-.98633-.01661-.043a2.28941,2.28941,0,0,1,.09278-2.0498A2.26041,2.26041,0,0,1,11.15643,179.74689Z" style="fill: #1d1d1b"/>
    <path d="M5.9367,187.20686l2.05859.36816.3086-1.72363-2.0586-.36914.14258-.79981,4.24805.76074-.14356.79981-1.40722-.25293-.3086,1.72461,1.40821.25195-.14258.79981-4.248-.75977Z" style="fill: #1d1d1b"/>
    <path d="M5.799,190.575l4.28418-.53809.3545,2.82129-.78223.09766-.25293-2.01465-.63184.0791.22071,1.75586-.80079.10156-.2207-1.75683-1.27539.16015L6.9406,193.242l-.79394.09961Z" style="fill: #1d1d1b"/>
    <path d="M7.134,196.37287l3.23536-1.39551-.41993-.97558.73536-.31836,1.165,2.70019-.73632.31739-.42188-.97559-3.23437,1.39453Z" style="fill: #1d1d1b"/>
    <path d="M9.58221,200.64338l2.73828-2.208-.666-.82617.62305-.50195,1.8418,2.28515-.62207.50293-.666-.82715-2.73926,2.207Z" style="fill: #1d1d1b"/>
    <path d="M12.48748,203.63947l2.66992-3.40039.64063.50293L13.1281,204.1424Z" style="fill: #1d1d1b"/>
    <path d="M15.24041,205.5467l1.82031-3.92676,2.58106,1.19727-.33594.72168-1.84668-.85645-.26856.5791,1.02051.47266-.33789.72851-1.02051-.47265-.8789,1.89648Z" style="fill: #1d1d1b"/>
    <path d="M19.94158,207.29768l.875-4.23829.79688.16407-.875,4.23925Z" style="fill: #1d1d1b"/>
    <path d="M24.34978,207.661a2.28649,2.28649,0,0,1-.74218-.44532,2.07132,2.07132,0,0,1-.52344-.69433,2.18618,2.18618,0,0,1-.23145-.86914,2.266,2.266,0,0,1,2.1377-2.37891,2.26837,2.26837,0,0,1,1.85547.8086l.10351.11621-.62109.51562-.09863-.11621a1.43107,1.43107,0,0,0-1.19629-.51855,1.45682,1.45682,0,1,0,1.292,2.26367l.085-.12012.669.43652-.08985.127a2.23363,2.23363,0,0,1-.75683.71093,2.2062,2.2062,0,0,1-.99414.292A2.311,2.311,0,0,1,24.34978,207.661Z" style="fill: #1d1d1b"/>
    <path d="M32.11932,205.91584l-.85645-.90625-1.32422.5498.03223,1.249-.80078.333-.12207-4.63086.67773-.28223,3.2002,3.35156Zm-1.45606-1.52539-.77246-.81641.03223,1.124Z" style="fill: #1d1d1b"/>
    <path d="M34.966,204.12482l-2.17579-2.7705-.835.65722-.49609-.62988,2.31152-1.81543.49512.63086-.835.65625,2.17383,2.76855Z" style="fill: #1d1d1b"/>
    <path d="M37.96014,201.30061l-3.36133-2.72266.51367-.63184,3.36035,2.72266Z" style="fill: #1d1d1b"/>
    <path d="M37.87127,197.95979a2.259,2.259,0,1,1,2.959-1.1836A2.26157,2.26157,0,0,1,37.87127,197.95979Zm.32129-.7461a1.44365,1.44365,0,1,0-.7666-1.90234A1.44941,1.44941,0,0,0,38.19256,197.21369Z" style="fill: #1d1d1b"/>
    <path d="M42.28826,189.43635l-2.92676,1.78222,2.834.13575-.03906.81445-4.32129-.209.03808-.78907,2.9209-1.77539-2.8291-.13672.03906-.8125,4.32129.208Z" style="fill: #1d1d1b"/>
  </g>
  <g>
    <path d="M125.89373,189.92268a2.779,2.779,0,0,1-.80371,1.17382l-.11817.10157-.5332-.60938.11817-.10156a1.984,1.984,0,0,0,.58105-.82324l.001-.00684a1.42724,1.42724,0,0,0,.06543-.26758.93087.93087,0,0,0-.03125-.41406.47.47,0,0,0-.39746-.37109.36342.36342,0,0,0-.34668.16308,1.75458,1.75458,0,0,0-.26075.53418,4.36917,4.36917,0,0,1-.42382.93067,1.29111,1.29111,0,0,1-.48438.37793,1.139,1.139,0,0,1-.59863.07421,1.23379,1.23379,0,0,1-.64063-.29882,1.42641,1.42641,0,0,1-.35058-.58594,1.67451,1.67451,0,0,1-.06348-.73731,3.21868,3.21868,0,0,1,.06738-.3164,2.458,2.458,0,0,1,.69141-1.06153l.11133-.10156.55273.59473-.11133.10156a1.52412,1.52412,0,0,0-.5166.89453.9127.9127,0,0,0,.0293.38281.43891.43891,0,0,0,.331.32618.33028.33028,0,0,0,.31641-.12305,1.68524,1.68524,0,0,0,.27344-.54c.01074-.03613.02929-.082.04785-.12891a2.72384,2.72384,0,0,1,.36816-.791,1.232,1.232,0,0,1,.4961-.41309,1.12677,1.12677,0,0,1,.61718-.084,1.23525,1.23525,0,0,1,.68848.31152,1.493,1.493,0,0,1,.37207.61914,1.58513,1.58513,0,0,1,.05762.76172A2.27709,2.27709,0,0,1,125.89373,189.92268Z" style="fill: #1d1d1b"/>
    <path d="M126.44842,187.09748l-4-1.64844.59082-1.43261a1.1086,1.1086,0,0,1,.60351-.60547,1.10548,1.10548,0,0,1,1.44727,1.45019l-.2832.68555,1.94921.80273Zm-2.09571-2.53906a.30451.30451,0,0,0-.16992-.39844.31417.31417,0,0,0-.4082.16016l-.28223.68457.5791.23925Z" style="fill: #1d1d1b"/>
    <path d="M129.40154,181.88654l-1.20019-.34472-.85938,1.14746.66406,1.05957-.5205.69531-2.46387-3.92578.44043-.58887,4.46387,1.25684Zm-2.03125-.57324-1.081-.30859.60156.95215Z" style="fill: #1d1d1b"/>
    <path d="M128.8117,179.21564a2.25932,2.25932,0,0,1,1.32129-3.52441,2.2263,2.2263,0,0,1,.87988-.02832l.16113.02734-.17871.78028-.14062-.01856a1.39251,1.39251,0,0,0-1.06055.26367,1.45846,1.45846,0,0,0,1.707,2.36524,1.47282,1.47282,0,0,0,.59473-.99219l-.52637-.72949-.96094.69336-.47168-.6543,1.60547-1.16015,1.166,1.61621-.00293.04687a2.28772,2.28772,0,0,1-.93457,1.8291A2.264,2.264,0,0,1,128.8117,179.21564Z" style="fill: #1d1d1b"/>
    <path d="M136.80389,177.41779l-.62793-1.999-1.67578.52637.62792,2-.77539.24316-1.29882-4.12695.77734-.24414.43066,1.36816,1.67481-.52734-.42969-1.36719.77637-.24414,1.29785,4.127Z" style="fill: #1d1d1b"/>
    <path d="M138.70818,177.05744l-.09472-4.32422,2.84863-.06347.01758.79-2.03516.04492.01367.63769,1.77344-.03906.01758.80762-1.77246.03906.02734,1.28809,1.98047-.043.0166.80078Z" style="fill: #1d1d1b"/>
    <path d="M143.30779,177.33479l.8252-3.42481-1.03321-.249.1875-.78028,2.8584.68946-.18847.78027-1.03321-.249-.82519,3.4248Z" style="fill: #1d1d1b"/>
    <path d="M146.79021,178.56037l1.66993-3.10156-.93555-.50293.37988-.70606,2.58789,1.39356-.38086.70508-.93457-.50293-1.6709,3.09961Z" style="fill: #1d1d1b"/>
    <path d="M149.35564,180.2176l2.80371-3.28906.61915.52832-2.80274,3.28808Z" style="fill: #1d1d1b"/>
    <path d="M151.05193,181.75666l3.44532-2.62305,1.72363,2.26368-.63379.48339-1.23438-1.62109-.50781.38574.68164.89551-.63965.48633-.68066-.89551-1.665,1.26855Z" style="fill: #1d1d1b"/>
    <path d="M153.22088,185.00959l3.92676-1.82324.34277.73828-3.92578,1.82422Z" style="fill: #1d1d1b"/>
    <path d="M154.45232,188.02521a2.32182,2.32182,0,0,1,.34278-.79687,2.09057,2.09057,0,0,1,.61816-.61328,2.20842,2.20842,0,0,1,.83106-.3457,2.27083,2.27083,0,0,1,2.64843,1.80078,2.26865,2.26865,0,0,1-.55371,1.95215l-.10058.11718-.59473-.54785.10156-.11328a1.43762,1.43762,0,0,0,.35449-1.25586,1.45923,1.45923,0,1,0-2.07324,1.58691l.13086.06739-.34472.72265-.1377-.07324a2.23642,2.23642,0,0,1-1.22949-1.60156A2.304,2.304,0,0,1,154.45232,188.02521Z" style="fill: #1d1d1b"/>
    <path d="M154.47283,194.46955l1.21289-.29.18262-1.42187-1.09863-.59473.11132-.86133,4.07618,2.20313-.09375.72754-4.501,1.10546Zm2.04981-.5,1.09179-.26465-.99023-.53125Z" style="fill: #1d1d1b"/>
    <path d="M153.88689,196.40607l3.28223,1.292.38965-.99121.74707.29492-1.07715,2.73828-.74707-.293.38965-.99219-3.28223-1.291Z" style="fill: #1d1d1b"/>
    <path d="M152.54119,199.16291l3.59766,2.40723-.45215.67675-3.59766-2.40722Z" style="fill: #1d1d1b"/>
    <path d="M153.05291,202.40314a2.26269,2.26269,0,1,1-3.18652-.17578A2.26413,2.26413,0,0,1,153.05291,202.40314Zm-.60742.542a1.44588,1.44588,0,1,0-.10742,2.05078A1.45011,1.45011,0,0,0,152.44549,202.94514Z" style="fill: #1d1d1b"/>
    <path d="M144.924,205.21564l2.8584,1.88282-1.08594-2.61817.751-.31152,1.65625,3.99023-.72851.30274-2.85059-1.87988,1.084,2.61328-.75.31054-1.65722-3.99023Z" style="fill: #1d1d1b"/>
  </g>
  <g>
    <path d="M2.40935,23.83674a.82031.82031,0,0,1-.83007-.82031.82523.82523,0,0,1,1.41015-.58985,1.01189,1.01189,0,0,1,.18946.26953.86837.86837,0,0,1,.06054.32032.79477.79477,0,0,1-.25.58007A.78572.78572,0,0,1,2.40935,23.83674Z"/>
    <path d="M20.35955,23.01643a.82751.82751,0,0,1,.83008-.83008h0a.8273.8273,0,0,1,.8291.83008h0a.82525.82525,0,0,1-.8291.82031h0A.82547.82547,0,0,1,20.35955,23.01643Zm-4.69043,0a.82814.82814,0,0,1,.83008-.83008h0a.83441.83441,0,0,1,.83008.83008h0a.83244.83244,0,0,1-.83008.82031h0A.8261.8261,0,0,1,15.66912,23.01643Zm-4.70019,0a.82813.82813,0,0,1,.83007-.83008h0a.82814.82814,0,0,1,.83008.83008h0a.8261.8261,0,0,1-.83008.82031h0A.82609.82609,0,0,1,10.96893,23.01643Zm-4.68946,0a.82814.82814,0,0,1,.83008-.83008h0a.8259.8259,0,0,1,.81934.83008h0a.82379.82379,0,0,1-.81934.82031h0A.8261.8261,0,0,1,6.27947,23.01643Z"/>
    <path d="M25.88885,23.83674a.86327.86327,0,0,1-.31934-.06055.82109.82109,0,0,1-.45019-.45019.80968.80968,0,0,1-.06055-.30957.86837.86837,0,0,1,.06055-.32032,1.2588,1.2588,0,0,1,.17968-.26953.84512.84512,0,0,1,.91016-.17969.67253.67253,0,0,1,.25977.17969.80347.80347,0,0,1,.18066.26953.87674.87674,0,0,1,.06934.32032.81769.81769,0,0,1-.06934.30957.79765.79765,0,0,1-.18066.2705.67253.67253,0,0,1-.25977.17969A.86458.86458,0,0,1,25.88885,23.83674Z"/>
  </g>
  <g>
    <path d="M138.85955,23.83674a.86458.86458,0,0,1-.32031-.06055.80424.80424,0,0,1-.27051-.17969.95891.95891,0,0,1-.16992-.2705.81769.81769,0,0,1-.06934-.30957.87674.87674,0,0,1,.06934-.32032.96793.96793,0,0,1,.16992-.26953.80424.80424,0,0,1,.27051-.17969.8451.8451,0,0,1,.91015.17969.87076.87076,0,0,1,.24024.58985.84709.84709,0,0,1-.24024.58007A.82361.82361,0,0,1,138.85955,23.83674Z"/>
    <path d="M156.86932,23.01643a.82813.82813,0,0,1,.83007-.83008h0a.82814.82814,0,0,1,.83008.83008h0a.83441.83441,0,0,1-.83008.83007h0A.8344.8344,0,0,1,156.86932,23.01643Zm-4.71,0a.82814.82814,0,0,1,.83008-.83008h0a.82814.82814,0,0,1,.83008.83008h0a.83441.83441,0,0,1-.83008.83007h0A.83441.83441,0,0,1,152.15935,23.01643Zm-4.71,0a.82814.82814,0,0,1,.83008-.83008h0a.82814.82814,0,0,1,.83008.83008h0a.83441.83441,0,0,1-.83008.83007h0A.83441.83441,0,0,1,147.44939,23.01643Zm-4.71,0a.82814.82814,0,0,1,.83008-.83008h0a.82814.82814,0,0,1,.83008.83008h0a.83441.83441,0,0,1-.83008.83007h0A.83441.83441,0,0,1,142.73943,23.01643Z"/>
    <path d="M162.40935,23.83674a.82031.82031,0,0,1-.83007-.82031.84651.84651,0,0,1,.24023-.58985.80042.80042,0,0,1,.26953-.17969.82915.82915,0,0,1,.90039.17969.815.815,0,0,1,.25.58985.79477.79477,0,0,1-.25.58007A.78572.78572,0,0,1,162.40935,23.83674Z"/>
  </g>
  <g>
    <path d="M124.545,250.77162a13.75228,13.75228,0,0,0,19.26878,2.63908" style="fill: none"/>
    <g>
      <path d="M146.35938,235.04053a.80743.80743,0,0,1-.57911-.25.78576.78576,0,0,1-.24023-.58008.8675.8675,0,0,1,.05957-.32031.8035.8035,0,0,1,.18066-.26954,1.275,1.275,0,0,1,.26953-.18066.85579.85579,0,0,1,.62989,0,1.28164,1.28164,0,0,1,.27051.18066.80057.80057,0,0,1,.17968.26954.8675.8675,0,0,1,.05957.32031.7886.7886,0,0,1-.23925.58008A.83393.83393,0,0,1,146.35938,235.04053Z" style="fill: #00bc8b"/>
      <path d="M143.33008,232.31006a.82755.82755,0,0,1-.15039-1.16016h0a.83131.83131,0,0,1,1.16992-.14941h0a.82706.82706,0,0,1,.14062,1.16015h0a.81.81,0,0,1-.65039.31934h0A.86368.86368,0,0,1,143.33008,232.31006Zm-2.91016-1.7002a.83047.83047,0,0,1-.44043-1.08984h0a.81868.81868,0,0,1,1.08008-.43945h0a.82321.82321,0,0,1,.44043,1.08007h0a.822.822,0,0,1-.75977.50977h0A.86458.86458,0,0,1,140.41992,230.60986Zm-10.96972-.50976a.82863.82863,0,0,1,.44921-1.08008h0a.82068.82068,0,0,1,1.08008.45019h0a.81978.81978,0,0,1-.44922,1.08008h0a.8585.8585,0,0,1-.31054.05957h0A.82291.82291,0,0,1,129.4502,230.1001Zm7.71-.37989h0a.81585.81585,0,0,1-.7002-.92968h0a.81609.81609,0,0,1,.92969-.71h0a.82993.82993,0,0,1,.71.92968h0a.84435.84435,0,0,1-.81934.71973h0C137.24023,229.73,137.2002,229.72021,137.16016,229.72021Zm-4.30078-.74023a.84022.84022,0,0,1,.7207-.92969v.00977a.82594.82594,0,0,1,.92969.71h0a.841.841,0,0,1-.71973.93066h-.10059A.83243.83243,0,0,1,132.85938,228.98Z" style="fill: #00bc8b"/>
      <path d="M127.09961,232.3999a.681.681,0,0,1-.31934-.06933.95894.95894,0,0,1-.2705-.16993.82361.82361,0,0,1-.24024-.58984.86458.86458,0,0,1,.06055-.32031.79472.79472,0,0,1,.17969-.27051.95891.95891,0,0,1,.2705-.16992.83132.83132,0,0,1,.89942.16992.79472.79472,0,0,1,.17969.27051.87507.87507,0,0,1,0,.63965.79468.79468,0,0,1-.17969.2705.968.968,0,0,1-.26953.16993A.67478.67478,0,0,1,127.09961,232.3999Z" style="fill: #00bc8b"/>
    </g>
    <path d="M127.18407,231.50284a13.75229,13.75229,0,0,0-2.63907,19.26878" style="fill: none"/>
    <path d="M143.81378,253.4107a13.75228,13.75228,0,0,0,2.63907-19.26878" style="fill: none"/>
  </g>
  <g>
    <path d="M104.65552,314.23017a13.75228,13.75228,0,0,0-3.39473,19.1501" style="fill: none"/>
    <g>
      <path d="M120.34961,337.51025a.86245.86245,0,0,1-.31934-.05957.82934.82934,0,0,1-.45019-.45019.86837.86837,0,0,1-.06055-.32032.81333.81333,0,0,1,.06055-.30957.6433.6433,0,0,1,.17969-.2705.853.853,0,0,1,1.16992,0,.6433.6433,0,0,1,.17969.2705.81351.81351,0,0,1,.06054.30957.86857.86857,0,0,1-.06054.32032.83178.83178,0,0,1-.44922.45019A.8547.8547,0,0,1,120.34961,337.51025Z" style="fill: #00bc8b"/>
      <path d="M122.46973,334.8999a.82675.82675,0,0,1-.09961-1.16992h0a.80688.80688,0,0,1,1.16015-.09961h0a.81525.81525,0,0,1,.09961,1.16016h0a.80941.80941,0,0,1-.62988.2998h0A.7997.7997,0,0,1,122.46973,334.8999Zm2.11035-2.91992a.81406.81406,0,0,1-.40039-1.09961h0a.83224.83224,0,0,1,1.10058-.40039h0a.83528.83528,0,0,1,.39942,1.10059v.00976a.82166.82166,0,0,1-.75.46973h0A.70961.70961,0,0,1,124.58008,331.98Zm1.2793-3.34961a.82834.82834,0,0,1-.66993-.96h0a.814.814,0,0,1,.96-.66992h0a.813.813,0,0,1,.66993.95019h0a.8232.8232,0,0,1-.80957.68946h0C125.96,328.64014,125.91016,328.63037,125.85938,328.63037Zm-.50977-4.33008h-.00977a.84474.84474,0,0,1,.75977-.90039h0a.83087.83087,0,0,1,.90039.75h-.00977a.82346.82346,0,0,1-.75.90039h-.07031A.812.812,0,0,1,125.34961,324.30029Zm-.72949-3.2998a.82745.82745,0,0,1,.5-1.06055h0a.82013.82013,0,0,1,1.05957.5h0a.836.836,0,0,1-.5,1.06055h0a.90673.90673,0,0,1-.28028.0498h0A.82553.82553,0,0,1,124.62012,321.00049Z" style="fill: #00bc8b"/>
      <path d="M123.74023,318.35986a.81719.81719,0,0,1-.83007-.8291.82422.82422,0,0,1,1.40918-.58008.79162.79162,0,0,1,.25.58008.86265.86265,0,0,1-.05957.31934.8272.8272,0,0,1-.19043.2705.66533.66533,0,0,1-.25977.17969A.86245.86245,0,0,1,123.74023,318.35986Z" style="fill: #00bc8b"/>
    </g>
    <path d="M123.80562,317.6249a13.75228,13.75228,0,0,0-19.1501-3.39473" style="fill: none"/>
    <path d="M101.26079,333.38027a13.75228,13.75228,0,0,0,19.1501,3.39473" style="fill: none"/>
  </g>
  <g>
    <g>
      <path d="M17.84961,310.8706a.71185.71185,0,0,1-.31934-.07031.7783.7783,0,0,1-.26074-.16992.8334.8334,0,0,1-.25-.58984.71609.71609,0,0,1,.07031-.32032.67978.67978,0,0,1,.17969-.25976.78749.78749,0,0,1,1.16992,0,.68211.68211,0,0,1,.18067.25976.88834.88834,0,0,1,0,.63965.79758.79758,0,0,1-.18067.27051.946.946,0,0,1-.26953.16992A.71591.71591,0,0,1,17.84961,310.8706Z" style="fill: #00bc8b"/>
      <path d="M30.04,317.30029a.82851.82851,0,0,1-.86035-.7998h0a.82061.82061,0,0,1,.7998-.85059h0a.81962.81962,0,0,1,.85059.79h0a.82705.82705,0,0,1-.79.86035Zm-3.79-.36035a.82508.82508,0,0,1-.62988-.98926h0a.82651.82651,0,0,1,1-.62011h0a.82825.82825,0,0,1,.62011.99023h0a.83406.83406,0,0,1-.81054.63965h0A.53882.53882,0,0,1,26.25,316.93994Zm6.5-.81934a.83637.83637,0,0,1,.5498-1.04h0a.8218.8218,0,0,1,1.03028.5498h0a.82387.82387,0,0,1-.54,1.04h0a1.0122,1.0122,0,0,1-.24024.03027h0A.8246.8246,0,0,1,32.75,316.1206Zm-10.07031-.5a.82678.82678,0,0,1-.33985-1.12011h0a.81832.81832,0,0,1,1.11036-.35059h0a.83313.83313,0,0,1,.3496,1.12012h0a.845.845,0,0,1-.73046.45019h0A.78754.78754,0,0,1,22.67969,315.6206Zm-3.09961-2.20019h0a.82447.82447,0,0,1-.04981-1.16992h0a.82477.82477,0,0,1,1.16993-.04981h0l.00976.00977h0a.833.833,0,0,1,.04,1.16992h0a.86659.86659,0,0,1-.61035.25977h0A.83878.83878,0,0,1,19.58008,313.42041Z" style="fill: #00bc8b"/>
      <path d="M36.80957,315.21045a.712.712,0,0,1-.31934-.07031.79468.79468,0,0,1-.2705-.17969.80757.80757,0,0,1-.17969-.25977.8775.8775,0,0,1,0-.64062,1.25821,1.25821,0,0,1,.17969-.26953.97128.97128,0,0,1,.2705-.18067.89176.89176,0,0,1,.63965,0,.98078.98078,0,0,1,.26953.18067.92511.92511,0,0,1,.16993.26953.70314.70314,0,0,1,.07031.32031.7316.7316,0,0,1-.07031.32031.76894.76894,0,0,1-.16993.25977.80032.80032,0,0,1-.26953.17969A.71321.71321,0,0,1,36.80957,315.21045Z" style="fill: #00bc8b"/>
    </g>
    <path d="M41.05451,295.48108a13.75227,13.75227,0,0,0-18.95848-4.339" style="fill: none"/>
    <path d="M22.19025,291.08192a13.75228,13.75228,0,0,0-4.339,18.95848" style="fill: none"/>
    <path d="M36.80975,314.37937a13.75229,13.75229,0,0,0,4.339-18.95848" style="fill: none"/>
  </g>
</svg>
