<svg id="Layer_1" data-name="Layer 1" xmlns="http://www.w3.org/2000/svg" width="195" height="380" viewBox="0 0 195 380">
  <title>black holes - ready-02</title>
  <rect width="195" height="380" style="fill: #e5e5e5"/>
  <g>
    <path d="M108.6,94.2a.8408.8408,0,0,1-.4-1.1h0a.84079.84079,0,0,1,1.1-.4h0a.8408.8408,0,0,1,.4,1.1h0a.752.752,0,0,1-.7.5h0C108.9,94.3,108.8,94.2,108.6,94.2Zm2-4.3a.94759.94759,0,0,1-.5-1.1h0a.94759.94759,0,0,1,1.1-.5h0a1.00537,1.00537,0,0,1,.5,1.1h0a.79183.79183,0,0,1-.8.5h-.3Zm1.7-4.5a.8868.8868,0,0,1-.6-1h0a.88679.88679,0,0,1,1-.6h0a.88678.88678,0,0,1,.6,1h0a.76042.76042,0,0,1-.8.6h-.2Zm1.1-4.6a.77874.77874,0,0,1-.7-.9v-.1h0a.77873.77873,0,0,1,.9-.7h.1a.77872.77872,0,0,1,.7.9h0a.84854.84854,0,0,1-.8.7l-.2.1Zm.6-4.7a.81676.81676,0,0,1-.8-.9h0a.81677.81677,0,0,1,.9-.8h0a.81677.81677,0,0,1,.8.9h0a.88161.88161,0,0,1-.9.8Zm-.6-5.6h0a.78874.78874,0,0,1,.8-.8h0a.78875.78875,0,0,1,.8.8h0a.78874.78874,0,0,1-.8.8h0a.86031.86031,0,0,1-.8-.8Zm-.1-4.8a.87552.87552,0,0,1,.8-.9h0a.87552.87552,0,0,1,.9.8h0a.78874.78874,0,0,1-.8.8h0a.77874.77874,0,0,1-.9-.7Zm.7-4h0" style="fill: #ff4257"/>
    <path d="M114.1,100.3a.71014.71014,0,0,1,.2-1.1h0a.83036.83036,0,0,1,1.2.2h0a.83036.83036,0,0,1-.2,1.2h0a.76387.76387,0,0,1-.5.2h0A1.15725,1.15725,0,0,1,114.1,100.3Zm3.9-2.9a.91987.91987,0,0,1,.1-1.2h0a.81676.81676,0,0,1,1.2.1h0a.91038.91038,0,0,1-.1,1.2h0a.76387.76387,0,0,1-.5.2h0a.77855.77855,0,0,1-.7-.3Zm3.6-3.1a.91014.91014,0,0,1,0-1.2h0a.91013.91013,0,0,1,1.2,0h0a.91014.91014,0,0,1,0,1.2h0a1.42136,1.42136,0,0,1-.6.2h0A1.42132,1.42132,0,0,1,121.6,94.3Zm3.4-3.4a.91015.91015,0,0,1,0-1.2h0a.91015.91015,0,0,1,1.2,0h0a.91037.91037,0,0,1,.1,1.2h0a.86435.86435,0,0,1-.6.3h0a4.87524,4.87524,0,0,1-.7-.3Zm3.2-3.7a.81677.81677,0,0,1-.1-1.2h0a.81676.81676,0,0,1,1.2-.1h0a.81678.81678,0,0,1,.1,1.2h0a.90779.90779,0,0,1-.7.3h0a.76385.76385,0,0,1-.5-.2Zm2.8-3.8a.73138.73138,0,0,1-.2-1.1h0a.722.722,0,0,1,1.1-.2h0a.83036.83036,0,0,1,.2,1.2h0a1.0122,1.0122,0,0,1-.7.4h0c0-.2-.2-.2-.4-.3Zm2.7-4a.80437.80437,0,0,1-.3-1.1h0a.80437.80437,0,0,1,1.1-.3h0a.80437.80437,0,0,1,.3,1.1h0a.66953.66953,0,0,1-.7.4h0c-.1,0-.3-.1-.4-.1Zm2.4-4.2a.84079.84079,0,0,1-.4-1.1h0a.73176.73176,0,0,1,1.1-.3h0a.84078.84078,0,0,1,.4,1.1h0a.56877.56877,0,0,1-.7.4h0c-.2,0-.3-.1-.4-.1Zm2.1-4.3a.84079.84079,0,0,1-.4-1.1h0a.84081.84081,0,0,1,1.1-.4h0a.84078.84078,0,0,1,.4,1.1h0a.79181.79181,0,0,1-.8.5h0a.36738.36738,0,0,0-.3-.1Z" style="fill: #ff4257"/>
  </g>
  <g>
    <path d="M80.5,151.7a.736.736,0,0,1,.8-.8h0a.87552.87552,0,0,1,.9.8h0a.78874.78874,0,0,1-.8.8h0a.81676.81676,0,0,1-.9-.8Zm.8-4a.78874.78874,0,0,1-.8-.8h0a.78874.78874,0,0,1,.8-.8h0a.78874.78874,0,0,1,.8.8h0A.78876.78876,0,0,1,81.3,147.7Zm.1-4.7a.81675.81675,0,0,1-.8-.9h0a.81677.81677,0,0,1,.9-.8h0a.81676.81676,0,0,1,.8.9h0a.96149.96149,0,0,1-.9.8Zm.4-4.8c-.4-.1-.8-.5-.7-.9h0c.1-.4.5-.8.9-.7h0c.4.1.8.5.7.9v.1h0a.84854.84854,0,0,1-.8.7l-.1-.1Zm1-4.6a.88681.88681,0,0,1-.6-1h0a.88681.88681,0,0,1,1-.6h0a.88679.88679,0,0,1,.6,1h0a.76043.76043,0,0,1-.8.6h-.2Zm1.5-4.6a.94759.94759,0,0,1-.5-1.1h0a.94759.94759,0,0,1,1.1-.5h0a1.00538,1.00538,0,0,1,.5,1.1h0a.79182.79182,0,0,1-.8.5h0a.18749.18749,0,0,1-.3,0Zm1.9-4.3a.8408.8408,0,0,1-.4-1.1h0a.84078.84078,0,0,1,1.1-.4h0a.84079.84079,0,0,1,.4,1.1h0a.79183.79183,0,0,1-.8.5h0a.36736.36736,0,0,1-.3-.1Z" style="fill: #ff4257"/>
    <path d="M56.7,148.1a.84081.84081,0,0,1-.4-1.1h0a.84078.84078,0,0,1,1.1-.4h0a.84079.84079,0,0,1,.4,1.1h0a.79181.79181,0,0,1-.8.5h0A.36737.36737,0,0,0,56.7,148.1Zm2-4.4a.84081.84081,0,0,1-.4-1.1h0a.84078.84078,0,0,1,1.1-.4h0a.84079.84079,0,0,1,.4,1.1h0a.66953.66953,0,0,1-.7.4h0c-.2.1-.3.1-.4,0Zm2.3-4.2a.80437.80437,0,0,1-.3-1.1h0a.80437.80437,0,0,1,1.1-.3h0a.80437.80437,0,0,1,.3,1.1h0a.66953.66953,0,0,1-.7.4h0a.601.601,0,0,1-.4-.1Zm2.5-4.1a.73137.73137,0,0,1-.2-1.1h0a.83037.83037,0,0,1,1.2-.2h0a.73138.73138,0,0,1,.2,1.1h0a1.01222,1.01222,0,0,1-.7.4h0c-.2-.1-.3-.1-.5-.2Zm2.8-3.9a.81676.81676,0,0,1-.1-1.2h0a.81678.81678,0,0,1,1.2-.1h0a.92508.92508,0,0,1,.2,1.2h0a.90784.90784,0,0,1-.7.3h0a1.42118,1.42118,0,0,1-.6-.2Zm3.1-3.7a.91014.91014,0,0,1,0-1.2h0a.7847.7847,0,0,1,1.1,0h0a.79194.79194,0,0,1,.1,1.1h0a.86433.86433,0,0,1-.6.3h0a1.42132,1.42132,0,0,1-.6-.2Zm3.3-3.5a.91011.91011,0,0,1,0-1.2h0a.91011.91011,0,0,1,1.2,0h0a.91246.91246,0,0,1,0,1.2h0a1.42128,1.42128,0,0,1-.6.2h0a1.42132,1.42132,0,0,1-.6-.2Zm3.6-3.3a.91988.91988,0,0,1,.1-1.2h0a.823.823,0,0,1,1.2.1h0a.91987.91987,0,0,1-.1,1.2h0a.76385.76385,0,0,1-.5.2h0A.77855.77855,0,0,1,76.3,121Zm3.8-3a.71014.71014,0,0,1,.2-1.1h0a.71013.71013,0,0,1,1.1.2h0a.71014.71014,0,0,1-.2,1.1h0a.76386.76386,0,0,1-.5.2h0C80.5,118.3,80.2,118.2,80.1,118Z" style="fill: #ff4257"/>
  </g>
  <g>
    <path d="M82.1,98.2a.8408.8408,0,0,1-.4-1.1h0a.84079.84079,0,0,1,1.1-.4h0a.8408.8408,0,0,1,.4,1.1h0a.752.752,0,0,1-.7.5h0A.75592.75592,0,0,1,82.1,98.2Zm-4.2-1.9a1.00536,1.00536,0,0,1-.5-1.1h0a.9476.9476,0,0,1,1.1-.5h0a.94759.94759,0,0,1,.5,1.1h0a.79181.79181,0,0,1-.8.5h-.3Zm-4.5-1.6a.88679.88679,0,0,1-.6-1h0a.88679.88679,0,0,1,1-.6h0a.88679.88679,0,0,1,.6,1h0a.76042.76042,0,0,1-.8.6h0C73.6,94.8,73.5,94.8,73.4,94.7Zm-4.5-1a.77874.77874,0,0,1-.7-.9v-.1h0a.77873.77873,0,0,1,.9-.7h.1a.82405.82405,0,0,1,.7,1h0a.84854.84854,0,0,1-.8.7Zm-4.7-.5a.81676.81676,0,0,1-.8-.9h0a.81677.81677,0,0,1,.9-.8h0a.81676.81676,0,0,1,.8.9h0a.81676.81676,0,0,1-.9.8ZM54,92.3a.78874.78874,0,0,1,.8-.8h0a.78874.78874,0,0,1,.8.8h0a.736.736,0,0,1-.8.8h0a.78875.78875,0,0,1-.8-.8Zm5.6.7a.78874.78874,0,0,1-.8-.8h0a.78875.78875,0,0,1,.8-.8h0a.78875.78875,0,0,1,.8.8h0a.78874.78874,0,0,1-.8.8Z" style="fill: #ff4257"/>
    <path d="M88.2,92.2a.83036.83036,0,0,1,.2-1.2h0a.83036.83036,0,0,1,1.2.2h0a.83035.83035,0,0,1-.2,1.2h0c-.1.1-.3.1-.5.2h0A1.61167,1.61167,0,0,1,88.2,92.2Zm-2.9-3.8a.91038.91038,0,0,1,.1-1.2h0a.91038.91038,0,0,1,1.2.1h0a.91987.91987,0,0,1-.1,1.2h0a.76385.76385,0,0,1-.5.2h0A.90783.90783,0,0,1,85.3,88.4Zm-3.1-3.6a.91011.91011,0,0,1,0-1.2h0a.91246.91246,0,0,1,1.2,0h0a.91011.91011,0,0,1,0,1.2h0a1.42128,1.42128,0,0,1-.6.2h0A.48093.48093,0,0,1,82.2,84.8Zm-3.4-3.3a.91037.91037,0,0,1-.1-1.2h0a.9125.9125,0,0,1,1.2,0h0a.91015.91015,0,0,1,0,1.2h0a.86433.86433,0,0,1-.6.3h0A.54993.54993,0,0,1,78.8,81.5Zm-3.7-3a.81676.81676,0,0,1-.1-1.2h0a.81676.81676,0,0,1,1.2-.1h0a.92508.92508,0,0,1,.2,1.2h0a.90781.90781,0,0,1-.7.3h0C75.5,78.6,75.3,78.6,75.1,78.5Zm-3.8-2.9h0a.83036.83036,0,0,1-.2-1.2h0a.83036.83036,0,0,1,1.2-.2h0a.83037.83037,0,0,1,.2,1.2h0a1.0122,1.0122,0,0,1-.7.4h0A.76385.76385,0,0,1,71.3,75.6Zm-4-2.5A.80436.80436,0,0,1,67,72h0a.80436.80436,0,0,1,1.1-.3h0a.80436.80436,0,0,1,.3,1.1h0a.66954.66954,0,0,1-.7.4h0c-.1,0-.3-.1-.4-.1Zm-4.2-2.4a.8408.8408,0,0,1-.4-1.1h0a.8408.8408,0,0,1,1.1-.4h0a.73175.73175,0,0,1,.3,1.1h0a.66954.66954,0,0,1-.7.4h0c0,.1-.2.1-.3,0Zm-4.3-2h0a.8408.8408,0,0,1-.4-1.1h0a.8408.8408,0,0,1,1.1-.4h0a.8408.8408,0,0,1,.4,1.1h0a.79182.79182,0,0,1-.8.5h0a.36737.36737,0,0,1-.3-.1Z" style="fill: #ff4257"/>
  </g>
  <g>
    <path d="M135.2,125.2a.78874.78874,0,0,1,.8-.8h0a.78875.78875,0,0,1,.8.8h0a.78873.78873,0,0,1-.8.8h0A.736.736,0,0,1,135.2,125.2Zm4.7,0a.87552.87552,0,0,1,.8-.9h0a.8755.8755,0,0,1,.9.8h0a.87552.87552,0,0,1-.8.9h0a.88162.88162,0,0,1-.9-.8Zm-8.7.7a.81677.81677,0,0,1-.8-.9h0a.81676.81676,0,0,1,.9-.8h0a.81676.81676,0,0,1,.8.9h0a.8755.8755,0,0,1-.9.8Zm-4.8-.5h0a.77874.77874,0,0,1-.7-.9h0a.77874.77874,0,0,1,.9-.7h.1a.77873.77873,0,0,1,.7.9v.1h0a.84854.84854,0,0,1-.8.7l-.2-.1Zm-4.8-1.1h0a.88679.88679,0,0,1-.6-1h0a.8868.8868,0,0,1,1-.6h0a.88679.88679,0,0,1,.6,1h0a.76041.76041,0,0,1-.8.6h-.2Zm-4.5-1.6a.94759.94759,0,0,1-.5-1.1h0a1.00537,1.00537,0,0,1,1.1-.5h0a.94759.94759,0,0,1,.5,1.1h0a.79183.79183,0,0,1-.8.5h0c-.1.1-.2,0-.3,0Zm-4.4-2a.8408.8408,0,0,1-.4-1.1h0a.84078.84078,0,0,1,1.1-.4h0a.84079.84079,0,0,1,.4,1.1h0a.63217.63217,0,0,1-.8.4h0a.18749.18749,0,0,1-.3,0Z" style="fill: #ff4257"/>
    <path d="M136.1,150.2h0a.8408.8408,0,0,1-.4-1.1h0a.84079.84079,0,0,1,1.1-.4h0a.84079.84079,0,0,1,.4,1.1h0a.7918.7918,0,0,1-.8.5h0A.36735.36735,0,0,1,136.1,150.2Zm-4.4-2.1a.8408.8408,0,0,1-.4-1.1h0a.84079.84079,0,0,1,1.1-.4h0a.84078.84078,0,0,1,.4,1.1h0a.56875.56875,0,0,1-.7.4h0C131.9,148.2,131.8,148.2,131.7,148.1Zm-4.3-2.3h0a.80436.80436,0,0,1-.3-1.1h0a.80437.80437,0,0,1,1.1-.3h0a.80438.80438,0,0,1,.3,1.1h0a.84182.84182,0,0,1-.7.4h0C127.7,145.9,127.5,145.8,127.4,145.8Zm-4.1-2.7a.73137.73137,0,0,1-.2-1.1h0a.73137.73137,0,0,1,1.1-.2h0a.73137.73137,0,0,1,.2,1.1h0a1.01219,1.01219,0,0,1-.7.4h0C123.6,143.3,123.5,143.2,123.3,143.1Zm-3.9-2.8a.81675.81675,0,0,1-.1-1.2h0a.81677.81677,0,0,1,1.2-.1h0a.92509.92509,0,0,1,.2,1.2h0a.90786.90786,0,0,1-.7.3h0C119.7,140.4,119.5,140.4,119.4,140.3Zm-3.7-3.2a.91036.91036,0,0,1-.1-1.2h0a.91039.91039,0,0,1,1.2-.1h0a.91015.91015,0,0,1,0,1.2h0a.86435.86435,0,0,1-.6.3h0A.76389.76389,0,0,1,115.7,137.1Zm-3.5-3.4h0a.91013.91013,0,0,1,0-1.2h0a.91014.91014,0,0,1,1.2,0h0a.91013.91013,0,0,1,0,1.2h0a1.42126,1.42126,0,0,1-.6.2h0c-.3,0-.5,0-.6-.2Zm-3.3-3.6a.91037.91037,0,0,1,.1-1.2h0a.91036.91036,0,0,1,1.2.1h0a.91037.91037,0,0,1-.1,1.2h0a.7638.7638,0,0,1-.5.2h0a.90793.90793,0,0,1-.7-.3Zm-3-3.9a.83037.83037,0,0,1,.2-1.2h0a.83037.83037,0,0,1,1.2.2h0a.83036.83036,0,0,1-.2,1.2h0a.76385.76385,0,0,1-.5.2h0a2.5062,2.5062,0,0,1-.7-.4Z" style="fill: #ff4257"/>
  </g>
  <g>
    <path d="M108.6,257.7a.8408.8408,0,0,1-.4-1.1h0a.84078.84078,0,0,1,1.1-.4h0a.84082.84082,0,0,1,.4,1.1h0a.752.752,0,0,1-.7.5h0A.75645.75645,0,0,1,108.6,257.7Zm2-4.3a1.00536,1.00536,0,0,1-.5-1.1h0a.94758.94758,0,0,1,1.1-.5h0a.94758.94758,0,0,1,.5,1.1h0a.79181.79181,0,0,1-.8.5h0c-.1.1-.2,0-.3,0Zm1.7-4.5a.8868.8868,0,0,1-.6-1h0a.88681.88681,0,0,1,1-.6h0a.88678.88678,0,0,1,.6,1h0a.76043.76043,0,0,1-.8.6h0c-.1.1-.2.1-.2,0Zm1.1-4.6a.82406.82406,0,0,1-.7-1h0a.77873.77873,0,0,1,.9-.7h.1a.77872.77872,0,0,1,.7.9h0a.84855.84855,0,0,1-.8.7l-.2.1Zm.6-4.7a.81676.81676,0,0,1-.8-.9h0a.81676.81676,0,0,1,.9-.8h0a.81675.81675,0,0,1,.8.9h0a.81677.81677,0,0,1-.9.8Zm-.6-5.6h0a.78874.78874,0,0,1,.8-.8h0a.78874.78874,0,0,1,.8.8h0a.78874.78874,0,0,1-.8.8h0a.78874.78874,0,0,1-.8-.8Zm-.1-4.7a.736.736,0,0,1,.8-.8h0a.87552.87552,0,0,1,.9.8h0a.87552.87552,0,0,1-.8.9h0a1.18216,1.18216,0,0,1-.9-.9Z" style="fill: #ff4257"/>
    <path d="M114.1,263.9a.83038.83038,0,0,1,.2-1.2h0a.83035.83035,0,0,1,1.2.2h0a.83039.83039,0,0,1-.2,1.2h0a.74937.74937,0,0,1-.5.1h0A.90778.90778,0,0,1,114.1,263.9ZM118,261a.91038.91038,0,0,1,.1-1.2h0a.91037.91037,0,0,1,1.2.1h0a.91041.91041,0,0,1-.1,1.2h0a.76387.76387,0,0,1-.5.2h0A.90791.90791,0,0,1,118,261Zm3.6-3.2a.91016.91016,0,0,1,0-1.2h0a.91017.91017,0,0,1,1.2,0h0a.91016.91016,0,0,1,0,1.2h0a1.42138,1.42138,0,0,1-.6.2h0c-.2.1-.4,0-.6-.2Zm3.4-3.4a.91035.91035,0,0,1-.1-1.2h0a.91037.91037,0,0,1,1.2-.1h0a.91037.91037,0,0,1,.1,1.2h0a.86437.86437,0,0,1-.6.3h0c-.2.1-.4,0-.6-.2Zm3.2-3.6a.81676.81676,0,0,1-.1-1.2h0a.92509.92509,0,0,1,1.2-.2h0a.81678.81678,0,0,1,.1,1.2h0a.90783.90783,0,0,1-.7.3h0a.43977.43977,0,0,1-.5-.1Zm2.9-3.9a.73137.73137,0,0,1-.2-1.1h0a.73138.73138,0,0,1,1.1-.2h0a.83036.83036,0,0,1,.2,1.2h0a1.01218,1.01218,0,0,1-.7.4h0c-.1-.1-.3-.2-.4-.3Zm2.6-4a.80437.80437,0,0,1-.3-1.1h0a.80438.80438,0,0,1,1.1-.3h0a.80438.80438,0,0,1,.3,1.1h0a1.01215,1.01215,0,0,1-.7.4h0a.60106.60106,0,0,1-.4-.1Zm2.4-4.1a.84078.84078,0,0,1-.4-1.1h0a.8408.8408,0,0,1,1.1-.4h0a.8408.8408,0,0,1,.4,1.1h0a.66952.66952,0,0,1-.7.4h-.4Zm2.1-4.4a.84078.84078,0,0,1-.4-1.1h0a.8408.8408,0,0,1,1.1-.4h0a.84079.84079,0,0,1,.4,1.1h0a.79181.79181,0,0,1-.8.5h0c-.1,0-.2-.1-.3-.1Z" style="fill: #ff4257"/>
  </g>
  <g>
    <path d="M80.5,315.3a.87553.87553,0,0,1,.8-.9h0a.8755.8755,0,0,1,.9.8h0a.9615.9615,0,0,1-.8.9h0A.88157.88157,0,0,1,80.5,315.3Zm.8-4a.78874.78874,0,0,1-.8-.8h0a.78873.78873,0,0,1,.8-.8h0a.78875.78875,0,0,1,.8.8h0A.86033.86033,0,0,1,81.3,311.3Zm.1-4.8a.81675.81675,0,0,1-.8-.9h0a.81675.81675,0,0,1,.9-.8h0a.81675.81675,0,0,1,.8.9h0a.87551.87551,0,0,1-.9.8Zm.4-4.7a.8967.8967,0,0,1-.7-1h0a.77875.77875,0,0,1,.9-.7h0c.4.1.8.5.7.9h0a.84856.84856,0,0,1-.8.7l-.1.1Zm1-4.7a.88681.88681,0,0,1-.6-1h0a.88679.88679,0,0,1,1-.6h0a.88679.88679,0,0,1,.6,1h0a.76043.76043,0,0,1-.8.6h-.2Zm1.5-4.5a1.0054,1.0054,0,0,1-.5-1.1h0a1.00537,1.00537,0,0,1,1.1-.5h0a1.00539,1.00539,0,0,1,.5,1.1h0a.79185.79185,0,0,1-.8.5h-.3Zm1.9-4.4a.8408.8408,0,0,1-.4-1.1h0a.84077.84077,0,0,1,1.1-.4h0a.84082.84082,0,0,1,.4,1.1h0a.79185.79185,0,0,1-.8.5h0a.36753.36753,0,0,1-.3-.1Z" style="fill: #ff4257"/>
    <path d="M56.7,311.6a.84082.84082,0,0,1-.4-1.1h0a.84078.84078,0,0,1,1.1-.4h0a.8408.8408,0,0,1,.4,1.1h0a.79183.79183,0,0,1-.8.5h0A.36737.36737,0,0,1,56.7,311.6Zm2-4.3a.84081.84081,0,0,1-.4-1.1h0a.84079.84079,0,0,1,1.1-.4h0a.8408.8408,0,0,1,.4,1.1h0a.752.752,0,0,1-.7.5h0a.75592.75592,0,0,0-.4-.1ZM61,303a.80438.80438,0,0,1-.3-1.1h0a.80435.80435,0,0,1,1.1-.3h0a.80437.80437,0,0,1,.3,1.1h0a.84181.84181,0,0,1-.7.4h0A.60118.60118,0,0,1,61,303Zm2.6-4.1a.73137.73137,0,0,1-.2-1.1h0a.83038.83038,0,0,1,1.2-.2h0a.83037.83037,0,0,1,.2,1.2h0a1.01217,1.01217,0,0,1-.7.4h0a2.18447,2.18447,0,0,1-.5-.3Zm2.8-3.9a.81677.81677,0,0,1-.1-1.2h0a.81677.81677,0,0,1,1.2-.1h0a.92509.92509,0,0,1,.2,1.2h0a.90775.90775,0,0,1-.7.3h0a.84518.84518,0,0,1-.6-.2Zm3-3.7a.91016.91016,0,0,1,0-1.2h0a.792.792,0,0,1,1.1-.1h0a.91038.91038,0,0,1,.1,1.2h0a.86428.86428,0,0,1-.6.3h0a1.42086,1.42086,0,0,1-.6-.2Zm3.3-3.5a.91014.91014,0,0,1,0-1.2h0a.91016.91016,0,0,1,1.2,0h0a.91014.91014,0,0,1,0,1.2h0a1.4213,1.4213,0,0,1-.6.2h0a.73471.73471,0,0,1-.6-.2Zm3.6-3.2a.91041.91041,0,0,1,.1-1.2h0a.91037.91037,0,0,1,1.2.1h0a.91038.91038,0,0,1-.1,1.2h0a.7638.7638,0,0,1-.5.2h0a.908.908,0,0,1-.7-.3Zm3.8-3a.83039.83039,0,0,1,.2-1.2h0a.83035.83035,0,0,1,1.2.2h0a.83038.83038,0,0,1-.2,1.2h0a.74937.74937,0,0,1-.5.1h0a.77867.77867,0,0,1-.7-.3Z" style="fill: #ff4257"/>
  </g>
  <g>
    <path d="M82.1,261.7h0a.8408.8408,0,0,1-.4-1.1h0a.84078.84078,0,0,1,1.1-.4h0a.84082.84082,0,0,1,.4,1.1h0a.752.752,0,0,1-.7.5h0A.75645.75645,0,0,1,82.1,261.7Zm-4.2-1.9h0a1.00539,1.00539,0,0,1-.5-1.1h0a.9476.9476,0,0,1,1.1-.5h0a1.00539,1.00539,0,0,1,.5,1.1h0a.79183.79183,0,0,1-.8.5h0a.1875.1875,0,0,1-.3,0Zm-4.5-1.5a.8868.8868,0,0,1-.6-1h0a.8868.8868,0,0,1,1-.6h0a.8868.8868,0,0,1,.6,1h0a.87111.87111,0,0,1-.8.6h-.2Zm-4.5-1a.89671.89671,0,0,1-.7-1h0a.77873.77873,0,0,1,.9-.7h.1a.77873.77873,0,0,1,.7.9h0a.84856.84856,0,0,1-.8.7l-.2.1Zm-4.7-.6a.81675.81675,0,0,1-.8-.9h0a.81676.81676,0,0,1,.9-.8h0a.81675.81675,0,0,1,.8.9h0a.76545.76545,0,0,1-.9.8ZM54,255.8a.736.736,0,0,1,.8-.8h0a.87552.87552,0,0,1,.9.8h0a.87554.87554,0,0,1-.8.9h0a.89627.89627,0,0,1-.9-.9Zm5.6.8a.78874.78874,0,0,1-.8-.8h0a.78874.78874,0,0,1,.8-.8h0a.78873.78873,0,0,1,.8.8h0A.86031.86031,0,0,1,59.6,256.6Z" style="fill: #ff4257"/>
    <path d="M88.2,255.7a.71015.71015,0,0,1,.2-1.1h0a.71014.71014,0,0,1,1.1.2h0a.71014.71014,0,0,1-.2,1.1h0a.76383.76383,0,0,1-.5.2h0A2.09244,2.09244,0,0,1,88.2,255.7Zm-2.9-3.8a.91037.91037,0,0,1,.1-1.2h0a.91036.91036,0,0,1,1.2.1h0a.792.792,0,0,1-.1,1.1h0a.7638.7638,0,0,1-.5.2h0a.61834.61834,0,0,1-.7-.2Zm-3.1-3.5h0a.91011.91011,0,0,1,0-1.2h0a.91246.91246,0,0,1,1.2,0h0a.91011.91011,0,0,1,0,1.2h0a1.42114,1.42114,0,0,1-.6.2h0A1.07191,1.07191,0,0,1,82.2,248.4Zm-3.4-3.3a.91037.91037,0,0,1-.1-1.2h0a.9125.9125,0,0,1,1.2,0h0a.91015.91015,0,0,1,0,1.2h0a.86437.86437,0,0,1-.6.3h0A2.18661,2.18661,0,0,1,78.8,245.1ZM75.1,242a.81676.81676,0,0,1-.1-1.2h0a.81678.81678,0,0,1,1.2-.1h0a.92506.92506,0,0,1,.2,1.2h0a.90782.90782,0,0,1-.7.3h0A1.42118,1.42118,0,0,1,75.1,242Zm-3.8-2.8a.73137.73137,0,0,1-.2-1.1h0a.73137.73137,0,0,1,1.1-.2h0a.73137.73137,0,0,1,.2,1.1h0a1.01219,1.01219,0,0,1-.7.4h0c-.1-.1-.3-.1-.4-.2Zm-4-2.6a.80437.80437,0,0,1-.3-1.1h0a.80437.80437,0,0,1,1.1-.3h0a.80436.80436,0,0,1,.3,1.1h0a.75488.75488,0,0,1-.7.4h0a.60128.60128,0,0,1-.4-.1Zm-4.2-2.3a.84079.84079,0,0,1-.4-1.1h0a.84079.84079,0,0,1,1.1-.4h0a.73177.73177,0,0,1,.3,1.1h0a.56876.56876,0,0,1-.7.4h0c0,.1-.2,0-.3,0Zm-4.3-2h0a.84079.84079,0,0,1-.4-1.1h0a.84079.84079,0,0,1,1.1-.4h0a.84081.84081,0,0,1,.4,1.1h0a.79182.79182,0,0,1-.8.5h0a.36734.36734,0,0,0-.3-.1Z" style="fill: #ff4257"/>
  </g>
  <g>
    <path d="M135.2,288.7a.78872.78872,0,0,1,.8-.8h0a.78874.78874,0,0,1,.8.8h0a.78872.78872,0,0,1-.8.8h0c-.5.1-.8-.3-.8-.8Zm4.7,0a.96148.96148,0,0,1,.8-.9h0a.8755.8755,0,0,1,.9.8h0a.87552.87552,0,0,1-.8.9h0a.9615.9615,0,0,1-.9-.8Zm-8.7.7a.81676.81676,0,0,1-.8-.9h0a.81675.81675,0,0,1,.9-.8h0a.81676.81676,0,0,1,.8.9h0a.87549.87549,0,0,1-.9.8Zm-4.8-.5h0a.82406.82406,0,0,1-.7-1h0a.82408.82408,0,0,1,1-.7h0a.8967.8967,0,0,1,.7,1h0a.84855.84855,0,0,1-.8.7Zm-4.8-1.1h0a.8868.8868,0,0,1-.6-1h0a.7469.7469,0,0,1,1-.5h0a.88679.88679,0,0,1,.6,1h0a.76043.76043,0,0,1-.8.6h0c0-.1-.1-.1-.2-.1Zm-4.5-1.6h0a.94759.94759,0,0,1-.5-1.1h0a.94758.94758,0,0,1,1.1-.5h0a.94759.94759,0,0,1,.5,1.1h0a.79184.79184,0,0,1-.8.5h-.3Zm-4.4-2h0a.8408.8408,0,0,1-.4-1.1h0a.84077.84077,0,0,1,1.1-.4h0a.84082.84082,0,0,1,.4,1.1h0a.79185.79185,0,0,1-.8.5h0a.36753.36753,0,0,1-.3-.1Z" style="fill: #ff4257"/>
    <path d="M136.1,313.8h0a.8408.8408,0,0,1-.4-1.1h0a.8408.8408,0,0,1,1.1-.4h0a.8408.8408,0,0,1,.4,1.1h0a.79182.79182,0,0,1-.8.5h0A.36739.36739,0,0,0,136.1,313.8Zm-4.4-2.1a.84079.84079,0,0,1-.4-1.1h0a.8408.8408,0,0,1,1.1-.4h0a.8408.8408,0,0,1,.4,1.1h0c-.1.3-.4.4-.7.5h0C131.9,311.8,131.8,311.7,131.7,311.7Zm-4.3-2.4a.80438.80438,0,0,1-.3-1.1h0a.80436.80436,0,0,1,1.1-.3h0a.80439.80439,0,0,1,.3,1.1h0a1.01213,1.01213,0,0,1-.7.4h0a.60123.60123,0,0,1-.4-.1Zm-4.1-2.6a.73136.73136,0,0,1-.2-1.1h0a.73138.73138,0,0,1,1.1-.2h0a.73137.73137,0,0,1,.2,1.1h0a1.01215,1.01215,0,0,1-.7.4h0C123.6,306.8,123.4,306.8,123.3,306.7Zm-3.9-2.9a.81677.81677,0,0,1-.1-1.2h0a.81677.81677,0,0,1,1.2-.1h0a.92509.92509,0,0,1,.2,1.2h0a.90779.90779,0,0,1-.7.3h0a.84522.84522,0,0,1-.6-.2Zm-3.7-3.1a.91037.91037,0,0,1-.1-1.2h0a.81516.81516,0,0,1,1.2,0h0a.91016.91016,0,0,1,0,1.2h0a.86429.86429,0,0,1-.6.3h0a2.187,2.187,0,0,1-.5-.3Zm-3.5-3.4a.91014.91014,0,0,1,0-1.2h0a.91016.91016,0,0,1,1.2,0h0a.91014.91014,0,0,1,0,1.2h0a.73469.73469,0,0,1-.6.2h0a.84535.84535,0,0,1-.6-.2Zm-3.3-3.7h0a.9104.9104,0,0,1,.1-1.2h0a.91037.91037,0,0,1,1.2.1h0a.91039.91039,0,0,1-.1,1.2h0c-.2.1-.3.2-.5.2h0a.908.908,0,0,1-.7-.3Zm-3-3.8h0a.71016.71016,0,0,1,.2-1.1h0a.83036.83036,0,0,1,1.2.2h0a.8304.8304,0,0,1-.2,1.2h0a.76385.76385,0,0,1-.5.2h0a3.03873,3.03873,0,0,0-.7-.5Z" style="fill: #ff4257"/>
  </g>
  <path d="M41.9,7.1h3a2.03515,2.03515,0,0,1,1.5.6A2.271,2.271,0,0,1,47,9.3a2.20185,2.20185,0,0,1-.1.8c.1.1.3.2.4.3h0a2.50414,2.50414,0,0,1,.8,1.8,2.732,2.732,0,0,1-2.7,2.7H41.9Zm3,2.6a.45078.45078,0,0,0,.3-.3c0-.1-.2-.4-.3-.4H43.8v.7Zm.5,3.4a.78874.78874,0,0,0,.8-.8.77283.77283,0,0,0-.8-.7H43.8v1.5Z" style="fill: #1d1d1b"/>
  <path d="M52.7,7.1h1.9v6h3.7V15H52.6V7.1Z" style="fill: #1d1d1b"/>
  <path d="M67.3,13.2H65.1L64.4,15h-2l3-7.9H67L70,15H68Zm-1.1-3-.4,1.1h.7Z" style="fill: #1d1d1b"/>
  <path d="M79.8,12.1l1.5,1.1a4.19685,4.19685,0,0,1-7.7-2,4.06077,4.06077,0,0,1,3.9-4.3h.4a4.19385,4.19385,0,0,1,3.5,1.9L79.9,9.9A2.47017,2.47017,0,0,0,78,8.7a2.2,2.2,0,0,0,0,4.4A2.56128,2.56128,0,0,0,79.8,12.1Z" style="fill: #1d1d1b"/>
  <path d="M88.6,11.3c-.3.2-.5.5-.9.8V15H85.8V7.1h1.9V9.5l2.6-2.4H93L90,9.9l3.6,5H91.2Z" style="fill: #1d1d1b"/>
  <path d="M108.3,11.6h-2.4V15H104V7.1h1.9V9.7h2.4V7.1h1.9V15h-1.9Z" style="fill: #1d1d1b"/>
  <path d="M122.9,11a4.1,4.1,0,1,1-4.1-4.1A4.11833,4.11833,0,0,1,122.9,11Zm-2,0a2.2,2.2,0,1,0-2.2,2.2A2.15637,2.15637,0,0,0,120.9,11Z" style="fill: #1d1d1b"/>
  <path d="M127.5,7.1h1.9v6h3.7V15h-5.6Z" style="fill: #1d1d1b"/>
  <path d="M137.9,7.1h5.4V9h-3.4v.7h3v1.9h-3v1.5h3.4V15H138V7.1Z" style="fill: #1d1d1b"/>
  <path d="M150.1,14.9a6.00263,6.00263,0,0,1-2.5-1.3l1.3-1.4a2.59837,2.59837,0,0,0,1.6.9.60119.60119,0,0,1,.4.1,1.26842,1.26842,0,0,0,.6-.1.66442.66442,0,0,0,.4-.5c0-.3-.6-.5-1.1-.6a8.44674,8.44674,0,0,1-1.7-.5,2.11053,2.11053,0,0,1-1.1-2,2.83621,2.83621,0,0,1,.4-1.3,2.53958,2.53958,0,0,1,1-.8h0a3.07929,3.07929,0,0,1,1.3-.3,1.26838,1.26838,0,0,1,.6.1,5.66679,5.66679,0,0,1,2.3,1.2l-1.2,1.5a2.49116,2.49116,0,0,0-1.7-.8.90153.90153,0,0,0-.5.1c-.2.1-.3.2-.3.4,0,.3.4.4,1,.6h.2a4.42374,4.42374,0,0,1,1.5.5h0a2.19972,2.19972,0,0,1,1.2,2,2.296,2.296,0,0,1-.4,1.4,1.77921,1.77921,0,0,1-1.1.8,3.194,3.194,0,0,1-1.4.3A2.61411,2.61411,0,0,0,150.1,14.9Z" style="fill: #1d1d1b"/>
  <path d="M53.3,25c0,1.5-.6,2.3-2.2,2.3-1,0-1.9-.4-2-1.5h.6a1.17431,1.17431,0,0,0,1.4,1c1.1,0,1.6-.6,1.6-1.8v-.6h0a1.75064,1.75064,0,0,1-1.5,1c-1.5,0-2.2-1.1-2.2-2.5a2.22976,2.22976,0,0,1,2-2.4h.2a1.53926,1.53926,0,0,1,1.5,1h0v-.8h.6Zm-.5-2c0-1-.4-2-1.6-2s-1.6,1-1.6,2,.5,1.9,1.6,1.9A1.71363,1.71363,0,0,0,52.8,23Z" style="fill: #1d1d1b"/>
  <path d="M54.5,20.6H55v1.1h0a1.71161,1.71161,0,0,1,1.8-1.2v.6A1.66928,1.66928,0,0,0,55,22.6v2.8h-.6Z" style="fill: #1d1d1b"/>
  <path d="M57.4,22.1c.1-1.1.8-1.6,2-1.6.9,0,1.8.3,1.8,1.5v2.6c0,.2.1.3.3.4h.3v.5h-.4c-.6,0-.7-.3-.7-.9h0a1.8121,1.8121,0,0,1-1.8,1c-.9,0-1.6-.4-1.6-1.4,0-1.4,1.3-1.4,2.6-1.6.5,0,.8-.1.8-.6,0-.8-.6-1-1.3-1s-1.4.3-1.4,1.1Zm3.1.7h0c0,.1-.3.2-.5.2-1,.2-2.3.2-2.3,1.1a1.00209,1.00209,0,0,0,1,1h0a1.56891,1.56891,0,0,0,1.7-1.4v-.1Z" style="fill: #1d1d1b"/>
  <path d="M61.8,20.6h.7L64,24.9h0l1.5-4.3h.6l-1.8,4.8h-.6Z" style="fill: #1d1d1b"/>
  <path d="M66.7,18.7h.6v1h-.6Zm0,1.9h.6v4.8h-.6Z" style="fill: #1d1d1b"/>
  <path d="M69.3,20.6h1v.5h-1v3.3c0,.4.1.6.5.6h.5v.5h-.5c-.8,0-1.1-.3-1.1-1.1V21.1h-.8v-.5h.8V19.1h.6Z" style="fill: #1d1d1b"/>
  <path d="M71.1,22.1c0-1.1.8-1.6,2-1.6.8,0,1.8.3,1.8,1.5v2.6c0,.2.1.3.3.4h.3v.5h-.4c-.6,0-.7-.3-.7-.9h0a1.8121,1.8121,0,0,1-1.8,1c-.9,0-1.6-.4-1.6-1.4,0-1.4,1.3-1.4,2.6-1.6.5,0,.8-.1.8-.6,0-.8-.6-1-1.3-1s-1.3.3-1.3,1.1Zm3.2.7h0a.76385.76385,0,0,1-.5.2c-1,.2-2.3.2-2.3,1.1a1.00209,1.00209,0,0,0,1,1h0a1.56891,1.56891,0,0,0,1.7-1.4v-.1Z" style="fill: #1d1d1b"/>
  <path d="M77,20.6h1v.5H77v3.3c0,.4.1.6.5.6H78v.5h-.5c-.8,0-1.1-.3-1-1.1V21.1h-.8v-.5h.8V19.1H77Z" style="fill: #1d1d1b"/>
  <path d="M78.8,18.7h.6v1h-.6Zm0,1.9h.6v4.8h-.6Z" style="fill: #1d1d1b"/>
  <path d="M84.9,23a2.30868,2.30868,0,0,1-4.6.4V23a2.30868,2.30868,0,0,1,4.6-.4Zm-4,0a1.72627,1.72627,0,0,0,3.4.6V23a1.72627,1.72627,0,0,0-3.4-.6Z" style="fill: #1d1d1b"/>
  <path d="M85.8,20.6h.6v.8h0a1.78137,1.78137,0,0,1,1.6-1c1.4,0,1.8.7,1.8,1.9v3.1h-.6v-3c0-.8-.3-1.5-1.2-1.5a1.49871,1.49871,0,0,0-1.5,1.6v2.9h-.6Z" style="fill: #1d1d1b"/>
  <path d="M90.8,22.1c0-1.1.8-1.6,2-1.6.8,0,1.8.3,1.8,1.5v2.6c0,.2.1.3.3.4h.3v.5h-.4c-.6,0-.7-.3-.7-.9h0a1.81211,1.81211,0,0,1-1.8,1c-.9,0-1.6-.4-1.6-1.4,0-1.4,1.3-1.4,2.6-1.6.5,0,.8-.1.8-.6,0-.8-.6-1-1.3-1s-1.3.3-1.3,1.1Zm3.1.7h0a.76385.76385,0,0,1-.5.2c-1,.2-2.3.2-2.3,1.1a1.00209,1.00209,0,0,0,1,1h0a1.56891,1.56891,0,0,0,1.7-1.4v-.1Z" style="fill: #1d1d1b"/>
  <path d="M95.7,18.7h.6v6.7h-.6Z" style="fill: #1d1d1b"/>
  <path d="M100,22.1c.1-1.1.8-1.6,2-1.6.8,0,1.8.3,1.8,1.5v2.6c0,.2.1.3.3.4h.3v.5H104c-.6,0-.7-.3-.7-.9h0a1.8121,1.8121,0,0,1-1.8,1c-.9,0-1.6-.4-1.6-1.4,0-1.4,1.3-1.4,2.6-1.6.5,0,.8-.1.8-.6,0-.8-.6-1-1.3-1s-1.3.3-1.3,1.1Zm3.2.7h0a.76387.76387,0,0,1-.5.2c-1,.2-2.3.2-2.3,1.1a1.00209,1.00209,0,0,0,1,1h0a1.56891,1.56891,0,0,0,1.7-1.4v-.1Z" style="fill: #1d1d1b"/>
  <path d="M105.9,20.6h1v.5h-1v3.3c0,.4,0,.6.5.6h.5v.5h-.5c-.8,0-1.1-.3-1.1-1.1V21.1h-.8v-.5h.8V19.1h.6Z" style="fill: #1d1d1b"/>
  <path d="M108.6,20.6h1v.5h-1v3.3c0,.4.1.6.5.6h.5v.5h-.5c-.8,0-1-.3-1-1.1V21.1h-.8v-.5h.7V19.1h.6Z" style="fill: #1d1d1b"/>
  <path d="M110.8,23.2a1.76543,1.76543,0,0,0,1.5,1.9h.1a1.5075,1.5075,0,0,0,1.5-1.2h.6a1.97859,1.97859,0,0,1-2.1,1.7c-1.5,0-2.2-1.2-2.2-2.6s.7-2.6,2.2-2.6a2.27854,2.27854,0,0,1,2.1,2.7h-3.7Zm3.2-.5a1.5258,1.5258,0,0,0-1.5-1.7h0a1.73482,1.73482,0,0,0-1.6,1.7Z" style="fill: #1d1d1b"/>
  <path d="M115.3,20.6h.6v.8h0a1.78137,1.78137,0,0,1,1.6-1c1.4,0,1.8.7,1.8,1.9v3.1h-.6v-3c0-.8-.3-1.5-1.2-1.5a1.538,1.538,0,0,0-1.5,1.5v2.9h-.6Z" style="fill: #1d1d1b"/>
  <path d="M124.3,25.4h-.5v-.9h0a1.93563,1.93563,0,0,1-1.7,1c-1.2,0-1.7-.7-1.7-1.8V20.6h.6v3.1c0,.9.4,1.3,1.3,1.3s1.4-1,1.4-1.9V20.6h.6Z" style="fill: #1d1d1b"/>
  <path d="M125.4,20.6h.6v.8h0a1.78137,1.78137,0,0,1,1.6-1,1.41577,1.41577,0,0,1,1.4.9,1.49107,1.49107,0,0,1,1.5-.9c1.1,0,1.6.5,1.6,1.7v3.3h-.6V22.1c0-.8-.3-1.2-1.1-1.2-1,0-1.3.9-1.3,1.8v2.7h-.6V22.1c0-.6-.3-1.2-1-1.2-1,0-1.4.8-1.4,1.8v2.7h-.6Z" style="fill: #1d1d1b"/>
  <path d="M133.3,18.7h.6v1h-.6Zm0,1.9h.6v4.8h-.6Z" style="fill: #1d1d1b"/>
  <path d="M136.3,22.9l-1.7-2.3h.7l1.4,1.8,1.4-1.8h.7l-1.7,2.3,1.9,2.5h-.8l-1.5-2-1.5,2h-.7Z" style="fill: #1d1d1b"/>
  <path d="M139.9,23.2a1.76544,1.76544,0,0,0,1.5,1.9h.1a1.35707,1.35707,0,0,0,1.5-1.2h.6a1.97861,1.97861,0,0,1-2.1,1.7c-1.5,0-2.2-1.2-2.2-2.6s.6-2.6,2.2-2.6,2.2,1.4,2.1,2.7h-3.7Zm3.1-.5a1.5258,1.5258,0,0,0-1.5-1.7h0a1.73484,1.73484,0,0,0-1.6,1.7Z" style="fill: #1d1d1b"/>
  <path d="M144.4,20.6h.5v1.1h0a1.71162,1.71162,0,0,1,1.8-1.2v.6a1.66929,1.66929,0,0,0-1.8,1.5v2.8h-.6Z" style="fill: #1d1d1b"/>
  <path d="M32.2,153.5a3.70805,3.70805,0,0,1,1.4.4l.1.1-.4.7-.1-.1a1.68938,1.68938,0,0,0-1-.3h-.3c-.1,0-.3.1-.4.1a.36527.36527,0,0,0-.2.5q0,.15.3.3a1.26834,1.26834,0,0,0,.6.1,3.4016,3.4016,0,0,1,1,.1.99846.99846,0,0,1,.5.4,3.32925,3.32925,0,0,1,.3.6,1.70178,1.70178,0,0,1-.1.7,1.20514,1.20514,0,0,1-.5.5,4.87637,4.87637,0,0,1-.7.3h-.3a2.3755,2.3755,0,0,1-1.2-.3l-.1-.1.4-.7.1.1a1.23159,1.23159,0,0,0,1,.2c.1,0,.2-.1.3-.1a.51955.51955,0,0,0,.2-.4c0-.1-.1-.2-.2-.3a1.26834,1.26834,0,0,0-.6-.1h-.1a2.7683,2.7683,0,0,1-.9-.1.99846.99846,0,0,1-.5-.4l-.3-.6a1.12843,1.12843,0,0,1,.1-.8,1.205,1.205,0,0,1,.5-.5,1.08026,1.08026,0,0,1,.7-.3Z" style="fill: #1d1d1b"/>
  <path d="M28.2,154.6l1.9,3.9-1.4.7a1.118,1.118,0,1,1-1-2l.7-.3-.9-1.8Zm-.1,3.3c-.2.1-.2.2-.1.4h0a.24738.24738,0,0,0,.4.1l.7-.3-.3-.6Z" style="fill: #1d1d1b"/>
  <path d="M22.2,158.6l1.1.6,1.1-1-.4-1.1.6-.6,1.6,4.4-.5.5-4.1-2.1Zm1.9,1,1,.5-.4-1.1Z" style="fill: #1d1d1b"/>
  <path d="M22.3,161.7a2.17935,2.17935,0,0,1,.8,3.1,1.34435,1.34435,0,0,1-.6.7,2.0099,2.0099,0,0,1-.8.4h-.2l-.2-.8h.1a1.27219,1.27219,0,0,0,.9-.7,1.45645,1.45645,0,0,0-.5-2h0a1.45646,1.45646,0,0,0-2,.5,1.41677,1.41677,0,0,0-.1,1.1l.8.4.6-1,.7.4-1,1.7-1.7-1v-.1a2.34266,2.34266,0,0,1,.1-2,2.43267,2.43267,0,0,1,3.1-.7Z" style="fill: #1d1d1b"/>
  <path d="M17.1,169.1l2.1.4.3-1.7-2.1-.4.1-.8,4.3.8-.1.8-1.4-.3-.3,1.7,1.4.3-.1.8L17,170Z" style="fill: #1d1d1b"/>
  <path d="M16.9,172.5l4.3-.5.4,2.8-.8.1-.3-2-.6.1.2,1.8-.8.1-.2-1.8-1.3.2.3,2-.8.1Z" style="fill: #1d1d1b"/>
  <path d="M18.3,178.3l3.2-1.4-.4-1,.7-.3,1.2,2.7-.7.3-.4-1L18.7,179Z" style="fill: #1d1d1b"/>
  <path d="M20.7,182.6l2.7-2.2-.7-.8.6-.5,1.8,2.3-.6.5L24,181l-2.7,2.2Z" style="fill: #1d1d1b"/>
  <path d="M23.6,185.6l2.7-3.4.6.5-2.7,3.4Z" style="fill: #1d1d1b"/>
  <path d="M26.4,187.5l1.8-3.9,2.6,1.2-.3.7-1.9-.9-.3.6,1,.5-.3.7-1-.5-.9,1.9Z" style="fill: #1d1d1b"/>
  <path d="M31.1,189.2,32,185l.8.2-.9,4.2Z" style="fill: #1d1d1b"/>
  <path d="M35.5,189.6a4.3495,4.3495,0,0,1-.7-.4,1.7936,1.7936,0,0,1-.5-.7,2.92,2.92,0,0,1-.2-.9,2.31013,2.31013,0,0,1,2.1-2.4,1.64462,1.64462,0,0,1,1,.2,2.36146,2.36146,0,0,1,.9.6l.1.1-.6.5-.1-.1a1.346,1.346,0,0,0-1.2-.5,1.453,1.453,0,0,0-1.4,1.5,1.51988,1.51988,0,0,0,1.5,1.4,1.35621,1.35621,0,0,0,1.1-.6l.1-.1.7.4-.1.1a1.85253,1.85253,0,0,1-.8.7,1.68938,1.68938,0,0,1-1,.3A2.76911,2.76911,0,0,1,35.5,189.6Z" style="fill: #1d1d1b"/>
  <path d="M43.3,187.9l-.8-.9-1.3.6v1.3l-.8.3-.1-4.6.7-.3,3.2,3.4Zm-1.5-1.6-.8-.8v1.1Z" style="fill: #1d1d1b"/>
  <path d="M46.1,186.1l-2.2-2.8-.8.7-.5-.6,2.3-1.8.5.6-.8.7,2.2,2.8Z" style="fill: #1d1d1b"/>
  <path d="M49.1,183.2l-3.4-2.7.5-.6,3.4,2.7Z" style="fill: #1d1d1b"/>
  <path d="M49,179.9a2.23764,2.23764,0,0,1-1.2-3h0a2.25942,2.25942,0,1,1,4.1,1.9A2.197,2.197,0,0,1,49,179.9Zm.3-.8a1.45774,1.45774,0,1,0-.8-1.9A1.47835,1.47835,0,0,0,49.3,179.1Z" style="fill: #1d1d1b"/>
  <path d="M53.4,171.4l-2.9,1.8,2.8.1v.8l-4.3-.2v-.8l2.9-1.8-2.8-.1v-.8l4.3.2Z" style="fill: #1d1d1b"/>
  <circle cx="80.6" cy="177.10001" r="3.7" style="fill: #252626"/>
  <path d="M82.8,176.6H81.2V175a.63379.63379,0,0,0-.5-.6h0a.56.56,0,0,0-.6.5h0v1.6H78.5a.57639.57639,0,0,0-.6.6h0a.63378.63378,0,0,0,.5.6H80v1.6a.56.56,0,0,0,.5.6h0a.63377.63377,0,0,0,.6-.5h0v-1.6h1.6a.56.56,0,0,0,.6-.5h0c0-.4-.2-.7-.5-.7Z" style="fill: #e6e5e5"/>
  <circle cx="115.1" cy="177.10001" r="3.7" style="fill: #252626"/>
  <path d="M117.3,177.7h-4.4a.56.56,0,0,1-.6-.5h0a.64524.64524,0,0,1,.6-.6h4.4a.57639.57639,0,0,1,.6.6h0c-.1.2-.3.5-.6.5Z" style="fill: #e6e5e5"/>
  <circle cx="115.1" cy="40.3" r="3.7" style="fill: #252626"/>
  <path d="M117.3,39.7h-1.6V38.1a.55226.55226,0,1,0-1.1-.1v1.7H113a.55227.55227,0,1,0-.1,1.1h1.7v1.6a.56.56,0,0,0,.6.5c.3,0,.4-.2.5-.5V40.8h1.6a.56.56,0,0,0,.5-.6C117.7,39.9,117.5,39.7,117.3,39.7Z" style="fill: #e6e5e5"/>
  <circle cx="80.6" cy="40.3" r="3.7" style="fill: #252626"/>
  <path d="M82.8,40.8H78.4a.56.56,0,0,1-.5-.6c0-.3.2-.4.5-.5h4.4a.55227.55227,0,0,1,.1,1.1Z" style="fill: #e6e5e5"/>
  <circle cx="29.4" cy="91.5" r="3.7" style="fill: #252626"/>
  <path d="M31.6,90.9H30V89.3a.56.56,0,0,0-.6-.5c-.3,0-.4.2-.5.5v1.6H27.3a.56.56,0,0,0-.5.6c0,.3.2.4.5.5h1.6v1.6a.56.56,0,0,0,.6.5c.3,0,.4-.2.5-.5V92h1.6a.55227.55227,0,1,0,.1-1.1Z" style="fill: #e6e5e5"/>
  <circle cx="29.4" cy="125.9" r="3.7" style="fill: #252626"/>
  <path d="M29.4,128.7a.50068.50068,0,0,1-.5-.6v-4.4a.56.56,0,0,1,.6-.5c.3,0,.4.2.5.5v4.4C29.9,128.4,29.7,128.7,29.4,128.7Z" style="fill: #e6e5e5"/>
  <circle cx="166.3" cy="125.9" r="3.7" style="fill: #252626"/>
  <path d="M168.4,125.4h-1.6v-1.6a.56.56,0,0,0-.6-.5c-.3,0-.4.2-.5.5v1.6h-1.6a.56.56,0,0,0-.6.5h0a.5764.5764,0,0,0,.6.6h1.6v1.6a.55227.55227,0,0,0,1.1.1v-1.7h1.6a.6338.6338,0,0,0,.6-.5.5764.5764,0,0,0-.6-.6Z" style="fill: #e6e5e5"/>
  <circle cx="166.3" cy="91.5" r="3.7" style="fill: #252626"/>
  <path d="M166.3,94.2a.56.56,0,0,1-.6-.5h0V89.3a.56.56,0,0,1,.6-.5c.3,0,.4.2.5.5v4.4A.47238.47238,0,0,1,166.3,94.2Z" style="fill: #e6e5e5"/>
  <circle cx="97.5" cy="108.5" r="14.9" style="fill: #252626"/>
  <circle cx="97.5" cy="272.5" r="14.9" style="fill: #252626"/>
  <path d="M146,207.9a2.54978,2.54978,0,0,1-.8,1.2l-.1.1-.5-.6.1-.1a1.55507,1.55507,0,0,0,.6-.8h0a.36734.36734,0,0,1,.1-.3V207a.43015.43015,0,0,0-.4-.4c-.1,0-.3.1-.3.2-.1.2-.2.3-.3.5-.1.3-.3.6-.4.9a.99846.99846,0,0,1-.5.4,1.26836,1.26836,0,0,1-.6.1.71278.71278,0,0,1-.6-.3,2.09183,2.09183,0,0,1-.4-.6,1.70158,1.70158,0,0,1-.1-.7.36736.36736,0,0,1,.1-.3,2.58907,2.58907,0,0,1,.7-1.1l.1-.1.6.6-.1.1a1.3464,1.3464,0,0,0-.5.9v.4a.3193.3193,0,0,0,.3.3.36738.36738,0,0,0,.3-.1c.1-.2.2-.3.3-.5a.098.098,0,0,1,.1-.1,2.994,2.994,0,0,1,.4-.8.99841.99841,0,0,1,.5-.4,1.26836,1.26836,0,0,1,.6-.1.90779.90779,0,0,1,.7.3,2.09167,2.09167,0,0,1,.4.6,1.94943,1.94943,0,0,1,.1.8C146.1,207.6,146.1,207.8,146,207.9Z" style="fill: #1d1d1b"/>
  <path d="M146.5,205.1l-4-1.6.6-1.4a.90158.90158,0,0,1,.6-.6,1.38737,1.38737,0,0,1,.9,0,1.06586,1.06586,0,0,1,.6,1.4l-.3.7,2,.8Zm-2.1-2.5c.1-.2,0-.3-.2-.4s-.3,0-.4.2l-.3.7.6.2Z" style="fill: #1d1d1b"/>
  <path d="M149.5,199.9l-1.2-.4-.9,1.1.7,1.1-.5.7-2.5-3.9.4-.6,4.5,1.3Zm-2-.6-1.1-.3.6.9Z" style="fill: #1d1d1b"/>
  <path d="M148.9,197.2a2.36463,2.36463,0,0,1,.5-3.2,2.00988,2.00988,0,0,1,.8-.4,1.38734,1.38734,0,0,1,.9,0h.2l-.2.8H151a1.12847,1.12847,0,0,0-1.1.3,1.44264,1.44264,0,0,0-.3,2,1.46683,1.46683,0,0,0,2,.4,1.32615,1.32615,0,0,0,.6-1l-.5-.7-1,.7-.5-.6,1.6-1.2,1.2,1.6h0a2.32606,2.32606,0,0,1-2.3,2.3,2.94448,2.94448,0,0,1-1.8-1Z" style="fill: #1d1d1b"/>
  <path d="M156.9,195.4l-.6-2-1.7.5.6,2-.8.2-1.3-4.1.8-.2.4,1.4,1.7-.5-.4-1.4.8-.2,1.3,4.1Z" style="fill: #1d1d1b"/>
  <path d="M158.8,195.1l-.1-4.3,2.9-.1v.8l-2,.1v.6h1.8v.8h-1.8v1.3h2v.8Z" style="fill: #1d1d1b"/>
  <path d="M163.4,195.3l.8-3.4-1-.3.2-.8,2.9.7-.2.8-1-.3-.8,3.4Z" style="fill: #1d1d1b"/>
  <path d="M166.9,196.6l1.7-3.1-.9-.5.4-.7,2.6,1.4-.4.7-.9-.5-1.7,3.1Z" style="fill: #1d1d1b"/>
  <path d="M169.4,198.2l2.8-3.3.6.5-2.8,3.3Z" style="fill: #1d1d1b"/>
  <path d="M171.1,199.8l3.4-2.6,1.7,2.3-.6.5-1.2-1.6-.5.4.7.9-.6.3-.7-.9-1.7,1.3Z" style="fill: #1d1d1b"/>
  <path d="M173.3,203l3.9-1.8.4.7-3.9,1.8Z" style="fill: #1d1d1b"/>
  <path d="M174.5,206a6.89113,6.89113,0,0,1,.3-.8c.2-.2.4-.5.6-.6a2.0099,2.0099,0,0,1,.8-.4,2.26019,2.26019,0,0,1,2.6,1.8,1.70417,1.70417,0,0,1,0,1,2.6219,2.6219,0,0,1-.5.9l-.1.1-.6-.6.1-.1a1.844,1.844,0,0,0,.4-1.3,1.47139,1.47139,0,0,0-2.9.5,1.58878,1.58878,0,0,0,.8,1l.1.1-.3.7-.1-.1a2.69555,2.69555,0,0,1-.8-.7,1.79689,1.79689,0,0,1-.4-.9Z" style="fill: #1d1d1b"/>
  <path d="M174.6,212.5l1.2-.3.2-1.4-1.1-.6.1-.9,4,2.2-.1.7-4.5,1.1Zm2-.5,1.1-.3-1-.5Z" style="fill: #1d1d1b"/>
  <path d="M174,214.4l3.3,1.3.4-1,.7.3-1.1,2.7-.8-.3.4-1-3.3-1.3Z" style="fill: #1d1d1b"/>
  <path d="M172.6,217.1l3.6,2.4-.5.7-3.6-2.4Z" style="fill: #1d1d1b"/>
  <path d="M173.1,220.4a2.26716,2.26716,0,1,1-3.2-.2h0A2.32465,2.32465,0,0,1,173.1,220.4Zm-.6.5a1.416,1.416,0,1,0-.1,2,1.3232,1.3232,0,0,0,.1-2Z" style="fill: #1d1d1b"/>
  <path d="M165,223.2l2.9,1.9-1.1-2.6.8-.3,1.7,4-.7.3-2.9-1.9,1.1,2.6-.8.3-1.7-4Z" style="fill: #1d1d1b"/>
  <circle cx="80.6" cy="340.70001" r="3.7" style="fill: #252626"/>
  <path d="M82.8,340.1H81.2v-1.6c0-.3-.2-.5-.6-.5s-.5.2-.6.5v1.6H78.4a.56.56,0,0,0-.5.6c0,.3.2.4.5.5H80v1.6c0,.3.2.5.6.5s.5-.2.6-.5v-1.6h1.6a.55227.55227,0,0,0,.1-1.1Z" style="fill: #e6e5e5"/>
  <circle cx="115.1" cy="340.70001" r="3.7" style="fill: #252626"/>
  <path d="M117.3,341.2h-4.4a.55227.55227,0,1,1-.1-1.1h4.5a.56.56,0,0,1,.5.6C117.7,341,117.5,341.2,117.3,341.2Z" style="fill: #e6e5e5"/>
  <path d="M67.3,57.7a.60122.60122,0,0,0,.4-.1A60.00992,60.00992,0,0,1,114.4,52a15.385,15.385,0,1,0,.7-1.6,61.63894,61.63894,0,0,0-16.5-2.5v-16a.74782.74782,0,0,0-.7-.9c-.4,0-.9.3-.9.7V47.9a60.88076,60.88076,0,0,0-30,8.2.80436.80436,0,0,0-.3,1.1.56.56,0,0,0,.6.5Z" style="fill: #252626"/>
  <path d="M127.4,161.1a59.925,59.925,0,0,1-46.1,5.7,15.0435,15.0435,0,1,0-.7,1.5,63.48083,63.48083,0,0,0,16.2,2.4v16a.77872.77872,0,0,0,.9.7.68353.68353,0,0,0,.7-.7v-16a61.201,61.201,0,0,0,29.8-8.2.80622.80622,0,1,0-.8-1.4Z" style="fill: #252626"/>
  <path d="M50.2,64.5A14.83281,14.83281,0,0,0,38.7,91.8a60.58575,60.58575,0,0,0-2.5,15.8H20.3a.78874.78874,0,0,0-.8.8.86031.86031,0,0,0,.8.8H36.2v.8a59.85589,59.85589,0,0,0,8.2,29.8.75489.75489,0,0,0,.7.4.60123.60123,0,0,0,.4-.1.80437.80437,0,0,0,.3-1.1,60.2195,60.2195,0,0,1-8-29.8,59.33253,59.33253,0,0,1,2.4-16.8,14.888,14.888,0,0,0,19-9A14.73624,14.73624,0,0,0,50.2,64.5Z" style="fill: #252626"/>
  <path d="M110.1,60a.78472.78472,0,0,0-1.1,0,15.87467,15.87467,0,0,1-22.6,0h0a.84853.84853,0,0,0-1.2,1.2,17.54548,17.54548,0,0,0,11.6,5.2L96.7,79a.78874.78874,0,0,0,.8.8h0a.78874.78874,0,0,0,.8-.8l.1-12.7a17.68261,17.68261,0,0,0,11.7-5.1.817.817,0,0,0,0-1.2Z" style="fill: #252626"/>
  <path d="M85.1,158.6a.91015.91015,0,0,0,1.2,0,15.87464,15.87464,0,0,1,22.6,0h0a.73477.73477,0,0,0,.6.2.78874.78874,0,0,0,.8-.8,1.42145,1.42145,0,0,0-.2-.6,17.22083,17.22083,0,0,0-11.7-5.1l-.1-12.7a.78874.78874,0,0,0-.8-.8h0a.78873.78873,0,0,0-.8.8l.1,12.7a17.68259,17.68259,0,0,0-11.7,5.1A.91017.91017,0,0,0,85.1,158.6Z" style="fill: #252626"/>
  <path d="M174.9,107.7H159a62.0929,62.0929,0,0,0-8.1-29.1.82765.82765,0,1,0-1.5.7v.1a59.66172,59.66172,0,0,1,8,29.8v.2a59.05692,59.05692,0,0,1-2,15.1,15.57852,15.57852,0,1,0,1.5.7,63.0062,63.0062,0,0,0,2-15v-.7h16a.78875.78875,0,0,0,.8-.8A.80516.80516,0,0,0,174.9,107.7Z" style="fill: #252626"/>
  <path d="M127.8,107.7a.78874.78874,0,0,0-.8.8.86031.86031,0,0,0,.8.8h12.7a17.68262,17.68262,0,0,0,5.1,11.7.84852.84852,0,1,0,1.2-1.2,15.87467,15.87467,0,0,1,0-22.6h0a.84852.84852,0,0,0-1.2-1.2,17.68267,17.68267,0,0,0-5.1,11.7Z" style="fill: #252626"/>
  <path d="M67.3,109.4a.78875.78875,0,0,0,.8-.8.86032.86032,0,0,0-.8-.8H54.6a17.68264,17.68264,0,0,0-5.1-11.7.823.823,0,0,0-1.2.1.78472.78472,0,0,0,0,1.1,15.87466,15.87466,0,0,1,0,22.6h0a.84853.84853,0,0,0,1.2,1.2,17.68266,17.68266,0,0,0,5.1-11.7Z" style="fill: #252626"/>
  <circle cx="115.1" cy="203.8" r="3.7" style="fill: #252626"/>
  <path d="M117.3,203.3h-1.6v-1.6a.56.56,0,0,0-.6-.5c-.3,0-.4.2-.5.5v1.6H113a.55227.55227,0,0,0-.1,1.1h1.7V206a.56.56,0,0,0,.6.5c.3,0,.4-.2.5-.5v-1.6h1.6a.56.56,0,0,0,.5-.6C117.7,203.5,117.5,203.3,117.3,203.3Z" style="fill: #e6e5e5"/>
  <circle cx="80.6" cy="203.8" r="3.7" style="fill: #252626"/>
  <path d="M82.8,204.4H78.4a.56.56,0,0,1-.5-.6c0-.3.2-.4.5-.5h4.4a.55227.55227,0,1,1,.1,1.1Z" style="fill: #e6e5e5"/>
  <circle cx="29.4" cy="255" r="3.70001" transform="translate(-226.28476 277.68625) rotate(-88.4936)" style="fill: #252626"/>
  <path d="M31.6,254.4H30v-1.6a.56.56,0,0,0-.6-.5c-.3,0-.4.2-.5.5v1.6H27.3c-.3,0-.5.2-.5.6h0a.56.56,0,0,0,.5.6h1.6v1.6a.55227.55227,0,1,0,1.1.1v-1.7h1.6a.56.56,0,0,0,.6-.5h0C32.1,254.7,31.9,254.4,31.6,254.4Z" style="fill: #e6e5e5"/>
  <circle cx="29.39969" cy="289.49465" r="3.69994" transform="translate(-1.52865 0.15932) rotate(-0.30263)" style="fill: #252626"/>
  <path d="M29.4,292.2a.47239.47239,0,0,1-.5-.5v-4.4a.55227.55227,0,1,1,1.1-.1v4.5A.6338.6338,0,0,1,29.4,292.2Z" style="fill: #e6e5e5"/>
  <circle cx="166.3" cy="289.5" r="3.7" style="fill: #252626"/>
  <path d="M168.4,288.9h-1.6v-1.6a.55227.55227,0,0,0-1.1-.1v1.7h-1.6a.56.56,0,0,0-.6.5c0,.3.2.5.6.5h1.6v1.6a.56.56,0,0,0,.6.5c.3,0,.4-.2.5-.5V290h1.6a.56.56,0,0,0,.6-.5A.64525.64525,0,0,0,168.4,288.9Z" style="fill: #e6e5e5"/>
  <circle cx="166.3" cy="255" r="3.7" style="fill: #252626"/>
  <path d="M166.3,257.7a.64523.64523,0,0,1-.6-.6v-4.4a.56.56,0,0,1,.6-.5c.3,0,.4.2.5.5v4.4C166.8,257.5,166.6,257.7,166.3,257.7Z" style="fill: #e6e5e5"/>
  <path d="M67.2,220.8a.60123.60123,0,0,0,.4-.1,59.58515,59.58515,0,0,1,46.7-5.6,15.287,15.287,0,1,0,.6-1.5,61.63934,61.63934,0,0,0-16.5-2.5V195a.78874.78874,0,0,0-.8-.8.86031.86031,0,0,0-.8.8v16a60.88079,60.88079,0,0,0-30,8.2.80436.80436,0,0,0-.3,1.1.752.752,0,0,0,.7.5Z" style="fill: #252626"/>
  <path d="M127.4,324.3A59.92508,59.92508,0,0,1,81.3,330a14.80339,14.80339,0,1,0-.7,1.5,63.48134,63.48134,0,0,0,16.2,2.4V339h-5a2.68877,2.68877,0,0,0-2.7,2.7v31.6a2.68877,2.68877,0,0,0,2.7,2.7h11.7a2.68878,2.68878,0,0,0,2.7-2.7V341.6a2.68879,2.68879,0,0,0-2.7-2.7h-5v-5a61.20079,61.20079,0,0,0,29.8-8.2.80438.80438,0,0,0,.3-1.1.98008.98008,0,0,0-1.2-.3Z" style="fill: #252626"/>
  <path d="M37.7,272.5A61.41923,61.41923,0,0,1,40,256a14.9808,14.9808,0,1,0-1.5-.7,60.08242,60.08242,0,0,0-2.4,16.3h-16a.8.8,0,1,0,0,1.6h16a60.51025,60.51025,0,0,0,8.2,29.9.66956.66956,0,0,0,.7.4.60122.60122,0,0,0,.4-.1.80436.80436,0,0,0,.3-1.1A59.66146,59.66146,0,0,1,37.7,272.5Z" style="fill: #252626"/>
  <path d="M110.1,223.2a.91248.91248,0,0,0-1.2,0,15.87467,15.87467,0,0,1-22.6,0h0a.823.823,0,0,0-1.2.1.78472.78472,0,0,0,0,1.1,17.22082,17.22082,0,0,0,11.7,5.1l-.1,12.7a.78876.78876,0,0,0,.8.8h0a.78874.78874,0,0,0,.8-.8l.1-12.7a17.68262,17.68262,0,0,0,11.7-5.1A.91252.91252,0,0,0,110.1,223.2Z" style="fill: #252626"/>
  <path d="M85.1,321.8a.91017.91017,0,0,0,1.2,0,15.87468,15.87468,0,0,1,22.6,0h0a.84853.84853,0,0,0,1.2-1.2,17.68267,17.68267,0,0,0-11.7-5.1l-.1-12.7a.78874.78874,0,0,0-.8-.8h0a.78873.78873,0,0,0-.8.8l.1,12.7a17.68267,17.68267,0,0,0-11.7,5.1A.91252.91252,0,0,0,85.1,321.8Z" style="fill: #252626"/>
  <path d="M175,271.7H159a60.141,60.141,0,0,0-8.2-29.8.82765.82765,0,0,0-1.5.7v.1a59.66169,59.66169,0,0,1,8,29.8v.2a57.03766,57.03766,0,0,1-2.2,15.9,15.6914,15.6914,0,1,0,1.5.7,64.15736,64.15736,0,0,0,2.3-15.8h16a.78873.78873,0,0,0,.8-.8c.2-.7-.2-1-.7-1Z" style="fill: #252626"/>
  <path d="M127.8,271.7a.8.8,0,1,0,0,1.6h12.7a17.68269,17.68269,0,0,0,5.1,11.7.73469.73469,0,0,0,.6.2.78874.78874,0,0,0,.8-.8,1.42146,1.42146,0,0,0-.2-.6,15.87468,15.87468,0,0,1,0-22.6h0a.84853.84853,0,0,0-1.2-1.2h0a17.22084,17.22084,0,0,0-5.1,11.7Z" style="fill: #252626"/>
  <path d="M67.2,273.3a.8.8,0,1,0,0-1.6H54.5A17.68273,17.68273,0,0,0,49.4,260a.82306.82306,0,0,0-1.2.1.78472.78472,0,0,0,0,1.1,15.87468,15.87468,0,0,1,0,22.6h0a.91251.91251,0,0,0,0,1.2,1,1,0,0,0,1.2,0,17.68266,17.68266,0,0,0,5.1-11.7Z" style="fill: #252626"/>
  <path d="M101.4,364a3.11207,3.11207,0,0,1-.4.6,1.61175,1.61175,0,0,1-.7.4,1.94925,1.94925,0,0,1-.8.1,3.55267,3.55267,0,0,1-1-.2,2.65079,2.65079,0,0,1-.6-.5l-.3-.6c0-.2-.1-.5-.1-.7v-.9h3.7c.1,0,.1,0,.1.1s.1.2.1.3v.5a.95632.95632,0,0,1,0,.90005m-5.3-12.8c0-.1,0-.1.1-.2a.36733.36733,0,0,1,.3-.1h.6a2.35471,2.35471,0,0,1,2.1.8,2.70108,2.70108,0,0,1,.7,2.1v.4h-.8l-.1.1c0,.1,0,.1.1.2h.2a.7559.7559,0,0,1,.4.1.34909.34909,0,0,1,.2.1c0,.1,0,.2-.1.2,0,.1-.1.2-.2.4l-.3.5c-.1.2-.2.3-.3.5a8.79267,8.79267,0,0,1-.6,1c-.2.3-.4.7-.6,1-.2-.4-.5-.9-.7-1.3l-.7-1.4-.1-.2c0-.1-.1-.2-.1-.3s-.1-.2-.1-.3v-.2a.09794.09794,0,0,1,.1-.1c.1,0,.3-.1.4-.1h.2v-.2c0-.1,0-.1-.1-.1h-.6v-2.9m1,9.1v.8a.90153.90153,0,0,1-.1.5l-.1.1h0c-.1,0-.2-.1-.4-.1q-.3-.15-.3-.3a1.26838,1.26838,0,0,1-.1-.6V357l.6,1.2c.1.2.2.3.2.4s.1.2.1.3v.7Zm5,1.5c.1-.1.1-.3.2-.5a.90159.90159,0,0,0,.1-.5c0-.2.1-.3.1-.4a.09794.09794,0,0,0-.1-.1h-.2a3.50848,3.50848,0,0,1-.5.8.78074.78074,0,0,1-.4.4.34913.34913,0,0,0-.2.1.36737.36737,0,0,0-.3.1H99.1a.60123.60123,0,0,1-.4-.1.36737.36737,0,0,1-.3-.1.09794.09794,0,0,1-.1-.1.7638.7638,0,0,1-.2-.5V359a.60119.60119,0,0,1,.1-.4.75817.75817,0,0,1,.2-.4l.1-.1h1.8c.1,0,.2.1.3.2a.36737.36737,0,0,1,.1.3l.1.5a.34909.34909,0,0,0,.2.1c.1,0,.1,0,.2-.1v-2.3c0-.1-.1-.1-.2-.1s-.1,0-.2.1l-.1.5c0,.1-.1.2-.1.3s-.1.1-.2.1-.3.1-.4.1H98.7l.8-1.3.4-.7c.1-.2.3-.4.4-.6a.78071.78071,0,0,1,.4-.4l.1-.1a.34913.34913,0,0,1,.2.1l.3.3c.1.1.1.2.2.3l.1.4a.13849.13849,0,0,0,.2,0c.1,0,.1,0,.2-.1v-2a3.28176,3.28176,0,0,0-1.5-2.7,2.45636,2.45636,0,0,0-1.5-.5,13.551,13.551,0,0,0-2-.2H95c-.6,0-1.1.1-1.6.1-.1,0-.1.1-.1.2s0,.2.1.2l.6.1c.2,0,.3.1.5.1.1.1.2.2.2.3a1.26834,1.26834,0,0,1,.1.6v8.6a1.2684,1.2684,0,0,1-.1.6c-.1.1-.2.3-.3.3a1.26819,1.26819,0,0,1-.6.1h-.4c-.1.1-.1.1-.1.2V363a.34908.34908,0,0,0,.2.1h.2v-.3c0-.2.1-.3.1-.5a.21508.21508,0,0,1,.2-.2.90145.90145,0,0,1,.5-.1H97a.09794.09794,0,0,1,.1.1v.6a1.26838,1.26838,0,0,1-.1.6c-.1.1-.2.3-.3.4l-.5.3-.6.4-.5.3a1.381,1.381,0,0,0-.4.3,2.69562,2.69562,0,0,0-.8.7,2.65162,2.65162,0,0,0-.5.6,4.87718,4.87718,0,0,0-.3.7,2.20179,2.20179,0,0,0-.1.8,1.26834,1.26834,0,0,0,.1.6s.1.1.1,0a.09794.09794,0,0,0,.1-.1,1.48923,1.48923,0,0,1,.4-.9c.2-.2.4-.5.6-.7a5.54633,5.54633,0,0,1,.8-.6c.3-.2.6-.4,1-.7l1.2-.8.2-.1h.2a2.18589,2.18589,0,0,0,.3.5,1.20509,1.20509,0,0,0,.5.5,1.6117,1.6117,0,0,0,.7.4,3.09106,3.09106,0,0,0,.8.2,2.66283,2.66283,0,0,0,1.2-.3,2.6959,2.6959,0,0,0,.7-.8,1.68938,1.68938,0,0,0,.3-1c0-.4.1-.8.1-1.2a5.70186,5.70186,0,0,1,.1-1.3" style="fill: #e5e5e5"/>
  <g id="SCREWS">
    <g>
      <g>
        <circle cx="23" cy="6" r="5.7" style="fill: #bcbcbc"/>
        <path d="M23,.5a5.5,5.5,0,0,1,0,11A5.54882,5.54882,0,0,1,17.5,6,5.54882,5.54882,0,0,1,23,.5h0M23,0a6,6,0,1,0,6,6A6.01764,6.01764,0,0,0,23,0Z" style="fill: gray"/>
      </g>
      <polygon points="26.5 5.3 23.7 5.3 23.7 2.5 22.3 2.5 22.3 5.3 19.5 5.3 19.5 6.7 22.3 6.7 22.3 9.5 23.7 9.5 23.7 6.7 26.5 6.7 26.5 5.3" style="fill: #6e6e6e"/>
    </g>
    <g>
      <g>
        <circle cx="173" cy="6" r="5.7" style="fill: #bcbcbc"/>
        <path d="M173,.5A5.484,5.484,0,0,1,178.5,6a5.422,5.422,0,0,1-5.5,5.5A5.484,5.484,0,0,1,167.5,6,5.54882,5.54882,0,0,1,173,.5h0m0-.5a6,6,0,1,0,6,6A6.01764,6.01764,0,0,0,173,0Z" style="fill: gray"/>
      </g>
      <polygon points="176.5 5.3 173.7 5.3 173.7 2.5 172.3 2.5 172.3 5.3 169.5 5.3 169.5 6.7 172.3 6.7 172.3 9.5 173.7 9.5 173.7 6.7 176.5 6.7 176.5 5.3" style="fill: #6e6e6e"/>
    </g>
    <g>
      <g>
        <circle cx="23" cy="374" r="5.70001" style="fill: #bcbcbc"/>
        <path d="M23,368.5a5.484,5.484,0,0,1,5.5,5.5,5.5,5.5,0,0,1-11,0,5.54882,5.54882,0,0,1,5.5-5.5h0m0-.5a6,6,0,1,0,6,6A6.01765,6.01765,0,0,0,23,368Z" style="fill: gray"/>
      </g>
      <polygon points="26.5 373.3 23.7 373.3 23.7 370.5 22.3 370.5 22.3 373.3 19.5 373.3 19.5 374.7 22.3 374.7 22.3 377.5 23.7 377.5 23.7 374.7 26.5 374.7 26.5 373.3" style="fill: #6e6e6e"/>
    </g>
    <g>
      <g>
        <circle cx="173" cy="374" r="5.7" style="fill: #bcbcbc"/>
        <path d="M173,368.5a5.484,5.484,0,0,1,5.5,5.5,5.5,5.5,0,0,1-11,0,5.484,5.484,0,0,1,5.5-5.5h0m0-.5a6,6,0,1,0,6,6A6.01765,6.01765,0,0,0,173,368Z" style="fill: gray"/>
      </g>
      <polygon points="176.5 373.3 173.7 373.3 173.7 370.5 172.3 370.5 172.3 373.3 169.5 373.3 169.5 374.7 172.3 374.7 172.3 377.5 173.7 377.5 173.7 374.7 176.5 374.7 176.5 373.3" style="fill: #6e6e6e"/>
    </g>
  </g>
  <g id="WHITE_LEDS" data-name="WHITE LEDS">
    <g>
      <path d="M150.5,223.7a3.25038,3.25038,0,1,1,3.2-3.3,3.168,3.168,0,0,1-.9,2.3A2.89593,2.89593,0,0,1,150.5,223.7Z" style="fill: #8e8e8e"/>
      <path d="M150.5,217.5a3,3,0,1,1-3,3,2.72354,2.72354,0,0,1,.9-2.1,2.87821,2.87821,0,0,1,2.1-.9m0-.5a3.47145,3.47145,0,0,0-2.5,1,3.38288,3.38288,0,0,0,0,4.9h0a3.38286,3.38286,0,0,0,4.9,0h0a3.38286,3.38286,0,0,0,0-4.9h0A3.10168,3.10168,0,0,0,150.5,217Z" style="fill: #80807f"/>
    </g>
    <g>
      <path d="M44.5,162.7a3.25038,3.25038,0,1,1,3.2-3.3,3.168,3.168,0,0,1-.9,2.3A2.89592,2.89592,0,0,1,44.5,162.7Z" style="fill: #8e8e8e"/>
      <path d="M44.5,156.5a3,3,0,1,1-3,3,2.72351,2.72351,0,0,1,.9-2.1,2.87817,2.87817,0,0,1,2.1-.9m0-.5a3.50138,3.50138,0,0,0-2.6,5.9l.1.1a3.47026,3.47026,0,0,0,4.9.1l.1-.1a3.47023,3.47023,0,0,0,.1-4.9L47,157a3.31686,3.31686,0,0,0-2.5-1Z" style="fill: #80807f"/>
    </g>
  </g>
  <g id="PUSH">
    <g>
      <g>
        <circle cx="35.5" cy="171.5" r="7.2"/>
        <path d="M35.5,164.6a6.9,6.9,0,1,1-6.9,6.9,6.91383,6.91383,0,0,1,6.9-6.9m0-.6a7.5,7.5,0,1,0,7.5,7.5,7.55461,7.55461,0,0,0-7.5-7.5Z"/>
      </g>
      <g>
        <circle cx="35.5" cy="171.5" r="6.2" style="fill: #707070"/>
        <path d="M35.5,165.6a5.9,5.9,0,1,1-5.9,5.9,5.84765,5.84765,0,0,1,5.9-5.9m0-.6a6.5,6.5,0,1,0,6.5,6.5,6.487,6.487,0,0,0-6.5-6.5Z" style="fill: gray"/>
      </g>
    </g>
    <g>
      <g>
        <circle cx="160.5" cy="209.5" r="7.2"/>
        <path d="M160.5,202.6a6.9,6.9,0,1,1-6.9,6.9,6.91382,6.91382,0,0,1,6.9-6.9m0-.6a7.5,7.5,0,1,0,7.5,7.5A7.5546,7.5546,0,0,0,160.5,202Z"/>
      </g>
      <g>
        <circle cx="160.5" cy="209.5" r="6.2" style="fill: #707070"/>
        <path d="M160.5,203.6a5.9,5.9,0,1,1-5.9,5.9,5.84764,5.84764,0,0,1,5.9-5.9m0-.6a6.5,6.5,0,1,0,6.5,6.5h0A6.487,6.487,0,0,0,160.5,203Z" style="fill: gray"/>
      </g>
    </g>
  </g>
  <g id="JACKS">
    <g>
      <g>
        <circle cx="67.5" cy="56.5" r="11.2" style="fill: #e5e5e5"/>
        <path d="M67.5,45.6A10.9,10.9,0,1,1,56.6,56.5,10.92559,10.92559,0,0,1,67.5,45.6m0-.6A11.5,11.5,0,1,0,79,56.5h0A11.43819,11.43819,0,0,0,67.5,45Z" style="fill: #878787"/>
      </g>
      <path d="M67.5,47.3a9.2,9.2,0,1,0,9.2,9.2h0A9.17581,9.17581,0,0,0,67.5,47.3Zm0,16.8a7.6,7.6,0,1,1,7.6-7.6h0A7.59663,7.59663,0,0,1,67.5,64.1Z" style="fill: #969696"/>
      <g>
        <circle cx="67.5" cy="56.5" r="5.5" style="fill: #0e0e0e"/>
        <path d="M67.5,62.3a5.8,5.8,0,1,1,5.8-5.8,5.80417,5.80417,0,0,1-5.8,5.8Zm0-11a5.2,5.2,0,1,0,5.2,5.2A5.16442,5.16442,0,0,0,67.5,51.3Z" style="fill: #2b2b2b"/>
      </g>
    </g>
    <g>
      <g>
        <circle cx="128.5" cy="56.5" r="11.2" style="fill: #e5e5e5"/>
        <path d="M128.5,45.6a10.9,10.9,0,1,1-10.9,10.9,10.92558,10.92558,0,0,1,10.9-10.9m0-.6A11.5,11.5,0,1,0,140,56.5h0A11.4382,11.4382,0,0,0,128.5,45Z" style="fill: #878787"/>
      </g>
      <path d="M128.5,47.3a9.2,9.2,0,1,0,9.2,9.2h0A9.1758,9.1758,0,0,0,128.5,47.3Zm0,16.8a7.6,7.6,0,1,1,7.6-7.6,7.59663,7.59663,0,0,1-7.6,7.6Z" style="fill: #969696"/>
      <g>
        <circle cx="128.5" cy="56.5" r="5.5" style="fill: #0e0e0e"/>
        <path d="M128.5,62.3a5.8,5.8,0,1,1,5.8-5.8h0A5.80417,5.80417,0,0,1,128.5,62.3Zm0-11a5.2,5.2,0,1,0,5.2,5.2A5.16442,5.16442,0,0,0,128.5,51.3Z" style="fill: #2b2b2b"/>
      </g>
    </g>
    <g>
      <g>
        <circle cx="150.5" cy="78.5" r="11.2" style="fill: #e5e5e5"/>
        <path d="M150.5,67.6a10.9,10.9,0,1,1-10.9,10.9h0a10.92558,10.92558,0,0,1,10.9-10.9m0-.6A11.5,11.5,0,1,0,162,78.5h0A11.4382,11.4382,0,0,0,150.5,67Z" style="fill: #878787"/>
      </g>
      <path d="M150.5,69.3a9.2,9.2,0,1,0,9.2,9.2h0A9.1758,9.1758,0,0,0,150.5,69.3Zm0,16.8a7.6,7.6,0,1,1,7.6-7.6,7.59664,7.59664,0,0,1-7.6,7.6Z" style="fill: #969696"/>
      <g>
        <circle cx="150.5" cy="78.5" r="5.5" style="fill: #0e0e0e"/>
        <path d="M150.5,84.3a5.8,5.8,0,1,1,5.8-5.8h0A5.80417,5.80417,0,0,1,150.5,84.3Zm0-11a5.2,5.2,0,1,0,5.2,5.2,5.22811,5.22811,0,0,0-5.2-5.2Z" style="fill: #2b2b2b"/>
      </g>
    </g>
    <g>
      <g>
        <circle cx="150.5" cy="138.5" r="11.2" style="fill: #e5e5e5"/>
        <path d="M150.5,127.6a10.9,10.9,0,1,1-10.9,10.9h0a10.92558,10.92558,0,0,1,10.9-10.9m0-.6A11.5,11.5,0,1,0,162,138.5,11.4382,11.4382,0,0,0,150.5,127Z" style="fill: #878787"/>
      </g>
      <path d="M150.5,129.3a9.2,9.2,0,1,0,9.2,9.2h0A9.1758,9.1758,0,0,0,150.5,129.3Zm0,16.8a7.6,7.6,0,1,1,7.6-7.6,7.59664,7.59664,0,0,1-7.6,7.6Z" style="fill: #969696"/>
      <g>
        <circle cx="150.5" cy="138.5" r="5.5" style="fill: #0e0e0e"/>
        <path d="M150.5,144.3a5.8,5.8,0,1,1,5.8-5.8h0A5.80417,5.80417,0,0,1,150.5,144.3Zm0-11a5.2,5.2,0,1,0,5.2,5.2A5.16443,5.16443,0,0,0,150.5,133.3Z" style="fill: #2b2b2b"/>
      </g>
    </g>
    <g>
      <g>
        <circle cx="128.5" cy="161.5" r="11.2" style="fill: #e5e5e5"/>
        <path d="M128.5,150.6a10.9,10.9,0,1,1-10.9,10.9h0a10.92558,10.92558,0,0,1,10.9-10.9m0-.6A11.5,11.5,0,1,0,140,161.5,11.4382,11.4382,0,0,0,128.5,150Z" style="fill: #878787"/>
      </g>
      <path d="M128.5,152.3a9.2,9.2,0,1,0,9.2,9.2h0A9.1758,9.1758,0,0,0,128.5,152.3Zm0,16.8a7.6,7.6,0,1,1,7.6-7.6,7.59663,7.59663,0,0,1-7.6,7.6Z" style="fill: #969696"/>
      <g>
        <circle cx="128.5" cy="161.5" r="5.5" style="fill: #0e0e0e"/>
        <path d="M128.5,167.3a5.8,5.8,0,1,1,5.8-5.8h0A5.80417,5.80417,0,0,1,128.5,167.3Zm0-11a5.2,5.2,0,1,0,5.2,5.2A5.16443,5.16443,0,0,0,128.5,156.3Z" style="fill: #2b2b2b"/>
      </g>
    </g>
    <g>
      <g>
        <circle cx="67.5" cy="161.5" r="11.2" style="fill: #e5e5e5"/>
        <path d="M67.5,150.6a10.9,10.9,0,1,1-10.9,10.9h0a10.92558,10.92558,0,0,1,10.9-10.9m0-.6A11.5,11.5,0,1,0,79,161.5,11.4382,11.4382,0,0,0,67.5,150Z" style="fill: #878787"/>
      </g>
      <path d="M67.5,152.3a9.2,9.2,0,1,0,9.2,9.2h0A9.1758,9.1758,0,0,0,67.5,152.3Zm0,16.8a7.6,7.6,0,1,1,7.6-7.6,7.59663,7.59663,0,0,1-7.6,7.6Z" style="fill: #969696"/>
      <g>
        <circle cx="67.5" cy="161.5" r="5.5" style="fill: #0e0e0e"/>
        <path d="M67.5,167.3a5.8,5.8,0,1,1,5.8-5.8h0A5.80417,5.80417,0,0,1,67.5,167.3Zm0-11a5.2,5.2,0,1,0,5.2,5.2A5.16443,5.16443,0,0,0,67.5,156.3Z" style="fill: #2b2b2b"/>
      </g>
    </g>
    <g>
      <g>
        <circle cx="45.5" cy="138.5" r="11.2" style="fill: #e5e5e5"/>
        <path d="M45.5,127.6a10.9,10.9,0,1,1-10.9,10.9,10.92559,10.92559,0,0,1,10.9-10.9m0-.6A11.5,11.5,0,1,0,57,138.5,11.4382,11.4382,0,0,0,45.5,127Z" style="fill: #878787"/>
      </g>
      <path d="M45.5,129.3a9.2,9.2,0,1,0,9.2,9.2h0A9.1758,9.1758,0,0,0,45.5,129.3Zm0,16.8a7.6,7.6,0,1,1,7.6-7.6,7.59663,7.59663,0,0,1-7.6,7.6Z" style="fill: #969696"/>
      <g>
        <circle cx="45.5" cy="138.5" r="5.5" style="fill: #0e0e0e"/>
        <path d="M45.5,144.3a5.8,5.8,0,1,1,5.8-5.8h0A5.80417,5.80417,0,0,1,45.5,144.3Zm0-11a5.2,5.2,0,1,0,5.2,5.2A5.16443,5.16443,0,0,0,45.5,133.3Z" style="fill: #2b2b2b"/>
      </g>
    </g>
    <g>
      <g>
        <circle cx="45.5" cy="78.5" r="11.2" style="fill: #e5e5e5"/>
        <path d="M45.5,67.6A10.9,10.9,0,1,1,34.6,78.5,10.92559,10.92559,0,0,1,45.5,67.6m0-.6A11.5,11.5,0,1,0,57,78.5h0A11.43819,11.43819,0,0,0,45.5,67Z" style="fill: #878787"/>
      </g>
      <path d="M45.5,69.3a9.2,9.2,0,1,0,9.2,9.2A9.17581,9.17581,0,0,0,45.5,69.3Zm0,16.8a7.6,7.6,0,1,1,7.6-7.6h0a7.59663,7.59663,0,0,1-7.6,7.6Z" style="fill: #969696"/>
      <g>
        <circle cx="45.5" cy="78.5" r="5.5" style="fill: #0e0e0e"/>
        <path d="M45.5,84.3a5.8,5.8,0,1,1,5.8-5.8,5.80417,5.80417,0,0,1-5.8,5.8Zm0-11a5.2,5.2,0,1,0,5.2,5.2,5.22811,5.22811,0,0,0-5.2-5.2Z" style="fill: #2b2b2b"/>
      </g>
    </g>
    <g>
      <g>
        <circle cx="97.5" cy="78.5" r="11.2" style="fill: #e5e5e5"/>
        <path d="M97.5,67.6A10.9,10.9,0,1,1,86.6,78.5,10.92559,10.92559,0,0,1,97.5,67.6m0-.6A11.5,11.5,0,1,0,109,78.5h0A11.43819,11.43819,0,0,0,97.5,67Z" style="fill: #878787"/>
      </g>
      <path d="M97.5,69.3a9.2,9.2,0,1,0,9.2,9.2h0A9.17581,9.17581,0,0,0,97.5,69.3Zm0,16.8a7.6,7.6,0,1,1,7.6-7.6h0a7.59663,7.59663,0,0,1-7.6,7.6Z" style="fill: #969696"/>
      <g>
        <circle cx="97.5" cy="78.5" r="5.5" style="fill: #0e0e0e"/>
        <path d="M97.5,84.3a5.8,5.8,0,1,1,5.8-5.8,5.80417,5.80417,0,0,1-5.8,5.8Zm0-11a5.2,5.2,0,1,0,5.2,5.2,5.22811,5.22811,0,0,0-5.2-5.2Z" style="fill: #2b2b2b"/>
      </g>
    </g>
    <g>
      <g>
        <circle cx="97.5" cy="108.5" r="11.2" style="fill: #e5e5e5"/>
        <path d="M97.5,97.6a10.9,10.9,0,1,1-10.9,10.9A10.92559,10.92559,0,0,1,97.5,97.6m0-.6A11.5,11.5,0,1,0,109,108.5h0A11.43819,11.43819,0,0,0,97.5,97Z" style="fill: #878787"/>
      </g>
      <path d="M97.5,99.3a9.2,9.2,0,1,0,9.2,9.2h0A9.17581,9.17581,0,0,0,97.5,99.3Zm0,16.8a7.6,7.6,0,1,1,7.6-7.6h0a7.59663,7.59663,0,0,1-7.6,7.6Z" style="fill: #969696"/>
      <g>
        <circle cx="97.5" cy="108.5" r="5.5" style="fill: #0e0e0e"/>
        <path d="M97.5,114.3a5.8,5.8,0,1,1,5.8-5.8,5.80417,5.80417,0,0,1-5.8,5.8Zm0-11a5.2,5.2,0,1,0,5.2,5.2,5.22811,5.22811,0,0,0-5.2-5.2Z" style="fill: #2b2b2b"/>
      </g>
    </g>
    <g>
      <g>
        <circle cx="128.5" cy="108.5" r="11.2" style="fill: #e5e5e5"/>
        <path d="M128.5,97.6a10.9,10.9,0,1,1-10.9,10.9,10.92558,10.92558,0,0,1,10.9-10.9m0-.6A11.5,11.5,0,1,0,140,108.5h0A11.4382,11.4382,0,0,0,128.5,97Z" style="fill: #878787"/>
      </g>
      <path d="M128.5,99.3a9.2,9.2,0,1,0,9.2,9.2h0A9.1758,9.1758,0,0,0,128.5,99.3Zm0,16.8a7.6,7.6,0,1,1,7.6-7.6,7.59663,7.59663,0,0,1-7.6,7.6Z" style="fill: #969696"/>
      <g>
        <circle cx="128.5" cy="108.5" r="5.5" style="fill: #0e0e0e"/>
        <path d="M128.5,114.3a5.8,5.8,0,1,1,5.8-5.8h0A5.80417,5.80417,0,0,1,128.5,114.3Zm0-11a5.2,5.2,0,1,0,5.2,5.2,5.22811,5.22811,0,0,0-5.2-5.2Z" style="fill: #2b2b2b"/>
      </g>
    </g>
    <g>
      <g>
        <circle cx="97.5" cy="139.5" r="11.2" style="fill: #e5e5e5"/>
        <path d="M97.5,128.6a10.9,10.9,0,1,1-10.9,10.9h0a10.92558,10.92558,0,0,1,10.9-10.9m0-.6A11.5,11.5,0,1,0,109,139.5,11.4382,11.4382,0,0,0,97.5,128Z" style="fill: #878787"/>
      </g>
      <path d="M97.5,130.3a9.2,9.2,0,1,0,9.2,9.2h0A9.1758,9.1758,0,0,0,97.5,130.3Zm0,16.8a7.6,7.6,0,1,1,7.6-7.6,7.59663,7.59663,0,0,1-7.6,7.6Z" style="fill: #969696"/>
      <g>
        <circle cx="97.5" cy="139.5" r="5.5" style="fill: #0e0e0e"/>
        <path d="M97.5,145.3a5.8,5.8,0,1,1,5.8-5.8h0A5.80417,5.80417,0,0,1,97.5,145.3Zm0-11a5.2,5.2,0,1,0,5.2,5.2A5.16443,5.16443,0,0,0,97.5,134.3Z" style="fill: #2b2b2b"/>
      </g>
    </g>
    <g>
      <g>
        <circle cx="67.5" cy="108.5" r="11.2" style="fill: #e5e5e5"/>
        <path d="M67.5,97.6a10.9,10.9,0,1,1-10.9,10.9A10.92559,10.92559,0,0,1,67.5,97.6m0-.6A11.5,11.5,0,1,0,79,108.5h0A11.43819,11.43819,0,0,0,67.5,97Z" style="fill: #878787"/>
      </g>
      <path d="M67.5,99.3a9.2,9.2,0,1,0,9.2,9.2h0A9.17581,9.17581,0,0,0,67.5,99.3Zm0,16.8a7.6,7.6,0,1,1,7.6-7.6h0a7.59663,7.59663,0,0,1-7.6,7.6Z" style="fill: #969696"/>
      <g>
        <circle cx="67.5" cy="108.5" r="5.5" style="fill: #0e0e0e"/>
        <path d="M67.5,114.3a5.8,5.8,0,1,1,5.8-5.8,5.80417,5.80417,0,0,1-5.8,5.8Zm0-11a5.2,5.2,0,1,0,5.2,5.2,5.22811,5.22811,0,0,0-5.2-5.2Z" style="fill: #2b2b2b"/>
      </g>
    </g>
    <g>
      <g>
        <circle cx="128.5" cy="219.5" r="11.2" style="fill: #e5e5e5"/>
        <path d="M128.5,208.6a10.9,10.9,0,1,1-10.9,10.9h0a10.92558,10.92558,0,0,1,10.9-10.9m0-.6A11.5,11.5,0,1,0,140,219.5h0A11.4382,11.4382,0,0,0,128.5,208Z" style="fill: #878787"/>
      </g>
      <path d="M128.5,210.3a9.2,9.2,0,1,0,9.2,9.2h0A9.1758,9.1758,0,0,0,128.5,210.3Zm0,16.8a7.6,7.6,0,1,1,7.6-7.6,7.59663,7.59663,0,0,1-7.6,7.6Z" style="fill: #969696"/>
      <g>
        <circle cx="128.5" cy="219.5" r="5.5" style="fill: #0e0e0e"/>
        <path d="M128.5,225.3a5.8,5.8,0,1,1,5.8-5.8h0A5.80417,5.80417,0,0,1,128.5,225.3Zm0-11a5.2,5.2,0,1,0,5.2,5.2A5.16443,5.16443,0,0,0,128.5,214.3Z" style="fill: #2b2b2b"/>
      </g>
    </g>
    <g>
      <g>
        <circle cx="150.5" cy="242.5" r="11.2" style="fill: #e5e5e5"/>
        <path d="M150.5,231.6a10.9,10.9,0,1,1-10.9,10.9h0a10.92557,10.92557,0,0,1,10.9-10.9m0-.6A11.5,11.5,0,1,0,162,242.5h0A11.4382,11.4382,0,0,0,150.5,231Z" style="fill: #878787"/>
      </g>
      <path d="M150.5,233.3a9.2,9.2,0,1,0,9.2,9.2h0A9.1758,9.1758,0,0,0,150.5,233.3Zm0,16.8a7.6,7.6,0,1,1,7.6-7.6,7.59664,7.59664,0,0,1-7.6,7.6Z" style="fill: #969696"/>
      <g>
        <circle cx="150.5" cy="242.5" r="5.5" style="fill: #0e0e0e"/>
        <path d="M150.5,248.3a5.8,5.8,0,1,1,5.8-5.8h0A5.80417,5.80417,0,0,1,150.5,248.3Zm0-11a5.2,5.2,0,1,0,5.2,5.2A5.16443,5.16443,0,0,0,150.5,237.3Z" style="fill: #2b2b2b"/>
      </g>
    </g>
    <g>
      <g>
        <circle cx="150.5" cy="302.5" r="11.2" style="fill: #e5e5e5"/>
        <path d="M150.5,291.6a10.9,10.9,0,1,1-10.9,10.9h0a10.92557,10.92557,0,0,1,10.9-10.9m0-.6A11.5,11.5,0,1,0,162,302.5h0A11.4382,11.4382,0,0,0,150.5,291Z" style="fill: #878787"/>
      </g>
      <path d="M150.5,293.3a9.2,9.2,0,1,0,9.2,9.2A9.1758,9.1758,0,0,0,150.5,293.3Zm0,16.8a7.6,7.6,0,1,1,7.6-7.6,7.59664,7.59664,0,0,1-7.6,7.6Z" style="fill: #969696"/>
      <g>
        <circle cx="150.5" cy="302.5" r="5.5" style="fill: #0e0e0e"/>
        <path d="M150.5,308.3a5.8,5.8,0,1,1,5.8-5.8A5.80417,5.80417,0,0,1,150.5,308.3Zm0-11a5.2,5.2,0,1,0,5.2,5.2A5.16442,5.16442,0,0,0,150.5,297.3Z" style="fill: #2b2b2b"/>
      </g>
    </g>
    <g>
      <g>
        <circle cx="128.5" cy="324.5" r="11.2" style="fill: #e5e5e5"/>
        <path d="M128.5,313.6a10.9,10.9,0,1,1-10.9,10.9h0a10.92558,10.92558,0,0,1,10.9-10.9m0-.6A11.5,11.5,0,1,0,140,324.5h0A11.4382,11.4382,0,0,0,128.5,313Z" style="fill: #878787"/>
      </g>
      <path d="M128.5,315.3a9.2,9.2,0,1,0,9.2,9.2A9.17581,9.17581,0,0,0,128.5,315.3Zm0,16.8a7.6,7.6,0,1,1,7.6-7.6,7.59663,7.59663,0,0,1-7.6,7.6Z" style="fill: #969696"/>
      <g>
        <circle cx="128.50511" cy="324.49795" r="5.50009" style="fill: #0e0e0e"/>
        <path d="M128.5,330.3a5.8,5.8,0,1,1,5.8-5.8A5.80417,5.80417,0,0,1,128.5,330.3Zm0-11a5.2,5.2,0,1,0,5.2,5.2A5.16442,5.16442,0,0,0,128.5,319.3Z" style="fill: #2b2b2b"/>
      </g>
    </g>
    <g>
      <g>
        <circle cx="67.5" cy="324.5" r="11.20001" transform="matrix(0.03328, -0.99945, 0.99945, 0.03328, -259.06653, 381.16392)" style="fill: #e5e5e5"/>
        <path d="M67.5,313.6a10.9,10.9,0,1,1-10.9,10.9h0a10.92558,10.92558,0,0,1,10.9-10.9m0-.6A11.5,11.5,0,1,0,79,324.5h0A11.4382,11.4382,0,0,0,67.5,313Z" style="fill: #878787"/>
      </g>
      <path d="M67.5,315.3a9.2,9.2,0,1,0,9.2,9.2A9.17581,9.17581,0,0,0,67.5,315.3Zm0,16.8a7.6,7.6,0,1,1,7.6-7.6,7.59663,7.59663,0,0,1-7.6,7.6Z" style="fill: #969696"/>
      <g>
        <circle cx="67.50204" cy="324.50977" r="5.50017" style="fill: #0e0e0e"/>
        <path d="M67.5,330.3a5.8,5.8,0,1,1,5.8-5.8A5.80417,5.80417,0,0,1,67.5,330.3Zm0-11a5.2,5.2,0,1,0,5.2,5.2A5.16442,5.16442,0,0,0,67.5,319.3Z" style="fill: #2b2b2b"/>
      </g>
    </g>
    <g>
      <g>
        <circle cx="45.5" cy="302.5" r="11.20001" style="fill: #e5e5e5"/>
        <path d="M45.5,291.6a10.9,10.9,0,1,1-10.9,10.9h0a10.92558,10.92558,0,0,1,10.9-10.9m0-.6A11.5,11.5,0,1,0,57,302.5h0A11.4382,11.4382,0,0,0,45.5,291Z" style="fill: #878787"/>
      </g>
      <path d="M45.5,293.3a9.2,9.2,0,1,0,9.2,9.2A9.17581,9.17581,0,0,0,45.5,293.3Zm0,16.8a7.6,7.6,0,1,1,7.6-7.6,7.59663,7.59663,0,0,1-7.6,7.6Z" style="fill: #969696"/>
      <g>
        <circle cx="45.5" cy="302.5" r="5.5" style="fill: #0e0e0e"/>
        <path d="M45.5,308.3a5.8,5.8,0,1,1,5.8-5.8A5.80417,5.80417,0,0,1,45.5,308.3Zm0-11a5.2,5.2,0,1,0,5.2,5.2A5.16442,5.16442,0,0,0,45.5,297.3Z" style="fill: #2b2b2b"/>
      </g>
    </g>
    <g>
      <g>
        <circle cx="45.5" cy="242.5" r="11.2" style="fill: #e5e5e5"/>
        <path d="M45.5,231.6a10.9,10.9,0,1,1-10.9,10.9h0a10.92558,10.92558,0,0,1,10.9-10.9m0-.6A11.5,11.5,0,1,0,57,242.5h0A11.4382,11.4382,0,0,0,45.5,231Z" style="fill: #878787"/>
      </g>
      <path d="M45.5,233.3a9.2,9.2,0,1,0,9.2,9.2h0A9.1758,9.1758,0,0,0,45.5,233.3Zm0,16.8a7.6,7.6,0,1,1,7.6-7.6,7.59663,7.59663,0,0,1-7.6,7.6Z" style="fill: #969696"/>
      <g>
        <circle cx="45.5" cy="242.5" r="5.5" style="fill: #0e0e0e"/>
        <path d="M45.5,248.3a5.8,5.8,0,1,1,5.8-5.8h0A5.80417,5.80417,0,0,1,45.5,248.3Zm0-11a5.2,5.2,0,1,0,5.2,5.2A5.16443,5.16443,0,0,0,45.5,237.3Z" style="fill: #2b2b2b"/>
      </g>
    </g>
    <g>
      <g>
        <circle cx="67.5" cy="219.5" r="11.2" style="fill: #e5e5e5"/>
        <path d="M67.5,208.6a10.9,10.9,0,1,1-10.9,10.9h0a10.92558,10.92558,0,0,1,10.9-10.9m0-.6A11.5,11.5,0,1,0,79,219.5h0A11.4382,11.4382,0,0,0,67.5,208Z" style="fill: #878787"/>
      </g>
      <path d="M67.5,210.3a9.2,9.2,0,1,0,9.2,9.2h0A9.1758,9.1758,0,0,0,67.5,210.3Zm0,16.8a7.6,7.6,0,1,1,7.6-7.6,7.59663,7.59663,0,0,1-7.6,7.6Z" style="fill: #969696"/>
      <g>
        <circle cx="67.5" cy="219.5" r="5.5" style="fill: #0e0e0e"/>
        <path d="M67.5,225.3a5.8,5.8,0,1,1,5.8-5.8h0A5.80417,5.80417,0,0,1,67.5,225.3Zm0-11a5.2,5.2,0,1,0,5.2,5.2A5.16443,5.16443,0,0,0,67.5,214.3Z" style="fill: #2b2b2b"/>
      </g>
    </g>
    <g>
      <g>
        <circle cx="97.5" cy="241.5" r="11.2" style="fill: #e5e5e5"/>
        <path d="M97.5,230.6a10.9,10.9,0,1,1-10.9,10.9h0a10.92558,10.92558,0,0,1,10.9-10.9m0-.6A11.5,11.5,0,1,0,109,241.5,11.4382,11.4382,0,0,0,97.5,230Z" style="fill: #878787"/>
      </g>
      <path d="M97.5,232.3a9.2,9.2,0,1,0,9.2,9.2h0A9.1758,9.1758,0,0,0,97.5,232.3Zm0,16.8a7.6,7.6,0,1,1,7.6-7.6,7.59663,7.59663,0,0,1-7.6,7.6Z" style="fill: #969696"/>
      <g>
        <circle cx="97.5" cy="241.5" r="5.5" style="fill: #0e0e0e"/>
        <path d="M97.5,247.3a5.8,5.8,0,1,1,5.8-5.8h0A5.80417,5.80417,0,0,1,97.5,247.3Zm0-11a5.2,5.2,0,1,0,5.2,5.2A5.16443,5.16443,0,0,0,97.5,236.3Z" style="fill: #2b2b2b"/>
      </g>
    </g>
    <g>
      <g>
        <circle cx="97.5" cy="272.5" r="11.2" style="fill: #e5e5e5"/>
        <path d="M97.5,261.6a10.9,10.9,0,1,1-10.9,10.9h0a10.92558,10.92558,0,0,1,10.9-10.9m0-.6A11.5,11.5,0,1,0,109,272.5h0A11.4382,11.4382,0,0,0,97.5,261Z" style="fill: #878787"/>
      </g>
      <path d="M97.5,263.3a9.2,9.2,0,1,0,9.2,9.2A9.17581,9.17581,0,0,0,97.5,263.3Zm0,16.8a7.6,7.6,0,1,1,7.6-7.6,7.59663,7.59663,0,0,1-7.6,7.6Z" style="fill: #969696"/>
      <g>
        <circle cx="97.5" cy="272.5" r="5.5" style="fill: #0e0e0e"/>
        <path d="M97.5,278.3a5.8,5.8,0,1,1,5.8-5.8A5.80417,5.80417,0,0,1,97.5,278.3Zm0-11a5.2,5.2,0,1,0,5.2,5.2A5.16442,5.16442,0,0,0,97.5,267.3Z" style="fill: #2b2b2b"/>
      </g>
    </g>
    <g>
      <g>
        <circle cx="128.5" cy="272.5" r="11.2" style="fill: #e5e5e5"/>
        <path d="M128.5,261.6a10.9,10.9,0,1,1-10.9,10.9h0a10.92558,10.92558,0,0,1,10.9-10.9m0-.6A11.5,11.5,0,1,0,140,272.5h0A11.4382,11.4382,0,0,0,128.5,261Z" style="fill: #878787"/>
      </g>
      <path d="M128.5,263.3a9.2,9.2,0,1,0,9.2,9.2A9.17581,9.17581,0,0,0,128.5,263.3Zm0,16.8a7.6,7.6,0,1,1,7.6-7.6,7.59663,7.59663,0,0,1-7.6,7.6Z" style="fill: #969696"/>
      <g>
        <circle cx="128.50429" cy="272.49794" r="5.50009" style="fill: #0e0e0e"/>
        <path d="M128.5,278.3a5.8,5.8,0,1,1,5.8-5.8A5.80417,5.80417,0,0,1,128.5,278.3Zm0-11a5.2,5.2,0,1,0,5.2,5.2A5.16442,5.16442,0,0,0,128.5,267.3Z" style="fill: #2b2b2b"/>
      </g>
    </g>
    <g>
      <g>
        <circle cx="97.5" cy="302.5" r="11.2" style="fill: #e5e5e5"/>
        <path d="M97.5,291.6a10.9,10.9,0,1,1-10.9,10.9h0a10.92558,10.92558,0,0,1,10.9-10.9m0-.6A11.5,11.5,0,1,0,109,302.5h0A11.4382,11.4382,0,0,0,97.5,291Z" style="fill: #878787"/>
      </g>
      <path d="M97.5,293.3a9.2,9.2,0,1,0,9.2,9.2A9.17581,9.17581,0,0,0,97.5,293.3Zm0,16.8a7.6,7.6,0,1,1,7.6-7.6,7.59663,7.59663,0,0,1-7.6,7.6Z" style="fill: #969696"/>
      <g>
        <circle cx="97.5" cy="302.5" r="5.5" style="fill: #0e0e0e"/>
        <path d="M97.5,308.3a5.8,5.8,0,1,1,5.8-5.8A5.80417,5.80417,0,0,1,97.5,308.3Zm0-11a5.2,5.2,0,1,0,5.2,5.2A5.16442,5.16442,0,0,0,97.5,297.3Z" style="fill: #2b2b2b"/>
      </g>
    </g>
    <g>
      <g>
        <circle cx="67.5" cy="272.5" r="11.20001" transform="matrix(0.03328, -0.99945, 0.99945, 0.03328, -207.09533, 330.89437)" style="fill: #e5e5e5"/>
        <path d="M67.5,261.6a10.9,10.9,0,1,1-10.9,10.9h0a10.92558,10.92558,0,0,1,10.9-10.9m0-.6A11.5,11.5,0,1,0,79,272.5h0A11.4382,11.4382,0,0,0,67.5,261Z" style="fill: #878787"/>
      </g>
      <path d="M67.5,263.3a9.2,9.2,0,1,0,9.2,9.2A9.17581,9.17581,0,0,0,67.5,263.3Zm0,16.8a7.6,7.6,0,1,1,7.6-7.6,7.59663,7.59663,0,0,1-7.6,7.6Z" style="fill: #969696"/>
      <g>
        <circle cx="67.50202" cy="272.50827" r="5.50017" style="fill: #0e0e0e"/>
        <path d="M67.5,278.3a5.8,5.8,0,1,1,5.8-5.8A5.80417,5.80417,0,0,1,67.5,278.3Zm0-11a5.2,5.2,0,1,0,5.2,5.2A5.16442,5.16442,0,0,0,67.5,267.3Z" style="fill: #2b2b2b"/>
      </g>
    </g>
  </g>
  <g id="KNOBS">
    <g>
      <path d="M110.8,46.3a.4575.4575,0,0,0-.5-.4h0a.43016.43016,0,0,1-.4-.4,13.08943,13.08943,0,0,0-1.5-3.7.47109.47109,0,0,1,.1-.6h0a.48333.48333,0,0,0,0-.7,13.03436,13.03436,0,0,0-3.1-3.1.85417.85417,0,0,0-.7,0h0a.47108.47108,0,0,1-.6.1,12.00085,12.00085,0,0,0-3.7-1.5c-.2-.1-.4-.2-.3-.5h0c0-.2-.2-.5-.4-.5a16.20369,16.20369,0,0,0-4.4,0,.45752.45752,0,0,0-.4.5h0a.54993.54993,0,0,1-.3.5,12.00075,12.00075,0,0,0-3.7,1.5.47111.47111,0,0,1-.6-.1h0a.48332.48332,0,0,0-.7,0,13.03436,13.03436,0,0,0-3.1,3.1.48333.48333,0,0,0,0,.7h0a.47111.47111,0,0,1,.1.6,12.00065,12.00065,0,0,0-1.5,3.7.43016.43016,0,0,1-.4.4h-.1a.6644.6644,0,0,0-.5.4,16.22024,16.22024,0,0,0,.1,4.4.4575.4575,0,0,0,.5.4h.1a.51032.51032,0,0,1,.5.4,11.44705,11.44705,0,0,0,1.5,3.6.47111.47111,0,0,1-.1.6h-.1a.48333.48333,0,0,0,0,.7,13.03436,13.03436,0,0,0,3.1,3.1.85414.85414,0,0,0,.7,0l.1-.1a.47109.47109,0,0,1,.6-.1,11.44705,11.44705,0,0,0,3.6,1.5c.2.1.4.2.4.5v.1c0,.2.2.5.4.5a16.20369,16.20369,0,0,0,4.4,0,.45752.45752,0,0,0,.4-.5v-.1a.5103.5103,0,0,1,.4-.5,11.44705,11.44705,0,0,0,3.6-1.5.47108.47108,0,0,1,.6.1l.1.1a.48333.48333,0,0,0,.7,0,13.03436,13.03436,0,0,0,3.1-3.1.48335.48335,0,0,0,0-.7h-.1a.47109.47109,0,0,1-.1-.6,12.51057,12.51057,0,0,0,1.5-3.6c.1-.2.2-.4.5-.4h.1c.2,0,.5-.2.5-.4a16.40741,16.40741,0,0,0-.4-4.4Z" style="fill: #2d2d2d"/>
      <path d="M110.8,46.3a.4575.4575,0,0,0-.5-.4h-2.1a.96051.96051,0,0,1-.9-.7c-.2-.5-.4-.9-.6-1.4a.91287.91287,0,0,1,.2-1.1l1.5-1.5a.48333.48333,0,0,0,0-.7,13.03436,13.03436,0,0,0-3.1-3.1.85414.85414,0,0,0-.7,0l-1.5,1.5a.91285.91285,0,0,1-1.1.2c-.4-.2-.9-.4-1.4-.6a1.10719,1.10719,0,0,1-.7-.9V35.5c0-.2-.2-.5-.4-.5a16.20369,16.20369,0,0,0-4.4,0,.45752.45752,0,0,0-.4.5v2.1a.96052.96052,0,0,1-.7.9c-.5.2-.9.4-1.4.6a.91284.91284,0,0,1-1.1-.2L90,37.4a.48333.48333,0,0,0-.7,0,13.03436,13.03436,0,0,0-3.1,3.1.48335.48335,0,0,0,0,.7l1.5,1.5a.91283.91283,0,0,1,.2,1.1c-.2.4-.4.9-.6,1.4a1.1072,1.1072,0,0,1-.9.7h-2a.66441.66441,0,0,0-.5.4,16.20369,16.20369,0,0,0,0,4.4.45751.45751,0,0,0,.5.4h2.1a.96051.96051,0,0,1,.9.7c.2.5.4.9.6,1.4a.91286.91286,0,0,1-.2,1.1l-1.5,1.5a.48333.48333,0,0,0,0,.7,13.03436,13.03436,0,0,0,3.1,3.1.85417.85417,0,0,0,.7,0l1.5-1.5a.91283.91283,0,0,1,1.1-.2c.4.2.9.4,1.4.6a1.10719,1.10719,0,0,1,.7.9v2.1c0,.2.2.5.4.5a16.20376,16.20376,0,0,0,4.4,0,.45752.45752,0,0,0,.4-.5V59.4a.96052.96052,0,0,1,.7-.9c.5-.2.9-.4,1.4-.6a.91283.91283,0,0,1,1.1.2l1.5,1.5a.48333.48333,0,0,0,.7,0,13.03436,13.03436,0,0,0,3.1-3.1.48333.48333,0,0,0,0-.7L107,54.3a.91284.91284,0,0,1-.2-1.1c.2-.4.4-.9.6-1.4a1.1072,1.1072,0,0,1,.9-.7h2.1c.2,0,.5-.2.5-.4a16.20369,16.20369,0,0,0,0-4.4Z" style="fill: #3d3d3d"/>
      <circle cx="97.5" cy="48.5" r="10.3" style="fill: #545454"/>
      <path d="M98.8,35.1V48.5H96.2V35.1a8.5,8.5,0,0,1,2.6,0Z" style="fill: #f3f3f3"/>
      <g>
        <path d="M96.2,35.1v4.2a.96052.96052,0,0,1-.7.9,8.63481,8.63481,0,1,0,4,0,.96051.96051,0,0,1-.7-.9V35.1" style="fill: #f3f3f3"/>
        <path d="M97.5,57.4h-.4a8.87822,8.87822,0,0,1-1.6-17.5.63378.63378,0,0,0,.5-.6V35.1h.6v4.2a1.18781,1.18781,0,0,1-1,1.2,8.28281,8.28281,0,1,0,3.9,0,1.18779,1.18779,0,0,1-1-1.2V35.1H99v4.2a.56.56,0,0,0,.5.6,8.87079,8.87079,0,0,1,6.6,10.7A9.09026,9.09026,0,0,1,97.5,57.4Z" style="fill: #b2b2b2"/>
      </g>
    </g>
    <g>
      <path d="M160.1,121.8c.2,0,.4-.3.4-.5h0a.36631.36631,0,0,1,.4-.4,10.90967,10.90967,0,0,0,3.5-1.5.4711.4711,0,0,1,.6.1h0a.375.375,0,0,0,.6,0,12.59694,12.59694,0,0,0,3-3.1.61594.61594,0,0,0-.1-.7h0a.66123.66123,0,0,1-.1-.6,12.00085,12.00085,0,0,0,1.5-3.7c0-.2.2-.3.4-.3h0a.66444.66444,0,0,0,.5-.4,16.20449,16.20449,0,0,0,0-4.4.45752.45752,0,0,0-.5-.4h0c-.2,0-.4-.1-.4-.3a12.00075,12.00075,0,0,0-1.5-3.7.47108.47108,0,0,1,.1-.6h0a.59248.59248,0,0,0,.1-.7,11.51111,11.51111,0,0,0-1.4-1.7,10.70373,10.70373,0,0,0-1.6-1.4.375.375,0,0,0-.6,0h0c-.1.2-.4.2-.6.1a11.94842,11.94842,0,0,0-3.5-1.5.43016.43016,0,0,1-.4-.4v-.1a.6644.6644,0,0,0-.4-.5,15.483,15.483,0,0,0-2.2-.1,14.92084,14.92084,0,0,0-2.1.2c-.2,0-.4.3-.4.5v.1a.51032.51032,0,0,1-.4.5,11.949,11.949,0,0,0-3.5,1.5.4711.4711,0,0,1-.6-.1l-.1-.1a.375.375,0,0,0-.6,0,10.70331,10.70331,0,0,0-1.6,1.4,11.51086,11.51086,0,0,0-1.4,1.7.61592.61592,0,0,0,.1.7l.1.1a.4711.4711,0,0,1,.1.6,9.33663,9.33663,0,0,0-1.4,3.6.43016.43016,0,0,1-.4.4h-.1a.66443.66443,0,0,0-.5.4,16.20369,16.20369,0,0,0,0,4.4.45751.45751,0,0,0,.5.4h.1a.43016.43016,0,0,1,.4.4,14.18784,14.18784,0,0,0,1.4,3.6.47108.47108,0,0,1-.1.6l-.1.1a.5925.5925,0,0,0-.1.7,12.59693,12.59693,0,0,0,3,3.1.375.375,0,0,0,.6,0l.1-.1c.1-.2.4-.2.6-.1a11.94842,11.94842,0,0,0,3.5,1.5c.2.1.4.2.4.5v.1a.66444.66444,0,0,0,.4.5,15.32876,15.32876,0,0,0,4.3-.4Z" style="fill: #2d2d2d"/>
      <path d="M160.1,121.8c.2,0,.4-.3.4-.5v-2.1a1.0128,1.0128,0,0,1,.6-.9c.5-.2.9-.4,1.3-.6a.91289.91289,0,0,1,1.1.2l1.4,1.5a.375.375,0,0,0,.6,0,12.59694,12.59694,0,0,0,3-3.1.61592.61592,0,0,0-.1-.7l-1.4-1.5a.91283.91283,0,0,1-.2-1.1c.2-.4.4-.9.6-1.4a1.1072,1.1072,0,0,1,.9-.7h2a.66443.66443,0,0,0,.5-.4,16.20369,16.20369,0,0,0,0-4.4.45752.45752,0,0,0-.5-.4h-2a.96052.96052,0,0,1-.9-.7,4.235,4.235,0,0,0-.6-1.4.91283.91283,0,0,1,.2-1.1l1.4-1.5a.59249.59249,0,0,0,.1-.7,11.51111,11.51111,0,0,0-1.4-1.7,10.70373,10.70373,0,0,0-1.6-1.4.375.375,0,0,0-.6,0l-1.4,1.5a.91285.91285,0,0,1-1.1.2c-.4-.2-.9-.4-1.3-.6a.961.961,0,0,1-.6-.9v-2a.66442.66442,0,0,0-.4-.5,11.12511,11.12511,0,0,0-4.2,0c-.2,0-.4.3-.4.5v2.1a1.0128,1.0128,0,0,1-.6.9c-.5.2-.9.4-1.3.6a.91288.91288,0,0,1-1.1-.2L151,97.3a.375.375,0,0,0-.6,0,10.70331,10.70331,0,0,0-1.6,1.4,11.51042,11.51042,0,0,0-1.4,1.7.61592.61592,0,0,0,.1.7l1.4,1.5a.91284.91284,0,0,1,.2,1.1c-.2.4-.4.9-.6,1.4a1.10721,1.10721,0,0,1-.9.7h-2a.66441.66441,0,0,0-.5.4,16.20376,16.20376,0,0,0,0,4.4.45751.45751,0,0,0,.5.4h2a.9605.9605,0,0,1,.9.7,4.23513,4.23513,0,0,0,.6,1.4.91284.91284,0,0,1-.2,1.1l-1.4,1.5a.59251.59251,0,0,0-.1.7,12.59658,12.59658,0,0,0,3,3.1.375.375,0,0,0,.6,0l1.4-1.5a.91284.91284,0,0,1,1.1-.2c.4.2.9.4,1.3.6a.961.961,0,0,1,.6.9v2.1a.66441.66441,0,0,0,.4.5,14.77493,14.77493,0,0,0,4.2,0Z" style="fill: #3d3d3d"/>
      <ellipse cx="158" cy="108.5" rx="10" ry="10.3" style="fill: #545454"/>
      <path d="M170.9,109.8H158v-2.6h12.9a8.49916,8.49916,0,0,1,0,2.6Z" style="fill: #f3f3f3"/>
      <g>
        <path d="M170.9,107.2h-4a.96051.96051,0,0,1-.9-.7,8.37658,8.37658,0,0,0-8.3-6.6,8.61472,8.61472,0,0,0,.2,17.2,8.33286,8.33286,0,0,0,8-6.6.96052.96052,0,0,1,.9-.7h4" style="fill: #f3f3f3"/>
        <path d="M158,117.4a8.72022,8.72022,0,0,1-6.1-2.6,9.18931,9.18931,0,0,1-2.5-6.7,8.7842,8.7842,0,0,1,8.3-8.4,8.49135,8.49135,0,0,1,8.5,6.8.63378.63378,0,0,0,.6.5h4v.6h-4a1.29177,1.29177,0,0,1-1.2-.9,8.04679,8.04679,0,0,0-8-6.3,8.24717,8.24717,0,0,0-7.8,7.9,8.65524,8.65524,0,0,0,2.3,6.3,7.62873,7.62873,0,0,0,5.7,2.4,7.91945,7.91945,0,0,0,7.7-6.3,1.10753,1.10753,0,0,1,1.2-.9h4v.6h-4a.56.56,0,0,0-.6.5A8.39247,8.39247,0,0,1,158,117.4Z" style="fill: #b2b2b2"/>
      </g>
    </g>
    <g>
      <path d="M84.2,171.7a.4575.4575,0,0,0,.5.4h0a.43016.43016,0,0,1,.4.4,13.08931,13.08931,0,0,0,1.5,3.7.4711.4711,0,0,1-.1.6h0c-.2.2-.2.5,0,.6a13.03458,13.03458,0,0,0,3.1,3.1.6159.6159,0,0,0,.7-.1h0a.4711.4711,0,0,1,.6-.1,12.00134,12.00134,0,0,0,3.7,1.5c.2.1.4.2.3.4h0c0,.2.2.5.4.5a16.20369,16.20369,0,0,0,4.4,0,.45752.45752,0,0,0,.4-.5h0c0-.2.1-.4.3-.4a12.00124,12.00124,0,0,0,3.7-1.5.47106.47106,0,0,1,.6.1h0a.616.616,0,0,0,.7.1,13.034,13.034,0,0,0,3.1-3.1c.2-.2.2-.5,0-.6h0a.47112.47112,0,0,1-.1-.6,12.00065,12.00065,0,0,0,1.5-3.7.43016.43016,0,0,1,.4-.4h.1a.6644.6644,0,0,0,.5-.4,12.2,12.2,0,0,0,0-4.4.4575.4575,0,0,0-.5-.4h-.1a.51031.51031,0,0,1-.5-.4,11.44758,11.44758,0,0,0-1.5-3.6.47111.47111,0,0,1,.1-.6h.1c.2-.2.2-.5,0-.6a13.03458,13.03458,0,0,0-3.1-3.1.61589.61589,0,0,0-.7.1l-.1.1a.4711.4711,0,0,1-.6.1,11.44705,11.44705,0,0,0-3.6-1.5c-.2-.1-.4-.2-.4-.5v-.1c0-.2-.2-.5-.4-.5a16.20449,16.20449,0,0,0-4.4,0,.45751.45751,0,0,0-.4.5v.1a.51032.51032,0,0,1-.4.5,11.4469,11.4469,0,0,0-3.6,1.5.47105.47105,0,0,1-.6-.1l-.1-.1a.616.616,0,0,0-.7-.1,13.034,13.034,0,0,0-3.1,3.1c-.2.2-.2.5,0,.6h.1a.4711.4711,0,0,1,.1.6,12.51051,12.51051,0,0,0-1.5,3.6c-.1.2-.2.4-.5.4h-.1c-.2,0-.5.2-.5.4A21.71715,21.71715,0,0,0,84.2,171.7Z" style="fill: #2d2d2d"/>
      <path d="M84.2,171.7a.4575.4575,0,0,0,.5.4h2.1a1.0128,1.0128,0,0,1,.9.6c.2.5.4.9.6,1.4a.91289.91289,0,0,1-.2,1.1l-1.5,1.5c-.2.2-.2.5,0,.6a13.03458,13.03458,0,0,0,3.1,3.1.61589.61589,0,0,0,.7-.1l1.5-1.5a.91285.91285,0,0,1,1.1-.2c.4.2.9.4,1.4.6a1.1072,1.1072,0,0,1,.7.9v2.1c0,.2.2.5.4.5a16.20369,16.20369,0,0,0,4.4,0,.45751.45751,0,0,0,.4-.5v-2.1a.96051.96051,0,0,1,.7-.9c.5-.2.9-.4,1.4-.6a.91284.91284,0,0,1,1.1.2l1.5,1.5a.616.616,0,0,0,.7.1,13.034,13.034,0,0,0,3.1-3.1c.2-.2.2-.5,0-.6l-1.5-1.5a.91285.91285,0,0,1-.2-1.1c.2-.4.4-.9.6-1.4a.87459.87459,0,0,1,.9-.6h2.1a.66442.66442,0,0,0,.5-.4,16.20369,16.20369,0,0,0,0-4.4.45751.45751,0,0,0-.5-.4h-2.1a1.0128,1.0128,0,0,1-.9-.6c-.2-.5-.4-.9-.6-1.4a.91286.91286,0,0,1,.2-1.1l1.5-1.5c.2-.2.2-.5,0-.6a13.03477,13.03477,0,0,0-3.1-3.1.6159.6159,0,0,0-.7.1l-1.5,1.5a.91284.91284,0,0,1-1.1.2c-.4-.2-.9-.4-1.4-.6a1.10719,1.10719,0,0,1-.7-.9v-2.1c0-.2-.2-.5-.4-.5a16.20369,16.20369,0,0,0-4.4,0,.45751.45751,0,0,0-.4.5v2.1a.9605.9605,0,0,1-.7.9c-.5.2-.9.4-1.4.6a.91284.91284,0,0,1-1.1-.2l-1.5-1.5a.616.616,0,0,0-.7-.1,13.034,13.034,0,0,0-3.1,3.1c-.2.2-.2.5,0,.6l1.5,1.5a.91286.91286,0,0,1,.2,1.1c-.2.4-.4.9-.6,1.4a.87459.87459,0,0,1-.9.6H84.7c-.2,0-.5.2-.5.4A10.86806,10.86806,0,0,0,84.2,171.7Z" style="fill: #3d3d3d"/>
      <circle cx="97.5" cy="169.5" r="10.3" style="fill: #545454"/>
      <path d="M96.2,182.9V169.5h2.6v13.4a8.49916,8.49916,0,0,1-2.6,0Z" style="fill: #f3f3f3"/>
      <g>
        <path d="M98.8,182.9v-4.2a.96052.96052,0,0,1,.7-.9,8.63482,8.63482,0,1,0-4,0,.96052.96052,0,0,1,.7.9v4.2" style="fill: #f3f3f3"/>
        <path d="M99.1,182.9h-.6v-4.2a1.18779,1.18779,0,0,1,1-1.2,8.28281,8.28281,0,1,0-3.9,0,1.18782,1.18782,0,0,1,1,1.2v4.2H96v-4.2a.56.56,0,0,0-.5-.6,8.85268,8.85268,0,1,1,4.2,0,.63378.63378,0,0,0-.5.6Z" style="fill: #b2b2b2"/>
      </g>
    </g>
    <g>
      <path d="M34.9,95.2c-.2,0-.4.3-.4.5h0a.3663.3663,0,0,1-.4.4,10.90977,10.90977,0,0,0-3.5,1.5.47109.47109,0,0,1-.6-.1h0a.375.375,0,0,0-.6,0,12.59658,12.59658,0,0,0-3,3.1.616.616,0,0,0,.1.7h0a.66123.66123,0,0,1,.1.6,12.00085,12.00085,0,0,0-1.5,3.7c0,.2-.2.3-.4.3h0a.6644.6644,0,0,0-.5.4,16.20369,16.20369,0,0,0,0,4.4.45752.45752,0,0,0,.5.4h0c.2,0,.4.1.4.3a12.00075,12.00075,0,0,0,1.5,3.7.47109.47109,0,0,1-.1.6h0a.59246.59246,0,0,0-.1.7,11.51111,11.51111,0,0,0,1.4,1.7,10.70373,10.70373,0,0,0,1.6,1.4.375.375,0,0,0,.6,0h0c.1-.2.4-.2.6-.1a11.94842,11.94842,0,0,0,3.5,1.5.43016.43016,0,0,1,.4.4v.1a.6644.6644,0,0,0,.4.5,15.483,15.483,0,0,0,2.2.1,14.92042,14.92042,0,0,0,2.1-.2c.2,0,.4-.3.4-.5v-.1a.54993.54993,0,0,1,.3-.5,11.949,11.949,0,0,0,3.5-1.5.47109.47109,0,0,1,.6.1l.1.1a.375.375,0,0,0,.6,0,10.70373,10.70373,0,0,0,1.6-1.4,11.51155,11.51155,0,0,0,1.4-1.7.616.616,0,0,0-.1-.7l-.1-.1a.47109.47109,0,0,1-.1-.6,11.44705,11.44705,0,0,0,1.5-3.6.43016.43016,0,0,1,.4-.4h.1a.66441.66441,0,0,0,.5-.4,16.20369,16.20369,0,0,0,0-4.4.45751.45751,0,0,0-.5-.4h-.1a.43016.43016,0,0,1-.4-.4,11.447,11.447,0,0,0-1.5-3.6.47109.47109,0,0,1,.1-.6l.1-.1a.59247.59247,0,0,0,.1-.7,12.59693,12.59693,0,0,0-3-3.1.375.375,0,0,0-.6,0l-.1.1c-.1.2-.4.2-.6.1a11.94842,11.94842,0,0,0-3.5-1.5c-.2-.1-.4-.2-.3-.5v-.1a.66443.66443,0,0,0-.4-.5,15.32865,15.32865,0,0,0-4.3.4Z" style="fill: #2d2d2d"/>
      <path d="M34.9,95.2c-.2,0-.4.3-.4.5v2.1a1.01281,1.01281,0,0,1-.6.9c-.5.2-.9.4-1.3.6a.91287.91287,0,0,1-1.1-.2L30,97.6a.375.375,0,0,0-.6,0,12.59658,12.59658,0,0,0-3,3.1.61593.61593,0,0,0,.1.7l1.4,1.5a.91285.91285,0,0,1,.2,1.1,5.78249,5.78249,0,0,0-.5,1.4,1.10719,1.10719,0,0,1-.9.7h-2a.66441.66441,0,0,0-.5.4,16.20369,16.20369,0,0,0,0,4.4.45752.45752,0,0,0,.5.4h2a.96052.96052,0,0,1,.9.7,7.8378,7.8378,0,0,0,.5,1.4.91284.91284,0,0,1-.2,1.1L26.5,116a.59247.59247,0,0,0-.1.7,11.51111,11.51111,0,0,0,1.4,1.7,10.70373,10.70373,0,0,0,1.6,1.4.375.375,0,0,0,.6,0l1.4-1.5a.91283.91283,0,0,1,1.1-.2c.4.2.9.4,1.3.6a.961.961,0,0,1,.6.9v2.1a.66441.66441,0,0,0,.4.5,15.483,15.483,0,0,0,2.2.1,14.919,14.919,0,0,0,2.1-.2c.2,0,.4-.3.4-.5v-2.1a1.01281,1.01281,0,0,1,.6-.9c.5-.2.9-.4,1.3-.6a.91286.91286,0,0,1,1.1.2l1.5,1.5a.375.375,0,0,0,.6,0,10.70373,10.70373,0,0,0,1.6-1.4,11.51111,11.51111,0,0,0,1.4-1.7.616.616,0,0,0-.1-.7l-1.4-1.5a.91284.91284,0,0,1-.2-1.1,5.7823,5.7823,0,0,0,.5-1.4,1.10719,1.10719,0,0,1,.9-.7h2a.66441.66441,0,0,0,.5-.4,16.20376,16.20376,0,0,0,0-4.4.45752.45752,0,0,0-.5-.4h-2a.96053.96053,0,0,1-.9-.7,7.83711,7.83711,0,0,0-.5-1.4.91284.91284,0,0,1,.2-1.1l1.4-1.5a.59246.59246,0,0,0,.1-.7,12.59622,12.59622,0,0,0-3-3.1.375.375,0,0,0-.6,0L42.5,99a.91284.91284,0,0,1-1.1.2c-.4-.2-.9-.4-1.3-.6a.961.961,0,0,1-.6-.9V95.6a.66441.66441,0,0,0-.4-.5,14.775,14.775,0,0,0-4.2,0Z" style="fill: #3d3d3d"/>
      <ellipse cx="37" cy="108.5" rx="10" ry="10.3" style="fill: #545454"/>
      <path d="M24.1,107.2H37v2.6H24.1a8.5,8.5,0,0,1,0-2.6Z" style="fill: #f3f3f3"/>
      <g>
        <path d="M24.1,109.8h4a.96052.96052,0,0,1,.9.7,8.34762,8.34762,0,0,0,8.2,6.6A8.61472,8.61472,0,0,0,37,99.9a8.33286,8.33286,0,0,0-8,6.6.96051.96051,0,0,1-.9.7h-4" style="fill: #f3f3f3"/>
        <path d="M37,117.4a8.745,8.745,0,0,1-8.3-6.8.63378.63378,0,0,0-.6-.5h-4v-.6h4a1.29178,1.29178,0,0,1,1.2.9,8.04677,8.04677,0,0,0,8,6.3,8.24714,8.24714,0,0,0,7.8-7.9,8.65525,8.65525,0,0,0-2.3-6.3,7.72161,7.72161,0,0,0-5.7-2.5,7.91945,7.91945,0,0,0-7.7,6.3,1.10751,1.10751,0,0,1-1.2.9h-4v-.6h4a.56.56,0,0,0,.6-.5,8.46213,8.46213,0,0,1,14.4-4.2,9.18929,9.18929,0,0,1,2.5,6.7,8.78418,8.78418,0,0,1-8.3,8.4Z" style="fill: #b2b2b2"/>
      </g>
    </g>
    <g>
      <path d="M110.8,209.3a.4575.4575,0,0,0-.5-.4h0a.43016.43016,0,0,1-.4-.4,13.08931,13.08931,0,0,0-1.5-3.7.4711.4711,0,0,1,.1-.6h0c.2-.2.2-.5,0-.6a13.03458,13.03458,0,0,0-3.1-3.1.6159.6159,0,0,0-.7.1h0a.4711.4711,0,0,1-.6.1,12.00134,12.00134,0,0,0-3.7-1.5c-.2-.1-.4-.2-.3-.4h0c0-.2-.2-.5-.4-.5a16.20369,16.20369,0,0,0-4.4,0,.45752.45752,0,0,0-.4.5h0c0,.2-.1.4-.3.4a12.00124,12.00124,0,0,0-3.7,1.5.47106.47106,0,0,1-.6-.1h0a.616.616,0,0,0-.7-.1,13.034,13.034,0,0,0-3.1,3.1c-.2.2-.2.5,0,.6h0a.47112.47112,0,0,1,.1.6,12.00065,12.00065,0,0,0-1.5,3.7.43016.43016,0,0,1-.4.4h-.1a.6644.6644,0,0,0-.5.4,16.22131,16.22131,0,0,0,.1,4.4.45751.45751,0,0,0,.5.4h.1a.51032.51032,0,0,1,.5.4,11.44758,11.44758,0,0,0,1.5,3.6.4711.4711,0,0,1-.1.6h-.1c-.2.2-.2.5,0,.6a13.03472,13.03472,0,0,0,3.1,3.1.6159.6159,0,0,0,.7-.1l.1-.1a.4711.4711,0,0,1,.6-.1,11.44705,11.44705,0,0,0,3.6,1.5c.2.1.4.2.4.5v.1c0,.2.2.5.4.5a16.20449,16.20449,0,0,0,4.4,0,.45751.45751,0,0,0,.4-.5v-.1a.51032.51032,0,0,1,.4-.5,11.447,11.447,0,0,0,3.6-1.5.47106.47106,0,0,1,.6.1l.1.1a.616.616,0,0,0,.7.1,13.03441,13.03441,0,0,0,3.1-3.1c.2-.2.2-.5,0-.6h-.1a.4711.4711,0,0,1-.1-.6,12.51051,12.51051,0,0,0,1.5-3.6c.1-.2.2-.4.5-.4h.1c.2,0,.5-.2.5-.4a16.40783,16.40783,0,0,0-.4-4.4Z" style="fill: #2d2d2d"/>
      <path d="M110.8,209.3a.4575.4575,0,0,0-.5-.4h-2.1a1.0128,1.0128,0,0,1-.9-.6c-.2-.5-.4-.9-.6-1.4a.91289.91289,0,0,1,.2-1.1l1.5-1.5c.2-.2.2-.5,0-.6a13.03458,13.03458,0,0,0-3.1-3.1.61589.61589,0,0,0-.7.1l-1.5,1.5a.91285.91285,0,0,1-1.1.2c-.4-.2-.9-.4-1.4-.6a1.1072,1.1072,0,0,1-.7-.9v-2.1c0-.2-.2-.5-.4-.5a16.20369,16.20369,0,0,0-4.4,0,.45751.45751,0,0,0-.4.5v2.1a.96051.96051,0,0,1-.7.9c-.5.2-.9.4-1.4.6a.91284.91284,0,0,1-1.1-.2L90,200.7a.616.616,0,0,0-.7-.1,13.034,13.034,0,0,0-3.1,3.1c-.2.2-.2.5,0,.6l1.5,1.5a.91285.91285,0,0,1,.2,1.1c-.2.4-.4.9-.6,1.4a.87459.87459,0,0,1-.9.6h-2a.66442.66442,0,0,0-.5.4,16.20369,16.20369,0,0,0,0,4.4.45751.45751,0,0,0,.5.4h2.1a1.0128,1.0128,0,0,1,.9.6c.2.5.4.9.6,1.4a.91288.91288,0,0,1-.2,1.1l-1.5,1.5c-.2.2-.2.5,0,.6a13.03458,13.03458,0,0,0,3.1,3.1.6159.6159,0,0,0,.7-.1l1.5-1.5a.91283.91283,0,0,1,1.1-.2c.4.2.9.4,1.4.6a1.10721,1.10721,0,0,1,.7.9v2.1c0,.2.2.5.4.5a16.20376,16.20376,0,0,0,4.4,0,.45751.45751,0,0,0,.4-.5v-2.1a.96051.96051,0,0,1,.7-.9c.5-.2.9-.4,1.4-.6a.91283.91283,0,0,1,1.1.2l1.5,1.5a.616.616,0,0,0,.7.1,13.034,13.034,0,0,0,3.1-3.1c.2-.2.2-.5,0-.6l-1.5-1.5a.91286.91286,0,0,1-.2-1.1c.2-.4.4-.9.6-1.4a.87459.87459,0,0,1,.9-.6h2.1c.2,0,.5-.2.5-.4a16.20369,16.20369,0,0,0,0-4.4Z" style="fill: #3d3d3d"/>
      <circle cx="97.5" cy="211.5" r="10.3" style="fill: #545454"/>
      <path d="M98.8,198.1v13.4H96.2V198.1a8.49916,8.49916,0,0,1,2.6,0Z" style="fill: #f3f3f3"/>
      <g>
        <path d="M96.2,198.1v4.2a.96052.96052,0,0,1-.7.9,8.63482,8.63482,0,1,0,4,0,.96052.96052,0,0,1-.7-.9v-4.2" style="fill: #f3f3f3"/>
        <path d="M97.5,220.4h-.4a8.87822,8.87822,0,0,1-1.6-17.5.63378.63378,0,0,0,.5-.6v-4.2h.6v4.2a1.18779,1.18779,0,0,1-1,1.2,8.28281,8.28281,0,1,0,3.9,0,1.18781,1.18781,0,0,1-1-1.2v-4.2H99v4.2a.56.56,0,0,0,.5.6,8.88057,8.88057,0,0,1-2,17.5Z" style="fill: #b2b2b2"/>
      </g>
    </g>
    <g>
      <path d="M160.1,285.8c.2,0,.4-.3.4-.5h0a.51031.51031,0,0,1,.4-.5,10.90923,10.90923,0,0,0,3.5-1.5.47108.47108,0,0,1,.6.1h0a.375.375,0,0,0,.6,0,12.59659,12.59659,0,0,0,3-3.1c.1-.2.1-.5-.1-.6h0a.66125.66125,0,0,1-.1-.6,12.00076,12.00076,0,0,0,1.5-3.7c0-.2.2-.3.4-.4h0a.66447.66447,0,0,0,.5-.4,16.20449,16.20449,0,0,0,0-4.4.4575.4575,0,0,0-.5-.4h0a.3663.3663,0,0,1-.4-.4,12.00111,12.00111,0,0,0-1.5-3.7.47108.47108,0,0,1,.1-.6h0a.47112.47112,0,0,0,.1-.6,11.51068,11.51068,0,0,0-1.4-1.7,10.70373,10.70373,0,0,0-1.6-1.4.375.375,0,0,0-.6,0h0c-.1.2-.4.2-.6.1a11.94788,11.94788,0,0,0-3.5-1.5.45752.45752,0,0,1-.4-.5v-.1a.66442.66442,0,0,0-.4-.5,15.483,15.483,0,0,0-2.2-.1,14.9179,14.9179,0,0,0-2.1.2c-.2,0-.4.3-.4.5v.1a.51032.51032,0,0,1-.4.5,11.94735,11.94735,0,0,0-3.5,1.5.47109.47109,0,0,1-.6-.1l-.1-.1a.375.375,0,0,0-.6,0,10.70331,10.70331,0,0,0-1.6,1.4,11.51,11.51,0,0,0-1.4,1.7c-.1.2-.1.5.1.6l.1.1a.47112.47112,0,0,1,.1.6,9.33657,9.33657,0,0,0-1.4,3.6.43014.43014,0,0,1-.4.4h-.1a.66446.66446,0,0,0-.5.4,16.20369,16.20369,0,0,0,0,4.4.4575.4575,0,0,0,.5.4h.1a.43016.43016,0,0,1,.4.4,14.18835,14.18835,0,0,0,1.4,3.6.47109.47109,0,0,1-.1.6l-.1.1a.47113.47113,0,0,0-.1.6,12.59623,12.59623,0,0,0,3,3.1.375.375,0,0,0,.6,0l.1-.1c.1-.2.4-.2.6-.1a11.94788,11.94788,0,0,0,3.5,1.5c.2.1.4.2.4.5v.1a.66442.66442,0,0,0,.4.5,7.85157,7.85157,0,0,0,4.3,0Z" style="fill: #2d2d2d"/>
      <path d="M160.1,285.8c.2,0,.4-.3.4-.5v-2.1a1.0128,1.0128,0,0,1,.6-.9c.5-.2.9-.4,1.3-.6a.91284.91284,0,0,1,1.1.2l1.4,1.5a.375.375,0,0,0,.6,0,12.59659,12.59659,0,0,0,3-3.1c.1-.2.1-.5-.1-.6l-1.4-1.5a.91283.91283,0,0,1-.2-1.1c.2-.4.4-.9.6-1.4a.8746.8746,0,0,1,.9-.6h2a.66447.66447,0,0,0,.5-.4,16.20361,16.20361,0,0,0,0-4.4.4575.4575,0,0,0-.5-.4h-2a1.01278,1.01278,0,0,1-.9-.6,4.235,4.235,0,0,0-.6-1.4.91284.91284,0,0,1,.2-1.1l1.4-1.5a.47112.47112,0,0,0,.1-.6,11.5112,11.5112,0,0,0-1.4-1.7,10.7031,10.7031,0,0,0-1.6-1.4.375.375,0,0,0-.6,0l-1.4,1.5a.91292.91292,0,0,1-1.1.2c-.4-.2-.9-.4-1.3-.6a.961.961,0,0,1-.6-.9v-2.1a.66442.66442,0,0,0-.4-.5,14.76878,14.76878,0,0,0-2.1-.1,14.9179,14.9179,0,0,0-2.1.2c-.2,0-.4.3-.4.5v2.1a1.01281,1.01281,0,0,1-.6.9c-.5.2-.9.4-1.3.6a.91281.91281,0,0,1-1.1-.2l-1.5-1.5a.375.375,0,0,0-.6,0,10.70331,10.70331,0,0,0-1.6,1.4,11.51,11.51,0,0,0-1.4,1.7c-.1.2-.1.5.1.6l1.4,1.5a.91287.91287,0,0,1,.2,1.1c-.2.4-.4.9-.6,1.4a.87459.87459,0,0,1-.9.6h-2a.66444.66444,0,0,0-.5.4,16.20369,16.20369,0,0,0,0,4.4.45749.45749,0,0,0,.5.4h2a1.01277,1.01277,0,0,1,.9.6,4.235,4.235,0,0,0,.6,1.4.91288.91288,0,0,1-.2,1.1l-1.4,1.5a.47111.47111,0,0,0-.1.6,12.5961,12.5961,0,0,0,3,3.1.375.375,0,0,0,.6,0l1.4-1.5a.91289.91289,0,0,1,1.1-.2c.4.2.9.4,1.3.6a.961.961,0,0,1,.6.9v2.1a.66438.66438,0,0,0,.4.5,14.77347,14.77347,0,0,0,4.2,0Z" style="fill: #3d3d3d"/>
      <ellipse cx="158" cy="272.5" rx="10" ry="10.29999" style="fill: #545454"/>
      <path d="M170.9,273.8H158v-2.6h12.9a8.49923,8.49923,0,0,1,0,2.6Z" style="fill: #f3f3f3"/>
      <g>
        <path d="M170.9,271.2h-4a.96049.96049,0,0,1-.9-.7,8.19287,8.19287,0,0,0-8.3-6.5,8.61473,8.61473,0,0,0,.2,17.2,8.33285,8.33285,0,0,0,8-6.6.96054.96054,0,0,1,.9-.7h4" style="fill: #f3f3f3"/>
        <path d="M158,281.4a8.72022,8.72022,0,0,1-6.1-2.6,9.18934,9.18934,0,0,1-2.5-6.7,8.78417,8.78417,0,0,1,8.3-8.4,8.67089,8.67089,0,0,1,8.5,6.8.6338.6338,0,0,0,.6.5h4v.6h-4a1.29176,1.29176,0,0,1-1.2-.9,7.94743,7.94743,0,0,0-8-6.3,8.24719,8.24719,0,0,0-7.8,7.9,8.65519,8.65519,0,0,0,2.3,6.3,8.11351,8.11351,0,0,0,5.7,2.5,7.91947,7.91947,0,0,0,7.7-6.3,1.28615,1.28615,0,0,1,1.2-1h4v.6h-4a.56.56,0,0,0-.6.5A8.39246,8.39246,0,0,1,158,281.4Z" style="fill: #b2b2b2"/>
      </g>
    </g>
    <g>
      <path d="M84.2,335.7a.4575.4575,0,0,0,.5.4h0a.43017.43017,0,0,1,.4.4,13.08972,13.08972,0,0,0,1.5,3.7.4711.4711,0,0,1-.1.6h0c-.2.2-.2.5,0,.6a13.03385,13.03385,0,0,0,3.1,3.1.48332.48332,0,0,0,.7,0h0a.47107.47107,0,0,1,.6-.1,11.99987,11.99987,0,0,0,3.7,1.5c.2.1.4.2.3.5h0c0,.2.2.5.4.5a16.20208,16.20208,0,0,0,4.4,0,.45752.45752,0,0,0,.4-.5h0a.54993.54993,0,0,1,.3-.5,11.99977,11.99977,0,0,0,3.7-1.5.47108.47108,0,0,1,.6.1h0a.48331.48331,0,0,0,.7,0,13.03385,13.03385,0,0,0,3.1-3.1c.2-.2.2-.5,0-.6h0a.47113.47113,0,0,1-.1-.6,12.00061,12.00061,0,0,0,1.5-3.7.43014.43014,0,0,1,.4-.4h.1a.66444.66444,0,0,0,.5-.4,12.20011,12.20011,0,0,0,0-4.4.4575.4575,0,0,0-.5-.4h-.1a.5103.5103,0,0,1-.5-.4,11.44777,11.44777,0,0,0-1.5-3.6.4711.4711,0,0,1,.1-.6h.1c.2-.2.2-.5,0-.6a13.034,13.034,0,0,0-3.1-3.1.48329.48329,0,0,0-.7,0l-.1.1a.47108.47108,0,0,1-.6.1,11.44659,11.44659,0,0,0-3.6-1.5c-.2-.1-.4-.2-.4-.5v-.1c0-.2-.2-.5-.4-.5a16.20289,16.20289,0,0,0-4.4,0,.45752.45752,0,0,0-.4.5v.1a.51031.51031,0,0,1-.4.5,11.44644,11.44644,0,0,0-3.6,1.5.47108.47108,0,0,1-.6-.1l-.1-.1a.4833.4833,0,0,0-.7,0,13.03381,13.03381,0,0,0-3.1,3.1c-.2.2-.2.5,0,.6h.1a.47109.47109,0,0,1,.1.6,12.51063,12.51063,0,0,0-1.5,3.6c-.1.2-.2.4-.5.4h-.1c-.2,0-.5.2-.5.4A21.71734,21.71734,0,0,0,84.2,335.7Z" style="fill: #2d2d2d"/>
      <path d="M84.2,335.7a.4575.4575,0,0,0,.5.4h2.1a1.01278,1.01278,0,0,1,.9.6c.2.5.4.9.6,1.4a.91288.91288,0,0,1-.2,1.1l-1.5,1.5c-.2.2-.2.5,0,.6a13.034,13.034,0,0,0,3.1,3.1.48329.48329,0,0,0,.7,0l1.5-1.5a.91291.91291,0,0,1,1.1-.2c.4.2.9.4,1.4.6a1.10718,1.10718,0,0,1,.7.9v2.1c0,.2.2.5.4.5a16.20289,16.20289,0,0,0,4.4,0,.45752.45752,0,0,0,.4-.5v-2.1a.96051.96051,0,0,1,.7-.9c.5-.2.9-.4,1.4-.6a.91281.91281,0,0,1,1.1.2l1.5,1.5a.4833.4833,0,0,0,.7,0,13.03381,13.03381,0,0,0,3.1-3.1c.2-.2.2-.5,0-.6l-1.5-1.5a.91283.91283,0,0,1-.2-1.1c.2-.4.4-.9.6-1.4a.87459.87459,0,0,1,.9-.6h2.1a.66445.66445,0,0,0,.5-.4,16.20361,16.20361,0,0,0,0-4.4.4575.4575,0,0,0-.5-.4h-2.1a1.01278,1.01278,0,0,1-.9-.6c-.2-.5-.4-.9-.6-1.4a.91285.91285,0,0,1,.2-1.1l1.5-1.5c.2-.2.2-.5,0-.6a13.03418,13.03418,0,0,0-3.1-3.1.4833.4833,0,0,0-.7,0l-1.5,1.5a.9129.9129,0,0,1-1.1.2c-.4-.2-.9-.4-1.4-.6a1.10717,1.10717,0,0,1-.7-.9v-2.1c0-.2-.2-.5-.4-.5a16.20289,16.20289,0,0,0-4.4,0,.45752.45752,0,0,0-.4.5v2.1a.96051.96051,0,0,1-.7.9c-.5.2-.9.4-1.4.6a.91282.91282,0,0,1-1.1-.2l-1.5-1.5a.48329.48329,0,0,0-.7,0,13.03381,13.03381,0,0,0-3.1,3.1c-.2.2-.2.5,0,.6l1.5,1.5a.91284.91284,0,0,1,.2,1.1c-.2.4-.4.9-.6,1.4a.87459.87459,0,0,1-.9.6H84.7c-.2,0-.5.2-.5.4A10.868,10.868,0,0,0,84.2,335.7Z" style="fill: #3d3d3d"/>
      <circle cx="97.5" cy="333.5" r="10.3" style="fill: #545454"/>
      <path d="M96.2,346.9V333.5h2.6v13.4a8.49916,8.49916,0,0,1-2.6,0Z" style="fill: #f3f3f3"/>
      <g>
        <path d="M98.8,346.9v-4.2a.96052.96052,0,0,1,.7-.9,8.63481,8.63481,0,1,0-4,0,.96051.96051,0,0,1,.7.9v4.2" style="fill: #f3f3f3"/>
        <path d="M99.1,346.9h-.6v-4.2a1.18783,1.18783,0,0,1,1-1.2,8.28281,8.28281,0,1,0-3.9,0,1.18783,1.18783,0,0,1,1,1.2v4.2H96v-4.2a.56.56,0,0,0-.5-.6,8.85268,8.85268,0,1,1,4.2,0,.63376.63376,0,0,0-.5.6Z" style="fill: #b2b2b2"/>
      </g>
    </g>
    <g>
      <path d="M34.9,259.2c-.2,0-.4.3-.4.5h0a.5103.5103,0,0,1-.4.5,10.90932,10.90932,0,0,0-3.5,1.5.47106.47106,0,0,1-.6-.1h0a.375.375,0,0,0-.6,0,12.59623,12.59623,0,0,0-3,3.1c-.1.2-.1.5.1.6h0a.66125.66125,0,0,1,.1.6,12.00076,12.00076,0,0,0-1.5,3.7c0,.2-.2.3-.4.4h0a.66444.66444,0,0,0-.5.4,16.20369,16.20369,0,0,0,0,4.4.4575.4575,0,0,0,.5.4h0a.3663.3663,0,0,1,.4.4,12.00111,12.00111,0,0,0,1.5,3.7.47109.47109,0,0,1-.1.6h0a.4711.4711,0,0,0-.1.6,11.51068,11.51068,0,0,0,1.4,1.7,10.70373,10.70373,0,0,0,1.6,1.4.375.375,0,0,0,.6,0h0c.1-.2.4-.2.6-.1a11.94788,11.94788,0,0,0,3.5,1.5.45752.45752,0,0,1,.4.5v.1a.66441.66441,0,0,0,.4.5,15.483,15.483,0,0,0,2.2.1,14.91748,14.91748,0,0,0,2.1-.2c.2,0,.4-.3.4-.5v-.1a.54993.54993,0,0,1,.3-.5,11.94735,11.94735,0,0,0,3.5-1.5.47108.47108,0,0,1,.6.1l.1.1a.375.375,0,0,0,.6,0,10.70373,10.70373,0,0,0,1.6-1.4,11.51068,11.51068,0,0,0,1.4-1.7c.1-.2.1-.5-.1-.6l-.1-.1a.4711.4711,0,0,1-.1-.6,11.447,11.447,0,0,0,1.5-3.6.43014.43014,0,0,1,.4-.4h.1a.66444.66444,0,0,0,.5-.4,16.20369,16.20369,0,0,0,0-4.4.4575.4575,0,0,0-.5-.4h-.1a.43016.43016,0,0,1-.4-.4,11.4473,11.4473,0,0,0-1.5-3.6.4711.4711,0,0,1,.1-.6l.1-.1a.4711.4711,0,0,0,.1-.6,12.59623,12.59623,0,0,0-3-3.1.375.375,0,0,0-.6,0l-.1.1c-.1.2-.4.2-.6.1a11.94788,11.94788,0,0,0-3.5-1.5c-.2-.1-.4-.2-.3-.5v-.1a.66441.66441,0,0,0-.4-.5,7.85153,7.85153,0,0,0-4.3,0Z" style="fill: #2d2d2d"/>
      <path d="M34.9,259.2c-.2,0-.4.3-.4.5v2.1a1.01281,1.01281,0,0,1-.6.9c-.5.2-.9.4-1.3.6a.91282.91282,0,0,1-1.1-.2L30,261.6a.375.375,0,0,0-.6,0,12.59623,12.59623,0,0,0-3,3.1c-.1.2-.1.5.1.6l1.4,1.5a.91284.91284,0,0,1,.2,1.1,5.78249,5.78249,0,0,0-.5,1.4.87459.87459,0,0,1-.9.6h-2a.66445.66445,0,0,0-.5.4,16.20361,16.20361,0,0,0,0,4.4.4575.4575,0,0,0,.5.4h2a1.01278,1.01278,0,0,1,.9.6,7.8378,7.8378,0,0,0,.5,1.4.91285.91285,0,0,1-.2,1.1l-1.4,1.5a.4711.4711,0,0,0-.1.6,11.5112,11.5112,0,0,0,1.4,1.7,10.7031,10.7031,0,0,0,1.6,1.4.375.375,0,0,0,.6,0l1.4-1.5a.9129.9129,0,0,1,1.1-.2c.4.2.9.4,1.3.6a.961.961,0,0,1,.6.9v2.1a.66441.66441,0,0,0,.4.5,15.483,15.483,0,0,0,2.2.1,14.91748,14.91748,0,0,0,2.1-.2c.2,0,.4-.3.4-.5v-2.1a1.01282,1.01282,0,0,1,.6-.9c.5-.2.9-.4,1.3-.6a.91279.91279,0,0,1,1.1.2l1.5,1.5a.375.375,0,0,0,.6,0,10.70373,10.70373,0,0,0,1.6-1.4,11.51068,11.51068,0,0,0,1.4-1.7c.1-.2.1-.5-.1-.6l-1.4-1.5a.91287.91287,0,0,1-.2-1.1,5.78184,5.78184,0,0,0,.5-1.4.87459.87459,0,0,1,.9-.6h2a.66444.66444,0,0,0,.5-.4,16.20369,16.20369,0,0,0,0-4.4.4575.4575,0,0,0-.5-.4h-2a1.0128,1.0128,0,0,1-.9-.6,7.83693,7.83693,0,0,0-.5-1.4.91288.91288,0,0,1,.2-1.1l1.4-1.5a.47107.47107,0,0,0,.1-.6,12.59574,12.59574,0,0,0-3-3.1.375.375,0,0,0-.6,0L42.6,263a.91287.91287,0,0,1-1.1.2c-.4-.2-.9-.4-1.3-.6a.961.961,0,0,1-.6-.9v-2.1a.66438.66438,0,0,0-.4-.5,14.77354,14.77354,0,0,0-4.2,0Z" style="fill: #3d3d3d"/>
      <ellipse cx="37" cy="272.5" rx="10" ry="10.29999" style="fill: #545454"/>
      <path d="M24.1,271.2H37v2.6H24.1a8.50006,8.50006,0,0,1,0-2.6Z" style="fill: #f3f3f3"/>
      <g>
        <path d="M24.1,273.8h4a.9605.9605,0,0,1,.9.7,8.161,8.161,0,0,0,8.2,6.5,8.61473,8.61473,0,0,0-.2-17.2,8.33285,8.33285,0,0,0-8,6.6.96053.96053,0,0,1-.9.7h-4" style="fill: #f3f3f3"/>
        <path d="M37,281.4a8.745,8.745,0,0,1-8.3-6.8.6338.6338,0,0,0-.6-.5h-4v-.6h4a1.29177,1.29177,0,0,1,1.2.9,7.94741,7.94741,0,0,0,8,6.3,8.24716,8.24716,0,0,0,7.8-7.9,8.65521,8.65521,0,0,0-2.3-6.3,7.72157,7.72157,0,0,0-5.7-2.5,7.91946,7.91946,0,0,0-7.7,6.3,1.28615,1.28615,0,0,1-1.2,1h-4v-.6h4a.56.56,0,0,0,.6-.5A8.46213,8.46213,0,0,1,43.2,266a9.1893,9.1893,0,0,1,2.5,6.7,8.78417,8.78417,0,0,1-8.3,8.4Z" style="fill: #b2b2b2"/>
      </g>
    </g>
  </g>
  <rect x="43.8" y="20.3" width="5" height="5" style="fill: none"/>
  <g>
    <path d="M2.5,23.8a1.42132,1.42132,0,0,1-.6-.2,1.42132,1.42132,0,0,1-.2-.6,1.42132,1.42132,0,0,1,.2-.6.9125.9125,0,0,1,1.2,0c.1.1.1.2.2.3,0,.1.1.2.1.3a1.42132,1.42132,0,0,1-.2.6A2.54388,2.54388,0,0,1,2.5,23.8Z"/>
    <path d="M37.8,23a.78874.78874,0,0,1,.8-.8h0a.78874.78874,0,0,1,.8.8h0a.78874.78874,0,0,1-.8.8h0A.736.736,0,0,1,37.8,23Zm-5.2,0a.78874.78874,0,0,1,.8-.8h0a.78874.78874,0,0,1,.8.8h0a.78874.78874,0,0,1-.8.8h0A.78874.78874,0,0,1,32.6,23Zm-5.1,0a.78874.78874,0,0,1,.8-.8h0a.78874.78874,0,0,1,.8.8h0a.78874.78874,0,0,1-.8.8h0A.736.736,0,0,1,27.5,23Zm-5.2,0a.78874.78874,0,0,1,.8-.8h0a.78874.78874,0,0,1,.8.8h0a.78874.78874,0,0,1-.8.8h0A.78874.78874,0,0,1,22.3,23Zm-5.2,0a.78874.78874,0,0,1,.8-.8h0a.86031.86031,0,0,1,.8.8h0a.78874.78874,0,0,1-.8.8h0A.78874.78874,0,0,1,17.1,23ZM12,23a.78874.78874,0,0,1,.8-.8h0a.78874.78874,0,0,1,.8.8h0a.78874.78874,0,0,1-.8.8h0A.78874.78874,0,0,1,12,23ZM6.8,23a.78874.78874,0,0,1,.8-.8h0a.78874.78874,0,0,1,.8.8h0a.78874.78874,0,0,1-.8.8h0A.78874.78874,0,0,1,6.8,23Z"/>
    <path d="M43.8,23.8a.36737.36737,0,0,1-.3-.1c-.1-.1-.2-.1-.3-.2a.86433.86433,0,0,1-.3-.6.36737.36737,0,0,1,.1-.3c0-.1.1-.2.2-.3s.2-.1.3-.2a.6375.6375,0,0,1,.6,0c.1,0,.2.1.3.2s.1.2.2.3c0,.1.1.2.1.3a1.42132,1.42132,0,0,1-.2.6A1.32933,1.32933,0,0,1,43.8,23.8Z"/>
  </g>
  <g>
    <path d="M151.8,23.8a.36738.36738,0,0,1-.3-.1c-.1-.1-.2-.1-.3-.2s-.1-.2-.2-.3c0-.1-.1-.2-.1-.3a1.42146,1.42146,0,0,1,.2-.6c.1-.1.2-.1.3-.2a.63752.63752,0,0,1,.6,0c.1,0,.2.1.3.2a.73473.73473,0,0,1,.2.6,1.42146,1.42146,0,0,1-.2.6A.54993.54993,0,0,1,151.8,23.8Z"/>
    <path d="M186.6,23a.78873.78873,0,0,1,.8-.8h0a.78874.78874,0,0,1,.8.8h0a.78873.78873,0,0,1-.8.8h0A.78873.78873,0,0,1,186.6,23Zm-5.1,0a.78873.78873,0,0,1,.8-.8h0a.78875.78875,0,0,1,.8.8h0a.78874.78874,0,0,1-.8.8h0A.736.736,0,0,1,181.5,23Zm-5.1,0a.78874.78874,0,0,1,.8-.8h0a.78874.78874,0,0,1,.8.8h0a.78873.78873,0,0,1-.8.8h0A.78875.78875,0,0,1,176.4,23Zm-5.1,0a.78874.78874,0,0,1,.8-.8h0a.78874.78874,0,0,1,.8.8h0a.78873.78873,0,0,1-.8.8h0A.78874.78874,0,0,1,171.3,23Zm-5.1,0a.78873.78873,0,0,1,.8-.8h0a.78874.78874,0,0,1,.8.8h0a.78873.78873,0,0,1-.8.8h0A.78874.78874,0,0,1,166.2,23Zm-5.1,0a.78873.78873,0,0,1,.8-.8h0a.78874.78874,0,0,1,.8.8h0a.78873.78873,0,0,1-.8.8h0A.78873.78873,0,0,1,161.1,23ZM156,23a.78873.78873,0,0,1,.8-.8h0a.78875.78875,0,0,1,.8.8h0a.78874.78874,0,0,1-.8.8h0A.78873.78873,0,0,1,156,23Z"/>
    <path d="M192.5,23.8a1.42145,1.42145,0,0,1-.6-.2.73476.73476,0,0,1-.2-.6,1.42144,1.42144,0,0,1,.2-.6.9125.9125,0,0,1,1.2,0,.75.75,0,0,1,0,1.2A1.42128,1.42128,0,0,1,192.5,23.8Z"/>
  </g>
</svg>
