<svg xmlns="http://www.w3.org/2000/svg" xmlns:xlink="http://www.w3.org/1999/xlink" width="195" height="380" viewBox="0 0 195 380">
  <defs>
    <symbol id="New_Symbol" data-name="New Symbol" viewBox="0 0 15 15">
      <g>
        <circle cx="7.5" cy="7.5" r="7.20312"/>
        <path d="M7.5.594A6.906,6.906,0,1,1,.594,7.5,6.91383,6.91383,0,0,1,7.5.594M7.5,0A7.5,7.5,0,1,0,15,7.5,7.5,7.5,0,0,0,7.5,0Z"/>
      </g>
      <g>
        <circle cx="7.5" cy="7.5" r="6.20313" style="fill: #707070"/>
        <path d="M7.5,1.59335A5.90665,5.90665,0,1,1,1.59336,7.5,5.91334,5.91334,0,0,1,7.5,1.59335M7.5,1A6.5,6.5,0,1,0,14,7.5,6.5,6.5,0,0,0,7.5,1Z" style="fill: gray"/>
      </g>
      <circle cx="7.5" cy="7.5" r="7.5"/>
      <path d="M7.5,1.59A5.91,5.91,0,1,0,13.41,7.5,5.91,5.91,0,0,0,7.5,1.59Z" style="fill: #707070"/>
      <path d="M7.5,1.59A5.91,5.91,0,1,1,1.59,7.5,5.91,5.91,0,0,1,7.5,1.59M7.5,1A6.5,6.5,0,1,0,14,7.5,6.5,6.5,0,0,0,7.5,1Z" style="fill: gray"/>
    </symbol>
    <symbol id="LED_state" data-name="LED state" viewBox="0 0 7 7">
      <g>
        <path d="M3.50012,6.73832A3.23831,3.23831,0,0,1,1.21029,1.21017,3.23831,3.23831,0,1,1,5.79,5.78983,3.21708,3.21708,0,0,1,3.50012,6.73832Z" style="fill: #8e8e8e"/>
        <path d="M3.50012.52344a2.97654,2.97654,0,0,1,2.105,5.08105,2.97654,2.97654,0,1,1-4.21-4.209,2.95738,2.95738,0,0,1,2.105-.87207m0-.52344a3.5,3.5,0,1,0,2.4751,1.02539A3.489,3.489,0,0,0,3.50012,0Z" style="fill: #80807f"/>
      </g>
    </symbol>
    <symbol id="New_Symbol_1" data-name="New Symbol 1" viewBox="0 0 27 27">
      <g>
        <path d="M.12708,15.2782c.02111.16244.04693.32329.07373.48389A.49529.49529,0,0,0,.67,16.1238H.73a.4702.4702,0,0,1,.46.36086,12.91644,12.91644,0,0,0,1.52,3.64879.47206.47206,0,0,1-.06.58141H2.59a.502.502,0,0,0,0,.65159A13.01556,13.01556,0,0,0,5.67,24.45384a.49913.49913,0,0,0,.65-.05011l.06-.07018a.47913.47913,0,0,1,.59-.07017A12.29135,12.29135,0,0,0,10.59,25.767a.471.471,0,0,1,.36.46113v.10022a.50083.50083,0,0,0,.42.49123,13.25993,13.25993,0,0,0,4.36,0,.50094.50094,0,0,0,.42-.49123v-.10022a.47094.47094,0,0,1,.36-.46113,12.29161,12.29161,0,0,0,3.62-1.50361.47913.47913,0,0,1,.59.07017l.06.07018a.49863.49863,0,0,0,.64526.05243l.04511-.03377q.39247-.28331.76214-.59475c.25287-.21543.49988-.43752.73621-.67075.02673-.02606.05585-.04974.08234-.07605a13.5904,13.5904,0,0,0,1.54937-1.87113.50213.50213,0,0,0-.09039-.49485h-.06a.472.472,0,0,1-.06-.58141,12.91775,12.91775,0,0,0,1.52-3.64879.47031.47031,0,0,1,.46-.36086h.06a.49483.49483,0,0,0,.335-.13656,12.8752,12.8752,0,0,0,.03424-4.71422.49524.49524,0,0,0-.46917-.36171.46037.46037,0,0,1-.45-.37088,12.7876,12.7876,0,0,0-1.51-3.6789.47207.47207,0,0,1,.06-.58141.50208.50208,0,0,0,0-.65153,13.25463,13.25463,0,0,0-3.08-3.08745.49905.49905,0,0,0-.65.05011.46914.46914,0,0,1-.58.07018,12.58164,12.58164,0,0,0-3.7-1.54369.46093.46093,0,0,1-.35-.4511.50084.50084,0,0,0-.42-.49117A13.25645,13.25645,0,0,0,12.561.03255c-.06867.00477-.13862.00465-.207.01046-.28131.0238-.5614.063-.84118.10474-.08508.01261-.17017.02478-.25476.039A.49788.49788,0,0,0,10.87.66664a.46087.46087,0,0,1-.35.4511,12.58158,12.58158,0,0,0-3.7,1.54369.46915.46915,0,0,1-.58-.07018.49329.49329,0,0,0-.54883-.09954,13.58053,13.58053,0,0,0-3.2746,3.31094A.49989.49989,0,0,0,2.51,6.28012a.47207.47207,0,0,1,.06.58141,12.78768,12.78768,0,0,0-1.51,3.67884.46036.46036,0,0,1-.45.37094H.54a.4683.4683,0,0,0-.30121.11221A13.60407,13.60407,0,0,0,0,13.51756c0,.41959.02533.833.06262,1.24279C.07886,14.93356.104,15.10573.12708,15.2782Z" style="fill: #2d2d2d"/>
        <path d="M26.79913,11.26089A.4951.4951,0,0,0,26.33,10.9h-2.1a1,1,0,0,1-.92-.65,9.93825,9.93825,0,0,0-.58-1.39,1.00014,1.00014,0,0,1,.19-1.11L24.41,6.27a.5.5,0,0,0,0-.65,13.24091,13.24091,0,0,0-3.08-3.08.5.5,0,0,0-.65.05L19.2,4.08005A1,1,0,0,1,18.09,4.27a9.94158,9.94158,0,0,0-1.39-.58,1,1,0,0,1-.65-.92V.67a.49775.49775,0,0,0-.39917-.48266Q15.56781.17407,15.4845.162c-.27838-.04316-.55762-.07868-.83759-.104q-.46161-.039-.93146-.04706c-.07916-.00152-.15814-.00958-.2373-.00976-.43652.00073-.86774.02405-1.29364.06531-.07776.00744-.15515.02008-.23285.02893-.26288.03009-.52118.074-.77917.119A.49439.49439,0,0,0,10.84991.67v2.1a1,1,0,0,1-.65.92,9.93845,9.93845,0,0,0-1.39.58A1,1,0,0,1,7.7,4.08005L6.21991,2.59a.49821.49821,0,0,0-.47443-.12995A13.56435,13.56435,0,0,0,2.38806,5.84171a.4939.4939,0,0,0,.10187.42834l1.49,1.48a.99993.99993,0,0,1,.19,1.11,9.94546,9.94546,0,0,0-.58,1.39,1,1,0,0,1-.92.65H.66a.485.485,0,0,0-.45672.34436c-.02954.17524-.05786.35083-.08063.52832-.02094.16089-.04474.32154-.05981.483-.03748.4096-.06269.82275-.06275,1.24212l.001.02405c.00067.40686.025.808.06091,1.20575.01685.18152.043.36206.06726.543.02063.15729.04553.31311.07153.46863A.49512.49512,0,0,0,.66992,16.1h2.1a1,1,0,0,1,.92.65,9.94188,9.94188,0,0,0,.58,1.39,1.00006,1.00006,0,0,1-.19,1.11L2.59,20.73a.49991.49991,0,0,0,0,.65,13.00142,13.00142,0,0,0,3.08,3.08.50009.50009,0,0,0,.65-.05l1.48-1.49a1,1,0,0,1,1.11-.19,9.94115,9.94115,0,0,0,1.39.58.99993.99993,0,0,1,.65.92v2.1a.4978.4978,0,0,0,.39917.48266q.083.01328.16626.02539c.27838.04316.55762.07868.83759.104q.45923.03873.92651.04681c.08105.00165.16193.00977.24292.00995.43634-.00073.86725-.024,1.293-.06525.07776-.00744.15515-.02008.23285-.02893.26288-.03009.52118-.074.77917-.11895a.49442.49442,0,0,0,.32257-.45569v-2.1a1,1,0,0,1,.65-.92,9.93926,9.93926,0,0,0,1.39-.58.99994.99994,0,0,1,1.11.19l1.48,1.49a.49843.49843,0,0,0,.47455.13,13.56412,13.56412,0,0,0,3.35736-3.38166A.49376.49376,0,0,0,24.51,20.73l-1.49-1.48a.99994.99994,0,0,1-.19-1.11,9.94063,9.94063,0,0,0,.58-1.39,1,1,0,0,1,.92-.65h2.1a.49557.49557,0,0,0,.335-.13623,12.81392,12.81392,0,0,0,.03424-4.70289Z" style="fill: #3d3d3d"/>
        <circle cx="13.47956" cy="13.5" r="10.34" style="fill: #545454"/>
        <path d="M14.41.046V4.19568a1.26,1.26,0,0,0,1,1.21,8.31,8.31,0,1,1-3.91,0,1.22993,1.22993,0,0,0,1-1.2V.05048c-.19421.01428-.38818.02728-.58.04968V4.22565a.65.65,0,0,1-.5.64,8.86,8.86,0,0,0,1.64,17.46h.44a8.86,8.86,0,0,0,2-17.48.65.65,0,0,1-.51-.64V.08643C14.79865.06537,14.60364.0589,14.41.046Z" style="fill: #b2b2b2"/>
        <path d="M13.5,0c-.32935,0-.652.02606-.97546.04926v4.153a1.23005,1.23005,0,0,1-1,1.2,8.31,8.31,0,1,0,3.91,0,1.26,1.26,0,0,1-1-1.21V.04718C14.12445.02588,13.81549,0,13.5,0Z" style="fill: #f3f3f3"/>
      </g>
    </symbol>
    <symbol id="jack" data-name="jack" viewBox="0 0 23 23">
      <g>
        <path d="M11.50029,22.71738a11.21729,11.21729,0,1,1,11.2168-11.21729A11.23031,11.23031,0,0,1,11.50029,22.71738Z" style="fill: #e5e5e5"/>
        <path d="M11.5.56592A10.93409,10.93409,0,1,1,.56591,11.5,10.94646,10.94646,0,0,1,11.5.56592M11.5,0A11.5,11.5,0,1,0,23,11.5,11.5,11.5,0,0,0,11.5,0Z" style="fill: #878787"/>
      </g>
      <path d="M11.5,2.27481A9.22519,9.22519,0,1,0,20.72519,11.5,9.2252,9.2252,0,0,0,11.5,2.27481Zm0,16.79645A7.57127,7.57127,0,1,1,19.07127,11.5,7.57126,7.57126,0,0,1,11.5,19.07126Z" style="fill: #969696"/>
      <circle cx="11.5" cy="11.5" r="5.47595" style="fill: #0e0e0e;stroke: #2b2b2b;stroke-miterlimit: 10;stroke-width: 0.565909646585618px"/>
      <path d="M11.49411.57091a10.93,10.93,0,1,0,10.93,10.93A10.94,10.94,0,0,0,11.49411.57091Z" style="fill: #e5e5e5"/>
      <path d="M11.49411,2.27091a9.23,9.23,0,1,0,9.23,9.23h0A9.24,9.24,0,0,0,11.49411,2.27091Zm0,16.8a7.57,7.57,0,1,1,7.57-7.57,7.57,7.57,0,0,1-7.57,7.57Z" style="fill: #969696"/>
      <path d="M11.49411,6.3109a5.19,5.19,0,1,0,5.19,5.19A5.19,5.19,0,0,0,11.49411,6.3109Z" style="fill: #0e0e0e"/>
      <path d="M11.49411,17.2609a5.76,5.76,0,1,1,5.76-5.76h0A5.76,5.76,0,0,1,11.49411,17.2609Zm0-10.95a5.19,5.19,0,1,0,5.19,5.19A5.19,5.19,0,0,0,11.49411,6.3109Z" style="fill: #2b2b2b"/>
    </symbol>
  </defs>
  <title>BlackHoles</title>
  <g id="Layer_1" data-name="Layer 1">
    <rect width="195" height="380" style="fill: #e5e5e5"/>
    <g>
      <g>
        <circle cx="23" cy="6" r="5.73633" style="fill: #bcbcbc"/>
        <path d="M23,.52747A5.47253,5.47253,0,1,1,17.52751,6,5.47874,5.47874,0,0,1,23,.52747M23,0a6,6,0,1,0,6,6,6,6,0,0,0-6-6Z" style="fill: gray"/>
      </g>
      <polygon points="26.495 5.341 23.659 5.341 23.659 2.505 22.341 2.505 22.341 5.341 19.506 5.341 19.506 6.659 22.341 6.659 22.341 9.495 23.659 9.495 23.659 6.659 26.495 6.659 26.495 5.341" style="fill: #6e6e6e"/>
    </g>
    <g>
      <g>
        <circle cx="172" cy="6" r="5.73633" style="fill: #bcbcbc"/>
        <path d="M172,.52747A5.47253,5.47253,0,1,1,166.52751,6,5.47874,5.47874,0,0,1,172,.52747M172,0a6,6,0,1,0,6,6,6,6,0,0,0-6-6Z" style="fill: gray"/>
      </g>
      <polygon points="175.495 5.341 172.659 5.341 172.659 2.505 171.341 2.505 171.341 5.341 168.506 5.341 168.506 6.659 171.341 6.659 171.341 9.495 172.659 9.495 172.659 6.659 175.495 6.659 175.495 5.341" style="fill: #6e6e6e"/>
    </g>
    <g>
      <g>
        <circle cx="23" cy="374" r="5.73633" style="fill: #bcbcbc"/>
        <path d="M23,368.52747A5.47253,5.47253,0,1,1,17.52751,374,5.47873,5.47873,0,0,1,23,368.52747M23,368a6,6,0,1,0,6,6,6,6,0,0,0-6-6Z" style="fill: gray"/>
      </g>
      <polygon points="26.495 373.341 23.659 373.341 23.659 370.505 22.341 370.505 22.341 373.341 19.506 373.341 19.506 374.659 22.341 374.659 22.341 377.495 23.659 377.495 23.659 374.659 26.495 374.659 26.495 373.341" style="fill: #6e6e6e"/>
    </g>
    <g>
      <g>
        <circle cx="172" cy="374" r="5.73633" style="fill: #bcbcbc"/>
        <path d="M172,368.52747A5.47253,5.47253,0,1,1,166.52751,374,5.47873,5.47873,0,0,1,172,368.52747M172,368a6,6,0,1,0,6,6,6,6,0,0,0-6-6Z" style="fill: gray"/>
      </g>
      <polygon points="175.495 373.341 172.659 373.341 172.659 370.505 171.341 370.505 171.341 373.341 168.506 373.341 168.506 374.659 171.341 374.659 171.341 377.495 172.659 377.495 172.659 374.659 175.495 374.659 175.495 373.341" style="fill: #6e6e6e"/>
    </g>
    <g>
      <path d="M97.76953,109.53076a.87075.87075,0,0,1-.58984-.24023A.79482.79482,0,0,1,97,109.02a.86327.86327,0,0,1-.06055-.31934.84531.84531,0,0,1,.24024-.58008.79769.79769,0,0,1,.27051-.18066.82562.82562,0,0,1,.89941.18066.64179.64179,0,0,1,.18066.26954.67459.67459,0,0,1,.06934.31054.71091.71091,0,0,1-.06934.31934.79764.79764,0,0,1-.18066.27051.67261.67261,0,0,1-.25977.17968A.86458.86458,0,0,1,97.76953,109.53076Z" style="fill: #ff4257"/>
      <path d="M100.51953,105.89014a.82651.82651,0,0,1-.08008-1.16993h0a.8258.8258,0,0,1,1.16993-.07031h0a.82185.82185,0,0,1,.08007,1.16016v.01074a.87328.87328,0,0,1-.62988.2793h0A.79761.79761,0,0,1,100.51953,105.89014Zm3.04-3.66016a.829.829,0,0,1-.17969-1.15918h0a.8311.8311,0,0,1,1.16016-.18066h0a.83018.83018,0,0,1,.17969,1.16015h0a.85311.85311,0,0,1-.66993.33985h0A.81943.81943,0,0,1,103.55957,102.23Zm2.71-3.90918A.8285.8285,0,0,1,106,97.18017h0a.82756.82756,0,0,1,1.13965-.26953h0a.814.814,0,0,1,.27051,1.12989h0a.818.818,0,0,1-.71.39941h0A.88627.88627,0,0,1,106.26953,98.3208Zm2.37012-4.13086a.83019.83019,0,0,1-.37012-1.10937h0a.82293.82293,0,0,1,1.11035-.37012h0A.81721.81721,0,0,1,109.75,93.8208v-.01074a.81082.81082,0,0,1-.74023.46h0A.8183.8183,0,0,1,108.63965,94.18994Zm2.00976-4.31934a.831.831,0,0,1-.46972-1.07031h.00976a.816.816,0,0,1,1.07032-.46972h0a.82518.82518,0,0,1,.46,1.08007h.00976a.84671.84671,0,0,1-.77929.51953h0A.805.805,0,0,1,110.64941,89.8706Zm1.63086-4.4707a.83513.83513,0,0,1-.56054-1.0293h0a.82789.82789,0,0,1,1.03027-.56054h0a.82812.82812,0,0,1,.55957,1.03027h0a.81195.81195,0,0,1-.79.58984h0A.95094.95094,0,0,1,112.28027,85.3999Zm1.14942-4.61914a.82685.82685,0,0,1-.67969-.95019h0a.82622.82622,0,0,1,.9502-.68067h0a.82924.82924,0,0,1,.68945.9502h0a.8358.8358,0,0,1-.82031.69043h0A.672.672,0,0,1,113.42969,80.78076Zm.62011-4.7207a.82607.82607,0,0,1-.76953-.87989h0a.8295.8295,0,0,1,.87989-.78027h0a.83646.83646,0,0,1,.76953.89063h0a.82814.82814,0,0,1-.82031.76953h-.05958Zm-.62011-5.58985h.00976a.82813.82813,0,0,1,.83008-.83007h0a.841.841,0,0,1,.82031.83984h0a.82609.82609,0,0,1-.83007.82031h0A.82814.82814,0,0,1,113.42969,70.47021Z" style="fill: #ff4257"/>
      <path d="M101.5,107.30029a.81759.81759,0,0,1,.42969-1.08008h0a.81807.81807,0,0,1,1.08984.42969h0a.82149.82149,0,0,1-.42969,1.09082h0a.9747.9747,0,0,1-.33007.06934h0A.82945.82945,0,0,1,101.5,107.30029Zm4.37988-2.00976a.81836.81836,0,0,1,.34961-1.12012h0a.84132.84132,0,0,1,1.12012.34961h0a.8309.8309,0,0,1-.35938,1.12012h0a.74445.74445,0,0,1-.38085.10058h0A.81968.81968,0,0,1,105.87988,105.29053Zm4.21-2.33008a.82736.82736,0,0,1,.26954-1.13965h0a.82849.82849,0,0,1,1.14062.26953h0a.82677.82677,0,0,1-.27051,1.13965h0a.84661.84661,0,0,1-.42969.12012h0A.84119.84119,0,0,1,110.08984,102.96045Zm4.04-2.62988a.81711.81711,0,0,1,.17969-1.1504h0a.83042.83042,0,0,1,1.16016.17969h0a.83122.83122,0,0,1-.18946,1.16016h0a.79155.79155,0,0,1-.48047.16015h0A.80935.80935,0,0,1,114.12988,100.33057Zm3.83985-2.9004a.828.828,0,0,1,.11035-1.16992h0a.83689.83689,0,0,1,1.16992.11035h0a.82754.82754,0,0,1-.12012,1.16993h0a.79692.79692,0,0,1-.5205.18945h0A.81439.81439,0,0,1,117.96973,97.43017ZM121.60938,94.27a.82445.82445,0,0,1,.0205-1.16992h0a.83338.83338,0,0,1,1.16992.03027h0a.81507.81507,0,0,1-.03027,1.16992h0a.825.825,0,0,1-.56933.23047h0A.80629.80629,0,0,1,121.60938,94.27Zm3.40039-3.39942a.82411.82411,0,0,1-.04981-1.16992h0a.82413.82413,0,0,1,1.16992-.05078h0a.82525.82525,0,0,1,.04981,1.1709h0a.80585.80585,0,0,1-.61035.26953h0A.81388.81388,0,0,1,125.00977,90.8706ZM128.16016,87.23a.82589.82589,0,0,1-.14063-1.15918h0a.8281.8281,0,0,1,1.16992-.14063h0a.82708.82708,0,0,1,.14063,1.16016h0a.8434.8434,0,0,1-.66016.32031h0A.81345.81345,0,0,1,128.16016,87.23Zm2.88964-3.84961a.824.824,0,0,1-.21-1.15039h0a.82441.82441,0,0,1,1.15039-.21973h0a.832.832,0,0,1,.21,1.15039h0a.812.812,0,0,1-.68067.35938h0A.80892.80892,0,0,1,131.0498,83.38037Zm2.63965-4.03027a.83032.83032,0,0,1-.27929-1.13965h0a.82594.82594,0,0,1,1.13964-.28028h0a.8368.8368,0,0,1,.28028,1.14063h0a.8297.8297,0,0,1-.71.39941h0A.85018.85018,0,0,1,133.68945,79.3501Zm2.40039-4.17969a.83042.83042,0,0,1-.36035-1.12012h0a.835.835,0,0,1,1.12012-.34961h0a.82587.82587,0,0,1,.35059,1.10938h0a.82958.82958,0,0,1-.74024.45019h0A.84551.84551,0,0,1,136.08984,75.17041Zm2.11036-4.33008a.81882.81882,0,0,1-.43067-1.08008h0a.83322.83322,0,0,1,1.08985-.43945h0a.82894.82894,0,0,1,.43066,1.08984h0a.81286.81286,0,0,1-.75977.5h0A.78485.78485,0,0,1,138.2002,70.84033Z" style="fill: #ff4257"/>
    </g>
    <g>
      <path d="M80.51953,151.72021a.81956.81956,0,0,1,.79981-.84961h0a.82733.82733,0,0,1,.86035.79981h0a.8276.8276,0,0,1-.80957.84961h-.02051A.822.822,0,0,1,80.51953,151.72021Zm.75-3.96a.82814.82814,0,0,1-.83008-.83008h0a.83441.83441,0,0,1,.83008-.83007h0a.84283.84283,0,0,1,.83008.83984h0a.82609.82609,0,0,1-.83008.82031Zm.10059-4.75976a.8342.8342,0,0,1-.77051-.87989h0a.8379.8379,0,0,1,.89062-.7705h0a.82815.82815,0,0,1,.76954.87988h0a.83917.83917,0,0,1-.83008.78027h0C81.41016,143.01025,81.38965,143.00049,81.37012,143.00049Zm.46-4.74024a.82044.82044,0,0,1-.68067-.95019h0a.82481.82481,0,0,1,.9502-.67969h0a.8142.8142,0,0,1,.68066.9502h0a.818.818,0,0,1-.81054.68945h0A.672.672,0,0,1,81.83008,138.26025Zm.95019-4.66015a.82953.82953,0,0,1-.55078-1.0293h0a.81351.81351,0,0,1,1.02051-.56055h0a.82813.82813,0,0,1,.55957,1.03028h0a.81309.81309,0,0,1-.79.58984h0A.9514.9514,0,0,1,82.78027,133.6001Zm1.5-4.5293a.8271.8271,0,0,1-.4707-1.07031h0a.84192.84192,0,0,1,1.08008-.46973h0a.83609.83609,0,0,1,.46,1.0791h0a.809.809,0,0,1-.76953.52051h0A.81592.81592,0,0,1,84.28027,129.0708Zm1.87989-4.37012a.82394.82394,0,0,1-.37989-1.11035h0a.82183.82183,0,0,1,1.10938-.37012h0a.83226.83226,0,0,1,.37988,1.11036h0a.84044.84044,0,0,1-.75.46h0A.76858.76858,0,0,1,86.16016,124.70068Z" style="fill: #ff4257"/>
      <path d="M56.67969,148.09033a.8316.8316,0,0,1-.42969-1.09961h0a.82976.82976,0,0,1,1.08984-.43066h0a.82882.82882,0,0,1,.42969,1.08984h0a.83912.83912,0,0,1-.76953.5h0A.94715.94715,0,0,1,56.67969,148.09033Zm2.00976-4.37988a.81916.81916,0,0,1-.34961-1.12012h0a.82637.82637,0,0,1,1.11036-.34961h0a.82154.82154,0,0,1,.35937,1.10938h0a.82739.82739,0,0,1-.74023.45019h0A.85475.85475,0,0,1,58.68945,143.71045ZM60.99023,139.48a.82955.82955,0,0,1-.28027-1.13965h0a.827.827,0,0,1,1.13965-.28027h0a.82563.82563,0,0,1,.28027,1.12988h0a.81564.81564,0,0,1-.71.40039h0A.83249.83249,0,0,1,60.99023,139.48Zm2.55957-4.08008a.84383.84383,0,0,1-.21972-1.15918h0a.84177.84177,0,0,1,1.16015-.21h0a.83082.83082,0,0,1,.21,1.14941h0a.81057.81057,0,0,1-.68067.36036h0A.88014.88014,0,0,1,63.5498,135.3999ZM66.34961,131.48A.82576.82576,0,0,1,66.21,130.3208h0a.8176.8176,0,0,1,1.16016-.14063h0a.82726.82726,0,0,1,.14941,1.16016h0a.83259.83259,0,0,1-.66015.30957h0A.804.804,0,0,1,66.34961,131.48Zm3.06055-3.71973a.82448.82448,0,0,1-.05078-1.16992h0a.813.813,0,0,1,1.16015-.05957h0a.82551.82551,0,0,1,.06055,1.16992h0a.82252.82252,0,0,1-.61035.26953h0A.84733.84733,0,0,1,69.41016,127.76025Zm3.31933-3.47949a.84653.84653,0,0,1,.03028-1.18066h0a.83311.83311,0,0,1,1.16992.03027h0a.82339.82339,0,0,1-.01953,1.16992h0a.80778.80778,0,0,1-.58008.23047h0A.85043.85043,0,0,1,72.72949,124.28076Zm3.56055-3.25a.83886.83886,0,0,1,.10937-1.1709h0a.82909.82909,0,0,1,1.16993.12012h0a.825.825,0,0,1-.10938,1.16016h0a.80479.80479,0,0,1-.53027.19043h0A.83032.83032,0,0,1,76.29,121.03076Zm3.7793-2.99023a.8311.8311,0,0,1,.18066-1.16016h0l.00977.00977h0a.813.813,0,0,1,1.15039.19043h0a.82174.82174,0,0,1-.19043,1.14941h.00976a.81454.81454,0,0,1-.48926.16016h0A.80978.80978,0,0,1,80.06934,118.04053Z" style="fill: #ff4257"/>
    </g>
    <g>
      <path d="M97.76953,109.53076a.87075.87075,0,0,1-.58984-.24023A.79482.79482,0,0,1,97,109.02a.86327.86327,0,0,1-.06055-.31934.84531.84531,0,0,1,.24024-.58008.79769.79769,0,0,1,.27051-.18066.82562.82562,0,0,1,.89941.18066.64179.64179,0,0,1,.18066.26954.67459.67459,0,0,1,.06934.31054.71091.71091,0,0,1-.06934.31934.79764.79764,0,0,1-.18066.27051.67261.67261,0,0,1-.25977.17968A.86458.86458,0,0,1,97.76953,109.53076Z" style="fill: #ff4257"/>
      <path d="M93.79,106.03076h0a.8262.8262,0,0,1-.08008-1.1709h0a.8248.8248,0,0,1,1.16992-.06933h0a.82583.82583,0,0,1,.08008,1.16992h0a.876.876,0,0,1-.62988.28027h0A.79867.79867,0,0,1,93.79,106.03076Zm-3.65039-2.94043a.83.83,0,0,1-.17969-1.16016h0a.81977.81977,0,0,1,1.16016-.16992h0a.8177.8177,0,0,1,.16992,1.15039h0a.7951.7951,0,0,1-.66016.33985h0A.79907.79907,0,0,1,90.13965,103.09033Zm-3.89942-2.62012a.827.827,0,0,1-.2705-1.13964h0a.82782.82782,0,0,1,1.13965-.27051h0a.8279.8279,0,0,1,.2705,1.14062h0a.829.829,0,0,1-.71.38965h0A.87373.87373,0,0,1,86.24023,100.47021Zm-4.10058-2.26953h0a.82293.82293,0,0,1-.37012-1.11035h0a.82293.82293,0,0,1,1.11035-.37012h0A.82022.82022,0,0,1,83.25,97.83057h0a.82813.82813,0,0,1-.74023.46h0A.84552.84552,0,0,1,82.13965,98.20068Zm-4.28027-1.91015a.83363.83363,0,0,1-.46-1.08008h0a.82276.82276,0,0,1,1.07032-.46h0a.83065.83065,0,0,1,.46972,1.07031h0a.8409.8409,0,0,1-.77929.5293h0A.80494.80494,0,0,1,77.85938,96.29053Zm-4.42969-1.54a.836.836,0,0,1-.55957-1.03028h0a.8275.8275,0,0,1,1.02929-.55957h0a.82731.82731,0,0,1,.56055,1.0293h0a.82312.82312,0,0,1-.79.59082h0A1.01211,1.01211,0,0,1,73.42969,94.75049Zm-4.54-1.03028A.83207.83207,0,0,1,68.21,92.77h0a.82659.82659,0,0,1,.9502-.68945h0a.84415.84415,0,0,1,.68945.96h0a.83483.83483,0,0,1-.81934.68945h0A.67668.67668,0,0,1,68.88965,93.72021Zm-5.41992-1.41015a.82.82,0,0,1,.87988-.76953h0a.82232.82232,0,0,1,.77051.87988h0a.82091.82091,0,0,1-.87989.76953h0A.82684.82684,0,0,1,63.46973,92.31006Zm-3.92969.7207a.82814.82814,0,0,1-.83008-.83008h0a.81989.81989,0,0,1,.83008-.82031h0a.82814.82814,0,0,1,.83008.83008h0a.83244.83244,0,0,1-.83008.82031Z" style="fill: #ff4257"/>
      <path d="M95.28027,104.54053a.82475.82475,0,0,1,.43946-1.08985h0a.81758.81758,0,0,1,1.08007.42969h.00977a.84214.84214,0,0,1-.43945,1.08984h0a.79121.79121,0,0,1-.33008.07032h0A.83739.83739,0,0,1,95.28027,104.54053Zm-2.04-4.29a.81756.81756,0,0,1,.34961-1.12012h0A.82421.82421,0,0,1,94.71,99.48h0a.82672.82672,0,0,1-.35058,1.11035h0a.80349.80349,0,0,1-.38965.09961h0A.82047.82047,0,0,1,93.24023,100.25049Zm-2.36035-4.14063a.82757.82757,0,0,1,.26953-1.13965h0a.82792.82792,0,0,1,1.14063.27051h0a.827.827,0,0,1-.27051,1.13965h0a.74778.74778,0,0,1-.42969.12988h0A.82733.82733,0,0,1,90.87988,96.10986Zm-2.63965-3.94922a.83191.83191,0,0,1,.18946-1.16015h0a.83292.83292,0,0,1,1.16015.18945h0a.84192.84192,0,0,1-.19043,1.16016h0a.87374.87374,0,0,1-.48925.15039h0A.83773.83773,0,0,1,88.24023,92.16064ZM85.33008,88.3999A.836.836,0,0,1,85.43945,87.23h0a.8072.8072,0,0,1,1.16016.11035h0A.81533.81533,0,0,1,86.5,88.50049h0a.8434.8434,0,0,1-.53027.18945h0A.83491.83491,0,0,1,85.33008,88.3999Zm-3.16016-3.55957h0a.81424.81424,0,0,1,.03028-1.16992h0a.82386.82386,0,0,1,1.16992.03027h0a.83363.83363,0,0,1-.03028,1.16992h0a.84871.84871,0,0,1-.57031.2295h0A.82605.82605,0,0,1,82.16992,84.84033Zm-3.40039-3.33008A.82463.82463,0,0,1,78.71,80.34033h0a.83583.83583,0,0,1,1.17969-.0498h0a.83292.83292,0,0,1,.0498,1.16992h0a.83613.83613,0,0,1-.60937.26953h0A.81008.81008,0,0,1,78.76953,81.51025Zm-3.63965-3.05957a.83682.83682,0,0,1-.13965-1.16992h0a.835.835,0,0,1,1.15918-.14062h0a.84063.84063,0,0,1,.15039,1.16992h0a.83354.83354,0,0,1-.66015.31054h0A.804.804,0,0,1,75.12988,78.45068ZM71.29,75.64014a.82459.82459,0,0,1-.21-1.16016h0a.81968.81968,0,0,1,1.14941-.21h0a.83037.83037,0,0,1,.21,1.15039h0a.83612.83612,0,0,1-.67968.36035h0A.88875.88875,0,0,1,71.29,75.64014Zm-4.00977-2.58008a.82723.82723,0,0,1-.29-1.12989h0a.82481.82481,0,0,1,1.13965-.29h0a.84415.84415,0,0,1,.29,1.14062h0a.84572.84572,0,0,1-.71972.39941h0A.81008.81008,0,0,1,67.28027,73.06006Zm-4.16015-2.31934h0a.8304.8304,0,0,1-.36035-1.12012h0A.83534.83534,0,0,1,63.87988,69.27h0a.82636.82636,0,0,1,.34961,1.11035h0a.8021.8021,0,0,1-.72949.4502h0A.85472.85472,0,0,1,63.12012,70.74072Zm-4.30078-2.04h0a.83042.83042,0,0,1-.42969-1.09082h0a.82934.82934,0,0,1,1.08984-.42969h0A.82978.82978,0,0,1,59.91016,68.27h0a.82691.82691,0,0,1-.76075.5h0A.78973.78973,0,0,1,58.81934,68.70068Z" style="fill: #ff4257"/>
    </g>
    <g>
      <path d="M135.16992,125.20068A.83441.83441,0,0,1,136,124.3706h0a.82814.82814,0,0,1,.83008.83008h0A.81836.81836,0,0,1,136,126.02v.01074A.84213.84213,0,0,1,135.16992,125.20068Zm-3.98047.66992a.83835.83835,0,0,1-.77929-.89062h0a.82916.82916,0,0,1,.88964-.76953h0a.83646.83646,0,0,1,.76954.88965h0a.83646.83646,0,0,1-.82911.7705h-.05078Zm-4.80957-.5498h0a.83318.83318,0,0,1-.69043-.9502h0a.82293.82293,0,0,1,.96-.68066h0v-.00977h0a.838.838,0,0,1,.68067.96h0a.8358.8358,0,0,1-.82031.69043h0A.58233.58233,0,0,1,126.37988,125.3208Zm-4.74023-1.07031a.83437.83437,0,0,1-.57031-1.03028h0a.829.829,0,0,1,1.03027-.55957h0a.82731.82731,0,0,1,.56055,1.0293h0a.81452.81452,0,0,1-.79.59082h0A.8762.8762,0,0,1,121.63965,124.25049Zm-4.57031-1.58985h0a.83014.83014,0,0,1-.46973-1.08007h0a.83363.83363,0,0,1,1.08008-.46h0a.82519.82519,0,0,1,.46,1.06934h0a.82744.82744,0,0,1-.76953.53027h0A.80494.80494,0,0,1,117.06934,122.66064Zm-4.40918-1.9707h0a.82182.82182,0,0,1-.37012-1.10937h0a.81638.81638,0,0,1,1.10937-.37012h0a.837.837,0,0,1,.37012,1.11035h0a.84224.84224,0,0,1-.75.46h0A.7581.7581,0,0,1,112.66016,120.68994Z" style="fill: #ff4257"/>
      <path d="M136.05957,150.23h0a.83261.83261,0,0,1-.42969-1.08984h0a.83288.83288,0,0,1,1.08985-.43946h0a.83177.83177,0,0,1,.42968,1.08985h0a.83736.83736,0,0,1-.75976.5h0A.96449.96449,0,0,1,136.05957,150.23Zm-4.39941-2.08984a.83042.83042,0,0,1-.36036-1.12012h0a.83006.83006,0,0,1,1.12012-.35938v.00977a.82722.82722,0,0,1,.34961,1.11035h0a.80119.80119,0,0,1-.72949.44922h0A.84186.84186,0,0,1,131.66016,148.14014Zm-4.25-2.37012a.83244.83244,0,0,1-.29-1.13965h0a.83244.83244,0,0,1,1.13965-.29h0A.82852.82852,0,0,1,128.54,145.48h0a.8168.8168,0,0,1-.71.40039h0A.90148.90148,0,0,1,127.41016,145.77Zm-4.10059-2.62988h0a.823.823,0,0,1-.21-1.14942h0A.82228.82228,0,0,1,124.25,141.77h0a.83126.83126,0,0,1,.21,1.15039h0a.81013.81013,0,0,1-.67969.36035h0A.89465.89465,0,0,1,123.30957,143.14014Zm-3.92969-2.87989a.82605.82605,0,0,1-.13965-1.16015h0a.81713.81713,0,0,1,1.15918-.13965h0a.82764.82764,0,0,1,.15039,1.16015h0a.84236.84236,0,0,1-.66015.31934h0A.81441.81441,0,0,1,119.37988,140.26025Zm-3.73047-3.13965v-.01074h0a.82082.82082,0,0,1-.0498-1.15918h0a.82473.82473,0,0,1,1.16992-.06054h0a.82412.82412,0,0,1,.04981,1.16992h0a.8014.8014,0,0,1-.60938.27051h0A.85171.85171,0,0,1,115.64941,137.1206Zm-3.47949-3.41015a.83248.83248,0,0,1,.03028-1.16992h0a.82355.82355,0,0,1,1.16992.01953h0a.83747.83747,0,0,1-.03028,1.18066h0a.83067.83067,0,0,1-.57031.22949h0A.826.826,0,0,1,112.16992,133.71045Zm-3.24023-3.63965a.83716.83716,0,0,1,.11035-1.1709h0a.837.837,0,0,1,1.16992.11035h0a.83688.83688,0,0,1-.11035,1.16992h0a.82328.82328,0,0,1-.53027.19043h0A.83176.83176,0,0,1,108.92969,130.0708Zm-2.97949-3.85059a.83061.83061,0,0,1,.18945-1.16015h0a.833.833,0,0,1,1.16015.19043h0a.84207.84207,0,0,1-.19042,1.16015h0a.87315.87315,0,0,1-.4795.14942h0A.84224.84224,0,0,1,105.9502,126.22021Z" style="fill: #ff4257"/>
    </g>
    <g>
      <path d="M41.93945,7.23h2.96a2.118,2.118,0,0,1,1.51758.63769,2.32561,2.32561,0,0,1,.61621,1.585,2.73709,2.73709,0,0,1-.10937.792,1.97574,1.97574,0,0,1,.39551.34082l-.01075-.01074a2.43151,2.43151,0,0,1,.80274,1.793,2.62076,2.62076,0,0,1-.792,1.88086,2.73949,2.73949,0,0,1-1.92481.81446H41.93945Zm2.96,2.56348c.13184-.01075.24219-.209.24219-.34082a.38622.38622,0,0,0-.24219-.3418H43.832v.68262Zm.49512,3.38867a.82257.82257,0,0,0,.8252-.81446c0-.44042-.374-.68261-.8252-.7041H43.832v1.51856Z" style="fill: #1d1d1b"/>
      <path d="M52.69824,7.23h1.90332v5.95215h3.71875V15.063H52.69824Z" style="fill: #1d1d1b"/>
      <path d="M67.24121,13.28076H65.041L64.34766,15.063H62.32324L65.33789,7.23h1.60645l3.02539,7.833H67.91211Zm-1.10058-3.01465-.374,1.14453h.73731Z" style="fill: #1d1d1b"/>
      <path d="M79.59473,12.18017l1.50683,1.11133a4.14526,4.14526,0,0,1-3.41015,1.88184,4.07617,4.07617,0,1,1,0-8.15234,4.2268,4.2268,0,0,1,3.4541,1.91406l-1.5293,1.12207a2.375,2.375,0,0,0-1.9248-1.15528,2.18946,2.18946,0,1,0,0,4.37891A2.29467,2.29467,0,0,0,79.59473,12.18017Z" style="fill: #1d1d1b"/>
      <path d="M88.35938,11.38818c-.26368.24219-.53907.51758-.85743.81446V15.063H85.60938V7.23h1.89257V9.61767L90.043,7.23h2.75L89.79,10.06787c1.07812,1.50781,2.57422,3.59766,3.56445,4.99512h-2.376Z" style="fill: #1d1d1b"/>
      <path d="M107.97363,11.73H105.542v3.333h-1.90332V7.23H105.542V9.84814h2.43164V7.23h1.91407v7.833h-1.91407Z" style="fill: #1d1d1b"/>
      <path d="M122.53809,11.10205a4.07618,4.07618,0,1,1-4.082-4.081A4.09,4.09,0,0,1,122.53809,11.10205Zm-1.92579,0a2.16163,2.16163,0,1,0-2.15625,2.168A2.18333,2.18333,0,0,0,120.6123,11.10205Z" style="fill: #1d1d1b"/>
      <path d="M127.14551,7.23h1.90332v5.95215h3.71875V15.063h-5.62207Z" style="fill: #1d1d1b"/>
      <path d="M137.45313,7.23h5.33593V9.1001h-3.42187V9.771h2.99219v1.90332h-2.99219v1.49609h3.34472V15.063h-5.25878Z" style="fill: #1d1d1b"/>
      <path d="M149.67285,15.04053a5.29215,5.29215,0,0,1-2.45312-1.33106l1.25488-1.44043a3.24445,3.24445,0,0,0,1.584.92383,1.88343,1.88343,0,0,0,.418.05469,1.2931,1.2931,0,0,0,.57227-.1211.57067.57067,0,0,0,.3623-.50586c0-.30761-.57129-.49511-1.0664-.59375a7.54092,7.54092,0,0,1-1.73828-.53906,2.16009,2.16009,0,0,1-1.13379-1.94726,2.28293,2.28293,0,0,1,.40722-1.27637,2.54064,2.54064,0,0,1,1.0127-.81445l-.01172.01074a3.1927,3.1927,0,0,1,1.34277-.29688,3.84146,3.84146,0,0,1,.583.04395,4.57744,4.57744,0,0,1,2.25488,1.15527l-1.21,1.45215a2.42792,2.42792,0,0,0-1.65039-.76953,1.119,1.119,0,0,0-.50586.10937.45576.45576,0,0,0-.31933.38575c0,.29687.39648.43945,1.03418.57129.0664.02246.14355.02246.2207.04492a5.80092,5.80092,0,0,1,1.48437.47265h-.01074a2.19157,2.19157,0,0,1,1.21,1.99121,2.30784,2.30784,0,0,1-.418,1.375,2.71055,2.71055,0,0,1-1.04492.83594,2.86094,2.86094,0,0,1-1.38574.29785A3.68089,3.68089,0,0,1,149.67285,15.04053Z" style="fill: #1d1d1b"/>
    </g>
    <g>
      <path d="M50.40234,25.38428c-.00879,1.46386-.57031,2.35742-2.17675,2.35742-.9795,0-1.94825-.4375-2.03418-1.48242H46.79a1.28976,1.28976,0,0,0,1.43555.97851c1.10254,0,1.57812-.65527,1.57812-1.85351v-.665h-.01855A1.70242,1.70242,0,0,1,48.22559,25.727c-1.56836,0-2.21485-1.12207-2.21485-2.51953a2.2442,2.2442,0,0,1,2.21485-2.47168,1.72868,1.72868,0,0,1,1.55957.98828h.01855v-.8457h.59863Zm-.59863-2.11036c0-.96-.44726-2.03417-1.57812-2.03417-1.14063,0-1.61621,1.01757-1.61621,2.03417,0,.98926.51367,1.94922,1.61621,1.94922C49.26172,25.22314,49.80371,24.272,49.80371,23.27392Z" style="fill: #1d1d1b"/>
      <path d="M51.54,20.87842h.55176v1.15039h.01855a1.81277,1.81277,0,0,1,1.85352-1.2168v.59863a1.69014,1.69014,0,0,0-1.8252,1.75879v2.61426H51.54Z" style="fill: #1d1d1b"/>
      <path d="M54.47559,22.38037c.05664-1.15039.86425-1.64453,1.98632-1.64453.86524,0,1.80664.2666,1.80664,1.57812v2.6045a.31851.31851,0,0,0,.35157.36132.55426.55426,0,0,0,.19043-.03808v.5039a1.66177,1.66177,0,0,1-.39063.03809c-.6084,0-.70312-.3418-.70312-.85547h-.01856a1.87169,1.87169,0,0,1-1.78711.998c-.90332,0-1.6455-.44629-1.6455-1.43555,0-1.37793,1.34082-1.42578,2.63378-1.57812.49414-.05664.76954-.12305.76954-.665,0-.8086-.57911-1.00781-1.28321-1.00781-.74121,0-1.293.34179-1.31152,1.14062ZM57.669,23.103h-.01856c-.07617.14257-.3418.19043-.50391.21875-1.01757.18066-2.28125.17089-2.28125,1.13086a1.02153,1.02153,0,0,0,1.09278.96972,1.57656,1.57656,0,0,0,1.71094-1.54Z" style="fill: #1d1d1b"/>
      <path d="M58.91113,20.87842h.666l1.54,4.30664h.01855l1.52149-4.30664h.61816l-1.835,4.90527h-.63672Z" style="fill: #1d1d1b"/>
      <path d="M63.87109,18.99658h.59864v.96h-.59864Zm0,1.88184h.59864v4.90527h-.59864Z" style="fill: #1d1d1b"/>
      <path d="M66.57031,20.87842h.998v.5039h-.998v3.3086c0,.38965.05664.61718.48438.6455a4.53782,4.53782,0,0,0,.51367-.02832v.51368c-.18066,0-.35254.01855-.5332.01855-.79786,0-1.07422-.26562-1.06446-1.10254V21.38232h-.85547v-.5039h.85547V19.40478h.59961Z" style="fill: #1d1d1b"/>
      <path d="M68.374,22.38037c.05664-1.15039.86426-1.64453,1.98633-1.64453.86524,0,1.80664.2666,1.80664,1.57812v2.6045a.31851.31851,0,0,0,.35156.36132.55421.55421,0,0,0,.19043-.03808v.5039a1.66163,1.66163,0,0,1-.39062.03809c-.6084,0-.70313-.3418-.70313-.85547h-.01855a1.8717,1.8717,0,0,1-1.78711.998c-.90332,0-1.64551-.44629-1.64551-1.43555,0-1.37793,1.34082-1.42578,2.63379-1.57812.49414-.05664.76953-.12305.76953-.665,0-.8086-.5791-1.00781-1.2832-1.00781-.74121,0-1.293.34179-1.31152,1.14062Zm3.19336.72266h-.01855c-.07617.14257-.3418.19043-.50391.21875-1.01758.18066-2.28125.17089-2.28125,1.13086a1.02153,1.02153,0,0,0,1.09278.96972,1.57654,1.57654,0,0,0,1.71093-1.54Z" style="fill: #1d1d1b"/>
      <path d="M74.3125,20.87842h.99805v.5039H74.3125v3.3086c0,.38965.05664.61718.48438.6455a4.538,4.538,0,0,0,.51367-.02832v.51368c-.18067,0-.35254.01855-.53321.01855-.79785,0-1.07421-.26562-1.06445-1.10254V21.38232h-.85547v-.5039h.85547V19.40478h.59961Z" style="fill: #1d1d1b"/>
      <path d="M76.18262,18.99658h.59863v.96h-.59863Zm0,1.88184h.59863v4.90527h-.59863Z" style="fill: #1d1d1b"/>
      <path d="M82.32227,23.33154a2.334,2.334,0,1,1-4.63868,0,2.33405,2.33405,0,1,1,4.63868,0Zm-4.04,0a1.75346,1.75346,0,1,0,3.4414,0,1.75362,1.75362,0,1,0-3.4414,0Z" style="fill: #1d1d1b"/>
      <path d="M83.20313,20.87842h.5996v.8457h.01856a1.66407,1.66407,0,0,1,1.56836-.98828c1.3789,0,1.79687.72266,1.79687,1.8916v3.15625h-.59863V22.72314c0-.84668-.27637-1.48339-1.24512-1.48339a1.548,1.548,0,0,0-1.54,1.68261v2.86133h-.5996Z" style="fill: #1d1d1b"/>
      <path d="M88.25781,22.38037c.05664-1.15039.86426-1.64453,1.98633-1.64453.86524,0,1.80664.2666,1.80664,1.57812v2.6045a.31851.31851,0,0,0,.35156.36132.55421.55421,0,0,0,.19043-.03808v.5039a1.66168,1.66168,0,0,1-.39062.03809c-.6084,0-.70313-.3418-.70313-.85547h-.01855a1.8717,1.8717,0,0,1-1.78711.998c-.90332,0-1.64453-.44629-1.64453-1.43555,0-1.37793,1.33984-1.42578,2.63281-1.57812.49414-.05664.76953-.12305.76953-.665,0-.8086-.5791-1.00781-1.2832-1.00781-.74121,0-1.293.34179-1.31152,1.14062Zm3.19336.72266h-.01855c-.07617.14257-.34278.19043-.50391.21875-1.01758.18066-2.28125.17089-2.28125,1.13086a1.02153,1.02153,0,0,0,1.09277.96972,1.57654,1.57654,0,0,0,1.71094-1.54Z" style="fill: #1d1d1b"/>
      <path d="M93.25488,18.99658h.59864v6.78711h-.59864Z" style="fill: #1d1d1b"/>
      <path d="M97.58691,22.38037c.05664-1.15039.86426-1.64453,1.98633-1.64453.86524,0,1.80664.2666,1.80664,1.57812v2.6045a.31851.31851,0,0,0,.35157.36132.5543.5543,0,0,0,.19043-.03808v.5039a1.66177,1.66177,0,0,1-.39063.03809c-.6084,0-.70312-.3418-.70312-.85547h-.01856a1.87169,1.87169,0,0,1-1.78711.998c-.90332,0-1.64551-.44629-1.64551-1.43555,0-1.37793,1.34082-1.42578,2.63379-1.57812.49414-.05664.76953-.12305.76953-.665,0-.8086-.5791-1.00781-1.2832-1.00781-.74121,0-1.293.34179-1.31152,1.14062Zm3.19336.72266h-.01855c-.07617.14257-.3418.19043-.50391.21875-1.01758.18066-2.28125.17089-2.28125,1.13086a1.02153,1.02153,0,0,0,1.09278.96972,1.57654,1.57654,0,0,0,1.71093-1.54Z" style="fill: #1d1d1b"/>
      <path d="M103.52539,20.87842h.998v.5039h-.998v3.3086c0,.38965.05664.61718.48438.6455a4.538,4.538,0,0,0,.51367-.02832v.51368c-.18067,0-.35254.01855-.53321.01855-.79785,0-1.07421-.26562-1.06445-1.10254V21.38232h-.85547v-.5039h.85547V19.40478h.59961Z" style="fill: #1d1d1b"/>
      <path d="M106.33594,20.87842h.999v.5039h-.999v3.3086c0,.38965.05761.61718.48535.6455a4.5377,4.5377,0,0,0,.51367-.02832v.51368c-.18066,0-.35254.01855-.5332.01855-.79785,0-1.07324-.26562-1.06446-1.10254V21.38232h-.85546v-.5039h.85546V19.40478h.59864Z" style="fill: #1d1d1b"/>
      <path d="M108.54883,23.49267a1.7394,1.7394,0,0,0,1.61621,1.92969,1.49457,1.49457,0,0,0,1.54-1.25488h.59863a2.0029,2.0029,0,0,1-2.13867,1.75879c-1.55859,0-2.21484-1.19824-2.21484-2.59473,0-1.293.65625-2.5957,2.21484-2.5957,1.57812,0,2.20508,1.37891,2.1582,2.75683Zm3.17578-.5039a1.64878,1.64878,0,0,0-1.55957-1.749,1.74073,1.74073,0,0,0-1.61621,1.749Z" style="fill: #1d1d1b"/>
      <path d="M113.11816,20.87842h.59961v.8457h.01856a1.66407,1.66407,0,0,1,1.56836-.98828c1.3789,0,1.79687.72266,1.79687,1.8916v3.15625h-.59863V22.72314c0-.84668-.27637-1.48339-1.24512-1.48339a1.548,1.548,0,0,0-1.54,1.68261v2.86133h-.59961Z" style="fill: #1d1d1b"/>
      <path d="M122.20313,25.78369h-.55176V24.8999h-.01856a1.82521,1.82521,0,0,1-1.69238,1.02637c-1.23535,0-1.7207-.72266-1.7207-1.86328V20.87842h.59961v3.19433c.02832.88379.36035,1.34961,1.31152,1.34961,1.02637,0,1.47363-.96972,1.47363-1.96777V20.87842h.59864Z" style="fill: #1d1d1b"/>
      <path d="M123.33105,20.87842h.55176v.82715h.02832a1.71188,1.71188,0,0,1,1.60645-.96973,1.36358,1.36358,0,0,1,1.40722.96,1.65649,1.65649,0,0,1,1.5586-.96c1.07422,0,1.626.56055,1.626,1.7207v3.32715h-.59961V22.48486c0-.80761-.30372-1.24511-1.15918-1.24511-1.03614,0-1.33106.85546-1.33106,1.76855v2.77539h-.59863V22.45654c.00879-.665-.2666-1.21679-1.02735-1.21679-1.03613,0-1.4541.77929-1.46386,1.80664v2.7373h-.59864Z" style="fill: #1d1d1b"/>
      <path d="M131.25391,18.99658h.59863v.96h-.59863Zm0,1.88184h.59863v4.90527h-.59863Z" style="fill: #1d1d1b"/>
      <path d="M134.34277,23.23584,132.584,20.87842h.751l1.39746,1.86328,1.36817-1.86328h.751L135.084,23.22607l1.91016,2.55762h-.75976l-1.54-2.0625-1.51172,2.0625h-.74121Z" style="fill: #1d1d1b"/>
      <path d="M140.50879,22.314a1.12878,1.12878,0,0,0-1.2832-1.07421c-.53223,0-1.16016.209-1.16016.8457,0,.53222.6084.72265,1.01758.82715l.79883.18066a1.43753,1.43753,0,0,1,1.39648,1.35938c0,1.06445-1.05469,1.47363-1.96777,1.47363a1.77647,1.77647,0,0,1-2.01465-1.73047h.59863a1.29293,1.29293,0,0,0,1.44531,1.22656c.56055,0,1.33985-.24707,1.33985-.93164,0-.57031-.53223-.76074-1.07422-.89355l-.76953-.1709c-.7793-.209-1.36914-.47559-1.36914-1.31152,0-.999.97949-1.37891,1.84375-1.37891a1.608,1.608,0,0,1,1.79687,1.57812Z" style="fill: #1d1d1b"/>
      <path d="M142.49219,23.49267a1.7394,1.7394,0,0,0,1.61621,1.92969,1.49457,1.49457,0,0,0,1.54-1.25488h.59863a2.0029,2.0029,0,0,1-2.13867,1.75879c-1.5586,0-2.21485-1.19824-2.21485-2.59473,0-1.293.65625-2.5957,2.21485-2.5957,1.57812,0,2.20508,1.37891,2.1582,2.75683Zm3.17578-.5039a1.64878,1.64878,0,0,0-1.55957-1.749,1.74073,1.74073,0,0,0-1.61621,1.749Z" style="fill: #1d1d1b"/>
      <path d="M148.02148,20.87842h.999v.5039h-.999v3.3086c0,.38965.05762.61718.48536.6455a4.538,4.538,0,0,0,.51367-.02832v.51368c-.18067,0-.35254.01855-.53321.01855-.79785,0-1.07324-.26562-1.06445-1.10254V21.38232h-.85547v-.5039h.85547V19.40478h.59863Z" style="fill: #1d1d1b"/>
    </g>
    <g>
      <path d="M35.40527,153.25342a2.76329,2.76329,0,0,1,1.27149.63965l.11719.10253-.53223.60938-.11621-.10254a1.9936,1.9936,0,0,0-.89551-.46387l-.00586-.001a1.45211,1.45211,0,0,0-.27344-.02832.95357.95357,0,0,0-.40722.08593.47473.47473,0,0,0-.31446.44629.365.365,0,0,0,.208.32032,1.76533,1.76533,0,0,0,.56641.18554,4.43646,4.43646,0,0,1,.97949.29395,1.31364,1.31364,0,0,1,.43945.42969,1.13983,1.13983,0,0,1,.1543.584,1.22347,1.22347,0,0,1-.21.6748,1.4339,1.4339,0,0,1-.5332.42774,1.68983,1.68983,0,0,1-.72266.16113,3.09212,3.09212,0,0,1-.32129-.02344,2.44183,2.44183,0,0,1-1.14551-.542l-.11621-.09765.51465-.627.11621.09668a1.51513,1.51513,0,0,0,.95508.39063.90109.90109,0,0,0,.376-.08106.4383.4383,0,0,0,.27929-.37109.32577.32577,0,0,0-.166-.29688,1.6771,1.6771,0,0,0-.57227-.19922,1.266,1.266,0,0,1-.13379-.02929,2.77337,2.77337,0,0,1-.833-.25781,1.20951,1.20951,0,0,1-.47656-.43653,1.132,1.132,0,0,1-.166-.59961,1.22235,1.22235,0,0,1,.21484-.72461,1.50261,1.50261,0,0,1,.56348-.45215,1.59241,1.59241,0,0,1,.74707-.16113A2.25757,2.25757,0,0,1,35.40527,153.25342Z" style="fill: #1d1d1b"/>
      <path d="M31.21387,153.63428l1.21386,4.1416-1.48339.43457a1.10619,1.10619,0,1,1-.62207-2.12305l.709-.209-.59082-2.01758Zm-.668,3.21484a.305.305,0,0,0-.2041.38184.3153.3153,0,0,0,.37988.21777l.709-.208-.17578-.59961Z" style="fill: #1d1d1b"/>
      <path d="M24.5918,156.58252l.99023.75879,1.21973-.75489-.23242-1.22949.74023-.457.86035,4.55567-.625.38671-3.69824-2.7998Zm1.68164,1.27441.89453.68262-.21289-1.10547Z" style="fill: #1d1d1b"/>
      <path d="M24.18555,159.59619a2.25871,2.25871,0,0,1,.29394,3.17578,2.25434,2.25434,0,0,1-1.53613.80567l-.16211.01562-.02246-.7998.14062-.01661a1.39344,1.39344,0,0,0,.96-.51953,1.45562,1.45562,0,0,0-2.23926-1.86035,1.46893,1.46893,0,0,0-.32813,1.1084l.69043.57227.75488-.91016.62012.51562-1.26172,1.52051-1.53027-1.27051-.00879-.04687a2.25359,2.25359,0,0,1,3.62891-2.29Z" style="fill: #1d1d1b"/>
      <path d="M17.749,166.03662l1.96289.71973.60352-1.64453-1.96387-.72071.2793-.76172,4.05273,1.48633-.28027.76172-1.34277-.49121-.60352,1.64355,1.34277.49317-.27929.76172-4.05176-1.48633Z" style="fill: #1d1d1b"/>
      <path d="M17.0293,169.32861l4.31152.21387-.14062,2.84082-.78711-.03906.10058-2.0293-.63574-.03125L19.79,172.05127l-.80566-.03906.08789-1.76856-1.28418-.06445-.09864,1.97461-.79882-.03906Z" style="fill: #1d1d1b"/>
      <path d="M17.33789,175.271l3.42774-.81153-.24512-1.03418.78027-.18554.67774,2.86132-.78028.18457-.24511-1.03418-3.42774.8125Z" style="fill: #1d1d1b"/>
      <path d="M19.00586,179.8999l3.08008-1.69726-.5127-.92969.70117-.38672,1.417,2.57129-.70118.38672-.51269-.92969-3.08008,1.69824Z" style="fill: #1d1d1b"/>
      <path d="M21.34668,183.356l3.21973-2.88477.543.60645-3.22071,2.88476Z" style="fill: #1d1d1b"/>
      <path d="M23.72559,185.7124l2.47558-3.5498,2.333,1.62695-.45508.65234-1.6709-1.16406-.36425.52246.92285.64356-.46.65918-.92188-.64356-1.19629,1.71485Z" style="fill: #1d1d1b"/>
      <path d="M28.05078,188.25244l1.59766-4.02148.75683.30175-1.59765,4.02051Z" style="fill: #1d1d1b"/>
      <path d="M32.3291,189.37744a2.29577,2.29577,0,0,1-.65234-.56738,2.08335,2.08335,0,0,1-.39649-.77539,2.19774,2.19774,0,0,1-.07617-.89649,2.26014,2.26014,0,0,1,3.49512-1.60937,2.2267,2.2267,0,0,1,.71.75781l.082.13184-.70215.39941-.07519-.13184a1.43471,1.43471,0,0,0-1.08789-.71679,1.4567,1.4567,0,1,0,.8789,2.45312l.1045-.10351.582.54687-.11036.10938a2.24117,2.24117,0,0,1-1.89843.68261A2.31441,2.31441,0,0,1,32.3291,189.37744Z" style="fill: #1d1d1b"/>
      <path d="M40.28223,189.00732l-.68653-1.041-1.39843.31152-.18457,1.23535-.84766.18848.68359-4.582.7168-.15918,2.57031,3.85742Zm-1.168-1.75488-.62012-.93848-.16309,1.11231Z" style="fill: #1d1d1b"/>
      <path d="M43.39648,187.73975l-1.66113-3.10645-.93652.502-.37793-.707,2.59082-1.38574.37793.706-.93652.501,1.66113,3.10645Z" style="fill: #1d1d1b"/>
      <path d="M46.83691,185.48,44,182.21338l.61523-.53321,2.83594,3.26465Z" style="fill: #1d1d1b"/>
      <path d="M47.33008,182.17334a2.25923,2.25923,0,1,1,3.11914-.65137A2.26152,2.26152,0,0,1,47.33008,182.17334Zm.44629-.67871a1.44412,1.44412,0,1,0-.42481-2.00586A1.44947,1.44947,0,0,0,47.77637,181.49463Z" style="fill: #1d1d1b"/>
      <path d="M53.16113,174.54639l-3.19238,1.24707,2.76758.626-.17969.79492-4.21973-.95507.17481-.77051,3.18457-1.24219-2.7627-.626.18067-.793,4.21972.95507Z" style="fill: #1d1d1b"/>
    </g>
    <circle cx="97.63709" cy="48.71941" r="16.84425" style="fill: none"/>
    <polyline points="85.589 59.411 97.5 47.5 109.411 59.411" style="fill: none"/>
    <circle cx="97.5" cy="169.50001" r="16.84425" style="fill: none"/>
    <polyline points="109.411 157.589 97.5 169.5 85.589 157.589" style="fill: none"/>
    <g>
      <circle cx="80.20224" cy="178.14023" r="3.73497" style="fill: #252626"/>
      <path d="M80.20215,180.88525a.55348.55348,0,0,1-.55274-.55273v-4.38379a.55274.55274,0,0,1,1.10547,0v4.38379A.55347.55347,0,0,1,80.20215,180.88525Z" style="fill: #e6e5e5"/>
      <path d="M82.39453,178.69287H78.01074a.55274.55274,0,0,1,0-1.10547h4.38379a.55274.55274,0,1,1,0,1.10547Z" style="fill: #e6e5e5"/>
    </g>
    <g>
      <circle cx="114.69871" cy="178.14023" r="3.73497" style="fill: #252626"/>
      <path d="M116.89063,178.69287h-4.38379a.55274.55274,0,1,1,0-1.10547h4.38379a.55274.55274,0,0,1,0,1.10547Z" style="fill: #e6e5e5"/>
    </g>
    <circle cx="158.01713" cy="108.50052" r="16.84425" style="fill: none"/>
    <polyline points="146.106 96.59 158.017 108.501 146.106 120.411" style="fill: none"/>
    <circle cx="37.76472" cy="108.77461" r="16.84425" style="fill: none"/>
    <polyline points="48.895 120.411 36.984 108.5 48.895 96.589" style="fill: none"/>
    <g>
      <circle cx="115.06692" cy="40.26781" r="3.73497" style="fill: #252626"/>
      <path d="M115.06738,43.01221a.55348.55348,0,0,1-.55273-.55274V38.07568a.55274.55274,0,0,1,1.10547,0v4.38379A.55348.55348,0,0,1,115.06738,43.01221Z" style="fill: #e6e5e5"/>
      <path d="M117.25879,40.8208H112.875a.55274.55274,0,0,1,0-1.10547h4.38379a.55274.55274,0,0,1,0,1.10547Z" style="fill: #e6e5e5"/>
    </g>
    <g>
      <circle cx="80.57046" cy="40.26781" r="3.73497" style="fill: #252626"/>
      <path d="M82.7627,40.8208H78.37891a.55274.55274,0,1,1,0-1.10547H82.7627a.55274.55274,0,0,1,0,1.10547Z" style="fill: #e6e5e5"/>
    </g>
    <g>
      <circle cx="29.38248" cy="91.45579" r="3.73497" style="fill: #252626"/>
      <path d="M31.57422,92.0083H27.19043a.55274.55274,0,0,1,0-1.10547h4.38379a.55274.55274,0,0,1,0,1.10547Z" style="fill: #e6e5e5"/>
      <path d="M29.38281,94.20068a.55347.55347,0,0,1-.55273-.55273V89.26416a.55274.55274,0,1,1,1.10547,0V93.648A.55348.55348,0,0,1,29.38281,94.20068Z" style="fill: #e6e5e5"/>
    </g>
    <g>
      <circle cx="29.38248" cy="125.95225" r="3.73497" style="fill: #252626"/>
      <path d="M29.38281,128.69678a.55348.55348,0,0,1-.55273-.55274v-4.38379a.55274.55274,0,0,1,1.10547,0V128.144A.55348.55348,0,0,1,29.38281,128.69678Z" style="fill: #e6e5e5"/>
    </g>
    <g>
      <circle cx="166.2549" cy="125.95225" r="3.73497" style="fill: #252626"/>
      <path d="M168.44629,126.50537h-4.38281a.55274.55274,0,1,1,0-1.10547h4.38281a.55274.55274,0,0,1,0,1.10547Z" style="fill: #e6e5e5"/>
      <path d="M166.25488,128.69678a.55348.55348,0,0,1-.55273-.55274v-4.38379a.55274.55274,0,0,1,1.10547,0V128.144A.55348.55348,0,0,1,166.25488,128.69678Z" style="fill: #e6e5e5"/>
    </g>
    <g>
      <circle cx="166.2549" cy="91.45579" r="3.73497" style="fill: #252626"/>
      <path d="M166.25488,94.20068a.55347.55347,0,0,1-.55273-.55273V89.26416a.55274.55274,0,1,1,1.10547,0V93.648A.55348.55348,0,0,1,166.25488,94.20068Z" style="fill: #e6e5e5"/>
    </g>
    <circle cx="97.5" cy="108.49998" r="14.87217" style="fill: #252626"/>
    <circle cx="127.50004" cy="56.49998" r="14.87217" style="fill: #252626"/>
    <circle cx="150.5" cy="138.49998" r="14.87217" style="fill: #252626"/>
    <circle cx="67.5" cy="161.49998" r="14.87217" style="fill: #252626"/>
    <circle cx="45.5" cy="78.49998" r="14.87217" style="fill: #252626"/>
    <g>
      <path d="M145.98438,207.91553a2.77317,2.77317,0,0,1-.80372,1.17382l-.11816.10157-.5332-.60938.11816-.10156a1.9813,1.9813,0,0,0,.58106-.82227l.001-.00781a1.40812,1.40812,0,0,0,.06543-.26758.93313.93313,0,0,0-.03125-.41406.47229.47229,0,0,0-.39746-.37109.3624.3624,0,0,0-.34668.16406,1.7499,1.7499,0,0,0-.26074.5332,4.3497,4.3497,0,0,1-.42383.93164,1.28809,1.28809,0,0,1-.48437.377,1.12951,1.12951,0,0,1-.59864.07422,1.23375,1.23375,0,0,1-.64062-.29883,1.4201,1.4201,0,0,1-.35059-.58594,1.67013,1.67013,0,0,1-.06347-.73633,3.15386,3.15386,0,0,1,.06738-.3164,2.46641,2.46641,0,0,1,.6914-1.0625l.11133-.10157.55274.59571-.11133.10156a1.51874,1.51874,0,0,0-.5166.89453.91524.91524,0,0,0,.02929.38281.442.442,0,0,0,.33106.32617.33447.33447,0,0,0,.31641-.123,1.69288,1.69288,0,0,0,.27343-.541c.01075-.03515.0293-.082.04785-.1289a2.74792,2.74792,0,0,1,.36817-.791,1.23721,1.23721,0,0,1,.49609-.41211,1.11781,1.11781,0,0,1,.61719-.084,1.23415,1.23415,0,0,1,.68848.31054,1.50578,1.50578,0,0,1,.37207.61914,1.58513,1.58513,0,0,1,.05761.76172A2.27627,2.27627,0,0,1,145.98438,207.91553Z" style="fill: #1d1d1b"/>
      <path d="M146.53906,205.09131l-4-1.64844.59082-1.43359a1.10919,1.10919,0,1,1,2.05078.8457l-.2832.68555,1.94922.80273Zm-2.0957-2.53906a.30418.30418,0,0,0-.16992-.39844.31332.31332,0,0,0-.40821.16015l-.28222.6836.5791.24023Z" style="fill: #1d1d1b"/>
      <path d="M149.49219,199.88037l-1.2002-.3457-.85937,1.14843.66406,1.0586-.52051.69531-2.46387-3.92578.44043-.58789,4.46387,1.25586Zm-2.03125-.57422-1.08106-.30859.60157.95312Z" style="fill: #1d1d1b"/>
      <path d="M148.90234,197.2085a2.25885,2.25885,0,0,1,1.32129-3.52344,2.22654,2.22654,0,0,1,.87989-.0293l.16113.02734-.17871.78125-.14063-.01953a1.39246,1.39246,0,0,0-1.06054.26368,1.45846,1.45846,0,0,0,1.707,2.36523,1.46849,1.46849,0,0,0,.59472-.99219l-.52636-.72851-.96094.69336-.47168-.6543,1.60547-1.16016,1.166,1.61524-.00293.04687a2.28954,2.28954,0,0,1-.93457,1.83008A2.26508,2.26508,0,0,1,148.90234,197.2085Z" style="fill: #1d1d1b"/>
      <path d="M156.89453,195.41162l-.62793-2-1.67578.52734.62793,2-.77539.24219-1.29883-4.12695.77735-.24414.43066,1.36914,1.6748-.52735-.42968-1.36718.77636-.24414,1.29786,4.127Z" style="fill: #1d1d1b"/>
      <path d="M158.79883,195.05029l-.09473-4.32422,2.84863-.0625.01758.78907-2.03515.04492.01367.63867,1.77344-.03906.01757.80664-1.77246.03906.02735,1.28906,1.98047-.043.0166.80079Z" style="fill: #1d1d1b"/>
      <path d="M163.39844,195.32764l.82519-3.42383-1.0332-.25.1875-.7793,2.8584.68945-.18848.7793-1.0332-.248-.8252,3.42383Z" style="fill: #1d1d1b"/>
      <path d="M166.88086,196.5542l1.66992-3.10156-.93555-.50391.37989-.70508,2.58789,1.39258-.38086.70508-.93457-.502-1.6709,3.09961Z" style="fill: #1d1d1b"/>
      <path d="M169.44629,198.21045l2.80371-3.28906.61914.52929-2.80273,3.28711Z" style="fill: #1d1d1b"/>
      <path d="M171.14258,199.74951l3.44531-2.623,1.72363,2.26368-.63379.48437-1.23437-1.62109-.50781.38476.68164.89649-.63965.48633-.68066-.89649-1.665,1.26953Z" style="fill: #1d1d1b"/>
      <path d="M173.31152,203.00342l3.92676-1.82422.34277.73828-3.92578,1.82422Z" style="fill: #1d1d1b"/>
      <path d="M174.543,206.019a2.31384,2.31384,0,0,1,.34277-.79687,2.06769,2.06769,0,0,1,.61817-.61328,2.19291,2.19291,0,0,1,.83105-.34571,2.27012,2.27012,0,0,1,2.64844,1.80078,2.26563,2.26563,0,0,1-.55371,1.95118l-.10059.11718-.59472-.54687.10156-.11328a1.43848,1.43848,0,0,0,.35449-1.25586,1.45914,1.45914,0,1,0-2.07324,1.58594l.13086.06835-.34473.72266-.13769-.07422a2.23147,2.23147,0,0,1-1.2295-1.60156A2.29919,2.29919,0,0,1,174.543,206.019Z" style="fill: #1d1d1b"/>
      <path d="M174.56348,212.4624l1.21289-.28906.18261-1.42188-1.09863-.5957.11133-.86133,4.07617,2.20313-.09375.72851-4.501,1.10547Zm2.0498-.5,1.0918-.26367-.99024-.53125Z" style="fill: #1d1d1b"/>
      <path d="M173.97754,214.3999l3.28223,1.291.38964-.99024.74707.29492-1.07714,2.73829-.74707-.293.38964-.99219-3.28222-1.291Z" style="fill: #1d1d1b"/>
      <path d="M172.63184,217.15576l3.59765,2.4082-.45215.67579-3.59765-2.40625Z" style="fill: #1d1d1b"/>
      <path d="M173.14355,220.396a2.263,2.263,0,1,1-3.18652-.17579A2.2653,2.2653,0,0,1,173.14355,220.396Zm-.60742.543a1.44557,1.44557,0,1,0-.10742,2.05079A1.44924,1.44924,0,0,0,172.53613,220.939Z" style="fill: #1d1d1b"/>
      <path d="M165.01465,223.2085l2.8584,1.88281-1.08594-2.61719.751-.3125,1.65625,3.99023-.72852.30274-2.85059-1.87891,1.084,2.61328-.75.31055-1.65723-3.99023Z" style="fill: #1d1d1b"/>
    </g>
    <g>
      <path d="M67.26855,56.21826a.82817.82817,0,0,1-.416-1.54492,61.51325,61.51325,0,0,1,61.4082-.03711.82864.82864,0,0,1-.82812,1.43555,59.852,59.852,0,0,0-59.75.03515A.81937.81937,0,0,1,67.26855,56.21826Z" style="fill: #252626"/>
      <path d="M149.89258,139.62549a.81933.81933,0,0,1-.41406-.11133.82829.82829,0,0,1-.30176-1.13184,59.85662,59.85662,0,0,0,.04785-59.72363.82864.82864,0,1,1,1.43555-.82812,61.51791,61.51791,0,0,1-.04981,61.38183A.82653.82653,0,0,1,149.89258,139.62549Z" style="fill: #252626"/>
      <path d="M97.40137,169.91455a61.41482,61.41482,0,0,1-30.749-8.23633.82828.82828,0,0,1,.83008-1.43359,59.85535,59.85535,0,0,0,59.76367.042.82864.82864,0,1,1,.82813,1.43555A61.42312,61.42312,0,0,1,97.40137,169.91455Z" style="fill: #252626"/>
      <path d="M45.22168,139.36572a.82906.82906,0,0,1-.71875-.41406A61.51771,61.51771,0,0,1,44.499,77.60889a.82864.82864,0,1,1,1.43555.82812,59.8537,59.8537,0,0,0,.00391,59.68652.82782.82782,0,0,1-.7168,1.24219Z" style="fill: #252626"/>
      <path d="M97.63672,48.09521a.82792.82792,0,0,1-.82813-.82812V30.42236a.82813.82813,0,0,1,1.65625,0V47.26709A.82791.82791,0,0,1,97.63672,48.09521Z" style="fill: #252626"/>
      <path d="M97.4502,65.53662a17.55721,17.55721,0,0,1-12.4961-5.17578A.82864.82864,0,0,1,86.126,59.189a16.01419,16.01419,0,0,0,22.64941,0,.82864.82864,0,1,1,1.17188,1.17188A17.56115,17.56115,0,0,1,97.4502,65.53662Z" style="fill: #252626"/>
      <path d="M97.4502,186.75928a.82793.82793,0,0,1-.82813-.82813V169.08642a.82813.82813,0,0,1,1.65625,0v16.84473A.82793.82793,0,0,1,97.4502,186.75928Z" style="fill: #252626"/>
      <path d="M109.36133,158.00439a.82911.82911,0,0,1-.58594-.24218,16.01419,16.01419,0,0,0-22.64941,0,.82864.82864,0,0,1-1.17188-1.17188,17.674,17.674,0,0,1,24.99317,0,.82812.82812,0,0,1-.58594,1.41406Z" style="fill: #252626"/>
      <path d="M174.83789,109.30615H157.99316a.82813.82813,0,0,1,0-1.65625h16.84473a.82813.82813,0,1,1,0,1.65625Z" style="fill: #252626"/>
      <path d="M146.083,121.21631a.82912.82912,0,0,1-.58594-.24219,17.674,17.674,0,0,1,0-24.99316.82864.82864,0,1,1,1.17188,1.17187,16.0142,16.0142,0,0,0,0,22.64942.82813.82813,0,0,1-.58594,1.41406Z" style="fill: #252626"/>
      <path d="M37.1377,109.105H20.293a.82813.82813,0,1,1,0-1.65625H37.1377a.82813.82813,0,0,1,0,1.65625Z" style="fill: #252626"/>
      <path d="M48.70313,121.21631a.82813.82813,0,0,1-.58594-1.41406,16.01423,16.01423,0,0,0,0-22.64942A.82864.82864,0,1,1,49.28906,95.981a17.674,17.674,0,0,1,0,24.99316A.82911.82911,0,0,1,48.70313,121.21631Z" style="fill: #252626"/>
      <path d="M97.35254,79.02392h-.00586a.82731.82731,0,0,1-.82227-.834l.09766-13.4873a.82731.82731,0,0,1,.82813-.82227h.00585a.82731.82731,0,0,1,.82227.834l-.09766,13.48731A.8273.8273,0,0,1,97.35254,79.02392Z" style="fill: #252626"/>
      <path d="M141.14941,109.30615H127.63477a.82813.82813,0,1,1,0-1.65625h13.51464a.82813.82813,0,1,1,0,1.65625Z" style="fill: #252626"/>
      <path d="M97.4502,153.0708a.82731.82731,0,0,1-.82813-.82227l-.09766-13.48242a.82732.82732,0,0,1,.82227-.834h.00586a.8273.8273,0,0,1,.82812.82226l.09766,13.48243a.82731.82731,0,0,1-.82227.834Z" style="fill: #252626"/>
      <path d="M67.06934,109.30615H53.63672a.82813.82813,0,1,1,0-1.65625H67.06934a.82813.82813,0,0,1,0,1.65625Z" style="fill: #252626"/>
    </g>
    <g>
      <path d="M108.63965,258.18994a.83019.83019,0,0,1-.37012-1.10937h0a.83515.83515,0,0,1,1.11035-.37989h0a.83407.83407,0,0,1,.37012,1.12012h0a.80928.80928,0,0,1-.74023.44922h0A.8183.8183,0,0,1,108.63965,258.18994Zm2.00976-4.31934a.83829.83829,0,0,1-.46972-1.08007h0l.00976.00976h0a.816.816,0,0,1,1.07032-.46972h0a.83327.83327,0,0,1,.46,1.08007h.00976a.84671.84671,0,0,1-.77929.51953h0A.805.805,0,0,1,110.64941,253.8706Zm1.63086-4.4707a.83513.83513,0,0,1-.56054-1.0293h0a.82789.82789,0,0,1,1.03027-.56054h0a.82812.82812,0,0,1,.55957,1.03027h0a.81195.81195,0,0,1-.79.58984h0A.95094.95094,0,0,1,112.28027,249.3999Zm1.14942-4.61914a.83208.83208,0,0,1-.67969-.95019h0a.82622.82622,0,0,1,.9502-.68067h0a.82924.82924,0,0,1,.68945.9502h0a.8358.8358,0,0,1-.82031.69043h0A.672.672,0,0,1,113.42969,244.78076Zm.62011-4.7207a.83556.83556,0,0,1-.76953-.88965h0a.81273.81273,0,0,1,.87989-.75977h0a.81472.81472,0,0,1,.76953.87989h0a.82085.82085,0,0,1-.82031.76953h-.05958Zm-.62011-5.58985h.00976a.82813.82813,0,0,1,.83008-.83007h0a.83891.83891,0,0,1,.82031.83007h0a.82813.82813,0,0,1-.83007.83008h0A.8344.8344,0,0,1,113.42969,234.47021Z" style="fill: #ff4257"/>
      <path d="M114.12988,264.33057a.81711.81711,0,0,1,.17969-1.1504h0a.83042.83042,0,0,1,1.16016.17969h0a.8328.8328,0,0,1-.18946,1.16016h0a.79155.79155,0,0,1-.48047.16015h0A.80935.80935,0,0,1,114.12988,264.33057Zm3.83985-2.9004a.82723.82723,0,0,1,.11035-1.16992h0a.83689.83689,0,0,1,1.16992.11035h0a.82842.82842,0,0,1-.12012,1.16993h0a.79692.79692,0,0,1-.5205.18945h0A.81439.81439,0,0,1,117.96973,261.43017Zm3.63965-3.16015a.82445.82445,0,0,1,.0205-1.16992h0a.83338.83338,0,0,1,1.16992.03027h0a.8153.8153,0,0,1-.03027,1.16992h0a.825.825,0,0,1-.56933.23047h0A.80629.80629,0,0,1,121.60938,258.27Zm3.40039-3.39942a.82411.82411,0,0,1-.04981-1.16992h0a.82413.82413,0,0,1,1.16992-.05078h0a.82485.82485,0,0,1,.04981,1.1709h0a.80585.80585,0,0,1-.61035.26953h0A.81388.81388,0,0,1,125.00977,254.8706Zm3.15039-3.64062a.82589.82589,0,0,1-.14063-1.15918h0a.8281.8281,0,0,1,1.16992-.14063h0a.82708.82708,0,0,1,.14063,1.16016h0a.8434.8434,0,0,1-.66016.32031h0A.83387.83387,0,0,1,128.16016,251.23Zm2.88964-3.84961a.834.834,0,0,1-.21-1.16016V246.23a.82441.82441,0,0,1,1.15039-.21973h0a.832.832,0,0,1,.21,1.15039h0a.812.812,0,0,1-.68067.35938h0A.88768.88768,0,0,1,131.0498,247.38037Zm2.63965-4.03027a.83032.83032,0,0,1-.27929-1.13965h0a.82594.82594,0,0,1,1.13964-.28028h0a.82652.82652,0,0,1,.28028,1.12989h0a.83835.83835,0,0,1-.71.41015h0A.85018.85018,0,0,1,133.68945,243.3501Zm2.40039-4.17969a.83042.83042,0,0,1-.36035-1.12012h0a.8257.8257,0,0,1,1.12012-.34961h0a.82291.82291,0,0,1,.35059,1.10938h0a.82958.82958,0,0,1-.74024.45019h0A.84551.84551,0,0,1,136.08984,239.17041Zm2.11036-4.33008a.82206.82206,0,0,1-.43067-1.08008h0a.83322.83322,0,0,1,1.08985-.43945h0a.82894.82894,0,0,1,.43066,1.08984h0a.81286.81286,0,0,1-.75977.5h0A.78485.78485,0,0,1,138.2002,234.84033Z" style="fill: #ff4257"/>
    </g>
    <g>
      <path d="M80.51953,315.72021a.81956.81956,0,0,1,.79981-.84961h0a.82733.82733,0,0,1,.86035.79981h0a.8276.8276,0,0,1-.80957.84961h-.02051A.822.822,0,0,1,80.51953,315.72021Zm.75-3.96a.82814.82814,0,0,1-.83008-.83008h0a.83441.83441,0,0,1,.83008-.83007h0a.84283.84283,0,0,1,.83008.83984h0a.82609.82609,0,0,1-.83008.82031Zm.10059-4.75976a.82826.82826,0,0,1-.77051-.87989h0a.8379.8379,0,0,1,.89062-.7705h0a.82815.82815,0,0,1,.76954.87988h0a.82843.82843,0,0,1-.82032.77051h-.06933Zm.46-4.74024a.82044.82044,0,0,1-.68067-.95019h0a.82481.82481,0,0,1,.9502-.67969h0a.8142.8142,0,0,1,.68066.9502h0a.818.818,0,0,1-.81054.68945h0A.672.672,0,0,1,81.83008,302.26025Zm.95019-4.66015a.82953.82953,0,0,1-.55078-1.0293h0a.81351.81351,0,0,1,1.02051-.56055h0a.82813.82813,0,0,1,.55957,1.03028h0a.81309.81309,0,0,1-.79.58984h0A.9514.9514,0,0,1,82.78027,297.6001Zm1.5-4.5293a.8271.8271,0,0,1-.4707-1.07031h0a.85049.85049,0,0,1,1.08008-.46973h0a.83609.83609,0,0,1,.46,1.0791h0a.809.809,0,0,1-.76953.52051h0A.81592.81592,0,0,1,84.28027,293.0708Zm1.87989-4.37012a.82394.82394,0,0,1-.37989-1.11035h0a.82183.82183,0,0,1,1.10938-.37012h0a.83226.83226,0,0,1,.37988,1.11036h0a.84044.84044,0,0,1-.75.46h0A.76858.76858,0,0,1,86.16016,288.70068Z" style="fill: #ff4257"/>
      <path d="M56.67969,312.08057a.81307.81307,0,0,1-.42969-1.08008h0v-.00977h0a.82976.82976,0,0,1,1.08984-.43066h0a.82882.82882,0,0,1,.42969,1.08984h0a.83576.83576,0,0,1-.75976.5h0A.78677.78677,0,0,1,56.67969,312.08057Zm2.00976-4.37012a.81916.81916,0,0,1-.34961-1.12012h0a.82637.82637,0,0,1,1.11036-.34961h0a.82154.82154,0,0,1,.35937,1.10938h0a.82739.82739,0,0,1-.74023.45019h0A.85475.85475,0,0,1,58.68945,307.71045ZM60.99023,303.48a.82955.82955,0,0,1-.28027-1.13965h0a.827.827,0,0,1,1.13965-.28027h0a.82563.82563,0,0,1,.28027,1.12988h0a.82508.82508,0,0,1-.71.41016h0A.844.844,0,0,1,60.99023,303.48Zm2.55957-4.08008a.83378.83378,0,0,1-.21972-1.14941h0a.82569.82569,0,0,1,1.16015-.21973h0a.83082.83082,0,0,1,.21,1.14941h0a.83532.83532,0,0,1-.68067.36036h0A.88014.88014,0,0,1,63.5498,299.3999ZM66.34961,295.48a.83748.83748,0,0,1-.13965-1.16992h0a.8359.8359,0,0,1,1.16016-.13965h0a.84129.84129,0,0,1,.14941,1.16992h0a.84338.84338,0,0,1-.66015.32031h0A.81548.81548,0,0,1,66.34961,295.48Zm3.06055-3.71973a.82412.82412,0,0,1-.05078-1.16992h0a.8217.8217,0,0,1,1.16015-.05957h0a.826.826,0,0,1,.06055,1.16992h0a.82252.82252,0,0,1-.61035.26953h0A.84733.84733,0,0,1,69.41016,291.76025Zm3.31933-3.47949a.84653.84653,0,0,1,.03028-1.18066h0a.83311.83311,0,0,1,1.16992.03027h0a.82339.82339,0,0,1-.01953,1.16992h0a.80778.80778,0,0,1-.58008.23047h0A.83252.83252,0,0,1,72.72949,288.28076Zm3.56055-3.25a.825.825,0,0,1,.10937-1.16016h0a.826.826,0,0,1,1.16993.09961h0a.83591.83591,0,0,1-.10938,1.16993h0a.80479.80479,0,0,1-.53027.19043h0A.83032.83032,0,0,1,76.29,285.03076Zm3.7793-2.99023a.81811.81811,0,0,1,.18066-1.15039h.00977a.81825.81825,0,0,1,1.15039.18066h0a.82334.82334,0,0,1-.19043,1.15918h.00976a.81454.81454,0,0,1-.48926.16016h0A.80978.80978,0,0,1,80.06934,282.04053Z" style="fill: #ff4257"/>
    </g>
    <g>
      <path d="M82.13965,262.20068a.82848.82848,0,0,1-.37012-1.11035h0a.82293.82293,0,0,1,1.11035-.37012h0a.82022.82022,0,0,1,.37012,1.11036h0a.81743.81743,0,0,1-.74023.46h0A.84552.84552,0,0,1,82.13965,262.20068Zm-4.28027-1.91015a.83363.83363,0,0,1-.46-1.08008h0a.82276.82276,0,0,1,1.07032-.46h0a.83065.83065,0,0,1,.46972,1.07031h0a.8409.8409,0,0,1-.77929.5293h0A.80494.80494,0,0,1,77.85938,260.29053Zm-4.42969-1.54a.836.836,0,0,1-.55957-1.03028h0a.8275.8275,0,0,1,1.02929-.55957h0a.82731.82731,0,0,1,.56055,1.0293h0a.82312.82312,0,0,1-.79.59082h0A1.01211,1.01211,0,0,1,73.42969,258.75049Zm-4.54-1.03028A.83207.83207,0,0,1,68.21,256.77h0a.82659.82659,0,0,1,.9502-.68945h0a.84415.84415,0,0,1,.68945.96h0a.83483.83483,0,0,1-.81934.68945h0A.67668.67668,0,0,1,68.88965,257.72021Zm-5.41992-1.41015a.82.82,0,0,1,.87988-.76953h0a.82232.82232,0,0,1,.77051.87988h0a.82091.82091,0,0,1-.87989.76953h0A.82684.82684,0,0,1,63.46973,256.31006Zm-9.51953,0a.82706.82706,0,0,1,.7998-.85938v.00977a.81274.81274,0,0,1,.84961.7998h0a.82448.82448,0,0,1-.79981.84961h-.01953A.82134.82134,0,0,1,53.9502,256.31006Zm4.75976-.10938a.81381.81381,0,0,1,.83008-.82031v-.00977a.84285.84285,0,0,1,.83008.83985h0a.826.826,0,0,1-.83008.82031h0A.82814.82814,0,0,1,58.71,256.20068Z" style="fill: #ff4257"/>
      <path d="M88.24023,256.16064a.83191.83191,0,0,1,.18946-1.16015h0a.83292.83292,0,0,1,1.16015.18945h0a.84192.84192,0,0,1-.19043,1.16016h0a.87374.87374,0,0,1-.48925.15039h0A.83773.83773,0,0,1,88.24023,256.16064Zm-2.91015-3.7705a.825.825,0,0,1,.10937-1.16016h0a.828.828,0,0,1,1.16993.11035h0A.82506.82506,0,0,1,86.5,252.50049h0a.82226.82226,0,0,1-.53027.18945h0A.813.813,0,0,1,85.33008,252.39014Zm-3.16016-3.54981a.83315.83315,0,0,1,.01953-1.16992h0a.83651.83651,0,0,1,1.18067.01953h0v.01074h0a.83363.83363,0,0,1-.03028,1.16992h0a.84871.84871,0,0,1-.57031.2295h0A.82605.82605,0,0,1,82.16992,248.84033Zm-3.40039-3.33008h0a.82417.82417,0,0,1-.05957-1.16992h0a.83583.83583,0,0,1,1.17969-.0498h0a.84211.84211,0,0,1,.0498,1.16992h0a.83613.83613,0,0,1-.60937.26953h0A.81008.81008,0,0,1,78.76953,245.51025Zm-3.63965-3.05957a.82616.82616,0,0,1-.13965-1.16015h0a.81642.81642,0,0,1,1.15918-.14063h0a.82777.82777,0,0,1,.15039,1.16016h0a.83354.83354,0,0,1-.66015.31054h0A.804.804,0,0,1,75.12988,242.45068ZM71.29,239.64014h0a.83312.83312,0,0,1-.21-1.16016h0a.82828.82828,0,0,1,1.14941-.21h0a.83037.83037,0,0,1,.21,1.15039h0a.83612.83612,0,0,1-.67968.36035h0A.86355.86355,0,0,1,71.29,239.64014Zm-4.00977-2.58008h0a.82723.82723,0,0,1-.29-1.12989h0a.83416.83416,0,0,1,1.13965-.29h0a.83029.83029,0,0,1,.28028,1.14062h0a.8054.8054,0,0,1-.71.39941h0A.81008.81008,0,0,1,67.28027,237.06006Zm-4.16015-2.31934h0a.82191.82191,0,0,1-.36035-1.11035h0a.8304.8304,0,0,1,1.12011-.36035h0a.8257.8257,0,0,1,.34961,1.12012h0a.81053.81053,0,0,1-.72949.44043h0A.85472.85472,0,0,1,63.12012,234.74072Zm-4.30078-2.04a.83042.83042,0,0,1-.42969-1.09082h0a.82934.82934,0,0,1,1.08984-.42969h0a.82978.82978,0,0,1,.43067,1.08985h0a.83817.83817,0,0,1-.76075.5h0A.78973.78973,0,0,1,58.81934,232.70068Z" style="fill: #ff4257"/>
    </g>
    <g>
      <path d="M135.16992,289.18994A.83225.83225,0,0,1,136,288.3706h0a.82814.82814,0,0,1,.83008.83008h0a.83441.83441,0,0,1-.83008.83008h0A.83735.83735,0,0,1,135.16992,289.18994Zm4.75977-.04a.84314.84314,0,0,1,.81054-.85937h0a.83432.83432,0,0,1,.84961.80957h0a.83992.83992,0,0,1-.7998.85058h-.03027A.836.836,0,0,1,139.92969,289.1499Zm-9.51953-.16992a.83652.83652,0,0,1,.88964-.76953h0a.83646.83646,0,0,1,.76954.88965h0a.81835.81835,0,0,1-.87989.75976v.01074A.84426.84426,0,0,1,130.41016,288.98Zm-4.03028.34082h0a.83318.83318,0,0,1-.69043-.9502h0a.83.83,0,0,1,.96-.68066h0a.8231.8231,0,0,1,.68067.9502h0a.8358.8358,0,0,1-.82031.69043h0A.58233.58233,0,0,1,126.37988,289.3208Zm-4.74023-1.07031a.82813.82813,0,0,1-.55957-1.03028h0a.81309.81309,0,0,1,1.01953-.55957h0a.82731.82731,0,0,1,.56055,1.0293h0a.81452.81452,0,0,1-.79.59082h0A.8762.8762,0,0,1,121.63965,288.25049Zm-4.57031-1.58985a.83014.83014,0,0,1-.46973-1.08007h0a.83363.83363,0,0,1,1.08008-.46h0a.82519.82519,0,0,1,.46,1.06934h0a.82744.82744,0,0,1-.76953.53027h0A.80494.80494,0,0,1,117.06934,286.66064Zm-4.40918-1.9707a.82867.82867,0,0,1-.37989-1.10937h0a.84237.84237,0,0,1,1.11914-.37989h-.00976a.8372.8372,0,0,1,.37988,1.10938h0a.82285.82285,0,0,1-.75.46h0A.747.747,0,0,1,112.66016,284.68994Z" style="fill: #ff4257"/>
      <path d="M136.05957,314.23h0a.83589.83589,0,0,1-.42969-1.08984h0a.83288.83288,0,0,1,1.08985-.43946h0a.8285.8285,0,0,1,.42968,1.08985h0a.83736.83736,0,0,1-.75976.5h0A.96449.96449,0,0,1,136.05957,314.23Zm-4.39941-2.08984a.83042.83042,0,0,1-.36036-1.12012h0a.81835.81835,0,0,1,1.12012-.34961v-.00977a.83978.83978,0,0,1,.36035,1.12012h0a.82863.82863,0,0,1-.74023.44922h0A.84186.84186,0,0,1,131.66016,312.14014Zm-4.25-2.37989h0a.81893.81893,0,0,1-.29-1.12988h0a.83244.83244,0,0,1,1.13965-.29h0A.82852.82852,0,0,1,128.54,309.48h0a.8168.8168,0,0,1-.71.40039h0A.81.81,0,0,1,127.41016,309.76025Zm-4.10059-2.62011a.823.823,0,0,1-.21-1.14942h0A.82228.82228,0,0,1,124.25,305.77h0a.83126.83126,0,0,1,.21,1.15039h0a.83747.83747,0,0,1-.67969.36035h0A.89465.89465,0,0,1,123.30957,307.14014Zm-3.92969-2.87989a.82605.82605,0,0,1-.13965-1.16015h0a.81713.81713,0,0,1,1.15918-.13965h0a.82764.82764,0,0,1,.15039,1.16015h0a.84236.84236,0,0,1-.66015.31934h0A.81441.81441,0,0,1,119.37988,304.26025Zm-3.73047-3.13965a.847.847,0,0,1-.0498-1.18066h0a.83387.83387,0,0,1,1.16992-.0498h0a.82412.82412,0,0,1,.04981,1.16992h0a.8014.8014,0,0,1-.60938.27051h0A.85171.85171,0,0,1,115.64941,301.1206Zm-3.47949-3.41015h0a.83248.83248,0,0,1,.03028-1.16992h0a.81447.81447,0,0,1,1.16992.03027v-.01074a.83747.83747,0,0,1-.03028,1.18066h0a.83067.83067,0,0,1-.57031.22949h0A.826.826,0,0,1,112.16992,297.71045Zm-3.24023-3.63965a.83716.83716,0,0,1,.11035-1.1709h0a.837.837,0,0,1,1.16992.11035h0a.83606.83606,0,0,1-.11035,1.16992h0a.82328.82328,0,0,1-.53027.19043h0A.83176.83176,0,0,1,108.92969,294.0708Zm-2.97949-3.85059a.83061.83061,0,0,1,.18945-1.16015h0a.833.833,0,0,1,1.16015.19043h0a.84207.84207,0,0,1-.19042,1.16015h0a.88036.88036,0,0,1-.48926.14942h0A.83771.83771,0,0,1,105.9502,290.22021Z" style="fill: #ff4257"/>
    </g>
    <circle cx="97.63709" cy="212.71901" r="16.84425" style="fill: none"/>
    <polyline points="85.589 223.41 97.5 211.5 109.411 223.41" style="fill: none"/>
    <circle cx="97.5" cy="333.49961" r="16.84425" style="fill: none"/>
    <polyline points="109.411 321.589 97.5 333.5 85.589 321.589" style="fill: none"/>
    <g>
      <circle cx="80.25177" cy="342.13983" r="3.73497" style="fill: #252626"/>
      <path d="M80.25195,344.88428a.55348.55348,0,0,1-.55273-.55274v-4.38379a.55274.55274,0,0,1,1.10547,0v4.38379A.55348.55348,0,0,1,80.25195,344.88428Z" style="fill: #e6e5e5"/>
      <path d="M82.44336,342.69287H78.05957a.55274.55274,0,0,1,0-1.10547h4.38379a.55274.55274,0,0,1,0,1.10547Z" style="fill: #e6e5e5"/>
    </g>
    <g>
      <circle cx="114.74823" cy="342.13983" r="3.73497" style="fill: #252626"/>
      <path d="M116.94043,342.69287h-4.38379a.55274.55274,0,0,1,0-1.10547h4.38379a.55274.55274,0,0,1,0,1.10547Z" style="fill: #e6e5e5"/>
    </g>
    <circle cx="158.01713" cy="272.50012" r="16.84425" style="fill: none"/>
    <polyline points="146.106 260.589 158.017 272.5 146.106 284.411" style="fill: none"/>
    <circle cx="37.76472" cy="272.77421" r="16.84425" style="fill: none"/>
    <polyline points="48.895 284.41 36.984 272.5 48.895 260.589" style="fill: none"/>
    <g>
      <circle cx="115.06692" cy="204.26741" r="3.73497" style="fill: #252626"/>
      <path d="M115.06738,207.01221a.55348.55348,0,0,1-.55273-.55274v-4.38379a.55274.55274,0,0,1,1.10547,0v4.38379A.55348.55348,0,0,1,115.06738,207.01221Z" style="fill: #e6e5e5"/>
      <path d="M117.25879,204.81982H112.875a.55274.55274,0,0,1,0-1.10547h4.38379a.55274.55274,0,0,1,0,1.10547Z" style="fill: #e6e5e5"/>
    </g>
    <g>
      <circle cx="80.57046" cy="204.26741" r="3.73497" style="fill: #252626"/>
      <path d="M82.7627,204.81982H78.37891a.55274.55274,0,1,1,0-1.10547H82.7627a.55274.55274,0,0,1,0,1.10547Z" style="fill: #e6e5e5"/>
    </g>
    <g>
      <circle cx="29.38248" cy="255.45539" r="3.73497" style="fill: #252626"/>
      <path d="M31.57422,256.0083H27.19043a.55274.55274,0,0,1,0-1.10547h4.38379a.55274.55274,0,0,1,0,1.10547Z" style="fill: #e6e5e5"/>
      <path d="M29.38281,258.19971a.55348.55348,0,0,1-.55273-.55274v-4.38379a.55274.55274,0,0,1,1.10547,0V257.647A.55348.55348,0,0,1,29.38281,258.19971Z" style="fill: #e6e5e5"/>
    </g>
    <g>
      <circle cx="29.38248" cy="289.95186" r="3.73497" style="fill: #252626"/>
      <path d="M29.38281,292.69678a.55348.55348,0,0,1-.55273-.55274v-4.38379a.55274.55274,0,0,1,1.10547,0V292.144A.55348.55348,0,0,1,29.38281,292.69678Z" style="fill: #e6e5e5"/>
    </g>
    <g>
      <circle cx="166.2549" cy="289.95186" r="3.73497" style="fill: #252626"/>
      <path d="M168.44629,290.50439h-4.38281a.55274.55274,0,1,1,0-1.10547h4.38281a.55274.55274,0,0,1,0,1.10547Z" style="fill: #e6e5e5"/>
      <path d="M166.25488,292.69678a.55348.55348,0,0,1-.55273-.55274v-4.38379a.55274.55274,0,0,1,1.10547,0V292.144A.55348.55348,0,0,1,166.25488,292.69678Z" style="fill: #e6e5e5"/>
    </g>
    <g>
      <circle cx="166.2549" cy="255.45539" r="3.73497" style="fill: #252626"/>
      <path d="M166.25488,258.19971a.55348.55348,0,0,1-.55273-.55274v-4.38379a.55274.55274,0,0,1,1.10547,0V257.647A.55348.55348,0,0,1,166.25488,258.19971Z" style="fill: #e6e5e5"/>
    </g>
    <circle cx="97.5" cy="272.49958" r="14.87217" style="fill: #252626"/>
    <circle cx="127.50004" cy="220.49958" r="14.87217" style="fill: #252626"/>
    <circle cx="150.5" cy="302.49958" r="14.87217" style="fill: #252626"/>
    <circle cx="67.5" cy="325.49958" r="14.87217" style="fill: #252626"/>
    <circle cx="45.5" cy="242.49958" r="14.87217" style="fill: #252626"/>
    <g>
      <path d="M67.26855,220.21728a.82817.82817,0,0,1-.416-1.54492,61.51961,61.51961,0,0,1,61.4082-.03711.82864.82864,0,0,1-.82812,1.43555,59.85829,59.85829,0,0,0-59.75.03516A.81935.81935,0,0,1,67.26855,220.21728Z" style="fill: #252626"/>
      <path d="M149.89258,303.62451a.81933.81933,0,0,1-.41406-.11133.82828.82828,0,0,1-.30176-1.13183,59.85664,59.85664,0,0,0,.04785-59.72364.82864.82864,0,0,1,1.43555-.82812,61.51791,61.51791,0,0,1-.04981,61.38183A.82653.82653,0,0,1,149.89258,303.62451Z" style="fill: #252626"/>
      <path d="M97.40137,333.91455a61.41482,61.41482,0,0,1-30.749-8.23633.82828.82828,0,0,1,.83008-1.43359,59.85535,59.85535,0,0,0,59.76367.042.82864.82864,0,1,1,.82813,1.43555A61.42312,61.42312,0,0,1,97.40137,333.91455Z" style="fill: #252626"/>
      <path d="M45.22168,303.36572a.82906.82906,0,0,1-.71875-.41406,61.51771,61.51771,0,0,1-.00391-61.34277.82864.82864,0,1,1,1.43555.82812,59.8537,59.8537,0,0,0,.00391,59.68652.82782.82782,0,0,1-.7168,1.24219Z" style="fill: #252626"/>
      <path d="M97.63672,212.09424a.82793.82793,0,0,1-.82813-.82813V194.42236a.82813.82813,0,0,1,1.65625,0v16.84375A.82792.82792,0,0,1,97.63672,212.09424Z" style="fill: #252626"/>
      <path d="M97.4502,229.53564a17.5522,17.5522,0,0,1-12.4961-5.17578A.82864.82864,0,0,1,86.126,223.188a16.01422,16.01422,0,0,0,22.64941,0,.82864.82864,0,0,1,1.17188,1.17187A17.55779,17.55779,0,0,1,97.4502,229.53564Z" style="fill: #252626"/>
      <path d="M97.4502,350.7583a.82792.82792,0,0,1-.82813-.82813V333.08642a.82813.82813,0,0,1,1.65625,0v16.84375A.82792.82792,0,0,1,97.4502,350.7583Z" style="fill: #252626"/>
      <path d="M85.54,322.00342a.82813.82813,0,0,1-.58594-1.41407,17.674,17.674,0,0,1,24.99317,0,.82864.82864,0,1,1-1.17188,1.17188,16.01419,16.01419,0,0,0-22.64941,0A.82913.82913,0,0,1,85.54,322.00342Z" style="fill: #252626"/>
      <path d="M174.83789,273.30517H157.99316a.82813.82813,0,0,1,0-1.65625h16.84473a.82813.82813,0,1,1,0,1.65625Z" style="fill: #252626"/>
      <path d="M146.083,285.21631a.82912.82912,0,0,1-.58594-.24219,17.674,17.674,0,0,1,0-24.99316.82864.82864,0,1,1,1.17188,1.17187,16.0142,16.0142,0,0,0,0,22.64942.82813.82813,0,0,1-.58594,1.41406Z" style="fill: #252626"/>
      <path d="M37.1377,273.105H20.293a.82813.82813,0,1,1,0-1.65625H37.1377a.82813.82813,0,0,1,0,1.65625Z" style="fill: #252626"/>
      <path d="M48.70313,285.21631a.82813.82813,0,0,1-.58594-1.41406,16.01423,16.01423,0,0,0,0-22.64942.82864.82864,0,0,1,1.17187-1.17187,17.674,17.674,0,0,1,0,24.99316A.82911.82911,0,0,1,48.70313,285.21631Z" style="fill: #252626"/>
      <path d="M97.35254,243.023h-.00586a.82732.82732,0,0,1-.82227-.834l.09766-13.4873a.82731.82731,0,0,1,.82813-.82227h.00585a.82732.82732,0,0,1,.82227.834l-.09766,13.4873A.8273.8273,0,0,1,97.35254,243.023Z" style="fill: #252626"/>
      <path d="M141.14941,273.30517H127.63477a.82813.82813,0,1,1,0-1.65625h13.51464a.82813.82813,0,1,1,0,1.65625Z" style="fill: #252626"/>
      <path d="M97.4502,317.06982a.82731.82731,0,0,1-.82813-.82226l-.09766-13.48145a.82732.82732,0,0,1,.82227-.834h.00586a.8273.8273,0,0,1,.82812.82226l.09766,13.48145a.82731.82731,0,0,1-.82227.834Z" style="fill: #252626"/>
      <path d="M67.06934,273.30517H53.63672a.82813.82813,0,1,1,0-1.65625H67.06934a.82813.82813,0,0,1,0,1.65625Z" style="fill: #252626"/>
    </g>
    <g>
      <rect x="89" y="339" width="17" height="37" rx="3.21688" ry="3.21688" style="fill: #252626"/>
      <path d="M101.60765,363.80539a1.82124,1.82124,0,0,1-1.10036,1.03443,2.30458,2.30458,0,0,1-.75781.12505,2.27849,2.27849,0,0,1-1.04757-.19755,1.82242,1.82242,0,0,1-.58631-.46126,1.41958,1.41958,0,0,1-.28342-.64567,4.30888,4.30888,0,0,1-.05936-.71159q0-.50115.01971-.69189a.53339.53339,0,0,1,.04622-.21749A1.1944,1.1944,0,0,1,98.2735,362h3.08382a.99665.99665,0,0,1,.21749.01971.19615.19615,0,0,1,.13162.10534.67133.67133,0,0,1,.05936.25691q.013.17139.01337.4744a2.3816,2.3816,0,0,1-.17151.949m-5.58982-12.6265a.293.293,0,0,1,.107-.19591.5384.5384,0,0,1,.28506-.08915q.196-.0176.55252-.01783a2.80547,2.80547,0,0,1,2.12986.77518,2.88435,2.88435,0,0,1,.73976,2.0766c0,.08212-.01713.25925-.02793.38078-.06827-.00093-.13654-.00187-.20481-.00328q-.28048-.006-.60954-.0305a.15279.15279,0,0,0-.0793.14007.20324.20324,0,0,0,.05514.1647l.21913.0244a1.54843,1.54843,0,0,1,.36576.07906q.14641.05491.1464.11591a.70273.70273,0,0,1-.07319.22546q-.07321.16472-.195.396-.12211.23191-.26207.49387-.14041.26218-.2623.49364-.28049.53669-.57294,1.05437-.29245.51839-.5727,1.00581-.354-.63383-.69494-1.32864-.34137-.69505-.68274-1.37768c-.01643-.03238-.04458-.09314-.08517-.18277q-.06123-.13373-.1281-.28647c-.04481-.10159-.08352-.19684-.1159-.28646a.66533.66533,0,0,1-.04856-.18277c0-.0488.03214-.08728.09736-.1159a2.41524,2.41524,0,0,1,.41457-.10347l.15837-.0244a.21352.21352,0,0,0,.0549-.1708.13.13,0,0,0-.09127-.134q-.25972.02042-.63722.02933v-2.58643a2.50542,2.50542,0,0,1,.01783-.33879M97,360.277q0,.47489-.01188.75948a1.25331,1.25331,0,0,1-.08314.445.47365.47365,0,0,1-.06007.10164l-.0016.00091a2.22053,2.22053,0,0,1-.34879-.092.58072.58072,0,0,1-.33829-.31224,1.831,1.831,0,0,1-.13019-.6334Q96,360.139,96,359.462v-2.47077L96.62038,358.2q.1302.24944.20763.42143a1.85058,1.85058,0,0,1,.11261.32046,1.94955,1.94955,0,0,1,.0475.31453q.01166.16617.01188.41526Zm5.02887,1.53429q.07917-.2196.15836-.46924.07918-.24987.1464-.48777.06687-.23754.10371-.39627a.19006.19006,0,0,0-.14031-.10956.18464.18464,0,0,0-.1647.0244,5.7135,5.7135,0,0,1-.46924.7801,1.47265,1.47265,0,0,1-.396.40237,1.31,1.31,0,0,1-.2257.08517,1.791,1.791,0,0,1-.30477.0549q-.17667.0183-.42654.0305t-.60343.0122q-.40225,0-.66444-.0244a3.33536,3.33536,0,0,1-.42044-.06077,1.05175,1.05175,0,0,1-.24987-.0854.43794.43794,0,0,1-.1403-.1098.846.846,0,0,1-.18887-.46924A6.04929,6.04929,0,0,1,98,360.18986v-.8045s.30071-.21.30541-.29445a1.92579,1.92579,0,0,1,.06686-.42043,2.122,2.122,0,0,1,.17081-.41457c.0183-.035.03894-.07273.06076-.11238.02933-.00094.05982-.00141.09385-1.14353h.70714c.23555,1.14212.42864,1.14611.579,1.15432a1.7806,1.7806,0,0,1,.35967.04856.42952.42952,0,0,1,.26207.17081.86944.86944,0,0,1,.1159.29256l.10957.47534a.185.185,0,0,0,.16447.0549.17527.17527,0,0,0,.1525-.0671q0-.20729-.0244-.52414-.02464-.31708-.0244-.64613,0-.35334.0244-.68251.02429-.3294.0244-.54877a.177.177,0,0,0-.1525-.0671.18631.18631,0,0,0-.16447.0549l-.09737.5a.76186.76186,0,0,1-.1159.31087.38645.38645,0,0,1-.17667.11567,1.71974,1.71974,0,0,1-.378.0549,2.67589,2.67589,0,0,0-.65834.303h-.55089s.008-.29779.0122-.30483l.76791-1.32864q.23121-.39029.42067-.72544a6.5676,6.5676,0,0,1,.37163-.59124,2.10576,2.10576,0,0,1,.378-.41433.5521.5521,0,0,1,.55089.31274,1.379,1.379,0,0,1,.1586.32894q.06052.183.134.40237a.16527.16527,0,0,0,.1586.0488.18115.18115,0,0,0,.14616-.0732q-.02463-.195-.04247-.44484-.01863-.24987-.04293-.48754c-.01619-.1586-.03754-.30007-.05466-.42677a3.82189,3.82189,0,0,1-.03285-.58114,3.21015,3.21015,0,0,0-1.46754-2.6784,4.20837,4.20837,0,0,0-1.46143-.55253,10.53447,10.53447,0,0,0-1.96047-.16048q-1.123,0-1.96938.02675-.84674.02675-1.55974.1159a.22334.22334,0,0,0-.11567.20482.29673.29673,0,0,0,.08024.24072l.64145.07132a1.56928,1.56928,0,0,1,.47251.11591.49911.49911,0,0,1,.2494.294,1.94355,1.94355,0,0,1,.09807.57036A2.0401,2.0401,0,0,0,95,352.89v6.57681a2.91377,2.91377,0,0,0-.21293,1.11373,1.7744,1.7744,0,0,1-.12481.6506.60544.60544,0,0,1-.32073.32072,2.52647,2.52647,0,0,1-.606.14265l-.37445.05349a.2767.2767,0,0,0-.07321.22172c-.00046.19074-.00258.25127-.00656.46618q-.00635.36918-.03356.82539c.01807.04481.06922.07156.15438.08071a.19312.19312,0,0,0,.18136-.05373l.04012-.282a1.90386,1.90386,0,0,1,.10746-.4561.45572.45572,0,0,1,.24165-.24165,1.332,1.332,0,0,1,.48989-.09432,5.56109,5.56109,0,0,0,.839-.21415h1.69113a.84018.84018,0,0,1,.168.01314.12068.12068,0,0,1,.087.07414.56934.56934,0,0,1,.03378.18769c.00423.08517.00657.20342.00657.35568a1.40227,1.40227,0,0,1-.10065.60414.90117.90117,0,0,1-.32894.34912q-.22839.16117-.50325.3355-.27555.17421-.55042.34888-.27519.17456-.53023.33574-.25515.16083-.443.29514a7.44843,7.44843,0,0,0-.839.678,2.97038,2.97038,0,0,0-.51662.63746,2.23538,2.23538,0,0,0-.26184.67781,3.88494,3.88494,0,0,0-.07367.78527,1.98079,1.98079,0,0,0,.06687.59053.10914.10914,0,0,0,.18817-.01337,1.766,1.766,0,0,1,.12739-.50983,1.56512,1.56512,0,0,1,.24846-.41621,5.18941,5.18941,0,0,1,.63746-.65787q.35544-.30864.78526-.63089.42936-.322.9664-.6642.53669-.34244,1.1813-.74515a.83947.83947,0,0,1,.16775-.08728.14661.14661,0,0,1,.15438.02018,2.74833,2.74833,0,0,0,.28177.54361,2.90461,2.90461,0,0,0,.46314.54384,2.4102,2.4102,0,0,0,.64426.42279,2.04383,2.04383,0,0,0,.85237.16775,2.01046,2.01046,0,0,0,1.16793-.31556,2.21812,2.21812,0,0,0,.71136-.79864,2.9594,2.9594,0,0,0,.32894-1.04006,9.07584,9.07584,0,0,0,.07366-1.20172,5.06323,5.06323,0,0,1,.137-1.27538" style="fill: #e6e5e5"/>
    </g>
    <g>
      <path d="M2.5,23.83057A.86832.86832,0,0,1,2.17969,23.77a.80032.80032,0,0,1-.26953-.17969,1.2997,1.2997,0,0,1-.18067-.26953.87128.87128,0,0,1-.05957-.32031.86114.86114,0,0,1,.24024-.58008.851.851,0,0,1,1.16992,0,.82838.82838,0,0,1,.25.58008.87216.87216,0,0,1-.06055.32031,1.01163,1.01163,0,0,1-.18945.26953.67593.67593,0,0,1-.26074.17969A.86327.86327,0,0,1,2.5,23.83057Z"/>
      <path d="M35.33984,23.01025a.82814.82814,0,0,1,.83008-.83008h0A.82814.82814,0,0,1,37,23.01025h0a.8261.8261,0,0,1-.83008.82032h0A.8261.8261,0,0,1,35.33984,23.01025Zm-4.80957,0a.82731.82731,0,0,1,.82911-.83008h0a.83441.83441,0,0,1,.83007.83008h0a.83244.83244,0,0,1-.83007.82032h0A.82526.82526,0,0,1,30.53027,23.01025Zm-4.81054,0a.82813.82813,0,0,1,.83007-.83008h0a.82814.82814,0,0,1,.83008.83008h0a.8261.8261,0,0,1-.83008.82032h0A.82609.82609,0,0,1,25.71973,23.01025Zm-4.80957,0a.82813.82813,0,0,1,.83007-.83008h0a.82731.82731,0,0,1,.82911.83008h0a.82526.82526,0,0,1-.82911.82032h0A.82609.82609,0,0,1,20.91016,23.01025Zm-4.81055,0a.82814.82814,0,0,1,.83008-.83008h0a.82814.82814,0,0,1,.83008.83008h0a.8261.8261,0,0,1-.83008.82032h0A.8261.8261,0,0,1,16.09961,23.01025Zm-4.80957,0a.82814.82814,0,0,1,.83008-.83008h0a.82814.82814,0,0,1,.83008.83008h0a.8261.8261,0,0,1-.83008.82032h0A.8261.8261,0,0,1,11.29,23.01025Zm-4.81055,0a.82814.82814,0,0,1,.83008-.83008h0a.82814.82814,0,0,1,.83008.83008h0a.8261.8261,0,0,1-.83008.82032h0A.8261.8261,0,0,1,6.47949,23.01025Z"/>
      <path d="M40.97949,23.83057a.86326.86326,0,0,1-.31933-.06055.82351.82351,0,0,1-.4502-.44922.87216.87216,0,0,1-.06055-.32031.85618.85618,0,0,1,.06055-.31055,1.25921,1.25921,0,0,1,.17969-.26953.84509.84509,0,0,1,.91015-.17969.67253.67253,0,0,1,.25977.17969.80317.80317,0,0,1,.18066.26953.87063.87063,0,0,1,.06934.31055.8811.8811,0,0,1-.06934.32031.80317.80317,0,0,1-.18066.26953.67253.67253,0,0,1-.25977.17969A.86454.86454,0,0,1,40.97949,23.83057Z"/>
    </g>
    <g>
      <path d="M153.9502,23.83057a.8646.8646,0,0,1-.32032-.06055.8041.8041,0,0,1-.2705-.17969.968.968,0,0,1-.16993-.26953.87523.87523,0,0,1-.06933-.31055.83418.83418,0,0,1,.23926-.58984.84874.84874,0,0,1,.91015-.17969.79472.79472,0,0,1,.27051.17969.83859.83859,0,0,1,.17969.90039,1,1,0,0,1-.17969.26953A.82364.82364,0,0,1,153.9502,23.83057Z"/>
      <path d="M186.84961,23.01025a.82814.82814,0,0,1,.83008-.83008h0a.82814.82814,0,0,1,.83008.83008h0a.8261.8261,0,0,1-.83008.82032h0A.8261.8261,0,0,1,186.84961,23.01025Zm-4.82031,0a.82814.82814,0,0,1,.83008-.83008h0a.82813.82813,0,0,1,.83007.83008h0a.82609.82609,0,0,1-.83007.82032h0A.8261.8261,0,0,1,182.0293,23.01025Zm-4.81934,0a.83441.83441,0,0,1,.83008-.83008h0a.82814.82814,0,0,1,.83008.83008h0a.8261.8261,0,0,1-.83008.82032h0A.83244.83244,0,0,1,177.21,23.01025Zm-4.81055,0a.82814.82814,0,0,1,.83008-.83008h0a.82609.82609,0,0,1,.82031.83008h0a.824.824,0,0,1-.82031.82032h0A.8261.8261,0,0,1,172.39941,23.01025Zm-4.81933,0a.82814.82814,0,0,1,.83008-.83008h0a.835.835,0,0,1,.83007.83008h0a.83307.83307,0,0,1-.83007.82032h0A.8261.8261,0,0,1,167.58008,23.01025Zm-4.82031,0a.82813.82813,0,0,1,.83007-.83008h0a.82814.82814,0,0,1,.83008.83008h0a.8261.8261,0,0,1-.83008.82032h0A.82609.82609,0,0,1,162.75977,23.01025Zm-4.82032,0a.82814.82814,0,0,1,.83008-.83008h0a.82814.82814,0,0,1,.83008.83008h0a.8261.8261,0,0,1-.83008.82032h0A.8261.8261,0,0,1,157.93945,23.01025Z"/>
      <path d="M192.5,23.83057a.86458.86458,0,0,1-.32031-.06055.80032.80032,0,0,1-.26953-.17969.84234.84234,0,0,1-.18067-.90039,1.26251,1.26251,0,0,1,.18067-.26953.80032.80032,0,0,1,.26953-.17969.88147.88147,0,0,1,.63965,0,.67593.67593,0,0,1,.26074.17969.80042.80042,0,0,1,.17969.26953.71608.71608,0,0,1,.07031.32031.67573.67573,0,0,1-.07031.31055.80042.80042,0,0,1-.17969.26953A.78572.78572,0,0,1,192.5,23.83057Z"/>
    </g>
  </g>
  <g id="BITTONS">
    <use width="15" height="15" transform="translate(28 164)" xlink:href="#New_Symbol"/>
    <use width="15" height="15" transform="translate(153 202)" xlink:href="#New_Symbol"/>
  </g>
  <g id="WHITE_LEDS" data-name="WHITE LEDS">
    <use width="7.00024" height="7" transform="translate(146.49988 216.00004)" xlink:href="#LED_state"/>
    <use width="7.00024" height="7" transform="translate(41.49988 157.00004)" xlink:href="#LED_state"/>
  </g>
  <g id="KNOBS">
    <use width="27" height="27" transform="translate(84.00001 33.99999)" xlink:href="#New_Symbol_1"/>
    <use width="27" height="27" transform="translate(171.00001 95.00001) rotate(90) scale(1 0.96296)" xlink:href="#New_Symbol_1"/>
    <use width="27" height="27" transform="translate(110.99999 183.00001) rotate(180)" xlink:href="#New_Symbol_1"/>
    <use width="27" height="27" transform="translate(23.99999 121.99999) rotate(-90) scale(1 0.96296)" xlink:href="#New_Symbol_1"/>
    <use width="27" height="27" transform="translate(84.00001 197.99959)" xlink:href="#New_Symbol_1"/>
    <use width="27" height="27" transform="translate(171.00001 258.99961) rotate(90) scale(1 0.96296)" xlink:href="#New_Symbol_1"/>
    <use width="27" height="27" transform="translate(110.99999 346.99962) rotate(180)" xlink:href="#New_Symbol_1"/>
    <use width="27" height="27" transform="translate(23.99999 285.9996) rotate(-90) scale(1 0.96296)" xlink:href="#New_Symbol_1"/>
  </g>
  <g id="JACKS">
    <use width="23" height="23" transform="translate(56 44.99998)" xlink:href="#jack"/>
    <use width="23" height="23" transform="translate(116.00004 45.00002)" xlink:href="#jack"/>
    <use width="23" height="23" transform="translate(139 67.00002)" xlink:href="#jack"/>
    <use width="23" height="23" transform="translate(139 126.99998)" xlink:href="#jack"/>
    <use width="23" height="23" transform="translate(116.00004 150.00001)" xlink:href="#jack"/>
    <use width="23" height="23" transform="translate(56 149.99998)" xlink:href="#jack"/>
    <use width="23" height="23" transform="translate(34.00003 126.99999)" xlink:href="#jack"/>
    <use width="23" height="23" transform="translate(34 66.99998)" xlink:href="#jack"/>
    <use width="23" height="23" transform="translate(86 66.99998)" xlink:href="#jack"/>
    <use width="23" height="23" transform="translate(86 96.99998)" xlink:href="#jack"/>
    <use width="23" height="23" transform="translate(116 96.99998)" xlink:href="#jack"/>
    <use width="23" height="23" transform="translate(86 127.00001)" xlink:href="#jack"/>
    <use width="23" height="23" transform="translate(56 96.99998)" xlink:href="#jack"/>
    <use width="23" height="23" transform="translate(56 208.99958)" xlink:href="#jack"/>
    <use width="23" height="23" transform="translate(116.00004 208.99962)" xlink:href="#jack"/>
    <use width="23" height="23" transform="translate(139 230.99963)" xlink:href="#jack"/>
    <use width="23" height="23" transform="translate(139 290.99958)" xlink:href="#jack"/>
    <use width="23" height="23" transform="translate(116.00004 313.99962)" xlink:href="#jack"/>
    <use width="23" height="23" transform="translate(56 313.99958)" xlink:href="#jack"/>
    <use width="23" height="23" transform="translate(34.00003 290.99959)" xlink:href="#jack"/>
    <use width="23" height="23" transform="translate(34 230.99958)" xlink:href="#jack"/>
    <use width="23" height="23" transform="translate(86 230.99958)" xlink:href="#jack"/>
    <use width="23" height="23" transform="translate(86 260.99958)" xlink:href="#jack"/>
    <use width="23" height="23" transform="translate(116 260.99958)" xlink:href="#jack"/>
    <use width="23" height="23" transform="translate(86 290.99961)" xlink:href="#jack"/>
    <use width="23" height="23" transform="translate(56 260.99958)" xlink:href="#jack"/>
  </g>
</svg>
