<svg id="Layer_1" data-name="Layer 1" xmlns="http://www.w3.org/2000/svg" width="165" height="380" viewBox="0 0 165 380">
  <title>blankInfo</title>
  <rect width="165" height="380" style="fill: #e5e5e5"/>
  <g>
    <g>
      <circle cx="23" cy="7" r="5.73633" style="fill: #bcbcbc"/>
      <path d="M23,1.52747A5.47253,5.47253,0,1,1,17.52751,7,5.47873,5.47873,0,0,1,23,1.52747M23,1a6,6,0,1,0,6,6,6,6,0,0,0-6-6Z" style="fill: gray"/>
    </g>
    <polygon points="26.495 6.341 23.659 6.341 23.659 3.505 22.341 3.505 22.341 6.341 19.506 6.341 19.506 7.659 22.341 7.659 22.341 10.495 23.659 10.495 23.659 7.659 26.495 7.659 26.495 6.341" style="fill: #6e6e6e"/>
  </g>
  <g>
    <g>
      <circle cx="142" cy="7" r="5.73633" style="fill: #bcbcbc"/>
      <path d="M142,1.52747A5.47253,5.47253,0,1,1,136.52751,7,5.47873,5.47873,0,0,1,142,1.52747M142,1a6,6,0,1,0,6,6,6,6,0,0,0-6-6Z" style="fill: gray"/>
    </g>
    <polygon points="145.495 6.341 142.659 6.341 142.659 3.505 141.341 3.505 141.341 6.341 138.506 6.341 138.506 7.659 141.341 7.659 141.341 10.495 142.659 10.495 142.659 7.659 145.495 7.659 145.495 6.341" style="fill: #6e6e6e"/>
  </g>
  <g>
    <g>
      <circle cx="23" cy="373" r="5.73633" style="fill: #bcbcbc"/>
      <path d="M23,367.52747A5.47253,5.47253,0,1,1,17.52751,373,5.47874,5.47874,0,0,1,23,367.52747M23,367a6,6,0,1,0,6,6,6,6,0,0,0-6-6Z" style="fill: gray"/>
    </g>
    <polygon points="26.495 372.341 23.659 372.341 23.659 369.505 22.341 369.505 22.341 372.341 19.506 372.341 19.506 373.659 22.341 373.659 22.341 376.495 23.659 376.495 23.659 373.659 26.495 373.659 26.495 372.341" style="fill: #6e6e6e"/>
  </g>
  <g>
    <g>
      <circle cx="142" cy="373" r="5.73633" style="fill: #bcbcbc"/>
      <path d="M142,367.52747A5.47253,5.47253,0,1,1,136.52751,373,5.47874,5.47874,0,0,1,142,367.52747M142,367a6,6,0,1,0,6,6,6,6,0,0,0-6-6Z" style="fill: gray"/>
    </g>
    <polygon points="145.495 372.341 142.659 372.341 142.659 369.505 141.341 369.505 141.341 372.341 138.506 372.341 138.506 373.659 141.341 373.659 141.341 376.495 142.659 376.495 142.659 373.659 145.495 373.659 145.495 372.341" style="fill: #6e6e6e"/>
  </g>
  <g>
    <rect x="61.17324" y="52.07509" width="47.33223" height="103.0172" rx="8.9566" ry="8.9566" style="fill: #252626"/>
    <path d="M96.21846,121.403a5.07059,5.07059,0,0,1-3.06367,2.88011,6.41633,6.41633,0,0,1-2.10994.34817,6.34358,6.34358,0,0,1-2.91669-.55,5.07429,5.07429,0,0,1-1.63245-1.28426,3.95251,3.95251,0,0,1-.78909-1.7977,11.99648,11.99648,0,0,1-.16528-1.98127q0-1.3953.05488-1.92638a1.48514,1.48514,0,0,1,.12868-.60555,3.326,3.326,0,0,1,1.21044-.10975h8.58613a2.77527,2.77527,0,0,1,.60555.05487.54619.54619,0,0,1,.36647.29331,1.86881,1.86881,0,0,1,.16526.71529q.03624.47719.03724,1.32084a6.63088,6.63088,0,0,1-.47753,2.64234M81.39656,85.70432a.81572.81572,0,0,1,.29789-.54545,1.49911,1.49911,0,0,1,.79368-.24823q.54575-.049,1.53835-.04965a7.81122,7.81122,0,0,1,5.93007,2.15829,8.0308,8.0308,0,0,1,2.05966,5.78179c0,.22863-.04768.72182-.07774,1.06019-.19009-.00261-.38019-.00522-.57027-.00914q-.78095-.01667-1.6971-.08492a.42541.42541,0,0,0-.2208.39.566.566,0,0,0,.15352.45857l.61012.06794a4.3099,4.3099,0,0,1,1.01838.22014q.40764.15285.40762.3227a1.95636,1.95636,0,0,1-.2038.62775q-.20382.45858-.54283,1.10267-.34.64572-.72967,1.375-.391.73-.73033,1.37441-.78093,1.49428-1.59519,2.93564-.81428,1.44331-1.59455,2.80042-.98574-1.76472-1.93488-3.69927-.95046-1.93521-1.90092-3.8358c-.04573-.09014-.12412-.25933-.23713-.50887q-.17048-.37234-.35666-.7976c-.12477-.28285-.23254-.54806-.32269-.7976a1.852,1.852,0,0,1-.13522-.50887c0-.13587.08949-.243.27108-.3227a6.72572,6.72572,0,0,1,1.15428-.28807l.44093-.06794a.59449.59449,0,0,0,.15286-.47556.36187.36187,0,0,0-.25411-.373q-.72313.05682-1.77419.08165V86.64759a6.97874,6.97874,0,0,1,.04964-.94327m2.81022,25.40627q0,1.35807-.034,2.172a3.58447,3.58447,0,0,1-.23777,1.27251,1.35459,1.35459,0,0,1-.1718.29068l-.00458.00262a6.35233,6.35233,0,0,1-.99748-.26326,1.66069,1.66069,0,0,1-.96745-.893,5.23564,5.23564,0,0,1-.37233-1.81142q-.07449-1.16505-.07448-3.10091v-7.066l1.77419,3.45692q.37234.71334.59379,1.20522a5.29074,5.29074,0,0,1,.32205.91649,5.57711,5.57711,0,0,1,.13586.8995q.03332.47523.034,1.18758Zm14.00733,4.197q.22044-.61143.44093-1.30647.22047-.6957.40761-1.35807.18618-.66141.28874-1.10332a.52919.52919,0,0,0-.39065-.30506.51418.51418,0,0,0-.45857.06794,15.90667,15.90667,0,0,1-1.30647,2.172,4.1,4.1,0,0,1-1.10265,1.1203,3.64683,3.64683,0,0,1-.62842.23713,4.987,4.987,0,0,1-.84856.15285q-.49186.051-1.18757.08492-.69569.0343-1.68012.034-1.12,0-1.85-.06793a9.28908,9.28908,0,0,1-1.17059-.16919,2.92868,2.92868,0,0,1-.6957-.23778,1.2191,1.2191,0,0,1-.39065-.30572,2.35544,2.35544,0,0,1-.52585-1.30647,16.84341,16.84341,0,0,1-.11889-2.22361v-2.23994c.00524-.31029.01437-.58464.02745-.81981a5.3627,5.3627,0,0,1,.18618-1.1706,5.90722,5.90722,0,0,1,.47555-1.15426c.051-.09733.10843-.2025.16919-.3129.08165-.00261.16656-.00392.26129-.00392h1.96885q.98378,0,1.61218.034a4.95643,4.95643,0,0,1,1.0014.13522,1.19578,1.19578,0,0,1,.72967.47555,2.42162,2.42162,0,0,1,.32271.81459l.305,1.32345a.51523.51523,0,0,0,.45793.15286.48794.48794,0,0,0,.42459-.18683q0-.57714-.06793-1.45932-.06861-.88286-.06794-1.799,0-.98377.06794-1.90026.06761-.91714.06793-1.52792a.4928.4928,0,0,0-.42459-.18682.51871.51871,0,0,0-.45793.15285l-.2711,1.392a2.12135,2.12135,0,0,1-.32269.86554,1.0761,1.0761,0,0,1-.49188.32205,4.78919,4.78919,0,0,1-1.05236.15285q-.74763.051-1.833.051H88.55144l.034-.05617,2.13805-3.69927q.64374-1.08666,1.17125-2.0198A18.28211,18.28211,0,0,1,92.92942,96.482a5.86164,5.86164,0,0,1,1.05238-1.15361,2.79609,2.79609,0,0,1,.23125-.16723,2.77,2.77,0,0,1,1.30254,1.038,3.83882,3.83882,0,0,1,.44158.91584q.16854.50952.373,1.1203a.46018.46018,0,0,0,.44158.13587.50434.50434,0,0,0,.407-.20381q-.06859-.54284-.11824-1.23853-.0519-.6957-.11953-1.35743c-.04507-.44159-.10452-.83548-.1522-1.18823a10.64313,10.64313,0,0,1-.09147-1.61806,8.93781,8.93781,0,0,0-4.086-7.45733,11.71718,11.71718,0,0,0-4.069-1.53837,29.33111,29.33111,0,0,0-5.45844-.44682q-3.12672,0-5.48324.07447-2.35753.07447-4.34272.3227a.62193.62193,0,0,0-.322.57027.82615.82615,0,0,0,.22342.67022l1.78595.19859a4.36921,4.36921,0,0,1,1.3156.3227,1.3898,1.3898,0,0,1,.6944.8185,5.41252,5.41252,0,0,1,.273,1.588q.049.99259.04964,2.58028v18.31148q0,1.93424-.04964,3.10091a4.94008,4.94008,0,0,1-.34753,1.81142,1.68559,1.68559,0,0,1-.893.893,7.03343,7.03343,0,0,1-1.68729.39717l-1.04257.14894a.77041.77041,0,0,0-.20381.61731c-.0013.53107-.00718.69961-.01828,1.298q-.01764,1.02787-.09342,2.29808c.0503.12477.19271.19924.42982.22472a.53773.53773,0,0,0,.505-.1496l.1117-.78518a5.30117,5.30117,0,0,1,.29918-1.26989,1.269,1.269,0,0,1,.67284-.67283,3.7089,3.7089,0,0,1,1.364-.2626q.87794-.03627,2.336-.03659h4.70852a2.33811,2.33811,0,0,1,.46772.03659.336.336,0,0,1,.24235.20642,1.58527,1.58527,0,0,1,.09406.52258c.01176.23713.0183.56636.0183.99031a3.90418,3.90418,0,0,1-.28025,1.68208,2.509,2.509,0,0,1-.91584.972q-.63591.44879-1.40118.93413-.76722.485-1.5325.97136-.76623.486-1.4763.93478-.7104.44779-1.2333.82177a20.7356,20.7356,0,0,0-2.336,1.88785,8.27125,8.27125,0,0,0-1.43842,1.77484,6.2244,6.2244,0,0,0-.729,1.88719,10.816,10.816,0,0,0-.20512,2.18638,5.515,5.515,0,0,0,.18618,1.64419.30386.30386,0,0,0,.52389-.03723,4.91688,4.91688,0,0,1,.35471-1.41948,4.3573,4.3573,0,0,1,.69177-1.15884,14.44841,14.44841,0,0,1,1.77484-1.83167q.98964-.85933,2.18637-1.75655,1.19542-.89657,2.69069-1.84931,1.49427-.9534,3.289-2.07467a2.33713,2.33713,0,0,1,.46706-.243.40818.40818,0,0,1,.42982.05618,7.65033,7.65033,0,0,0,.78453,1.51355,8.08789,8.08789,0,0,0,1.28948,1.51419,6.71076,6.71076,0,0,0,1.79379,1.17713,5.69013,5.69013,0,0,0,2.3732.46707,5.59773,5.59773,0,0,0,3.25182-.8786,6.17564,6.17564,0,0,0,1.9806-2.22361,8.23947,8.23947,0,0,0,.91584-2.89579,25.2718,25.2718,0,0,0,.20511-3.34587,14.09728,14.09728,0,0,1,.3815-3.551" style="fill: #e6e5e5"/>
  </g>
  <g>
    <path d="M8.83843,189.99141a6.49664,6.49664,0,0,1,6.48681-6.48681,6.42,6.42,0,0,1,4.60336,1.91809l.57545.59291-2.16218,1.88317-.50563-.48817a3.57933,3.57933,0,0,0-2.511-1.02873,3.61828,3.61828,0,0,0,0,7.23654,3.54912,3.54912,0,0,0,2.511-1.029v-1.53435H14.6276v-2.87728h6.08563v5.44064l-.13936.20918a6.62513,6.62513,0,0,1-5.24863,2.66781A6.5003,6.5003,0,0,1,8.83843,189.99141Z" style="fill: #231f20"/>
    <path d="M28.73243,183.88805H37.1897v2.96455H31.76652v1.06363h4.74327v3.01663H31.76652v2.37164h5.30127v2.99918H28.73243Z" style="fill: #231f20"/>
    <path d="M56.64845,190.026a6.46064,6.46064,0,1,1-6.46936-6.46907A6.48219,6.48219,0,0,1,56.64845,190.026Zm-3.05183,0a3.42641,3.42641,0,1,0-3.41753,3.43527A3.46067,3.46067,0,0,0,53.59662,190.026Z" style="fill: #231f20"/>
    <path d="M63.77828,183.88805h4.30718a6.20935,6.20935,0,1,1,0,12.41563H63.77828Zm7.65518,6.20781a3.30249,3.30249,0,0,0-3.348-3.22581h-1.308v6.4519h1.308A3.30253,3.30253,0,0,0,71.43346,190.09586Z" style="fill: #231f20"/>
    <path d="M81.68466,183.88805h8.45726v2.96455H84.719v1.06363h4.74271v3.01663H84.719v2.37164h5.30071v2.99918H81.68466Z" style="fill: #231f20"/>
    <path d="M101.05613,196.26877a8.3959,8.3959,0,0,1-3.88854-2.10982l1.98791-2.28436a5.14857,5.14857,0,0,0,2.511,1.46482,3.02167,3.02167,0,0,0,.66273.087,2.04641,2.04641,0,0,0,.90654-.19172.90621.90621,0,0,0,.57545-.80209c0-.48818-.90682-.78463-1.69145-.94173a11.94632,11.94632,0,0,1-2.75509-.85445,3.42112,3.42112,0,0,1-1.7959-3.08646,3.61937,3.61937,0,0,1,.645-2.02253,4.0277,4.0277,0,0,1,1.60446-1.29055l-.01745.01745a5.03809,5.03809,0,0,1,2.12726-.47072,5.929,5.929,0,0,1,.92428.06982,7.25761,7.25761,0,0,1,3.57463,1.83081l-1.91809,2.30182a3.84851,3.84851,0,0,0-2.61573-1.22073,1.76107,1.76107,0,0,0-.80209.17455.7211.7211,0,0,0-.50563.61008c0,.471.62782.69764,1.63909.90682.10473.03491.22663.03491.34882.06982a9.23437,9.23437,0,0,1,2.3539.74973h-.01746a3.47364,3.47364,0,0,1,1.91809,3.15627,3.66184,3.66184,0,0,1-.66245,2.17963,4.3046,4.3046,0,0,1-1.65654,1.32518,4.54214,4.54214,0,0,1-2.19709.471A5.88854,5.88854,0,0,1,101.05613,196.26877Z" style="fill: #231f20"/>
    <path d="M114.516,183.88805h3.03437v12.41563H114.516Z" style="fill: #231f20"/>
    <path d="M134.79483,191.735l2.38881,1.76127a6.56865,6.56865,0,0,1-5.40544,2.98172,6.46049,6.46049,0,1,1,0-12.921,6.70057,6.70057,0,0,1,5.47526,3.03408l-2.42372,1.77845a3.76464,3.76464,0,0,0-3.05154-1.83081,3.47,3.47,0,1,0,0,6.94008A3.636,3.636,0,0,0,134.79483,191.735Z" style="fill: #231f20"/>
    <path d="M147.45229,196.26877a8.39581,8.39581,0,0,1-3.88854-2.10982l1.98791-2.28436a5.14857,5.14857,0,0,0,2.511,1.46482,3.02159,3.02159,0,0,0,.66273.087,2.04639,2.04639,0,0,0,.90653-.19172.90622.90622,0,0,0,.57546-.80209c0-.48818-.90682-.78463-1.69146-.94173a11.9464,11.9464,0,0,1-2.75508-.85445,3.42112,3.42112,0,0,1-1.7959-3.08646,3.61937,3.61937,0,0,1,.645-2.02253,4.02756,4.02756,0,0,1,1.60446-1.29055l-.01746.01745a5.03817,5.03817,0,0,1,2.12727-.47072,5.929,5.929,0,0,1,.92427.06982,7.25764,7.25764,0,0,1,3.57464,1.83081l-1.91809,2.30182a3.84851,3.84851,0,0,0-2.61573-1.22073,1.76107,1.76107,0,0,0-.80209.17455.7211.7211,0,0,0-.50563.61008c0,.471.62782.69764,1.63908.90682.10474.03491.22664.03491.34882.06982a9.23431,9.23431,0,0,1,2.35391.74973h-.01746a3.47364,3.47364,0,0,1,1.91809,3.15627,3.66184,3.66184,0,0,1-.66245,2.17963,4.3046,4.3046,0,0,1-1.65654,1.32518,4.54216,4.54216,0,0,1-2.19709.471A5.88854,5.88854,0,0,1,147.45229,196.26877Z" style="fill: #231f20"/>
  </g>
  <g>
    <g>
      <path d="M77.88281,289.34082c-.123,2.21582-1.14258,3.45313-2.88281,3.45313-1.98437,0-3.09961-1.53614-3.09961-5.01661s1.11524-5.0166,3.09961-5.0166a2.67715,2.67715,0,0,1,2.78711,2.99121H76.917c0-1.31933-.666-2.25683-1.917-2.25683-1.38672,0-2.22949,1.1416-2.22949,4.28222s.84277,4.28223,2.22949,4.28223c1.22363,0,1.917-1.04687,2.0127-2.71875Z" style="fill: #231f20"/>
      <path d="M81.1748,285.24805c1.59083,0,2.48829,1.26465,2.48829,3.7666,0,2.51465-.89746,3.7793-2.48829,3.7793s-2.4873-1.26465-2.4873-3.7793C78.6875,286.5127,79.584,285.24805,81.1748,285.24805Zm0,6.86621c.91114,0,1.61817-.78906,1.61817-3.09961,0-2.29785-.707-3.08594-1.61817-3.08594-.91015,0-1.61718.78809-1.61718,3.08594C79.55762,291.3252,80.26465,292.11426,81.1748,292.11426Z" style="fill: #231f20"/>
      <path d="M88.669,291.43457H88.6416A1.77989,1.77989,0,0,1,86.874,292.794c-1.59082,0-2.31152-1.27832-2.31152-3.7793,0-2.48828.7207-3.7666,2.31152-3.7666a1.60458,1.60458,0,0,1,1.68555,1.251h.02734v-3.57519h.81543v9.707H88.669Zm-1.65918.67969c.8291,0,1.57714-.42188,1.57714-3.09961,0-2.665-.748-3.08594-1.57714-3.08594-.81543,0-1.57715.4209-1.57715,3.08594C85.43262,291.69238,86.19434,292.11426,87.00977,292.11426Z" style="fill: #231f20"/>
      <path d="M95.34668,290.23828c-.12207,1.53613-.96582,2.55567-2.3252,2.55567-1.52246,0-2.41992-1.06055-2.41992-3.7793,0-2.502.89746-3.7666,2.48828-3.7666,1.6045,0,2.3252,1.10156,2.3252,3.50781v.2998H91.47168v.33985c0,2.08008.73437,2.71875,1.53613,2.71875.85645,0,1.38672-.61231,1.52344-1.876Zm-.80176-1.86328c-.02734-1.79395-.53027-2.44629-1.53711-2.44629-1.00586,0-1.50879.65234-1.53613,2.44629Z" style="fill: #231f20"/>
      <path d="M56.53809,299.24512H58.958l1.71387,7.1914h.02636l1.68653-7.1914H64.75v9.707H63.28223V300.876h-.02735l-1.958,8.07617H59.99219l-1.958-8.07617h-.02734v8.07617H56.53809Z" style="fill: #231f20"/>
      <path d="M71.06152,307.42969c0,.27148.16309.5166.38086.5166a.60942.60942,0,0,0,.24512-.041v.95215a1.76235,1.76235,0,0,1-.7207.17676c-.65235,0-1.19629-.25879-1.23731-.96582h-.02734a1.90243,1.90243,0,0,1-1.82129,1.07422c-1.16992,0-1.90332-.65235-1.90332-2.05274a2.007,2.007,0,0,1,1.69922-2.29785l1.1416-.3125c.53027-.14941.85644-.2998.85644-.93847,0-.666-.23046-1.08789-1.00585-1.08789-.97852,0-1.11426.69335-1.11426,1.40039H66.167c0-1.54981.63965-2.40625,2.57031-2.40625,1.291,0,2.32422.50293,2.32422,1.79492Zm-1.38672-2.33887a9.61219,9.61219,0,0,1-1.63085.67969,1.20173,1.20173,0,0,0-.59864,1.18262c0,.6123.29883,1.10156.91114,1.10156.88378,0,1.31835-.666,1.31835-1.74024Z" style="fill: #231f20"/>
      <path d="M72.56055,301.6377H74.0293v1.1416h.02636a1.80911,1.80911,0,0,1,1.7002-1.332,1.13069,1.13069,0,0,1,.35352.05468v1.49512a2.76841,2.76841,0,0,0-.61231-.08105c-.666,0-1.46777.29882-1.46777,1.6582v4.37793H72.56055Z" style="fill: #231f20"/>
      <path d="M81.53516,306.28711c-.09571,1.75391-.69336,2.85547-2.502,2.85547-2.12109,0-2.71875-1.57715-2.71875-3.84766s.59766-3.84765,2.71875-3.84765a2.3559,2.3559,0,0,1,2.51563,2.624H80.08008c0-.67969-.19043-1.56348-1.04688-1.53613-1.06054,0-1.251,1.1416-1.251,2.75976s.19043,2.75977,1.251,2.75977c.81543.01367,1.11524-.666,1.11524-1.76758Z" style="fill: #231f20"/>
      <path d="M85.99707,299.24512H89.1377c1.4414,0,2.61035.63867,2.61035,2.35156a2.01722,2.01722,0,0,1-1.42676,2.20312v.02637c1.05957.19043,1.74023.83008,1.74023,2.47461,0,1.61817-1.16992,2.65137-2.99121,2.65137H85.99707Zm2.77344,4.09179a1.3662,1.3662,0,0,0,1.42773-1.53613c0-1.15527-.69336-1.38672-1.56347-1.38672H87.54688v2.92285Zm.31347,4.44629c.92383,0,1.42676-.59863,1.42676-1.71289a1.47759,1.47759,0,0,0-1.52246-1.64551h-1.4414v3.3584Z" style="fill: #231f20"/>
      <path d="M95.63965,301.44727c2.13476,0,2.73242,1.57714,2.73242,3.84765s-.69336,3.84766-2.73242,3.84766c-2.02539,0-2.71875-1.57715-2.71875-3.84766S93.51855,301.44727,95.63965,301.44727Zm0,6.60742c1.07422,0,1.26465-.89746,1.26465-2.75977,0-1.61816-.19043-2.75976-1.26465-2.75976-1.06055,0-1.251,1.1416-1.251,2.75976C94.38867,307.15723,94.5791,308.05469,95.63965,308.05469Z" style="fill: #231f20"/>
      <path d="M103.24121,308.0957h-.04a2.09922,2.09922,0,0,1-1.877,1.04688c-1.08692,0-1.82129-.50293-1.82129-2.39258v-5.1123h1.46777v5.248c0,.81543.36719,1.08789.99317,1.08789a1.1479,1.1479,0,0,0,1.19629-1.22363v-5.1123h1.46777v7.31445h-1.38672Z" style="fill: #231f20"/>
      <path d="M106.11328,299.24512h1.46777v9.707h-1.46777Z" style="fill: #231f20"/>
      <path d="M110.3291,305.48535v.42188c0,.97851.12207,2.22949,1.22363,2.22949,1.04688,0,1.169-1.19629,1.169-1.63184h1.38672a2.41747,2.41747,0,0,1-2.56934,2.6377c-1.19629,0-2.67871-.35352-2.67871-3.73926,0-1.917.4082-3.95605,2.70606-3.95605,2.03906,0,2.583,1.22363,2.583,3.26269v.77539Zm2.35156-1.00586V304.085c0-.9248-.29882-1.63183-1.12793-1.63183-.93847,0-1.22363.9248-1.22363,1.877v.14941Zm-.9375-5.751H113.374l-1.4414,1.958h-1.00586Z" style="fill: #231f20"/>
    </g>
    <g>
      <path d="M54.34717,331.28027c-.123,2.21582-1.14258,3.45313-2.88281,3.45313-1.98438,0-3.09961-1.53613-3.09961-5.0166s1.11523-5.0166,3.09961-5.0166a2.67714,2.67714,0,0,1,2.7871,2.99121h-.87011c0-1.31934-.666-2.25684-1.917-2.25684-1.38672,0-2.2295,1.1416-2.2295,4.28223s.84278,4.28222,2.2295,4.28222c1.22363,0,1.917-1.04687,2.01269-2.71875Z" style="fill: #231f20"/>
      <path d="M57.63916,327.1875c1.59082,0,2.48828,1.26465,2.48828,3.7666,0,2.51465-.89746,3.7793-2.48828,3.7793-1.58984,0-2.4873-1.26465-2.4873-3.7793C55.15186,328.45215,56.04932,327.1875,57.63916,327.1875Zm0,6.86621c.91113,0,1.61816-.78906,1.61816-3.09961,0-2.29785-.707-3.08594-1.61816-3.08594-.91016,0-1.61719.78809-1.61719,3.08594C56.022,333.26465,56.729,334.05371,57.63916,334.05371Z" style="fill: #231f20"/>
      <path d="M61.32568,327.35059h.73438v1.00683h.02734A2.02744,2.02744,0,0,1,63.936,327.1875a1.695,1.695,0,0,1,1.8496,1.93066v5.45215h-.81543v-5.2207c0-.99219-.4082-1.48145-1.2373-1.48145a1.63557,1.63557,0,0,0-1.59082,1.84864v4.85351h-.81641Z" style="fill: #231f20"/>
      <path d="M71.70264,332.17773c-.12305,1.53614-.96582,2.55567-2.29785,2.55567-1.52344,0-2.41993-1.06055-2.41993-3.7793,0-2.50195.89649-3.7666,2.48731-3.7666a2.12842,2.12842,0,0,1,2.23047,2.31152h-.81641c-.09473-1.12793-.54394-1.63086-1.41406-1.63086-.88379,0-1.61719.543-1.61719,3.09961,0,2.71875.77441,3.08594,1.53613,3.08594.8291,0,1.35938-.6123,1.49512-1.876Z" style="fill: #231f20"/>
      <path d="M77.34619,332.17773c-.12207,1.53614-.96582,2.55567-2.32519,2.55567-1.52246,0-2.41993-1.06055-2.41993-3.7793,0-2.50195.89747-3.7666,2.48829-3.7666,1.60449,0,2.32519,1.10156,2.32519,3.50781v.29981H73.47119v.33984c0,2.08008.73438,2.71875,1.53613,2.71875.85645,0,1.38672-.6123,1.52344-1.876Zm-.80176-1.86328c-.02734-1.79394-.53027-2.44629-1.53711-2.44629-1.00586,0-1.50878.65235-1.53613,2.44629Z" style="fill: #231f20"/>
      <path d="M78.61279,327.35059h.73438v1.03418h.02734a1.82653,1.82653,0,0,1,1.78028-1.19727c1.60449,0,2.29834,1.27832,2.29834,3.78027,0,2.48731-.7212,3.76563-2.312,3.76563a1.60438,1.60438,0,0,1-1.68554-1.251h-.02735v3.48047h-.81543Zm2.41992.51757a1.3861,1.3861,0,0,0-1.1416.63868,4.22875,4.22875,0,0,0-.46289,2.46093c0,2.66407.74805,3.08594,1.57715,3.08594.81543,0,1.57715-.42187,1.57715-3.08594C82.58252,328.34375,81.8208,327.86816,81.03271,327.86816Z" style="fill: #231f20"/>
      <path d="M85.0332,328.03125h-.99414v-.68066h.99414v-1.99805h.81446v1.99805h1.27929v.68066H85.84766v5.17969c0,.57129.24609.76074.77539.76074a1.68368,1.68368,0,0,0,.5039-.08105v.67968a1.3595,1.3595,0,0,1-.57226.082c-1.10156,0-1.52149-.2998-1.52149-1.26464Z" style="fill: #231f20"/>
      <path d="M96.08789,333.3877a2.9437,2.9437,0,0,1-2.582,1.3457,2.541,2.541,0,0,1-2.7207-2.56934,3.09893,3.09893,0,0,1,1.40039-2.502l.80273-.61133a4.15923,4.15923,0,0,1-1.11523-2.39355,1.80183,1.80183,0,0,1,1.98633-1.794,1.72388,1.72388,0,0,1,1.86132,1.794c0,.78906-.32617,1.52343-1.71289,2.50195l2.09375,2.93652a5.18435,5.18435,0,0,0,.35352-1.835h.8164a5.26367,5.26367,0,0,1-.67968,2.51465l1.27734,1.79492h-.92383Zm-2.69141-3.793c-1.373.95117-1.74023,1.71289-1.74023,2.47363a1.90374,1.90374,0,0,0,1.9707,1.93066,2.37327,2.37327,0,0,0,2.03907-1.22363Zm.20313-.99317c1.07422-.81543,1.30664-1.44043,1.30664-1.9707a1.10859,1.10859,0,0,0-2.2168,0A3.90142,3.90142,0,0,0,93.59961,328.60156Z" style="fill: #231f20"/>
      <path d="M104.5625,330.35547v-.73438h3.11328v4.94922h-.67969v-1.60449h-.02734a2.27614,2.27614,0,0,1-2.13477,1.76758c-1.98437,0-3.0996-1.53613-3.0996-5.0166s1.11523-5.0166,3.0996-5.0166c1.84961,0,2.67774,1.21,2.78711,2.88183H106.75a1.91925,1.91925,0,0,0-1.916-2.14746c-1.38671,0-2.23046,1.1416-2.23046,4.28223s.84375,4.28222,2.23046,4.28222c1.30469,0,2.0254-1.16894,2.0254-3.43945v-.2041Z" style="fill: #231f20"/>
      <path d="M108.98242,324.86328h.8711v6.97461c0,1.4541.625,2.16113,1.90234,2.16113,1.2793,0,1.9043-.707,1.9043-2.16113v-6.97461h.87109v6.98828c0,2.03907-.99414,2.88184-2.77539,2.88184-1.7793,0-2.77344-.84277-2.77344-2.88184Z" style="fill: #231f20"/>
      <path d="M115.97461,324.86328h.86914v9.707h-.86914Z" style="fill: #231f20"/>
      <path d="M49.7251,341.18457h3.07324c1.8623,0,2.67773,1.16895,2.67773,2.82813a2.629,2.629,0,0,1-2.84082,2.86816H51.2749v4.01074H49.7251Zm1.5498,4.52734h1.10156a1.46473,1.46473,0,0,0,1.54981-1.67285c0-1.04687-.4209-1.68554-1.6582-1.68554H51.2749Z" style="fill: #231f20"/>
      <path d="M56.49951,341.0752h1.46778V342.544H56.49951Zm0,2.502h1.46778v7.31445H56.49951Z" style="fill: #231f20"/>
      <path d="M60.71436,347.4248v.42188c0,.97852.12207,2.22949,1.22363,2.22949,1.04687,0,1.16894-1.19629,1.16894-1.63183h1.38672a2.41746,2.41746,0,0,1-2.56933,2.63769c-1.19629,0-2.67871-.35351-2.67871-3.73926,0-1.917.4082-3.956,2.706-3.956,2.03906,0,2.583,1.22363,2.583,3.26269v.77539Zm2.35156-1.00585v-.39454c0-.9248-.29883-1.63183-1.12793-1.63183-.93848,0-1.22363.9248-1.22363,1.87695v.14942Z" style="fill: #231f20"/>
      <path d="M65.74756,343.57715h1.46777v1.1416h.02735a1.80909,1.80909,0,0,1,1.70019-1.332,1.13036,1.13036,0,0,1,.35352.05469v1.49511a2.76841,2.76841,0,0,0-.61231-.081c-.666,0-1.46875.29883-1.46875,1.6582v4.37793H65.74756Z" style="fill: #231f20"/>
      <path d="M70.03174,343.57715h1.46875v1.1416h.02637a1.80909,1.80909,0,0,1,1.70019-1.332,1.13036,1.13036,0,0,1,.35352.05469v1.49511a2.76841,2.76841,0,0,0-.61231-.081c-.666,0-1.46777.29883-1.46777,1.6582v4.37793H70.03174Z" style="fill: #231f20"/>
      <path d="M75.58057,347.4248v.42188c0,.97852.12207,2.22949,1.22363,2.22949,1.04687,0,1.16894-1.19629,1.16894-1.63183h1.38672a2.41746,2.41746,0,0,1-2.56933,2.63769c-1.19629,0-2.67871-.35351-2.67871-3.73926,0-1.917.4082-3.956,2.70605-3.956,2.03906,0,2.583,1.22363,2.583,3.26269v.77539Zm2.35156-1.00585v-.39454c0-.9248-.29883-1.63183-1.12793-1.63183-.93848,0-1.22363.9248-1.22363,1.87695v.14942Z" style="fill: #231f20"/>
      <path d="M89.94141,347.41113v.2041c0,1.75391-.707,3.4668-2.99219,3.4668-2.44727,0-3.207-1.57715-3.207-5.04394s.75976-5.04395,3.2207-5.04395c2.75977,0,2.92383,2.03906,2.92383,3.04492v.17676H88.33594v-.16309c0-.89746-.27149-1.93066-1.38672-1.88964-1.14063,0-1.6582.707-1.6582,3.834s.51757,3.916,1.6582,3.916c1.293,0,1.44141-1.44141,1.44141-2.33887v-.16309Z" style="fill: #231f20"/>
      <path d="M93.36914,343.38672c2.13477,0,2.73242,1.57715,2.73242,3.84766s-.69336,3.84765-2.73242,3.84765c-2.02539,0-2.71875-1.57715-2.71875-3.84765S91.24805,343.38672,93.36914,343.38672Zm0,6.60742c1.07422,0,1.26563-.89746,1.26563-2.75976,0-1.61817-.19141-2.75977-1.26563-2.75977-1.06055,0-1.25,1.1416-1.25,2.75977C92.11914,349.09668,92.30859,349.99414,93.36914,349.99414Z" style="fill: #231f20"/>
      <path d="M97.30078,341.18457h1.46875v9.707H97.30078Z" style="fill: #231f20"/>
      <path d="M100.32031,341.18457h1.46875v9.707h-1.46875Z" style="fill: #231f20"/>
      <path d="M108.07031,349.36914c0,.27149.16407.5166.38086.5166a.61478.61478,0,0,0,.2461-.041v.95215a1.76666,1.76666,0,0,1-.72071.17675c-.65234,0-1.19726-.25879-1.23828-.96582h-.02734a1.90194,1.90194,0,0,1-1.82031,1.07422c-1.16993,0-1.9043-.65234-1.9043-2.05273a2.00695,2.00695,0,0,1,1.69922-2.29785l1.14258-.3125c.52929-.14942.85546-.29981.85546-.93848,0-.666-.23046-1.08789-1.00586-1.08789-.97851,0-1.11328.69336-1.11328,1.40039h-1.38867c0-1.54981.64063-2.40625,2.57031-2.40625,1.291,0,2.32422.50293,2.32422,1.79492Zm-1.38672-2.33887a9.54613,9.54613,0,0,1-1.63086.67969,1.20112,1.20112,0,0,0-.59765,1.18262c0,.6123.29883,1.10156.91015,1.10156.88477,0,1.31836-.666,1.31836-1.74023Z" style="fill: #231f20"/>
      <path d="M109.56836,343.57715h1.46875v1.1416h.02734a1.808,1.808,0,0,1,1.69922-1.332,1.12535,1.12535,0,0,1,.35352.05469v1.49511a2.76679,2.76679,0,0,0-.61133-.081c-.666,0-1.46875.29883-1.46875,1.6582v4.37793h-1.46875Z" style="fill: #231f20"/>
      <path d="M117.5918,349.99414h-.02735a1.5614,1.5614,0,0,1-1.60351,1.08789c-1.71289,0-2.39258-1.42773-2.39258-3.94238,0-3.25,1.14062-3.75293,2.25586-3.75293a1.702,1.702,0,0,1,1.6582,1.04687h.02735v-3.249h1.46875v9.707H117.5918Zm-1.332-5.43848c-.84375,0-1.14258.67969-1.14258,2.65137,0,1.65918.21679,2.70606,1.23828,2.70606,1.00586,0,1.23633-1.03321,1.23633-2.59668C117.5918,345.5625,117.38867,344.55566,116.25977,344.55566Z" style="fill: #231f20"/>
    </g>
    <g>
      <path d="M41.66016,215.9707h1.40722V219.085h.02637a1.63233,1.63233,0,0,1,1.58984-1.00391c1.06836,0,2.16309.48243,2.16309,3.59668,0,2.41114-.65234,3.7793-2.294,3.7793a1.4972,1.4972,0,0,1-1.5371-1.043h-.02637v.86035h-1.3291Zm2.51464,8.36524c.97754,0,1.18555-1.00293,1.18555-2.59278,0-1.88964-.28613-2.541-1.09375-2.541-1.082,0-1.27734.96387-1.27734,2.64551C42.98926,223.3457,43.21094,224.33594,44.1748,224.33594Z" style="fill: #231f20"/>
      <path d="M49.13672,221.95117v.4043c0,.93848.11719,2.13672,1.17285,2.13672,1.00293,0,1.12012-1.14649,1.12012-1.56348h1.3291A2.31717,2.31717,0,0,1,50.2959,225.457c-1.14649,0-2.56641-.33887-2.56641-3.584,0-1.83692.39063-3.792,2.59278-3.792,1.95507,0,2.47558,1.17286,2.47558,3.12793v.74219Zm2.25391-.96387v-.37792c0-.88575-.28614-1.56348-1.08106-1.56348-.89941,0-1.17285.88574-1.17285,1.79785v.14355Z" style="fill: #231f20"/>
      <path d="M53.33008,218.26367h.96484v-1.99414h1.40723v1.99414h1.14648v1.043H55.70215v4.18262c0,.54687.15625.74219.63867.74219a2.65091,2.65091,0,0,0,.50781-.03907v1.043a4.66386,4.66386,0,0,1-1.13379.11719c-.95117,0-1.41992-.26074-1.41992-1.69434v-4.35156h-.96484Z" style="fill: #231f20"/>
      <path d="M62.17676,223.81543c0,.25977.15625.49512.36523.49512a.59692.59692,0,0,0,.23438-.03907v.91211a1.67834,1.67834,0,0,1-.69043.16895c-.626,0-1.14649-.24707-1.18555-.92481H60.874a1.82467,1.82467,0,0,1-1.74609,1.0293c-1.12109,0-1.82422-.626-1.82422-1.96777a1.92363,1.92363,0,0,1,1.62891-2.20215l1.09375-.29981c.50879-.14355.82129-.2871.82129-.89941,0-.63867-.22168-1.042-.96387-1.042-.93848,0-1.06836.66406-1.06836,1.3418H57.48535c0-1.48536.61328-2.30665,2.46289-2.30665,1.23828,0,2.22852.48243,2.22852,1.72071Zm-1.3291-2.24219a9.20728,9.20728,0,0,1-1.56348.65235,1.15014,1.15014,0,0,0-.57324,1.13281c0,.58691.28613,1.05566.873,1.05566.84668,0,1.26368-.63867,1.26368-1.668Z" style="fill: #231f20"/>
      <path d="M66.14648,218.26367H67.6582l1.22559,5.52539h.02539l1.10742-5.52539h1.499L69.665,225.27441h-1.6416Z" style="fill: #231f20"/>
      <path d="M73.49414,221.95117v.4043c0,.93848.11719,2.13672,1.17285,2.13672,1.00293,0,1.12012-1.14649,1.12012-1.56348h1.3291a2.31717,2.31717,0,0,1-2.46289,2.52832c-1.14648,0-2.56641-.33887-2.56641-3.584,0-1.83692.39063-3.792,2.59278-3.792,1.95508,0,2.47558,1.17286,2.47558,3.12793v.74219Zm2.25391-.96387v-.37792c0-.88575-.28614-1.56348-1.08106-1.56348-.89941,0-1.17285.88574-1.17285,1.79785v.14355Z" style="fill: #231f20"/>
      <path d="M78.31348,218.26367H79.7207v1.09473h.02637a1.73351,1.73351,0,0,1,1.62891-1.27735,1.07832,1.07832,0,0,1,.33886.05274v1.43262a2.70078,2.70078,0,0,0-.58691-.07813c-.63867,0-1.40723.28711-1.40723,1.58985v4.19628H78.31348Z" style="fill: #231f20"/>
      <path d="M85.43945,220.30957V220.127c0-.56054-.19629-1.08105-.92578-1.08105-.56054,0-1.00293.26074-1.00293.91211,0,.54687.24707.76855.99024,1.02929l.89941.3125a1.89942,1.89942,0,0,1,1.52441,2.01954c0,1.499-1.09472,2.13769-2.51562,2.13769-1.77148,0-2.30566-.82129-2.30566-2.17676v-.25976h1.251v.2207c0,.80859.28614,1.251,1.09375,1.251.76953,0,1.14746-.39063,1.14746-1.0293a1.01966,1.01966,0,0,0-.76953-1.0293l-1.14648-.40429a1.86621,1.86621,0,0,1-1.498-2.01953c0-1.31641.95117-1.92872,2.39746-1.92872,1.78516,0,2.18945,1.043,2.18945,1.916v.3125Z" style="fill: #231f20"/>
      <path d="M88.03027,215.86621H89.4375v1.40723H88.03027Zm0,2.39746H89.4375v7.01074H88.03027Z" style="fill: #231f20"/>
      <path d="M93.18848,218.08105c2.0459,0,2.61914,1.51172,2.61914,3.68848,0,2.17578-.66407,3.6875-2.61914,3.6875-1.94141,0-2.60547-1.51172-2.60547-3.6875C90.583,219.59277,91.15625,218.08105,93.18848,218.08105Zm0,6.333c1.03027,0,1.21191-.85937,1.21191-2.64453,0-1.55078-.18164-2.64551-1.21191-2.64551-1.01563,0-1.19825,1.09473-1.19825,2.64551C91.99023,223.55469,92.17285,224.41406,93.18848,224.41406Z" style="fill: #231f20"/>
      <path d="M96.88672,218.26367h1.3291v.82129h.03906a2.01017,2.01017,0,0,1,1.79785-1.00391c1.06934,0,1.7461.48243,1.7461,1.90235v5.291H100.3916v-4.80859c0-.91211-.27344-1.26367-.97656-1.26367-.57422,0-1.12109.45605-1.12109,1.36816v4.7041H96.88672Z" style="fill: #231f20"/>
      <path d="M108.72754,216.04883c1.77148,0,2.76172,1.12012,2.76172,4.7041,0,3.583-.99024,4.7041-2.76172,4.7041-1.77246,0-2.7627-1.12109-2.7627-4.7041C105.96484,217.169,106.95508,216.04883,108.72754,216.04883Zm0,8.36523c1.01562,0,1.27637-.97656,1.27637-3.66113s-.26075-3.66211-1.27637-3.66211c-1.0166,0-1.27734.97754-1.27734,3.66211S107.71094,224.41406,108.72754,224.41406Z" style="fill: #231f20"/>
      <path d="M112.67383,223.55469h1.48535v1.71972h-1.48535Z" style="fill: #231f20"/>
      <path d="M119.25293,218.29c0-.53418-.24805-1.19922-.99023-1.19922-1.39454,0-1.47266,1.83789-1.47266,3.17969l.03906.02637a1.90185,1.90185,0,0,1,1.79785-.97754c1.26465,0,2.28028.91211,2.28028,2.749,0,2.124-.873,3.38867-2.82715,3.38867-2.333,0-2.77539-1.77246-2.77539-4.418,0-2.76269.50781-4.99023,2.94433-4.99023,1.61621,0,2.48926.72949,2.48926,2.24121Zm-1.05566,6.124c.91211,0,1.22461-.89843,1.22461-1.98047,0-1.27734-.37793-1.99414-1.22461-1.99414-1.082,0-1.27735.95215-1.27735,2.05957C116.91992,223.56738,117.32422,224.41406,118.19727,224.41406Z" style="fill: #231f20"/>
      <path d="M122.05176,223.55469h1.48535v1.71972h-1.48535Z" style="fill: #231f20"/>
      <path d="M127.4834,216.04883c1.77246,0,2.76269,1.12012,2.76269,4.7041,0,3.583-.99023,4.7041-2.76269,4.7041-1.77149,0-2.76172-1.12109-2.76172-4.7041C124.72168,217.169,125.71191,216.04883,127.4834,216.04883Zm0,8.36523c1.0166,0,1.27734-.97656,1.27734-3.66113s-.26074-3.66211-1.27734-3.66211c-1.01563,0-1.27637.97754-1.27637,3.66211S126.46777,224.41406,127.4834,224.41406Z" style="fill: #231f20"/>
    </g>
  </g>
  <g>
    <path d="M2.5,23.82959a.82346.82346,0,0,1-.59033-.23975.83345.83345,0,0,1,0-1.16992.865.865,0,0,1,1.18017,0A.84351.84351,0,0,1,3.32959,23a.829.829,0,0,1-.05957.31982,1.28818,1.28818,0,0,1-.18018.27A.82313.82313,0,0,1,2.5,23.82959Z"/>
    <path d="M156.66992,23.00977a.82814.82814,0,0,1,.83008-.83008h0a.82814.82814,0,0,1,.83008.83008h0a.82569.82569,0,0,1-.83008.81982h0A.82569.82569,0,0,1,156.66992,23.00977Zm-5,0a.82814.82814,0,0,1,.83008-.83008h0a.82814.82814,0,0,1,.83008.83008h0a.82569.82569,0,0,1-.83008.81982h0A.82569.82569,0,0,1,151.66992,23.00977Zm-5,0a.82814.82814,0,0,1,.83008-.83008h0a.82814.82814,0,0,1,.83008.83008h0a.82569.82569,0,0,1-.83008.81982h0A.82569.82569,0,0,1,146.66992,23.00977Zm-5,0a.82814.82814,0,0,1,.83008-.83008h0a.82814.82814,0,0,1,.83008.83008h0a.82569.82569,0,0,1-.83008.81982h0A.82569.82569,0,0,1,141.66992,23.00977Zm-5,0a.82814.82814,0,0,1,.83008-.83008h0a.82814.82814,0,0,1,.83008.83008h0a.82569.82569,0,0,1-.83008.81982h0A.82569.82569,0,0,1,136.66992,23.00977Zm-5,0a.82814.82814,0,0,1,.83008-.83008h0a.8344.8344,0,0,1,.83008.83008h0a.832.832,0,0,1-.83008.81982h0A.82569.82569,0,0,1,131.66992,23.00977Zm-5,0a.82814.82814,0,0,1,.83008-.83008h0a.82814.82814,0,0,1,.83008.83008h0a.82569.82569,0,0,1-.83008.81982h0A.82569.82569,0,0,1,126.66992,23.00977Zm-5,0a.82814.82814,0,0,1,.83008-.83008h0a.82814.82814,0,0,1,.83008.83008h0a.82569.82569,0,0,1-.83008.81982h0A.82569.82569,0,0,1,121.66992,23.00977Zm-5,0a.82814.82814,0,0,1,.83008-.83008h0a.82814.82814,0,0,1,.83008.83008h0a.82569.82569,0,0,1-.83008.81982h0A.82569.82569,0,0,1,116.66992,23.00977Zm-5,0a.82814.82814,0,0,1,.83008-.83008h0a.82814.82814,0,0,1,.83008.83008h0a.82569.82569,0,0,1-.83008.81982h0A.82569.82569,0,0,1,111.66992,23.00977Zm-5,0a.82814.82814,0,0,1,.83008-.83008h0a.82814.82814,0,0,1,.83008.83008h0a.82569.82569,0,0,1-.83008.81982h0A.82569.82569,0,0,1,106.66992,23.00977Zm-5,0a.82814.82814,0,0,1,.83008-.83008h0a.82814.82814,0,0,1,.83008.83008h0a.82569.82569,0,0,1-.83008.81982h0A.82569.82569,0,0,1,101.66992,23.00977Zm-5,0A.82814.82814,0,0,1,97.5,22.17969h0a.82814.82814,0,0,1,.83008.83008h0a.82569.82569,0,0,1-.83008.81982h0A.82569.82569,0,0,1,96.66992,23.00977Zm-5,0A.82814.82814,0,0,1,92.5,22.17969h0a.82814.82814,0,0,1,.83008.83008h0a.82569.82569,0,0,1-.83008.81982h0A.82569.82569,0,0,1,91.66992,23.00977Zm-5,0A.82814.82814,0,0,1,87.5,22.17969h0a.82814.82814,0,0,1,.83008.83008h0a.82569.82569,0,0,1-.83008.81982h0A.82569.82569,0,0,1,86.66992,23.00977Zm-5,0A.82814.82814,0,0,1,82.5,22.17969h0a.82814.82814,0,0,1,.83008.83008h0a.82569.82569,0,0,1-.83008.81982h0A.82569.82569,0,0,1,81.66992,23.00977Zm-5,0A.82814.82814,0,0,1,77.5,22.17969h0a.82772.82772,0,0,1,.82959.83008h0a.82526.82526,0,0,1-.82959.81982h0A.82569.82569,0,0,1,76.66992,23.00977Zm-5,0A.82814.82814,0,0,1,72.5,22.17969h0a.82772.82772,0,0,1,.82959.83008h0a.82526.82526,0,0,1-.82959.81982h0A.82569.82569,0,0,1,71.66992,23.00977Zm-5,0A.82814.82814,0,0,1,67.5,22.17969h0a.82772.82772,0,0,1,.82959.83008h0a.82526.82526,0,0,1-.82959.81982h0A.82569.82569,0,0,1,66.66992,23.00977Zm-5,0A.82814.82814,0,0,1,62.5,22.17969h0a.82772.82772,0,0,1,.82959.83008h0a.82526.82526,0,0,1-.82959.81982h0A.82569.82569,0,0,1,61.66992,23.00977Zm-5,0A.82814.82814,0,0,1,57.5,22.17969h0a.82772.82772,0,0,1,.82959.83008h0a.82526.82526,0,0,1-.82959.81982h0A.82569.82569,0,0,1,56.66992,23.00977Zm-5,0A.82814.82814,0,0,1,52.5,22.17969h0a.82772.82772,0,0,1,.82959.83008h0a.82526.82526,0,0,1-.82959.81982h0A.82569.82569,0,0,1,51.66992,23.00977Zm-5,0A.82814.82814,0,0,1,47.5,22.17969h0a.82772.82772,0,0,1,.82959.83008h0a.82526.82526,0,0,1-.82959.81982h0A.82569.82569,0,0,1,46.66992,23.00977Zm-5,0A.82814.82814,0,0,1,42.5,22.17969h0a.82772.82772,0,0,1,.82959.83008h0a.82526.82526,0,0,1-.82959.81982h0A.82569.82569,0,0,1,41.66992,23.00977Zm-5,0A.82814.82814,0,0,1,37.5,22.17969h0a.82772.82772,0,0,1,.82959.83008h0a.82526.82526,0,0,1-.82959.81982h0A.82569.82569,0,0,1,36.66992,23.00977Zm-5,0A.82814.82814,0,0,1,32.5,22.17969h0a.82772.82772,0,0,1,.82959.83008h0a.82526.82526,0,0,1-.82959.81982h0A.82569.82569,0,0,1,31.66992,23.00977Zm-5,0A.82814.82814,0,0,1,27.5,22.17969h0a.82772.82772,0,0,1,.82959.83008h0a.82526.82526,0,0,1-.82959.81982h0A.82569.82569,0,0,1,26.66992,23.00977Zm-5,0A.82814.82814,0,0,1,22.5,22.17969h0a.82772.82772,0,0,1,.82959.83008h0a.82526.82526,0,0,1-.82959.81982h0A.82569.82569,0,0,1,21.66992,23.00977Zm-5,0A.82814.82814,0,0,1,17.5,22.17969h0a.82772.82772,0,0,1,.82959.83008h0a.82526.82526,0,0,1-.82959.81982h0A.82569.82569,0,0,1,16.66992,23.00977Zm-5,0A.82814.82814,0,0,1,12.5,22.17969h0a.82772.82772,0,0,1,.82959.83008h0a.82526.82526,0,0,1-.82959.81982h0A.82569.82569,0,0,1,11.66992,23.00977Zm-5,0A.82814.82814,0,0,1,7.5,22.17969h0a.82772.82772,0,0,1,.82959.83008h0A.82526.82526,0,0,1,7.5,23.82959h0A.82569.82569,0,0,1,6.66992,23.00977Z"/>
    <path d="M162.5,23.82959a.8675.8675,0,0,1-.32031-.05957.80178.80178,0,0,1-.26953-.18018,1.29,1.29,0,0,1-.18067-.27.81487.81487,0,0,1-.05957-.31005.82831.82831,0,0,1,1.14942-.77.677.677,0,0,1,.26074.18017.82187.82187,0,0,1,.18945.8999,1.00613,1.00613,0,0,1-.18945.27A.78528.78528,0,0,1,162.5,23.82959Z"/>
  </g>
</svg>
