<svg id="Layer_1" data-name="Layer 1" xmlns="http://www.w3.org/2000/svg" width="165" height="380" viewBox="0 0 165 380">
  <title>BranesBG</title>
  <rect y="0.00002" width="165" height="380" style="fill: #e5e5e5"/>
  <g>
    <g>
      <circle cx="23" cy="6" r="5.73633" style="fill: #bcbcbc"/>
      <path d="M23,.52749A5.47253,5.47253,0,1,1,17.52751,6,5.47873,5.47873,0,0,1,23,.52749M23,0a6,6,0,1,0,6,6,6,6,0,0,0-6-6Z" style="fill: gray"/>
    </g>
    <polygon points="26.495 5.341 23.659 5.341 23.659 2.506 22.341 2.506 22.341 5.341 19.506 5.341 19.506 6.659 22.341 6.659 22.341 9.495 23.659 9.495 23.659 6.659 26.495 6.659 26.495 5.341" style="fill: #6e6e6e"/>
  </g>
  <g>
    <g>
      <circle cx="142" cy="6" r="5.73633" style="fill: #bcbcbc"/>
      <path d="M142,.52749A5.47253,5.47253,0,1,1,136.52751,6,5.47873,5.47873,0,0,1,142,.52749M142,0a6,6,0,1,0,6,6,6,6,0,0,0-6-6Z" style="fill: gray"/>
    </g>
    <polygon points="145.495 5.341 142.659 5.341 142.659 2.506 141.341 2.506 141.341 5.341 138.506 5.341 138.506 6.659 141.341 6.659 141.341 9.495 142.659 9.495 142.659 6.659 145.495 6.659 145.495 5.341" style="fill: #6e6e6e"/>
  </g>
  <g>
    <g>
      <circle cx="23" cy="374" r="5.73633" style="fill: #bcbcbc"/>
      <path d="M23,368.5275A5.47253,5.47253,0,1,1,17.52751,374,5.47874,5.47874,0,0,1,23,368.5275M23,368a6,6,0,1,0,6,6,6,6,0,0,0-6-6Z" style="fill: gray"/>
    </g>
    <polygon points="26.495 373.341 23.659 373.341 23.659 370.506 22.341 370.506 22.341 373.341 19.506 373.341 19.506 374.659 22.341 374.659 22.341 377.495 23.659 377.495 23.659 374.659 26.495 374.659 26.495 373.341" style="fill: #6e6e6e"/>
  </g>
  <g>
    <g>
      <circle cx="142" cy="374" r="5.73633" style="fill: #bcbcbc"/>
      <path d="M142,368.5275A5.47253,5.47253,0,1,1,136.52751,374,5.47874,5.47874,0,0,1,142,368.5275M142,368a6,6,0,1,0,6,6,6,6,0,0,0-6-6Z" style="fill: gray"/>
    </g>
    <polygon points="145.495 373.341 142.659 373.341 142.659 370.506 141.341 370.506 141.341 373.341 138.506 373.341 138.506 374.659 141.341 374.659 141.341 377.495 142.659 377.495 142.659 374.659 145.495 374.659 145.495 373.341" style="fill: #6e6e6e"/>
  </g>
  <g>
    <path d="M82.5,91.32813A.8273.8273,0,0,1,81.67188,90.5v-29a.82813.82813,0,0,1,1.65625,0v29A.8273.8273,0,0,1,82.5,91.32813Z" style="fill: #252626"/>
    <path d="M47.5,126.32813h-29a.82813.82813,0,0,1,0-1.65625h29a.82813.82813,0,1,1,0,1.65625Z" style="fill: #252626"/>
    <path d="M146.5,126.32813h-29a.82813.82813,0,0,1,0-1.65625h29a.82813.82813,0,1,1,0,1.65625Z" style="fill: #252626"/>
    <path d="M36.41992,172.32813a.82813.82813,0,0,1-.585-1.415l21.08008-21a.82864.82864,0,0,1,1.16992,1.17382l-21.08008,21A.82581.82581,0,0,1,36.41992,172.32813Z" style="fill: #252626"/>
    <path d="M107.5,101.32813a.82813.82813,0,0,1-.58594-1.41309l20.9668-21a.82795.82795,0,1,1,1.17187,1.16992l-20.96679,21A.8244.8244,0,0,1,107.5,101.32813Z" style="fill: #252626"/>
    <path d="M128.5,172.32813a.82913.82913,0,0,1-.58594-.24219l-21-21a.82864.82864,0,0,1,1.17188-1.17188l21,21a.82813.82813,0,0,1-.58594,1.41407Z" style="fill: #252626"/>
    <path d="M57.5,101.32813a.82913.82913,0,0,1-.58594-.24219l-21-21a.82864.82864,0,0,1,1.17188-1.17188l21,21A.82813.82813,0,0,1,57.5,101.32813Z" style="fill: #252626"/>
  </g>
  <g>
    <rect x="74.32852" y="343.25365" width="16.88116" height="32.74636" rx="3.20745" ry="3.20745" style="fill: #252626"/>
    <path d="M86.61544,364.10642a1.8211,1.8211,0,0,1-1.10036,1.03443,2.30428,2.30428,0,0,1-.75781.12506,2.27849,2.27849,0,0,1-1.04757-.19755,1.82253,1.82253,0,0,1-.58631-.46126,1.41963,1.41963,0,0,1-.28342-.64567,4.30891,4.30891,0,0,1-.05936-.7116q0-.50113.01971-.69188a.53352.53352,0,0,1,.04622-.2175,1.19477,1.19477,0,0,1,.43475-.03941h3.08382a.99665.99665,0,0,1,.21749.01971.19612.19612,0,0,1,.13162.10534.67133.67133,0,0,1,.05936.25691q.013.17139.01337.47439a2.38153,2.38153,0,0,1-.17151.949M81.292,351.28478a.293.293,0,0,1,.107-.1959.53839.53839,0,0,1,.28506-.08916q.196-.0176.55252-.01783a2.80553,2.80553,0,0,1,2.12987.77518,2.88438,2.88438,0,0,1,.73975,2.0766c0,.08212-.01713.25926-.02792.38079-.06827-.00094-.13655-.00188-.20482-.00329q-.28049-.006-.60954-.0305a.15279.15279,0,0,0-.0793.14007.20324.20324,0,0,0,.05514.1647l.21913.0244a1.5481,1.5481,0,0,1,.36577.07907q.1464.0549.1464.1159a.70287.70287,0,0,1-.0732.22547q-.0732.1647-.195.396-.12211.23193-.26207.49387-.14042.26219-.2623.49364-.28049.53668-.57294,1.05437-.29246.5184-.5727,1.00581-.354-.63383-.69494-1.32864-.34137-.69505-.68274-1.37768c-.01643-.03237-.04458-.09314-.08517-.18277q-.06123-.13373-.1281-.28646c-.04481-.10159-.08352-.19685-.1159-.28647a.66516.66516,0,0,1-.04856-.18277c0-.0488.03214-.08728.09736-.1159a2.41544,2.41544,0,0,1,.41458-.10347l.15836-.0244a.21352.21352,0,0,0,.0549-.1708.13.13,0,0,0-.09127-.134q-.25971.02041-.63722.02933v-2.58643a2.50708,2.50708,0,0,1,.01783-.33879m1.00933,9.125q0,.48777-.0122.78011a1.28754,1.28754,0,0,1-.0854.457.48631.48631,0,0,1-.06171.10441l-.00164.00094a2.28289,2.28289,0,0,1-.35826-.09455.59649.59649,0,0,1-.34747-.32073,1.8805,1.8805,0,0,1-.13373-.65059q-.02675-.41844-.02675-1.11374V357.0348l.63722,1.2416q.13374.2562.21327.43287a1.9,1.9,0,0,1,.11567.32917,2.00311,2.00311,0,0,1,.0488.32307q.012.17068.0122.42653Zm5.03092,1.50742q.07917-.2196.15836-.46923.07919-.24987.1464-.48777.06687-.23755.10371-.39627a.19005.19005,0,0,0-.14031-.10957.18466.18466,0,0,0-.1647.0244,5.71288,5.71288,0,0,1-.46924.7801,1.47235,1.47235,0,0,1-.396.40237,1.3092,1.3092,0,0,1-.2257.08517,1.791,1.791,0,0,1-.30478.0549q-.17665.0183-.42653.0305t-.60343.0122q-.40226,0-.66444-.0244a3.33748,3.33748,0,0,1-.42044-.06076,1.05216,1.05216,0,0,1-.24987-.08541.43766.43766,0,0,1-.1403-.1098.8459.8459,0,0,1-.18887-.46923,6.04929,6.04929,0,0,1-.0427-.79864v-.80451c.00188-.11144.00516-.21.00986-.29444a1.92578,1.92578,0,0,1,.06687-.42044,2.12154,2.12154,0,0,1,.1708-.41457c.0183-.035.03894-.07273.06076-.11238.02933-.00094.05983-.00141.09385-.00141h.70714q.35334,0,.579.0122a1.78039,1.78039,0,0,1,.35967.04857.42946.42946,0,0,1,.26207.1708.8698.8698,0,0,1,.11591.29257l.10956.47533a.185.185,0,0,0,.16447.0549.17522.17522,0,0,0,.1525-.0671q0-.20729-.0244-.52413-.02464-.31709-.0244-.64614,0-.35334.0244-.6825.02429-.32942.0244-.54878a.17705.17705,0,0,0-.1525-.0671.18635.18635,0,0,0-.16447.0549l-.09737.5a.76187.76187,0,0,1-.1159.31086.38648.38648,0,0,1-.17666.11567,1.72,1.72,0,0,1-.378.0549q-.26853.0183-.65834.0183h-.55089l.0122-.02018.76791-1.32864q.23121-.39029.42067-.72544a6.56734,6.56734,0,0,1,.37163-.59123,2.10527,2.10527,0,0,1,.378-.41434,1.00161,1.00161,0,0,1,.08305-.06006.99485.99485,0,0,1,.46783.37281,1.37874,1.37874,0,0,1,.1586.32893q.06052.183.134.40237a.16529.16529,0,0,0,.1586.0488.18114.18114,0,0,0,.14616-.0732q-.02463-.195-.04246-.44483-.01864-.24987-.04293-.48754c-.01619-.1586-.03754-.30008-.05467-.42677a3.822,3.822,0,0,1-.03285-.58115,3.21009,3.21009,0,0,0-1.46754-2.6784,4.20837,4.20837,0,0,0-1.46143-.55253,10.53539,10.53539,0,0,0-1.96047-.16047q-1.123,0-1.96938.02674-.84674.02675-1.55974.1159a.22337.22337,0,0,0-.11567.20482.29671.29671,0,0,0,.08024.24072l.64145.07133a1.569,1.569,0,0,1,.47251.1159.49922.49922,0,0,1,.24941.294,1.94421,1.94421,0,0,1,.09807.57036q.01758.3565.01782.92674v6.57681q0,.69471-.01782,1.11374a1.77452,1.77452,0,0,1-.12482.65059.60542.60542,0,0,1-.32073.32073,2.52654,2.52654,0,0,1-.606.14264l-.37445.0535a.2767.2767,0,0,0-.07321.22171c-.00046.19074-.00257.25128-.00656.46619q-.00635.36917-.03355.82538c.01806.04481.06921.07156.15437.08071a.19312.19312,0,0,0,.18136-.05373l.04012-.282a1.90388,1.90388,0,0,1,.10746-.45609.45572.45572,0,0,1,.24166-.24166,1.33214,1.33214,0,0,1,.48988-.09432q.31533-.013.839-.01314h1.69113a.84018.84018,0,0,1,.168.01314.12068.12068,0,0,1,.087.07414.56936.56936,0,0,1,.03378.1877c.00423.08516.00658.20341.00658.35568a1.40227,1.40227,0,0,1-.10066.60414.90114.90114,0,0,1-.32894.34911q-.22839.16119-.50325.3355-.27555.17421-.55041.34888-.2752.17455-.53024.33574-.25515.16083-.443.29515a7.44715,7.44715,0,0,0-.839.678,2.97069,2.97069,0,0,0-.51663.63746,2.23545,2.23545,0,0,0-.26183.67781,3.88422,3.88422,0,0,0-.07367.78527,1.98109,1.98109,0,0,0,.06686.59053.10914.10914,0,0,0,.18817-.01337,1.76605,1.76605,0,0,1,.12739-.50983,1.56528,1.56528,0,0,1,.24846-.41621,5.19008,5.19008,0,0,1,.63746-.65787q.35544-.30864.78527-.63088.42934-.322.96639-.66421.53669-.34242,1.1813-.74514a.83955.83955,0,0,1,.16776-.08728.14659.14659,0,0,1,.15437.02017,2.74778,2.74778,0,0,0,.28177.54361,2.905,2.905,0,0,0,.46314.54385,2.41057,2.41057,0,0,0,.64426.42278,2.04368,2.04368,0,0,0,.85237.16775,2.01046,2.01046,0,0,0,1.16793-.31556,2.218,2.218,0,0,0,.71136-.79864,2.95934,2.95934,0,0,0,.32894-1.04006,9.07734,9.07734,0,0,0,.07367-1.20171,5.06313,5.06313,0,0,1,.137-1.27539" style="fill: #e6e5e5"/>
  </g>
  <g>
    <g>
      <circle cx="82.49984" cy="61.5002" r="13.75229" style="fill: none"/>
      <path d="M89.0498,50.34961a.81739.81739,0,0,1-.29-1.12988h0a.82939.82939,0,0,1,1.12988-.29h0a.81092.81092,0,0,1,.29,1.12988h0a.82717.82717,0,0,1-.71.41016h0A.81268.81268,0,0,1,89.0498,50.34961ZM75,49.93945a.82994.82994,0,0,1,.30957-1.12988h0a.82136.82136,0,0,1,1.12988.31055h0A.82379.82379,0,0,1,76.12988,50.25h0a.87686.87686,0,0,1-.41015.10938h0A.817.817,0,0,1,75,49.93945ZM85.9502,49.04a.81742.81742,0,0,1-.58008-1.02051h0a.83268.83268,0,0,1,1.01953-.58008h0A.8325.8325,0,0,1,86.96973,48.46h0a.84283.84283,0,0,1-.80957.60938h0A.77267.77267,0,0,1,85.9502,49.04ZM78.25,48.38965a.82317.82317,0,0,1,.58984-1.00977h0a.82944.82944,0,0,1,1.00977.59961h0a.81968.81968,0,0,1-.58984,1h0v.01074h0a1.52557,1.52557,0,0,1-.21.01954h0A.82246.82246,0,0,1,78.25,48.38965Zm4.35938.19043a.85063.85063,0,0,1-.83008-.83985h0a.82957.82957,0,0,1,.84082-.82031h0a.83224.83224,0,0,1,.81933.83008h0a.83441.83441,0,0,1-.83007.83008Z" style="fill: #a3a3a3"/>
      <g>
        <path d="M72.855,51.697a13.75228,13.75228,0,1,0,19.448.15778" style="fill: #e5e5e5"/>
        <path d="M82.50391,76.08008h-.12207A14.58042,14.58042,0,0,1,72.27441,51.10645a.82867.82867,0,1,1,1.16211,1.18164,12.92327,12.92327,0,0,0,8.959,22.13476c.03613.001.07226.001.1084.001a12.92346,12.92346,0,0,0,9.208-21.98828.82867.82867,0,1,1,1.18164-1.16211A14.58007,14.58007,0,0,1,82.50391,76.08008Z" style="fill: #252626"/>
      </g>
    </g>
    <g>
      <circle cx="128.46696" cy="79.50003" r="13.75229" style="fill: none"/>
      <path d="M140.97949,76.25h0a.82748.82748,0,0,1,.58985-1.00977h0a.82524.82524,0,0,1,1.01074.59961h0a.82791.82791,0,0,1-.58985,1.00977h0a.73716.73716,0,0,1-.21093.02051h0A.82161.82161,0,0,1,140.97949,76.25ZM139.71,73.12988A.839.839,0,0,1,140.01953,72h0a.82105.82105,0,0,1,1.12988.30957h0a.8225.8225,0,0,1-.30957,1.12988h0a.85987.85987,0,0,1-.40039.11035h0A.84715.84715,0,0,1,139.71,73.12988Zm-2.03027-2.69043a.83519.83519,0,0,1,.00976-1.17968h0a.82342.82342,0,0,1,1.16993.00976h0a.82341.82341,0,0,1-.00977,1.16992h0a.81779.81779,0,0,1-.58008.24024h0A.84019.84019,0,0,1,137.67969,70.43945Zm-2.66016-2.08007a.829.829,0,0,1-.29-1.12989h0a.82382.82382,0,0,1,1.12989-.2998h0a.83238.83238,0,0,1,.30078,1.13965h0a.84491.84491,0,0,1-.72071.40039h0A.80092.80092,0,0,1,135.01953,68.35938ZM131.91992,67.04h0a.8325.8325,0,0,1-.58008-1.02051h0a.83269.83269,0,0,1,1.01954-.58008h0a.83694.83694,0,0,1,.58007,1.02051h0a.82963.82963,0,0,1-.7998.60938h0A.8497.8497,0,0,1,131.91992,67.04Z" style="fill: #1f86cc"/>
      <g>
        <path d="M128.579,65.7482a13.75228,13.75228,0,1,0,13.64026,13.8634" style="fill: #e5e5e5"/>
        <path d="M128.46875,94.08105c-.04,0-.08008,0-.12012-.001a14.58081,14.58081,0,0,1,.11719-29.16113c.04,0,.08008,0,.12012.001a.82814.82814,0,0,1-.00684,1.65625.731.731,0,0,0-.11328,0A12.924,12.924,0,1,0,141.3916,79.60449a.82838.82838,0,0,1,.82813-.82129h.00683a.828.828,0,0,1,.82129.835A14.60018,14.60018,0,0,1,128.46875,94.08105Z" style="fill: #252626"/>
      </g>
    </g>
    <g>
      <circle cx="146.49984" cy="125.49987" r="13.75229" style="fill: none"/>
      <path d="M157.93945,133.18945a.8372.8372,0,0,1-.2998-1.13965h.00976a.8294.8294,0,0,1,1.12989-.29h0a.82766.82766,0,0,1,.29,1.12988h0a.826.826,0,0,1-.71.41015h0A.87479.87479,0,0,1,157.93945,133.18945ZM159.54,129.96a.81743.81743,0,0,1-.58008-1.02051h0v.01075h0a.81959.81959,0,0,1,1.01953-.58008h0a.82122.82122,0,0,1,.58008,1.00976v.00977a.842.842,0,0,1-.7998.60058h0A.79127.79127,0,0,1,159.54,129.96Zm.70019-3.52051a.83384.83384,0,0,1-.82031-.83984h0a.83377.83377,0,0,1,.83985-.81934h0a.83449.83449,0,0,1,.82031.83985h0a.83939.83939,0,0,1-.83008.81933h-.00977ZM159.00977,122.25a.81893.81893,0,0,1,.59961-1h0a.81224.81224,0,0,1,1,.58984h0a.8223.8223,0,0,1-.58985,1.00977h0a.73765.73765,0,0,1-.21.03027h0A.82885.82885,0,0,1,159.00977,122.25ZM157.75,119.12988A.82334.82334,0,0,1,158.05957,118h0a.82334.82334,0,0,1,1.12988.30957h0a.83815.83815,0,0,1-.30957,1.12988h0a.86665.86665,0,0,1-.41015.11035h0A.819.819,0,0,1,157.75,119.12988Z" style="fill: #ff4257"/>
      <g>
        <path d="M156.30307,115.85507a13.75229,13.75229,0,1,0-.15778,19.448" style="fill: #e5e5e5"/>
        <path d="M146.50293,140.08105c-.04,0-.08008,0-.12109-.001a14.58056,14.58056,0,1,1,10.51171-24.80567.82867.82867,0,1,1-1.18164,1.16211,12.83471,12.83471,0,0,0-9.10742-3.85937c-.03515-.001-.07226-.001-.10742-.001a12.924,12.924,0,0,0-.10156,25.84766h.10742a12.83658,12.83658,0,0,0,9.06152-3.71192.82867.82867,0,1,1,1.16211,1.18164A14.48411,14.48411,0,0,1,146.50293,140.08105Z" style="fill: #252626"/>
      </g>
    </g>
    <g>
      <circle cx="128.5" cy="171.4998" r="13.75229" style="fill: none"/>
      <path d="M131.14941,185.01953a.8382.8382,0,0,1,.60059-1.00976h0a.83441.83441,0,0,1,1.00977.59961h0a.84284.84284,0,0,1-.59961,1.01074h0a1.55428,1.55428,0,0,1-.2002.01953h0A.833.833,0,0,1,131.14941,185.01953Zm3.41016-1.14941a.82077.82077,0,0,1,.31055-1.12012h0A.82151.82151,0,0,1,136,183.05957h0a.82365.82365,0,0,1-.31055,1.12988h0a.85219.85219,0,0,1-.41015.10059h0A.82125.82125,0,0,1,134.55957,183.87012Zm3-1.99024a.8243.8243,0,0,1,0-1.16992h0a.82341.82341,0,0,1,1.16992.00977h0a.81488.81488,0,0,1-.00976,1.16992h0a.79578.79578,0,0,1-.57032.24023h0A.7949.7949,0,0,1,137.55957,181.87988Zm2.37012-2.69043a.82894.82894,0,0,1-.29-1.12988h0a.8238.8238,0,0,1,1.12988-.2998h0a.83347.83347,0,0,1,.29981,1.13964h0a.83029.83029,0,0,1-.71973.40039h0A.80083.80083,0,0,1,139.92969,179.18945Zm1.61035-3.21972a.82425.82425,0,0,1-.58008-1.01953h0a.8319.8319,0,0,1,1.01953-.58008h0a.83634.83634,0,0,1,.58008,1.01953h0a.83918.83918,0,0,1-.7998.61035h0A.75672.75672,0,0,1,141.54,175.96973Z" style="fill: #e57fc6"/>
      <g>
        <path d="M142.25183,171.61183a13.75228,13.75228,0,1,0-13.8634,13.64027" style="fill: #e5e5e5"/>
        <path d="M128.38867,186.08008h-.00683a14.5808,14.5808,0,0,1,.11523-29.16113c.04,0,.08008,0,.12109.001a14.59721,14.59721,0,0,1,14.46192,14.69922.82838.82838,0,0,1-.82813.82129h-.00683a.828.828,0,0,1-.82129-.835,12.94,12.94,0,0,0-12.81934-13.0293h-.10644a12.924,12.924,0,0,0-.10254,25.84766.82814.82814,0,0,1-.00684,1.65625Z" style="fill: #252626"/>
      </g>
    </g>
    <g>
      <circle cx="36.42017" cy="171.4998" r="13.75229" style="fill: none"/>
      <path d="M32.51953,185.55957A.83067.83067,0,0,1,31.9502,184.54h0a.81916.81916,0,0,1,1.01953-.58008h0a.81852.81852,0,0,1,.57031,1.01953h0a.82627.82627,0,0,1-.79981.60059h0A1.85514,1.85514,0,0,1,32.51953,185.55957Zm-3.5-1.49023a.83822.83822,0,0,1-.29-1.13965h0a.8294.8294,0,0,1,1.12989-.29h0a.82327.82327,0,0,1,.30078,1.12988h0a.833.833,0,0,1-.72071.41016h0A.80092.80092,0,0,1,29.01953,184.06934Zm-3-2.33985a.85552.85552,0,0,1,.00977-1.17969h0a.84634.84634,0,0,1,1.18066.00977h0a.84735.84735,0,0,1-.00976,1.18066h0a.88068.88068,0,0,1-.59082.2295h0A.85738.85738,0,0,1,26.01953,181.72949Zm-2.29-3.04h0a.83585.83585,0,0,1,.32031-1.12988h0a.821.821,0,0,1,1.12012.31055h0A.82159.82159,0,0,1,24.85938,179h0a.86645.86645,0,0,1-.39942.10938h0A.84663.84663,0,0,1,23.72949,178.68945Zm-1.42969-3.52929h0a.835.835,0,0,1,.59961-1.01075h0a.83559.83559,0,0,1,1.01075.60059h0a.84291.84291,0,0,1-.60059,1.00977h0a1.53136,1.53136,0,0,1-.20019.0205h0A.84312.84312,0,0,1,22.2998,175.16016Z" style="fill: #e57fc6"/>
      <g>
        <path d="M36.30814,185.25163a13.75228,13.75228,0,1,0-13.64026-13.8634" style="fill: #e5e5e5"/>
        <path d="M36.42285,186.08105c-.04,0-.08008,0-.12109-.001a.82814.82814,0,0,1,.00683-1.65625.31529.31529,0,0,1,.11329,0,12.924,12.924,0,0,0,.10253-25.84766H36.417a12.923,12.923,0,0,0-12.9209,12.81934.82836.82836,0,0,1-.82812.82129h-.00684a.828.828,0,0,1-.82129-.835A14.58009,14.58009,0,0,1,36.417,156.919c.04,0,.08008,0,.1211.001a14.5808,14.5808,0,0,1-.11524,29.16113Z" style="fill: #252626"/>
      </g>
    </g>
    <g>
      <circle cx="18.50016" cy="125.5002" r="13.75229" style="fill: none"/>
      <path d="M5.80957,132.68945a.83544.83544,0,0,1,.31055-1.13965h0a.83585.83585,0,0,1,1.12988.32032h0A.82411.82411,0,0,1,6.93945,133h0a.87385.87385,0,0,1-.41015.10938h0A.83955.83955,0,0,1,5.80957,132.68945Zm-1.42969-3.52929a.82525.82525,0,0,1,.59961-1.01075h0a.81356.81356,0,0,1,1,.59082h0A.81879.81879,0,0,1,5.38965,129.75h0a.77953.77953,0,0,1-.21.03027h0A.83091.83091,0,0,1,4.37988,129.16016Zm.36035-2.9502a.81322.81322,0,0,1-.82031-.83008h0a.826.826,0,0,1,.83008-.82031h0a.81836.81836,0,0,1,.81934.83008h0A.81689.81689,0,0,1,4.75,126.21H4.74023Zm.2793-3.58008a.83327.83327,0,0,1-.58008-1.0205h0A.83269.83269,0,0,1,5.46,121.03027h0A.83179.83179,0,0,1,6.04,122.0498h0a.83225.83225,0,0,1-.79981.61036h0A.85849.85849,0,0,1,5.01953,122.62988Zm1.2002-3.38965a.82088.82088,0,0,1-.29-1.13085h0a.8238.8238,0,0,1,1.12988-.29981h0a.823.823,0,0,1,.29,1.14063h.00977a.85308.85308,0,0,1-.71973.40918h0A.82067.82067,0,0,1,6.21973,119.24023Z" style="fill: #ff4257"/>
      <g>
        <path d="M8.69693,135.145a13.75228,13.75228,0,1,0,.15778-19.448" style="fill: #e5e5e5"/>
        <path d="M18.50391,140.08008h-.12207a14.488,14.488,0,0,1-10.27539-4.35449.82867.82867,0,1,1,1.18164-1.16211,12.83471,12.83471,0,0,0,9.10742,3.85937c.03515.001.07226.001.10742.001a12.924,12.924,0,0,0,.10156-25.84766h-.10742a12.83658,12.83658,0,0,0-9.06152,3.71192.82867.82867,0,1,1-1.16211-1.18164,14.48411,14.48411,0,0,1,10.22363-4.1875c.04,0,.08008,0,.12109.001a14.58032,14.58032,0,0,1-.11425,29.16016Z" style="fill: #252626"/>
      </g>
    </g>
    <g>
      <circle cx="36.5" cy="79.50026" r="13.75229" style="fill: none"/>
      <path d="M23.01953,76.62012a.82887.82887,0,0,1-.58008-1.02051h0A.81855.81855,0,0,1,23.46,75.03027h0A.82739.82739,0,0,1,24.04,76.0498h0a.82538.82538,0,0,1-.79981.59961h0A.59938.59938,0,0,1,23.01953,76.62012Zm1.2002-3.37989a.84188.84188,0,0,1-.29-1.14062h0a.82939.82939,0,0,1,1.12988-.29h0a.82213.82213,0,0,1,.29981,1.12988h0a.819.819,0,0,1-.71973.41016h0A.94714.94714,0,0,1,24.21973,73.24023Zm2.04-2.96a.83437.83437,0,0,1,.00976-1.17089h0a.83816.83816,0,0,1,1.18067,0h0A.84643.84643,0,0,1,27.43945,70.29h0a.83938.83938,0,0,1-.58007.22949h0A.86638.86638,0,0,1,26.25977,70.28027ZM29,67.93945a.8238.8238,0,0,1,.30957-1.12988h0a.841.841,0,0,1,1.12988.31055h0A.8384.8384,0,0,1,30.12988,68.25h0a.76648.76648,0,0,1-.41015.10938h0A.817.817,0,0,1,29,67.93945Zm3.24023-1.5498a.83365.83365,0,0,1,.59961-1.00977v.00977a.82836.82836,0,0,1,1.00977.58984h0A.84283.84283,0,0,1,33.25,66.99023h0a.76894.76894,0,0,1-.2002.0293h0A.84.84,0,0,1,32.24023,66.38965Z" style="fill: #1f86cc"/>
      <g>
        <path d="M22.74817,79.38823A13.75228,13.75228,0,1,0,36.61157,65.748" style="fill: #e5e5e5"/>
        <path d="M36.50293,94.08105c-.04,0-.08008,0-.12109-.001A14.57926,14.57926,0,0,1,21.91992,79.38184a.82838.82838,0,0,1,.82813-.82129h.00683a.828.828,0,0,1,.82129.835A12.93921,12.93921,0,0,0,36.39551,92.42383H36.502a12.924,12.924,0,0,0,.10254-25.84766.82814.82814,0,0,1,.00684-1.65625h.00683a14.5808,14.5808,0,0,1-.11523,29.16113Z" style="fill: #252626"/>
      </g>
    </g>
  </g>
  <g>
    <path d="M81.66992,111.50977a.82609.82609,0,0,1,.82031-.83008h0a.8273.8273,0,0,1,.82911.83008h0a.8273.8273,0,0,1-.82911.83007h0A.82609.82609,0,0,1,81.66992,111.50977Zm0-3.5a.82609.82609,0,0,1,.82031-.83008h0a.8273.8273,0,0,1,.82911.83008h0a.8273.8273,0,0,1-.82911.83007h0A.82609.82609,0,0,1,81.66992,108.00977Zm0-3.5a.82814.82814,0,0,1,.83008-.83008h0a.82527.82527,0,0,1,.81934.83008h0a.83357.83357,0,0,1-.82911.83007h0A.83243.83243,0,0,1,81.66992,104.50977Z" style="fill: #252626"/>
    <path d="M67.66016,125.50977a.8344.8344,0,0,1,.83007-.83008h0a.8273.8273,0,0,1,.82911.83008h0a.8273.8273,0,0,1-.82911.83007h0A.8344.8344,0,0,1,67.66016,125.50977Zm-3.49024,0A.82814.82814,0,0,1,65,124.67969h0a.82527.82527,0,0,1,.81934.83008h0a.8273.8273,0,0,1-.82911.83007h0A.82609.82609,0,0,1,64.16992,125.50977Zm-3.5,0a.82814.82814,0,0,1,.83008-.83008h0a.81907.81907,0,0,1,.81934.83008h0a.82526.82526,0,0,1-.81934.83007h0A.82813.82813,0,0,1,60.66992,125.50977Z" style="fill: #252626"/>
    <path d="M99.16992,125.50977a.82609.82609,0,0,1,.82031-.83008h0a.8273.8273,0,0,1,.82911.83008h0a.8273.8273,0,0,1-.82911.83007h0A.82609.82609,0,0,1,99.16992,125.50977Zm-3.5,0a.81927.81927,0,0,1,.82031-.83008h0a.8273.8273,0,0,1,.82911.83008h0a.82526.82526,0,0,1-.81934.83007h0A.82813.82813,0,0,1,95.66992,125.50977Zm7,0a.82814.82814,0,0,1,.83008-.83008h0a.82527.82527,0,0,1,.81934.83008h0a.82526.82526,0,0,1-.81934.83007h0A.82813.82813,0,0,1,102.66992,125.50977Z" style="fill: #252626"/>
    <path d="M66.91016,141.08984a.83228.83228,0,0,1,0-1.16992h0a.8323.8323,0,0,1,1.16992,0h0a.81488.81488,0,0,1,0,1.16992h0a.78918.78918,0,0,1-.58008.25h0A.83.83,0,0,1,66.91016,141.08984Zm2.5-2.49023a.84422.84422,0,0,1,0-1.17969h0a.8323.8323,0,0,1,1.16992,0h0a.82647.82647,0,0,1,0,1.17969h0a.82364.82364,0,0,1-.58985.24023h0A.81445.81445,0,0,1,69.41016,138.59961Zm2.5-2.5a.81486.81486,0,0,1,0-1.16992h0a.81488.81488,0,0,1,1.16992,0h0a.8341.8341,0,0,1,0,1.16992h0a.82364.82364,0,0,1-.58985.24023h0A.81445.81445,0,0,1,71.91016,136.09961Z" style="fill: #252626"/>
    <path d="M91.91016,116.09961a.83226.83226,0,0,1,0-1.16992h0a.81488.81488,0,0,1,1.16992,0h0a.8341.8341,0,0,1,0,1.16992h0a.8402.8402,0,0,1-.58985.24023h0A.81445.81445,0,0,1,91.91016,116.09961Zm2.5-2.5a.84422.84422,0,0,1,0-1.17969h0a.8323.8323,0,0,1,1.16992,0h0a.8461.8461,0,0,1,0,1.17969h0a.82364.82364,0,0,1-.58985.24023h0A.81445.81445,0,0,1,94.41016,113.59961Zm2.5-2.5a.84422.84422,0,0,1,0-1.17969h0a.8323.8323,0,0,1,1.16992,0h0a.8341.8341,0,0,1,0,1.16992h0a.82834.82834,0,0,1-.58008.25h0A.82037.82037,0,0,1,96.91016,111.09961Z" style="fill: #252626"/>
    <path d="M96.91016,141.08984a.83226.83226,0,0,1,0-1.16992h0a.8323.8323,0,0,1,1.16992,0h0a.81488.81488,0,0,1,0,1.16992h0a.83336.83336,0,0,1-.58985.25h0A.78607.78607,0,0,1,96.91016,141.08984Zm-2.5-2.49023a.82647.82647,0,0,1,0-1.17969h0a.8323.8323,0,0,1,1.16992,0h0a.8341.8341,0,0,1,0,1.16992h0a.79487.79487,0,0,1-.58985.25h0A.81445.81445,0,0,1,94.41016,138.59961Zm-2.5-2.5a.81486.81486,0,0,1,0-1.16992h0a.82349.82349,0,0,1,1.16992-.00977h0a.8461.8461,0,0,1,0,1.17969h0a.82364.82364,0,0,1-.58985.24023h0A.81445.81445,0,0,1,91.91016,136.09961Z" style="fill: #252626"/>
    <path d="M71.91016,116.09961a.81486.81486,0,0,1,0-1.16992h0a.81488.81488,0,0,1,1.16992,0h0a.8341.8341,0,0,1,0,1.16992h0a.8402.8402,0,0,1-.58985.24023h0A.81445.81445,0,0,1,71.91016,116.09961Zm-2.5-2.5a.84422.84422,0,0,1,0-1.17969h0a.8323.8323,0,0,1,1.16992,0h0a.82647.82647,0,0,1,0,1.17969h0a.82364.82364,0,0,1-.58985.24023h0A.81445.81445,0,0,1,69.41016,113.59961Zm-2.5-2.50977a.83228.83228,0,0,1,0-1.16992h0a.8323.8323,0,0,1,1.16992,0h0a.81488.81488,0,0,1,0,1.16992h0a.79487.79487,0,0,1-.58985.25h0A.78607.78607,0,0,1,66.91016,111.08984Z" style="fill: #252626"/>
  </g>
  <g>
    <path d="M82.5,319.32813a.8273.8273,0,0,1-.82812-.82813v-29a.82813.82813,0,0,1,1.65625,0v29A.8273.8273,0,0,1,82.5,319.32813Z" style="fill: #252626"/>
    <path d="M47.5,255.32813h-29a.82813.82813,0,0,1,0-1.65625h29a.82813.82813,0,1,1,0,1.65625Z" style="fill: #252626"/>
    <path d="M146.5,255.32813h-29a.82813.82813,0,0,1,0-1.65625h29a.82813.82813,0,1,1,0,1.65625Z" style="fill: #252626"/>
    <path d="M57.5,230.32813a.82583.82583,0,0,1-.585-.24122l-21.08008-21a.82864.82864,0,1,1,1.16992-1.17382l21.08008,21a.82813.82813,0,0,1-.585,1.415Z" style="fill: #252626"/>
    <path d="M128.4668,301.32813a.82437.82437,0,0,1-.58594-.24317l-20.9668-21a.828.828,0,1,1,1.17188-1.16992l20.96679,21a.82813.82813,0,0,1-.58593,1.41309Z" style="fill: #252626"/>
    <path d="M107.5,230.32813a.82813.82813,0,0,1-.58594-1.41407l21-21a.82864.82864,0,0,1,1.17188,1.17188l-21,21A.82913.82913,0,0,1,107.5,230.32813Z" style="fill: #252626"/>
    <path d="M36.5,301.32813a.82813.82813,0,0,1-.58594-1.41407l21-21a.82864.82864,0,1,1,1.17188,1.17188l-21,21A.82913.82913,0,0,1,36.5,301.32813Z" style="fill: #252626"/>
  </g>
  <g>
    <g>
      <circle cx="82.49984" cy="318.49989" r="13.75229" style="fill: none"/>
      <path d="M81.7793,332.25977a.8365.8365,0,0,1,.83008-.83985h0a.83892.83892,0,0,1,.83007.82031h0a.8344.8344,0,0,1-.81933.83985h-.01074A.84024.84024,0,0,1,81.7793,332.25977Zm-2.93946.36035a.82816.82816,0,0,1-.58984-1.01074h0a.82453.82453,0,0,1,1.00977-.59961h0a.83537.83537,0,0,1,.58984,1.00976h0a.82.82,0,0,1-.79981.62012h0A1.52711,1.52711,0,0,1,78.83984,332.62012Zm6.53028-.64063A.81274.81274,0,0,1,85.9502,330.96h0a.83634.83634,0,0,1,1.01953.58008h0a.82166.82166,0,0,1-.58008,1.00976h0a.9117.9117,0,0,1-.21973.03028h0A.82455.82455,0,0,1,85.37012,331.97949Zm-10.06055-.79A.82334.82334,0,0,1,75,330.05957h0a.82334.82334,0,0,1,1.12988-.30957h0a.821.821,0,0,1,.30957,1.12988h0a.819.819,0,0,1-.71972.41992h0A.86668.86668,0,0,1,75.30957,331.18945Zm13.4502-.40918a.83008.83008,0,0,1,.29-1.14062h0a.8236.8236,0,0,1,1.12989.2998h0a.81956.81956,0,0,1-.29,1.12989h0a.8127.8127,0,0,1-.41992.12011h0A.8262.8262,0,0,1,88.75977,330.78027Z" style="fill: #a3a3a3"/>
      <g>
        <path d="M72.855,328.30312a13.75229,13.75229,0,1,1,19.448-.15778" style="fill: #e5e5e5"/>
        <path d="M72.85547,329.13086a.82692.82692,0,0,1-.58106-.23731,14.58056,14.58056,0,0,1,10.10743-24.97363h.12207a14.58076,14.58076,0,0,1,10.38964,24.80664.82867.82867,0,1,1-1.18164-1.16211,12.92383,12.92383,0,0,0-9.208-21.98828c-.03614,0-.07227,0-.1084.001a12.92307,12.92307,0,0,0-8.959,22.13476.82813.82813,0,0,1-.58105,1.41895Z" style="fill: #252626"/>
      </g>
    </g>
    <g>
      <circle cx="128.46696" cy="300.50005" r="13.75229" style="fill: none"/>
      <path d="M131.33984,313.97949a.82751.82751,0,0,1,.58008-1.01953h0a.81851.81851,0,0,1,1.01953.57031h0a.8275.8275,0,0,1-.58007,1.01953h0a.84507.84507,0,0,1-.21973.03028h0A.82456.82456,0,0,1,131.33984,313.97949Zm3.38965-1.19922a.83093.83093,0,0,1,.29-1.14062h0a.8419.8419,0,0,1,1.14063.29h0a.83419.83419,0,0,1-.30078,1.13965h0a.7758.7758,0,0,1-.41993.11035h0A.818.818,0,0,1,134.72949,312.78027Zm2.96-2.04a.83644.83644,0,0,1-.00976-1.18066h0a.83319.83319,0,0,1,1.16992-.00977h0a.83519.83519,0,0,1,.00977,1.17969h0a.83854.83854,0,0,1-.58985.24024h0A.85428.85428,0,0,1,137.68945,310.74023ZM140.01953,308a.842.842,0,0,1-.30957-1.12988h0a.82365.82365,0,0,1,1.12988-.31055h0a.823.823,0,0,1,.30957,1.12988h0a.817.817,0,0,1-.71972.41993h0A.87689.87689,0,0,1,140.01953,308Zm1.54981-3.24023a.82837.82837,0,0,1-.58985-1.00977h0a.83877.83877,0,0,1,1.01074-.60059h0a.84283.84283,0,0,1,.59961,1.01075h0a.84108.84108,0,0,1-.81054.62988h0A.748.748,0,0,1,141.56934,304.75977Z" style="fill: #1f86cc"/>
      <g>
        <path d="M128.579,314.25189a13.75229,13.75229,0,1,1,13.64026-13.8634" style="fill: #e5e5e5"/>
        <path d="M128.46484,315.08105a14.58081,14.58081,0,0,1-.11621-29.16113c.04-.001.08008-.001.12012-.001a14.59828,14.59828,0,0,1,14.5791,14.46289.828.828,0,0,1-.82129.835h-.00683a.82838.82838,0,0,1-.82813-.82129,12.9407,12.9407,0,0,0-12.92285-12.81934h-.10645a12.924,12.924,0,0,0,.10254,25.84766c.03809,0,.07129.001.11426,0a.82814.82814,0,0,1,.00684,1.65625C128.54492,315.08105,128.50488,315.08105,128.46484,315.08105Z" style="fill: #252626"/>
      </g>
    </g>
    <g>
      <circle cx="146.49984" cy="254.50022" r="13.75229" style="fill: none"/>
      <path d="M158.05957,262a.8238.8238,0,0,1-.30957-1.12988h0a.82136.82136,0,0,1,1.12988-.31055h0a.83865.83865,0,0,1,.30957,1.12988h0a.8493.8493,0,0,1-.71972.41993h0A.87689.87689,0,0,1,158.05957,262Zm1.54981-3.25a.8224.8224,0,0,1-.59961-1.00977h0a.8245.8245,0,0,1,1.00976-.59082h0a.81939.81939,0,0,1,.58985,1.01075h0a.81971.81971,0,0,1-.79.62011h0A.785.785,0,0,1,159.60938,258.75Zm-.18946-4.35059a.82764.82764,0,0,1,.82031-.83984h0a.83511.83511,0,0,1,.83985.82031h0a.84285.84285,0,0,1-.83008.83985h0A.8261.8261,0,0,1,159.41992,254.39941Zm-.46-3.34961a.816.816,0,0,1,.58008-1.01953h0a.83655.83655,0,0,1,1.01953.57911h0a.83248.83248,0,0,1-.58008,1.0205h0a.926.926,0,0,1-.22949.03028h0A.81922.81922,0,0,1,158.96,251.0498Zm-1.32031-3.0996h.00976a.82679.82679,0,0,1,.29-1.14063h0a.82337.82337,0,0,1,1.12989.29981h0a.82006.82006,0,0,1-.29,1.13085h0a.8181.8181,0,0,1-.41992.11915h0A.84207.84207,0,0,1,157.63965,247.9502Z" style="fill: #ff4257"/>
      <g>
        <path d="M156.30307,264.145a13.75228,13.75228,0,1,1-.15778-19.448" style="fill: #e5e5e5"/>
        <path d="M146.49609,269.08008a14.58032,14.58032,0,0,1-.11425-29.16016c.04-.001.081-.001.12109-.001a14.48579,14.48579,0,0,1,10.22363,4.1875.82867.82867,0,1,1-1.16211,1.18164,12.92342,12.92342,0,1,0-9.06738,22.13574c.03613,0,.07129,0,.10742-.001a12.83471,12.83471,0,0,0,9.10742-3.85937.82867.82867,0,1,1,1.18164,1.16211,14.488,14.488,0,0,1-10.27539,4.35449Z" style="fill: #252626"/>
      </g>
    </g>
    <g>
      <circle cx="128.5" cy="208.50029" r="13.75229" style="fill: none"/>
      <path d="M140.96,205.0498a.81786.81786,0,0,1,.56934-1.01953h0a.81276.81276,0,0,1,1.0205.57911h0v-.00977h0a.83357.83357,0,0,1-.57031,1.03027h0a.87473.87473,0,0,1-.21972.01953h0A.82368.82368,0,0,1,140.96,205.0498Zm-1.32031-3.11035a.82939.82939,0,0,1,.29-1.12988h0a.8405.8405,0,0,1,1.13965.29h0a.83439.83439,0,0,1-.29981,1.14062h0a.77293.77293,0,0,1-.41015.10938h0A.82007.82007,0,0,1,139.63965,201.93945ZM137.55957,199.29a.84642.84642,0,0,1-.00977-1.18066h0a.837.837,0,0,1,1.17969,0h0a.83438.83438,0,0,1,.01074,1.17089h0a.8704.8704,0,0,1-.60058.23926h0A.8068.8068,0,0,1,137.55957,199.29Zm-2.68945-2.04a.82159.82159,0,0,1-.31055-1.12988h0a.84144.84144,0,0,1,1.12988-.31055h0A.82411.82411,0,0,1,136,196.93945h0a.81968.81968,0,0,1-.7207.41993h0A.76322.76322,0,0,1,134.87012,197.25ZM131.75,195.99023a.84345.84345,0,0,1-.60059-1.01074h0a.835.835,0,0,1,1.01075-.59961h0v.00977h0a.82738.82738,0,0,1,.59961,1h0a.83191.83191,0,0,1-.80957.62012h0A.72772.72772,0,0,1,131.75,195.99023Z" style="fill: #e57fc6"/>
      <g>
        <path d="M142.25183,208.38826a13.75228,13.75228,0,1,1-13.8634-13.64027" style="fill: #e5e5e5"/>
        <path d="M128.49707,223.08105a14.5808,14.5808,0,0,1-.11523-29.16113.80479.80479,0,0,1,.835.82129.828.828,0,0,1-.82129.835,12.924,12.924,0,0,0,.10254,25.84766h.10644a12.93921,12.93921,0,0,0,12.81934-13.02832.828.828,0,0,1,.82129-.835h.00683a.82838.82838,0,0,1,.82813.82129,14.57926,14.57926,0,0,1-14.46192,14.69824C128.57715,223.08105,128.53711,223.08105,128.49707,223.08105Z" style="fill: #252626"/>
      </g>
    </g>
    <g>
      <circle cx="36.42017" cy="208.50029" r="13.75229" style="fill: none"/>
      <path d="M22.89941,205.84961a.834.834,0,0,1-.59961-1.00977h.00977a.81908.81908,0,0,1,1-.59961h0a.83412.83412,0,0,1,.60059,1.00977h0a.83021.83021,0,0,1-.80078.62012h0A.73394.73394,0,0,1,22.89941,205.84961ZM24.04,202.43945a.841.841,0,0,1-.31055-1.12988h0A.82381.82381,0,0,1,24.85938,201h0a.82135.82135,0,0,1,.31054,1.12988h0a.82012.82012,0,0,1-.71972.41992h0A.8637.8637,0,0,1,24.04,202.43945Zm1.98926-3a.82515.82515,0,0,1,0-1.16992h0a.83438.83438,0,0,1,1.1709-.00976h0a.84606.84606,0,0,1,.00976,1.17968h0a.85737.85737,0,0,1-.58984.24024h0A.86143.86143,0,0,1,26.0293,199.43945Zm2.70019-2.37011a.83867.83867,0,0,1,.29-1.13965h0a.83612.83612,0,0,1,1.14063.2998h0a.83119.83119,0,0,1-.29,1.12989h0a.82747.82747,0,0,1-.41992.11035h0A.83308.83308,0,0,1,28.72949,197.06934ZM31.9502,195.46a.81442.81442,0,0,1,.56933-1.00976h0a.81439.81439,0,0,1,1.02051.56933h0a.81912.81912,0,0,1-.57031,1.02051h0a.9304.9304,0,0,1-.2295.0293h0A.8183.8183,0,0,1,31.9502,195.46Z" style="fill: #e57fc6"/>
      <g>
        <path d="M36.30814,194.74845a13.75229,13.75229,0,1,1-13.64026,13.8634" style="fill: #e5e5e5"/>
        <path d="M36.417,223.08105a14.5801,14.5801,0,0,1-14.57715-14.46191.828.828,0,0,1,.82129-.835H22.668a.82836.82836,0,0,1,.82812.82129A12.939,12.939,0,0,0,36.418,221.42383h.10644a12.924,12.924,0,0,0-.10253-25.84766.54923.54923,0,0,1-.11329,0,.82814.82814,0,0,1-.00683-1.65625c.041-.001.081-.001.12109-.001a14.5808,14.5808,0,0,1,.11524,29.16113C36.49707,223.08105,36.457,223.08105,36.417,223.08105Z" style="fill: #252626"/>
      </g>
    </g>
    <g>
      <circle cx="18.50016" cy="254.49989" r="13.75229" style="fill: none"/>
      <path d="M5.92969,261.88965h0a.82939.82939,0,0,1,.29-1.12988h0a.82916.82916,0,0,1,1.12988.29h.00977a.833.833,0,0,1-.29981,1.13965h0a.90441.90441,0,0,1-.41992.11035h0A.82719.82719,0,0,1,5.92969,261.88965Zm-1.49024-3.5a.82783.82783,0,0,1,.58008-1.01953h0A.82484.82484,0,0,1,6.04,257.9502v-.01075A.82886.82886,0,0,1,5.46,258.96h0a.85694.85694,0,0,1-.21973.03027h0A.83523.83523,0,0,1,4.43945,258.38965Zm-.51953-3.76953a.82751.82751,0,0,1,.82031-.83985h0a.82648.82648,0,0,1,.82911.82911h0a.81836.81836,0,0,1-.81934.83007h0A.8259.8259,0,0,1,3.91992,254.62012Zm1.04981-2.77051a.8223.8223,0,0,1-.58985-1.00977h0A.82317.82317,0,0,1,5.38965,250.25h0a.81793.81793,0,0,1,.58984,1.00977h0a.82246.82246,0,0,1-.7998.62011h0A.74263.74263,0,0,1,4.96973,251.84961Zm1.15039-3.41016a.82136.82136,0,0,1-.31055-1.12988h0A.83929.83929,0,0,1,6.93945,247h0A.841.841,0,0,1,7.25,248.12988h0a.84872.84872,0,0,1-.73047.41992h0A.75491.75491,0,0,1,6.12012,248.43945Z" style="fill: #ff4257"/>
      <g>
        <path d="M8.69693,244.85509a13.75229,13.75229,0,1,1,.15778,19.448" style="fill: #e5e5e5"/>
        <path d="M18.49707,269.08105a14.48579,14.48579,0,0,1-10.22363-4.1875.82867.82867,0,1,1,1.16211-1.18164,12.92342,12.92342,0,1,0,9.06738-22.13574c-.03613,0-.07129,0-.10742.001a12.83471,12.83471,0,0,0-9.10742,3.85937.82867.82867,0,1,1-1.18164-1.16211,14.488,14.488,0,0,1,10.27539-4.35449h.12207a14.58032,14.58032,0,0,1,.11425,29.16016C18.57813,269.08105,18.53711,269.08105,18.49707,269.08105Z" style="fill: #252626"/>
      </g>
    </g>
    <g>
      <circle cx="36.5" cy="300.49982" r="13.75229" style="fill: none"/>
      <path d="M32.83984,314.62012h0a.83421.83421,0,0,1-.59961-1.01074h0a.84133.84133,0,0,1,1.00977-.59961h0a.83362.83362,0,0,1,.59961,1.00976h0a.82825.82825,0,0,1-.79981.62012h0A1.52711,1.52711,0,0,1,32.83984,314.62012Zm-3.53027-1.43067A.82334.82334,0,0,1,29,312.05957h0a.82105.82105,0,0,1,1.12988-.30957h0a.82908.82908,0,0,1,.30957,1.12012h0a.819.819,0,0,1-.71972.41992h0A.8549.8549,0,0,1,29.30957,313.18945Zm-3.04-2.2998a.83319.83319,0,0,1-.00976-1.16992h0a.84428.84428,0,0,1,1.17968-.00977h0a.83327.83327,0,0,1,.01075,1.16992h0a.83572.83572,0,0,1-.60059.25h0A.85228.85228,0,0,1,26.26953,310.88965Zm-2.33984-2.99024a.83866.83866,0,0,1,.29-1.13964h0a.83473.83473,0,0,1,1.13965.2998h0a.82388.82388,0,0,1-.29981,1.12988h0a.76533.76533,0,0,1-.41016.11035h0A.83144.83144,0,0,1,23.92969,307.89941Zm-1.49024-3.50976v.00976h0a.843.843,0,0,1,.58008-1.02929h0a.83249.83249,0,0,1,1.02051.58008h0a.83268.83268,0,0,1-.58008,1.01953h0A.76616.76616,0,0,1,23.24023,305h0A.83252.83252,0,0,1,22.43945,304.38965Z" style="fill: #1f86cc"/>
      <g>
        <path d="M22.74817,300.61185a13.75228,13.75228,0,1,1,13.8634,13.64027" style="fill: #e5e5e5"/>
        <path d="M36.61133,315.08008a.82814.82814,0,0,1-.00684-1.65625,12.924,12.924,0,0,0-.10254-25.84766h-.10644a12.94067,12.94067,0,0,0-12.81934,13.0293.828.828,0,0,1-.82129.835h-.00683a.82838.82838,0,0,1-.82813-.82129,14.59782,14.59782,0,0,1,14.46192-14.69922c.04-.001.08105-.001.12109-.001a14.5808,14.5808,0,0,1,.11523,29.16113Z" style="fill: #252626"/>
      </g>
    </g>
  </g>
  <g>
    <path d="M81.66992,275.49023a.82609.82609,0,0,1,.82031-.83007h0a.8273.8273,0,0,1,.82911.83007h0a.82443.82443,0,0,1-.81934.82911h0A.82731.82731,0,0,1,81.66992,275.49023Zm0-3.5a.82609.82609,0,0,1,.82031-.83007h0a.8273.8273,0,0,1,.82911.83007h0a.82648.82648,0,0,1-.82911.82911h0A.82526.82526,0,0,1,81.66992,271.99023Zm0-3.5a.82609.82609,0,0,1,.82031-.83007h0a.8273.8273,0,0,1,.82911.83007h0a.83337.83337,0,0,1-.82911.82911h0A.83224.83224,0,0,1,81.66992,268.49023Z" style="fill: #252626"/>
    <path d="M60.66992,254.49023a.82813.82813,0,0,1,.83008-.83007h0a.82526.82526,0,0,1,.81934.83007h0a.81824.81824,0,0,1-.81934.82911h0A.82731.82731,0,0,1,60.66992,254.49023Zm3.5,0a.82609.82609,0,0,1,.82031-.83007h0a.8273.8273,0,0,1,.82911.83007h0A.82443.82443,0,0,1,65,255.31934h0A.82731.82731,0,0,1,64.16992,254.49023Zm3.49024,0a.8344.8344,0,0,1,.83007-.83007h0a.8273.8273,0,0,1,.82911.83007h0a.82506.82506,0,0,1-.82911.81934h0A.82521.82521,0,0,1,67.66016,254.49023Z" style="fill: #252626"/>
    <path d="M102.66992,254.49023a.82813.82813,0,0,1,.83008-.83007h0a.82526.82526,0,0,1,.81934.83007h0a.82443.82443,0,0,1-.81934.82911h0A.82731.82731,0,0,1,102.66992,254.49023Zm-3.5,0a.82609.82609,0,0,1,.82031-.83007h0a.8273.8273,0,0,1,.82911.83007h0a.82648.82648,0,0,1-.82911.82911h0A.82526.82526,0,0,1,99.16992,254.49023Zm-3.5,0a.82813.82813,0,0,1,.83008-.83007h0a.82526.82526,0,0,1,.81934.83007h0a.82506.82506,0,0,1-.82911.81934h0A.81689.81689,0,0,1,95.66992,254.49023Z" style="fill: #252626"/>
    <path d="M71.91016,245.06934a.81489.81489,0,0,1,0-1.16993h0a.83412.83412,0,0,1,1.16992,0h0a.83413.83413,0,0,1,0,1.16993h0a.8334.8334,0,0,1-.58985.25h0A.82489.82489,0,0,1,71.91016,245.06934Zm-2.5-2.48926a.84543.84543,0,0,1,0-1.18067h0a.83412.83412,0,0,1,1.16992,0h0a.81487.81487,0,0,1,0,1.16993h0a.7913.7913,0,0,1-.58985.25h0A.81349.81349,0,0,1,69.41016,242.58008Zm-2.5-2.5a.84543.84543,0,0,1,0-1.18067h0a.83412.83412,0,0,1,1.16992,0h0a.82764.82764,0,0,1,0,1.18067h0a.8168.8168,0,0,1-.58008.23926h0A.81949.81949,0,0,1,66.91016,240.08008Z" style="fill: #252626"/>
    <path d="M96.91016,270.08008a.84543.84543,0,0,1,0-1.18067h0a.82439.82439,0,0,1,1.16992.01075h0a.83409.83409,0,0,1,0,1.16992h0a.8168.8168,0,0,1-.58008.23926h0A.81949.81949,0,0,1,96.91016,270.08008Zm-2.5-2.51074a.83227.83227,0,0,1,0-1.16993h0a.83412.83412,0,0,1,1.16992,0h0a.8473.8473,0,0,1,0,1.18067h0a.82274.82274,0,0,1-.58985.23926h0A.78248.78248,0,0,1,94.41016,267.56934Zm-2.5-2.5a.83229.83229,0,0,1,0-1.16993h0a.83412.83412,0,0,1,1.16992,0h0a.83413.83413,0,0,1,0,1.16993h0a.8334.8334,0,0,1-.58985.25h0A.82489.82489,0,0,1,91.91016,265.06934Z" style="fill: #252626"/>
    <path d="M91.91016,245.06934a.81489.81489,0,0,1,0-1.16993h0a.83412.83412,0,0,1,1.16992,0h0a.83413.83413,0,0,1,0,1.16993h0a.8334.8334,0,0,1-.58985.25h0A.82489.82489,0,0,1,91.91016,245.06934Zm2.5-2.48926a.82764.82764,0,0,1,0-1.18067h0a.83412.83412,0,0,1,1.16992,0h0a.8473.8473,0,0,1,0,1.18067h0a.82274.82274,0,0,1-.58985.23926h0A.81349.81349,0,0,1,94.41016,242.58008Zm2.5-2.51074a.83227.83227,0,0,1,0-1.16993h0a.83412.83412,0,0,1,1.16992,0h0a.82764.82764,0,0,1,0,1.18067h0a.8168.8168,0,0,1-.58008.23926h0A.78828.78828,0,0,1,96.91016,240.06934Z" style="fill: #252626"/>
    <path d="M66.91016,270.08008a.84543.84543,0,0,1,0-1.18067h0a.83412.83412,0,0,1,1.16992,0h0a.82764.82764,0,0,1,0,1.18067h0a.8168.8168,0,0,1-.58008.23926h0A.81949.81949,0,0,1,66.91016,270.08008Zm2.5-2.5a.84543.84543,0,0,1,0-1.18067h0a.83412.83412,0,0,1,1.16992,0h0a.82764.82764,0,0,1,0,1.18067h0A.8168.8168,0,0,1,70,267.81934h0A.81949.81949,0,0,1,69.41016,267.58008Zm2.5-2.51074a.81489.81489,0,0,1,0-1.16993h0a.83412.83412,0,0,1,1.16992,0h0a.83413.83413,0,0,1,0,1.16993h0a.8334.8334,0,0,1-.58985.25h0A.82489.82489,0,0,1,71.91016,265.06934Z" style="fill: #252626"/>
  </g>
  <g>
    <path d="M52.42773,7.23047h2.96a2.11284,2.11284,0,0,1,1.51757.64062,2.33831,2.33831,0,0,1,.61621,1.59082,2.74776,2.74776,0,0,1-.10937.79493,1.98536,1.98536,0,0,1,.39551.34277l-.01074-.01172a2.44831,2.44831,0,0,1,.80273,1.80078,2.63918,2.63918,0,0,1-.792,1.88965,2.73825,2.73825,0,0,1-1.92481.81738H52.42773Zm2.96,2.57324c.13183-.01074.24218-.21.24218-.3418a.38647.38647,0,0,0-.24218-.34277H54.32031v.68457Zm.49511,3.40332a.824.824,0,0,0,.8252-.81836c0-.4414-.374-.68457-.8252-.707h-1.5625V13.207Z" style="fill: #1d1d1b"/>
    <path d="M69.98438,15.0957H67.707l-2.59668-3.40234h-.17578V15.0957H63.0752V7.23047h2.87207a2.12842,2.12842,0,0,1,1.50683.62891,2.37748,2.37748,0,0,1,.627,1.60253,2.22474,2.22474,0,0,1-.94628,1.85547ZM64.93457,9.81543h1.0127c.15332,0,.26367-.19922.26367-.35352,0-.15527-.11035-.35351-.26367-.35351h-1.0127Z" style="fill: #1d1d1b"/>
    <path d="M78.50781,13.30566H76.30762l-.69336,1.79H73.58984l3.01465-7.86523h1.60645l3.02539,7.86523H79.17871ZM77.40723,10.2793l-.374,1.14843h.73731Z" style="fill: #1d1d1b"/>
    <path d="M87.39453,10.88672v4.209H85.48047V7.23047h1.749L90.03516,11.417V7.23047h1.91406V15.0957H90.21094Z" style="fill: #1d1d1b"/>
    <path d="M96.96387,7.23047h5.33593V9.1084H98.87793v.67383h2.99219v1.91113H98.87793v1.50195h3.34473V15.0957H96.96387Z" style="fill: #1d1d1b"/>
    <path d="M109.18359,15.07324a5.2895,5.2895,0,0,1-2.45312-1.33594L107.98535,12.29a3.24268,3.24268,0,0,0,1.584.92773,1.88268,1.88268,0,0,0,.418.05469,1.2931,1.2931,0,0,0,.57227-.12109.57374.57374,0,0,0,.36231-.50782c0-.30957-.57129-.49707-1.06641-.59667a7.5221,7.5221,0,0,1-1.73828-.542A2.1688,2.1688,0,0,1,106.9834,9.5498a2.301,2.301,0,0,1,.40723-1.28125,2.53911,2.53911,0,0,1,1.01269-.81738l-.01172.01074a3.16448,3.16448,0,0,1,1.34278-.29785,3.71907,3.71907,0,0,1,.583.04395,4.56337,4.56337,0,0,1,2.25489,1.16015l-1.21,1.458a2.42428,2.42428,0,0,0-1.65039-.77344,1.10561,1.10561,0,0,0-.50586.11036.45794.45794,0,0,0-.31933.38671c0,.29883.39648.44239,1.03418.57422.0664.02246.14355.02246.2207.04493a5.769,5.769,0,0,1,1.48438.4746h-.01075a2.20238,2.20238,0,0,1,1.21,2,2.32775,2.32775,0,0,1-.418,1.38086,2.70842,2.70842,0,0,1-1.04493.83887,2.85069,2.85069,0,0,1-1.38574.29883A3.68026,3.68026,0,0,1,109.18359,15.07324Z" style="fill: #1d1d1b"/>
  </g>
  <g>
    <path d="M35.26953,22.23828a1.31558,1.31558,0,0,0-1.37012-1.16308,1.84149,1.84149,0,0,0-1.69824,2.06445,1.84149,1.84149,0,0,0,1.69824,2.06445,1.44287,1.44287,0,0,0,1.40821-1.37988h.59082a1.97115,1.97115,0,0,1-1.999,1.877,2.31775,2.31775,0,0,1-2.28906-2.56152,2.31858,2.31858,0,0,1,2.28906-2.5625,1.81118,1.81118,0,0,1,1.96192,1.66113Z" style="fill: #1d1d1b"/>
    <path d="M41.0625,23.13965a2.304,2.304,0,1,1-4.5791,0,2.30409,2.30409,0,1,1,4.5791,0Zm-3.98828,0a1.73112,1.73112,0,1,0,3.39746,0,1.73112,1.73112,0,1,0-3.39746,0Z" style="fill: #1d1d1b"/>
    <path d="M41.95605,18.86035h.5918v6.7002h-.5918Z" style="fill: #1d1d1b"/>
    <path d="M43.69336,18.86035h.5918v6.7002h-.5918Z" style="fill: #1d1d1b"/>
    <path d="M45.43066,18.86035h.5918v.94727h-.5918Zm0,1.8584h.5918v4.8418h-.5918Z" style="fill: #1d1d1b"/>
    <path d="M51.419,25.56055h-.544v-.91992h-.01855a1.91906,1.91906,0,0,1-1.72657,1.06054c-1.47363,0-2.17773-1.1914-2.17773-2.56152s.7041-2.5625,2.17773-2.5625a1.72863,1.72863,0,0,1,1.67969,1.06055h.01856V18.86035H51.419Zm-2.28907-.35645c1.25684,0,1.69825-1.06055,1.69825-2.06445s-.44141-2.06445-1.69825-2.06445c-1.127,0-1.58593,1.06054-1.58593,2.06445S48.00293,25.2041,49.12988,25.2041Z" style="fill: #1d1d1b"/>
    <path d="M52.55664,18.86035h.5918v.94727h-.5918Zm0,1.8584h.5918v4.8418h-.5918Z" style="fill: #1d1d1b"/>
    <path d="M54.27539,20.71875h.59082v.835h.01953a1.64162,1.64162,0,0,1,1.54785-.97656c1.36036,0,1.77344.71387,1.77344,1.86816v3.11524h-.59082V22.53906c0-.835-.27246-1.46386-1.22949-1.46386a1.529,1.529,0,0,0-1.52051,1.66113v2.82422h-.59082Z" style="fill: #1d1d1b"/>
    <path d="M63.418,25.166c-.00879,1.44531-.5625,2.32812-2.14844,2.32812-.9668,0-1.92383-.43164-2.00879-1.46484h.5918a1.27265,1.27265,0,0,0,1.417.96679c1.08789,0,1.55762-.64746,1.55762-1.83007v-.65625h-.01856a1.67877,1.67877,0,0,1-1.53906.99414c-1.54883,0-2.18652-1.10743-2.18652-2.48633a2.21515,2.21515,0,0,1,2.18652-2.44043,1.70554,1.70554,0,0,1,1.53906.97656h.01856v-.835H63.418Zm-.59082-2.083c0-.94727-.44141-2.00781-1.55762-2.00781-1.126,0-1.5957,1.0039-1.5957,2.00781,0,.97558.50683,1.92383,1.5957,1.92383C62.292,25.00684,62.82715,24.06836,62.82715,23.083Z" style="fill: #1d1d1b"/>
    <path d="M70.05664,22.13574A1.11451,1.11451,0,0,0,68.79,21.0752c-.52637,0-1.14551.20605-1.14551.835,0,.52539.60059.71289,1.00391.8164l.78906.17871a1.418,1.418,0,0,1,1.37891,1.3418c0,1.05078-1.041,1.4541-1.94239,1.4541a1.75413,1.75413,0,0,1-1.98925-1.708h.59082a1.27669,1.27669,0,0,0,1.42675,1.21094c.55371,0,1.32325-.24414,1.32325-.91992,0-.5625-.52539-.751-1.06055-.88184l-.75977-.16894c-.76953-.207-1.35156-.46973-1.35156-1.29492,0-.98535.9668-1.36133,1.82031-1.36133a1.58687,1.58687,0,0,1,1.77344,1.55859Z" style="fill: #1d1d1b"/>
    <path d="M71.61621,22.20117c.05664-1.13574.85352-1.624,1.96094-1.624.85449,0,1.7832.26269,1.7832,1.55859V24.707a.315.315,0,0,0,.34766.35645.56.56,0,0,0,.1875-.03809v.498a1.67109,1.67109,0,0,1-.38477.03711c-.60058,0-.69433-.33789-.69433-.84473h-.01953a1.84461,1.84461,0,0,1-1.76368.98535c-.8916,0-1.624-.4414-1.624-1.417,0-1.36035,1.32324-1.40723,2.59961-1.55762.48828-.05664.76074-.12207.76074-.65722,0-.79688-.57324-.99414-1.26758-.99414-.73144,0-1.27539.33789-1.29492,1.126Zm3.15332.71289H74.75c-.07422.14063-.33691.1875-.49707.21582-1.00391.17871-2.252.16895-2.252,1.11719a1.00841,1.00841,0,0,0,1.0791.957,1.55754,1.55754,0,0,0,1.68945-1.52051Z" style="fill: #1d1d1b"/>
    <path d="M76.5459,20.71875h.54394v.81641h.02832a1.69093,1.69093,0,0,1,1.58594-.958,1.34717,1.34717,0,0,1,1.38867.94824,1.63757,1.63757,0,0,1,1.53907-.94824c1.06054,0,1.60449.55371,1.60449,1.69922v3.28418h-.59082V22.30469c0-.79785-.30078-1.22949-1.14551-1.22949-1.02246,0-1.31348.84472-1.31348,1.74511v2.74024H79.5957V22.27637c.00879-.65723-.26269-1.20117-1.01367-1.20117-1.02344,0-1.43555.76953-1.44531,1.78222v2.70313H76.5459Z" style="fill: #1d1d1b"/>
    <path d="M84.36621,20.71875h.544v.91895h.01855a1.81406,1.81406,0,0,1,1.72656-1.06055c1.47364,0,2.17774,1.19238,2.17774,2.5625s-.7041,2.56152-2.17774,2.56152a1.72773,1.72773,0,0,1-1.67968-1.06054H84.957v2.71191h-.59082Zm2.28906.35645c-1.30371,0-1.69824.96582-1.69824,2.06445,0,1.0039.44141,2.06445,1.69824,2.06445,1.126,0,1.58594-1.06055,1.58594-2.06445S87.78125,21.0752,86.65527,21.0752Z" style="fill: #1d1d1b"/>
    <path d="M89.76367,18.86035h.5918v6.7002h-.5918Z" style="fill: #1d1d1b"/>
    <path d="M91.83887,23.29883a1.71782,1.71782,0,0,0,1.5957,1.90527,1.47439,1.47439,0,0,0,1.51953-1.23926h.5918a1.97762,1.97762,0,0,1-2.11133,1.73633c-1.53906,0-2.18652-1.18262-2.18652-2.56152,0-1.27637.64746-2.5625,2.18652-2.5625,1.55762,0,2.17676,1.36133,2.12988,2.72168Zm3.13476-.49707a1.62707,1.62707,0,0,0-1.53906-1.72656,1.71831,1.71831,0,0,0-1.5957,1.72656Z" style="fill: #1d1d1b"/>
    <path d="M98.919,22.20117c.05664-1.13574.85351-1.624,1.96093-1.624.8545,0,1.78321.26269,1.78321,1.55859V24.707a.315.315,0,0,0,.34765.35645.55994.55994,0,0,0,.1875-.03809v.498a1.671,1.671,0,0,1-.38476.03711c-.60059,0-.69434-.33789-.69434-.84473h-.01953a1.8446,1.8446,0,0,1-1.76367.98535c-.8916,0-1.624-.4414-1.624-1.417,0-1.36035,1.32325-1.40723,2.59961-1.55762.48828-.05664.76075-.12207.76075-.65722,0-.79688-.57325-.99414-1.26758-.99414-.73145,0-1.27539.33789-1.29492,1.126Zm3.15332.71289h-.01954c-.07421.14063-.33691.1875-.49707.21582-1.0039.17871-2.252.16895-2.252,1.11719a1.00841,1.00841,0,0,0,1.0791.957,1.55755,1.55755,0,0,0,1.68946-1.52051Z" style="fill: #1d1d1b"/>
    <path d="M103.83887,20.71875h.59082v.835h.01953a1.64162,1.64162,0,0,1,1.54785-.97656c1.36035,0,1.77344.71387,1.77344,1.86816v3.11524h-.59082V22.53906c0-.835-.27246-1.46386-1.22949-1.46386a1.529,1.529,0,0,0-1.52051,1.66113v2.82422h-.59082Z" style="fill: #1d1d1b"/>
    <path d="M113.15039,25.56055h-.54394v-.91992h-.01856a1.91906,1.91906,0,0,1-1.72656,1.06054c-1.47363,0-2.17774-1.1914-2.17774-2.56152s.70411-2.5625,2.17774-2.5625A1.72863,1.72863,0,0,1,112.541,21.6377h.01855V18.86035h.59082Zm-2.28906-.35645c1.25683,0,1.69824-1.06055,1.69824-2.06445s-.44141-2.06445-1.69824-2.06445c-1.12695,0-1.58594,1.06054-1.58594,2.06445S109.73438,25.2041,110.86133,25.2041Z" style="fill: #1d1d1b"/>
    <path d="M116.87988,18.86035h.59082v2.69336h.01953a1.64164,1.64164,0,0,1,1.54786-.97656c1.36035,0,1.77343.71387,1.77343,1.86816v3.11524h-.59082V22.53906c0-.835-.27246-1.46386-1.22949-1.46386a1.529,1.529,0,0,0-1.52051,1.66113v2.82422h-.59082Z" style="fill: #1d1d1b"/>
    <path d="M126.2666,23.13965a2.304,2.304,0,1,1-4.5791,0,2.30409,2.30409,0,1,1,4.5791,0Zm-3.98828,0a1.73112,1.73112,0,1,0,3.39746,0,1.73112,1.73112,0,1,0-3.39746,0Z" style="fill: #1d1d1b"/>
    <path d="M127.16016,18.86035h.59179v6.7002h-.59179Z" style="fill: #1d1d1b"/>
    <path d="M133.14844,25.56055h-.54395v-.91992h-.01855a1.91906,1.91906,0,0,1-1.72656,1.06054c-1.47364,0-2.17774-1.1914-2.17774-2.56152s.7041-2.5625,2.17774-2.5625a1.72862,1.72862,0,0,1,1.67968,1.06055h.01856V18.86035h.59082Zm-2.28906-.35645c1.25683,0,1.69824-1.06055,1.69824-2.06445s-.44141-2.06445-1.69824-2.06445c-1.127,0-1.58594,1.06054-1.58594,2.06445S129.73242,25.2041,130.85938,25.2041Z" style="fill: #1d1d1b"/>
  </g>
  <g>
    <path d="M2.5,23.83008a.82033.82033,0,0,1-.83008-.82031.84652.84652,0,0,1,.24024-.58985.86332.86332,0,0,1,1.17968,0,.946.946,0,0,1,.16993.26953.71609.71609,0,0,1,.07031.32032.80968.80968,0,0,1-.06055.30957,1.24111,1.24111,0,0,1-.17969.2705A.82361.82361,0,0,1,2.5,23.83008Z"/>
    <path d="M20.9502,23.00977a.8273.8273,0,0,1,.8291-.83008h0a.82752.82752,0,0,1,.83008.83008h0a.82548.82548,0,0,1-.83008.82031h0A.82525.82525,0,0,1,20.9502,23.00977Zm-4.82032,0a.82814.82814,0,0,1,.83008-.83008h0a.82814.82814,0,0,1,.83008.83008h0a.8261.8261,0,0,1-.83008.82031h0A.8261.8261,0,0,1,16.12988,23.00977Zm-4.82031,0a.82814.82814,0,0,1,.83008-.83008h0a.82814.82814,0,0,1,.83008.83008h0a.8261.8261,0,0,1-.83008.82031h0A.8261.8261,0,0,1,11.30957,23.00977Zm-4.81934,0a.82731.82731,0,0,1,.82911-.83008h0a.82813.82813,0,0,1,.83007.83008h0a.82609.82609,0,0,1-.83007.82031h0A.82526.82526,0,0,1,6.49023,23.00977Z"/>
    <path d="M26.59961,23.83008a.81329.81329,0,0,1-.30957-.06055.82115.82115,0,0,1-.4502-.45019.81869.81869,0,0,1-.07031-.30957.87778.87778,0,0,1,.07031-.32032.80042.80042,0,0,1,.17969-.26953.711.711,0,0,1,.27051-.17969.85586.85586,0,0,1,.62988,0,.83184.83184,0,0,1,.4502.44922.86755.86755,0,0,1,.05957.32032.8089.8089,0,0,1-.05957.30957.8294.8294,0,0,1-.4502.45019A.86832.86832,0,0,1,26.59961,23.83008Z"/>
  </g>
  <g>
    <path d="M138.05957,23.83008a.81333.81333,0,0,1-.30957-.06055A.843.843,0,0,1,137.22949,23a.80962.80962,0,0,1,.25-.58008.64334.64334,0,0,1,.27051-.17969.85127.85127,0,0,1,.89941.17969A.841.841,0,0,1,138.88965,23a.8231.8231,0,0,1-.05957.31934.79754.79754,0,0,1-.18067.2705A.822.822,0,0,1,138.05957,23.83008Z"/>
    <path d="M156.7793,23.00977a.82813.82813,0,0,1,.83008-.83008h0a.82813.82813,0,0,1,.83007.83008h0a.82609.82609,0,0,1-.83007.82031h0A.82609.82609,0,0,1,156.7793,23.00977Zm-4.87989,0a.82814.82814,0,0,1,.83008-.83008h0a.82609.82609,0,0,1,.82031.83008h0a.824.824,0,0,1-.82031.82031h0A.8261.8261,0,0,1,151.89941,23.00977Zm-4.88964,0a.82813.82813,0,0,1,.83007-.83008h0a.8344.8344,0,0,1,.83008.83008h0a.83244.83244,0,0,1-.83008.82031h0A.82609.82609,0,0,1,147.00977,23.00977Zm-4.88965,0a.82813.82813,0,0,1,.83008-.83008h0a.8273.8273,0,0,1,.8291.83008h0a.82525.82525,0,0,1-.8291.82031h0A.82609.82609,0,0,1,142.12012,23.00977Z"/>
    <path d="M162.5,23.83984a.79158.79158,0,0,1-.58008-.25.87256.87256,0,0,1-.19043-.2705.8089.8089,0,0,1-.05957-.30957.86755.86755,0,0,1,.05957-.32032,1.0154,1.0154,0,0,1,.19043-.26953.67981.67981,0,0,1,.25977-.17969.88156.88156,0,0,1,.63965,0,.67593.67593,0,0,1,.26074.17969,1.01163,1.01163,0,0,1,.18945.26953.86837.86837,0,0,1,.06055.32032.80968.80968,0,0,1-.06055.30957.86981.86981,0,0,1-.18945.2705A.79478.79478,0,0,1,162.5,23.83984Z"/>
  </g>
  <path d="M60.5293,216.88965a.825.825,0,0,1-.60938-1h0a.8198.8198,0,0,1,1-.60938h0a.81739.81739,0,0,1,.60938.98926h0a.83039.83039,0,0,1-.79981.64063h0A1.4065,1.4065,0,0,1,60.5293,216.88965Zm.81054-3.35938a.81758.81758,0,0,1-.61035-1h0a.82369.82369,0,0,1,1-.61035h0a.84152.84152,0,0,1,.61035,1h0a.8324.8324,0,0,1-.81054.63965h0A.63829.63829,0,0,1,61.33984,213.53027Zm.79981-3.35058a.82978.82978,0,0,1-.61035-1h0a.822.822,0,0,1,1-.61035h0a.82873.82873,0,0,1,.61035,1h0a.82042.82042,0,0,1-.79981.63086h0A.66539.66539,0,0,1,62.13965,210.17969Zm.81055-3.36035a.82324.82324,0,0,1-.61036-1h0a.83086.83086,0,0,1,1-.60938h0a.834.834,0,0,1,.61036,1h0a.83142.83142,0,0,1-.80079.63965h0A.62641.62641,0,0,1,62.9502,206.81934Zm.7998-3.34961a.83146.83146,0,0,1-.61035-1h0a.83492.83492,0,0,1,1-.61035h0a.822.822,0,0,1,.61035,1h0a.81235.81235,0,0,1-.7998.63085h0A.69492.69492,0,0,1,63.75,203.46973Zm.80957-3.34961a.83353.83353,0,0,1-.60937-1h0a.82039.82039,0,0,1,1-.61035h0a.8161.8161,0,0,1,.60937,1h0a.83129.83129,0,0,1-.7998.62988h0A1.39011,1.39011,0,0,1,64.55957,200.12012Zm.81055-3.36035a.816.816,0,0,1-.61035-1h0a.81854.81854,0,0,1,.99023-.61036h0a.82069.82069,0,0,1,.60938,1h0a.81237.81237,0,0,1-.79981.63086h0A.59766.59766,0,0,1,65.37012,196.75977Zm.80957-3.34961a.82817.82817,0,0,1-.62012-1h0a.82579.82579,0,0,1,1-.61036h0a.81669.81669,0,0,1,.61035,1h0a.82058.82058,0,0,1-.7998.62989h0A1.25977,1.25977,0,0,1,66.17969,193.41016Zm.7998-3.36036a.81538.81538,0,0,1-.60937-1h0a.83622.83622,0,0,1,1-.61035h0a.83353.83353,0,0,1,.60937,1h0a.833.833,0,0,1-.80957.64063h0A.64581.64581,0,0,1,66.97949,190.0498Zm.81055-3.3496a.8213.8213,0,0,1-.61035-1h0a.8178.8178,0,0,1,.99023-.61036h0a.83007.83007,0,0,1,.62012,1h0a.83354.83354,0,0,1-.81055.62989h0A1.24719,1.24719,0,0,1,67.79,186.7002Zm.7998-3.35059a.83322.83322,0,0,1-.61035-1h0a.83522.83522,0,0,1,1-.62012h0a.8394.8394,0,0,1,.61035,1.01074h0a.83237.83237,0,0,1-.7998.62989h0A1.391,1.391,0,0,1,68.58984,183.34961Zm.80957-3.35938a.82142.82142,0,0,1-.60937-1h0a.82323.82323,0,0,1,1-.61035h0a.83608.83608,0,0,1,.60937,1h0a.83212.83212,0,0,1-.80957.63965h0A.6443.6443,0,0,1,69.39941,179.99023Zm.80079-3.35058a.841.841,0,0,1-.61036-1h0a.82472.82472,0,0,1,1-.60938h0a.8167.8167,0,0,1,.61036,1h0a.8225.8225,0,0,1-.80079.62989h0A1.53416,1.53416,0,0,1,70.2002,176.63965Zm.80957-3.35938a.82489.82489,0,0,1-.61036-1h0a.82415.82415,0,0,1,1-.61035h0a.83292.83292,0,0,1,.61036,1h0a.82949.82949,0,0,1-.79981.63965h0A.70965.70965,0,0,1,71.00977,173.28027Zm.80957-3.35058a.82547.82547,0,0,1-.60938-1h0a.81928.81928,0,0,1,.99024-.61035h0a.817.817,0,0,1,.60937,1h0a.80449.80449,0,0,1-.7998.63086h0A1.27548,1.27548,0,0,1,71.81934,169.92969Zm.80078-3.36035a.81726.81726,0,0,1-.61035-.98926h0a.83919.83919,0,0,1,1-.62012h0a.82564.82564,0,0,1,.61035,1h0a.83142.83142,0,0,1-.80078.63965h0A.67148.67148,0,0,1,72.62012,166.56934Zm.80957-3.34961a.82157.82157,0,0,1-.61035-1h0a.83024.83024,0,0,1,1-.61035h0a.83717.83717,0,0,1,.61035,1h0a.82327.82327,0,0,1-.80957.63085h0A.60368.60368,0,0,1,73.42969,163.21973Zm.81054-3.36035a.82346.82346,0,0,1-.62011-.98926h0a.82487.82487,0,0,1,1-.61035h0a.81063.81063,0,0,1,.60937.99023h0a.82948.82948,0,0,1-.7998.63965h0A.60985.60985,0,0,1,74.24023,159.85938Zm.79981-3.34961a.82323.82323,0,0,1-.61035-1h0a.829.829,0,0,1,1-.61036h0a.83416.83416,0,0,1,.61035,1h0a.82123.82123,0,0,1-.79981.63086h0A.66256.66256,0,0,1,75.04,156.50977Zm.80957-3.34961a.82517.82517,0,0,1-.60938-1h0a.816.816,0,0,1,1-.61036h0a.83085.83085,0,0,1,.60938,1h0a.834.834,0,0,1-.80957.62989h0A1.2599,1.2599,0,0,1,75.84961,153.16016Zm.7998-3.36036a.82542.82542,0,0,1-.60937-.99023h0a.83185.83185,0,0,1,1-.62012h0a.82516.82516,0,0,1,.60937,1h0a.83036.83036,0,0,1-.7998.64063h0A.71092.71092,0,0,1,76.64941,149.7998Zm.81055-3.3496a.82949.82949,0,0,1-.61035-1h0a.81642.81642,0,0,1,1-.61036h0a.829.829,0,0,1,.61035,1h0a.82453.82453,0,0,1-.81055.62989h0A.626.626,0,0,1,77.46,146.4502Zm.80957-3.35059a.83949.83949,0,0,1-.62012-1h0a.84045.84045,0,0,1,1-.62012h0a.82579.82579,0,0,1,.61036,1h0a.83038.83038,0,0,1-.79981.64063h0A1.26063,1.26063,0,0,1,78.26953,143.09961Zm.79981-3.35938a.82427.82427,0,0,1-.60938-1h0a.83245.83245,0,0,1,1-.61035h0a.82842.82842,0,0,1,.60938,1h0a.82059.82059,0,0,1-.79981.62989h0A.70041.70041,0,0,1,79.06934,139.74023Z" style="fill: #252626"/>
  <path d="M85.51953,241.87988a.83085.83085,0,0,1-.60937-1h0a.83322.83322,0,0,1,1-.61035h0a.83981.83981,0,0,1,.61914,1h0a.84.84,0,0,1-.80957.62988h0A.735.735,0,0,1,85.51953,241.87988Zm.81055-3.34961a.82873.82873,0,0,1-.61035-1h0a.82827.82827,0,0,1,1-.61035h0a.824.824,0,0,1,.61035,1h0a.82169.82169,0,0,1-.80078.62988h0A1.37533,1.37533,0,0,1,86.33008,238.53027Zm.80957-3.36035a.81167.81167,0,0,1-.61035-.99023h0a.82363.82363,0,0,1,1-.62012h0a.84122.84122,0,0,1,.61035,1h0a.833.833,0,0,1-.80957.64063h0A.64609.64609,0,0,1,87.13965,235.16992Zm.7998-3.35058a.8356.8356,0,0,1-.60937-1h0a.83259.83259,0,0,1,1-.60938h0a.82053.82053,0,0,1,.60937,1h0a.82057.82057,0,0,1-.7998.62988h0A1.26567,1.26567,0,0,1,87.93945,231.81934Zm.81055-3.34961a.83291.83291,0,0,1-.61035-1h0a.81712.81712,0,0,1,1-.61035h0a.81944.81944,0,0,1,.61035.99023h0a.8312.8312,0,0,1-.7998.64062h0A1.37813,1.37813,0,0,1,88.75,228.46973Zm.80957-3.36035a.81538.81538,0,0,1-.60937-1h0a.81737.81737,0,0,1,.98925-.60938h0a.82039.82039,0,0,1,.61035,1h0a.82123.82123,0,0,1-.7998.63965h0A.61584.61584,0,0,1,89.55957,225.10938Zm.79981-3.34961a.83307.83307,0,0,1-.60938-1h0a.82563.82563,0,0,1,1-.61036h0a.82429.82429,0,0,1,.60938,1h0a.83219.83219,0,0,1-.79981.63086h0A1.40632,1.40632,0,0,1,90.35938,221.75977Zm.81054-3.36036a.8167.8167,0,0,1-.61035-1h0a.83608.83608,0,0,1,1-.60937h0a.83321.83321,0,0,1,.61035,1h0a.83241.83241,0,0,1-.81054.63965h0A.60952.60952,0,0,1,91.16992,218.39941Zm.80957-3.34961a.83521.83521,0,0,1-.62011-1h0a.83416.83416,0,0,1,1-.61035h0a.81686.81686,0,0,1,.61035,1h0a.82059.82059,0,0,1-.79981.62989h0A1.25877,1.25877,0,0,1,91.97949,215.0498Zm.79981-3.36035a.81738.81738,0,0,1-.60938-.98925h0a.834.834,0,0,1,1-.62012h0a.83259.83259,0,0,1,.60938,1h0a.82949.82949,0,0,1-.79981.63965h0A.68233.68233,0,0,1,92.7793,211.68945Zm.81054-3.34961a.82158.82158,0,0,1-.61035-1h0a.819.819,0,0,1,.99024-.61035h0a.83569.83569,0,0,1,.62011,1h0a.82372.82372,0,0,1-.81054.62989h0A.62574.62574,0,0,1,93.58984,208.33984Zm.79981-3.34961a.8428.8428,0,0,1-.61035-1h0a.82578.82578,0,0,1,1-.61035h0a.81054.81054,0,0,1,.61035.99024h0a.82949.82949,0,0,1-.79981.63965h0A1.38871,1.38871,0,0,1,94.38965,204.99023Zm.81055-3.36035a.82324.82324,0,0,1-.61036-1h0a.824.824,0,0,1,1-.61035h0a.82979.82979,0,0,1,.61036,1h0a.835.835,0,0,1-.81055.64063h0A.63973.63973,0,0,1,95.2002,201.62988Zm.80957-3.34961a.84044.84044,0,0,1-.62012-1h0a.83128.83128,0,0,1,1.00976-.61035h0a.818.818,0,0,1,.60059,1h0a.82287.82287,0,0,1-.7998.62988h0A1.24586,1.24586,0,0,1,96.00977,198.28027Zm.7998-3.36035a.82381.82381,0,0,1-.60937-1h0a.841.841,0,0,1,1-.61035h0a.83353.83353,0,0,1,.60937,1h0A.833.833,0,0,1,97,194.9502h0A.69967.69967,0,0,1,96.80957,194.91992Zm.81055-3.35058a.82039.82039,0,0,1-.61035-1h0a.82336.82336,0,0,1,1-.60938h0a.824.824,0,0,1,.61035,1h0a.82535.82535,0,0,1-.81055.62988h0A.6284.6284,0,0,1,97.62012,191.56934Zm.7998-3.35938a.819.819,0,0,1-.61035-.99023h0a.84044.84044,0,0,1,1-.62012h0a.82652.82652,0,0,1,.61035,1h0a.83037.83037,0,0,1-.7998.64062h0A.76721.76721,0,0,1,98.41992,188.21Zm.80957-3.35058a.8198.8198,0,0,1-.60937-1h0a.828.828,0,0,1,1-.60938h0a.8326.8326,0,0,1,.60937,1h0a.83214.83214,0,0,1-.80957.63965h0A.61589.61589,0,0,1,99.22949,184.85938Zm.81055-3.34961a.82533.82533,0,0,1-.61035-1h0a.81125.81125,0,0,1,.99023-.61036h0a.831.831,0,0,1,.62012,1h0a.84541.84541,0,0,1-.81055.63086h0A1.24919,1.24919,0,0,1,100.04,181.50977Zm.7998-3.36036a.824.824,0,0,1-.61035-1h0a.82842.82842,0,0,1,1-.60937h0a.83244.83244,0,0,1,.61035,1h0a.82947.82947,0,0,1-.7998.63965h0A.67763.67763,0,0,1,100.83984,178.14941Zm.80957-3.34961a.82547.82547,0,0,1-.60937-1h0a.824.824,0,0,1,1-.61035h0a.83179.83179,0,0,1,.60937,1h0a.82343.82343,0,0,1-.80957.62989h0A1.25877,1.25877,0,0,1,101.64941,174.7998Zm.81055-3.36035a.83007.83007,0,0,1-.62012-1h0a.8409.8409,0,0,1,1-.60937h0a.82563.82563,0,0,1,.61036,1h0a.83142.83142,0,0,1-.80079.63965h0A.60951.60951,0,0,1,102.46,171.43945Zm.79981-3.34961a.829.829,0,0,1-.61036-1h0a.82489.82489,0,0,1,1-.61035h0a.82874.82874,0,0,1,.61036,1h0a.82059.82059,0,0,1-.79981.62989h0A.69706.69706,0,0,1,103.25977,168.08984Zm.80957-3.36035a.8101.8101,0,0,1-.60938-.98926h0a.816.816,0,0,1,1-.61035h0a.8174.8174,0,0,1,.59961,1h0a.81469.81469,0,0,1-.7998.62989h0A.6201.6201,0,0,1,104.06934,164.72949Z" style="fill: #252626"/>
</svg>
