<svg id="Layer_1" data-name="Layer 1" xmlns="http://www.w3.org/2000/svg" width="165" height="380" viewBox="0 0 165 380">
  <title>PulsarsBG</title>
  <rect width="165" height="380" style="fill: #e5e5e5"/>
  <g>
    <g>
      <circle cx="23" cy="6" r="5.73633" style="fill: #bcbcbc"/>
      <path d="M23,.52747A5.47253,5.47253,0,1,1,17.52751,6,5.47873,5.47873,0,0,1,23,.52747M23,0a6,6,0,1,0,6,6,6,6,0,0,0-6-6Z" style="fill: gray"/>
    </g>
    <polygon points="26.495 5.341 23.659 5.341 23.659 2.505 22.341 2.505 22.341 5.341 19.506 5.341 19.506 6.659 22.341 6.659 22.341 9.495 23.659 9.495 23.659 6.659 26.495 6.659 26.495 5.341" style="fill: #6e6e6e"/>
  </g>
  <g>
    <g>
      <circle cx="142" cy="6" r="5.73633" style="fill: #bcbcbc"/>
      <path d="M142,.52747A5.47253,5.47253,0,1,1,136.52751,6,5.47873,5.47873,0,0,1,142,.52747M142,0a6,6,0,1,0,6,6,6,6,0,0,0-6-6Z" style="fill: gray"/>
    </g>
    <polygon points="145.495 5.341 142.659 5.341 142.659 2.505 141.341 2.505 141.341 5.341 138.506 5.341 138.506 6.659 141.341 6.659 141.341 9.495 142.659 9.495 142.659 6.659 145.495 6.659 145.495 5.341" style="fill: #6e6e6e"/>
  </g>
  <g>
    <g>
      <circle cx="23" cy="374" r="5.73633" style="fill: #bcbcbc"/>
      <path d="M23,368.52747A5.47253,5.47253,0,1,1,17.52751,374,5.47874,5.47874,0,0,1,23,368.52747M23,368a6,6,0,1,0,6,6,6,6,0,0,0-6-6Z" style="fill: gray"/>
    </g>
    <polygon points="26.495 373.341 23.659 373.341 23.659 370.505 22.341 370.505 22.341 373.341 19.506 373.341 19.506 374.659 22.341 374.659 22.341 377.495 23.659 377.495 23.659 374.659 26.495 374.659 26.495 373.341" style="fill: #6e6e6e"/>
  </g>
  <g>
    <g>
      <circle cx="142" cy="374" r="5.73633" style="fill: #bcbcbc"/>
      <path d="M142,368.52747A5.47253,5.47253,0,1,1,136.52751,374,5.47874,5.47874,0,0,1,142,368.52747M142,368a6,6,0,1,0,6,6,6,6,0,0,0-6-6Z" style="fill: gray"/>
    </g>
    <polygon points="145.495 373.341 142.659 373.341 142.659 370.505 141.341 370.505 141.341 373.341 138.506 373.341 138.506 374.659 141.341 374.659 141.341 377.495 142.659 377.495 142.659 374.659 145.495 374.659 145.495 373.341" style="fill: #6e6e6e"/>
  </g>
  <g>
    <path d="M49.93945,195.10938a.8284.8284,0,0,1,.81055-.84961h0a.82759.82759,0,0,1,.84961.80957h0a.82783.82783,0,0,1-.80957.85058h-.02051A.83114.83114,0,0,1,49.93945,195.10938Zm-3.75.63085a.823.823,0,0,1-.73925-.91015h0a.84314.84314,0,0,1,.90918-.74024h0A.82388.82388,0,0,1,47.09961,195h0a.82728.82728,0,0,1-.83008.75h0C46.25,195.75,46.21973,195.74023,46.18945,195.74023Zm-4.54-.76074a.83254.83254,0,0,1-.62011-.98926h0a.82743.82743,0,0,1,1-.62011h0a.82345.82345,0,0,1,.62011.98926h0A.82166.82166,0,0,1,41.83984,195h0A.63438.63438,0,0,1,41.64941,194.97949Zm-4.40918-1.33984H37.25a.8214.8214,0,0,1-.49023-1.05957h0a.83277.83277,0,0,1,1.07031-.49024h0a.82824.82824,0,0,1,.47949,1.07032h0a.827.827,0,0,1-.76953.54h0A.79781.79781,0,0,1,37.24023,193.63965Zm25.86915-1.08985A.82976.82976,0,0,1,63.54,191.46h0a.82932.82932,0,0,1,1.08984.42969h0a.82932.82932,0,0,1-.42968,1.08984h0a.77639.77639,0,0,1-.33008.07031h0A.82944.82944,0,0,1,63.10938,192.5498Zm4.05078-1.95019a.839.839,0,0,1,.29-1.13965h0a.82766.82766,0,0,1,1.12988.29h0a.83147.83147,0,0,1-.28028,1.13965h0A.83483.83483,0,0,1,67.87012,191h0A.81654.81654,0,0,1,67.16016,190.59961Zm3.76953-2.4502a.8388.8388,0,0,1,.13965-1.16992h0a.8411.8411,0,0,1,1.17089.14063h0a.84154.84154,0,0,1-.15039,1.16992h0a.87265.87265,0,0,1-.50976.16992h0A.8449.8449,0,0,1,70.92969,188.14941Zm3.42969-2.91992a.82349.82349,0,0,1-.00977-1.16992h0a.82342.82342,0,0,1,1.16992-.00977h0a.83519.83519,0,0,1,.00977,1.17969h0a.83854.83854,0,0,1-.58985.24024h0A.81775.81775,0,0,1,74.35938,185.22949Z" style="fill: #ff4257"/>
    <path d="M92.58008,201.85938a.83682.83682,0,0,1,.13965-1.16993h0a.83992.83992,0,0,1,1.16992.14063h0A.84139.84139,0,0,1,93.74023,202h0a.87325.87325,0,0,1-.51074.16992h0A.84445.84445,0,0,1,92.58008,201.85938Zm3.64941-2.62989a.83845.83845,0,0,1,.29-1.13965h0a.82808.82808,0,0,1,1.12988.29h0a.83011.83011,0,0,1-.27929,1.13965h0a.94717.94717,0,0,1-.43067.11035h0A.82852.82852,0,0,1,96.22949,199.22949Zm3.9502-2.14941A.81442.81442,0,0,1,100.62012,196h0a.82733.82733,0,0,1,1.08984.42969h0a.8375.8375,0,0,1-.44043,1.08984h0a.86326.86326,0,0,1-.31933.06055h0A.82652.82652,0,0,1,100.17969,197.08008Zm26.81054-.19043a.83647.83647,0,0,1-.49023-1.07031h0a.81964.81964,0,0,1,1.06934-.4795h0a.813.813,0,0,1,.48046,1.05957h0a.82826.82826,0,0,1-.7705.54h0A.91664.91664,0,0,1,126.99023,196.88965ZM122.79,195.60938h-.01074a.828.828,0,0,1-.60938-1h0A.81793.81793,0,0,1,123.16016,194h0a.81676.81676,0,0,1,.61914.99023h0a.82948.82948,0,0,1-.79981.63965h0A1.03311,1.03311,0,0,1,122.79,195.60938Zm-4.33984-.7295a.81414.81414,0,0,1-.73047-.90039h0a.81349.81349,0,0,1,.90039-.73926h0a.81621.81621,0,0,1,.73926.90918h0a.82391.82391,0,0,1-.81934.74024h0A.27909.27909,0,0,1,118.4502,194.87988Zm-5.23047-.96972a.82844.82844,0,0,1,.80957-.85059h-.00977a.82986.82986,0,0,1,.85059.81055h0a.82487.82487,0,0,1-.80078.83984h-.01954A.822.822,0,0,1,113.21973,193.91016Z" style="fill: #ff4257"/>
    <path d="M70.81593,201.48809a.834.834,0,0,1-.21-1.16016h0a.83272.83272,0,0,1,1.15039-.21v.00976a.82259.82259,0,0,1,.21,1.1504h0a.82844.82844,0,0,1-.68067.3496h0A.80885.80885,0,0,1,70.81593,201.48809Zm-3.33008-2.04981h0a.82533.82533,0,0,1-.33008-1.12012h0a.83423.83423,0,0,1,1.12012-.33984h0a.83366.83366,0,0,1,.33008,1.12988h0a.83371.83371,0,0,1-.73047.42969h0A.81434.81434,0,0,1,67.48585,199.43828Zm-3.53028-1.65039h0a.81.81,0,0,1-.46-1.07031h0a.816.816,0,0,1,1.07032-.46973h0a.82553.82553,0,0,1,.46,1.08008h0a.83387.83387,0,0,1-.76953.52051h0A.80651.80651,0,0,1,63.95557,197.78789Z" style="fill: #00bc8b"/>
  </g>
  <g>
    <path d="M48.3584,7.23047h2.90625a2.1869,2.1869,0,0,1,1.52441.62891A2.37562,2.37562,0,0,1,53.419,9.46191a2.24231,2.24231,0,0,1-2.1543,2.24219h-.99512v3.3916H48.3584Zm3.13769,2.23144c0-.14355-.09961-.34277-.23144-.34277h-.99512v.69629h.99512C51.39648,9.81543,51.49609,9.60547,51.49609,9.46191Z" style="fill: #1d1d1b"/>
    <path d="M64.23145,7.23047v4.83789a3.12062,3.12062,0,1,1-6.24122,0V7.23047h1.9004v4.83789a1.215,1.215,0,1,0,2.42968,0V7.23047Z" style="fill: #1d1d1b"/>
    <path d="M69.25684,7.23047H71.168V13.207h3.73437V15.0957h-5.6455Z" style="fill: #1d1d1b"/>
    <path d="M81.418,15.07324a5.31463,5.31463,0,0,1-2.46289-1.33594L80.21387,12.29a3.26887,3.26887,0,0,0,1.59082.92773,1.89951,1.89951,0,0,0,.41992.05469,1.29889,1.29889,0,0,0,.57422-.12109.57446.57446,0,0,0,.36523-.50782c0-.30957-.57422-.49707-1.07226-.59667a7.60385,7.60385,0,0,1-1.74512-.542A2.16684,2.16684,0,0,1,79.209,9.5498a2.29432,2.29432,0,0,1,.40821-1.28125,2.55793,2.55793,0,0,1,1.0166-.81738l-.01074.01074a3.186,3.186,0,0,1,1.34765-.29785,3.7634,3.7634,0,0,1,.58594.04395,4.5911,4.5911,0,0,1,2.26465,1.16015l-1.21582,1.458a2.43807,2.43807,0,0,0-1.65723-.77344,1.11431,1.11431,0,0,0-.50781.11036.45766.45766,0,0,0-.32031.38671c0,.29883.39746.44239,1.03808.57422.06641.02246.14356.02246.22168.04493a5.81512,5.81512,0,0,1,1.49121.4746h-.01171a2.2009,2.2009,0,0,1,1.21582,2,2.32258,2.32258,0,0,1-.41993,1.38086,2.71718,2.71718,0,0,1-1.0498.83887,2.87111,2.87111,0,0,1-1.3916.29883A3.70744,3.70744,0,0,1,81.418,15.07324Z" style="fill: #1d1d1b"/>
    <path d="M93.64648,13.30566h-2.21l-.69531,1.79H88.708l3.02734-7.86523h1.61231l3.03808,7.86523H94.32031ZM92.542,10.2793l-.376,1.14843h.74023Z" style="fill: #1d1d1b"/>
    <path d="M107.48633,15.0957h-2.28711l-2.60742-3.40234H102.415V15.0957h-1.86719V7.23047h2.88379a2.1426,2.1426,0,0,1,1.51367.62891,2.37469,2.37469,0,0,1,.62891,1.60253,2.22228,2.22228,0,0,1-.94922,1.85547ZM102.415,9.81543h1.0166c.1543,0,.26465-.19922.26465-.35352,0-.15527-.11035-.35351-.26465-.35351H102.415Z" style="fill: #1d1d1b"/>
    <path d="M113.35059,15.07324a5.31458,5.31458,0,0,1-2.46289-1.33594L112.14648,12.29a3.26887,3.26887,0,0,0,1.59082.92773,1.89959,1.89959,0,0,0,.41993.05469,1.29889,1.29889,0,0,0,.57422-.12109.57446.57446,0,0,0,.36523-.50782c0-.30957-.5752-.49707-1.07227-.59667a7.60394,7.60394,0,0,1-1.74511-.542,2.16684,2.16684,0,0,1-1.1377-1.95508,2.29438,2.29438,0,0,1,.4082-1.28125,2.558,2.558,0,0,1,1.01661-.81738l-.01075.01074a3.18613,3.18613,0,0,1,1.34766-.29785,3.7634,3.7634,0,0,1,.58594.04395,4.5911,4.5911,0,0,1,2.26465,1.16015l-1.21582,1.458a2.43809,2.43809,0,0,0-1.65723-.77344,1.11431,1.11431,0,0,0-.50781.11036.45767.45767,0,0,0-.32032.38671c0,.29883.39747.44239,1.03809.57422.06641.02246.14356.02246.22168.04493a5.81524,5.81524,0,0,1,1.49121.4746H115.792a2.20088,2.20088,0,0,1,1.21582,2,2.32257,2.32257,0,0,1-.41992,1.38086,2.71725,2.71725,0,0,1-1.0498.83887,2.87115,2.87115,0,0,1-1.39161.29883A3.70742,3.70742,0,0,1,113.35059,15.07324Z" style="fill: #1d1d1b"/>
  </g>
  <g>
    <path d="M24.78418,20.71875H25.375v.835h.01953a1.64162,1.64162,0,0,1,1.54785-.97656c1.36035,0,1.77344.71387,1.77344,1.86816v3.11524H28.125V22.53906c0-.835-.27246-1.46386-1.22949-1.46386A1.529,1.529,0,0,0,25.375,22.73633v2.82422h-.59082Z" style="fill: #1d1d1b"/>
    <path d="M30.18262,23.29883a1.71782,1.71782,0,0,0,1.5957,1.90527,1.47439,1.47439,0,0,0,1.51953-1.23926h.5918a1.97762,1.97762,0,0,1-2.11133,1.73633c-1.53906,0-2.18652-1.18262-2.18652-2.56152,0-1.27637.64746-2.5625,2.18652-2.5625,1.55762,0,2.17676,1.36133,2.12988,2.72168Zm3.13476-.49707a1.62707,1.62707,0,0,0-1.53906-1.72656,1.71831,1.71831,0,0,0-1.5957,1.72656Z" style="fill: #1d1d1b"/>
    <path d="M38.63086,25.56055h-.54395v-.873h-.01855a1.802,1.802,0,0,1-1.6709,1.01367c-1.21973,0-1.69824-.71289-1.69824-1.83887V20.71875H35.29v3.15234c.02832.87305.35644,1.333,1.29492,1.333,1.01367,0,1.45508-.957,1.45508-1.94238v-2.543h.59082Z" style="fill: #1d1d1b"/>
    <path d="M40.68945,20.71875h.98438v.49707h-.98438v3.26563c0,.38476.05567.61035.47852.63769a4.60891,4.60891,0,0,0,.50586-.02734v.50586c-.17774,0-.34668.01953-.52539.01953-.78809,0-1.06055-.2627-1.05078-1.08887v-3.3125h-.84473v-.49707h.84473V19.26367h.59179Z" style="fill: #1d1d1b"/>
    <path d="M42.53027,20.71875h.54395v1.13477h.01855a1.79076,1.79076,0,0,1,1.83008-1.20118v.5918a1.6671,1.6671,0,0,0-1.80176,1.73535v2.58106h-.59082Z" style="fill: #1d1d1b"/>
    <path d="M49.65332,23.13965a2.304,2.304,0,1,1-4.5791,0,2.30409,2.30409,0,1,1,4.5791,0Zm-3.98828,0a1.73112,1.73112,0,1,0,3.39746,0,1.73112,1.73112,0,1,0-3.39746,0Z" style="fill: #1d1d1b"/>
    <path d="M50.52832,20.71875h.59082v.835h.01953a1.64162,1.64162,0,0,1,1.54785-.97656c1.36036,0,1.77344.71387,1.77344,1.86816v3.11524h-.59082V22.53906c0-.835-.27246-1.46386-1.22949-1.46386a1.529,1.529,0,0,0-1.52051,1.66113v2.82422h-.59082Z" style="fill: #1d1d1b"/>
    <path d="M58.19043,20.71875h.544v.91895h.01855a1.81406,1.81406,0,0,1,1.72656-1.06055c1.47364,0,2.17774,1.19238,2.17774,2.5625s-.7041,2.56152-2.17774,2.56152a1.72775,1.72775,0,0,1-1.67969-1.06054h-.01855v2.71191h-.59082Zm2.28906.35645c-1.30371,0-1.69824.96582-1.69824,2.06445,0,1.0039.44141,2.06445,1.69824,2.06445,1.126,0,1.58594-1.06055,1.58594-2.06445S61.60547,21.0752,60.47949,21.0752Z" style="fill: #1d1d1b"/>
    <path d="M67.91406,23.13965a2.304,2.304,0,1,1-4.5791,0,2.30409,2.30409,0,1,1,4.5791,0Zm-3.98828,0a1.73112,1.73112,0,1,0,3.39746,0,1.73112,1.73112,0,1,0-3.39746,0Z" style="fill: #1d1d1b"/>
    <path d="M68.31055,20.71875h.6289l1.23828,4.14746h.01856l1.18262-4.14746h.666l1.18262,4.14746h.01855l1.23926-4.14746h.62891l-1.55762,4.8418H72.9082l-1.1914-4.07227h-.01856l-1.18261,4.07227h-.64747Z" style="fill: #1d1d1b"/>
    <path d="M76.10254,23.29883a1.71782,1.71782,0,0,0,1.5957,1.90527,1.47439,1.47439,0,0,0,1.51953-1.23926h.5918a1.97762,1.97762,0,0,1-2.11133,1.73633c-1.53906,0-2.18652-1.18262-2.18652-2.56152,0-1.27637.64746-2.5625,2.18652-2.5625,1.55762,0,2.17676,1.36133,2.12989,2.72168Zm3.13476-.49707a1.62707,1.62707,0,0,0-1.53906-1.72656,1.71831,1.71831,0,0,0-1.5957,1.72656Z" style="fill: #1d1d1b"/>
    <path d="M80.62891,20.71875h.54394v1.13477h.01856a1.79076,1.79076,0,0,1,1.83007-1.20118v.5918a1.66709,1.66709,0,0,0-1.80175,1.73535v2.58106h-.59082Z" style="fill: #1d1d1b"/>
    <path d="M83.76367,23.29883a1.71783,1.71783,0,0,0,1.59571,1.90527,1.47439,1.47439,0,0,0,1.51953-1.23926h.59179a1.97761,1.97761,0,0,1-2.11132,1.73633c-1.53907,0-2.18653-1.18262-2.18653-2.56152,0-1.27637.64746-2.5625,2.18653-2.5625,1.55761,0,2.17675,1.36133,2.12988,2.72168Zm3.13477-.49707a1.62707,1.62707,0,0,0-1.53906-1.72656,1.71831,1.71831,0,0,0-1.59571,1.72656Z" style="fill: #1d1d1b"/>
    <path d="M92.5498,25.56055h-.54394v-.91992H91.9873a1.919,1.919,0,0,1-1.72656,1.06054c-1.47363,0-2.17773-1.1914-2.17773-2.56152s.7041-2.5625,2.17773-2.5625a1.72863,1.72863,0,0,1,1.67969,1.06055H91.959V18.86035h.59082Zm-2.28906-.35645c1.25684,0,1.69824-1.06055,1.69824-2.06445s-.4414-2.06445-1.69824-2.06445c-1.12695,0-1.58594,1.06054-1.58594,2.06445S89.13379,25.2041,90.26074,25.2041Z" style="fill: #1d1d1b"/>
    <path d="M102.31445,22.23828a1.31558,1.31558,0,0,0-1.37011-1.16308,1.84149,1.84149,0,0,0-1.69825,2.06445,1.84149,1.84149,0,0,0,1.69825,2.06445,1.44287,1.44287,0,0,0,1.4082-1.37988h.59082a1.97115,1.97115,0,0,1-1.999,1.877,2.31775,2.31775,0,0,1-2.28907-2.56152,2.31858,2.31858,0,0,1,2.28907-2.5625,1.81118,1.81118,0,0,1,1.96191,1.66113Z" style="fill: #1d1d1b"/>
    <path d="M103.77246,20.71875h.544v1.13477h.01855a1.79076,1.79076,0,0,1,1.83008-1.20118v.5918a1.6671,1.6671,0,0,0-1.80176,1.73535v2.58106h-.59082Z" style="fill: #1d1d1b"/>
    <path d="M110.89551,23.13965a2.304,2.304,0,1,1-4.5791,0,2.30409,2.30409,0,1,1,4.5791,0Zm-3.98828,0a1.73112,1.73112,0,1,0,3.39746,0,1.73112,1.73112,0,1,0-3.39746,0Z" style="fill: #1d1d1b"/>
    <path d="M114.67969,22.13574a1.11451,1.11451,0,0,0-1.2666-1.06054c-.52637,0-1.14551.20605-1.14551.835,0,.52539.60058.71289,1.0039.8164l.78907.17871a1.41794,1.41794,0,0,1,1.3789,1.3418c0,1.05078-1.041,1.4541-1.94238,1.4541a1.75414,1.75414,0,0,1-1.98926-1.708h.59082a1.2767,1.2767,0,0,0,1.42676,1.21094c.55371,0,1.32324-.24414,1.32324-.91992,0-.5625-.52539-.751-1.06054-.88184l-.75977-.16894c-.76953-.207-1.35156-.46973-1.35156-1.29492,0-.98535.96679-1.36133,1.82031-1.36133a1.58687,1.58687,0,0,1,1.77344,1.55859Z" style="fill: #1d1d1b"/>
    <path d="M119.19531,22.13574a1.1145,1.1145,0,0,0-1.2666-1.06054c-.52637,0-1.14551.20605-1.14551.835,0,.52539.60059.71289,1.00391.8164l.78906.17871a1.418,1.418,0,0,1,1.37891,1.3418c0,1.05078-1.041,1.4541-1.94238,1.4541a1.75414,1.75414,0,0,1-1.98926-1.708h.59082A1.27669,1.27669,0,0,0,118.041,25.2041c.55371,0,1.32324-.24414,1.32324-.91992,0-.5625-.52539-.751-1.06055-.88184l-.75976-.16894c-.76954-.207-1.35157-.46973-1.35157-1.29492,0-.98535.9668-1.36133,1.82032-1.36133a1.58687,1.58687,0,0,1,1.77343,1.55859Z" style="fill: #1d1d1b"/>
    <path d="M122.67871,21.21582h-.957v4.34473h-.5918V21.21582h-.82519v-.49707h.82519v-.44141c-.00879-.835.22559-1.417,1.17285-1.417a3.21372,3.21372,0,0,1,.49805.03711v.50684a2.41373,2.41373,0,0,0-.43164-.04688c-.65723,0-.63867.41309-.64746.93848v.42285h.957Z" style="fill: #1d1d1b"/>
    <path d="M123.18652,22.20117c.05664-1.13574.85352-1.624,1.96094-1.624.85449,0,1.7832.26269,1.7832,1.55859V24.707a.315.315,0,0,0,.34766.35645.55994.55994,0,0,0,.1875-.03809v.498a1.67109,1.67109,0,0,1-.38477.03711c-.60058,0-.69433-.33789-.69433-.84473h-.01953a1.8446,1.8446,0,0,1-1.76367.98535c-.89161,0-1.62305-.4414-1.62305-1.417,0-1.36035,1.32226-1.40723,2.59863-1.55762.48828-.05664.76074-.12207.76074-.65722,0-.79688-.57324-.99414-1.26757-.99414-.73145,0-1.27539.33789-1.29493,1.126Zm3.15332.71289h-.01953c-.07422.14063-.33789.1875-.49707.21582-1.0039.17871-2.25195.16895-2.25195,1.11719a1.00841,1.00841,0,0,0,1.0791.957,1.55754,1.55754,0,0,0,1.68945-1.52051Z" style="fill: #1d1d1b"/>
    <path d="M132.376,25.56055H131.832v-.91992h-.01855a1.91906,1.91906,0,0,1-1.72657,1.06054c-1.47363,0-2.17773-1.1914-2.17773-2.56152s.7041-2.5625,2.17773-2.5625a1.72862,1.72862,0,0,1,1.67969,1.06055h.01856V18.86035h.59082Zm-2.28907-.35645c1.25684,0,1.69825-1.06055,1.69825-2.06445s-.44141-2.06445-1.69825-2.06445c-1.12695,0-1.58593,1.06054-1.58593,2.06445S128.96,25.2041,130.08691,25.2041Z" style="fill: #1d1d1b"/>
    <path d="M133.85156,23.29883a1.71783,1.71783,0,0,0,1.59571,1.90527,1.47439,1.47439,0,0,0,1.51953-1.23926h.59179a1.97761,1.97761,0,0,1-2.11132,1.73633c-1.53907,0-2.18653-1.18262-2.18653-2.56152,0-1.27637.64746-2.5625,2.18653-2.5625,1.55761,0,2.17675,1.36133,2.12988,2.72168Zm3.13477-.49707a1.62707,1.62707,0,0,0-1.53906-1.72656,1.71831,1.71831,0,0,0-1.59571,1.72656Z" style="fill: #1d1d1b"/>
    <path d="M138.37793,20.71875h.54395v1.13477h.01855a1.79076,1.79076,0,0,1,1.83008-1.20118v.5918a1.6671,1.6671,0,0,0-1.80176,1.73535v2.58106h-.59082Z" style="fill: #1d1d1b"/>
  </g>
  <g>
    <path d="M21.75781,170.5498l-.96582-2.72558-.5498,1.832-1.5752-1.07812.96582,2.72558-.76172.26953-1.44433-4.07715.71582-.25293,1.64258,1.125.56738-1.91015.72168-.25488,1.44433,4.07714Z" style="fill: #1d1d1b"/>
    <path d="M24.78516,169.98145a2.3389,2.3389,0,0,1-.71973-.48536,2.09754,2.09754,0,0,1-.4873-.7207,2.20059,2.20059,0,0,1-.18458-.88281A2.26811,2.26811,0,0,1,25.6543,165.627a2.26817,2.26817,0,0,1,1.81347.90625l.09864.1211-.65039.48144-.09082-.12011a1.43478,1.43478,0,0,0-1.16895-.58106,1.4585,1.4585,0,1,0,1.17285,2.33106l.09082-.11524.64649.47168-.09766.12207a2.24333,2.24333,0,0,1-1.80273.91113A2.34462,2.34462,0,0,1,24.78516,169.98145Z" style="fill: #1d1d1b"/>
    <path d="M28.19043,170.26367l.18945-.67871L30.625,168.082a.52753.52753,0,1,0-.76172-.7041l-.07519.11035-.70411-.36816.084-.14063a1.32727,1.32727,0,0,1,2.41211,1.04883,1.36433,1.36433,0,0,1-.457.68555l-.00879.00488-1.60254,1.083,1.45605.4082-.21679.77149Z" style="fill: #1d1d1b"/>
  </g>
  <g>
    <path d="M110.30273,66.65332l1.21192,2.31543.3418.05078.30859-2.09082.78125.11524-.63086,4.27636-1.5332-.22558a1.121,1.121,0,0,1-.93164-1.25489,1.12428,1.12428,0,0,1,.77148-.89941l-1.26758-2.42676Zm.68848,3.03613a.31552.31552,0,1,0-.09375.624l.752.11132.0918-.625Z" style="fill: #1d1d1b"/>
    <path d="M108.90137,66.28516l-1.69922,3.98242-2.62305-1.11914.30957-.72754,1.873.7998.252-.58691-1.63281-.69727.31641-.74414,1.63378.69727.50586-1.18555-1.82324-.77832.31446-.73926Z" style="fill: #1d1d1b"/>
    <path d="M104.43359,63.81152l-1.50879,4.37891-.667-.5625,1.05762-3.05273-2.83594,1.55468-.66308-.55957,4.05566-2.23144Z" style="fill: #1d1d1b"/>
    <path d="M102.20215,61.67676l-3.56445,2.4414-1.6084-2.34765.65039-.44629L98.8291,63.002l.52442-.36035-1.001-1.46191.666-.45606,1.002,1.46192L101.082,61.46l-1.11719-1.63281.66016-.45215Z" style="fill: #1d1d1b"/>
    <path d="M99.36816,55.96289l-1.543,2.11328.10546.3291,2.01563-.64648.24219.752-4.123,1.3252-.47363-1.47559a1.1184,1.1184,0,0,1,.71386-1.39258,1.12229,1.12229,0,0,1,1.14942.29395l1.62012-2.21289Zm-2.42187,1.96094a.31655.31655,0,1,0-.60254.19433l.23242.72364.60156-.19434Z" style="fill: #1d1d1b"/>
    <path d="M99,53.417a2.76826,2.76826,0,0,1-.59277,1.29492l-.09864.11914-.62793-.50878.09864-.12012a1.98965,1.98965,0,0,0,.43164-.91211v-.00586a1.44624,1.44624,0,0,0,.01855-.27441.94887.94887,0,0,0-.10058-.40332.476.476,0,0,0-.45606-.29883.36657.36657,0,0,0-.31445.21972,1.77362,1.77362,0,0,0-.165.57325,4.4,4.4,0,0,1-.25879.98925,1.30413,1.30413,0,0,1-.41406.45411,1.11975,1.11975,0,0,1-.57617.17578,1.23617,1.23617,0,0,1-.6836-.18555,1.44009,1.44009,0,0,1-.44629-.5166,1.71439,1.71439,0,0,1-.1875-.7168,3.02979,3.02979,0,0,1,.0127-.32324,2.44414,2.44414,0,0,1,.501-1.16406l.09179-.11914.64551.49023-.0918.12109a1.52284,1.52284,0,0,0-.35644.96875.927.927,0,0,0,.09472.374.438.438,0,0,0,.38184.26367.32583.32583,0,0,0,.29-.17578,1.62562,1.62562,0,0,0,.17773-.5791c.00489-.03614.01465-.08594.02539-.13477a2.77266,2.77266,0,0,1,.22754-.84277,1.22134,1.22134,0,0,1,.419-.49121A1.14011,1.14011,0,0,1,97.63965,51.5a1.23523,1.23523,0,0,1,.73242.18945,1.49355,1.49355,0,0,1,.47168.54785,1.58173,1.58173,0,0,1,.18848.74024A2.21591,2.21591,0,0,1,99,53.417Z" style="fill: #1d1d1b"/>
    <path d="M99.08105,50.43164l-4.21191-.97559.6416-2.77441.76953.17871-.459,1.98047.62207.14551.40039-1.72852.78613.18262L97.22949,49.167l1.25391.292.44726-1.92968.78125.18164Z" style="fill: #1d1d1b"/>
    <path d="M102.50488,43.02441a2.7858,2.7858,0,0,1-1.33105.50586l-.1543.01563-.08984-.80371.15429-.0166a1.96793,1.96793,0,0,0,.94727-.34571l.00391-.0039a1.42166,1.42166,0,0,0,.207-.18262.93882.93882,0,0,0,.21094-.35742.4748.4748,0,0,0-.11524-.53223.365.365,0,0,0-.37793-.06445,1.78775,1.78775,0,0,0-.51953.291,4.20047,4.20047,0,0,1-.87891.52246,1.29036,1.29036,0,0,1-.6123.03418,1.13277,1.13277,0,0,1-.53418-.28027,1.22147,1.22147,0,0,1-.35547-.61133,1.4316,1.4316,0,0,1,.04492-.68164,1.68948,1.68948,0,0,1,.37012-.6416,2.84031,2.84031,0,0,1,.23437-.22168,2.46325,2.46325,0,0,1,1.17383-.47656l.14844-.02051.11719.80371-.15039.02051a1.53033,1.53033,0,0,0-.93555.43945.94646.94646,0,0,0-.19434.332.43929.43929,0,0,0,.08692.45606.32638.32638,0,0,0,.33008.0791,1.65338,1.65338,0,0,0,.53222-.28711c.0293-.02344.07129-.05176.11328-.0791a2.7838,2.7838,0,0,1,.75293-.44043,1.233,1.233,0,0,1,.64258-.05566,1.14021,1.14021,0,0,1,.55567.28417,1.21355,1.21355,0,0,1,.38671.64844,1.474,1.474,0,0,1-.04687.72071,1.58105,1.58105,0,0,1-.38672.65918A2.29814,2.29814,0,0,1,102.50488,43.02441Z" style="fill: #1d1d1b"/>
    <path d="M104.58594,41.00781,102.23047,37.377l1.30078-.84375a1.10972,1.10972,0,0,1,.8418-.15429,1.10491,1.10491,0,0,1,.36523,2.0166l-.62207.40332,1.14746,1.76953Zm-.28125-3.28125a.30459.30459,0,0,0,.08691-.4248.31521.31521,0,0,0-.42676-.10059l-.62207.4043.34082.52539Z" style="fill: #1d1d1b"/>
    <path d="M109.957,38.42285l-.78906-.9668-1.35938.45215-.05761,1.248-.82422.27344.21484-4.624.69727-.23242,2.94629,3.57324Zm-1.34082-1.62695-.71191-.86914-.04785,1.12207Z" style="fill: #1d1d1b"/>
    <path d="M112.48828,37.94629a2.3433,2.3433,0,0,1-.72656-.47461,2.08186,2.08186,0,0,1-.49707-.71582,2.17989,2.17989,0,0,1-.19824-.87793,2.26291,2.26291,0,0,1,3.25-2.0752,2.22488,2.22488,0,0,1,.80664.65528l.10058.12109-.64355.49121-.09278-.12011a1.43356,1.43356,0,0,0-1.17773-.56446,1.45921,1.45921,0,1,0,1.207,2.31543l.08985-.11816.65234.46387-.0957.123a2.237,2.237,0,0,1-.78516.68262,2.19382,2.19382,0,0,1-1.00488.25391A2.29939,2.29939,0,0,1,112.48828,37.94629Z" style="fill: #1d1d1b"/>
    <path d="M116.20313,38.251l1.17382-4.16016,2.74024.77344-.21485.75879-1.958-.55274-.17188.61426,1.70508.48145-.21875.77636-1.70606-.48047-.3496,1.23829,1.90527.53808-.21777.77051Z" style="fill: #1d1d1b"/>
    <path d="M120.52051,39.87988l1.80957-3.02441-.91211-.5459.41211-.68848,2.52246,1.50977-.41113.68848-.91211-.5459-1.8086,3.02441Z" style="fill: #1d1d1b"/>
    <path d="M123.02637,41.66309l2.957-3.15039.59277.55566-2.957,3.15234Z" style="fill: #1d1d1b"/>
    <path d="M126.27734,45.73535l2.44629-1.542-1.9082-.13379.707-1.77344-2.44824,1.541-.43067-.68262,3.66016-2.30859.40527.64355-.7373,1.85156,1.98828.13282.4082.64746L126.708,46.419Z" style="fill: #1d1d1b"/>
    <path d="M127.05078,47.44141l4.16992-1.14649.75586,2.748-.76172.209L130.67578,47.29l-.61523.168.4707,1.71094-.7793.21386-.46972-1.71-1.24219.3418.52539,1.91015-.77344.21192Z" style="fill: #1d1d1b"/>
  </g>
  <g>
    <path d="M43.89648,40.14063a2.31235,2.31235,0,0,1-.86132-.08008,2.08749,2.08749,0,0,1-.77344-.39942,2.18292,2.18292,0,0,1-.584-.68457,2.26116,2.26116,0,0,1,1.90332-3.34375,2.22756,2.22756,0,0,1,1.01856.2041l.14355.05957-.33886.73243-.13867-.06348a1.42978,1.42978,0,0,0-1.30079.05078,1.456,1.456,0,1,0,2.14258,1.48242l.02442-.14648.792.10644-.02735.15235A2.23243,2.23243,0,0,1,44.752,39.87207,2.305,2.305,0,0,1,43.89648,40.14063Z" style="fill: #1d1d1b"/>
    <path d="M46.58984,36.501a2.26428,2.26428,0,1,1,2.59766,1.86035A2.267,2.267,0,0,1,46.58984,36.501Zm.80469-.13184A1.44642,1.44642,0,1,0,48.584,34.69531,1.44908,1.44908,0,0,0,47.39453,36.36914Z" style="fill: #1d1d1b"/>
    <path d="M53.335,38.21094a2.78906,2.78906,0,0,1-1.16211-.8252l-.09863-.11914.61914-.52246.09961.11914a1.98754,1.98754,0,0,0,.81445.5957h.00586a1.4335,1.4335,0,0,0,.2666.07129.95217.95217,0,0,0,.415-.02441.47231.47231,0,0,0,.37891-.39258.36563.36563,0,0,0-.15723-.34863,1.75464,1.75464,0,0,0-.53125-.27051,4.33038,4.33038,0,0,1-.9248-.43945,1.29373,1.29373,0,0,1-.36914-.49121,1.13137,1.13137,0,0,1-.06446-.59961,1.23163,1.23163,0,0,1,.31055-.63672,1.43261,1.43261,0,0,1,.5918-.3418,1.6704,1.6704,0,0,1,.73925-.04883,2.59938,2.59938,0,0,1,.31543.07129,2.45133,2.45133,0,0,1,1.04883.709l.10059.11425-.60352.543-.09961-.11328a1.52691,1.52691,0,0,0-.88574-.53125.90946.90946,0,0,0-.38476.02246.438.438,0,0,0-.33106.3252.32168.32168,0,0,0,.11817.31836,1.662,1.662,0,0,0,.53515.2832c.03516.01172.082.03027.12793.04981a2.74535,2.74535,0,0,1,.78516.38183,1.21983,1.21983,0,0,1,.40429.50391,1.12854,1.12854,0,0,1,.07325.61816,1.22194,1.22194,0,0,1-.32325.6836,1.50488,1.50488,0,0,1-.626.3623,1.59839,1.59839,0,0,1-.7627.0459A2.24458,2.24458,0,0,1,53.335,38.21094Z" style="fill: #1d1d1b"/>
    <path d="M58.93164,40.10352l1.28418-2.59375-1.69824.88281-.32422-1.88281-1.2832,2.59375-.72559-.3584,1.91992-3.88086.68067.33691.33789,1.96485,1.76758-.92383.68554.33789-1.91894,3.88281Z" style="fill: #1d1d1b"/>
    <path d="M60.77344,41.44727l2.86133-3.24219.61035.53906-2.86133,3.24219Z" style="fill: #1d1d1b"/>
    <path d="M63.10645,43.71a2.287,2.287,0,0,1-.00586-.86621,2.09444,2.09444,0,0,1,.32031-.81055,2.16917,2.16917,0,0,1,.623-.64941,2.26169,2.26169,0,0,1,3.52246,1.55957,2.23076,2.23076,0,0,1-.09961,1.03418l-.04492.14941-.76465-.26367.04882-.14355a1.43272,1.43272,0,0,0-.18066-1.292,1.45855,1.45855,0,1,0-1.26172,2.28418l.14649.00879-.02539.80078-.1543-.01269a2.2004,2.2004,0,0,1-1.00195-.27539,2.22467,2.22467,0,0,1-.76758-.69727A2.31051,2.31051,0,0,1,63.10645,43.71Z" style="fill: #1d1d1b"/>
    <path d="M65.95117,51.51758l4.23828-1.8711.04.87305-2.957,1.29981,3.06738,1.02148.04.86621L65.98633,52.25Z" style="fill: #1d1d1b"/>
    <path d="M68.18945,54.74414a2.2653,2.2653,0,1,1-2.76757,1.59668A2.26818,2.26818,0,0,1,68.18945,54.74414Zm-.21289.78711a1.44745,1.44745,0,1,0,1.03125,1.77734A1.45175,1.45175,0,0,0,67.97656,55.53125Z" style="fill: #1d1d1b"/>
    <path d="M64.293,59.374l3.76074,2.13575-.40137.708L63.89063,60.082Z" style="fill: #1d1d1b"/>
    <path d="M63.24316,61.22559l3.14649,2.97265-.99805,1.05664a2.16532,2.16532,0,1,1-3.14648-2.97363Zm-.41894,1.60156A1.36879,1.36879,0,1,0,64.8125,64.707l.44238-.46875-1.98828-1.8789Z" style="fill: #1d1d1b"/>
  </g>
  <circle cx="82.5" cy="127.50002" r="14.87217" style="fill: #252626"/>
  <circle cx="115.47451" cy="294.4986" r="14.87217" style="fill: #252626"/>
  <circle cx="128.52614" cy="261.55823" r="14.87217" style="fill: #252626"/>
  <circle cx="115.4813" cy="228.50045" r="14.87217" style="fill: #252626"/>
  <circle cx="82.43137" cy="215.49804" r="14.87217" style="fill: #252626"/>
  <circle cx="49.45833" cy="228.5" r="14.87217" style="fill: #252626"/>
  <circle cx="36.47386" cy="261.55823" r="14.87217" style="fill: #252626"/>
  <circle cx="49.5" cy="294.4986" r="14.87217" style="fill: #252626"/>
  <circle cx="82.5" cy="307.58437" r="14.87217" style="fill: #252626"/>
  <path d="M82.5,174.35449A46.85449,46.85449,0,1,1,129.35449,127.5,46.90719,46.90719,0,0,1,82.5,174.35449Zm0-92.05273A45.19824,45.19824,0,1,0,127.69824,127.5,45.2501,45.2501,0,0,0,82.5,82.30176Z" style="fill: #252626"/>
  <path d="M140.32813,71.00879a.82912.82912,0,0,1-.58594-.24219,81.02686,81.02686,0,0,0-13.27637-10.7334.82833.82833,0,1,1,.90039-1.39062,82.73232,82.73232,0,0,1,13.54785,10.95215.82813.82813,0,0,1-.58593,1.41406Z" style="fill: #252626"/>
  <path d="M25.20313,71.3125a.82813.82813,0,0,1-.58594-1.41406A82.76069,82.76069,0,0,1,38.29,58.86719a.82809.82809,0,1,1,.89648,1.39258A81.09683,81.09683,0,0,0,25.78906,71.07031.82907.82907,0,0,1,25.20313,71.3125Z" style="fill: #252626"/>
  <path d="M82.5,308.41211a46.854,46.854,0,1,1,46.85449-46.85352A46.907,46.907,0,0,1,82.5,308.41211Zm0-92.05176a45.19776,45.19776,0,1,0,45.19824,45.19824A45.2501,45.2501,0,0,0,82.5,216.36035Z" style="fill: #252626"/>
  <path d="M38.61328,330.90527a.82664.82664,0,0,1-.44922-.13281,82.80536,82.80536,0,0,1-13.54785-10.95215.82864.82864,0,1,1,1.17188-1.17187,81.1406,81.1406,0,0,0,13.27636,10.7334.82817.82817,0,0,1-.45117,1.52343Z" style="fill: #252626"/>
  <path d="M125.97461,330.52637a.82812.82812,0,0,1-.44922-1.52442,81.05837,81.05837,0,0,0,13.39649-10.81054.82864.82864,0,1,1,1.17187,1.17187,82.68294,82.68294,0,0,1-13.67187,11.03125A.8191.8191,0,0,1,125.97461,330.52637Z" style="fill: #252626"/>
  <g>
    <path d="M137.31152,190.38672l-.80468-2.77734-.65625,1.79589-1.50879-1.168.80468,2.77637-.77539.22461-1.2041-4.1543.72852-.21093,1.57422,1.2207.67871-1.874.73535-.21289,1.20312,4.15429Z" style="fill: #1d1d1b"/>
    <path d="M140.36719,189.99609a2.34629,2.34629,0,0,1-.68946-.52636,2.074,2.074,0,0,1-.44433-.749,2.15513,2.15513,0,0,1-.13281-.89062,2.26666,2.26666,0,0,1,2.38964-2.12988,2.27377,2.27377,0,0,1,1.75684,1.01074l.09082.126-.67676.44336-.083-.126a1.43843,1.43843,0,0,0-1.13379-.64746,1.45879,1.45879,0,1,0,1.03515,2.3955l.09766-.11035.61719.50879-.1045.11621a2.23631,2.23631,0,0,1-1.85351.80371A2.331,2.331,0,0,1,140.36719,189.99609Z" style="fill: #1d1d1b"/>
    <path d="M143.74805,190.47656l.22949-.666,2.32812-1.36817a.52786.52786,0,1,0-.71875-.749l-.082.10644-.68066-.4082.0918-.13476a1.30792,1.30792,0,0,1,1.51855-.49121,1.30472,1.30472,0,0,1,.82813,1.67773,1.3601,1.3601,0,0,1-.4961.6582l-.00879.00391-1.66406.98828,1.42969.49219-.26074.75781Z" style="fill: #1d1d1b"/>
  </g>
  <g>
    <path d="M109.18164,317.21387l1.8418,1.85351.34277-.05273-.32422-2.08985.78028-.12011.66211,4.27344-1.53028.2373a1.12107,1.12107,0,0,1-1.26172-.92285,1.12,1.12,0,0,1,.47071-1.08692l-1.92871-1.94531Zm1.55469,2.69726a.31574.31574,0,0,0,.09668.624l.75-.11621-.09668-.625Z" style="fill: #1d1d1b"/>
    <path d="M106.57031,317.94238l1.71875,3.96973-2.61523,1.13184-.31348-.72461,1.86817-.8086-.25391-.58594-1.62793.70606-.32129-.74219,1.62793-.7041-.51074-1.18262-1.81836.78711-.31836-.73633Z" style="fill: #1d1d1b"/>
    <path d="M100.92969,321.14355l4.04883,2.25684-.67383.55957-2.82031-1.58008,1.03125,3.06739-.667.55468-1.48535-4.38965Z" style="fill: #1d1d1b"/>
    <path d="M97.82813,324.19727l3.54687,2.47461-1.62988,2.33691-.64844-.45215,1.165-1.66894-.52246-.36426-1.01563,1.4541-.66308-.46289,1.01562-1.4541-1.05664-.73731-1.13281,1.624-.6582-.458Z" style="fill: #1d1d1b"/>
    <path d="M94.3125,331.042l2.49805-.7666.11133-.32715-1.99708-.68652.25684-.74707,4.08789,1.40625-.5039,1.46387a1.12013,1.12013,0,0,1-1.4043.68554,1.12119,1.12119,0,0,1-.74219-.92285L94,331.94824Zm3.10938-.12011a.31609.31609,0,1,0,.59765.20605l.24707-.71777-.59668-.20411Z" style="fill: #1d1d1b"/>
    <path d="M93.64063,334.874a2.78831,2.78831,0,0,1,.72851-1.22363l.11133-.1084.57031.57422-.11133.1084a1.99107,1.99107,0,0,0-.52734.86035v.00586a1.36685,1.36685,0,0,0-.04883.27148.95143.95143,0,0,0,.05762.41016.47214.47214,0,0,0,.4209.34668.36821.36821,0,0,0,.33593-.18555,1.79045,1.79045,0,0,0,.22559-.5498,4.3306,4.3306,0,0,1,.36328-.957,1.30839,1.30839,0,0,1,.46-.40723,1.13867,1.13867,0,0,1,.5918-.1123,1.22241,1.22241,0,0,1,.65918.25879,1.41942,1.41942,0,0,1,.38769.56152,1.68469,1.68469,0,0,1,.10938.73144,3.188,3.188,0,0,1-.04688.31934,2.45786,2.45786,0,0,1-.62207,1.10352l-.10449.10937-.58984-.55859.10547-.10742a1.528,1.528,0,0,0,.457-.92579.91814.91814,0,0,0-.05274-.38086.44062.44062,0,0,0-.35156-.30468.32422.32422,0,0,0-.30762.14453,1.64423,1.64423,0,0,0-.23828.55566c-.00879.03614-.02441.085-.04.13086a2.72336,2.72336,0,0,1-.3164.81348,1.2306,1.2306,0,0,1-.46875.44336,1.12749,1.12749,0,0,1-.61133.123,1.2273,1.2273,0,0,1-.70606-.2666,1.50232,1.50232,0,0,1-.41113-.59472,1.59714,1.59714,0,0,1-.10742-.75586A2.30989,2.30989,0,0,1,93.64063,334.874Z" style="fill: #1d1d1b"/>
    <path d="M93.69922,339.09375l4.24414-.84961.55859,2.7959-.77539.1543-.39843-1.9961-.627.124.34863,1.74121-.792.1582-.34863-1.74023-1.2627.25293.3877,1.94238-.78613.15722Z" style="fill: #1d1d1b"/>
    <path d="M97.88086,348.75684a2.78285,2.78285,0,0,1-.3125-1.38868l.00684-.15429.80761.02539-.00586.15332a1.99242,1.99242,0,0,0,.208.98535l.00488.00586a1.2491,1.2491,0,0,0,.15039.22851.939.939,0,0,0,.32422.25977.474.474,0,0,0,.543-.03809.367.367,0,0,0,.11719-.36425,1.76922,1.76922,0,0,0-.21582-.55567,4.37647,4.37647,0,0,1-.39356-.94336,1.281,1.281,0,0,1,.05372-.61035,1.13072,1.13072,0,0,1,.35253-.48926,1.22388,1.22388,0,0,1,.65528-.26562,1.41973,1.41973,0,0,1,.668.1416,1.66926,1.66926,0,0,1,.582.45606,2.73728,2.73728,0,0,1,.18554.26367,2.45722,2.45722,0,0,1,.30665,1.22754l-.001.15039-.81055.001.001-.15136a1.52684,1.52684,0,0,0-.30274-.98536.94475.94475,0,0,0-.30175-.24023.43905.43905,0,0,0-.46289.02148.32331.32331,0,0,0-.125.31543,1.67073,1.67073,0,0,0,.209.56739c.01855.03222.04.07715.06152.12207a2.74071,2.74071,0,0,1,.32911.80761,1.21531,1.21531,0,0,1-.03516.64356,1.12764,1.12764,0,0,1-.35938.50976,1.21711,1.21711,0,0,1-.69531.291,1.478,1.478,0,0,1-.70605-.14844,1.57071,1.57071,0,0,1-.59766-.47558A2.30822,2.30822,0,0,1,97.88086,348.75684Z" style="fill: #1d1d1b"/>
    <path d="M100.73633,351.71875l2.52734-3.50488,1.25586.90625a1.10178,1.10178,0,0,1,.44727.72656,1.1019,1.1019,0,0,1-1.74414,1.06836l-.59961-.43164-1.23242,1.708Zm2.95117-1.44727a.30717.30717,0,0,0,.42773-.07421.31521.31521,0,0,0-.06054-.4336l-.60059-.43262-.36621.50684Z" style="fill: #1d1d1b"/>
    <path d="M107.01172,355.1709l.01953-1.249-1.333-.53125-.85058.917-.80664-.32129,3.15039-3.40528.68359.27344-.05078,4.63965Zm.02344-2.11231.0166-1.125-.7627.82813Z" style="fill: #1d1d1b"/>
    <path d="M110.8877,355.90625a2.30006,2.30006,0,0,1-.67383-.54395,2.08884,2.08884,0,0,1-.42481-.76171,2.18337,2.18337,0,0,1-.10742-.89258,2.26768,2.26768,0,0,1,2.44629-2.06153,2.24441,2.24441,0,0,1,.99023.32618,2.22117,2.22117,0,0,1,.73731.73242l.08691.12988-.68847.42285-.08008-.1289a1.43476,1.43476,0,0,0-1.11328-.67774,1.45772,1.45772,0,1,0,.96679,2.42188l.10059-.1084.60156.52539-.10644.11328a2.23942,2.23942,0,0,1-1.87305.75195A2.32771,2.32771,0,0,1,110.8877,355.90625Z" style="fill: #1d1d1b"/>
    <path d="M115.98438,355.99414l-.87305-4.24121,2.79394-.5752.15918.77442-1.99511.41015.1289.626,1.73828-.35937.16309.793-1.73828.35839.25976,1.2627,1.94141-.39942.16211.78614Z" style="fill: #1d1d1b"/>
    <path d="M121.59082,354.28125l-1.57129-3.15527-.95117.47265-.35742-.71777,2.63281-1.31055.35742.71875-.95215.47266,1.57129,3.15625Z" style="fill: #1d1d1b"/>
    <path d="M125.05078,352.19922l-2.66992-3.40039.63965-.50293,2.66894,3.39941Z" style="fill: #1d1d1b"/>
    <path d="M129.50781,347.55957l-2.29687-1.75488.54,1.834-1.90723-.042,2.29688,1.75293-.48926.64258-3.43653-2.624.46094-.60253,1.98926.04394-.56738-1.9082.46484-.60742,3.43555,2.623Z" style="fill: #1d1d1b"/>
    <path d="M131.12012,344.72754l-4.04-1.55371,1.02246-2.66016.7373.28418-.73046,1.89942.59667.22949.63575-1.65723.75586.29-.63672,1.6582,1.20215.46192.71093-1.85059.749.28809Z" style="fill: #1d1d1b"/>
  </g>
  <g>
    <path d="M44.83984,354.94043a2.27635,2.27635,0,0,1-.54394-.6748,2.06742,2.06742,0,0,1-.25391-.834,2.18221,2.18221,0,0,1,.084-.89648,2.27052,2.27052,0,0,1,2.83007-1.5,2.2736,2.2736,0,0,1,1.4668,1.40234l.05664.14453-.76172.26953L47.666,352.708a1.43427,1.43427,0,0,0-.94629-.89942,1.45931,1.45931,0,1,0,.43359,2.57422l.12109-.083.47754.64161-.12793.08789a2.24669,2.24669,0,0,1-.958.40722,2.21236,2.21236,0,0,1-1.03418-.06933A2.27482,2.27482,0,0,1,44.83984,354.94043Z" style="fill: #1d1d1b"/>
    <path d="M49.56738,353.97949a2.26563,2.26563,0,1,1,2.3418,2.17383A2.26674,2.26674,0,0,1,49.56738,353.97949Zm.81446-.02929a1.44775,1.44775,0,1,0,1.39453-1.51075A1.45145,1.45145,0,0,0,50.38184,353.9502Z" style="fill: #1d1d1b"/>
    <path d="M57.41992,355.08887a2.78328,2.78328,0,0,1-1.41113-.18555l-.14356-.05957.30274-.75.14355.05859a1.98959,1.98959,0,0,0,.99707.14454l.00586-.002a1.39172,1.39172,0,0,0,.26856-.06152.97448.97448,0,0,0,.35547-.21582.47424.47424,0,0,0,.15039-.52344.36494.36494,0,0,0-.30176-.23535,1.74675,1.74675,0,0,0-.59473.01074,4.39966,4.39966,0,0,1-1.02246.044,1.29824,1.29824,0,0,1-.55566-.26172,1.12738,1.12738,0,0,1-.33692-.5,1.237,1.237,0,0,1-.02441-.707,1.45006,1.45006,0,0,1,.36328-.57813,1.67555,1.67555,0,0,1,.62988-.38965,2.85758,2.85758,0,0,1,.3125-.084,2.44771,2.44771,0,0,1,1.25879.13672l.1416.05371-.27929.76172-.1416-.05371a1.52739,1.52739,0,0,0-1.03125-.05664.92285.92285,0,0,0-.32911.20117.43661.43661,0,0,0-.14062.4414.32513.32513,0,0,0,.25391.22657,1.65437,1.65437,0,0,0,.60546-.001c.03614-.00586.08692-.01074.13672-.01563a2.76347,2.76347,0,0,1,.8711-.03027,1.22689,1.22689,0,0,1,.59179.25586,1.121,1.121,0,0,1,.35547.5127,1.23806,1.23806,0,0,1,.03418.75488,1.499,1.499,0,0,1-.38476.61133,1.55564,1.55564,0,0,1-.65235.39746A2.15431,2.15431,0,0,1,57.41992,355.08887Z" style="fill: #1d1d1b"/>
    <path d="M63.85059,351.55371l-1.72852-2.31738.0166,1.91211-1.82422-.56543,1.7295,2.31933-.64747.4834L58.81055,349.917l.6084-.45312,1.90332.58984-.02344-1.99219.61426-.457,2.58593,3.4668Z" style="fill: #1d1d1b"/>
    <path d="M66.32031,349.042,62.9375,346.3457l.50781-.63672,3.38282,2.69629Z" style="fill: #1d1d1b"/>
    <path d="M68.62988,345.37305a2.284,2.284,0,0,1-.74414.44238,2.06054,2.06054,0,0,1-.86035.13281,2.19451,2.19451,0,0,1-.875-.208,2.26734,2.26734,0,0,1-1.083-3.00878,2.26055,2.26055,0,0,1,1.5918-1.252l.15137-.03613.15918.792-.14942.03028a1.43388,1.43388,0,0,0-1.02148.80859,1.45653,1.45653,0,1,0,2.60547-.06641l-.06641-.13086.70117-.38183.07032.13965a2.23386,2.23386,0,0,1,.2666,1.00293,2.19947,2.19947,0,0,1-.21387,1.01269A2.28708,2.28708,0,0,1,68.62988,345.37305Z" style="fill: #1d1d1b"/>
    <path d="M70.80762,334.71191l-4.1211,2.124-.09472-.87012,2.8789-1.47656-3.12695-.83692-.09277-.86328,4.47754,1.19239Z" style="fill: #1d1d1b"/>
    <path d="M68.1416,331.56445a2.26417,2.26417,0,1,1,1.17188-2.97168A2.265,2.265,0,0,1,68.1416,331.56445Zm-.32324-.74707a1.44693,1.44693,0,1,0-1.91406-.748A1.45227,1.45227,0,0,0,67.81836,330.81738Z" style="fill: #1d1d1b"/>
    <path d="M67.01758,324.72949l-3.416,2.64649-.498-.64258,3.416-2.64746Z" style="fill: #1d1d1b"/>
    <path d="M64.95313,322.2666l-2.72266,3.36524-1.12988-.91407a2.16539,2.16539,0,1,1,2.72265-3.36621Zm-1.63086-.2959a1.36893,1.36893,0,1,0-1.72071,2.12793l.501.40528,1.7207-2.127Z" style="fill: #1d1d1b"/>
  </g>
  <g>
    <rect x="74.32852" y="343.25364" width="16.88116" height="32.74636" rx="3.20745" ry="3.20745" style="fill: #252626"/>
    <path d="M86.61544,364.10641a1.82118,1.82118,0,0,1-1.10036,1.03443,2.30454,2.30454,0,0,1-.75781.125,2.27836,2.27836,0,0,1-1.04757-.19755,1.8224,1.8224,0,0,1-.58631-.46126,1.41958,1.41958,0,0,1-.28342-.64567,4.30879,4.30879,0,0,1-.05936-.71159q0-.50115.01971-.69189a.53345.53345,0,0,1,.04622-.21749,1.19465,1.19465,0,0,1,.43475-.03942h3.08382a.99665.99665,0,0,1,.21749.01971.19618.19618,0,0,1,.13162.10534.67137.67137,0,0,1,.05936.25691q.013.17139.01337.4744a2.3816,2.3816,0,0,1-.17151.949M81.292,351.28477a.293.293,0,0,1,.107-.19591.5384.5384,0,0,1,.28506-.08915q.196-.01761.55252-.01784a2.80553,2.80553,0,0,1,2.12987.77518,2.88441,2.88441,0,0,1,.73975,2.07661c0,.08211-.01713.25925-.02792.38078-.06827-.00094-.13655-.00188-.20482-.00328q-.28049-.006-.60954-.0305a.15278.15278,0,0,0-.0793.14006.20325.20325,0,0,0,.05514.16471l.21913.0244a1.54814,1.54814,0,0,1,.36577.07906q.1464.0549.1464.1159a.7028.7028,0,0,1-.0732.22547q-.0732.1647-.195.396-.12211.23192-.26207.49387-.14042.26218-.2623.49363-.28049.5367-.57294,1.05438-.29246.51839-.5727,1.0058-.354-.63381-.69494-1.32864-.34137-.69506-.68274-1.37767c-.01643-.03238-.04458-.09315-.08517-.18277q-.06123-.13374-.1281-.28647c-.04481-.10159-.08352-.19684-.1159-.28647a.66516.66516,0,0,1-.04856-.18277c0-.0488.03214-.08727.09736-.1159a2.41574,2.41574,0,0,1,.41458-.10346l.15836-.0244a.21353.21353,0,0,0,.0549-.17081.13.13,0,0,0-.09127-.134q-.25971.0204-.63722.02932v-2.58643a2.507,2.507,0,0,1,.01783-.33878m1.00933,9.125q0,.48777-.0122.7801a1.28761,1.28761,0,0,1-.0854.457.48623.48623,0,0,1-.06171.1044l-.00164.00094a2.28289,2.28289,0,0,1-.35826-.09455.59651.59651,0,0,1-.34747-.32072,1.88056,1.88056,0,0,1-.13373-.6506q-.02675-.41844-.02675-1.11373v-2.53786l.63722,1.24159q.13374.25621.21327.43287a1.90027,1.90027,0,0,1,.11567.32917,2.00328,2.00328,0,0,1,.0488.32307q.012.17068.0122.42654Zm5.03092,1.50742q.07917-.21961.15836-.46924.07919-.24987.1464-.48777.06687-.23755.10371-.39627a.1901.1901,0,0,0-.14031-.10957.18466.18466,0,0,0-.1647.0244,5.71306,5.71306,0,0,1-.46924.78011,1.47265,1.47265,0,0,1-.396.40237,1.31,1.31,0,0,1-.2257.08516,1.791,1.791,0,0,1-.30478.0549q-.17665.01831-.42653.03051t-.60343.0122q-.40226,0-.66444-.0244a3.33721,3.33721,0,0,1-.42044-.06077,1.0522,1.0522,0,0,1-.24987-.0854.43794.43794,0,0,1-.1403-.1098.846.846,0,0,1-.18887-.46924,6.04929,6.04929,0,0,1-.0427-.79864v-.8045c.00188-.11145.00516-.21.00986-.29445a1.92578,1.92578,0,0,1,.06687-.42044,2.12179,2.12179,0,0,1,.1708-.41457c.0183-.035.03894-.07273.06076-.11238.02933-.00094.05983-.00141.09385-.00141h.70714q.35334,0,.579.0122a1.78039,1.78039,0,0,1,.35967.04857.42951.42951,0,0,1,.26207.1708.8698.8698,0,0,1,.11591.29257l.10956.47534a.18505.18505,0,0,0,.16447.0549.17527.17527,0,0,0,.1525-.0671q0-.20729-.0244-.52414-.02464-.31709-.0244-.64614,0-.35333.0244-.6825.02429-.3294.0244-.54877a.177.177,0,0,0-.1525-.0671.18629.18629,0,0,0-.16447.0549l-.09737.5a.76186.76186,0,0,1-.1159.31087.38646.38646,0,0,1-.17666.11566,1.72043,1.72043,0,0,1-.378.05491q-.26853.0183-.65834.01829h-.55089l.0122-.02017.76791-1.32865q.23121-.39027.42067-.72543a6.5676,6.5676,0,0,1,.37163-.59124,2.10527,2.10527,0,0,1,.378-.41434,1.00627,1.00627,0,0,1,.08305-.06006.99485.99485,0,0,1,.46783.37281,1.3791,1.3791,0,0,1,.1586.32893q.06052.183.134.40237a.16527.16527,0,0,0,.1586.04881.18112.18112,0,0,0,.14616-.07321q-.02463-.195-.04246-.44483-.01864-.24987-.04293-.48754c-.01619-.1586-.03754-.30007-.05467-.42677a3.822,3.822,0,0,1-.03285-.58115,3.21012,3.21012,0,0,0-1.46754-2.6784,4.20836,4.20836,0,0,0-1.46143-.55252,10.53447,10.53447,0,0,0-1.96047-.16048q-1.123,0-1.96938.02675-.84674.02675-1.55974.1159a.22336.22336,0,0,0-.11567.20482.29673.29673,0,0,0,.08024.24072l.64145.07132a1.56932,1.56932,0,0,1,.47251.1159.49921.49921,0,0,1,.24941.294,1.9442,1.9442,0,0,1,.09807.57035q.01758.3565.01782.92674v6.57682q0,.69469-.01782,1.11373a1.77458,1.77458,0,0,1-.12482.6506.60544.60544,0,0,1-.32073.32072,2.527,2.527,0,0,1-.606.14265l-.37445.05349a.27672.27672,0,0,0-.07321.22171c-.00046.19075-.00257.25128-.00656.46619q-.00635.36916-.03355.82539c.01806.04481.06921.07155.15437.0807a.19314.19314,0,0,0,.18136-.05372l.04012-.282a1.90386,1.90386,0,0,1,.10746-.4561.45572.45572,0,0,1,.24166-.24166,1.332,1.332,0,0,1,.48988-.09431q.31533-.013.839-.01314h1.69113a.83943.83943,0,0,1,.168.01314.12065.12065,0,0,1,.087.07413.56941.56941,0,0,1,.03378.1877c.00423.08517.00658.20341.00658.35568a1.40224,1.40224,0,0,1-.10066.60414.90114.90114,0,0,1-.32894.34911q-.22839.16119-.50325.33551-.27555.17419-.55041.34887-.2752.17455-.53024.33574-.25515.16083-.443.29515a7.44712,7.44712,0,0,0-.839.67805,2.97065,2.97065,0,0,0-.51663.63745,2.23551,2.23551,0,0,0-.26183.67782,3.88405,3.88405,0,0,0-.07367.78526,1.98121,1.98121,0,0,0,.06686.59054.10915.10915,0,0,0,.18817-.01338,1.766,1.766,0,0,1,.12739-.50982,1.56512,1.56512,0,0,1,.24846-.41621,5.18875,5.18875,0,0,1,.63746-.65787q.35544-.30864.78527-.63089.42934-.322.96639-.66421.53669-.34242,1.1813-.74514a.83955.83955,0,0,1,.16776-.08728.14659.14659,0,0,1,.15437.02018,2.74833,2.74833,0,0,0,.28177.54361,2.90524,2.90524,0,0,0,.46314.54384,2.41009,2.41009,0,0,0,.64426.42278,2.04368,2.04368,0,0,0,.85237.16776,2.01046,2.01046,0,0,0,1.16793-.31557,2.21787,2.21787,0,0,0,.71136-.79864,2.95934,2.95934,0,0,0,.32894-1.04006,9.07734,9.07734,0,0,0,.07367-1.20171,5.063,5.063,0,0,1,.137-1.27538" style="fill: #e6e5e5"/>
  </g>
  <g>
    <path d="M2.5,23.83008a.86458.86458,0,0,1-.32031-.06055.80032.80032,0,0,1-.26953-.17969,1.245,1.245,0,0,1-.18067-.2705.8089.8089,0,0,1-.05957-.30957.70318.70318,0,0,1,.07031-.32032.92524.92524,0,0,1,.16993-.26953.80032.80032,0,0,1,.26953-.17969.88168.88168,0,0,1,.63965,0,.67593.67593,0,0,1,.26074.17969,1.01163,1.01163,0,0,1,.18945.26953.86837.86837,0,0,1,.06055.32032.80968.80968,0,0,1-.06055.30957,1.001,1.001,0,0,1-.18945.2705.67593.67593,0,0,1-.26074.17969A.86327.86327,0,0,1,2.5,23.83008Z"/>
    <path d="M13.21,23.00977a.82814.82814,0,0,1,.83008-.83008h0a.82814.82814,0,0,1,.83008.83008h0a.8261.8261,0,0,1-.83008.82031h0A.8261.8261,0,0,1,13.21,23.00977Zm-5.77051,0a.82814.82814,0,0,1,.83008-.83008h0a.82814.82814,0,0,1,.83008.83008h0a.8261.8261,0,0,1-.83008.82031h0A.8261.8261,0,0,1,7.43945,23.00977Z"/>
    <path d="M19.80957,23.83008a.90232.90232,0,0,1-.31934-.06055.75753.75753,0,0,1-.26074-.17969.79468.79468,0,0,1-.17969-.2705.81888.81888,0,0,1-.07031-.30957.878.878,0,0,1,.07031-.32032.80042.80042,0,0,1,.17969-.26953A.64334.64334,0,0,1,19.5,22.24023a.8308.8308,0,0,1,.89941.17969.80335.80335,0,0,1,.18067.26953.86755.86755,0,0,1,.05957.32032.8089.8089,0,0,1-.05957.30957.79754.79754,0,0,1-.18067.2705A.822.822,0,0,1,19.80957,23.83008Z"/>
  </g>
  <g>
    <path d="M145.72949,23.83008a.82331.82331,0,0,1-.31933-.06055.82115.82115,0,0,1-.4502-.45019.85112.85112,0,0,1-.06055-.30957.86837.86837,0,0,1,.06055-.32032.80042.80042,0,0,1,.17969-.26953.711.711,0,0,1,.27051-.17969.85586.85586,0,0,1,.62988,0,.70745.70745,0,0,1,.26953.17969.80317.80317,0,0,1,.18066.26953.897.897,0,0,1,.06934.32032.88672.88672,0,0,1-.06934.30957.82934.82934,0,0,1-.45019.45019A.81827.81827,0,0,1,145.72949,23.83008Z"/>
    <path d="M156.08008,23.00977a.82814.82814,0,0,1,.83008-.83008h0a.835.835,0,0,1,.83007.83008h0a.83307.83307,0,0,1-.83007.82031h0A.8261.8261,0,0,1,156.08008,23.00977Zm-5.58985,0a.82731.82731,0,0,1,.82911-.83008h0a.8344.8344,0,0,1,.83007.83008h0a.83243.83243,0,0,1-.83007.82031h0A.82526.82526,0,0,1,150.49023,23.00977Z"/>
    <path d="M162.5,23.83008a.82038.82038,0,0,1-.58984-.24024.84273.84273,0,0,1-.24024-.58007.86626.86626,0,0,1,.24024-.58985.80032.80032,0,0,1,.26953-.17969.88168.88168,0,0,1,.63965,0,.79468.79468,0,0,1,.2705.17969.946.946,0,0,1,.16993.26953.71609.71609,0,0,1,.07031.32032.84273.84273,0,0,1-.24024.58007A.82361.82361,0,0,1,162.5,23.83008Z"/>
  </g>
</svg>
