<?xml version="1.0" encoding="UTF-8" standalone="no"?>
<svg
   xmlns:dc="http://purl.org/dc/elements/1.1/"
   xmlns:cc="http://creativecommons.org/ns#"
   xmlns:rdf="http://www.w3.org/1999/02/22-rdf-syntax-ns#"
   xmlns:svg="http://www.w3.org/2000/svg"
   xmlns="http://www.w3.org/2000/svg"
   xmlns:sodipodi="http://sodipodi.sourceforge.net/DTD/sodipodi-0.dtd"
   xmlns:inkscape="http://www.inkscape.org/namespaces/inkscape"
   id="Layer_1"
   data-name="Layer 1"
   width="165"
   height="380"
   viewBox="0 0 165 380"
   version="1.1"
   sodipodi:docname="Pulsars.svg"
   inkscape:version="0.92.2 (5c3e80d, 2017-08-06)">
  <metadata
     id="metadata503">
    <rdf:RDF>
      <cc:Work
         rdf:about="">
        <dc:format>image/svg+xml</dc:format>
        <dc:type
           rdf:resource="http://purl.org/dc/dcmitype/StillImage" />
        <dc:title>BlackHolesBG</dc:title>
      </cc:Work>
    </rdf:RDF>
  </metadata>
  <defs
     id="defs501" />
  <sodipodi:namedview
     pagecolor="#ffffff"
     bordercolor="#666666"
     borderopacity="1"
     objecttolerance="10"
     gridtolerance="10"
     guidetolerance="10"
     inkscape:pageopacity="0"
     inkscape:pageshadow="2"
     inkscape:window-width="1920"
     inkscape:window-height="1017"
     id="namedview499"
     showgrid="false"
     inkscape:zoom="2.0736842"
     inkscape:cx="-2.3223355"
     inkscape:cy="112.84264"
     inkscape:window-x="-8"
     inkscape:window-y="-8"
     inkscape:window-maximized="1"
     inkscape:current-layer="Layer_1" />
  <title
     id="title2">BlackHolesBG</title>
  <rect
     width="165"
     height="380"
     style="fill:#e5e5e5;stroke-width:0.99999994"
     id="rect4"
     x="0"
     y="0" />
  <g
     id="g14">
    <g
       id="g10">
      <circle
         cx="23"
         cy="6"
         r="5.73633"
         style="fill:#bcbcbc"
         id="circle6" />
      <path
         d="M 23,0.52747 A 5.47253,5.47253 0 1 1 17.52751,6 5.47874,5.47874 0 0 1 23,0.52747 M 23,0 a 6,6 0 1 0 6,6 6,6 0 0 0 -6,-6 z"
         style="fill:#808080"
         id="path8"
         inkscape:connector-curvature="0" />
    </g>
    <polygon
       points="23.659,2.505 22.341,2.505 22.341,5.341 19.506,5.341 19.506,6.659 22.341,6.659 22.341,9.495 23.659,9.495 23.659,6.659 26.495,6.659 26.495,5.341 23.659,5.341 "
       style="fill:#6e6e6e"
       id="polygon12" />
  </g>
  <g
     id="g24"
     transform="translate(-30.000105)">
    <g
       id="g20">
      <circle
         cx="172"
         cy="6"
         r="5.73633"
         style="fill:#bcbcbc"
         id="circle16" />
      <path
         d="M 172,0.52747 A 5.47253,5.47253 0 1 1 166.52751,6 5.47874,5.47874 0 0 1 172,0.52747 M 172,0 a 6,6 0 1 0 6,6 6,6 0 0 0 -6,-6 z"
         style="fill:#808080"
         id="path18"
         inkscape:connector-curvature="0" />
    </g>
    <polygon
       points="171.341,2.505 171.341,5.341 168.506,5.341 168.506,6.659 171.341,6.659 171.341,9.495 172.659,9.495 172.659,6.659 175.495,6.659 175.495,5.341 172.659,5.341 172.659,2.505 "
       style="fill:#6e6e6e"
       id="polygon22" />
  </g>
  <g
     id="g34">
    <g
       id="g30">
      <circle
         cx="23"
         cy="374"
         r="5.73633"
         style="fill:#bcbcbc"
         id="circle26" />
      <path
         d="M 23,368.52747 A 5.47253,5.47253 0 1 1 17.52751,374 5.47873,5.47873 0 0 1 23,368.52747 M 23,368 a 6,6 0 1 0 6,6 6,6 0 0 0 -6,-6 z"
         style="fill:#808080"
         id="path28"
         inkscape:connector-curvature="0" />
    </g>
    <polygon
       points="23.659,370.505 22.341,370.505 22.341,373.341 19.506,373.341 19.506,374.659 22.341,374.659 22.341,377.495 23.659,377.495 23.659,374.659 26.495,374.659 26.495,373.341 23.659,373.341 "
       style="fill:#6e6e6e"
       id="polygon32" />
  </g>
  <g
     id="g44"
     transform="translate(-30.000105)">
    <g
       id="g40">
      <circle
         cx="172"
         cy="374"
         r="5.73633"
         style="fill:#bcbcbc"
         id="circle36" />
      <path
         d="M 172,368.52747 A 5.47253,5.47253 0 1 1 166.52751,374 5.47873,5.47873 0 0 1 172,368.52747 M 172,368 a 6,6 0 1 0 6,6 6,6 0 0 0 -6,-6 z"
         style="fill:#808080"
         id="path38"
         inkscape:connector-curvature="0" />
    </g>
    <polygon
       points="171.341,370.505 171.341,373.341 168.506,373.341 168.506,374.659 171.341,374.659 171.341,377.495 172.659,377.495 172.659,374.659 175.495,374.659 175.495,373.341 172.659,373.341 172.659,370.505 "
       style="fill:#6e6e6e"
       id="polygon42" />
  </g>
  <circle
     cx="97.5"
     cy="333.4996"
     r="16.84425"
     style="fill:none"
     id="circle364" />
  <path
     inkscape:connector-curvature="0"
     id="path454"
     style="fill:#252626"
     d="m 82.4502,350.7583 a 0.82792,0.82792 0 0 1 -0.82813,-0.82813 v -16.84375 a 0.82813,0.82813 0 0 1 1.65625,0 v 16.84375 a 0.82792,0.82792 0 0 1 -0.82812,0.82813 z" />
  <g
     id="g480"
     transform="translate(-15)">
    <rect
       x="89"
       y="339"
       width="17"
       height="37"
       rx="3.2168801"
       ry="3.2168801"
       style="fill:#252626"
       id="rect476" />
    <path
       d="m 101.60765,363.80539 a 1.82124,1.82124 0 0 1 -1.10036,1.03443 2.30458,2.30458 0 0 1 -0.75781,0.12505 2.27849,2.27849 0 0 1 -1.04757,-0.19755 1.82242,1.82242 0 0 1 -0.58631,-0.46126 1.41958,1.41958 0 0 1 -0.28342,-0.64567 4.30888,4.30888 0 0 1 -0.05936,-0.71159 q 0,-0.50115 0.01971,-0.69189 A 0.53339,0.53339 0 0 1 97.83875,362.03942 1.1944,1.1944 0 0 1 98.2735,362 h 3.08382 a 0.99665,0.99665 0 0 1 0.21749,0.0197 0.19615,0.19615 0 0 1 0.13162,0.10534 0.67133,0.67133 0 0 1 0.0594,0.25691 q 0.013,0.17139 0.0134,0.4744 a 2.3816,2.3816 0 0 1 -0.17151,0.949 m -5.58982,-12.6265 a 0.293,0.293 0 0 1 0.107,-0.19591 0.5384,0.5384 0 0 1 0.28506,-0.0892 q 0.196,-0.0176 0.55252,-0.0178 a 2.80547,2.80547 0 0 1 2.12986,0.77518 2.88435,2.88435 0 0 1 0.73976,2.0766 c 0,0.0821 -0.01713,0.25925 -0.02793,0.38078 -0.06827,-9.3e-4 -0.13654,-0.002 -0.20481,-0.003 q -0.28048,-0.006 -0.60954,-0.0305 a 0.15279,0.15279 0 0 0 -0.0793,0.14007 0.20324,0.20324 0 0 0 0.05514,0.1647 l 0.21913,0.0244 a 1.54843,1.54843 0 0 1 0.36576,0.0791 q 0.14641,0.0549 0.1464,0.11591 a 0.70273,0.70273 0 0 1 -0.07319,0.22546 q -0.07321,0.16472 -0.195,0.396 -0.12211,0.23191 -0.26207,0.49387 -0.14041,0.26218 -0.2623,0.49364 -0.28049,0.53669 -0.57294,1.05437 -0.29245,0.51839 -0.5727,1.00581 -0.354,-0.63383 -0.69494,-1.32864 -0.34137,-0.69505 -0.68274,-1.37768 c -0.01643,-0.0324 -0.04458,-0.0931 -0.08517,-0.18277 q -0.06123,-0.13373 -0.1281,-0.28647 c -0.04481,-0.10159 -0.08352,-0.19684 -0.1159,-0.28646 a 0.66533,0.66533 0 0 1 -0.04856,-0.18277 c 0,-0.0488 0.03214,-0.0873 0.09736,-0.1159 a 2.41524,2.41524 0 0 1 0.41457,-0.10347 l 0.15837,-0.0244 a 0.21352,0.21352 0 0 0 0.0549,-0.1708 0.13,0.13 0 0 0 -0.09127,-0.134 q -0.25972,0.0204 -0.63722,0.0293 v -2.58643 a 2.50542,2.50542 0 0 1 0.01783,-0.33879 M 97,360.277 q 0,0.47489 -0.01188,0.75948 a 1.25331,1.25331 0 0 1 -0.08314,0.445 0.47365,0.47365 0 0 1 -0.06007,0.10164 l -0.0016,9.1e-4 a 2.22053,2.22053 0 0 1 -0.34879,-0.092 0.58072,0.58072 0 0 1 -0.33829,-0.31224 1.831,1.831 0 0 1 -0.13019,-0.6334 Q 96,360.139 96,359.462 v -2.47077 L 96.62038,358.2 q 0.1302,0.24944 0.20763,0.42143 a 1.85058,1.85058 0 0 1 0.11261,0.32046 1.94955,1.94955 0 0 1 0.0475,0.31453 q 0.01166,0.16617 0.01188,0.41526 z m 5.02887,1.53429 q 0.0792,-0.2196 0.15836,-0.46924 0.0792,-0.24987 0.1464,-0.48777 0.0669,-0.23754 0.10371,-0.39627 a 0.19006,0.19006 0 0 0 -0.14031,-0.10956 0.18464,0.18464 0 0 0 -0.1647,0.0244 5.7135,5.7135 0 0 1 -0.46924,0.7801 1.47265,1.47265 0 0 1 -0.396,0.40237 1.31,1.31 0 0 1 -0.2257,0.0852 1.791,1.791 0 0 1 -0.30477,0.0549 q -0.17667,0.0183 -0.42654,0.0305 -0.24987,0.0122 -0.60343,0.0122 -0.40225,0 -0.66444,-0.0244 a 3.33536,3.33536 0 0 1 -0.42044,-0.0608 1.05175,1.05175 0 0 1 -0.24987,-0.0854 0.43794,0.43794 0 0 1 -0.1403,-0.1098 0.846,0.846 0 0 1 -0.18887,-0.46924 A 6.04929,6.04929 0 0 1 98,360.18986 v -0.8045 c 0,0 0.30071,-0.21 0.30541,-0.29445 a 1.92579,1.92579 0 0 1 0.06686,-0.42043 2.122,2.122 0 0 1 0.17081,-0.41457 c 0.0183,-0.035 0.03894,-0.0727 0.06076,-0.11238 0.02933,-9.4e-4 0.05982,-10e-4 0.09385,-1.14353 h 0.70714 c 0.23555,1.14212 0.42864,1.14611 0.579,1.15432 a 1.7806,1.7806 0 0 1 0.35967,0.0486 0.42952,0.42952 0 0 1 0.26207,0.17081 0.86944,0.86944 0 0 1 0.1159,0.29256 l 0.10957,0.47534 a 0.185,0.185 0 0 0 0.16447,0.0549 0.17527,0.17527 0 0 0 0.1525,-0.0671 q 0,-0.20729 -0.0244,-0.52414 -0.0246,-0.31708 -0.0244,-0.64613 0,-0.35334 0.0244,-0.68251 0.0243,-0.3294 0.0244,-0.54877 a 0.177,0.177 0 0 0 -0.1525,-0.0671 0.18631,0.18631 0 0 0 -0.16447,0.0549 l -0.0974,0.5 a 0.76186,0.76186 0 0 1 -0.1159,0.31087 0.38645,0.38645 0 0 1 -0.17667,0.11567 1.71974,1.71974 0 0 1 -0.378,0.0549 2.67589,2.67589 0 0 0 -0.65834,0.303 h -0.55089 c 0,0 0.008,-0.29779 0.0122,-0.30483 l 0.76791,-1.32864 q 0.23121,-0.39029 0.42067,-0.72544 a 6.5676,6.5676 0 0 1 0.37163,-0.59124 2.10576,2.10576 0 0 1 0.378,-0.41433 0.5521,0.5521 0 0 1 0.55089,0.31274 1.379,1.379 0 0 1 0.1586,0.32894 q 0.0605,0.183 0.134,0.40237 a 0.16527,0.16527 0 0 0 0.1586,0.0488 0.18115,0.18115 0 0 0 0.14616,-0.0732 q -0.0246,-0.195 -0.0425,-0.44484 -0.0186,-0.24987 -0.0429,-0.48754 c -0.0162,-0.1586 -0.0375,-0.30007 -0.0547,-0.42677 a 3.82189,3.82189 0 0 1 -0.0329,-0.58114 3.21015,3.21015 0 0 0 -1.46754,-2.6784 4.20837,4.20837 0 0 0 -1.46143,-0.55253 10.53447,10.53447 0 0 0 -1.96047,-0.16048 q -1.123,0 -1.96938,0.0267 -0.84674,0.0267 -1.55974,0.1159 a 0.22334,0.22334 0 0 0 -0.11567,0.20482 0.29673,0.29673 0 0 0 0.08024,0.24072 l 0.64145,0.0713 a 1.56928,1.56928 0 0 1 0.47251,0.11591 0.49911,0.49911 0 0 1 0.2494,0.294 1.94355,1.94355 0 0 1 0.09807,0.57036 A 2.0401,2.0401 0 0 0 95,352.89 v 6.57681 a 2.91377,2.91377 0 0 0 -0.21293,1.11373 1.7744,1.7744 0 0 1 -0.12481,0.6506 0.60544,0.60544 0 0 1 -0.32073,0.32072 2.52647,2.52647 0 0 1 -0.606,0.14265 l -0.37445,0.0535 a 0.2767,0.2767 0 0 0 -0.07321,0.22172 c -4.6e-4,0.19074 -0.0026,0.25127 -0.0066,0.46618 q -0.0064,0.36918 -0.03356,0.82539 c 0.01807,0.0448 0.06922,0.0716 0.15438,0.0807 a 0.19312,0.19312 0 0 0 0.18136,-0.0537 l 0.04012,-0.282 a 1.90386,1.90386 0 0 1 0.10746,-0.4561 0.45572,0.45572 0 0 1 0.24165,-0.24165 1.332,1.332 0 0 1 0.48989,-0.0943 5.56109,5.56109 0 0 0 0.839,-0.21415 h 1.69113 a 0.84018,0.84018 0 0 1 0.168,0.0131 0.12068,0.12068 0 0 1 0.087,0.0741 0.56934,0.56934 0 0 1 0.03378,0.18769 c 0.0042,0.0852 0.0066,0.20342 0.0066,0.35568 a 1.40227,1.40227 0 0 1 -0.10065,0.60414 0.90117,0.90117 0 0 1 -0.32894,0.34912 q -0.22839,0.16117 -0.50325,0.3355 -0.27555,0.17421 -0.55042,0.34888 -0.27519,0.17456 -0.53023,0.33574 -0.25515,0.16083 -0.443,0.29514 a 7.44843,7.44843 0 0 0 -0.839,0.678 2.97038,2.97038 0 0 0 -0.51662,0.63746 2.23538,2.23538 0 0 0 -0.26184,0.67781 3.88494,3.88494 0 0 0 -0.07367,0.78527 1.98079,1.98079 0 0 0 0.06687,0.59053 0.10914,0.10914 0 0 0 0.18817,-0.0134 1.766,1.766 0 0 1 0.12739,-0.50983 1.56512,1.56512 0 0 1 0.24846,-0.41621 5.18941,5.18941 0 0 1 0.63746,-0.65787 q 0.35544,-0.30864 0.78526,-0.63089 0.42936,-0.322 0.9664,-0.6642 0.53669,-0.34244 1.1813,-0.74515 a 0.83947,0.83947 0 0 1 0.16775,-0.0873 0.14661,0.14661 0 0 1 0.15438,0.0202 2.74833,2.74833 0 0 0 0.28177,0.54361 2.90461,2.90461 0 0 0 0.46314,0.54384 2.4102,2.4102 0 0 0 0.64426,0.42279 2.04383,2.04383 0 0 0 0.85237,0.16775 2.01046,2.01046 0 0 0 1.16793,-0.31556 2.21812,2.21812 0 0 0 0.71136,-0.79864 2.9594,2.9594 0 0 0 0.32894,-1.04006 9.07584,9.07584 0 0 0 0.0737,-1.20172 5.06323,5.06323 0 0 1 0.137,-1.27538"
       style="fill:#e6e5e5"
       id="path478"
       inkscape:connector-curvature="0" />
  </g>
  <g
     id="g488">
    <path
       d="M 2.5,23.83057 A 0.86832,0.86832 0 0 1 2.17969,23.77 0.80032,0.80032 0 0 1 1.91016,23.59031 1.2997,1.2997 0 0 1 1.72949,23.32078 0.87128,0.87128 0 0 1 1.66992,23.00047 a 0.86114,0.86114 0 0 1 0.24024,-0.58008 0.851,0.851 0 0 1 1.16992,0 0.82838,0.82838 0 0 1 0.25,0.58008 A 0.87216,0.87216 0 0 1 3.26953,23.32078 1.01163,1.01163 0 0 1 3.08008,23.59031 0.67593,0.67593 0 0 1 2.81934,23.77 0.86327,0.86327 0 0 1 2.5,23.83057 Z"
       id="path482"
       inkscape:connector-curvature="0" />
    <path
       d="m 35.33984,23.01025 a 0.82814,0.82814 0 0 1 0.83008,-0.83008 v 0 A 0.82814,0.82814 0 0 1 37,23.01025 v 0 a 0.8261,0.8261 0 0 1 -0.83008,0.82032 v 0 a 0.8261,0.8261 0 0 1 -0.83008,-0.82032 z m -4.80957,0 a 0.82731,0.82731 0 0 1 0.82911,-0.83008 v 0 a 0.83441,0.83441 0 0 1 0.83007,0.83008 v 0 a 0.83244,0.83244 0 0 1 -0.83007,0.82032 v 0 a 0.82526,0.82526 0 0 1 -0.82911,-0.82032 z m -4.81054,0 a 0.82813,0.82813 0 0 1 0.83007,-0.83008 v 0 a 0.82814,0.82814 0 0 1 0.83008,0.83008 v 0 a 0.8261,0.8261 0 0 1 -0.83008,0.82032 v 0 a 0.82609,0.82609 0 0 1 -0.83007,-0.82032 z m -4.80957,0 a 0.82813,0.82813 0 0 1 0.83007,-0.83008 v 0 a 0.82731,0.82731 0 0 1 0.82911,0.83008 v 0 a 0.82526,0.82526 0 0 1 -0.82911,0.82032 v 0 a 0.82609,0.82609 0 0 1 -0.83007,-0.82032 z m -4.81055,0 a 0.82814,0.82814 0 0 1 0.83008,-0.83008 v 0 a 0.82814,0.82814 0 0 1 0.83008,0.83008 v 0 a 0.8261,0.8261 0 0 1 -0.83008,0.82032 v 0 a 0.8261,0.8261 0 0 1 -0.83008,-0.82032 z m -4.80957,0 a 0.82814,0.82814 0 0 1 0.83008,-0.83008 v 0 a 0.82814,0.82814 0 0 1 0.83008,0.83008 v 0 a 0.8261,0.8261 0 0 1 -0.83008,0.82032 v 0 A 0.8261,0.8261 0 0 1 11.29,23.01025 Z m -4.81055,0 a 0.82814,0.82814 0 0 1 0.83008,-0.83008 v 0 a 0.82814,0.82814 0 0 1 0.83008,0.83008 v 0 a 0.8261,0.8261 0 0 1 -0.83008,0.82032 v 0 A 0.8261,0.8261 0 0 1 6.47949,23.01025 Z"
       id="path484"
       inkscape:connector-curvature="0" />
    <path
       d="m 40.97949,23.83057 a 0.86326,0.86326 0 0 1 -0.31933,-0.06055 0.82351,0.82351 0 0 1 -0.4502,-0.44922 0.87216,0.87216 0 0 1 -0.06055,-0.32031 0.85618,0.85618 0 0 1 0.06055,-0.31055 1.25921,1.25921 0 0 1 0.17969,-0.26953 0.84509,0.84509 0 0 1 0.91015,-0.17969 0.67253,0.67253 0 0 1 0.25977,0.17969 0.80317,0.80317 0 0 1 0.18066,0.26953 0.87063,0.87063 0 0 1 0.06934,0.31055 0.8811,0.8811 0 0 1 -0.06934,0.32031 0.80317,0.80317 0 0 1 -0.18066,0.26953 0.67253,0.67253 0 0 1 -0.25977,0.17969 0.86454,0.86454 0 0 1 -0.32031,0.06055 z"
       id="path486"
       inkscape:connector-curvature="0" />
  </g>
  <g
     id="g496"
     transform="translate(-30.000105)">
    <path
       d="m 153.9502,23.83057 a 0.8646,0.8646 0 0 1 -0.32032,-0.06055 0.8041,0.8041 0 0 1 -0.2705,-0.17969 0.968,0.968 0 0 1 -0.16993,-0.26953 0.87523,0.87523 0 0 1 -0.0693,-0.31055 0.83418,0.83418 0 0 1 0.23926,-0.58984 0.84874,0.84874 0 0 1 0.91015,-0.17969 0.79472,0.79472 0 0 1 0.27051,0.17969 0.83859,0.83859 0 0 1 0.17969,0.90039 1,1 0 0 1 -0.17969,0.26953 0.82364,0.82364 0 0 1 -0.58984,0.24024 z"
       id="path490"
       inkscape:connector-curvature="0" />
    <path
       d="m 186.84961,23.01025 a 0.82814,0.82814 0 0 1 0.83008,-0.83008 v 0 a 0.82814,0.82814 0 0 1 0.83008,0.83008 v 0 a 0.8261,0.8261 0 0 1 -0.83008,0.82032 v 0 a 0.8261,0.8261 0 0 1 -0.83008,-0.82032 z m -4.82031,0 a 0.82814,0.82814 0 0 1 0.83008,-0.83008 v 0 a 0.82813,0.82813 0 0 1 0.83007,0.83008 v 0 a 0.82609,0.82609 0 0 1 -0.83007,0.82032 v 0 a 0.8261,0.8261 0 0 1 -0.83008,-0.82032 z m -4.81934,0 a 0.83441,0.83441 0 0 1 0.83008,-0.83008 v 0 a 0.82814,0.82814 0 0 1 0.83008,0.83008 v 0 a 0.8261,0.8261 0 0 1 -0.83008,0.82032 v 0 A 0.83244,0.83244 0 0 1 177.21,23.01025 Z m -4.81055,0 a 0.82814,0.82814 0 0 1 0.83008,-0.83008 v 0 a 0.82609,0.82609 0 0 1 0.82031,0.83008 v 0 a 0.824,0.824 0 0 1 -0.82031,0.82032 v 0 a 0.8261,0.8261 0 0 1 -0.83008,-0.82032 z m -4.81933,0 a 0.82814,0.82814 0 0 1 0.83008,-0.83008 v 0 a 0.835,0.835 0 0 1 0.83007,0.83008 v 0 a 0.83307,0.83307 0 0 1 -0.83007,0.82032 v 0 a 0.8261,0.8261 0 0 1 -0.83008,-0.82032 z m -4.82031,0 a 0.82813,0.82813 0 0 1 0.83007,-0.83008 v 0 a 0.82814,0.82814 0 0 1 0.83008,0.83008 v 0 a 0.8261,0.8261 0 0 1 -0.83008,0.82032 v 0 a 0.82609,0.82609 0 0 1 -0.83007,-0.82032 z m -4.82032,0 a 0.82814,0.82814 0 0 1 0.83008,-0.83008 v 0 a 0.82814,0.82814 0 0 1 0.83008,0.83008 v 0 a 0.8261,0.8261 0 0 1 -0.83008,0.82032 v 0 a 0.8261,0.8261 0 0 1 -0.83008,-0.82032 z"
       id="path492"
       inkscape:connector-curvature="0" />
    <path
       d="m 192.5,23.83057 a 0.86458,0.86458 0 0 1 -0.32031,-0.06055 0.80032,0.80032 0 0 1 -0.26953,-0.17969 0.84234,0.84234 0 0 1 -0.18067,-0.90039 1.26251,1.26251 0 0 1 0.18067,-0.26953 0.80032,0.80032 0 0 1 0.26953,-0.17969 0.88147,0.88147 0 0 1 0.63965,0 0.67593,0.67593 0 0 1 0.26074,0.17969 0.80042,0.80042 0 0 1 0.17969,0.26953 0.71608,0.71608 0 0 1 0.0703,0.32031 0.67573,0.67573 0 0 1 -0.0703,0.31055 0.80042,0.80042 0 0 1 -0.17969,0.26953 0.78572,0.78572 0 0 1 -0.58008,0.24024 z"
       id="path494"
       inkscape:connector-curvature="0" />
  </g>
</svg>
