<svg id="Layer_1" data-name="Layer 1" xmlns="http://www.w3.org/2000/svg" xmlns:xlink="http://www.w3.org/1999/xlink" width="165" height="380" viewBox="0 0 165 380">
  <defs>
    <symbol id="screw_2" data-name="screw 2" viewBox="0 0 12 12">
      <g>
        <g>
          <circle cx="6.00004" cy="6" r="5.73626" style="fill: #bcbcbc"/>
          <path d="M6,.52734A5.47266,5.47266,0,1,1,.52738,6V6A5.47893,5.47893,0,0,1,6,.52734M6,0a6,6,0,1,0,6,6A6,6,0,0,0,6,0Z" style="fill: gray"/>
        </g>
        <polygon points="9.495 5.341 6.659 5.341 6.659 2.505 5.341 2.505 5.341 5.341 2.506 5.341 2.506 6.659 5.341 6.659 5.341 9.495 6.659 9.495 6.659 6.659 9.495 6.659 9.495 5.341" style="fill: #6e6e6e"/>
      </g>
    </symbol>
  </defs>
  <title>BlankInfo-01</title>
  <rect width="165" height="380" style="fill: #e5e5e5"/>
  <use width="12" height="12" transform="translate(17.00004 1)" xlink:href="#screw_2"/>
  <g>
    <g>
      <circle cx="142.00008" cy="7" r="5.73626" style="fill: #bcbcbc"/>
      <path d="M142,1.52734A5.47266,5.47266,0,1,1,136.52742,7V7A5.47893,5.47893,0,0,1,142,1.52734M142,1a6,6,0,1,0,6,6A6,6,0,0,0,142,1Z" style="fill: gray"/>
    </g>
    <polygon points="145.495 6.341 142.659 6.341 142.659 3.505 141.341 3.505 141.341 6.341 138.506 6.341 138.506 7.659 141.341 7.659 141.341 10.495 142.659 10.495 142.659 7.659 145.495 7.659 145.495 6.341" style="fill: #6e6e6e"/>
  </g>
  <g>
    <g>
      <circle cx="23.00008" cy="373" r="5.73626" style="fill: #bcbcbc"/>
      <path d="M23,367.52734A5.47266,5.47266,0,1,1,17.52742,373v0A5.47893,5.47893,0,0,1,23,367.52734M23,367a6,6,0,1,0,6,6A6,6,0,0,0,23,367Z" style="fill: gray"/>
    </g>
    <polygon points="26.495 372.341 23.659 372.341 23.659 369.505 22.341 369.505 22.341 372.341 19.506 372.341 19.506 373.659 22.341 373.659 22.341 376.495 23.659 376.495 23.659 373.659 26.495 373.659 26.495 372.341" style="fill: #6e6e6e"/>
  </g>
  <g>
    <g>
      <circle cx="142.00008" cy="373" r="5.73626" style="fill: #bcbcbc"/>
      <path d="M142,367.52734A5.47266,5.47266,0,1,1,136.52742,373v0A5.47893,5.47893,0,0,1,142,367.52734M142,367a6,6,0,1,0,6,6A6,6,0,0,0,142,367Z" style="fill: gray"/>
    </g>
    <polygon points="145.495 372.341 142.659 372.341 142.659 369.505 141.341 369.505 141.341 372.341 138.506 372.341 138.506 373.659 141.341 373.659 141.341 376.495 142.659 376.495 142.659 373.659 145.495 373.659 145.495 372.341" style="fill: #6e6e6e"/>
  </g>
  <g>
    <rect x="61.17324" y="52.07509" width="47.33223" height="103.0172" rx="8.9566" ry="8.9566" style="fill: #252626"/>
    <path d="M96.21846,121.403a5.07059,5.07059,0,0,1-3.06367,2.88011,6.41633,6.41633,0,0,1-2.10994.34817,6.34358,6.34358,0,0,1-2.91669-.55,5.07429,5.07429,0,0,1-1.63245-1.28426,3.95251,3.95251,0,0,1-.78909-1.7977,11.99648,11.99648,0,0,1-.16528-1.98127q0-1.3953.05488-1.92638a1.48514,1.48514,0,0,1,.12868-.60555,3.326,3.326,0,0,1,1.21044-.10975h8.58613a2.77527,2.77527,0,0,1,.60555.05487.54619.54619,0,0,1,.36647.29331,1.86881,1.86881,0,0,1,.16526.71529q.03624.47719.03724,1.32084a6.63088,6.63088,0,0,1-.47753,2.64234M81.39656,85.70432a.81572.81572,0,0,1,.29789-.54545,1.49911,1.49911,0,0,1,.79368-.24823q.54575-.049,1.53835-.04965a7.81122,7.81122,0,0,1,5.93007,2.15829,8.0308,8.0308,0,0,1,2.05966,5.78179c0,.22863-.04768.72182-.07774,1.06019-.19009-.00261-.38019-.00522-.57027-.00914q-.78095-.01667-1.6971-.08492a.42541.42541,0,0,0-.2208.39.566.566,0,0,0,.15352.45857l.61012.06794a4.3099,4.3099,0,0,1,1.01838.22014q.40764.15285.40762.3227a1.95636,1.95636,0,0,1-.2038.62775q-.20382.45858-.54283,1.10267-.34.64572-.72967,1.375-.391.73-.73033,1.37441-.78093,1.49428-1.59519,2.93564-.81428,1.44331-1.59455,2.80042-.98574-1.76472-1.93488-3.69927-.95046-1.93521-1.90092-3.8358c-.04573-.09014-.12412-.25933-.23713-.50887q-.17048-.37234-.35666-.7976c-.12477-.28285-.23254-.54806-.32269-.7976a1.852,1.852,0,0,1-.13522-.50887c0-.13587.08949-.243.27108-.3227a6.72572,6.72572,0,0,1,1.15428-.28807l.44093-.06794a.59449.59449,0,0,0,.15286-.47556.36187.36187,0,0,0-.25411-.373q-.72313.05682-1.77419.08165V86.64759a6.97874,6.97874,0,0,1,.04964-.94327m2.81022,25.40627q0,1.35807-.034,2.172a3.58447,3.58447,0,0,1-.23777,1.27251,1.35459,1.35459,0,0,1-.1718.29068l-.00458.00262a6.35233,6.35233,0,0,1-.99748-.26326,1.66069,1.66069,0,0,1-.96745-.893,5.23564,5.23564,0,0,1-.37233-1.81142q-.07449-1.16505-.07448-3.10091v-7.066l1.77419,3.45692q.37234.71334.59379,1.20522a5.29074,5.29074,0,0,1,.32205.91649,5.57711,5.57711,0,0,1,.13586.8995q.03332.47523.034,1.18758Zm14.00733,4.197q.22044-.61143.44093-1.30647.22047-.6957.40761-1.35807.18618-.66141.28874-1.10332a.52919.52919,0,0,0-.39065-.30506.51418.51418,0,0,0-.45857.06794,15.90667,15.90667,0,0,1-1.30647,2.172,4.1,4.1,0,0,1-1.10265,1.1203,3.64683,3.64683,0,0,1-.62842.23713,4.987,4.987,0,0,1-.84856.15285q-.49186.051-1.18757.08492-.69569.0343-1.68012.034-1.12,0-1.85-.06793a9.28908,9.28908,0,0,1-1.17059-.16919,2.92868,2.92868,0,0,1-.6957-.23778,1.2191,1.2191,0,0,1-.39065-.30572,2.35544,2.35544,0,0,1-.52585-1.30647,16.84341,16.84341,0,0,1-.11889-2.22361v-2.23994c.00524-.31029.01437-.58464.02745-.81981a5.3627,5.3627,0,0,1,.18618-1.1706,5.90722,5.90722,0,0,1,.47555-1.15426c.051-.09733.10843-.2025.16919-.3129.08165-.00261.16656-.00392.26129-.00392h1.96885q.98378,0,1.61218.034a4.95643,4.95643,0,0,1,1.0014.13522,1.19578,1.19578,0,0,1,.72967.47555,2.42162,2.42162,0,0,1,.32271.81459l.305,1.32345a.51523.51523,0,0,0,.45793.15286.48794.48794,0,0,0,.42459-.18683q0-.57714-.06793-1.45932-.06861-.88286-.06794-1.799,0-.98377.06794-1.90026.06761-.91714.06793-1.52792a.4928.4928,0,0,0-.42459-.18682.51871.51871,0,0,0-.45793.15285l-.2711,1.392a2.12135,2.12135,0,0,1-.32269.86554,1.0761,1.0761,0,0,1-.49188.32205,4.78919,4.78919,0,0,1-1.05236.15285q-.74763.051-1.833.051H88.55144l.034-.05617,2.13805-3.69927q.64374-1.08666,1.17125-2.0198A18.28211,18.28211,0,0,1,92.92942,96.482a5.86164,5.86164,0,0,1,1.05238-1.15361,2.79609,2.79609,0,0,1,.23125-.16723,2.77,2.77,0,0,1,1.30254,1.038,3.83882,3.83882,0,0,1,.44158.91584q.16854.50952.373,1.1203a.46018.46018,0,0,0,.44158.13587.50434.50434,0,0,0,.407-.20381q-.06859-.54284-.11824-1.23853-.0519-.6957-.11953-1.35743c-.04507-.44159-.10452-.83548-.1522-1.18823a10.64313,10.64313,0,0,1-.09147-1.61806,8.93781,8.93781,0,0,0-4.086-7.45733,11.71718,11.71718,0,0,0-4.069-1.53837,29.33111,29.33111,0,0,0-5.45844-.44682q-3.12672,0-5.48324.07447-2.35753.07447-4.34272.3227a.62193.62193,0,0,0-.322.57027.82615.82615,0,0,0,.22342.67022l1.78595.19859a4.36921,4.36921,0,0,1,1.3156.3227,1.3898,1.3898,0,0,1,.6944.8185,5.41252,5.41252,0,0,1,.273,1.588q.049.99259.04964,2.58028v18.31148q0,1.93424-.04964,3.10091a4.94008,4.94008,0,0,1-.34753,1.81142,1.68559,1.68559,0,0,1-.893.893,7.03343,7.03343,0,0,1-1.68729.39717l-1.04257.14894a.77041.77041,0,0,0-.20381.61731c-.0013.53107-.00718.69961-.01828,1.298q-.01764,1.02787-.09342,2.29808c.0503.12477.19271.19924.42982.22472a.53773.53773,0,0,0,.505-.1496l.1117-.78518a5.30117,5.30117,0,0,1,.29918-1.26989,1.269,1.269,0,0,1,.67284-.67283,3.7089,3.7089,0,0,1,1.364-.2626q.87794-.03627,2.336-.03659h4.70852a2.33811,2.33811,0,0,1,.46772.03659.336.336,0,0,1,.24235.20642,1.58527,1.58527,0,0,1,.09406.52258c.01176.23713.0183.56636.0183.99031a3.90418,3.90418,0,0,1-.28025,1.68208,2.509,2.509,0,0,1-.91584.972q-.63591.44879-1.40118.93413-.76722.485-1.5325.97136-.76623.486-1.4763.93478-.7104.44779-1.2333.82177a20.7356,20.7356,0,0,0-2.336,1.88785,8.27125,8.27125,0,0,0-1.43842,1.77484,6.2244,6.2244,0,0,0-.729,1.88719,10.816,10.816,0,0,0-.20512,2.18638,5.515,5.515,0,0,0,.18618,1.64419.30386.30386,0,0,0,.52389-.03723,4.91688,4.91688,0,0,1,.35471-1.41948,4.3573,4.3573,0,0,1,.69177-1.15884,14.44841,14.44841,0,0,1,1.77484-1.83167q.98964-.85933,2.18637-1.75655,1.19542-.89657,2.69069-1.84931,1.49427-.9534,3.289-2.07467a2.33713,2.33713,0,0,1,.46706-.243.40818.40818,0,0,1,.42982.05618,7.65033,7.65033,0,0,0,.78453,1.51355,8.08789,8.08789,0,0,0,1.28948,1.51419,6.71076,6.71076,0,0,0,1.79379,1.17713,5.69013,5.69013,0,0,0,2.3732.46707,5.59773,5.59773,0,0,0,3.25182-.8786,6.17564,6.17564,0,0,0,1.9806-2.22361,8.23947,8.23947,0,0,0,.91584-2.89579,25.2718,25.2718,0,0,0,.20511-3.34587,14.09728,14.09728,0,0,1,.3815-3.551" style="fill: #e6e5e5"/>
  </g>
  <g>
    <path d="M5.00329,23.83687a.83363.83363,0,0,1-.59034-.25.76063.76063,0,0,1-.17968-.25977.90148.90148,0,0,1-.06006-.31933.86425.86425,0,0,1,.06006-.32032A.80193.80193,0,0,1,4.413,22.417a.8536.8536,0,0,1,1.17041,0,.802.802,0,0,1,.17969.2705.86425.86425,0,0,1,.06006.32032.90148.90148,0,0,1-.06006.31933.76066.76066,0,0,1-.17969.25977.80519.80519,0,0,1-.27.18066A.82434.82434,0,0,1,5.00329,23.83687Z" style="fill: #252626"/>
    <path d="M156.75329,23.00777a.82537.82537,0,0,1,.81982-.83008h0a.82752.82752,0,0,1,.83008.83008h0a.82731.82731,0,0,1-.83008.8291h0A.82515.82515,0,0,1,156.75329,23.00777Zm-4.93018,0a.82752.82752,0,0,1,.83008-.83008h0a.82752.82752,0,0,1,.83008.83008h0a.82731.82731,0,0,1-.83008.8291h0A.82731.82731,0,0,1,151.82311,23.00777Zm-4.91992,0a.82752.82752,0,0,1,.83008-.83008h0a.82752.82752,0,0,1,.83008.83008h0a.82731.82731,0,0,1-.83008.8291h0A.82731.82731,0,0,1,146.90319,23.00777Zm-4.91992,0a.82751.82751,0,0,1,.83008-.83008h0a.82751.82751,0,0,1,.83007.83008h0a.8273.8273,0,0,1-.83007.8291h0A.8273.8273,0,0,1,141.98327,23.00777Zm-4.91992,0a.8272.8272,0,0,1,.83007-.83008h0a.83367.83367,0,0,1,.82959.83008h0a.83346.83346,0,0,1-.82959.8291h0A.827.827,0,0,1,137.06335,23.00777Zm-4.91993,0a.8271.8271,0,0,1,.82959-.83008h0a.82547.82547,0,0,1,.82032.83008h0a.82526.82526,0,0,1-.82032.8291h0A.82689.82689,0,0,1,132.14342,23.00777Zm-4.93017,0a.83377.83377,0,0,1,.83008-.83008h0a.82751.82751,0,0,1,.83007.83008h0a.8273.8273,0,0,1-.83007.8291h0A.83357.83357,0,0,1,127.21325,23.00777Zm-4.91992,0a.8272.8272,0,0,1,.83007-.83008h0a.8271.8271,0,0,1,.82959.83008h0a.82689.82689,0,0,1-.82959.8291h0A.827.827,0,0,1,122.29333,23.00777Zm-4.91993,0a.8271.8271,0,0,1,.82959-.83008h0a.82752.82752,0,0,1,.83008.83008h0a.82731.82731,0,0,1-.83008.8291h0A.82689.82689,0,0,1,117.3734,23.00777Zm-4.92041,0a.82752.82752,0,0,1,.83008-.83008h0a.82546.82546,0,0,1,.82031.83008h0a.82525.82525,0,0,1-.82031.8291h0A.82731.82731,0,0,1,112.453,23.00777Zm-4.91992,0a.82752.82752,0,0,1,.83008-.83008h0a.82505.82505,0,0,1,.81982.83008h0a.82483.82483,0,0,1-.81982.8291h0A.82731.82731,0,0,1,107.53307,23.00777Zm-4.91992,0a.82537.82537,0,0,1,.81982-.83008h0a.82721.82721,0,0,1,.83008.83008h0a.827.827,0,0,1-.83008.8291h0A.82515.82515,0,0,1,102.61315,23.00777Zm-4.93018,0a.82752.82752,0,0,1,.83008-.83008h0a.82752.82752,0,0,1,.83008.83008h0a.82731.82731,0,0,1-.83008.8291h0A.82731.82731,0,0,1,97.683,23.00777Zm-4.91992,0a.82752.82752,0,0,1,.83008-.83008h0a.82752.82752,0,0,1,.83008.83008h0a.82731.82731,0,0,1-.83008.8291h0A.82731.82731,0,0,1,92.76305,23.00777Zm-4.91992,0a.82752.82752,0,0,1,.83008-.83008h0a.82752.82752,0,0,1,.83008.83008h0a.82731.82731,0,0,1-.83008.8291h0A.82731.82731,0,0,1,87.84313,23.00777Zm-4.91992,0a.82752.82752,0,0,1,.83008-.83008h0a.82537.82537,0,0,1,.81982.83008h0a.82515.82515,0,0,1-.81982.8291h0A.82731.82731,0,0,1,82.92321,23.00777Zm-4.91992,0a.82537.82537,0,0,1,.81982-.83008h0a.82752.82752,0,0,1,.83008.83008h0a.82731.82731,0,0,1-.83008.8291h0A.82515.82515,0,0,1,78.00329,23.00777Zm-4.93018,0a.82752.82752,0,0,1,.83008-.83008h0a.82752.82752,0,0,1,.83008.83008h0a.82731.82731,0,0,1-.83008.8291h0A.82731.82731,0,0,1,73.07311,23.00777Zm-4.91992,0a.82752.82752,0,0,1,.83008-.83008h0a.82752.82752,0,0,1,.83008.83008h0a.82731.82731,0,0,1-.83008.8291h0A.82731.82731,0,0,1,68.15319,23.00777Zm-4.91992,0a.82751.82751,0,0,1,.83008-.83008h0a.82751.82751,0,0,1,.83007.83008h0a.8273.8273,0,0,1-.83007.8291h0A.8273.8273,0,0,1,63.23327,23.00777Zm-4.91992,0a.8272.8272,0,0,1,.83007-.83008h0a.83367.83367,0,0,1,.82959.83008h0a.83346.83346,0,0,1-.82959.8291h0A.827.827,0,0,1,58.31335,23.00777Zm-4.91993,0a.8271.8271,0,0,1,.82959-.83008h0a.82547.82547,0,0,1,.82032.83008h0a.82526.82526,0,0,1-.82032.8291h0A.82689.82689,0,0,1,53.39342,23.00777Zm-4.93017,0a.83377.83377,0,0,1,.83008-.83008h0a.82751.82751,0,0,1,.83007.83008h0a.8273.8273,0,0,1-.83007.8291h0A.83357.83357,0,0,1,48.46325,23.00777Zm-4.91992,0a.8272.8272,0,0,1,.83007-.83008h0a.8271.8271,0,0,1,.82959.83008h0a.82689.82689,0,0,1-.82959.8291h0A.827.827,0,0,1,43.54333,23.00777Zm-4.91993,0a.8271.8271,0,0,1,.82959-.83008h0a.82752.82752,0,0,1,.83008.83008h0a.82731.82731,0,0,1-.83008.8291h0A.82689.82689,0,0,1,38.6234,23.00777Zm-4.92041,0a.82752.82752,0,0,1,.83008-.83008h0a.81928.81928,0,0,1,.82031.83008h0a.819.819,0,0,1-.82031.8291h0A.82731.82731,0,0,1,33.703,23.00777Zm-4.91992,0a.82752.82752,0,0,1,.83008-.83008h0a.82505.82505,0,0,1,.81982.83008h0a.82483.82483,0,0,1-.81982.8291h0A.82731.82731,0,0,1,28.78307,23.00777Zm-4.91992,0a.82537.82537,0,0,1,.81982-.83008h0a.82721.82721,0,0,1,.83008.83008h0a.827.827,0,0,1-.83008.8291h0A.82515.82515,0,0,1,23.86315,23.00777Zm-4.93018,0a.82752.82752,0,0,1,.83008-.83008h0a.82752.82752,0,0,1,.83008.83008h0a.82731.82731,0,0,1-.83008.8291h0A.82731.82731,0,0,1,18.933,23.00777Zm-4.91992,0a.82752.82752,0,0,1,.83008-.83008h0a.82752.82752,0,0,1,.83008.83008h0a.82731.82731,0,0,1-.83008.8291h0A.82731.82731,0,0,1,14.01305,23.00777Zm-4.91992,0a.82752.82752,0,0,1,.83008-.83008h0a.82752.82752,0,0,1,.83008.83008h0a.82731.82731,0,0,1-.83008.8291h0A.82731.82731,0,0,1,9.09313,23.00777Z" style="fill: #252626"/>
    <path d="M162.50329,23.83687a.87674.87674,0,0,1-.32032-.06934.80523.80523,0,0,1-.27-.18066.76063.76063,0,0,1-.17968-.25977.90148.90148,0,0,1-.06006-.31933.86425.86425,0,0,1,.06006-.32032.80193.80193,0,0,1,.17968-.2705.85357.85357,0,0,1,1.17041,0,.802.802,0,0,1,.17969.2705.86425.86425,0,0,1,.06006.32032.90148.90148,0,0,1-.06006.31933.76066.76066,0,0,1-.17969.25977A.79477.79477,0,0,1,162.50329,23.83687Z" style="fill: #252626"/>
  </g>
  <g>
    <path d="M8.83843,189.99141a6.49664,6.49664,0,0,1,6.48681-6.48681,6.42,6.42,0,0,1,4.60336,1.91809l.57545.59291-2.16218,1.88317-.50563-.48817a3.57933,3.57933,0,0,0-2.511-1.02873,3.61828,3.61828,0,0,0,0,7.23654,3.54912,3.54912,0,0,0,2.511-1.029v-1.53435H14.6276v-2.87728h6.08563v5.44064l-.13936.20918a6.62513,6.62513,0,0,1-5.24863,2.66781A6.5003,6.5003,0,0,1,8.83843,189.99141Z" style="fill: #252626"/>
    <path d="M28.73243,183.88805H37.1897v2.96455H31.76652v1.06363h4.74327v3.01663H31.76652v2.37164h5.30127v2.99918H28.73243Z" style="fill: #252626"/>
    <path d="M56.64845,190.026a6.46064,6.46064,0,1,1-6.46936-6.46907A6.48219,6.48219,0,0,1,56.64845,190.026Zm-3.05183,0a3.42641,3.42641,0,1,0-3.41753,3.43527A3.46067,3.46067,0,0,0,53.59662,190.026Z" style="fill: #252626"/>
    <path d="M63.77828,183.88805h4.30718a6.20935,6.20935,0,1,1,0,12.41563H63.77828Zm7.65518,6.20781a3.30249,3.30249,0,0,0-3.348-3.22581h-1.308v6.4519h1.308A3.30253,3.30253,0,0,0,71.43346,190.09586Z" style="fill: #252626"/>
    <path d="M81.68466,183.88805h8.45726v2.96455H84.719v1.06363h4.74271v3.01663H84.719v2.37164h5.30071v2.99918H81.68466Z" style="fill: #252626"/>
    <path d="M101.05613,196.26877a8.3959,8.3959,0,0,1-3.88854-2.10982l1.98791-2.28436a5.14857,5.14857,0,0,0,2.511,1.46482,3.02167,3.02167,0,0,0,.66273.087,2.04641,2.04641,0,0,0,.90654-.19172.90621.90621,0,0,0,.57545-.80209c0-.48818-.90682-.78463-1.69145-.94173a11.94632,11.94632,0,0,1-2.75509-.85445,3.42112,3.42112,0,0,1-1.7959-3.08646,3.61937,3.61937,0,0,1,.645-2.02253,4.0277,4.0277,0,0,1,1.60446-1.29055l-.01745.01745a5.03809,5.03809,0,0,1,2.12726-.47072,5.929,5.929,0,0,1,.92428.06982,7.25761,7.25761,0,0,1,3.57463,1.83081l-1.91809,2.30182a3.84851,3.84851,0,0,0-2.61573-1.22073,1.76107,1.76107,0,0,0-.80209.17455.7211.7211,0,0,0-.50563.61008c0,.471.62782.69764,1.63909.90682.10473.03491.22663.03491.34882.06982a9.23437,9.23437,0,0,1,2.3539.74973h-.01746a3.47364,3.47364,0,0,1,1.91809,3.15627,3.66184,3.66184,0,0,1-.66245,2.17963,4.3046,4.3046,0,0,1-1.65654,1.32518,4.54214,4.54214,0,0,1-2.19709.471A5.88854,5.88854,0,0,1,101.05613,196.26877Z" style="fill: #252626"/>
    <path d="M114.516,183.88805h3.03437v12.41563H114.516Z" style="fill: #252626"/>
    <path d="M134.79483,191.735l2.38881,1.76127a6.56865,6.56865,0,0,1-5.40544,2.98172,6.46049,6.46049,0,1,1,0-12.921,6.70057,6.70057,0,0,1,5.47526,3.03408l-2.42372,1.77845a3.76464,3.76464,0,0,0-3.05154-1.83081,3.47,3.47,0,1,0,0,6.94008A3.636,3.636,0,0,0,134.79483,191.735Z" style="fill: #252626"/>
    <path d="M147.45229,196.26877a8.39581,8.39581,0,0,1-3.88854-2.10982l1.98791-2.28436a5.14857,5.14857,0,0,0,2.511,1.46482,3.02159,3.02159,0,0,0,.66273.087,2.04639,2.04639,0,0,0,.90653-.19172.90622.90622,0,0,0,.57546-.80209c0-.48818-.90682-.78463-1.69146-.94173a11.9464,11.9464,0,0,1-2.75508-.85445,3.42112,3.42112,0,0,1-1.7959-3.08646,3.61937,3.61937,0,0,1,.645-2.02253,4.02756,4.02756,0,0,1,1.60446-1.29055l-.01746.01745a5.03817,5.03817,0,0,1,2.12727-.47072,5.929,5.929,0,0,1,.92427.06982,7.25764,7.25764,0,0,1,3.57464,1.83081l-1.91809,2.30182a3.84851,3.84851,0,0,0-2.61573-1.22073,1.76107,1.76107,0,0,0-.80209.17455.7211.7211,0,0,0-.50563.61008c0,.471.62782.69764,1.63908.90682.10474.03491.22664.03491.34882.06982a9.23431,9.23431,0,0,1,2.35391.74973h-.01746a3.47364,3.47364,0,0,1,1.91809,3.15627,3.66184,3.66184,0,0,1-.66245,2.17963,4.3046,4.3046,0,0,1-1.65654,1.32518,4.54216,4.54216,0,0,1-2.19709.471A5.88854,5.88854,0,0,1,147.45229,196.26877Z" style="fill: #252626"/>
  </g>
  <g>
    <path d="M53.59167,289.34078c-.123,2.21582-1.14258,3.45312-2.88282,3.45312-1.98437,0-3.09961-1.53613-3.09961-5.0166s1.11524-5.0166,3.09961-5.0166a2.67715,2.67715,0,0,1,2.78711,2.99121h-.87011c0-1.31934-.666-2.25684-1.917-2.25684-1.38672,0-2.22949,1.1416-2.22949,4.28223s.84277,4.28223,2.22949,4.28223c1.22364,0,1.917-1.04688,2.0127-2.71875Z" style="fill: #252626"/>
    <path d="M56.88366,285.248c1.59082,0,2.48828,1.26465,2.48828,3.7666,0,2.51465-.89746,3.7793-2.48828,3.7793s-2.48731-1.26465-2.48731-3.7793C54.39635,286.51265,55.29284,285.248,56.88366,285.248Zm0,6.86621c.91113,0,1.61816-.78906,1.61816-3.09961,0-2.29785-.707-3.08593-1.61816-3.08593-.91016,0-1.61719.78808-1.61719,3.08593C55.26647,291.32515,55.9735,292.11421,56.88366,292.11421Z" style="fill: #252626"/>
    <path d="M64.3778,291.43453h-.02735a1.77988,1.77988,0,0,1-1.76757,1.35937c-1.59082,0-2.31153-1.27832-2.31153-3.7793,0-2.48828.72071-3.7666,2.31153-3.7666a1.60457,1.60457,0,0,1,1.68554,1.251h.02735v-3.5752h.81543v9.707h-.7334Zm-1.65918.67968c.8291,0,1.57715-.42187,1.57715-3.09961,0-2.665-.74805-3.08593-1.57715-3.08593-.81543,0-1.57715.42089-1.57715,3.08593C61.14147,291.69234,61.90319,292.11421,62.71862,292.11421Z" style="fill: #252626"/>
    <path d="M71.05553,290.23824c-.12207,1.53613-.96582,2.55566-2.32519,2.55566-1.52246,0-2.41992-1.06055-2.41992-3.7793,0-2.50195.89746-3.7666,2.48828-3.7666,1.60449,0,2.32519,1.10156,2.32519,3.50781v.29981H67.18053v.33984c0,2.08008.73438,2.71875,1.53614,2.71875.85644,0,1.38671-.6123,1.52343-1.876Zm-.80176-1.86329c-.02734-1.79394-.53027-2.44628-1.5371-2.44628-1.00586,0-1.50879.65234-1.53614,2.44628Z" style="fill: #252626"/>
    <path d="M80.48034,291.4482a2.94542,2.94542,0,0,1-2.583,1.3457,2.54071,2.54071,0,0,1-2.71973-2.56934,3.09643,3.09643,0,0,1,1.40039-2.502l.80274-.61133a4.15926,4.15926,0,0,1-1.11524-2.39355,1.801,1.801,0,0,1,1.98536-1.79395,1.72417,1.72417,0,0,1,1.8623,1.79395c0,.78906-.32617,1.52344-1.71289,2.50195L80.494,290.1562a5.18433,5.18433,0,0,0,.35351-1.835H81.663a5.25263,5.25263,0,0,1-.67968,2.51465l1.27832,1.79492h-.92481Zm-2.69239-3.793c-1.373.95117-1.74023,1.71289-1.74023,2.47363a1.90456,1.90456,0,0,0,1.97168,1.93067,2.37447,2.37447,0,0,0,2.03906-1.22364Zm.20411-.99317c1.07421-.81543,1.30566-1.44043,1.30566-1.9707a1.10859,1.10859,0,0,0-2.2168,0A3.896,3.896,0,0,0,77.99206,286.66206Z" style="fill: #252626"/>
    <path d="M86.23522,285.41109h.81641V286.54H87.079a1.91,1.91,0,0,1,1.82129-1.292,1.0337,1.0337,0,0,1,.28613.041v.81543a2.11983,2.11983,0,0,0-.39453-.04c-.89746,0-1.74023.65234-1.74023,2.05273v4.51367h-.81641Z" style="fill: #252626"/>
    <path d="M94.46276,290.23824c-.12207,1.53613-.96582,2.55566-2.3252,2.55566-1.52246,0-2.41992-1.06055-2.41992-3.7793,0-2.50195.89746-3.7666,2.48828-3.7666,1.6045,0,2.3252,1.10156,2.3252,3.50781v.29981H90.58776v.33984c0,2.08008.73437,2.71875,1.53613,2.71875.85645,0,1.38672-.6123,1.52344-1.876ZM93.661,288.375c-.02734-1.79394-.53027-2.44628-1.53711-2.44628-1.00586,0-1.50879.65234-1.53613,2.44628Z" style="fill: #252626"/>
    <path d="M95.8651,282.92378h.81543v9.707H95.8651Z" style="fill: #252626"/>
    <path d="M102.75866,290.23824c-.12207,1.53613-.96582,2.55566-2.3252,2.55566-1.52246,0-2.41992-1.06055-2.41992-3.7793,0-2.50195.89746-3.7666,2.48828-3.7666,1.60449,0,2.3252,1.10156,2.3252,3.50781v.29981H98.88366v.33984c0,2.08008.73437,2.71875,1.53613,2.71875.85645,0,1.38672-.6123,1.52344-1.876Zm-.80176-1.86329c-.02734-1.79394-.53027-2.44628-1.53711-2.44628-1.00586,0-1.50879.65234-1.53613,2.44628Z" style="fill: #252626"/>
    <path d="M103.9569,287.55953a2.017,2.017,0,0,1,2.23047-2.31153c1.49512,0,2.03906.77539,2.03906,1.917v4.26954c0,.4082.13574.59765.4209.59765h.23144v.59863a1.1214,1.1214,0,0,1-.38085.082c-.63868,0-1.04688-.1504-1.04688-.89747v-.24511h-.02734a1.76205,1.76205,0,0,1-1.86231,1.22363c-1.26465,0-1.835-.78809-1.835-2.03906a1.9023,1.9023,0,0,1,1.4541-1.999l1.53614-.43457c.57128-.16308.69335-.2998.69335-1.14257a1.10689,1.10689,0,0,0-1.25-1.25c-.96582,0-1.38671.584-1.38671,1.63086Zm3.45312.99218h-.02636c-.082.24512-.544.39453-.87012.47657l-.67969.17675a1.4052,1.4052,0,0,0-1.2373,1.49512c0,.84277.43457,1.41406,1.1416,1.41406.99219,0,1.67187-.748,1.67187-2.03906Z" style="fill: #252626"/>
    <path d="M111.04284,289.042c-1.01953-.39453-1.38672-.99317-1.38672-1.71387a1.91393,1.91393,0,0,1,2.14844-2.08008,1.76092,1.76092,0,0,1,1.98437,2.0127v.2041h-.81543v-.2041c0-.93848-.43555-1.332-1.18262-1.332-.95214,0-1.31933.50293-1.31933,1.22265,0,.50391.16308.89746.97949,1.21094l1.18262.44824a1.84931,1.84931,0,0,1,1.3457,1.835,2.00258,2.00258,0,0,1-2.22949,2.14844c-1.48242,0-2.21582-.61133-2.21582-2.24316v-.23145h.81543v.19043c0,1.06055.46191,1.60449,1.38672,1.60449a1.26811,1.26811,0,0,0,1.42773-1.292,1.29783,1.29783,0,0,0-.97949-1.332Z" style="fill: #252626"/>
    <path d="M119.63756,290.23824c-.12207,1.53613-.96582,2.55566-2.32519,2.55566-1.52246,0-2.41992-1.06055-2.41992-3.7793,0-2.50195.89746-3.7666,2.48828-3.7666,1.60449,0,2.32519,1.10156,2.32519,3.50781v.29981h-3.94336v.33984c0,2.08008.73438,2.71875,1.53614,2.71875.85644,0,1.38672-.6123,1.52343-1.876Zm-.80175-1.86329c-.02735-1.79394-.53028-2.44628-1.53711-2.44628-1.00586,0-1.50879.65234-1.53614,2.44628Z" style="fill: #252626"/>
    <path d="M56.538,299.24507h2.41993l1.71386,7.19141h.02637l1.68652-7.19141h2.36524v9.707H63.2821v-8.07617h-.02735l-1.958,8.07617H59.99206l-1.958-8.07617H58.0067v8.07617H56.538Z" style="fill: #252626"/>
    <path d="M71.06139,307.42964c0,.27149.16309.5166.38086.5166a.60965.60965,0,0,0,.24512-.041v.95215a1.76251,1.76251,0,0,1-.7207.17675c-.65235,0-1.19629-.25878-1.23731-.96582H69.702a1.90241,1.90241,0,0,1-1.82129,1.07422c-1.16992,0-1.90332-.65234-1.90332-2.05273a2.00695,2.00695,0,0,1,1.69922-2.29785l1.1416-.3125c.53027-.14942.85644-.29981.85644-.93848,0-.666-.23047-1.08789-1.00586-1.08789-.97851,0-1.11425.69336-1.11425,1.40039h-1.3877c0-1.5498.63965-2.40625,2.57031-2.40625,1.291,0,2.32422.50293,2.32422,1.79492Zm-1.38672-2.33886a9.61307,9.61307,0,0,1-1.63086.67968,1.20175,1.20175,0,0,0-.59863,1.18262c0,.6123.29883,1.10156.91113,1.10156.88379,0,1.31836-.666,1.31836-1.74023Z" style="fill: #252626"/>
    <path d="M72.56042,301.63765h1.46875v1.1416h.02636a1.8091,1.8091,0,0,1,1.7002-1.332,1.13029,1.13029,0,0,1,.35351.05469V302.997a2.76749,2.76749,0,0,0-.6123-.08106c-.666,0-1.46777.29883-1.46777,1.6582v4.37793H72.56042Z" style="fill: #252626"/>
    <path d="M81.535,306.28706c-.0957,1.75391-.69335,2.85547-2.502,2.85547-2.12109,0-2.71875-1.57715-2.71875-3.84765s.59766-3.84766,2.71875-3.84766a2.3559,2.3559,0,0,1,2.51563,2.624H80.08c0-.67968-.19043-1.56347-1.04688-1.53613-1.06055,0-1.251,1.1416-1.251,2.75977s.19042,2.75976,1.251,2.75976c.81543.01367,1.11524-.666,1.11524-1.76758Z" style="fill: #252626"/>
    <path d="M85.99694,299.24507h3.14062c1.44141,0,2.61036.63867,2.61036,2.35156a2.01724,2.01724,0,0,1-1.42676,2.20313v.02637c1.05957.19043,1.74023.83007,1.74023,2.47461,0,1.61816-1.16992,2.65136-2.99121,2.65136H85.99694Zm2.77344,4.0918a1.3662,1.3662,0,0,0,1.42773-1.53613c0-1.15528-.69336-1.38672-1.56348-1.38672H87.54674v2.92285Zm.31347,4.44629c.92383,0,1.42676-.59863,1.42676-1.71289a1.47759,1.47759,0,0,0-1.52246-1.64551H87.54674v3.3584Z" style="fill: #252626"/>
    <path d="M95.63952,301.44722c2.13476,0,2.73242,1.57715,2.73242,3.84766s-.69336,3.84765-2.73242,3.84765c-2.02539,0-2.71875-1.57715-2.71875-3.84765S93.51842,301.44722,95.63952,301.44722Zm0,6.60742c1.07422,0,1.26465-.89746,1.26465-2.75976,0-1.61817-.19043-2.75977-1.26465-2.75977-1.06055,0-1.251,1.1416-1.251,2.75977C94.38854,307.15718,94.579,308.05464,95.63952,308.05464Z" style="fill: #252626"/>
    <path d="M103.24108,308.09566h-.04a2.09924,2.09924,0,0,1-1.877,1.04687c-1.08692,0-1.82129-.50293-1.82129-2.39258v-5.1123h1.46777v5.248c0,.81543.36719,1.08789.99317,1.08789A1.14791,1.14791,0,0,0,103.16,306.75v-5.1123h1.46778v7.31445h-1.38672Z" style="fill: #252626"/>
    <path d="M106.11315,299.24507h1.46777v9.707h-1.46777Z" style="fill: #252626"/>
    <path d="M110.329,305.48531v.42187c0,.97852.12207,2.22949,1.22363,2.22949,1.04688,0,1.16895-1.19629,1.16895-1.63183h1.38672a2.41746,2.41746,0,0,1-2.56934,2.63769c-1.19629,0-2.67871-.35351-2.67871-3.73925,0-1.917.4082-3.95606,2.70605-3.95606,2.03907,0,2.583,1.22363,2.583,3.2627v.77539Zm2.35156-1.00586v-.39453c0-.92481-.29883-1.63184-1.12793-1.63184-.93847,0-1.22363.9248-1.22363,1.877v.14942Zm-.9375-5.751h1.63086l-1.4414,1.958h-1.00586Z" style="fill: #252626"/>
  </g>
  <g>
    <path d="M54.347,331.28023c-.123,2.21582-1.14258,3.45312-2.88282,3.45312-1.98437,0-3.09961-1.53613-3.09961-5.0166s1.11524-5.0166,3.09961-5.0166a2.67715,2.67715,0,0,1,2.78711,2.99121h-.87011c0-1.31933-.666-2.25683-1.917-2.25683-1.38671,0-2.22949,1.1416-2.22949,4.28222s.84278,4.28223,2.22949,4.28223c1.22364,0,1.917-1.04688,2.0127-2.71875Z" style="fill: #252626"/>
    <path d="M57.639,327.18745c1.59082,0,2.48828,1.26465,2.48828,3.76661,0,2.51464-.89746,3.77929-2.48828,3.77929-1.58985,0-2.48731-1.26465-2.48731-3.77929C55.15172,328.4521,56.04918,327.18745,57.639,327.18745Zm0,6.86622c.91113,0,1.61816-.78907,1.61816-3.09961,0-2.29786-.707-3.08594-1.61816-3.08594-.91016,0-1.61719.78808-1.61719,3.08594C56.02184,333.2646,56.72887,334.05367,57.639,334.05367Z" style="fill: #252626"/>
    <path d="M61.32555,327.35054h.73438v1.00684h.02734a2.02742,2.02742,0,0,1,1.84863-1.16993,1.695,1.695,0,0,1,1.84961,1.93067v5.45215h-.81543v-5.22071c0-.99218-.4082-1.48144-1.2373-1.48144a1.63556,1.63556,0,0,0-1.59082,1.84863v4.85352h-.81641Z" style="fill: #252626"/>
    <path d="M71.70251,332.17769c-.12305,1.53613-.96583,2.55566-2.29786,2.55566-1.52343,0-2.41992-1.06054-2.41992-3.77929,0-2.502.89649-3.76661,2.48731-3.76661a2.12843,2.12843,0,0,1,2.23047,2.31153H70.8861c-.09473-1.12793-.54395-1.63086-1.41406-1.63086-.88379,0-1.61719.543-1.61719,3.09961,0,2.71875.77441,3.08594,1.53613,3.08594.8291,0,1.35938-.61231,1.49512-1.876Z" style="fill: #252626"/>
    <path d="M77.34606,332.17769c-.12207,1.53613-.96582,2.55566-2.3252,2.55566-1.52246,0-2.41992-1.06054-2.41992-3.77929,0-2.502.89746-3.76661,2.48828-3.76661,1.6045,0,2.3252,1.10157,2.3252,3.50782v.2998H73.47106v.33985c0,2.08007.73437,2.71875,1.53613,2.71875.85645,0,1.38672-.61231,1.52344-1.876Zm-.80176-1.86328c-.02734-1.79395-.53027-2.44629-1.53711-2.44629-1.00586,0-1.50879.65234-1.53613,2.44629Z" style="fill: #252626"/>
    <path d="M78.61266,327.35054H79.347v1.03418h.02734a1.82654,1.82654,0,0,1,1.78027-1.19727c1.6045,0,2.29786,1.27833,2.29786,3.78028,0,2.4873-.72071,3.76562-2.31153,3.76562a1.60439,1.60439,0,0,1-1.68555-1.251h-.02734v3.48047h-.81543Zm2.41992.51758a1.38611,1.38611,0,0,0-1.1416.63867,4.22877,4.22877,0,0,0-.46289,2.46094c0,2.66406.74805,3.08594,1.57715,3.08594.81543,0,1.57715-.42188,1.57715-3.08594C82.58239,328.3437,81.82067,327.86812,81.03258,327.86812Z" style="fill: #252626"/>
    <path d="M85.03258,328.0312h-.99316v-.68066h.99316v-1.99805H85.848v1.99805h1.27832v.68066H85.848v5.17969c0,.57129.24512.76074.77539.76074a1.67724,1.67724,0,0,0,.50293-.08105v.67969a1.35431,1.35431,0,0,1-.57129.082c-1.10156,0-1.52246-.29981-1.52246-1.26465Z" style="fill: #252626"/>
    <path d="M96.08825,333.38765a2.94542,2.94542,0,0,1-2.583,1.3457,2.54071,2.54071,0,0,1-2.71973-2.56933,3.09644,3.09644,0,0,1,1.40039-2.502l.80274-.61132a4.15931,4.15931,0,0,1-1.11524-2.39356,1.801,1.801,0,0,1,1.98536-1.79394,1.72417,1.72417,0,0,1,1.8623,1.79394c0,.78906-.32617,1.52344-1.71289,2.502l2.09375,2.93653a5.18442,5.18442,0,0,0,.35351-1.835h.81543a5.25269,5.25269,0,0,1-.67968,2.51465l1.27832,1.79492h-.92481Zm-2.69239-3.793c-1.373.95117-1.74023,1.71289-1.74023,2.47363a1.90456,1.90456,0,0,0,1.97168,1.93067,2.37448,2.37448,0,0,0,2.03906-1.22363Zm.20411-.99316c1.07421-.81543,1.30566-1.44043,1.30566-1.97071a1.10859,1.10859,0,0,0-2.2168,0A3.896,3.896,0,0,0,93.6,328.60152Z" style="fill: #252626"/>
    <path d="M104.56188,330.35542v-.73437h3.11328v4.94922h-.67969v-1.60449h-.02734a2.27528,2.27528,0,0,1-2.13477,1.76757c-1.98437,0-3.0996-1.53613-3.0996-5.0166s1.11523-5.0166,3.0996-5.0166c1.84961,0,2.67872,1.21,2.78711,2.88184h-.87011a1.91944,1.91944,0,0,0-1.917-2.14746c-1.38671,0-2.22949,1.1416-2.22949,4.28222s.84278,4.28223,2.22949,4.28223c1.30567,0,2.02637-1.16895,2.02637-3.43945v-.20411Z" style="fill: #252626"/>
    <path d="M108.98278,324.86324h.87012v6.97461c0,1.4541.626,2.16113,1.90332,2.16113,1.27832,0,1.90429-.707,1.90429-2.16113v-6.97461h.87012v6.98828c0,2.03906-.99316,2.88183-2.77441,2.88183-1.78028,0-2.77344-.84277-2.77344-2.88183Z" style="fill: #252626"/>
    <path d="M115.974,324.86324h.87012v9.707H115.974Z" style="fill: #252626"/>
    <path d="M49.725,341.18453h3.07324c1.8623,0,2.67773,1.16894,2.67773,2.82812a2.629,2.629,0,0,1-2.84082,2.86816H51.27477v4.01075H49.725Zm1.5498,4.52734h1.10156a1.46474,1.46474,0,0,0,1.54981-1.67285c0-1.04688-.4209-1.68555-1.65821-1.68555h-.99316Z" style="fill: #252626"/>
    <path d="M56.49938,341.07515h1.46777v1.46875H56.49938Zm0,2.50195h1.46777v7.31446H56.49938Z" style="fill: #252626"/>
    <path d="M60.71422,347.42476v.42187c0,.97852.12207,2.2295,1.22364,2.2295,1.04687,0,1.16894-1.19629,1.16894-1.63184h1.38672a2.41747,2.41747,0,0,1-2.56934,2.6377c-1.19628,0-2.67871-.35352-2.67871-3.73926,0-1.917.40821-3.95606,2.70606-3.95606,2.03906,0,2.583,1.22364,2.583,3.2627v.77539Zm2.35157-1.00586v-.39453c0-.92481-.29883-1.63184-1.12793-1.63184-.93848,0-1.22364.92481-1.22364,1.877v.14941Z" style="fill: #252626"/>
    <path d="M65.74743,343.5771H67.2152v1.1416h.02734a1.80912,1.80912,0,0,1,1.7002-1.332,1.13065,1.13065,0,0,1,.35352.05469v1.49512a2.76769,2.76769,0,0,0-.61231-.08106c-.666,0-1.46875.29883-1.46875,1.65821v4.37793H65.74743Z" style="fill: #252626"/>
    <path d="M70.03161,343.5771h1.46875v1.1416h.02636a1.80912,1.80912,0,0,1,1.7002-1.332,1.13053,1.13053,0,0,1,.35351.05469v1.49512a2.76749,2.76749,0,0,0-.6123-.08106c-.666,0-1.46777.29883-1.46777,1.65821v4.37793H70.03161Z" style="fill: #252626"/>
    <path d="M75.58043,347.42476v.42187c0,.97852.12208,2.2295,1.22364,2.2295,1.04687,0,1.16894-1.19629,1.16894-1.63184h1.38672a2.41746,2.41746,0,0,1-2.56933,2.6377c-1.19629,0-2.67872-.35352-2.67872-3.73926,0-1.917.40821-3.95606,2.70606-3.95606,2.03906,0,2.583,1.22364,2.583,3.2627v.77539ZM77.932,346.4189v-.39453c0-.92481-.29883-1.63184-1.12793-1.63184-.93848,0-1.22364.92481-1.22364,1.877v.14941Z" style="fill: #252626"/>
    <path d="M89.94079,347.41109v.2041c0,1.75391-.707,3.4668-2.99121,3.4668-2.44727,0-3.208-1.57715-3.208-5.04395s.76074-5.04394,3.22168-5.04394c2.75976,0,2.92285,2.03906,2.92285,3.04492v.17676H88.33629v-.16309c0-.89746-.27148-1.93066-1.38671-1.88965-1.14161,0-1.65821.707-1.65821,3.834s.5166,3.916,1.65821,3.916c1.292,0,1.4414-1.44141,1.4414-2.33887v-.16308Z" style="fill: #252626"/>
    <path d="M93.3695,343.38667c2.13476,0,2.73242,1.57715,2.73242,3.84766s-.69336,3.84766-2.73242,3.84766c-2.02539,0-2.71875-1.57715-2.71875-3.84766S91.2484,343.38667,93.3695,343.38667Zm0,6.60743c1.07422,0,1.26465-.89747,1.26465-2.75977,0-1.61816-.19043-2.75977-1.26465-2.75977-1.06055,0-1.251,1.14161-1.251,2.75977C92.11852,349.09663,92.309,349.9941,93.3695,349.9941Z" style="fill: #252626"/>
    <path d="M97.30114,341.18453h1.46777v9.707H97.30114Z" style="fill: #252626"/>
    <path d="M100.32067,341.18453h1.46777v9.707h-1.46777Z" style="fill: #252626"/>
    <path d="M108.07067,349.3691c0,.27148.16309.5166.38086.5166a.60945.60945,0,0,0,.24512-.041v.95215a1.76252,1.76252,0,0,1-.72071.17676c-.65234,0-1.19629-.25879-1.2373-.96582h-.02735A1.90241,1.90241,0,0,1,104.89,351.082c-1.16993,0-1.90333-.65235-1.90333-2.05274a2.007,2.007,0,0,1,1.69922-2.29785l1.14161-.3125c.53027-.14941.85644-.2998.85644-.93848,0-.666-.23047-1.08789-1.00586-1.08789-.97851,0-1.11426.69336-1.11426,1.40039h-1.38769c0-1.5498.63965-2.40625,2.57031-2.40625,1.291,0,2.32422.50293,2.32422,1.79493Zm-1.38672-2.33887a9.6131,9.6131,0,0,1-1.63086.67969,1.20173,1.20173,0,0,0-.59863,1.18261c0,.61231.29883,1.10157.91113,1.10157.88379,0,1.31836-.666,1.31836-1.74024Z" style="fill: #252626"/>
    <path d="M109.56872,343.5771h1.46875v1.1416h.02636a1.80912,1.80912,0,0,1,1.7002-1.332,1.13058,1.13058,0,0,1,.35351.05469v1.49512a2.76749,2.76749,0,0,0-.6123-.08106c-.666,0-1.46777.29883-1.46777,1.65821v4.37793h-1.46875Z" style="fill: #252626"/>
    <path d="M117.59118,349.9941h-.02637a1.56363,1.56363,0,0,1-1.60449,1.08789c-1.71289,0-2.39258-1.42774-2.39258-3.94239,0-3.25,1.1416-3.75293,2.25684-3.75293a1.703,1.703,0,0,1,1.6582,1.04688h.02734v-3.249h1.46778v9.707h-1.38672Zm-1.332-5.43848c-.84278,0-1.14161.67969-1.14161,2.65137,0,1.65918.2168,2.70605,1.23731,2.70605,1.00586,0,1.23633-1.0332,1.23633-2.59668C117.59118,345.56245,117.38805,344.55562,116.25915,344.55562Z" style="fill: #252626"/>
  </g>
  <g>
    <path d="M52.1195,218.26363h1.51172L54.8568,223.789h.02539l1.10742-5.52539h1.499l-1.85059,7.01074h-1.6416Z" style="fill: #252626"/>
    <path d="M59.46715,221.95113v.40429c0,.93848.11719,2.13672,1.17286,2.13672,1.00292,0,1.12011-1.14648,1.12011-1.56347h1.3291a2.31717,2.31717,0,0,1-2.46289,2.52832c-1.14648,0-2.5664-.33887-2.5664-3.584,0-1.83691.39062-3.792,2.59277-3.792,1.95508,0,2.47559,1.17285,2.47559,3.12793v.74219Zm2.25391-.96387v-.37793c0-.88574-.28613-1.56348-1.08105-1.56348-.89942,0-1.17286.88575-1.17286,1.79785v.14356Z" style="fill: #252626"/>
    <path d="M64.28551,218.26363h1.40723v1.09472h.02637A1.73351,1.73351,0,0,1,67.348,218.081a1.07877,1.07877,0,0,1,.33887.05273v1.43262a2.7009,2.7009,0,0,0-.58691-.07812c-.63868,0-1.40723.28711-1.40723,1.58984v4.19629H64.28551Z" style="fill: #252626"/>
    <path d="M71.41247,220.30953v-.18262c0-.56055-.19629-1.08106-.92579-1.08106-.56054,0-1.00292.26075-1.00292.91211,0,.54688.24707.76856.99023,1.0293l.89941.3125a1.89941,1.89941,0,0,1,1.52442,2.01953c0,1.499-1.09473,2.1377-2.51563,2.1377-1.77148,0-2.30566-.82129-2.30566-2.17676v-.25977h1.251v.22071c0,.80859.28613,1.251,1.09375,1.251.76953,0,1.14746-.39062,1.14746-1.02929a1.01965,1.01965,0,0,0-.76954-1.0293l-1.14648-.4043a1.86622,1.86622,0,0,1-1.498-2.01953c0-1.31641.95118-1.92871,2.39746-1.92871,1.78516,0,2.18946,1.043,2.18946,1.916v.3125Z" style="fill: #252626"/>
    <path d="M74.00329,215.86617h1.40722v1.40722H74.00329Zm0,2.39746h1.40722v7.01074H74.00329Z" style="fill: #252626"/>
    <path d="M79.16051,218.081c2.0459,0,2.62012,1.51172,2.62012,3.68848,0,2.17578-.665,3.6875-2.62012,3.6875-1.9414,0-2.60547-1.51172-2.60547-3.6875C76.555,219.59273,77.12829,218.081,79.16051,218.081Zm0,6.333c1.03028,0,1.21192-.85938,1.21192-2.64453,0-1.55079-.18164-2.64551-1.21192-2.64551-1.01562,0-1.19824,1.09472-1.19824,2.64551C77.96227,223.55464,78.14489,224.414,79.16051,224.414Z" style="fill: #252626"/>
    <path d="M82.85973,218.26363h1.3291v.82129h.03907a2.01016,2.01016,0,0,1,1.79785-1.00391c1.06933,0,1.74609.48242,1.74609,1.90234v5.291H86.36461v-4.80859c0-.91211-.27343-1.26368-.97656-1.26368-.57422,0-1.12109.45606-1.12109,1.36817v4.7041H82.85973Z" style="fill: #252626"/>
    <path d="M94.70055,216.04878c1.77149,0,2.76172,1.12012,2.76172,4.7041,0,3.583-.99023,4.70411-2.76172,4.70411-1.77246,0-2.76269-1.1211-2.76269-4.70411C91.93786,217.1689,92.92809,216.04878,94.70055,216.04878Zm0,8.36524c1.01563,0,1.27637-.97657,1.27637-3.66114s-.26074-3.6621-1.27637-3.6621c-1.0166,0-1.27734.97753-1.27734,3.6621S93.684,224.414,94.70055,224.414Z" style="fill: #252626"/>
    <path d="M98.64586,223.55464h1.48536v1.71973H98.64586Z" style="fill: #252626"/>
    <path d="M105.225,218.29c0-.53418-.248-1.19921-.99024-1.19921-1.39453,0-1.47265,1.83789-1.47265,3.17968l.03906.02637a1.90184,1.90184,0,0,1,1.79785-.97754c1.26465,0,2.28027.91211,2.28027,2.749,0,2.124-.873,3.38868-2.82715,3.38868-2.333,0-2.77539-1.77246-2.77539-4.418,0-2.7627.50782-4.99024,2.94434-4.99024,1.61621,0,2.48926.7295,2.48926,2.24121Zm-1.05567,6.124c.91211,0,1.22461-.89844,1.22461-1.98047,0-1.27735-.37793-1.99414-1.22461-1.99414-1.082,0-1.27734.95215-1.27734,2.05957C102.892,223.56734,103.29626,224.414,104.1693,224.414Z" style="fill: #252626"/>
    <path d="M108.02379,223.55464h1.48536v1.71973h-1.48536Z" style="fill: #252626"/>
    <path d="M112.14,222.707c0,.80859.26074,1.707,1.26367,1.707.92578,0,1.29-.74219,1.29-1.6543,0-1.13379-.37793-1.7207-1.498-1.7207h-.57324v-1.042h.53418c.99023,0,1.3291-.67774,1.3291-1.57715,0-.66407-.29981-1.3291-1.06934-1.3291-.91211,0-1.17187.78222-1.17187,1.61621h-1.40821a2.37621,2.37621,0,0,1,2.65918-2.65821,2.23382,2.23382,0,0,1,2.47559,2.3584,1.94283,1.94283,0,0,1-1.47266,2.01953v.03907a1.91558,1.91558,0,0,1,1.68067,2.13769,2.52587,2.52587,0,0,1-2.81446,2.85352c-1.668,0-2.63183-.82129-2.63183-2.75Z" style="fill: #252626"/>
  </g>
</svg>
