<svg id="Layer_1" data-name="Layer 1" xmlns="http://www.w3.org/2000/svg" width="165" height="380" viewBox="0 0 165 380">
  <title>Branes-WL</title>
  <rect width="165" height="380" style="fill: #e5e5e5"/>
  <rect width="165" height="380" style="fill: #e5e5e5"/>
  <rect width="165" height="380" style="fill: #e5e5e5"/>
  <g>
    <g>
      <circle cx="22.896" cy="7" r="5.73633" style="fill: #bcbcbc"/>
      <path d="M22.89617,1.52747A5.47253,5.47253,0,1,1,17.42364,7a5.47874,5.47874,0,0,1,5.47253-5.47253m0-.52747a6,6,0,1,0,6,6,6,6,0,0,0-6-6Z" style="fill: gray"/>
    </g>
    <polygon points="26.391 6.341 23.556 6.341 23.556 3.505 22.237 3.505 22.237 6.341 19.402 6.341 19.402 7.659 22.237 7.659 22.237 10.495 23.556 10.495 23.556 7.659 26.391 7.659 26.391 6.341" style="fill: #6e6e6e"/>
  </g>
  <g>
    <g>
      <circle cx="141.89648" cy="7" r="5.73633" style="fill: #bcbcbc"/>
      <path d="M141.89616,1.52747A5.47253,5.47253,0,1,1,136.42363,7a5.47874,5.47874,0,0,1,5.47253-5.47253m0-.52747a6,6,0,1,0,6,6,6,6,0,0,0-6-6Z" style="fill: gray"/>
    </g>
    <polygon points="145.391 6.341 142.556 6.341 142.556 3.505 141.237 3.505 141.237 6.341 138.402 6.341 138.402 7.659 141.237 7.659 141.237 10.495 142.556 10.495 142.556 7.659 145.391 7.659 145.391 6.341" style="fill: #6e6e6e"/>
  </g>
  <g>
    <g>
      <circle cx="23" cy="373" r="5.73633" style="fill: #bcbcbc"/>
      <path d="M23,367.52747A5.47253,5.47253,0,1,1,17.52751,373,5.47873,5.47873,0,0,1,23,367.52747M23,367a6,6,0,1,0,6,6,6,6,0,0,0-6-6Z" style="fill: gray"/>
    </g>
    <polygon points="26.495 372.341 23.659 372.341 23.659 369.505 22.341 369.505 22.341 372.341 19.506 372.341 19.506 373.659 22.341 373.659 22.341 376.495 23.659 376.495 23.659 373.659 26.495 373.659 26.495 372.341" style="fill: #6e6e6e"/>
  </g>
  <g>
    <g>
      <circle cx="142" cy="373" r="5.73633" style="fill: #bcbcbc"/>
      <path d="M142,367.52747A5.47253,5.47253,0,1,1,136.52751,373,5.47873,5.47873,0,0,1,142,367.52747M142,367a6,6,0,1,0,6,6,6,6,0,0,0-6-6Z" style="fill: gray"/>
    </g>
    <polygon points="145.495 372.341 142.659 372.341 142.659 369.505 141.341 369.505 141.341 372.341 138.506 372.341 138.506 373.659 141.341 373.659 141.341 376.495 142.659 376.495 142.659 373.659 145.495 373.659 145.495 372.341" style="fill: #6e6e6e"/>
  </g>
  <g>
    <path d="M82.5,98.40838a.8273.8273,0,0,1-.82812-.82813v-29a.82813.82813,0,0,1,1.65625,0v29A.8273.8273,0,0,1,82.5,98.40838Z" style="fill: #252626"/>
    <path d="M47.5,133.40838h-29a.82813.82813,0,0,1,0-1.65625h29a.82813.82813,0,1,1,0,1.65625Z" style="fill: #252626"/>
    <path d="M146.5,133.40838h-29a.82813.82813,0,0,1,0-1.65625h29a.82813.82813,0,1,1,0,1.65625Z" style="fill: #252626"/>
    <path d="M36.41992,179.40838a.82813.82813,0,0,1-.585-1.415l21.08008-21a.82864.82864,0,0,1,1.16992,1.17382l-21.08008,21A.82581.82581,0,0,1,36.41992,179.40838Z" style="fill: #252626"/>
    <path d="M107.5,108.40838a.82813.82813,0,0,1-.58594-1.41309l20.9668-21a.82795.82795,0,1,1,1.17187,1.16992l-20.96679,21A.8244.8244,0,0,1,107.5,108.40838Z" style="fill: #252626"/>
    <path d="M128.5,179.40838a.82913.82913,0,0,1-.58594-.24219l-21-21a.82864.82864,0,0,1,1.17188-1.17188l21,21a.82813.82813,0,0,1-.58594,1.41407Z" style="fill: #252626"/>
    <path d="M57.5,108.40838a.82913.82913,0,0,1-.58594-.24219l-21-21a.82864.82864,0,0,1,1.17188-1.17188l21,21A.82813.82813,0,0,1,57.5,108.40838Z" style="fill: #252626"/>
  </g>
  <g>
    <rect x="74.32852" y="343.25364" width="16.88116" height="32.74636" rx="3.20745" ry="3.20745" style="fill: #252626"/>
    <path d="M86.61544,364.10641a1.82118,1.82118,0,0,1-1.10036,1.03443,2.30454,2.30454,0,0,1-.75781.125,2.27836,2.27836,0,0,1-1.04757-.19755,1.8224,1.8224,0,0,1-.58631-.46126,1.41958,1.41958,0,0,1-.28342-.64567,4.30879,4.30879,0,0,1-.05936-.71159q0-.50115.01971-.69189a.53345.53345,0,0,1,.04622-.21749,1.19465,1.19465,0,0,1,.43475-.03942h3.08382a.99665.99665,0,0,1,.21749.01971.19618.19618,0,0,1,.13162.10534.67137.67137,0,0,1,.05936.25691q.013.17139.01337.4744a2.3816,2.3816,0,0,1-.17151.949M81.292,351.28477a.293.293,0,0,1,.107-.19591.5384.5384,0,0,1,.28506-.08915q.196-.01761.55252-.01784a2.80553,2.80553,0,0,1,2.12987.77518,2.88441,2.88441,0,0,1,.73975,2.07661c0,.08211-.01713.25925-.02792.38078-.06827-.00094-.13655-.00188-.20482-.00328q-.28049-.006-.60954-.0305a.15278.15278,0,0,0-.0793.14006.20325.20325,0,0,0,.05514.16471l.21913.0244a1.54814,1.54814,0,0,1,.36577.07906q.1464.0549.1464.1159a.7028.7028,0,0,1-.0732.22547q-.0732.1647-.195.396-.12211.23192-.26207.49387-.14042.26218-.2623.49363-.28049.5367-.57294,1.05438-.29246.51839-.5727,1.0058-.354-.63381-.69494-1.32864-.34137-.69506-.68274-1.37767c-.01643-.03238-.04458-.09315-.08517-.18277q-.06123-.13374-.1281-.28647c-.04481-.10159-.08352-.19684-.1159-.28647a.66516.66516,0,0,1-.04856-.18277c0-.0488.03214-.08727.09736-.1159a2.41574,2.41574,0,0,1,.41458-.10346l.15836-.0244a.21353.21353,0,0,0,.0549-.17081.13.13,0,0,0-.09127-.134q-.25971.0204-.63722.02932v-2.58643a2.507,2.507,0,0,1,.01783-.33878m1.00933,9.125q0,.48777-.0122.7801a1.28761,1.28761,0,0,1-.0854.457.48623.48623,0,0,1-.06171.1044l-.00164.00094a2.28289,2.28289,0,0,1-.35826-.09455.59651.59651,0,0,1-.34747-.32072,1.88056,1.88056,0,0,1-.13373-.6506q-.02675-.41844-.02675-1.11373v-2.53786l.63722,1.24159q.13374.25621.21327.43287a1.90027,1.90027,0,0,1,.11567.32917,2.00328,2.00328,0,0,1,.0488.32307q.012.17068.0122.42654Zm5.03092,1.50742q.07917-.21961.15836-.46924.07919-.24987.1464-.48777.06687-.23755.10371-.39627a.1901.1901,0,0,0-.14031-.10957.18466.18466,0,0,0-.1647.0244,5.71306,5.71306,0,0,1-.46924.78011,1.47265,1.47265,0,0,1-.396.40237,1.31,1.31,0,0,1-.2257.08516,1.791,1.791,0,0,1-.30478.0549q-.17665.01831-.42653.03051t-.60343.0122q-.40226,0-.66444-.0244a3.33721,3.33721,0,0,1-.42044-.06077,1.0522,1.0522,0,0,1-.24987-.0854.43794.43794,0,0,1-.1403-.1098.846.846,0,0,1-.18887-.46924,6.04929,6.04929,0,0,1-.0427-.79864v-.8045c.00188-.11145.00516-.21.00986-.29445a1.92578,1.92578,0,0,1,.06687-.42044,2.12179,2.12179,0,0,1,.1708-.41457c.0183-.035.03894-.07273.06076-.11238.02933-.00094.05983-.00141.09385-.00141h.70714q.35334,0,.579.0122a1.78039,1.78039,0,0,1,.35967.04857.42951.42951,0,0,1,.26207.1708.8698.8698,0,0,1,.11591.29257l.10956.47534a.18505.18505,0,0,0,.16447.0549.17527.17527,0,0,0,.1525-.0671q0-.20729-.0244-.52414-.02464-.31709-.0244-.64614,0-.35333.0244-.6825.02429-.3294.0244-.54877a.177.177,0,0,0-.1525-.0671.18629.18629,0,0,0-.16447.0549l-.09737.5a.76186.76186,0,0,1-.1159.31087.38646.38646,0,0,1-.17666.11566,1.72043,1.72043,0,0,1-.378.05491q-.26853.0183-.65834.01829h-.55089l.0122-.02017.76791-1.32865q.23121-.39027.42067-.72543a6.5676,6.5676,0,0,1,.37163-.59124,2.10527,2.10527,0,0,1,.378-.41434,1.00627,1.00627,0,0,1,.08305-.06006.99485.99485,0,0,1,.46783.37281,1.3791,1.3791,0,0,1,.1586.32893q.06052.183.134.40237a.16527.16527,0,0,0,.1586.04881.18112.18112,0,0,0,.14616-.07321q-.02463-.195-.04246-.44483-.01864-.24987-.04293-.48754c-.01619-.1586-.03754-.30007-.05467-.42677a3.822,3.822,0,0,1-.03285-.58115,3.21012,3.21012,0,0,0-1.46754-2.6784,4.20836,4.20836,0,0,0-1.46143-.55252,10.53447,10.53447,0,0,0-1.96047-.16048q-1.123,0-1.96938.02675-.84674.02675-1.55974.1159a.22336.22336,0,0,0-.11567.20482.29673.29673,0,0,0,.08024.24072l.64145.07132a1.56932,1.56932,0,0,1,.47251.1159.49921.49921,0,0,1,.24941.294,1.9442,1.9442,0,0,1,.09807.57035q.01758.3565.01782.92674v6.57682q0,.69469-.01782,1.11373a1.77458,1.77458,0,0,1-.12482.6506.60544.60544,0,0,1-.32073.32072,2.527,2.527,0,0,1-.606.14265l-.37445.05349a.27672.27672,0,0,0-.07321.22171c-.00046.19075-.00257.25128-.00656.46619q-.00635.36916-.03355.82539c.01806.04481.06921.07155.15437.0807a.19314.19314,0,0,0,.18136-.05372l.04012-.282a1.90386,1.90386,0,0,1,.10746-.4561.45572.45572,0,0,1,.24166-.24166,1.332,1.332,0,0,1,.48988-.09431q.31533-.013.839-.01314h1.69113a.83943.83943,0,0,1,.168.01314.12065.12065,0,0,1,.087.07413.56941.56941,0,0,1,.03378.1877c.00423.08517.00658.20341.00658.35568a1.40224,1.40224,0,0,1-.10066.60414.90114.90114,0,0,1-.32894.34911q-.22839.16119-.50325.33551-.27555.17419-.55041.34887-.2752.17455-.53024.33574-.25515.16083-.443.29515a7.44712,7.44712,0,0,0-.839.67805,2.97065,2.97065,0,0,0-.51663.63745,2.23551,2.23551,0,0,0-.26183.67782,3.88405,3.88405,0,0,0-.07367.78526,1.98121,1.98121,0,0,0,.06686.59054.10915.10915,0,0,0,.18817-.01338,1.766,1.766,0,0,1,.12739-.50982,1.56512,1.56512,0,0,1,.24846-.41621,5.18875,5.18875,0,0,1,.63746-.65787q.35544-.30864.78527-.63089.42934-.322.96639-.66421.53669-.34242,1.1813-.74514a.83955.83955,0,0,1,.16776-.08728.14659.14659,0,0,1,.15437.02018,2.74833,2.74833,0,0,0,.28177.54361,2.90524,2.90524,0,0,0,.46314.54384,2.41009,2.41009,0,0,0,.64426.42278,2.04368,2.04368,0,0,0,.85237.16776,2.01046,2.01046,0,0,0,1.16793-.31557,2.21787,2.21787,0,0,0,.71136-.79864,2.95934,2.95934,0,0,0,.32894-1.04006,9.07734,9.07734,0,0,0,.07367-1.20171,5.063,5.063,0,0,1,.137-1.27538" style="fill: #e6e5e5"/>
  </g>
  <g>
    <g>
      <circle cx="82.49984" cy="68.58045" r="13.75229" style="fill: none"/>
      <path d="M89.0498,57.42986a.81739.81739,0,0,1-.29-1.12988h0a.82939.82939,0,0,1,1.12988-.29h0a.81092.81092,0,0,1,.29,1.12988h0a.82717.82717,0,0,1-.71.41016h0A.81268.81268,0,0,1,89.0498,57.42986ZM75,57.0197a.82994.82994,0,0,1,.30957-1.12988h0a.82136.82136,0,0,1,1.12988.31055h0a.82379.82379,0,0,1-.30957,1.12988h0a.87686.87686,0,0,1-.41015.10938h0A.817.817,0,0,1,75,57.0197Zm10.9502-.89941a.81742.81742,0,0,1-.58008-1.02051h0a.83268.83268,0,0,1,1.01953-.58008h0a.8325.8325,0,0,1,.58008,1.02051h0a.84283.84283,0,0,1-.80957.60938h0A.77267.77267,0,0,1,85.9502,56.12029ZM78.25,55.4699a.82317.82317,0,0,1,.58984-1.00977h0a.82944.82944,0,0,1,1.00977.59961h0a.81968.81968,0,0,1-.58984,1h0v.01074h0a1.52557,1.52557,0,0,1-.21.01954h0A.82246.82246,0,0,1,78.25,55.4699Zm4.35938.19043a.85063.85063,0,0,1-.83008-.83985h0a.82957.82957,0,0,1,.84082-.82031h0a.83224.83224,0,0,1,.81933.83008h0a.83441.83441,0,0,1-.83007.83008Z" style="fill: #a3a3a3"/>
      <g>
        <path d="M72.855,58.77722a13.75228,13.75228,0,1,0,19.448.15778" style="fill: #e5e5e5"/>
        <path d="M82.50391,83.16033h-.12207A14.58042,14.58042,0,0,1,72.27441,58.1867a.82867.82867,0,1,1,1.16211,1.18164,12.92327,12.92327,0,0,0,8.959,22.13476c.03613.001.07226.001.1084.001a12.92346,12.92346,0,0,0,9.208-21.98828.82867.82867,0,1,1,1.18164-1.16211A14.58007,14.58007,0,0,1,82.50391,83.16033Z" style="fill: #252626"/>
      </g>
    </g>
    <g>
      <circle cx="128.46696" cy="86.58028" r="13.75229" style="fill: none"/>
      <path d="M140.97949,83.33025h0a.82748.82748,0,0,1,.58985-1.00977h0a.82524.82524,0,0,1,1.01074.59961h0a.82791.82791,0,0,1-.58985,1.00977h0a.73716.73716,0,0,1-.21093.02051h0A.82161.82161,0,0,1,140.97949,83.33025ZM139.71,80.21013a.839.839,0,0,1,.30957-1.12988h0a.82105.82105,0,0,1,1.12988.30957h0a.8225.8225,0,0,1-.30957,1.12988h0a.85987.85987,0,0,1-.40039.11035h0A.84715.84715,0,0,1,139.71,80.21013Zm-2.03027-2.69043a.83519.83519,0,0,1,.00976-1.17968h0a.82342.82342,0,0,1,1.16993.00976h0a.82341.82341,0,0,1-.00977,1.16992h0a.81779.81779,0,0,1-.58008.24024h0A.84019.84019,0,0,1,137.67969,77.5197Zm-2.66016-2.08007a.829.829,0,0,1-.29-1.12989h0a.82382.82382,0,0,1,1.12989-.2998h0a.83238.83238,0,0,1,.30078,1.13965h0a.84491.84491,0,0,1-.72071.40039h0A.80092.80092,0,0,1,135.01953,75.43963Zm-3.09961-1.31934h0a.8325.8325,0,0,1-.58008-1.02051h0a.83269.83269,0,0,1,1.01954-.58008h0a.83694.83694,0,0,1,.58007,1.02051h0a.82963.82963,0,0,1-.7998.60938h0A.8497.8497,0,0,1,131.91992,74.12029Z" style="fill: #1f86cc"/>
      <g>
        <path d="M128.579,72.82845a13.75229,13.75229,0,1,0,13.64026,13.8634" style="fill: #e5e5e5"/>
        <path d="M128.46875,101.1613c-.04,0-.08008,0-.12012-.001a14.58081,14.58081,0,0,1,.11719-29.16113c.04,0,.08008,0,.12012.001a.82814.82814,0,0,1-.00684,1.65625.731.731,0,0,0-.11328,0A12.924,12.924,0,1,0,141.3916,86.68474a.82838.82838,0,0,1,.82813-.82129h.00683a.828.828,0,0,1,.82129.835A14.60018,14.60018,0,0,1,128.46875,101.1613Z" style="fill: #252626"/>
      </g>
    </g>
    <g>
      <circle cx="146.49984" cy="132.58012" r="13.75229" style="fill: none"/>
      <path d="M157.93945,140.2697a.8372.8372,0,0,1-.2998-1.13965h.00976a.8294.8294,0,0,1,1.12989-.29h0a.82766.82766,0,0,1,.29,1.12988h0a.826.826,0,0,1-.71.41015h0A.87479.87479,0,0,1,157.93945,140.2697Zm1.60059-3.22949a.81743.81743,0,0,1-.58008-1.02051h0v.01075h0a.81959.81959,0,0,1,1.01953-.58008h0a.82122.82122,0,0,1,.58008,1.00976v.00977a.842.842,0,0,1-.7998.60058h0A.79127.79127,0,0,1,159.54,137.04021Zm.70019-3.52051a.83384.83384,0,0,1-.82031-.83984h0a.83377.83377,0,0,1,.83985-.81934h0a.83449.83449,0,0,1,.82031.83985h0a.83939.83939,0,0,1-.83008.81933h-.00977Zm-1.23046-4.18945a.81893.81893,0,0,1,.59961-1h0a.81224.81224,0,0,1,1,.58984h0a.8223.8223,0,0,1-.58985,1.00977h0a.73765.73765,0,0,1-.21.03027h0A.82885.82885,0,0,1,159.00977,129.33025ZM157.75,126.21013a.82334.82334,0,0,1,.30957-1.12988h0a.82334.82334,0,0,1,1.12988.30957h0a.83815.83815,0,0,1-.30957,1.12988h0a.86665.86665,0,0,1-.41015.11035h0A.819.819,0,0,1,157.75,126.21013Z" style="fill: #ff4257"/>
      <g>
        <path d="M156.30307,122.93532a13.75229,13.75229,0,1,0-.15778,19.448" style="fill: #e5e5e5"/>
        <path d="M146.50293,147.1613c-.04,0-.08008,0-.12109-.001a14.58056,14.58056,0,1,1,10.51171-24.80567.82867.82867,0,1,1-1.18164,1.16211,12.83471,12.83471,0,0,0-9.10742-3.85937c-.03515-.001-.07226-.001-.10742-.001a12.924,12.924,0,0,0-.10156,25.84766h.10742a12.83658,12.83658,0,0,0,9.06152-3.71192.82867.82867,0,1,1,1.16211,1.18164A14.48411,14.48411,0,0,1,146.50293,147.1613Z" style="fill: #252626"/>
      </g>
    </g>
    <g>
      <circle cx="128.5" cy="178.58005" r="13.75229" style="fill: none"/>
      <path d="M131.14941,192.09978A.8382.8382,0,0,1,131.75,191.09h0a.83441.83441,0,0,1,1.00977.59961h0a.84284.84284,0,0,1-.59961,1.01074h0a1.55428,1.55428,0,0,1-.2002.01953h0A.833.833,0,0,1,131.14941,192.09978Zm3.41016-1.14941a.82077.82077,0,0,1,.31055-1.12012h0A.82151.82151,0,0,1,136,190.13982h0a.82365.82365,0,0,1-.31055,1.12988h0a.85219.85219,0,0,1-.41015.10059h0A.82125.82125,0,0,1,134.55957,190.95037Zm3-1.99024a.8243.8243,0,0,1,0-1.16992h0a.82341.82341,0,0,1,1.16992.00977h0a.81488.81488,0,0,1-.00976,1.16992h0a.79578.79578,0,0,1-.57032.24023h0A.7949.7949,0,0,1,137.55957,188.96013Zm2.37012-2.69043a.82894.82894,0,0,1-.29-1.12988h0a.8238.8238,0,0,1,1.12988-.2998h0a.83347.83347,0,0,1,.29981,1.13964h0a.83029.83029,0,0,1-.71973.40039h0A.80083.80083,0,0,1,139.92969,186.2697ZM141.54,183.05a.82425.82425,0,0,1-.58008-1.01953h0a.8319.8319,0,0,1,1.01953-.58008h0a.83634.83634,0,0,1,.58008,1.01953h0a.83918.83918,0,0,1-.7998.61035h0A.75672.75672,0,0,1,141.54,183.05Z" style="fill: #e57fc6"/>
      <g>
        <path d="M142.25183,178.69208a13.75228,13.75228,0,1,0-13.8634,13.64027" style="fill: #e5e5e5"/>
        <path d="M128.38867,193.16033h-.00683a14.5808,14.5808,0,0,1,.11523-29.16113c.04,0,.08008,0,.12109.001a14.59721,14.59721,0,0,1,14.46192,14.69922.82838.82838,0,0,1-.82813.82129h-.00683a.828.828,0,0,1-.82129-.835,12.94,12.94,0,0,0-12.81934-13.0293h-.10644a12.924,12.924,0,0,0-.10254,25.84766.82814.82814,0,0,1-.00684,1.65625Z" style="fill: #252626"/>
      </g>
    </g>
    <g>
      <circle cx="36.42017" cy="178.58005" r="13.75229" style="fill: none"/>
      <path d="M32.51953,192.63982a.83067.83067,0,0,1-.56933-1.01953h0a.81916.81916,0,0,1,1.01953-.58008h0a.81852.81852,0,0,1,.57031,1.01953h0a.82627.82627,0,0,1-.79981.60059h0A1.85514,1.85514,0,0,1,32.51953,192.63982Zm-3.5-1.49023a.83822.83822,0,0,1-.29-1.13965h0a.8294.8294,0,0,1,1.12989-.29h0a.82327.82327,0,0,1,.30078,1.12988h0a.833.833,0,0,1-.72071.41016h0A.80092.80092,0,0,1,29.01953,191.14959Zm-3-2.33985a.85552.85552,0,0,1,.00977-1.17969h0a.84634.84634,0,0,1,1.18066.00977h0a.84735.84735,0,0,1-.00976,1.18066h0a.88068.88068,0,0,1-.59082.2295h0A.85738.85738,0,0,1,26.01953,188.80974Zm-2.29-3.04h0a.83585.83585,0,0,1,.32031-1.12988h0a.821.821,0,0,1,1.12012.31055h0a.82159.82159,0,0,1-.31054,1.12988h0a.86645.86645,0,0,1-.39942.10938h0A.84663.84663,0,0,1,23.72949,185.7697Zm-1.42969-3.52929h0a.835.835,0,0,1,.59961-1.01075h0a.83559.83559,0,0,1,1.01075.60059h0a.84291.84291,0,0,1-.60059,1.00977h0a1.53136,1.53136,0,0,1-.20019.0205h0A.84312.84312,0,0,1,22.2998,182.24041Z" style="fill: #e57fc6"/>
      <g>
        <path d="M36.30814,192.33188a13.75228,13.75228,0,1,0-13.64026-13.86339" style="fill: #e5e5e5"/>
        <path d="M36.42285,193.1613c-.04,0-.08008,0-.12109-.001a.82814.82814,0,0,1,.00683-1.65625.31529.31529,0,0,1,.11329,0,12.924,12.924,0,0,0,.10253-25.84766H36.417a12.923,12.923,0,0,0-12.9209,12.81934.82836.82836,0,0,1-.82812.82129h-.00684a.828.828,0,0,1-.82129-.835A14.58009,14.58009,0,0,1,36.417,163.9992c.04,0,.08008,0,.1211.001a14.5808,14.5808,0,0,1-.11524,29.16113Z" style="fill: #252626"/>
      </g>
    </g>
    <g>
      <circle cx="18.50016" cy="132.58045" r="13.75229" style="fill: none"/>
      <path d="M5.80957,139.7697a.83544.83544,0,0,1,.31055-1.13965h0a.83585.83585,0,0,1,1.12988.32032h0a.82411.82411,0,0,1-.31055,1.12988h0a.87385.87385,0,0,1-.41015.10938h0A.83955.83955,0,0,1,5.80957,139.7697Zm-1.42969-3.52929a.82525.82525,0,0,1,.59961-1.01075h0a.81356.81356,0,0,1,1,.59082h0a.81879.81879,0,0,1-.58984,1.00977h0a.77953.77953,0,0,1-.21.03027h0A.83091.83091,0,0,1,4.37988,136.24041Zm.36035-2.9502a.81322.81322,0,0,1-.82031-.83008h0a.826.826,0,0,1,.83008-.82031h0a.81836.81836,0,0,1,.81934.83008h0a.81689.81689,0,0,1-.81934.82031H4.74023Zm.2793-3.58008a.83327.83327,0,0,1-.58008-1.0205h0A.83269.83269,0,0,1,5.46,128.11052h0A.83179.83179,0,0,1,6.04,129.13005h0a.83225.83225,0,0,1-.79981.61036h0A.85849.85849,0,0,1,5.01953,129.71013Zm1.2002-3.38965a.82088.82088,0,0,1-.29-1.13085h0a.8238.8238,0,0,1,1.12988-.29981h0a.823.823,0,0,1,.29,1.14063h.00977a.85308.85308,0,0,1-.71973.40918h0A.82067.82067,0,0,1,6.21973,126.32048Z" style="fill: #ff4257"/>
      <g>
        <path d="M8.69693,142.22524a13.75228,13.75228,0,1,0,.15778-19.448" style="fill: #e5e5e5"/>
        <path d="M18.50391,147.16033h-.12207a14.488,14.488,0,0,1-10.27539-4.35449.82867.82867,0,1,1,1.18164-1.16211,12.83471,12.83471,0,0,0,9.10742,3.85937c.03515.001.07226.001.10742.001a12.924,12.924,0,0,0,.10156-25.84766h-.10742a12.83658,12.83658,0,0,0-9.06152,3.71192.82867.82867,0,1,1-1.16211-1.18164,14.48411,14.48411,0,0,1,10.22363-4.1875c.04,0,.08008,0,.12109.001a14.58032,14.58032,0,0,1-.11425,29.16016Z" style="fill: #252626"/>
      </g>
    </g>
    <g>
      <circle cx="36.5" cy="86.58051" r="13.75229" style="fill: none"/>
      <path d="M23.01953,83.70037a.82887.82887,0,0,1-.58008-1.02051h0A.81855.81855,0,0,1,23.46,82.11052h0A.82739.82739,0,0,1,24.04,83.13005h0a.82538.82538,0,0,1-.79981.59961h0A.59938.59938,0,0,1,23.01953,83.70037Zm1.2002-3.37989a.84188.84188,0,0,1-.29-1.14062h0a.82939.82939,0,0,1,1.12988-.29h0a.82213.82213,0,0,1,.29981,1.12988h0a.819.819,0,0,1-.71973.41016h0A.94714.94714,0,0,1,24.21973,80.32048Zm2.04-2.96a.83437.83437,0,0,1,.00976-1.17089h0a.83816.83816,0,0,1,1.18067,0h0a.84643.84643,0,0,1-.01075,1.18066h0a.83938.83938,0,0,1-.58007.22949h0A.86638.86638,0,0,1,26.25977,77.36052ZM29,75.0197a.8238.8238,0,0,1,.30957-1.12988h0a.841.841,0,0,1,1.12988.31055h0a.8384.8384,0,0,1-.30957,1.12988h0a.76648.76648,0,0,1-.41015.10938h0A.817.817,0,0,1,29,75.0197Zm3.24023-1.5498a.83365.83365,0,0,1,.59961-1.00977v.00977a.82836.82836,0,0,1,1.00977.58984h0A.84283.84283,0,0,1,33.25,74.07048h0a.76894.76894,0,0,1-.2002.0293h0A.84.84,0,0,1,32.24023,73.4699Z" style="fill: #1f86cc"/>
      <g>
        <path d="M22.74817,86.46849a13.75228,13.75228,0,1,0,13.8634-13.64027" style="fill: #e5e5e5"/>
        <path d="M36.50293,101.1613c-.04,0-.08008,0-.12109-.001A14.57926,14.57926,0,0,1,21.91992,86.46209a.82838.82838,0,0,1,.82813-.82129h.00683a.828.828,0,0,1,.82129.835A12.93921,12.93921,0,0,0,36.39551,99.50408H36.502a12.924,12.924,0,0,0,.10254-25.84766.82814.82814,0,0,1,.00684-1.65625h.00683a14.5808,14.5808,0,0,1-.11523,29.16113Z" style="fill: #252626"/>
      </g>
    </g>
  </g>
  <g>
    <path d="M81.66992,118.59a.82609.82609,0,0,1,.82031-.83008h0a.8273.8273,0,0,1,.82911.83008h0a.8273.8273,0,0,1-.82911.83007h0A.82609.82609,0,0,1,81.66992,118.59Zm0-3.5a.82609.82609,0,0,1,.82031-.83008h0a.8273.8273,0,0,1,.82911.83008h0a.8273.8273,0,0,1-.82911.83007h0A.82609.82609,0,0,1,81.66992,115.09Zm0-3.5a.82814.82814,0,0,1,.83008-.83008h0a.82527.82527,0,0,1,.81934.83008h0a.83357.83357,0,0,1-.82911.83007h0A.83243.83243,0,0,1,81.66992,111.59Z" style="fill: #252626"/>
    <path d="M67.66016,132.59a.8344.8344,0,0,1,.83007-.83008h0a.8273.8273,0,0,1,.82911.83008h0a.8273.8273,0,0,1-.82911.83007h0A.8344.8344,0,0,1,67.66016,132.59Zm-3.49024,0A.82814.82814,0,0,1,65,131.75994h0a.82527.82527,0,0,1,.81934.83008h0a.8273.8273,0,0,1-.82911.83007h0A.82609.82609,0,0,1,64.16992,132.59Zm-3.5,0a.82814.82814,0,0,1,.83008-.83008h0a.81907.81907,0,0,1,.81934.83008h0a.82526.82526,0,0,1-.81934.83007h0A.82813.82813,0,0,1,60.66992,132.59Z" style="fill: #252626"/>
    <path d="M99.16992,132.59a.82609.82609,0,0,1,.82031-.83008h0a.8273.8273,0,0,1,.82911.83008h0a.8273.8273,0,0,1-.82911.83007h0A.82609.82609,0,0,1,99.16992,132.59Zm-3.5,0a.81927.81927,0,0,1,.82031-.83008h0a.8273.8273,0,0,1,.82911.83008h0a.82526.82526,0,0,1-.81934.83007h0A.82813.82813,0,0,1,95.66992,132.59Zm7,0a.82814.82814,0,0,1,.83008-.83008h0a.82527.82527,0,0,1,.81934.83008h0a.82526.82526,0,0,1-.81934.83007h0A.82813.82813,0,0,1,102.66992,132.59Z" style="fill: #252626"/>
    <path d="M66.91016,148.17009a.83228.83228,0,0,1,0-1.16992h0a.8323.8323,0,0,1,1.16992,0h0a.81488.81488,0,0,1,0,1.16992h0a.78918.78918,0,0,1-.58008.25h0A.83.83,0,0,1,66.91016,148.17009Zm2.5-2.49023a.84422.84422,0,0,1,0-1.17969h0a.8323.8323,0,0,1,1.16992,0h0a.82647.82647,0,0,1,0,1.17969h0a.82364.82364,0,0,1-.58985.24023h0A.81445.81445,0,0,1,69.41016,145.67986Zm2.5-2.5a.81486.81486,0,0,1,0-1.16992h0a.81488.81488,0,0,1,1.16992,0h0a.8341.8341,0,0,1,0,1.16992h0a.82364.82364,0,0,1-.58985.24023h0A.81445.81445,0,0,1,71.91016,143.17986Z" style="fill: #252626"/>
    <path d="M91.91016,123.17986a.83226.83226,0,0,1,0-1.16992h0a.81488.81488,0,0,1,1.16992,0h0a.8341.8341,0,0,1,0,1.16992h0a.8402.8402,0,0,1-.58985.24023h0A.81445.81445,0,0,1,91.91016,123.17986Zm2.5-2.5a.84422.84422,0,0,1,0-1.17969h0a.8323.8323,0,0,1,1.16992,0h0a.8461.8461,0,0,1,0,1.17969h0a.82364.82364,0,0,1-.58985.24023h0A.81445.81445,0,0,1,94.41016,120.67986Zm2.5-2.5a.84422.84422,0,0,1,0-1.17969h0a.8323.8323,0,0,1,1.16992,0h0a.8341.8341,0,0,1,0,1.16992h0a.82834.82834,0,0,1-.58008.25h0A.82037.82037,0,0,1,96.91016,118.17986Z" style="fill: #252626"/>
    <path d="M96.91016,148.17009a.83226.83226,0,0,1,0-1.16992h0a.8323.8323,0,0,1,1.16992,0h0a.81488.81488,0,0,1,0,1.16992h0a.83336.83336,0,0,1-.58985.25h0A.78607.78607,0,0,1,96.91016,148.17009Zm-2.5-2.49023a.82647.82647,0,0,1,0-1.17969h0a.8323.8323,0,0,1,1.16992,0h0a.8341.8341,0,0,1,0,1.16992h0a.79487.79487,0,0,1-.58985.25h0A.81445.81445,0,0,1,94.41016,145.67986Zm-2.5-2.5a.81486.81486,0,0,1,0-1.16992h0a.82349.82349,0,0,1,1.16992-.00977h0a.8461.8461,0,0,1,0,1.17969h0a.82364.82364,0,0,1-.58985.24023h0A.81445.81445,0,0,1,91.91016,143.17986Z" style="fill: #252626"/>
    <path d="M71.91016,123.17986a.81486.81486,0,0,1,0-1.16992h0a.81488.81488,0,0,1,1.16992,0h0a.8341.8341,0,0,1,0,1.16992h0a.8402.8402,0,0,1-.58985.24023h0A.81445.81445,0,0,1,71.91016,123.17986Zm-2.5-2.5a.84422.84422,0,0,1,0-1.17969h0a.8323.8323,0,0,1,1.16992,0h0a.82647.82647,0,0,1,0,1.17969h0a.82364.82364,0,0,1-.58985.24023h0A.81445.81445,0,0,1,69.41016,120.67986Zm-2.5-2.50977a.83228.83228,0,0,1,0-1.16992h0a.8323.8323,0,0,1,1.16992,0h0a.81488.81488,0,0,1,0,1.16992h0a.79487.79487,0,0,1-.58985.25h0A.78607.78607,0,0,1,66.91016,118.17009Z" style="fill: #252626"/>
  </g>
  <g>
    <path d="M82.5,326.40838a.8273.8273,0,0,1-.82812-.82813v-29a.82813.82813,0,0,1,1.65625,0v29A.8273.8273,0,0,1,82.5,326.40838Z" style="fill: #252626"/>
    <path d="M47.5,262.40838h-29a.82813.82813,0,0,1,0-1.65625h29a.82813.82813,0,1,1,0,1.65625Z" style="fill: #252626"/>
    <path d="M146.5,262.40838h-29a.82813.82813,0,0,1,0-1.65625h29a.82813.82813,0,1,1,0,1.65625Z" style="fill: #252626"/>
    <path d="M57.5,237.40838a.82583.82583,0,0,1-.585-.24122l-21.08008-21a.82864.82864,0,1,1,1.16992-1.17382l21.08008,21a.82813.82813,0,0,1-.585,1.415Z" style="fill: #252626"/>
    <path d="M128.4668,308.40838a.82437.82437,0,0,1-.58594-.24317l-20.9668-21a.828.828,0,1,1,1.17188-1.16992l20.96679,21a.82813.82813,0,0,1-.58593,1.41309Z" style="fill: #252626"/>
    <path d="M107.5,237.40838a.82813.82813,0,0,1-.58594-1.41407l21-21a.82864.82864,0,0,1,1.17188,1.17188l-21,21A.82913.82913,0,0,1,107.5,237.40838Z" style="fill: #252626"/>
    <path d="M36.5,308.40838a.82813.82813,0,0,1-.58594-1.41407l21-21a.82864.82864,0,1,1,1.17188,1.17188l-21,21A.82913.82913,0,0,1,36.5,308.40838Z" style="fill: #252626"/>
  </g>
  <g>
    <g>
      <circle cx="82.49984" cy="325.58014" r="13.75229" style="fill: none"/>
      <path d="M81.7793,339.34a.8365.8365,0,0,1,.83008-.83985h0a.83892.83892,0,0,1,.83007.82031h0a.8344.8344,0,0,1-.81933.83985h-.01074A.84024.84024,0,0,1,81.7793,339.34Zm-2.93946.36035a.82816.82816,0,0,1-.58984-1.01074h0a.82453.82453,0,0,1,1.00977-.59961h0a.83537.83537,0,0,1,.58984,1.00976h0a.82.82,0,0,1-.79981.62012h0A1.52711,1.52711,0,0,1,78.83984,339.70037Zm6.53028-.64063a.81274.81274,0,0,1,.58008-1.01953h0a.83634.83634,0,0,1,1.01953.58008h0a.82166.82166,0,0,1-.58008,1.00976h0a.9117.9117,0,0,1-.21973.03028h0A.82455.82455,0,0,1,85.37012,339.05974Zm-10.06055-.79A.82334.82334,0,0,1,75,337.13982h0a.82334.82334,0,0,1,1.12988-.30957h0a.821.821,0,0,1,.30957,1.12988h0a.819.819,0,0,1-.71972.41992h0A.86668.86668,0,0,1,75.30957,338.2697Zm13.4502-.40918a.83008.83008,0,0,1,.29-1.14062h0a.8236.8236,0,0,1,1.12989.2998h0a.81956.81956,0,0,1-.29,1.12989h0a.8127.8127,0,0,1-.41992.12011h0A.8262.8262,0,0,1,88.75977,337.86052Z" style="fill: #a3a3a3"/>
      <g>
        <path d="M72.855,335.38337a13.75229,13.75229,0,1,1,19.448-.15778" style="fill: #e5e5e5"/>
        <path d="M72.85547,336.21111a.82692.82692,0,0,1-.58106-.23731,14.58056,14.58056,0,0,1,10.10743-24.97363h.12207a14.58076,14.58076,0,0,1,10.38964,24.80664.82867.82867,0,1,1-1.18164-1.16211,12.92383,12.92383,0,0,0-9.208-21.98828c-.03614,0-.07227,0-.1084.001a12.92307,12.92307,0,0,0-8.959,22.13476.82813.82813,0,0,1-.58105,1.41895Z" style="fill: #252626"/>
      </g>
    </g>
    <g>
      <circle cx="128.46696" cy="307.5803" r="13.75229" style="fill: none"/>
      <path d="M131.33984,321.05974a.82751.82751,0,0,1,.58008-1.01953h0a.81851.81851,0,0,1,1.01953.57031h0a.8275.8275,0,0,1-.58007,1.01953h0a.84507.84507,0,0,1-.21973.03028h0A.82456.82456,0,0,1,131.33984,321.05974Zm3.38965-1.19922a.83093.83093,0,0,1,.29-1.14062h0a.8419.8419,0,0,1,1.14063.29h0a.83419.83419,0,0,1-.30078,1.13965h0a.7758.7758,0,0,1-.41993.11035h0A.818.818,0,0,1,134.72949,319.86052Zm2.96-2.04a.83644.83644,0,0,1-.00976-1.18066h0a.83319.83319,0,0,1,1.16992-.00977h0a.83519.83519,0,0,1,.00977,1.17969h0a.83854.83854,0,0,1-.58985.24024h0A.85428.85428,0,0,1,137.68945,317.82048Zm2.33008-2.74023a.842.842,0,0,1-.30957-1.12988h0a.82365.82365,0,0,1,1.12988-.31055h0a.823.823,0,0,1,.30957,1.12988h0a.817.817,0,0,1-.71972.41993h0A.87689.87689,0,0,1,140.01953,315.08025Zm1.54981-3.24023a.82837.82837,0,0,1-.58985-1.00977h0a.83877.83877,0,0,1,1.01074-.60059h0a.84283.84283,0,0,1,.59961,1.01075h0a.84108.84108,0,0,1-.81054.62988h0A.748.748,0,0,1,141.56934,311.84Z" style="fill: #1f86cc"/>
      <g>
        <path d="M128.579,321.33214a13.75229,13.75229,0,1,1,13.64026-13.8634" style="fill: #e5e5e5"/>
        <path d="M128.46484,322.1613a14.58081,14.58081,0,0,1-.11621-29.16113c.04-.001.08008-.001.12012-.001a14.59828,14.59828,0,0,1,14.5791,14.46289.828.828,0,0,1-.82129.835h-.00683a.82838.82838,0,0,1-.82813-.82129,12.9407,12.9407,0,0,0-12.92285-12.81934h-.10645a12.924,12.924,0,0,0,.10254,25.84766c.03809,0,.07129.001.11426,0a.82814.82814,0,0,1,.00684,1.65625C128.54492,322.1613,128.50488,322.1613,128.46484,322.1613Z" style="fill: #252626"/>
      </g>
    </g>
    <g>
      <circle cx="146.49984" cy="261.58047" r="13.75229" style="fill: none"/>
      <path d="M158.05957,269.08025a.8238.8238,0,0,1-.30957-1.12988h0a.82136.82136,0,0,1,1.12988-.31055h0a.83865.83865,0,0,1,.30957,1.12988h0a.8493.8493,0,0,1-.71972.41993h0A.87689.87689,0,0,1,158.05957,269.08025Zm1.54981-3.25a.8224.8224,0,0,1-.59961-1.00977h0a.8245.8245,0,0,1,1.00976-.59082h0a.81939.81939,0,0,1,.58985,1.01075h0a.81971.81971,0,0,1-.79.62011h0A.785.785,0,0,1,159.60938,265.83025Zm-.18946-4.35059a.82764.82764,0,0,1,.82031-.83984h0a.83511.83511,0,0,1,.83985.82031h0A.84285.84285,0,0,1,160.25,262.3h0A.8261.8261,0,0,1,159.41992,261.47966Zm-.46-3.34961a.816.816,0,0,1,.58008-1.01953h0a.83655.83655,0,0,1,1.01953.57911h0a.83248.83248,0,0,1-.58008,1.0205h0a.926.926,0,0,1-.22949.03028h0A.81922.81922,0,0,1,158.96,258.13005Zm-1.32031-3.0996h.00976a.82679.82679,0,0,1,.29-1.14063h0a.82337.82337,0,0,1,1.12989.29981h0a.82006.82006,0,0,1-.29,1.13085h0a.8181.8181,0,0,1-.41992.11915h0A.84207.84207,0,0,1,157.63965,255.03045Z" style="fill: #ff4257"/>
      <g>
        <path d="M156.30307,271.22526a13.75228,13.75228,0,1,1-.15778-19.448" style="fill: #e5e5e5"/>
        <path d="M146.49609,276.16033a14.58032,14.58032,0,0,1-.11425-29.16016c.04-.001.081-.001.12109-.001a14.48579,14.48579,0,0,1,10.22363,4.1875.82867.82867,0,1,1-1.16211,1.18164,12.92342,12.92342,0,1,0-9.06738,22.13574c.03613,0,.07129,0,.10742-.001a12.83471,12.83471,0,0,0,9.10742-3.85937.82867.82867,0,1,1,1.18164,1.16211,14.488,14.488,0,0,1-10.27539,4.35449Z" style="fill: #252626"/>
      </g>
    </g>
    <g>
      <circle cx="128.5" cy="215.58054" r="13.75229" style="fill: none"/>
      <path d="M140.96,212.13005a.81786.81786,0,0,1,.56934-1.01953h0a.81276.81276,0,0,1,1.0205.57911h0v-.00977h0a.83357.83357,0,0,1-.57031,1.03027h0a.87473.87473,0,0,1-.21972.01953h0A.82368.82368,0,0,1,140.96,212.13005Zm-1.32031-3.11035a.82939.82939,0,0,1,.29-1.12988h0a.8405.8405,0,0,1,1.13965.29h0a.83439.83439,0,0,1-.29981,1.14062h0a.77293.77293,0,0,1-.41015.10938h0A.82007.82007,0,0,1,139.63965,209.0197Zm-2.08008-2.64941a.84642.84642,0,0,1-.00977-1.18066h0a.837.837,0,0,1,1.17969,0h0a.83438.83438,0,0,1,.01074,1.17089h0a.8704.8704,0,0,1-.60058.23926h0A.8068.8068,0,0,1,137.55957,206.37029Zm-2.68945-2.04a.82159.82159,0,0,1-.31055-1.12988h0a.84144.84144,0,0,1,1.12988-.31055h0A.82411.82411,0,0,1,136,204.0197h0a.81968.81968,0,0,1-.7207.41993h0A.76322.76322,0,0,1,134.87012,204.33025ZM131.75,203.07048a.84345.84345,0,0,1-.60059-1.01074h0a.835.835,0,0,1,1.01075-.59961h0v.00977h0a.82738.82738,0,0,1,.59961,1h0a.83191.83191,0,0,1-.80957.62012h0A.72772.72772,0,0,1,131.75,203.07048Z" style="fill: #e57fc6"/>
      <g>
        <path d="M142.25183,215.46851a13.75228,13.75228,0,1,1-13.8634-13.64027" style="fill: #e5e5e5"/>
        <path d="M128.49707,230.1613a14.5808,14.5808,0,0,1-.11523-29.16113.80479.80479,0,0,1,.835.82129.828.828,0,0,1-.82129.835,12.924,12.924,0,0,0,.10254,25.84766h.10644a12.93921,12.93921,0,0,0,12.81934-13.02832.828.828,0,0,1,.82129-.835h.00683a.82838.82838,0,0,1,.82813.82129,14.57926,14.57926,0,0,1-14.46192,14.69824C128.57715,230.1613,128.53711,230.1613,128.49707,230.1613Z" style="fill: #252626"/>
      </g>
    </g>
    <g>
      <circle cx="36.42017" cy="215.58054" r="13.75229" style="fill: none"/>
      <path d="M22.89941,212.92986a.834.834,0,0,1-.59961-1.00977h.00977a.81908.81908,0,0,1,1-.59961h0a.83412.83412,0,0,1,.60059,1.00977h0a.83021.83021,0,0,1-.80078.62012h0A.73394.73394,0,0,1,22.89941,212.92986ZM24.04,209.5197a.841.841,0,0,1-.31055-1.12988h0a.82381.82381,0,0,1,1.12989-.30957h0a.82135.82135,0,0,1,.31054,1.12988h0a.82012.82012,0,0,1-.71972.41992h0A.8637.8637,0,0,1,24.04,209.5197Zm1.98926-3a.82515.82515,0,0,1,0-1.16992h0a.83438.83438,0,0,1,1.1709-.00976h0A.84606.84606,0,0,1,27.21,206.5197h0a.85737.85737,0,0,1-.58984.24024h0A.86143.86143,0,0,1,26.0293,206.5197Zm2.70019-2.37011a.83867.83867,0,0,1,.29-1.13965h0a.83612.83612,0,0,1,1.14063.2998h0a.83119.83119,0,0,1-.29,1.12989h0a.82747.82747,0,0,1-.41992.11035h0A.83308.83308,0,0,1,28.72949,204.14959Zm3.22071-1.60938a.81442.81442,0,0,1,.56933-1.00976h0a.81439.81439,0,0,1,1.02051.56933h0a.81912.81912,0,0,1-.57031,1.02051h0a.9304.9304,0,0,1-.2295.0293h0A.8183.8183,0,0,1,31.9502,202.54021Z" style="fill: #e57fc6"/>
      <g>
        <path d="M36.30814,201.8287a13.75229,13.75229,0,1,1-13.64026,13.8634" style="fill: #e5e5e5"/>
        <path d="M36.417,230.1613a14.5801,14.5801,0,0,1-14.57715-14.46191.828.828,0,0,1,.82129-.835H22.668a.82836.82836,0,0,1,.82812.82129A12.939,12.939,0,0,0,36.418,228.50408h.10644a12.924,12.924,0,0,0-.10253-25.84766.54923.54923,0,0,1-.11329,0,.82814.82814,0,0,1-.00683-1.65625c.041-.001.081-.001.12109-.001a14.5808,14.5808,0,0,1,.11524,29.16113C36.49707,230.1613,36.457,230.1613,36.417,230.1613Z" style="fill: #252626"/>
      </g>
    </g>
    <g>
      <circle cx="18.50016" cy="261.58014" r="13.75229" style="fill: none"/>
      <path d="M5.92969,268.9699h0a.82939.82939,0,0,1,.29-1.12988h0a.82916.82916,0,0,1,1.12988.29h.00977a.833.833,0,0,1-.29981,1.13965h0a.90441.90441,0,0,1-.41992.11035h0A.82719.82719,0,0,1,5.92969,268.9699Zm-1.49024-3.5a.82783.82783,0,0,1,.58008-1.01953h0a.82484.82484,0,0,1,1.02051.58008v-.01075A.82886.82886,0,0,1,5.46,266.04021h0a.85694.85694,0,0,1-.21973.03027h0A.83523.83523,0,0,1,4.43945,265.4699Zm-.51953-3.76953a.82751.82751,0,0,1,.82031-.83985h0a.82648.82648,0,0,1,.82911.82911h0a.81836.81836,0,0,1-.81934.83007h0A.8259.8259,0,0,1,3.91992,261.70037Zm1.04981-2.77051a.8223.8223,0,0,1-.58985-1.00977h0a.82317.82317,0,0,1,1.00977-.58984h0A.81793.81793,0,0,1,5.97949,258.34h0a.82246.82246,0,0,1-.7998.62011h0A.74263.74263,0,0,1,4.96973,258.92986Zm1.15039-3.41016a.82136.82136,0,0,1-.31055-1.12988h0a.83929.83929,0,0,1,1.12988-.30957h0A.841.841,0,0,1,7.25,255.21013h0a.84872.84872,0,0,1-.73047.41992h0A.75491.75491,0,0,1,6.12012,255.5197Z" style="fill: #ff4257"/>
      <g>
        <path d="M8.69693,251.93534a13.75229,13.75229,0,1,1,.15778,19.448" style="fill: #e5e5e5"/>
        <path d="M18.49707,276.1613a14.48579,14.48579,0,0,1-10.22363-4.1875.82867.82867,0,1,1,1.16211-1.18164,12.92342,12.92342,0,1,0,9.06738-22.13574c-.03613,0-.07129,0-.10742.001a12.83471,12.83471,0,0,0-9.10742,3.85937.82867.82867,0,1,1-1.18164-1.16211,14.488,14.488,0,0,1,10.27539-4.35449h.12207a14.58032,14.58032,0,0,1,.11425,29.16016C18.57813,276.1613,18.53711,276.1613,18.49707,276.1613Z" style="fill: #252626"/>
      </g>
    </g>
    <g>
      <circle cx="36.5" cy="307.58007" r="13.75229" style="fill: none"/>
      <path d="M32.83984,321.70037h0a.83421.83421,0,0,1-.59961-1.01074h0A.84133.84133,0,0,1,33.25,320.09h0a.83362.83362,0,0,1,.59961,1.00976h0a.82825.82825,0,0,1-.79981.62012h0A1.52711,1.52711,0,0,1,32.83984,321.70037Zm-3.53027-1.43067A.82334.82334,0,0,1,29,319.13982h0a.82105.82105,0,0,1,1.12988-.30957h0a.82908.82908,0,0,1,.30957,1.12012h0a.819.819,0,0,1-.71972.41992h0A.8549.8549,0,0,1,29.30957,320.2697Zm-3.04-2.2998A.83319.83319,0,0,1,26.25977,316.8h0a.84428.84428,0,0,1,1.17968-.00977h0a.83327.83327,0,0,1,.01075,1.16992h0a.83572.83572,0,0,1-.60059.25h0A.85228.85228,0,0,1,26.26953,317.9699Zm-2.33984-2.99024a.83866.83866,0,0,1,.29-1.13964h0a.83473.83473,0,0,1,1.13965.2998h0a.82388.82388,0,0,1-.29981,1.12988h0a.76533.76533,0,0,1-.41016.11035h0A.83144.83144,0,0,1,23.92969,314.97966Zm-1.49024-3.50976v.00976h0a.843.843,0,0,1,.58008-1.02929h0a.83249.83249,0,0,1,1.02051.58008h0A.83268.83268,0,0,1,23.46,312.05h0a.76616.76616,0,0,1-.21973.03027h0A.83252.83252,0,0,1,22.43945,311.4699Z" style="fill: #1f86cc"/>
      <g>
        <path d="M22.74817,307.6921a13.75228,13.75228,0,1,1,13.8634,13.64027" style="fill: #e5e5e5"/>
        <path d="M36.61133,322.16033a.82814.82814,0,0,1-.00684-1.65625,12.924,12.924,0,0,0-.10254-25.84766h-.10644a12.94067,12.94067,0,0,0-12.81934,13.0293.828.828,0,0,1-.82129.835h-.00683a.82838.82838,0,0,1-.82813-.82129,14.59782,14.59782,0,0,1,14.46192-14.69922c.04-.001.08105-.001.12109-.001a14.5808,14.5808,0,0,1,.11523,29.16113Z" style="fill: #252626"/>
      </g>
    </g>
  </g>
  <g>
    <path d="M81.66992,282.57048a.82609.82609,0,0,1,.82031-.83007h0a.8273.8273,0,0,1,.82911.83007h0a.82443.82443,0,0,1-.81934.82911h0A.82731.82731,0,0,1,81.66992,282.57048Zm0-3.5a.82609.82609,0,0,1,.82031-.83007h0a.8273.8273,0,0,1,.82911.83007h0a.82648.82648,0,0,1-.82911.82911h0A.82526.82526,0,0,1,81.66992,279.07048Zm0-3.5a.82609.82609,0,0,1,.82031-.83007h0a.8273.8273,0,0,1,.82911.83007h0a.83337.83337,0,0,1-.82911.82911h0A.83224.83224,0,0,1,81.66992,275.57048Z" style="fill: #252626"/>
    <path d="M60.66992,261.57048a.82813.82813,0,0,1,.83008-.83007h0a.82526.82526,0,0,1,.81934.83007h0a.81824.81824,0,0,1-.81934.82911h0A.82731.82731,0,0,1,60.66992,261.57048Zm3.5,0a.82609.82609,0,0,1,.82031-.83007h0a.8273.8273,0,0,1,.82911.83007h0A.82443.82443,0,0,1,65,262.39959h0A.82731.82731,0,0,1,64.16992,261.57048Zm3.49024,0a.8344.8344,0,0,1,.83007-.83007h0a.8273.8273,0,0,1,.82911.83007h0a.82506.82506,0,0,1-.82911.81934h0A.82521.82521,0,0,1,67.66016,261.57048Z" style="fill: #252626"/>
    <path d="M102.66992,261.57048a.82813.82813,0,0,1,.83008-.83007h0a.82526.82526,0,0,1,.81934.83007h0a.82443.82443,0,0,1-.81934.82911h0A.82731.82731,0,0,1,102.66992,261.57048Zm-3.5,0a.82609.82609,0,0,1,.82031-.83007h0a.8273.8273,0,0,1,.82911.83007h0a.82648.82648,0,0,1-.82911.82911h0A.82526.82526,0,0,1,99.16992,261.57048Zm-3.5,0a.82813.82813,0,0,1,.83008-.83007h0a.82526.82526,0,0,1,.81934.83007h0a.82506.82506,0,0,1-.82911.81934h0A.81689.81689,0,0,1,95.66992,261.57048Z" style="fill: #252626"/>
    <path d="M71.91016,252.14959a.81489.81489,0,0,1,0-1.16993h0a.83412.83412,0,0,1,1.16992,0h0a.83413.83413,0,0,1,0,1.16993h0a.8334.8334,0,0,1-.58985.25h0A.82489.82489,0,0,1,71.91016,252.14959Zm-2.5-2.48926a.84543.84543,0,0,1,0-1.18067h0a.83412.83412,0,0,1,1.16992,0h0a.81487.81487,0,0,1,0,1.16993h0a.7913.7913,0,0,1-.58985.25h0A.81349.81349,0,0,1,69.41016,249.66033Zm-2.5-2.5a.84543.84543,0,0,1,0-1.18067h0a.83412.83412,0,0,1,1.16992,0h0a.82764.82764,0,0,1,0,1.18067h0a.8168.8168,0,0,1-.58008.23926h0A.81949.81949,0,0,1,66.91016,247.16033Z" style="fill: #252626"/>
    <path d="M96.91016,277.16033a.84543.84543,0,0,1,0-1.18067h0a.82439.82439,0,0,1,1.16992.01075h0a.83409.83409,0,0,1,0,1.16992h0a.8168.8168,0,0,1-.58008.23926h0A.81949.81949,0,0,1,96.91016,277.16033Zm-2.5-2.51074a.83227.83227,0,0,1,0-1.16993h0a.83412.83412,0,0,1,1.16992,0h0a.8473.8473,0,0,1,0,1.18067h0a.82274.82274,0,0,1-.58985.23926h0A.78248.78248,0,0,1,94.41016,274.64959Zm-2.5-2.5a.83229.83229,0,0,1,0-1.16993h0a.83412.83412,0,0,1,1.16992,0h0a.83413.83413,0,0,1,0,1.16993h0a.8334.8334,0,0,1-.58985.25h0A.82489.82489,0,0,1,91.91016,272.14959Z" style="fill: #252626"/>
    <path d="M91.91016,252.14959a.81489.81489,0,0,1,0-1.16993h0a.83412.83412,0,0,1,1.16992,0h0a.83413.83413,0,0,1,0,1.16993h0a.8334.8334,0,0,1-.58985.25h0A.82489.82489,0,0,1,91.91016,252.14959Zm2.5-2.48926a.82764.82764,0,0,1,0-1.18067h0a.83412.83412,0,0,1,1.16992,0h0a.8473.8473,0,0,1,0,1.18067h0a.82274.82274,0,0,1-.58985.23926h0A.81349.81349,0,0,1,94.41016,249.66033Zm2.5-2.51074a.83227.83227,0,0,1,0-1.16993h0a.83412.83412,0,0,1,1.16992,0h0a.82764.82764,0,0,1,0,1.18067h0a.8168.8168,0,0,1-.58008.23926h0A.78828.78828,0,0,1,96.91016,247.14959Z" style="fill: #252626"/>
    <path d="M66.91016,277.16033a.84543.84543,0,0,1,0-1.18067h0a.83412.83412,0,0,1,1.16992,0h0a.82764.82764,0,0,1,0,1.18067h0a.8168.8168,0,0,1-.58008.23926h0A.81949.81949,0,0,1,66.91016,277.16033Zm2.5-2.5a.84543.84543,0,0,1,0-1.18067h0a.83412.83412,0,0,1,1.16992,0h0a.82764.82764,0,0,1,0,1.18067h0A.8168.8168,0,0,1,70,274.89959h0A.81949.81949,0,0,1,69.41016,274.66033Zm2.5-2.51074a.81489.81489,0,0,1,0-1.16993h0a.83412.83412,0,0,1,1.16992,0h0a.83413.83413,0,0,1,0,1.16993h0a.8334.8334,0,0,1-.58985.25h0A.82489.82489,0,0,1,71.91016,272.14959Z" style="fill: #252626"/>
  </g>
  <g>
    <path d="M52.32386,7.23045h2.96a2.11287,2.11287,0,0,1,1.51758.64063,2.33829,2.33829,0,0,1,.61621,1.59082,2.74769,2.74769,0,0,1-.10937.79492,1.985,1.985,0,0,1,.3955.34277l-.01074-.01172a2.44834,2.44834,0,0,1,.80274,1.80079,2.63917,2.63917,0,0,1-.792,1.88964,2.73818,2.73818,0,0,1-1.9248.81739H52.32386Zm2.96,2.57324c.13184-.01074.24219-.21.24219-.34179a.38647.38647,0,0,0-.24219-.34278H54.21644v.68457Zm.49512,3.40332a.824.824,0,0,0,.8252-.81835c0-.44141-.374-.68458-.8252-.707h-1.5625V13.207Z" style="fill: #252626"/>
    <path d="M69.8805,15.09569H67.60316l-2.59668-3.40235H64.8307v3.40235H62.97132V7.23045h2.87207a2.12849,2.12849,0,0,1,1.50684.62891,2.37755,2.37755,0,0,1,.627,1.60254,2.22475,2.22475,0,0,1-.94629,1.85547ZM64.8307,9.81541h1.01269c.15332,0,.26368-.19922.26368-.35351,0-.15528-.11036-.35352-.26368-.35352H64.8307Z" style="fill: #252626"/>
    <path d="M78.40394,13.30565h-2.2002l-.69335,1.79H73.486l3.01465-7.86524h1.60645l3.02539,7.86524H79.07484Zm-1.10059-3.02637-.374,1.14844h.73731Z" style="fill: #252626"/>
    <path d="M87.29066,10.8867v4.209H85.3766V7.23045h1.749L89.93128,11.417V7.23045h1.91407v7.86524H90.10707Z" style="fill: #252626"/>
    <path d="M96.86,7.23045h5.33594V9.10838H98.77406v.67383h2.99218v1.91113H98.77406v1.502h3.34472v1.90039H96.86Z" style="fill: #252626"/>
    <path d="M109.07972,15.07323a5.28954,5.28954,0,0,1-2.45312-1.33594L107.88148,12.29a3.24282,3.24282,0,0,0,1.584.92774,1.8834,1.8834,0,0,0,.418.05468,1.2931,1.2931,0,0,0,.57227-.12109.57374.57374,0,0,0,.3623-.50781c0-.30957-.57129-.49707-1.0664-.59668a7.52186,7.52186,0,0,1-1.73828-.542,2.16882,2.16882,0,0,1-1.13379-1.95508,2.301,2.301,0,0,1,.40722-1.28125,2.53912,2.53912,0,0,1,1.0127-.81738l-.01172.01074a3.16432,3.16432,0,0,1,1.34277-.29785,3.72032,3.72032,0,0,1,.583.04394,4.56325,4.56325,0,0,1,2.25488,1.16016l-1.21,1.458a2.42428,2.42428,0,0,0-1.65039-.77344,1.10561,1.10561,0,0,0-.50586.11035.458.458,0,0,0-.31933.38672c0,.29883.39648.44238,1.03418.57422.0664.02246.14355.02246.2207.04492a5.76844,5.76844,0,0,1,1.48437.47461h-.01074a2.20237,2.20237,0,0,1,1.21,2,2.32772,2.32772,0,0,1-.418,1.38086,2.70837,2.70837,0,0,1-1.04492.83886,2.8506,2.8506,0,0,1-1.38574.29883A3.68089,3.68089,0,0,1,109.07972,15.07323Z" style="fill: #252626"/>
  </g>
  <g>
    <path d="M35.26953,22.23826a1.31558,1.31558,0,0,0-1.37012-1.16308,1.8415,1.8415,0,0,0-1.69824,2.06445,1.84149,1.84149,0,0,0,1.69824,2.06445,1.44287,1.44287,0,0,0,1.40821-1.37988h.59082a1.97116,1.97116,0,0,1-1.999,1.877,2.31776,2.31776,0,0,1-2.28906-2.56153,2.31858,2.31858,0,0,1,2.28906-2.5625,1.81118,1.81118,0,0,1,1.96192,1.66113Z" style="fill: #252626"/>
    <path d="M41.0625,23.13963a2.304,2.304,0,1,1-4.5791,0,2.30409,2.30409,0,1,1,4.5791,0Zm-3.98828,0a1.73112,1.73112,0,1,0,3.39746,0,1.73112,1.73112,0,1,0-3.39746,0Z" style="fill: #252626"/>
    <path d="M41.95605,18.86033h.5918v6.7002h-.5918Z" style="fill: #252626"/>
    <path d="M43.69336,18.86033h.5918v6.7002h-.5918Z" style="fill: #252626"/>
    <path d="M45.43066,18.86033h.5918v.94727h-.5918Zm0,1.8584h.5918v4.8418h-.5918Z" style="fill: #252626"/>
    <path d="M51.419,25.56053h-.544v-.91992h-.01855a1.91907,1.91907,0,0,1-1.72657,1.06055c-1.47363,0-2.17773-1.19141-2.17773-2.56153s.7041-2.5625,2.17773-2.5625a1.72863,1.72863,0,0,1,1.67969,1.06055h.01856V18.86033H51.419Zm-2.28907-.35645c1.25684,0,1.69825-1.06054,1.69825-2.06445s-.44141-2.06445-1.69825-2.06445c-1.127,0-1.58593,1.06055-1.58593,2.06445S48.00293,25.20408,49.12988,25.20408Z" style="fill: #252626"/>
    <path d="M52.55664,18.86033h.5918v.94727h-.5918Zm0,1.8584h.5918v4.8418h-.5918Z" style="fill: #252626"/>
    <path d="M54.27539,20.71873h.59082v.835h.01953a1.64162,1.64162,0,0,1,1.54785-.97656c1.36036,0,1.77344.71387,1.77344,1.86817v3.11523h-.59082V22.53905c0-.835-.27246-1.46387-1.22949-1.46387a1.529,1.529,0,0,0-1.52051,1.66113v2.82422h-.59082Z" style="fill: #252626"/>
    <path d="M63.418,25.166c-.00879,1.44531-.5625,2.32812-2.14844,2.32812-.9668,0-1.92383-.43164-2.00879-1.46484h.5918a1.27264,1.27264,0,0,0,1.417.9668c1.08789,0,1.55762-.64746,1.55762-1.83008v-.65625h-.01856a1.67877,1.67877,0,0,1-1.53906.99414c-1.54883,0-2.18652-1.10742-2.18652-2.48633a2.21515,2.21515,0,0,1,2.18652-2.44043,1.70556,1.70556,0,0,1,1.53906.97656h.01856v-.835H63.418Zm-.59082-2.083c0-.94726-.44141-2.00781-1.55762-2.00781-1.126,0-1.5957,1.0039-1.5957,2.00781,0,.97559.50683,1.92383,1.5957,1.92383C62.292,25.00682,62.82715,24.06834,62.82715,23.083Z" style="fill: #252626"/>
    <path d="M70.05664,22.13573A1.11451,1.11451,0,0,0,68.79,21.07518c-.52637,0-1.14551.20605-1.14551.835,0,.52539.60059.71289,1.00391.81641l.78906.17871a1.418,1.418,0,0,1,1.37891,1.34179c0,1.05078-1.041,1.45411-1.94239,1.45411a1.75414,1.75414,0,0,1-1.98925-1.708h.59082a1.27669,1.27669,0,0,0,1.42675,1.21093c.55371,0,1.32325-.24414,1.32325-.91992,0-.5625-.52539-.751-1.06055-.88183l-.75977-.16895c-.76953-.207-1.35156-.46972-1.35156-1.29492,0-.98535.9668-1.36133,1.82031-1.36133a1.58688,1.58688,0,0,1,1.77344,1.5586Z" style="fill: #252626"/>
    <path d="M71.61621,22.20116c.05664-1.13575.85352-1.624,1.96094-1.624.85449,0,1.7832.2627,1.7832,1.5586V24.707a.315.315,0,0,0,.34766.35645.56.56,0,0,0,.1875-.03809v.49805a1.67109,1.67109,0,0,1-.38477.03711c-.60058,0-.69433-.33789-.69433-.84473h-.01953a1.84462,1.84462,0,0,1-1.76368.98536c-.8916,0-1.624-.44141-1.624-1.417,0-1.36035,1.32324-1.40722,2.59961-1.55761.48828-.05664.76074-.12207.76074-.65723,0-.79688-.57324-.99414-1.26758-.99414-.73144,0-1.27539.33789-1.29492,1.126Zm3.15332.71289H74.75c-.07422.14062-.33691.1875-.49707.21582-1.00391.17871-2.252.16894-2.252,1.11718a1.00841,1.00841,0,0,0,1.0791.957,1.55754,1.55754,0,0,0,1.68945-1.5205Z" style="fill: #252626"/>
    <path d="M76.5459,20.71873h.54394v.81641h.02832a1.69093,1.69093,0,0,1,1.58594-.958,1.34717,1.34717,0,0,1,1.38867.94824,1.63757,1.63757,0,0,1,1.53907-.94824c1.06054,0,1.60449.55371,1.60449,1.69922v3.28418h-.59082V22.30467c0-.79785-.30078-1.22949-1.14551-1.22949-1.02246,0-1.31348.84473-1.31348,1.74512v2.74023H79.5957V22.27635c.00879-.65723-.26269-1.20117-1.01367-1.20117-1.02344,0-1.43555.76953-1.44531,1.78223v2.70312H76.5459Z" style="fill: #252626"/>
    <path d="M84.36621,20.71873h.544v.91895h.01855a1.81406,1.81406,0,0,1,1.72656-1.06055c1.47364,0,2.17774,1.19238,2.17774,2.5625s-.7041,2.56153-2.17774,2.56153a1.72774,1.72774,0,0,1-1.67968-1.06055H84.957v2.71191h-.59082Zm2.28906.35645c-1.30371,0-1.69824.96582-1.69824,2.06445,0,1.00391.44141,2.06445,1.69824,2.06445,1.126,0,1.58594-1.06054,1.58594-2.06445S87.78125,21.07518,86.65527,21.07518Z" style="fill: #252626"/>
    <path d="M89.76367,18.86033h.5918v6.7002h-.5918Z" style="fill: #252626"/>
    <path d="M91.83887,23.29881a1.71782,1.71782,0,0,0,1.5957,1.90527,1.47439,1.47439,0,0,0,1.51953-1.23925h.5918a1.97763,1.97763,0,0,1-2.11133,1.73633c-1.53906,0-2.18652-1.18262-2.18652-2.56153,0-1.27637.64746-2.5625,2.18652-2.5625,1.55762,0,2.17676,1.36133,2.12988,2.72168Zm3.13476-.49707a1.62707,1.62707,0,0,0-1.53906-1.72656,1.71831,1.71831,0,0,0-1.5957,1.72656Z" style="fill: #252626"/>
    <path d="M98.919,22.20116c.05664-1.13575.85351-1.624,1.96093-1.624.8545,0,1.78321.2627,1.78321,1.5586V24.707a.315.315,0,0,0,.34765.35645.55994.55994,0,0,0,.1875-.03809v.49805a1.671,1.671,0,0,1-.38476.03711c-.60059,0-.69434-.33789-.69434-.84473h-.01953a1.8446,1.8446,0,0,1-1.76367.98536c-.8916,0-1.624-.44141-1.624-1.417,0-1.36035,1.32325-1.40722,2.59961-1.55761.48828-.05664.76075-.12207.76075-.65723,0-.79688-.57325-.99414-1.26758-.99414-.73145,0-1.27539.33789-1.29492,1.126Zm3.15332.71289h-.01954c-.07421.14062-.33691.1875-.49707.21582-1.0039.17871-2.252.16894-2.252,1.11718a1.00841,1.00841,0,0,0,1.0791.957,1.55755,1.55755,0,0,0,1.68946-1.5205Z" style="fill: #252626"/>
    <path d="M103.83887,20.71873h.59082v.835h.01953a1.64162,1.64162,0,0,1,1.54785-.97656c1.36035,0,1.77344.71387,1.77344,1.86817v3.11523h-.59082V22.53905c0-.835-.27246-1.46387-1.22949-1.46387a1.529,1.529,0,0,0-1.52051,1.66113v2.82422h-.59082Z" style="fill: #252626"/>
    <path d="M113.15039,25.56053h-.54394v-.91992h-.01856a1.91907,1.91907,0,0,1-1.72656,1.06055c-1.47363,0-2.17774-1.19141-2.17774-2.56153s.70411-2.5625,2.17774-2.5625a1.72863,1.72863,0,0,1,1.67969,1.06055h.01855V18.86033h.59082Zm-2.28906-.35645c1.25683,0,1.69824-1.06054,1.69824-2.06445s-.44141-2.06445-1.69824-2.06445c-1.12695,0-1.58594,1.06055-1.58594,2.06445S109.73438,25.20408,110.86133,25.20408Z" style="fill: #252626"/>
    <path d="M116.87988,18.86033h.59082v2.69336h.01953a1.64164,1.64164,0,0,1,1.54786-.97656c1.36035,0,1.77343.71387,1.77343,1.86817v3.11523h-.59082V22.53905c0-.835-.27246-1.46387-1.22949-1.46387a1.529,1.529,0,0,0-1.52051,1.66113v2.82422h-.59082Z" style="fill: #252626"/>
    <path d="M126.2666,23.13963a2.304,2.304,0,1,1-4.5791,0,2.30409,2.30409,0,1,1,4.5791,0Zm-3.98828,0a1.73112,1.73112,0,1,0,3.39746,0,1.73112,1.73112,0,1,0-3.39746,0Z" style="fill: #252626"/>
    <path d="M127.16016,18.86033h.59179v6.7002h-.59179Z" style="fill: #252626"/>
    <path d="M133.14844,25.56053h-.54395v-.91992h-.01855a1.91907,1.91907,0,0,1-1.72656,1.06055c-1.47364,0-2.17774-1.19141-2.17774-2.56153s.7041-2.5625,2.17774-2.5625a1.72862,1.72862,0,0,1,1.67968,1.06055h.01856V18.86033h.59082Zm-2.28906-.35645c1.25683,0,1.69824-1.06054,1.69824-2.06445s-.44141-2.06445-1.69824-2.06445c-1.127,0-1.58594,1.06055-1.58594,2.06445S129.73242,25.20408,130.85938,25.20408Z" style="fill: #252626"/>
  </g>
  <g>
    <path d="M2.5,23.83006a.82031.82031,0,0,1-.83008-.82031.84648.84648,0,0,1,.24024-.58984.8633.8633,0,0,1,1.17968,0,.94586.94586,0,0,1,.16993.26953.716.716,0,0,1,.07031.32031.80968.80968,0,0,1-.06055.30957,1.24117,1.24117,0,0,1-.17969.27051A.82364.82364,0,0,1,2.5,23.83006Z" style="fill: #252626"/>
    <path d="M20.9502,23.00975a.82731.82731,0,0,1,.8291-.83008h0a.82753.82753,0,0,1,.83008.83008h0a.82548.82548,0,0,1-.83008.82031h0A.82525.82525,0,0,1,20.9502,23.00975Zm-4.82032,0a.82814.82814,0,0,1,.83008-.83008h0a.82814.82814,0,0,1,.83008.83008h0a.8261.8261,0,0,1-.83008.82031h0A.8261.8261,0,0,1,16.12988,23.00975Zm-4.82031,0a.82814.82814,0,0,1,.83008-.83008h0a.82814.82814,0,0,1,.83008.83008h0a.8261.8261,0,0,1-.83008.82031h0A.8261.8261,0,0,1,11.30957,23.00975Zm-4.81934,0a.82732.82732,0,0,1,.82911-.83008h0a.82813.82813,0,0,1,.83007.83008h0a.82609.82609,0,0,1-.83007.82031h0A.82526.82526,0,0,1,6.49023,23.00975Z" style="fill: #252626"/>
    <path d="M26.59961,23.83006a.81329.81329,0,0,1-.30957-.06055.82106.82106,0,0,1-.4502-.45019.81869.81869,0,0,1-.07031-.30957.87773.87773,0,0,1,.07031-.32031.80032.80032,0,0,1,.17969-.26953.711.711,0,0,1,.27051-.17969.85576.85576,0,0,1,.62988,0,.83184.83184,0,0,1,.4502.44922.8675.8675,0,0,1,.05957.32031.8089.8089,0,0,1-.05957.30957.82932.82932,0,0,1-.4502.45019A.86832.86832,0,0,1,26.59961,23.83006Z" style="fill: #252626"/>
  </g>
  <g>
    <path d="M138.05957,23.83006a.81333.81333,0,0,1-.30957-.06055A.843.843,0,0,1,137.22949,23a.80958.80958,0,0,1,.25-.58007.64334.64334,0,0,1,.27051-.17969.85125.85125,0,0,1,.89941.17969A.84093.84093,0,0,1,138.88965,23a.8231.8231,0,0,1-.05957.31934.79758.79758,0,0,1-.18067.27051A.822.822,0,0,1,138.05957,23.83006Z" style="fill: #252626"/>
    <path d="M156.7793,23.00975a.82814.82814,0,0,1,.83008-.83008h0a.82813.82813,0,0,1,.83007.83008h0a.82609.82609,0,0,1-.83007.82031h0A.82609.82609,0,0,1,156.7793,23.00975Zm-4.87989,0a.82814.82814,0,0,1,.83008-.83008h0a.82609.82609,0,0,1,.82031.83008h0a.824.824,0,0,1-.82031.82031h0A.8261.8261,0,0,1,151.89941,23.00975Zm-4.88964,0a.82813.82813,0,0,1,.83007-.83008h0a.83441.83441,0,0,1,.83008.83008h0a.83244.83244,0,0,1-.83008.82031h0A.82609.82609,0,0,1,147.00977,23.00975Zm-4.88965,0a.82814.82814,0,0,1,.83008-.83008h0a.82731.82731,0,0,1,.8291.83008h0a.82525.82525,0,0,1-.8291.82031h0A.82609.82609,0,0,1,142.12012,23.00975Z" style="fill: #252626"/>
    <path d="M162.5,23.83983a.79162.79162,0,0,1-.58008-.25.8726.8726,0,0,1-.19043-.27051.8089.8089,0,0,1-.05957-.30957.8675.8675,0,0,1,.05957-.32031,1.01524,1.01524,0,0,1,.19043-.26953.67981.67981,0,0,1,.25977-.17969.88145.88145,0,0,1,.63965,0,.67593.67593,0,0,1,.26074.17969,1.01147,1.01147,0,0,1,.18945.26953.86832.86832,0,0,1,.06055.32031.80968.80968,0,0,1-.06055.30957.86985.86985,0,0,1-.18945.27051A.79481.79481,0,0,1,162.5,23.83983Z" style="fill: #252626"/>
  </g>
  <path d="M60.5293,223.9699a.825.825,0,0,1-.60938-1h0a.8198.8198,0,0,1,1-.60938h0a.81739.81739,0,0,1,.60938.98926h0a.83039.83039,0,0,1-.79981.64063h0A1.4065,1.4065,0,0,1,60.5293,223.9699Zm.81054-3.35938a.81758.81758,0,0,1-.61035-1h0a.82369.82369,0,0,1,1-.61035h0a.84152.84152,0,0,1,.61035,1h0a.8324.8324,0,0,1-.81054.63965h0A.63829.63829,0,0,1,61.33984,220.61052Zm.79981-3.35058a.82978.82978,0,0,1-.61035-1h0a.822.822,0,0,1,1-.61035h0a.82873.82873,0,0,1,.61035,1h0a.82042.82042,0,0,1-.79981.63086h0A.66539.66539,0,0,1,62.13965,217.25994Zm.81055-3.36035a.82324.82324,0,0,1-.61036-1h0a.83086.83086,0,0,1,1-.60938h0a.834.834,0,0,1,.61036,1h0a.83142.83142,0,0,1-.80079.63965h0A.62641.62641,0,0,1,62.9502,213.89959ZM63.75,210.55a.83146.83146,0,0,1-.61035-1h0a.83492.83492,0,0,1,1-.61035h0a.822.822,0,0,1,.61035,1h0a.81235.81235,0,0,1-.7998.63085h0A.69492.69492,0,0,1,63.75,210.55Zm.80957-3.34961a.83353.83353,0,0,1-.60937-1h0a.82039.82039,0,0,1,1-.61035h0a.8161.8161,0,0,1,.60937,1h0a.83129.83129,0,0,1-.7998.62988h0A1.39011,1.39011,0,0,1,64.55957,207.20037Zm.81055-3.36035a.816.816,0,0,1-.61035-1h0a.81854.81854,0,0,1,.99023-.61036h0a.82069.82069,0,0,1,.60938,1h0a.81237.81237,0,0,1-.79981.63086h0A.59766.59766,0,0,1,65.37012,203.84Zm.80957-3.34961a.82817.82817,0,0,1-.62012-1h0a.82579.82579,0,0,1,1-.61036h0a.81669.81669,0,0,1,.61035,1h0a.82058.82058,0,0,1-.7998.62989h0A1.25977,1.25977,0,0,1,66.17969,200.49041Zm.7998-3.36036a.81538.81538,0,0,1-.60937-1h0a.83622.83622,0,0,1,1-.61035h0a.83353.83353,0,0,1,.60937,1h0a.833.833,0,0,1-.80957.64063h0A.64581.64581,0,0,1,66.97949,197.13005Zm.81055-3.3496a.8213.8213,0,0,1-.61035-1h0a.8178.8178,0,0,1,.99023-.61036h0a.83007.83007,0,0,1,.62012,1h0a.83354.83354,0,0,1-.81055.62989h0A1.24719,1.24719,0,0,1,67.79,193.78045Zm.7998-3.35059a.83322.83322,0,0,1-.61035-1h0a.83522.83522,0,0,1,1-.62012h0a.8394.8394,0,0,1,.61035,1.01074h0a.83237.83237,0,0,1-.7998.62989h0A1.391,1.391,0,0,1,68.58984,190.42986Zm.80957-3.35938a.82142.82142,0,0,1-.60937-1h0a.82323.82323,0,0,1,1-.61035h0a.83608.83608,0,0,1,.60937,1h0a.83212.83212,0,0,1-.80957.63965h0A.6443.6443,0,0,1,69.39941,187.07048Zm.80079-3.35058a.841.841,0,0,1-.61036-1h0a.82472.82472,0,0,1,1-.60938h0a.8167.8167,0,0,1,.61036,1h0a.8225.8225,0,0,1-.80079.62989h0A1.53416,1.53416,0,0,1,70.2002,183.7199Zm.80957-3.35938a.82489.82489,0,0,1-.61036-1h0a.82415.82415,0,0,1,1-.61035h0a.83292.83292,0,0,1,.61036,1h0a.82949.82949,0,0,1-.79981.63965h0A.70965.70965,0,0,1,71.00977,180.36052Zm.80957-3.35058a.82547.82547,0,0,1-.60938-1h0a.81928.81928,0,0,1,.99024-.61035h0a.817.817,0,0,1,.60937,1h0a.80449.80449,0,0,1-.7998.63086h0A1.27548,1.27548,0,0,1,71.81934,177.00994Zm.80078-3.36035a.81726.81726,0,0,1-.61035-.98926h0a.83919.83919,0,0,1,1-.62012h0a.82564.82564,0,0,1,.61035,1h0a.83142.83142,0,0,1-.80078.63965h0A.67148.67148,0,0,1,72.62012,173.64959ZM73.42969,170.3a.82157.82157,0,0,1-.61035-1h0a.83024.83024,0,0,1,1-.61035h0a.83717.83717,0,0,1,.61035,1h0a.82327.82327,0,0,1-.80957.63085h0A.60368.60368,0,0,1,73.42969,170.3Zm.81054-3.36035a.82346.82346,0,0,1-.62011-.98926h0a.82487.82487,0,0,1,1-.61035h0a.81063.81063,0,0,1,.60937.99023h0a.82948.82948,0,0,1-.7998.63965h0A.60985.60985,0,0,1,74.24023,166.93963ZM75.04,163.59a.82323.82323,0,0,1-.61035-1h0a.829.829,0,0,1,1-.61036h0a.83416.83416,0,0,1,.61035,1h0a.82123.82123,0,0,1-.79981.63086h0A.66256.66256,0,0,1,75.04,163.59Zm.80957-3.34961a.82517.82517,0,0,1-.60938-1h0a.816.816,0,0,1,1-.61036h0a.83085.83085,0,0,1,.60938,1h0a.834.834,0,0,1-.80957.62989h0A1.2599,1.2599,0,0,1,75.84961,160.24041Zm.7998-3.36036a.82542.82542,0,0,1-.60937-.99023h0a.83185.83185,0,0,1,1-.62012h0a.82516.82516,0,0,1,.60937,1h0a.83036.83036,0,0,1-.7998.64063h0A.71092.71092,0,0,1,76.64941,156.88005Zm.81055-3.3496a.82949.82949,0,0,1-.61035-1h0a.81642.81642,0,0,1,1-.61036h0a.829.829,0,0,1,.61035,1h0a.82453.82453,0,0,1-.81055.62989h0A.626.626,0,0,1,77.46,153.53045Zm.80957-3.35059a.83949.83949,0,0,1-.62012-1h0a.84045.84045,0,0,1,1-.62012h0a.82579.82579,0,0,1,.61036,1h0a.83038.83038,0,0,1-.79981.64063h0A1.26063,1.26063,0,0,1,78.26953,150.17986Zm.79981-3.35938a.82427.82427,0,0,1-.60938-1h0a.83245.83245,0,0,1,1-.61035h0a.82842.82842,0,0,1,.60938,1h0a.82059.82059,0,0,1-.79981.62989h0A.70041.70041,0,0,1,79.06934,146.82048Z" style="fill: #252626"/>
  <path d="M85.51953,248.96013a.83085.83085,0,0,1-.60937-1h0a.83322.83322,0,0,1,1-.61035h0a.83981.83981,0,0,1,.61914,1h0a.84.84,0,0,1-.80957.62988h0A.735.735,0,0,1,85.51953,248.96013Zm.81055-3.34961a.82873.82873,0,0,1-.61035-1h0a.82827.82827,0,0,1,1-.61035h0a.824.824,0,0,1,.61035,1h0a.82169.82169,0,0,1-.80078.62988h0A1.37533,1.37533,0,0,1,86.33008,245.61052Zm.80957-3.36035a.81167.81167,0,0,1-.61035-.99023h0a.82363.82363,0,0,1,1-.62012h0a.84122.84122,0,0,1,.61035,1h0a.833.833,0,0,1-.80957.64063h0A.64609.64609,0,0,1,87.13965,242.25017Zm.7998-3.35058a.8356.8356,0,0,1-.60937-1h0a.83259.83259,0,0,1,1-.60938h0a.82053.82053,0,0,1,.60937,1h0a.82057.82057,0,0,1-.7998.62988h0A1.26567,1.26567,0,0,1,87.93945,238.89959ZM88.75,235.55a.83291.83291,0,0,1-.61035-1h0a.81712.81712,0,0,1,1-.61035h0a.81944.81944,0,0,1,.61035.99023h0a.8312.8312,0,0,1-.7998.64062h0A1.37813,1.37813,0,0,1,88.75,235.55Zm.80957-3.36035a.81538.81538,0,0,1-.60937-1h0a.81737.81737,0,0,1,.98925-.60938h0a.82039.82039,0,0,1,.61035,1h0a.82123.82123,0,0,1-.7998.63965h0A.61584.61584,0,0,1,89.55957,232.18963Zm.79981-3.34961a.83307.83307,0,0,1-.60938-1h0a.82563.82563,0,0,1,1-.61036h0a.82429.82429,0,0,1,.60938,1h0a.83219.83219,0,0,1-.79981.63086h0A1.40632,1.40632,0,0,1,90.35938,228.84Zm.81054-3.36036a.8167.8167,0,0,1-.61035-1h0a.83608.83608,0,0,1,1-.60937h0a.83321.83321,0,0,1,.61035,1h0a.83241.83241,0,0,1-.81054.63965h0A.60952.60952,0,0,1,91.16992,225.47966Zm.80957-3.34961a.83521.83521,0,0,1-.62011-1h0a.83416.83416,0,0,1,1-.61035h0a.81686.81686,0,0,1,.61035,1h0a.82059.82059,0,0,1-.79981.62989h0A1.25877,1.25877,0,0,1,91.97949,222.13005Zm.79981-3.36035a.81738.81738,0,0,1-.60938-.98925h0a.834.834,0,0,1,1-.62012h0a.83259.83259,0,0,1,.60938,1h0a.82949.82949,0,0,1-.79981.63965h0A.68233.68233,0,0,1,92.7793,218.7697Zm.81054-3.34961a.82158.82158,0,0,1-.61035-1h0a.819.819,0,0,1,.99024-.61035h0a.83569.83569,0,0,1,.62011,1h0a.82372.82372,0,0,1-.81054.62989h0A.62574.62574,0,0,1,93.58984,215.42009Zm.79981-3.34961a.8428.8428,0,0,1-.61035-1h0a.82578.82578,0,0,1,1-.61035h0a.81054.81054,0,0,1,.61035.99024h0a.82949.82949,0,0,1-.79981.63965h0A1.38871,1.38871,0,0,1,94.38965,212.07048Zm.81055-3.36035a.82324.82324,0,0,1-.61036-1h0a.824.824,0,0,1,1-.61035h0a.82979.82979,0,0,1,.61036,1h0a.835.835,0,0,1-.81055.64063h0A.63973.63973,0,0,1,95.2002,208.71013Zm.80957-3.34961a.84044.84044,0,0,1-.62012-1h0a.83128.83128,0,0,1,1.00976-.61035h0a.818.818,0,0,1,.60059,1h0a.82287.82287,0,0,1-.7998.62988h0A1.24586,1.24586,0,0,1,96.00977,205.36052Zm.7998-3.36035a.82381.82381,0,0,1-.60937-1h0a.841.841,0,0,1,1-.61035h0a.83353.83353,0,0,1,.60937,1h0A.833.833,0,0,1,97,202.03045h0A.69967.69967,0,0,1,96.80957,202.00017Zm.81055-3.35058a.82039.82039,0,0,1-.61035-1h0a.82336.82336,0,0,1,1-.60938h0a.824.824,0,0,1,.61035,1h0a.82535.82535,0,0,1-.81055.62988h0A.6284.6284,0,0,1,97.62012,198.64959Zm.7998-3.35938a.819.819,0,0,1-.61035-.99023h0a.84044.84044,0,0,1,1-.62012h0a.82652.82652,0,0,1,.61035,1h0a.83037.83037,0,0,1-.7998.64062h0A.76721.76721,0,0,1,98.41992,195.29021Zm.80957-3.35058a.8198.8198,0,0,1-.60937-1h0a.828.828,0,0,1,1-.60938h0a.8326.8326,0,0,1,.60937,1h0a.83214.83214,0,0,1-.80957.63965h0A.61589.61589,0,0,1,99.22949,191.93963ZM100.04,188.59a.82533.82533,0,0,1-.61035-1h0a.81125.81125,0,0,1,.99023-.61036h0a.831.831,0,0,1,.62012,1h0a.84541.84541,0,0,1-.81055.63086h0A1.24919,1.24919,0,0,1,100.04,188.59Zm.7998-3.36036a.824.824,0,0,1-.61035-1h0a.82842.82842,0,0,1,1-.60937h0a.83244.83244,0,0,1,.61035,1h0a.82947.82947,0,0,1-.7998.63965h0A.67763.67763,0,0,1,100.83984,185.22966Zm.80957-3.34961a.82547.82547,0,0,1-.60937-1h0a.824.824,0,0,1,1-.61035h0a.83179.83179,0,0,1,.60937,1h0a.82343.82343,0,0,1-.80957.62989h0A1.25877,1.25877,0,0,1,101.64941,181.88005Zm.81055-3.36035a.83007.83007,0,0,1-.62012-1h0a.8409.8409,0,0,1,1-.60937h0a.82563.82563,0,0,1,.61036,1h0a.83142.83142,0,0,1-.80079.63965h0A.60951.60951,0,0,1,102.46,178.5197Zm.79981-3.34961a.829.829,0,0,1-.61036-1h0a.82489.82489,0,0,1,1-.61035h0a.82874.82874,0,0,1,.61036,1h0a.82059.82059,0,0,1-.79981.62989h0A.69706.69706,0,0,1,103.25977,175.17009Zm.80957-3.36035a.8101.8101,0,0,1-.60938-.98926h0a.816.816,0,0,1,1-.61035h0a.8174.8174,0,0,1,.59961,1h0a.81469.81469,0,0,1-.7998.62989h0A.6201.6201,0,0,1,104.06934,171.80974Z" style="fill: #252626"/>
  <path d="M14.98438,64.957a.82813.82813,0,0,1-.582-1.418A97.73437,97.73437,0,0,1,29.22363,51.5293a.82827.82827,0,1,1,.91211,1.38281A96.05862,96.05862,0,0,0,15.56641,64.71875.826.826,0,0,1,14.98438,64.957Z" style="fill: #252626"/>
  <path d="M149.95605,64.957a.826.826,0,0,1-.582-.23828,96.05862,96.05862,0,0,0-14.56933-11.80664.82827.82827,0,1,1,.91211-1.38281,97.73437,97.73437,0,0,1,14.82129,12.00976.82813.82813,0,0,1-.582,1.418Z" style="fill: #252626"/>
  <path d="M135.26758,342.99316a.82816.82816,0,0,1-.457-1.51953A96.00714,96.00714,0,0,0,149.37988,329.667a.82866.82866,0,0,1,1.16407,1.17969,97.68356,97.68356,0,0,1-14.82129,12.00977A.82355.82355,0,0,1,135.26758,342.99316Z" style="fill: #252626"/>
  <path d="M30.09473,342.99316a.82353.82353,0,0,1-.45508-.13671,97.68258,97.68258,0,0,1-14.82129-12.00977.82866.82866,0,0,1,1.16406-1.17969,96.00722,96.00722,0,0,0,14.56934,11.80664.82816.82816,0,0,1-.457,1.51953Z" style="fill: #252626"/>
  <g>
    <path d="M105.86719,347.73438l3.02539-1.60938-2.82227-.2998.08594-.80957,4.30176.457-.083.78613-3.01758,1.60351,2.81543.29883-.08594.80957-4.30175-.45605Z" style="fill: #252626"/>
    <path d="M107.95313,349.7959a2.26431,2.26431,0,1,1-1.63575,2.74316A2.26618,2.26618,0,0,1,107.95313,349.7959Zm.19921.79a1.447,1.447,0,1,0,1.76758,1.04687A1.453,1.453,0,0,0,108.15234,350.58594Z" style="fill: #252626"/>
    <path d="M107.86035,356.375l3.75586-2.14551.4043.707-3.75684,2.14453Z" style="fill: #252626"/>
    <path d="M110.11523,359.5752a2.77642,2.77642,0,0,1-.38964-1.36817l-.00293-.15527.80859-.02051.00293.15527a1.99049,1.99049,0,0,0,.2627.97266l.0039.00391a1.363,1.363,0,0,0,.16406.2207.9396.9396,0,0,0,.33887.24023.46867.46867,0,0,0,.53906-.06836.36533.36533,0,0,0,.09668-.37011,1.7645,1.7645,0,0,0-.24609-.543,4.365,4.365,0,0,1-.44531-.91895,1.298,1.298,0,0,1,.01855-.61425,1.1313,1.1313,0,0,1,.3252-.50684,1.22722,1.22722,0,0,1,.63867-.30176,1.44019,1.44019,0,0,1,.6748.10254,1.695,1.695,0,0,1,.60645.42285,3.13372,3.13372,0,0,1,.20117.25293,2.4608,2.4608,0,0,1,.374,1.209l.00684.15039-.80859.04687-.00782-.15137a1.5198,1.5198,0,0,0-.35742-.96679.9407.9407,0,0,0-.31445-.22266.43816.43816,0,0,0-.46094.04688.32814.32814,0,0,0-.10742.32226,1.69318,1.69318,0,0,0,.24121.55469c.02051.03125.044.07519.06836.11816a2.77467,2.77467,0,0,1,.374.78809,1.23646,1.23646,0,0,1,.001.64551,1.13531,1.13531,0,0,1-.33008.52734,1.22344,1.22344,0,0,1-.67871.33106A1.49925,1.49925,0,0,1,111,360.36914a1.58533,1.58533,0,0,1-.62305-.44043A2.213,2.213,0,0,1,110.11523,359.5752Z" style="fill: #252626"/>
    <path d="M112.99512,362.19336l2.1914-3.72949,2.458,1.44336-.40039.68066-1.75586-1.03125-.32226.54981,1.52929.89941-.40918.69629-1.53027-.89746-.65234,1.11035,1.709,1.00293-.40625.69238Z" style="fill: #252626"/>
    <path d="M123.84375,365.10156l-1.5752-2.084-.34667.00586.04,2.1123-.79.01563-.08008-4.32227,1.54785-.0293a1.12262,1.12262,0,0,1,1.126,1.085,1.12149,1.12149,0,0,1-.61329,1.01367l1.65039,2.18554ZM122.666,362.2207a.316.316,0,1,0-.01172-.63183l-.75879.01465.01172.63086Z" style="fill: #252626"/>
    <path d="M129.10742,363.792l-.80664-.9541-1.35351.47852-.03614,1.249-.82031.291.13184-4.6377.69433-.24512,3.0166,3.52735Zm-1.37207-1.60547-.72754-.85839-.02929,1.126Z" style="fill: #252626"/>
    <path d="M133.67285,360.84473l-3.27441-1.0127,1.77539,2.21485-.63477.50976-2.709-3.377.61719-.49414,3.26562,1.01172-1.77148-2.21.63476-.50976,2.709,3.376Z" style="fill: #252626"/>
    <path d="M133.76172,357.76172A2.25917,2.25917,0,0,1,133.5918,354a2.191,2.191,0,0,1,.79687-.37207l.15821-.03906.14355.78808-.13672.03809a1.3956,1.3956,0,0,0-.87207.66016,1.45876,1.45876,0,0,0,2.5,1.5039,1.47227,1.47227,0,0,0,.1582-1.14648l-.77148-.46387-.61035,1.01563-.69336-.417,1.02148-1.69726,1.708,1.02636.01563.0459a2.25928,2.25928,0,0,1-3.24805,2.81934Z" style="fill: #252626"/>
    <path d="M138.43652,353.37012l-4.21484-.95117.627-2.77735.76953.17481-.44824,1.98242.62207.13965.38965-1.72754.78809.17773-.39063,1.72754,1.25488.28418.43555-1.92969.78125.17578Z" style="fill: #252626"/>
  </g>
  <g>
    <path d="M113.02637,31.80762l3.11426,1.42871L114.668,30.81152l.69629-.42285,2.24414,3.69922-.67481.40918-3.10546-1.42676,1.46972,2.41992-.69629.42188-2.24511-3.69727Z" style="fill: #252626"/>
    <path d="M112.65137,34.7168a2.26438,2.26438,0,1,1-3.17383.36133A2.26617,2.26617,0,0,1,112.65137,34.7168Zm-.50782.63672a1.44718,1.44718,0,1,0,.23926,2.041A1.45315,1.45315,0,0,0,112.14355,35.35352Z" style="fill: #252626"/>
    <path d="M107.36328,38.63086l3.9834,1.6875-.31738.749-3.98242-1.68652Z" style="fill: #252626"/>
    <path d="M106.18555,42.36523a2.78326,2.78326,0,0,1,.85156-1.14062l.12207-.0957.50684.63086-.12207.0957a1.99911,1.99911,0,0,0-.61426.79883v.00586a1.44633,1.44633,0,0,0-.07715.26367.96419.96419,0,0,0,.01465.416.4685.4685,0,0,0,.38183.38672.36336.36336,0,0,0,.35254-.14843,1.73983,1.73983,0,0,0,.28223-.52344,4.35861,4.35861,0,0,1,.46094-.91211,1.29253,1.29253,0,0,1,.5-.35742,1.13206,1.13206,0,0,1,.59961-.04883,1.21984,1.21984,0,0,1,.627.32617,1.444,1.444,0,0,1,.32812.59766,1.69322,1.69322,0,0,1,.03125.74023c-.01855.10156-.04882.207-.0791.3125a2.46191,2.46191,0,0,1-.73437,1.03027l-.11524.09668-.52832-.61523.11621-.09766a1.52609,1.52609,0,0,0,.55176-.87109.918.918,0,0,0-.01367-.38477.43639.43639,0,0,0-.31738-.33789.3204.3204,0,0,0-.31934.11035,1.65149,1.65149,0,0,0-.2959.52833c-.01172.03515-.03222.08007-.05273.126a2.74433,2.74433,0,0,1-.40039.77442,1.22255,1.22255,0,0,1-.51172.39257,1.14,1.14,0,0,1-.62109.05762,1.22329,1.22329,0,0,1-.67286-.33984,1.47449,1.47449,0,0,1-.3457-.63282,1.603,1.603,0,0,1-.02832-.76269A2.31742,2.31742,0,0,1,106.18555,42.36523Z" style="fill: #252626"/>
    <path d="M105.84863,46.24219l4.29492-.51856.34278,2.8291-.78516.09571L109.458,46.627l-.63379.07618.21289,1.76171-.80273.09668-.2129-1.76074-1.27929.1543.23828,1.9668-.79688.0957Z" style="fill: #252626"/>
    <path d="M110.11133,56.63281l.7041-2.51562-.21484-.27149-1.65625,1.3125-.49024-.61914,3.38672-2.68359.96191,1.21289a1.12068,1.12068,0,0,1-.17968,1.55273,1.12052,1.12052,0,0,1-1.17676.127l-.73828,2.63672Zm1.57812-2.68164a.31632.31632,0,0,0,.4961-.39258l-.47266-.59472-.49414.3916Z" style="fill: #252626"/>
    <path d="M114.34473,60.02539l.2705-1.2207-1.20117-.78614-1.01562.7295-.72754-.47657,3.76758-2.707.61621.4043-.97754,4.53711Zm.44629-2.06445.24121-1.09961-.91211.65918Z" style="fill: #252626"/>
    <path d="M119.458,61.86914l-1.18067-3.21777-.68457,2.75488-.791-.19629,1.04394-4.20019.7666.18945,1.17481,3.21191.68457-2.75.78906.19629-1.042,4.20117Z" style="fill: #252626"/>
    <path d="M121.96191,60.07129a2.265,2.265,0,0,1,2-2.49512,2.23446,2.23446,0,0,1,.88965.08008,2.19692,2.19692,0,0,1,.77832.4082l.127.10254-.53907.59082-.11328-.084a1.38938,1.38938,0,0,0-1.05469-.294,1.45854,1.45854,0,0,0,.32032,2.89942A1.47238,1.47238,0,0,0,125.377,60.71l-.09863-.89355-1.17773.1289-.08887-.80273,1.96973-.2168.21972,1.98047-.02734.03906a2.25942,2.25942,0,0,1-4.21192-.874Z" style="fill: #252626"/>
    <path d="M128.29,61.127l-1.79785-3.92871,2.58789-1.18457.32812.7168-1.84863.84668.26563.5791,1.61035-.7373.33691.73339-1.61133.73829.53516,1.16992,1.79785-.82325.335.72754Z" style="fill: #252626"/>
  </g>
  <g>
    <path d="M35.1582,60.419l.31153-4.62989.793.36914L36.04,59.3877l2.333-2.2461.78808.36719-3.335,3.2207Z" style="fill: #252626"/>
    <path d="M39.04688,61.76367l.79687-4.252.7998.14844-.79589,4.25293Z" style="fill: #252626"/>
    <path d="M41.84473,62.18164l-.23145-4.31934,1.60254-.085a1.12058,1.12058,0,0,1,1.16309,1.04493,1.18066,1.18066,0,0,1-.083.49121,1.37546,1.37546,0,0,1,.32715.22558,1.4235,1.4235,0,0,1,.48535,1.002,1.45214,1.45214,0,0,1-.375,1.05468,1.46836,1.46836,0,0,1-.4502.34082,1.34623,1.34623,0,0,1-.5459.14356Zm1.43945-2.99707a.30525.30525,0,0,0,.28809-.31836.32163.32163,0,0,0-.32032-.29492l-.78906.042.0332.61328Zm.4043,2.10156a.67462.67462,0,0,0,.61425-.70117.6626.6626,0,0,0-.67773-.62109l-1.08594.05761.07032,1.32227Z" style="fill: #252626"/>
    <path d="M49.36523,60.67578l-2.18847-1.43066-.32422.12207.751,1.97754-.73829.28027L45.3291,57.58008l1.44922-.54981a1.11892,1.11892,0,0,1,1.42578.64063,1.12034,1.12034,0,0,1-.23437,1.16211l2.293,1.502Zm-2.082-2.3164a.3165.3165,0,0,0-.22461-.5918l-.71093.27051.22558.59082Z" style="fill: #252626"/>
    <path d="M53.86426,57.67773l-1.08106-.625-1.11328.90528.38672,1.18945-.67285.54883-1.43945-4.41016.57031-.46484L54.544,57.126Zm-1.833-1.04882-.97461-.5625.35254,1.06836Z" style="fill: #252626"/>
    <path d="M55.75977,55.5332l-2.8545-2.05957-.62207.86231-.64843-.46973,1.71875-2.38183.64941.46875-.62207.86132L56.23633,54.874Z" style="fill: #252626"/>
    <path d="M57.67969,52.28906,53.68555,50.627l.3125-.751,3.99414,1.66113Z" style="fill: #252626"/>
    <path d="M56.544,49.50293a2.26506,2.26506,0,1,1,2.51074-1.97363A2.26832,2.26832,0,0,1,56.544,49.50293Zm.09765-.80957a1.44669,1.44669,0,1,0-1.27344-1.61231A1.45115,1.45115,0,0,0,56.6416,48.69336Z" style="fill: #252626"/>
    <path d="M58.43555,40.6748,56.126,43.20117l2.75683-.66015.18946.791-4.20411,1.00488-.18457-.76757,2.30762-2.51758-2.752.6582-.18848-.791,4.2041-1.00489Z" style="fill: #252626"/>
    <path d="M56.76465,36.9873a2.77511,2.77511,0,0,1,.12695,1.419l-.02539.15137-.79883-.13086.02637-.15235a2.00146,2.00146,0,0,0-.07812-1.00488l-.00293-.00586a1.31861,1.31861,0,0,0-.11915-.248.92377.92377,0,0,0-.28808-.29981.47013.47013,0,0,0-.543-.03223.36514.36514,0,0,0-.16406.34473,1.79354,1.79354,0,0,0,.14062.58008,4.41037,4.41037,0,0,1,.26563.9873,1.29194,1.29194,0,0,1-.13379.59961,1.12546,1.12546,0,0,1-.41406.4375,1.22869,1.22869,0,0,1-.68457.17774,1.43537,1.43537,0,0,1-.64356-.22852,1.6665,1.6665,0,0,1-.51758-.5293c-.05468-.08691-.10156-.18652-.15039-.28515a2.44816,2.44816,0,0,1-.14062-1.25879l.02051-.15039.80468.10644-.02148.14942a1.51881,1.51881,0,0,0,.1709,1.01855.93126.93126,0,0,0,.2666.27735.4381.4381,0,0,0,.46191.041.3295.3295,0,0,0,.166-.29785,1.70519,1.70519,0,0,0-.13281-.58984c-.01465-.03418-.03028-.082-.0459-.12989a2.7911,2.7911,0,0,1-.21875-.84375,1.22206,1.22206,0,0,1,.11914-.63379,1.1284,1.1284,0,0,1,.42383-.458,1.21581,1.21581,0,0,1,.72851-.19825,1.47735,1.47735,0,0,1,.68067.24122,1.5622,1.5622,0,0,1,.53027.5498A2.226,2.226,0,0,1,56.76465,36.9873Z" style="fill: #252626"/>
  </g>
  <g>
    <path d="M26.20313,351.793l3.85546-2.58106.19239.8545-2.69336,1.79492,3.2041.47558.19043.84864-4.58887-.67481Z" style="fill: #252626"/>
    <path d="M27.51172,355.69141l3.85449-1.96387.37012.72363L27.88184,356.416Z" style="fill: #252626"/>
    <path d="M28.88867,358.16211l3.28028-2.81934,1.04492,1.2168a1.11865,1.11865,0,0,1-.11719,1.55859,1.16987,1.16987,0,0,1-.44043.23438,1.36475,1.36475,0,0,1,.02246.39844,1.4243,1.4243,0,0,1-.498.99511,1.47055,1.47055,0,0,1-1.60839.19825,1.36519,1.36519,0,0,1-.44825-.34375Zm1.835.91406a.67556.67556,0,0,0,.93067.0586.66406.66406,0,0,0,.07812-.916l-.709-.82422-1.00391.86231Zm1.418-1.60254a.30439.30439,0,0,0,.42774.03223.318.318,0,0,0,.03711-.43262l-.51465-.59863-.46485.40039Z" style="fill: #252626"/>
    <path d="M34.69434,363.209l-.208-2.60449-.2959-.18164-1.10254,1.80371-.67285-.41113,2.25488-3.68848,1.32129.80762a1.11879,1.11879,0,0,1,.36621,1.51856,1.11992,1.11992,0,0,1-1.06152.52636l.2168,2.72949Zm.55566-3.0625a.316.316,0,0,0,.33008-.53906l-.64844-.39551-.3291.53809Z" style="fill: #252626"/>
    <path d="M39.794,364.93359l-.16407-1.2373-1.39746-.3291-.70508,1.03222-.84668-.19824,2.61426-3.833.71582.168.63574,4.59864Zm-.28809-2.09179-.14941-1.11621-.63184.93261Z" style="fill: #252626"/>
    <path d="M42.64941,365.126l-.11132-3.51758-1.06153.03418-.02539-.80078,2.93555-.09278.02539.79981-1.06152.03418.11132,3.51758Z" style="fill: #252626"/>
    <path d="M46.39063,364.665l-1.12208-4.17774.78614-.21093,1.123,4.17676Z" style="fill: #252626"/>
    <path d="M47.9043,362.06543A2.26495,2.26495,0,1,1,51,362.84961,2.26613,2.26613,0,0,1,47.9043,362.06543Zm.70117-.417a1.44633,1.44633,0,1,0,.499-1.99219A1.45034,1.45034,0,0,0,48.60547,361.64844Z" style="fill: #252626"/>
    <path d="M56.05078,358.17578l-3.41113-.28906,2.206,1.78027-.51172.63379-3.3623-2.7168.49609-.61328,3.40235.29L52.669,355.4834l.51074-.63281,3.36328,2.71582Z" style="fill: #252626"/>
    <path d="M57.95117,354.59766a2.776,2.776,0,0,1-1.04492.96777l-.13672.07129-.38476-.71094.13769-.07324a1.98636,1.98636,0,0,0,.749-.67481l.002-.00585a1.44451,1.44451,0,0,0,.124-.24512.95152.95152,0,0,0,.06152-.41211.47076.47076,0,0,0-.30566-.44922.36375.36375,0,0,0-.374.08105,1.76056,1.76056,0,0,0-.373.46485,4.38475,4.38475,0,0,1-.61914.8125,1.29708,1.29708,0,0,1-.55664.26074,1.13078,1.13078,0,0,1-.59961-.06055,1.23362,1.23362,0,0,1-.55859-.43359,1.42942,1.42942,0,0,1-.21289-.64941,1.67877,1.67877,0,0,1,.10351-.73243,3.02088,3.02088,0,0,1,.13477-.29394,2.45255,2.45255,0,0,1,.91015-.88086l.13086-.07422.40723.70117-.13086.07422a1.52709,1.52709,0,0,0-.70215.75781.919.919,0,0,0-.05664.38086.43553.43553,0,0,0,.25.38965.324.324,0,0,0,.33594-.0498,1.67251,1.67251,0,0,0,.38672-.46485c.01855-.0332.04687-.07422.07519-.11523a2.80061,2.80061,0,0,1,.53418-.69043,1.23688,1.23688,0,0,1,.5752-.291,1.13385,1.13385,0,0,1,.62109.05567,1.2304,1.2304,0,0,1,.60156.45605,1.48374,1.48374,0,0,1,.22559.68653,1.58077,1.58077,0,0,1-.11231.75488A2.11718,2.11718,0,0,1,57.95117,354.59766Z" style="fill: #252626"/>
  </g>
</svg>
