<?xml version="1.0" encoding="utf-8"?>
<!-- Generator: Adobe Illustrator 23.0.3, SVG Export Plug-In . SVG Version: 6.00 Build 0)  -->
<svg version="1.0" id="Layer_1" xmlns="http://www.w3.org/2000/svg" xmlns:xlink="http://www.w3.org/1999/xlink" x="0px" y="0px"
	 viewBox="0 0 75 380" enable-background="new 0 0 75 380" xml:space="preserve">
<g id="bg">
	<g>
		<rect fill="#E5E5E5" width="75" height="380"/>
	</g>
	<g>
		<g>
			<g>
				<g>
					<g>
						<circle fill="#BCBCBC" cx="8.17472" cy="6.39054" r="5.73626"/>
					</g>
					<g>
						<path fill="#808080" d="M8.17476,11.8632c3.02102-0.00348,5.46916-2.45164,5.47262-5.47267c0,0,0-0.00001,0-0.00003
							c-0.00002-3.02247-2.45023-5.47264-5.4727-5.47262s-5.47264,2.45023-5.47262,5.4727S5.15229,11.86322,8.17476,11.8632
							 M2.17476,6.39054c0-3.31371,2.68629-6,6-6s6,2.68629,6,6s-2.68629,6-6,6C4.86111,12.39038,2.17492,9.70418,2.17476,6.39054z"
							/>
					</g>
				</g>
				<g>
					<polygon fill="#6E6E6E" points="4.67976,7.04954 7.51576,7.04954 7.51576,9.88554 8.83376,9.88554 8.83376,7.04954 
						11.66876,7.04954 11.66876,5.73154 8.83376,5.73154 8.83376,2.89554 7.51576,2.89554 7.51576,5.73154 4.67976,5.73154 					"/>
				</g>
			</g>
		</g>
	</g>
	<g>
		<g>
			<g>
				<g>
					<g>
						<circle fill="#BCBCBC" cx="67.18465" cy="373.60947" r="5.73626"/>
					</g>
					<g>
						<path fill="#808080" d="M67.1846,379.08212c-3.02102-0.00348-5.46916-2.45166-5.47262-5.47269c0,0,0,0,0-0.00003
							c0.00002-3.02246,2.45023-5.47263,5.4727-5.4726c3.02247,0,5.47264,2.45023,5.47262,5.47269
							S70.20707,379.08215,67.1846,379.08212 M73.1846,373.60947c0-3.31372-2.68629-6-6-6c-3.31371,0-6,2.68628-6,6
							c0,3.31369,2.68629,6,6,6C70.49825,379.60928,73.18444,376.9231,73.1846,373.60947z"/>
					</g>
				</g>
				<g>
					<polygon fill="#6E6E6E" points="70.6796,374.26846 67.84361,374.26846 67.84361,377.10446 66.5256,377.10446 
						66.5256,374.26846 63.69061,374.26846 63.69061,372.95047 66.5256,372.95047 66.5256,370.11447 67.84361,370.11447 
						67.84361,372.95047 70.6796,372.95047 					"/>
				</g>
			</g>
		</g>
	</g>
	<g>
		<g>
			<path fill="#252626" d="M42.8933,375.24466H32.42703c-1.77143,0-3.20745-1.43604-3.20745-3.20746v-31.33145
				c0-1.77142,1.43602-3.20746,3.20745-3.20746H42.8933c1.77142,0,3.20745,1.43604,3.20745,3.20746v31.33145
				C46.10075,373.80862,44.66472,375.24466,42.8933,375.24466z"/>
		</g>
		<g>
			<g>
				<path fill="#E6E5E5" d="M41.50651,363.35104c-0.11426,0.26349-0.26582,0.48099-0.45469,0.65225
					c-0.1891,0.17126-0.40402,0.29843-0.64567,0.3822c-0.24189,0.08353-0.49434,0.12503-0.75781,0.12503
					c-0.44812,0-0.79724-0.06567-1.04757-0.19754c-0.25034-0.13184-0.44601-0.28552-0.58632-0.46124
					c-0.14969-0.19333-0.244-0.40848-0.28341-0.64569c-0.03965-0.23718-0.05936-0.4744-0.05936-0.71158
					c0-0.33411,0.00681-0.56451,0.01971-0.69189c0.01337-0.12762,0.02839-0.19989,0.04622-0.2175
					c0.03496-0.02652,0.17995-0.0394,0.43475-0.0394h3.08382c0.08775,0,0.16024,0.00656,0.21749,0.01968
					c0.05678,0.01315,0.10088,0.0481,0.13162,0.10535c0.03073,0.05701,0.05044,0.14267,0.05936,0.25693
					c0.00868,0.11426,0.01337,0.27237,0.01337,0.4744C41.67802,362.77109,41.62054,363.08759,41.50651,363.35104
					 M36.18303,350.52942c0.01173-0.08282,0.0474-0.14828,0.10699-0.19592c0.05936-0.04736,0.15414-0.07718,0.28506-0.08914
					c0.13068-0.01172,0.31485-0.01782,0.55252-0.01782c0.92674,0,1.6367,0.2583,2.12986,0.77518
					c0.49294,0.51685,0.73975,1.20923,0.73975,2.0766c0,0.08212-0.01713,0.25925-0.02792,0.3808
					c-0.06827-0.00095-0.13655-0.00189-0.20482-0.0033c-0.18699-0.004-0.39017-0.01431-0.60954-0.03052
					c-0.04881,0.02441-0.07508,0.07111-0.0793,0.14008c-0.00399,0.06921,0.01408,0.12411,0.05514,0.1647l0.21913,0.02441
					c0.1464,0.01617,0.26817,0.04269,0.36577,0.07907c0.0976,0.03659,0.1464,0.07529,0.1464,0.11588s-0.0244,0.11591-0.0732,0.22549
					c-0.0488,0.1098-0.11379,0.24188-0.19497,0.39603c-0.08142,0.1546-0.16893,0.31931-0.26207,0.49387
					c-0.09362,0.1748-0.18113,0.33948-0.26231,0.49362c-0.18699,0.35782-0.37773,0.70901-0.57293,1.05438
					c-0.19497,0.34561-0.38595,0.68088-0.5727,1.0058c-0.23603-0.42255-0.4676-0.86548-0.69494-1.32861
					c-0.22758-0.46338-0.45516-0.9223-0.68274-1.37769c-0.01643-0.03238-0.04458-0.09314-0.08517-0.18277
					c-0.04082-0.08917-0.08352-0.18466-0.1281-0.28647c-0.04482-0.10159-0.08352-0.19684-0.1159-0.28647
					c-0.03261-0.08939-0.04856-0.15039-0.04856-0.18277c0-0.0488,0.03214-0.08728,0.09736-0.11591
					c0.06499-0.02838,0.20319-0.06287,0.41458-0.10345l0.15836-0.02441c0.04059-0.04059,0.05889-0.0976,0.0549-0.17081
					c-0.00423-0.07297-0.03473-0.11777-0.09127-0.13397c-0.17315,0.01361-0.38548,0.02347-0.63722,0.02933v-2.58643
					C36.1652,350.72556,36.17106,350.6127,36.18303,350.52942 M37.19236,359.65442c0,0.32516-0.00423,0.58514-0.0122,0.78009
					c-0.00821,0.19498-0.0366,0.34747-0.0854,0.45706c-0.01736,0.0394-0.03801,0.07413-0.0617,0.1044
					c-0.00047,0.00021-0.00117,0.0007-0.00165,0.00092c-0.14194-0.02719-0.2616-0.05865-0.35826-0.09454
					c-0.16048-0.05936-0.27615-0.16635-0.34747-0.32071c-0.07132-0.15439-0.1159-0.37119-0.13373-0.6506
					c-0.01783-0.27896-0.02675-0.6506-0.02675-1.11374v-2.53784l0.63722,1.24158c0.08916,0.17081,0.16024,0.31509,0.21327,0.43289
					c0.05279,0.11801,0.09127,0.22757,0.11567,0.32916c0.02439,0.10181,0.04058,0.20926,0.0488,0.32306
					c0.00797,0.1138,0.0122,0.25598,0.0122,0.42654C37.19236,359.03268,37.19236,359.65442,37.19236,359.65442z M42.22327,361.16183
					c0.05278-0.14639,0.10534-0.30264,0.15837-0.46924c0.05279-0.16656,0.10159-0.32916,0.1464-0.48776
					c0.04458-0.15836,0.07907-0.29047,0.10371-0.39627c-0.02464-0.05655-0.07133-0.09314-0.1403-0.10956
					c-0.06921-0.0162-0.12388-0.00821-0.1647,0.02438c-0.16259,0.31674-0.31885,0.57693-0.46923,0.78012
					c-0.15039,0.2034-0.28247,0.33737-0.39603,0.40237c-0.06523,0.03259-0.1403,0.06076-0.2257,0.08514
					c-0.08517,0.02441-0.18699,0.04269-0.30477,0.0549c-0.11777,0.01221-0.25996,0.02252-0.42653,0.03052
					c-0.16658,0.00821-0.36788,0.01218-0.60344,0.01218c-0.26817,0-0.48965-0.00797-0.66444-0.02438
					c-0.17479-0.0162-0.31486-0.03659-0.42043-0.06076c-0.10582-0.02466-0.1891-0.05304-0.24987-0.08542
					c-0.061-0.03238-0.10793-0.06897-0.14031-0.1098c-0.0976-0.10556-0.16048-0.26205-0.18887-0.46924
					c-0.02862-0.2074-0.0427-0.47345-0.0427-0.79861v-0.8045c0.00188-0.11145,0.00516-0.20999,0.00986-0.29446
					c0.00798-0.15015,0.03027-0.29047,0.06687-0.42044c0.03659-0.12997,0.09337-0.2684,0.1708-0.41455
					c0.0183-0.03497,0.03894-0.07275,0.06076-0.1124c0.02933-0.00095,0.05982-0.0014,0.09385-0.0014h0.70714
					c0.23556,0,0.42865,0.004,0.57904,0.01221c0.15015,0.00797,0.27004,0.02417,0.35966,0.04855
					c0.12177,0.03262,0.20905,0.08963,0.26207,0.17081c0.05279,0.08118,0.09127,0.17877,0.11591,0.29257l0.10956,0.47534
					c0.03238,0.0408,0.08728,0.05887,0.16447,0.0549c0.07719-0.004,0.1281-0.02628,0.1525-0.06711
					c0-0.13818-0.00821-0.31274-0.0244-0.52414c-0.01643-0.2114-0.0244-0.42676-0.0244-0.64615
					c0-0.23553,0.00798-0.46313,0.0244-0.6825c0.01619-0.2196,0.0244-0.40237,0.0244-0.54877
					c-0.0244-0.04034-0.07531-0.06287-0.1525-0.06711c-0.07719-0.00375-0.1321,0.01431-0.16447,0.0549l-0.09737,0.49997
					c-0.0326,0.15439-0.07132,0.25809-0.1159,0.31088c-0.04482,0.0528-0.1037,0.09125-0.17666,0.11566
					c-0.0732,0.02441-0.19943,0.04269-0.37797,0.0549c-0.17902,0.01221-0.39839,0.01831-0.65834,0.01831H38.7528
					c0.00422-0.00681,0.00798-0.01315,0.0122-0.0202l0.76791-1.32861c0.15414-0.26019,0.29445-0.50186,0.42067-0.72546
					c0.12576-0.22336,0.24987-0.42065,0.37163-0.59122c0.12201-0.17056,0.24776-0.30878,0.37798-0.41434
					c0.02698-0.02182,0.05466-0.04153,0.08305-0.06006c0.08258,0.03284,0.15532,0.07153,0.21796,0.11682
					c0.10159,0.07297,0.18464,0.15839,0.24987,0.25598c0.06499,0.09735,0.11777,0.20715,0.1586,0.32892
					c0.04035,0.12201,0.08517,0.25623,0.13397,0.40237c0.03238,0.04083,0.0854,0.05701,0.1586,0.0488
					c0.07297-0.00797,0.12176-0.03238,0.14616-0.07318c-0.01643-0.13-0.0305-0.27826-0.04247-0.44485
					c-0.01243-0.16656-0.02674-0.32916-0.04293-0.48752c-0.01619-0.1586-0.03754-0.30008-0.05466-0.42679
					c-0.04247-0.31345-0.03285-0.58115-0.03285-0.58115c0-0.61752-0.17525-1.15738-0.44272-1.60925
					c-0.26723-0.45139-0.60907-0.80777-1.02481-1.06915c-0.41597-0.26135-0.90304-0.44553-1.46143-0.55252
					c-0.55863-0.10699-1.21204-0.16046-1.96047-0.16046c-0.74867,0-1.40536,0.00891-1.96938,0.02673
					c-0.56449,0.01782-1.0844,0.05655-1.55974,0.11591c-0.07109,0.03568-0.10981,0.10416-0.11567,0.2048
					c-0.0061,0.10114,0.02041,0.18137,0.08024,0.24072l0.64145,0.07132c0.202,0.02396,0.35919,0.06241,0.47252,0.11591
					c0.11262,0.05328,0.19591,0.15134,0.2494,0.29398c0.05349,0.14267,0.08611,0.3327,0.09807,0.57037
					c0.01173,0.23767,0.01783,0.54666,0.01783,0.92673v6.57681c0,0.46313-0.0061,0.83478-0.01783,1.11374
					c-0.01197,0.27942-0.05349,0.49622-0.12482,0.6506c-0.07132,0.15436-0.17831,0.26135-0.32072,0.32071
					c-0.14265,0.0596-0.34489,0.10699-0.60601,0.14264l-0.37445,0.0535c-0.0542,0.0542-0.07837,0.12836-0.0732,0.22171
					c-0.00047,0.19077-0.00258,0.25128-0.00657,0.46619c-0.00422,0.24612-0.01549,0.52109-0.03355,0.82541
					c0.01806,0.0448,0.06921,0.07156,0.15437,0.08069c0.08493,0.0087,0.14546-0.00912,0.18136-0.05371l0.04012-0.28201
					c0.02699-0.19684,0.06264-0.34888,0.10746-0.45612c0.04482-0.10745,0.12529-0.18793,0.24166-0.24164
					c0.11613-0.05374,0.27943-0.08542,0.48988-0.09433c0.21022-0.00867,0.48988-0.01312,0.83899-0.01312h1.69113
					c0.07156,0,0.12764,0.00446,0.16799,0.01312c0.04012,0.00891,0.06921,0.03378,0.08704,0.07416
					c0.01783,0.0401,0.02909,0.10275,0.03378,0.18768c0.00423,0.08517,0.00657,0.20343,0.00657,0.35568
					c0,0.26865-0.03355,0.46994-0.10065,0.60416c-0.06709,0.13419-0.17666,0.25055-0.32893,0.34909
					c-0.15226,0.10745-0.32001,0.21915-0.50325,0.33551c-0.1837,0.11615-0.36718,0.23251-0.55042,0.34888
					c-0.18347,0.11636-0.36014,0.22827-0.53023,0.33575c-0.1701,0.10721-0.31768,0.20575-0.44296,0.29514
					c-0.3402,0.24167-0.61986,0.46759-0.839,0.67804c-0.21913,0.21024-0.39134,0.42279-0.51663,0.63745
					c-0.12552,0.21469-0.21257,0.44061-0.26183,0.67783c-0.04903,0.23718-0.07367,0.49878-0.07367,0.78528
					c0,0.25946,0.02229,0.45654,0.06687,0.59052c0.02698,0.03589,0.06053,0.05161,0.10088,0.04715
					c0.04012-0.00467,0.06922-0.02487,0.08728-0.06052c0.01759-0.17902,0.0603-0.34888,0.1274-0.50983
					c0.0671-0.16119,0.14968-0.30008,0.24846-0.4162c0.18793-0.23276,0.40025-0.4519,0.63746-0.6579
					c0.23696-0.20575,0.4988-0.41595,0.78526-0.63086c0.28623-0.21469,0.60837-0.43616,0.9664-0.66422
					c0.35779-0.22827,0.75171-0.47675,1.1813-0.74515c0.05372-0.03589,0.10933-0.065,0.16775-0.08728
					c0.05795-0.02252,0.10956-0.01572,0.15438,0.02017c0.0624,0.16986,0.15649,0.35123,0.28177,0.54361
					s0.27967,0.37375,0.46313,0.54385c0.18348,0.16986,0.39815,0.31064,0.64426,0.42279
					c0.24612,0.11166,0.53024,0.16772,0.85236,0.16772c0.4744,0,0.86363-0.10532,1.16793-0.31555
					c0.30407-0.21021,0.54126-0.4765,0.71136-0.79865c0.16986-0.3132,0.27967-0.65997,0.32893-1.04004
					c0.04903-0.38055,0.07555-0.78107,0.07367-1.20172C42.08297,361.65781,42.22327,361.16183,42.22327,361.16183"/>
			</g>
		</g>
	</g>
</g>
<g id="serigraphy">
	<g>
		<g>
			<path fill="#FF4257" d="M44.10938,198.79004c-0.31934-0.32031-0.31934-0.85059,0-1.16992l0,0
				c0.32031-0.33008,0.85059-0.33008,1.16992,0l0,0c0.33008,0.31934,0.33008,0.84961,0,1.16992l0,0
				c-0.15918,0.16016-0.36914,0.24023-0.58984,0.24023l0,0C44.47949,199.03027,44.26953,198.9502,44.10938,198.79004z M41.66016,196
				c-0.23047-0.39063-0.10059-0.90039,0.29004-1.12988l0,0c0.39941-0.23047,0.89941-0.10059,1.13965,0.29004l0,0l0,0l0,0
				c0.22949,0.39941,0.09961,0.90918-0.2998,1.13965l0,0c-0.12988,0.08008-0.27051,0.11035-0.41992,0.11035l0,0
				C42.08984,196.41016,41.80957,196.26953,41.66016,196z M40.64941,192.22949c0-0.45996,0.37012-0.83008,0.83008-0.83008l0,0
				c0.4502,0,0.83008,0.37012,0.83008,0.83008l0,0c0,0.45996-0.37988,0.83008-0.83008,0.83008l0,0
				C41.01953,193.05957,40.64941,192.68945,40.64941,192.22949z M40.64941,188.70996c0-0.45996,0.37012-0.83008,0.83008-0.83008l0,0
				c0.4502,0,0.83008,0.37012,0.83008,0.83008l0,0c0,0.45996-0.37988,0.83008-0.83008,0.83008l0,0
				C41.01953,189.54004,40.64941,189.16992,40.64941,188.70996z M40.64941,185.2002c0-0.45996,0.37012-0.83008,0.83008-0.83008l0,0
				c0.4502,0,0.83008,0.37012,0.83008,0.83008l0,0c0,0.44922-0.37988,0.83008-0.83008,0.83008l0,0
				C41.01953,186.03027,40.64941,185.64941,40.64941,185.2002z M40.64941,181.67969c0-0.4502,0.37012-0.82031,0.83008-0.82031l0,0
				c0.4502,0,0.83008,0.37012,0.83008,0.82031l0,0c0,0.45996-0.37988,0.83008-0.83008,0.83008l0,0
				C41.01953,182.50977,40.64941,182.13965,40.64941,181.67969z M40.64941,174.64941c0-0.44922,0.37012-0.83008,0.83008-0.83008l0,0
				c0.4502,0,0.83008,0.38086,0.83008,0.83008l0,0c0,0.45996-0.37988,0.83008-0.83008,0.83008l0,0
				C41.01953,175.47949,40.64941,175.10938,40.64941,174.64941z M41.66992,169.45996c-0.4502-0.11035-0.73047-0.5498-0.62012-1l0,0
				c0.09961-0.44043,0.5498-0.71973,1-0.61035l0,0c0.44043,0.10059,0.71973,0.5498,0.61035,0.99023l0,0
				c-0.09082,0.37988-0.43066,0.63965-0.80078,0.63965l0,0C41.79004,169.47949,41.72949,169.46973,41.66992,169.45996z
				 M42.09687,165.92461c-0.41016-0.20996-0.57031-0.70996-0.36035-1.12012l0,0c0.21973-0.39941,0.71973-0.55957,1.12012-0.34961
				l0,0c0.41016,0.20996,0.55957,0.70996,0.34961,1.12012l0,0l0,0l0,0c-0.13965,0.28027-0.42969,0.43945-0.72949,0.43945l0,0
				C42.34687,166.01445,42.21601,165.99492,42.09687,165.92461z M44.51953,163.09961
				c-0.33984-0.2998-0.37012-0.83008-0.06934-1.16992l0,0c0.30957-0.33984,0.8291-0.37012,1.16992-0.07031l0,0
				c0.33984,0.31055,0.37012,0.83008,0.06934,1.1709l0,0c-0.16016,0.18945-0.38965,0.2793-0.62012,0.2793l0,0
				C44.87012,163.30957,44.67969,163.24023,44.51953,163.09961z"/>
		</g>
	</g>
	<g>
		<g>
			<path fill="#252626" d="M3.13965,24.01953c-0.21973,0-0.42969-0.08984-0.58984-0.25s-0.24023-0.35938-0.24023-0.58008
				c0-0.21973,0.08984-0.43945,0.24023-0.58984c0.08008-0.08008,0.16992-0.13965,0.26953-0.17969
				c0.2002-0.08008,0.43066-0.08008,0.63086,0c0.09961,0.04004,0.19922,0.09961,0.26953,0.17969
				c0.16016,0.15039,0.25,0.37012,0.25,0.58984c0,0.11035-0.03027,0.20996-0.07031,0.31055
				c-0.04004,0.09961-0.09961,0.18945-0.17969,0.26953C3.55957,23.92969,3.35938,24.01953,3.13965,24.01953z"/>
		</g>
		<g>
			<path fill="#252626" d="M7.46973,24.00977c-0.21973,0-0.42969-0.08008-0.58984-0.24023
				c-0.15039-0.14941-0.24023-0.35938-0.24023-0.58008c0-0.10938,0.02051-0.21973,0.06055-0.31934
				c0.04004-0.10059,0.10938-0.19043,0.17969-0.27051c0.08008-0.08008,0.16992-0.13965,0.26953-0.17969
				c0.2002-0.08008,0.43066-0.08008,0.62988,0c0.11035,0.04004,0.2002,0.09961,0.27051,0.17969
				c0.08008,0.08008,0.13965,0.16992,0.17969,0.27051c0.04004,0.09961,0.07031,0.20996,0.07031,0.31934
				c0,0.11035-0.03027,0.20996-0.07031,0.31055c-0.04004,0.10938-0.09961,0.2002-0.17969,0.26953
				C7.89941,23.92969,7.68945,24.00977,7.46973,24.00977z"/>
		</g>
	</g>
	<g>
		<g>
			<path fill="#252626" d="M67.76953,24.01953c-0.21973,0-0.42969-0.08984-0.58984-0.25
				c-0.15039-0.14941-0.24023-0.35938-0.24023-0.58008c0-0.21973,0.08984-0.43945,0.24023-0.58984
				c0.08008-0.08008,0.16992-0.13965,0.27051-0.17969c0.19922-0.08008,0.42969-0.08008,0.63965,0
				c0.09961,0.04004,0.18945,0.09961,0.26953,0.17969c0.07031,0.08008,0.13086,0.16992,0.16992,0.27051
				c0.04004,0.09961,0.06055,0.20996,0.06055,0.31934c0,0.2207-0.08008,0.43066-0.23047,0.58008
				c-0.08008,0.08008-0.16992,0.14063-0.26953,0.18066C67.97949,23.99023,67.87988,24.01953,67.76953,24.01953z"/>
		</g>
		<g>
			<path fill="#252626" d="M72.09961,24.01953c-0.10938,0-0.21973-0.0293-0.32031-0.06934
				c-0.09961-0.04004-0.18945-0.10059-0.26953-0.18066c-0.07031-0.06934-0.12988-0.16016-0.17969-0.25977
				c-0.04004-0.11035-0.06055-0.20996-0.06055-0.32031c0-0.21973,0.08984-0.43945,0.24023-0.58984
				c0.08008-0.06934,0.16992-0.13965,0.26953-0.17969c0.21094-0.08008,0.43066-0.08008,0.64063,0
				c0.09961,0.04004,0.18945,0.09961,0.26953,0.17969c0.15039,0.15039,0.24023,0.37012,0.24023,0.58984
				c0,0.11035-0.03027,0.20996-0.07031,0.32031c-0.04004,0.09961-0.09961,0.19043-0.16992,0.25977
				c-0.08008,0.08008-0.16992,0.14063-0.26953,0.18066C72.31934,23.99023,72.20996,24.01953,72.09961,24.01953z"/>
		</g>
	</g>
	<g>
		<g>
			<path fill="#252626" d="M21.57031,8.9834h5.3584v1.88965h-3.44727v0.67383h1.90039v1.90039h-1.90039v3.40234h-1.91113
				C21.57031,16.84961,21.57031,8.9834,21.57031,8.9834z"/>
		</g>
		<g>
			<path fill="#252626" d="M34.01953,15.05957h-2.20996l-0.69531,1.79004h-2.0332L32.1084,8.9834h1.61328l3.03711,7.86621h-2.06543
				L34.01953,15.05957z M32.91504,12.0332l-0.37598,1.14844h0.74023L32.91504,12.0332z"/>
		</g>
		<g>
			<path fill="#252626" d="M41.01074,10.88379h-1.80078V8.9834h5.5127v1.90039h-1.80078v5.96582h-1.91113
				C41.01075,16.84961,41.01075,10.88379,41.01074,10.88379z"/>
		</g>
		<g>
			<path fill="#252626" d="M48.78613,8.9834h5.3584v1.87891h-3.43652v0.67383h3.00586v1.91113h-3.00586v1.50195h3.35938v1.90039
				h-5.28125C48.78614,16.84961,48.78614,8.9834,48.78613,8.9834z"/>
		</g>
	</g>
	<g>
		<g>
			<path fill="#252626" d="M10.59863,23.02051c0.00977,0.86328,0.45996,1.90527,1.5957,1.90527
				c0.86328,0,1.33203-0.50684,1.51953-1.23926h0.5918c-0.25391,1.09863-0.8916,1.73633-2.11133,1.73633
				c-1.53906,0-2.18652-1.18262-2.18652-2.56152c0-1.27637,0.64746-2.5625,2.18652-2.5625
				c1.55762,0,2.17676,1.36133,2.12988,2.72168H10.59863z M13.7334,22.52344c-0.02832-0.8916-0.58203-1.72656-1.53906-1.72656
				c-0.9668,0-1.50195,0.84473-1.5957,1.72656H13.7334z"/>
		</g>
		<g>
			<path fill="#252626" d="M14.58008,20.44043h0.65723l1.52051,4.25098h0.01855l1.50098-4.25098h0.61035l-1.81152,4.8418h-0.62891
				L14.58008,20.44043z"/>
		</g>
		<g>
			<path fill="#252626" d="M19.81836,23.02051c0.00977,0.86328,0.45996,1.90527,1.5957,1.90527
				c0.86328,0,1.33203-0.50684,1.51953-1.23926h0.5918c-0.25391,1.09863-0.8916,1.73633-2.11133,1.73633
				c-1.53906,0-2.18652-1.18262-2.18652-2.56152c0-1.27637,0.64746-2.5625,2.18652-2.5625
				c1.55762,0,2.17676,1.36133,2.12988,2.72168H19.81836z M22.95313,22.52344c-0.02832-0.8916-0.58203-1.72656-1.53906-1.72656
				c-0.9668,0-1.50195,0.84473-1.5957,1.72656H22.95313z"/>
		</g>
		<g>
			<path fill="#252626" d="M24.33496,20.44043h0.59082v0.83496h0.01953c0.21582-0.58203,0.86328-0.97656,1.54785-0.97656
				c1.36035,0,1.77344,0.71387,1.77344,1.86816v3.11523h-0.59082v-3.02148c0-0.83496-0.27246-1.46387-1.22949-1.46387
				c-0.93848,0-1.50098,0.71289-1.52051,1.66113v2.82422h-0.59082C24.33496,25.28222,24.33496,20.44043,24.33496,20.44043z"/>
		</g>
		<g>
			<path fill="#252626" d="M30.3252,20.44043h0.98438v0.49707H30.3252v3.26563c0,0.38477,0.05566,0.61035,0.47852,0.6377
				c0.16895,0,0.33789-0.00879,0.50586-0.02734v0.50586c-0.17773,0-0.34668,0.01953-0.52539,0.01953
				c-0.78809,0-1.06055-0.2627-1.05078-1.08887v-3.3125h-0.84473v-0.49707h0.84473v-1.45508h0.5918
				C30.32521,18.98536,30.32521,20.44043,30.3252,20.44043z"/>
		</g>
		<g>
			<path fill="#252626" d="M34.77637,20.44043h0.54395v0.81641h0.02832c0.30957-0.58203,0.81641-0.95801,1.58594-0.95801
				c0.6377,0,1.20996,0.31055,1.38867,0.94824c0.29102-0.6377,0.90039-0.94824,1.53906-0.94824
				c1.06055,0,1.60449,0.55371,1.60449,1.69922v3.28418h-0.59082v-3.25586c0-0.79785-0.30078-1.22949-1.14551-1.22949
				c-1.02246,0-1.31348,0.84473-1.31348,1.74512v2.74023h-0.59082v-3.28418c0.00879-0.65723-0.2627-1.20117-1.01367-1.20117
				c-1.02344,0-1.43555,0.76953-1.44531,1.78223v2.70313h-0.59082C34.77636,25.28224,34.77636,20.44043,34.77637,20.44043z"/>
		</g>
		<g>
			<path fill="#252626" d="M46.93164,22.86133c0,1.38867-0.80664,2.56152-2.29004,2.56152
				c-1.48242,0-2.28906-1.17285-2.28906-2.56152s0.80664-2.5625,2.28906-2.5625
				C46.125,20.29883,46.93164,21.47266,46.93164,22.86133z M42.94336,22.86133c0,1.03223,0.56348,2.06445,1.69824,2.06445
				c1.13574,0,1.69922-1.03223,1.69922-2.06445s-0.56348-2.06445-1.69922-2.06445
				C43.50684,20.79688,42.94336,21.8291,42.94336,22.86133z"/>
		</g>
		<g>
			<path fill="#252626" d="M52.07617,25.28223h-0.54395V24.3623h-0.01855c-0.25391,0.62891-1.02344,1.06055-1.72656,1.06055
				c-1.47363,0-2.17773-1.19141-2.17773-2.56152s0.7041-2.5625,2.17773-2.5625c0.72168,0,1.42578,0.36621,1.67969,1.06055h0.01855
				v-2.77734h0.59082C52.07618,18.58204,52.07618,25.28223,52.07617,25.28223z M49.78711,24.92578
				c1.25684,0,1.69824-1.06055,1.69824-2.06445s-0.44141-2.06445-1.69824-2.06445c-1.12695,0-1.58594,1.06055-1.58594,2.06445
				S48.66016,24.92578,49.78711,24.92578z"/>
		</g>
		<g>
			<path fill="#252626" d="M53.21387,18.58203h0.5918v0.94727h-0.5918V18.58203z M53.21387,20.44043h0.5918v4.8418h-0.5918V20.44043
				z"/>
		</g>
		<g>
			<path fill="#252626" d="M55.26074,20.9375h-0.8252v-0.49707h0.8252v-0.44141c-0.00879-0.83496,0.22559-1.41699,1.17285-1.41699
				c0.16895,0,0.31055,0.00977,0.49805,0.03711v0.50684C56.77148,19.09766,56.64063,19.0791,56.5,19.0791
				c-0.65723,0-0.63867,0.41309-0.64746,0.93848v0.42285h0.95703v0.49707h-0.95703v4.34473h-0.5918V20.9375z M57.38184,18.58203
				h0.59082v0.94727h-0.59082V18.58203z M57.38184,20.44043h0.59082v4.8418h-0.59082V20.44043z"/>
		</g>
		<g>
			<path fill="#252626" d="M59.45703,23.02051c0.00977,0.86328,0.45996,1.90527,1.5957,1.90527
				c0.86328,0,1.33203-0.50684,1.51953-1.23926h0.5918c-0.25391,1.09863-0.8916,1.73633-2.11133,1.73633
				c-1.53906,0-2.18652-1.18262-2.18652-2.56152c0-1.27637,0.64746-2.5625,2.18652-2.5625
				c1.55762,0,2.17676,1.36133,2.12988,2.72168H59.45703z M62.5918,22.52344c-0.02832-0.8916-0.58203-1.72656-1.53906-1.72656
				c-0.9668,0-1.50195,0.84473-1.5957,1.72656H62.5918z"/>
		</g>
		<g>
			<path fill="#252626" d="M63.9834,20.44043h0.54395v1.13477h0.01855c0.30078-0.77832,0.95703-1.23828,1.83008-1.20117v0.5918
				c-1.07031-0.05664-1.80176,0.73145-1.80176,1.73535v2.58105H63.9834V20.44043z"/>
		</g>
	</g>
	<g>
		<circle fill="#252626" cx="53.475" cy="147.99908" r="14.87217"/>
	</g>
	<g>
		<g>
			<path fill="#1D1D1B" d="M8.93652,130.34961c-0.03027,0.26074-0.10938,0.51172-0.2334,0.74316
				c-0.12402,0.23633-0.29102,0.43848-0.49805,0.60352c-0.21093,0.17676-0.4453,0.30371-0.71288,0.38379
				c-1.07129,0.32031-2.20801-0.29883-2.52734-1.37109c-0.09082-0.30469-0.1084-0.62891-0.05078-0.93555
				c0.0498-0.30664,0.18262-0.6084,0.37012-0.85645l0.0791-0.11621l0.58203,0.43652l-0.08203,0.11035
				c-0.24902,0.33105-0.32227,0.75098-0.20215,1.15332c0.20605,0.69141,0.93457,1.08887,1.62402,0.88281
				c0.69629-0.20801,1.0918-0.94043,0.88672-1.63086c-0.11914-0.39844-0.41016-0.70996-0.80176-0.85449l-0.12402-0.0498
				l0.24316-0.67676l0.12988,0.05273c0.30078,0.10938,0.5625,0.28223,0.78125,0.51465
				c0.21387,0.22559,0.37207,0.50293,0.46191,0.80762C8.94043,129.80762,8.96484,130.08008,8.93652,130.34961z"/>
		</g>
		<g>
			<path fill="#1D1D1B" d="M8.33398,124.87402l-1.88086-0.04883l-0.04102,1.5752l1.88184,0.0498l-0.01953,0.73145l-3.88281-0.10156
				l0.01953-0.73047l1.28613,0.0332l0.04199-1.57617l-1.28809-0.03418l0.01953-0.73047l3.88379,0.10156L8.33398,124.87402z"/>
		</g>
		<g>
			<path fill="#1D1D1B" d="M6.54395,122.80469c-1.05664-0.38281-1.60449-1.54688-1.22559-2.60059
				c0.38281-1.05664,1.54883-1.60547,2.60645-1.22266c1.05078,0.37891,1.59375,1.54395,1.21289,2.60156
				C8.75781,122.63379,7.59668,123.18457,6.54395,122.80469z M6.79199,122.11719c0.67871,0.24414,1.42578-0.10645,1.66895-0.7793
				c0.24121-0.67285-0.11035-1.41992-0.78711-1.66504c-0.68164-0.24512-1.42969,0.10645-1.67188,0.77734
				C5.75977,121.12305,6.11035,121.87012,6.79199,122.11719z"/>
		</g>
		<g>
			<path fill="#1D1D1B" d="M10.37695,118.94531l-3.21191-2.19629l0.41309-0.60547l3.21289,2.19727L10.37695,118.94531z"/>
		</g>
		<g>
			<path fill="#1D1D1B" d="M12.11523,116.65137c-0.24902,0.08008-0.50977,0.11621-0.77246,0.09961
				c-0.2666-0.01172-0.52148-0.07617-0.75781-0.19629c-0.24805-0.11523-0.46289-0.27539-0.64746-0.48242
				c-0.74414-0.83691-0.66211-2.12793,0.17383-2.87109c0.2373-0.21094,0.52539-0.36328,0.82715-0.44238
				c0.29883-0.08203,0.62793-0.08984,0.93457-0.02539l0.13672,0.02441l-0.15039,0.70898l-0.13281-0.02637
				c-0.40625-0.08691-0.81836,0.02441-1.13281,0.30371c-0.54004,0.47852-0.5918,1.30664-0.11328,1.84668
				c0.48145,0.54297,1.31445,0.59277,1.85352,0.11328c0.31055-0.27441,0.46875-0.67188,0.43555-1.08789l-0.00781-0.13281
				l0.71582-0.06445l0.00781,0.13965c0.02734,0.31836-0.01855,0.62891-0.13672,0.92383
				c-0.11426,0.29102-0.2998,0.5498-0.53613,0.76074C12.60742,116.4248,12.37109,116.56055,12.11523,116.65137z"/>
		</g>
		<g>
			<path fill="#1D1D1B" d="M14.82227,114.67773l-1.63574-3.52539l2.32324-1.07715l0.29785,0.64355l-1.65918,0.76953l0.24121,0.52051
				l1.44629-0.6709l0.30566,0.6582l-1.44531,0.6709l0.48535,1.0498l1.61523-0.74902l0.30273,0.6543L14.82227,114.67773z"/>
		</g>
		<g>
			<path fill="#1D1D1B" d="M26.14844,113.92578l1.25781-2.90527l-0.87695-0.37988l0.28711-0.66113l2.4248,1.0498l-0.28613,0.66113
				l-0.87695-0.37988l-1.25879,2.90625L26.14844,113.92578z"/>
		</g>
		<g>
			<path fill="#1D1D1B" d="M30.13965,116.41504l0.10938-2.34766l-0.24414-0.19434l-1.18652,1.48438l-0.55469-0.44336
				l2.42969-3.03613l1.08691,0.86914c0.2041,0.16406,0.33105,0.39746,0.36133,0.66699
				c0.0293,0.26953-0.04199,0.52539-0.20605,0.73047c-0.24219,0.30176-0.63965,0.43262-1.00781,0.34863l-0.11426,2.45996
				L30.13965,116.41504z M30.98242,113.74512c0.11816,0.0957,0.29883,0.08008,0.39844-0.04395s0.0752-0.30371-0.04395-0.39941
				l-0.53223-0.42676l-0.35547,0.44434L30.98242,113.74512z"/>
		</g>
		<g>
			<path fill="#1D1D1B" d="M31.23535,117.59863l3.04297-2.42285l0.45605,0.57227l-3.04297,2.42383L31.23535,117.59863z"/>
		</g>
		<g>
			<path fill="#1D1D1B" d="M34.08496,117.95703c1.01563-0.4707,2.22559-0.02734,2.69629,0.98828
				c0.11523,0.24707,0.17773,0.51172,0.1875,0.7793c0.00977,0.26563-0.03027,0.53027-0.125,0.7793l-0.05078,0.13867l-0.6582-0.29102
				l0.04004-0.12109c0.12012-0.31445,0.09766-0.65918-0.05176-0.98047c-0.30273-0.65332-1.07813-0.9375-1.73145-0.63477
				c-0.65918,0.30566-0.94824,1.08398-0.64453,1.7373c0.15332,0.33105,0.42676,0.57227,0.77246,0.69434l0.7334-0.33984
				l-0.44727-0.96582l0.65723-0.30469l0.75,1.61328l-1.625,0.75391l-0.04102-0.01074
				c-0.64551-0.13379-1.18457-0.55859-1.45508-1.13672C32.62207,119.64063,33.06543,118.43066,34.08496,117.95703z"/>
		</g>
		<g>
			<path fill="#1D1D1B" d="M36.01074,122.54297c1.11426-0.11426,2.11426,0.69824,2.23047,1.8125
				c0.02734,0.27148,0.00098,0.54395-0.07813,0.79883c-0.07715,0.25488-0.20215,0.49219-0.37207,0.69727l-0.0918,0.11328
				l-0.5293-0.48926l0.07813-0.10059c0.21484-0.25879,0.30664-0.59277,0.26953-0.94531
				c-0.07227-0.71582-0.71387-1.2373-1.43164-1.16406c-0.72266,0.07422-1.24902,0.7168-1.17383,1.43359
				c0.03711,0.36328,0.21777,0.67969,0.50391,0.9082l0.80469-0.08203l-0.10938-1.06055l0.72266-0.07324l0.18164,1.77051
				l-1.78125,0.18359l-0.03516-0.02441c-0.56641-0.33594-0.93848-0.91309-1.00488-1.54785
				C34.07813,123.66016,34.89258,122.66016,36.01074,122.54297z"/>
		</g>
		<g>
			<path fill="#1D1D1B" d="M34.29395,127.38965l3.80957,0.78418l-0.51758,2.51074l-0.69434-0.14355l0.36914-1.79199
				l-0.56152-0.11523l-0.32227,1.56152l-0.71094-0.14551l0.32031-1.56348l-1.13379-0.23438l-0.35938,1.74609l-0.70703-0.14551
				L34.29395,127.38965z"/>
		</g>
		<g>
			<path fill="#1D1D1B" d="M32.44824,132.77246l2.32129-0.3584l0.14258-0.27637l-1.68945-0.87012l0.3252-0.63184l3.45703,1.78027
				l-0.6377,1.2373c-0.12012,0.2334-0.32422,0.4043-0.58203,0.4873c-0.25684,0.08203-0.52344,0.0625-0.75586-0.05859
				c-0.34473-0.17676-0.55078-0.54102-0.54102-0.91602l-2.43555,0.37305L32.44824,132.77246z M35.23242,133.06934
				c-0.07129,0.13574-0.01953,0.30957,0.12207,0.38184c0.13965,0.07324,0.3125,0.01367,0.38184-0.12207l0.31152-0.60742
				l-0.50391-0.25977L35.23242,133.06934z"/>
		</g>
	</g>
	<g>
		<g>
			<path fill="#1D1D1B" d="M44.74316,246.67285l-2.31641-3.11621l2.05273-1.52637l0.42383,0.56934l-1.4668,1.08984l0.3418,0.45898
				l1.27734-0.94922l0.43359,0.58105l-1.2793,0.9502l0.69141,0.92773l1.42578-1.06055l0.43164,0.57813L44.74316,246.67285z"/>
		</g>
		<g>
			<path fill="#1D1D1B" d="M49.87402,243.88672l-1.43555-0.98047l-0.46777,1.67969l-0.83691,0.30566l0.66797-2.41699
				l-1.88477-1.28223l0.84375-0.30957l1.24609,0.84766l0.40527-1.45313l0.83691-0.30664l-0.60938,2.19727l2.07227,1.41211
				L49.87402,243.88672z"/>
		</g>
		<g>
			<path fill="#1D1D1B" d="M60.00879,245.20898l1.14648-2.33105l-1.52246,0.7959l-0.29395-1.68945l-1.14648,2.33105
				l-0.65039-0.32129l1.71484-3.48633l0.61328,0.30273l0.30469,1.76172l1.58398-0.83203l0.61719,0.30273l-1.71582,3.48633
				L60.00879,245.20898z"/>
		</g>
		<g>
			<path fill="#1D1D1B" d="M63.28809,247.95117l0.45703-1.02441l-0.91211-0.90918l-1.02637,0.45898l-0.55371-0.55078
				l3.80078-1.69922l0.46875,0.46582l-1.67773,3.81348L63.28809,247.95117z M64.05176,246.2168l0.41211-0.92383l-0.92285,0.41504
				L64.05176,246.2168z"/>
		</g>
		<g>
			<path fill="#1D1D1B" d="M64.6709,249.75c-0.01953-0.26172,0.00684-0.52344,0.08398-0.77441
				c0.0752-0.25684,0.19922-0.48926,0.37012-0.69141c0.1709-0.21484,0.37695-0.38574,0.62402-0.5166
				c0.99023-0.52539,2.22656-0.14063,2.75195,0.84961c0.14844,0.28027,0.22949,0.5957,0.23438,0.90918
				c0.00977,0.30957-0.06055,0.63184-0.19531,0.91309l-0.05566,0.12988l-0.65527-0.31543l0.05859-0.12305
				c0.17871-0.37402,0.16895-0.80078-0.0293-1.17383c-0.33789-0.6377-1.13184-0.88477-1.76953-0.54688
				c-0.64063,0.3418-0.88672,1.13867-0.54883,1.77637c0.19531,0.36816,0.54297,0.61621,0.95508,0.68164l0.13086,0.02344
				l-0.10547,0.71191l-0.1377-0.02539c-0.31738-0.04883-0.6084-0.16699-0.86719-0.35156
				c-0.25488-0.17969-0.46387-0.42188-0.61328-0.70117C64.77441,250.2832,64.69824,250.02148,64.6709,249.75z"/>
		</g>
		<g>
			<path fill="#1D1D1B" d="M66.33301,254.98145l1.85547-0.32324l-0.27148-1.55371l-1.85449,0.32324l-0.12598-0.72168
				l3.83008-0.66602l0.125,0.71973l-1.26953,0.22168l0.27051,1.55371l1.27051-0.2207l0.125,0.7207l-3.83008,0.66797
				L66.33301,254.98145z"/>
		</g>
		<g>
			<path fill="#1D1D1B" d="M66.38965,256.84961l3.88477,0.2334l-0.04492,0.73047l-3.88281-0.2334L66.38965,256.84961z"/>
		</g>
		<g>
			<path fill="#1D1D1B" d="M65.54004,261.1582l2.95215-0.88867l-2.43848-0.76074l0.21875-0.69824l3.7168,1.15723l-0.21191,0.67871
				l-2.94434,0.88672l2.43164,0.75781l-0.21777,0.69922l-3.7168-1.1582L65.54004,261.1582z"/>
		</g>
		<g>
			<path fill="#1D1D1B" d="M63.49512,264.69531l1.08691,0.26758l0.73242-1.05664l-0.62988-0.92969l0.44434-0.64063l2.34082,3.44141
				l-0.37598,0.54102l-4.0459-0.97852L63.49512,264.69531z M65.33496,265.14063l0.98047,0.24219l-0.57031-0.83398
				L65.33496,265.14063z"/>
		</g>
	</g>
	<g>
		<g>
			<path fill="#1D1D1B" d="M12.05273,243.875l-3.0332,2.43066l-1.59961-1.99902l0.55273-0.44336l1.14355,1.42773l0.44824-0.3584
				l-0.99805-1.24414l0.56641-0.4541l0.99707,1.24414l0.90332-0.72363l-1.1123-1.38867l0.5625-0.45117L12.05273,243.875z"/>
		</g>
		<g>
			<path fill="#1D1D1B" d="M9.61719,240.2002c0.08301,0.4043,0.05469,0.84277-0.08691,1.27734l-0.0459,0.13184l-0.69043-0.22949
				l0.04492-0.13184c0.10352-0.31641,0.13086-0.62988,0.07422-0.90234l-0.00195-0.00586
				c-0.01758-0.08203-0.03906-0.16113-0.07129-0.2373c-0.05371-0.125-0.12793-0.23047-0.21289-0.30664
				c-0.10254-0.09961-0.27246-0.19336-0.47852-0.10645c-0.11133,0.04688-0.17285,0.13867-0.19434,0.28516
				c-0.02539,0.17676,0.01074,0.38672,0.04297,0.5332c0.01563,0.06543,0.12695,0.62305,0.09668,0.91406
				c-0.03027,0.19727-0.09863,0.36914-0.20313,0.51367c-0.11035,0.14844-0.25391,0.25586-0.43066,0.33008
				c-0.19043,0.08301-0.4082,0.10254-0.63184,0.06152c-0.19336-0.04785-0.37793-0.14844-0.54102-0.29395
				c-0.16211-0.14355-0.29297-0.32617-0.38477-0.54199c-0.03516-0.08594-0.06445-0.18066-0.0918-0.27539
				c-0.08008-0.3584-0.06934-0.74805,0.05176-1.1377l0.03809-0.12988l0.70117,0.20703l-0.04004,0.12988
				c-0.12793,0.44141-0.06934,0.74805,0.00684,0.92969c0.0498,0.11426,0.12012,0.20996,0.19922,0.2832
				c0.125,0.11426,0.28418,0.15234,0.40332,0.10254c0.1123-0.04883,0.16406-0.11816,0.18945-0.24121
				s0.01465-0.29004-0.03418-0.54297c-0.00781-0.03223-0.01465-0.07715-0.02148-0.12109
				c-0.05078-0.22949-0.1084-0.53613-0.07617-0.78125c0.01758-0.20996,0.08789-0.39355,0.19531-0.5459
				s0.25977-0.27051,0.44141-0.34766c0.22656-0.09668,0.45215-0.12012,0.6748-0.07324
				c0.19043,0.04395,0.38184,0.14648,0.57129,0.31055c0.16504,0.1377,0.28809,0.31738,0.39355,0.56348
				C9.55273,239.93652,9.58887,240.06348,9.61719,240.2002z"/>
		</g>
		<g>
			<path fill="#1D1D1B" d="M8.66211,237.06934l-3.13379,0.45605l0.13867,0.94336l-0.71289,0.10449l-0.38086-2.61426l0.71387-0.10352
				l0.1377,0.94531l3.13086-0.45508L8.66211,237.06934z"/>
		</g>
		<g>
			<path fill="#1D1D1B" d="M8.68848,232.34961L7.60156,232.625l-0.14746,1.2793l0.99316,0.52246L8.3584,235.2002l-3.68652-1.93164
				l0.0752-0.65527l4.03125-1.04297L8.68848,232.34961z M6.85449,232.8252L5.875,233.07324l0.89551,0.4668L6.85449,232.8252z"/>
		</g>
		<g>
			<path fill="#1D1D1B" d="M8.98242,231.01172l-3.57031-1.53418l0.56836-1.32422c0.10254-0.24023,0.30371-0.43262,0.5459-0.52441
				c0.2373-0.09961,0.51758-0.09961,0.75879,0.00293c0.14453,0.06348,0.26465,0.15625,0.3623,0.2627
				c0.0957-0.07031,0.2002-0.13281,0.31152-0.17383c0.32617-0.13379,0.68066-0.13086,1.00195,0.00684
				c0.31934,0.13867,0.56738,0.39355,0.69922,0.72168c0.06348,0.15918,0.09766,0.32813,0.0957,0.5
				c0.00195,0.17285-0.03516,0.34082-0.10156,0.49707L8.98242,231.01172z M7.14063,228.6582
				c0.06055-0.14063-0.00684-0.30078-0.14258-0.3584c-0.13477-0.05859-0.29395,0.00391-0.36328,0.14063l-0.2793,0.65234
				l0.50684,0.21777L7.14063,228.6582z M8.99414,229.16895c0.11816-0.30078-0.02441-0.64551-0.32031-0.77344
				c-0.29004-0.125-0.64063,0.00977-0.76953,0.29785l-0.38574,0.89941l1.09375,0.46875L8.99414,229.16895z"/>
		</g>
		<g>
			<path fill="#1D1D1B" d="M10.60352,227.62988l-3.01563-2.45215l0.46191-0.56641l2.46094,2.00098l1.25-1.53809l0.55566,0.4502
				L10.60352,227.62988z"/>
		</g>
		<g>
			<path fill="#1D1D1B" d="M13.05469,224.9541l-2.42969-3.03418l0.57031-0.45703l2.42969,3.03418L13.05469,224.9541z"/>
		</g>
		<g>
			<path fill="#1D1D1B" d="M15.43652,223.33398c-0.39941,0.10547-0.83984,0.10547-1.28223-0.00977l-0.13477-0.03711l0.1875-0.7041
				l0.13477,0.03711c0.32227,0.08301,0.6377,0.0918,0.9082,0.01855l0.00391-0.00195
				c0.08008-0.02246,0.15918-0.04883,0.23242-0.08496c0.12305-0.06152,0.22266-0.14258,0.29297-0.23242
				c0.09473-0.10645,0.17773-0.2832,0.07813-0.4834c-0.05273-0.1084-0.14844-0.16504-0.29688-0.17773
				c-0.17676-0.01465-0.38574,0.0332-0.5293,0.07422c-0.06348,0.02051-0.61426,0.16602-0.9082,0.15332
				c-0.19824-0.01758-0.37305-0.07715-0.52539-0.17285c-0.1543-0.10059-0.27051-0.23828-0.35547-0.40918
				c-0.09375-0.18555-0.12598-0.40137-0.09863-0.62891c0.03613-0.19629,0.125-0.38672,0.25879-0.55762
				c0.13574-0.1709,0.30957-0.31152,0.52051-0.41602c0.08301-0.04199,0.17578-0.07617,0.26855-0.11035
				c0.35352-0.10156,0.74414-0.1123,1.13965-0.0166l0.13281,0.03125l-0.16504,0.71191l-0.13281-0.03223
				c-0.44727-0.09961-0.75-0.02246-0.92773,0.06445c-0.11133,0.05566-0.20215,0.13184-0.27148,0.21484
				c-0.10547,0.13184-0.13477,0.29297-0.07715,0.41016c0.05371,0.10742,0.12793,0.15723,0.25293,0.1748
				s0.29004-0.00391,0.53906-0.06738c0.03223-0.01074,0.07715-0.01855,0.12012-0.0293
				c0.22656-0.06348,0.5293-0.14063,0.77539-0.12305c0.21191,0.00488,0.39941,0.06445,0.55762,0.16211
				c0.16016,0.09961,0.28711,0.24316,0.37402,0.41992c0.11035,0.2207,0.14746,0.44531,0.11328,0.6709
				c-0.03223,0.19238-0.12305,0.39063-0.27441,0.58887c-0.12891,0.17285-0.29883,0.30664-0.53906,0.42676
				C15.69531,223.25391,15.57031,223.29785,15.43652,223.33398z"/>
		</g>
		<g>
			<path fill="#1D1D1B" d="M20.04395,221.90723l-0.32422-1.85645l-1.55566,0.27246l0.32617,1.85742l-0.72168,0.12598
				l-0.6709-3.83203l0.71973-0.12598l0.22461,1.26855l1.55469-0.27148l-0.22266-1.26953l0.72168-0.12695l0.66992,3.83203
				L20.04395,221.90723z"/>
		</g>
		<g>
			<path fill="#1D1D1B" d="M21.75586,221.81055l0.41504-3.86523l2.5459,0.27344l-0.07617,0.70703l-1.81836-0.19629l-0.06055,0.56934
				l1.58496,0.1709l-0.07813,0.72168l-1.58496-0.1709l-0.12305,1.15039l1.76953,0.19141l-0.07715,0.71582L21.75586,221.81055z"/>
		</g>
		<g>
			<path fill="#1D1D1B" d="M25.05371,222.25781l1.49316-3.58887l1.20508,0.50098c1.01367,0.4209,1.50488,1.57227,1.09473,2.55957
				c-0.41113,0.9873-1.57324,1.4502-2.58691,1.0293L25.05371,222.25781z M26.53418,222.09961
				c0.64551,0.26758,1.38184-0.02344,1.64063-0.64941c0.25977-0.625-0.05176-1.35156-0.69727-1.61914l-0.53418-0.22363
				l-0.94434,2.26855L26.53418,222.09961z"/>
		</g>
		<g>
			<path fill="#1D1D1B" d="M34.67871,227.49512c1.04688-0.41211,2.22949,0.10352,2.63965,1.14551
				c0.41211,1.04785-0.10254,2.23047-1.15039,2.6416c-1.04297,0.41113-2.2207-0.10645-2.63281-1.15332
				C33.125,229.08594,33.63574,227.90527,34.67871,227.49512z M34.94531,228.17578c-0.6709,0.26563-1,1.02344-0.73828,1.68848
				c0.26172,0.66602,1.02051,0.99707,1.69141,0.73242c0.67578-0.2666,1.00488-1.02344,0.74316-1.68945
				C36.38086,228.24023,35.62207,227.91113,34.94531,228.17578z"/>
		</g>
		<g>
			<path fill="#1D1D1B" d="M34.50977,235.08301l1.82715-1.47754l-0.0166-0.31055l-1.89746,0.09766l-0.03613-0.70996l3.88281-0.19727
				l0.07129,1.38965c0.0127,0.26172-0.07813,0.5127-0.25977,0.71289c-0.18066,0.20117-0.41992,0.31738-0.68262,0.33008
				c-0.38672,0.01953-0.74707-0.19043-0.92773-0.52051l-1.91699,1.5459L34.50977,235.08301z M37.06445,233.94043
				c0.00684,0.15332,0.13965,0.27734,0.29785,0.26855c0.15723-0.00684,0.27637-0.14551,0.26953-0.29785l-0.03516-0.68164
				l-0.56738,0.02832L37.06445,233.94043z"/>
		</g>
		<g>
			<path fill="#1D1D1B" d="M34.47168,236.49414l3.77246,0.93945l-0.31543,1.26563c-0.26563,1.06543-1.33008,1.72363-2.36816,1.46387
				c-1.03906-0.25684-1.6709-1.33789-1.4043-2.40332L34.47168,236.49414z M34.84961,237.93262
				c-0.16895,0.67871,0.22949,1.3623,0.88574,1.52637c0.6582,0.16406,1.3291-0.25391,1.49902-0.93164l0.13965-0.56152
				l-2.38477-0.59473L34.84961,237.93262z"/>
		</g>
		<g>
			<path fill="#1D1D1B" d="M33.32813,240.33398l3.38281,1.93066l-1.27246,2.22754l-0.61816-0.35254l0.90918-1.59082
				l-0.49902-0.28418l-0.79199,1.38574l-0.63184-0.35938l0.79199-1.38867l-1.00684-0.57422l-0.88379,1.54883l-0.62598-0.35742
				L33.32813,240.33398z"/>
		</g>
		<g>
			<path fill="#1D1D1B" d="M29.83984,244.85547l2.31641,0.41211l0.22461-0.21582l-1.32031-1.37012l0.51172-0.49414l2.70117,2.80469
				l-1.00391,0.9668c-0.18945,0.18262-0.43945,0.2793-0.70996,0.27344c-0.27051-0.00391-0.51563-0.11035-0.69727-0.2998
				c-0.26953-0.2793-0.34766-0.69043-0.2168-1.04395l-2.42871-0.43262L29.83984,244.85547z M32.38086,246.03711
				c-0.1084,0.10742-0.11719,0.28906-0.00684,0.40234c0.11035,0.11426,0.29199,0.11426,0.40137,0.00781l0.49316-0.47363
				l-0.39355-0.40918L32.38086,246.03711z"/>
		</g>
	</g>
	<g>
		<g>
			<path fill="#1D1D1B" d="M24.91309,87.18555l-3.7041-1.18164l0.77637-2.43555l0.68164,0.2168l-0.55566,1.74414l0.54688,0.17383
				l0.30664-0.96191l0.68652,0.21777l-0.30762,0.96289l1.79004,0.57031L24.91309,87.18555z"/>
		</g>
		<g>
			<path fill="#1D1D1B" d="M27.25781,82.20117l-2.34766,0.11426l-0.16992,0.26074l1.58984,1.04102l-0.38965,0.59375
				l-3.25195-2.12988l0.7627-1.16504c0.14355-0.21973,0.36523-0.36719,0.62988-0.42383
				c0.26465-0.05469,0.52734-0.00781,0.74707,0.1377c0.32422,0.21191,0.49121,0.59473,0.44141,0.96777l2.46094-0.11816
				L27.25781,82.20117z M24.52051,81.61621c0.08398-0.12891,0.0498-0.30664-0.08203-0.39258
				c-0.13184-0.08691-0.30859-0.0459-0.39355,0.08105l-0.37305,0.57129l0.47461,0.31055L24.52051,81.61621z"/>
		</g>
		<g>
			<path fill="#1D1D1B" d="M28.09082,81.18848l-2.61035-2.88672l1.90137-1.71973l0.47656,0.52734l-1.35742,1.22852l0.38379,0.42578
				l1.18457-1.07129l0.48828,0.53906l-1.18457,1.07031l0.77734,0.86035l1.32227-1.19531l0.48242,0.53516L28.09082,81.18848z"/>
		</g>
		<g>
			<path fill="#1D1D1B" d="M30.69629,79.03516l-1.7793-3.45898l2.2793-1.17188l0.3252,0.63086l-1.62891,0.83789l0.26367,0.51074
				l1.41797-0.73047l0.33203,0.64648l-1.41797,0.72949l0.5293,1.03027l1.58496-0.81445l0.33008,0.6416L30.69629,79.03516z"/>
		</g>
		<g>
			<path fill="#1D1D1B" d="M44.39355,78.93262l-0.0957-1.98145l-1.65625,1.09375l-0.59863-0.30469l0.79004-3.95508l0.68164,0.3457
				l-0.5752,2.84668l1.45898-0.95996l0.59863,0.30371l0.08203,1.74316l1.96094-2.14355l0.67676,0.34375l-2.72461,2.97168
				L44.39355,78.93262z"/>
		</g>
		<g>
			<path fill="#1D1D1B" d="M46.35254,80.43457l2.6875-2.80469l0.52734,0.50488l-2.68555,2.80566L46.35254,80.43457z"/>
		</g>
		<g>
			<path fill="#1D1D1B" d="M47.76367,81.84863l3.23438-2.16309l0.40723,0.60938l-2.64063,1.76367l1.10254,1.64941l-0.59473,0.39746
				L47.76367,81.84863z"/>
		</g>
		<g>
			<path fill="#1D1D1B" d="M49.55664,84.75488l3.68164-1.24414l0.2334,0.69238l-3.00391,1.0166l0.63477,1.87598l-0.67676,0.22852
				L49.55664,84.75488z"/>
		</g>
	</g>
	<g>
		<g>
			<path fill="#1D1D1B" d="M24.64063,289.81641c-0.16211,0.20605-0.35938,0.38086-0.58496,0.51367
				c-0.22754,0.1377-0.47656,0.22461-0.73828,0.25879c-0.27051,0.04199-0.53809,0.02832-0.80762-0.04004
				c-1.08301-0.2832-1.73438-1.39941-1.45117-2.48242c0.07813-0.30566,0.23242-0.59375,0.43945-0.82715
				c0.20215-0.23535,0.4707-0.4248,0.76074-0.54102l0.12793-0.05762l0.27051,0.6748l-0.12695,0.05176
				c-0.38379,0.1543-0.66504,0.47461-0.77051,0.88184c-0.18164,0.69727,0.23535,1.41504,0.93359,1.59668
				c0.70117,0.18262,1.4209-0.23926,1.60156-0.93652c0.10449-0.40234,0.0166-0.81934-0.24414-1.14648l-0.07813-0.10547
				l0.55664-0.45313l0.08398,0.1123c0.20117,0.25,0.33594,0.5332,0.40039,0.84375c0.06836,0.30469,0.05859,0.62402-0.02148,0.93164
				C24.92383,289.35449,24.80371,289.59961,24.64063,289.81641z"/>
		</g>
		<g>
			<path fill="#1D1D1B" d="M26.96094,284.82227l-1.58984-1.01563l-0.84961,1.33203l1.58984,1.01465l-0.39453,0.61719
				l-3.28027-2.09473l0.39551-0.61719l1.08594,0.69531l0.85156-1.33203l-1.08887-0.69434l0.39551-0.61816l3.2793,2.0957
				L26.96094,284.82227z"/>
		</g>
		<g>
			<path fill="#1D1D1B" d="M26.49805,282.12012c-0.70703-0.875-0.57031-2.15723,0.30078-2.86035
				c0.87598-0.70605,2.1582-0.57031,2.86523,0.30566c0.70313,0.87012,0.5625,2.14941-0.3125,2.85645
				C28.47949,283.125,27.2002,282.99219,26.49805,282.12012z M27.06641,281.66113c0.45313,0.56152,1.27539,0.64746,1.83203,0.2002
				c0.55664-0.44922,0.64453-1.27148,0.19141-1.83398c-0.45605-0.56445-1.27832-0.65234-1.83496-0.20313
				C26.69922,280.27441,26.61133,281.0957,27.06641,281.66113z"/>
		</g>
		<g>
			<path fill="#1D1D1B" d="M31.75977,280.82031l-1.6084-3.54492l0.66699-0.30176l1.60742,3.54199L31.75977,280.82031z"/>
		</g>
		<g>
			<path fill="#1D1D1B" d="M34.45313,279.74219c-0.25586-0.05957-0.49805-0.16406-0.71484-0.3125
				c-0.2207-0.14844-0.40625-0.33594-0.54785-0.55859c-0.15332-0.22656-0.25488-0.47461-0.30566-0.74805
				c-0.20508-1.10156,0.5293-2.16602,1.63086-2.37109c0.31152-0.05859,0.63672-0.04102,0.93555,0.04785
				c0.29883,0.08301,0.58594,0.24609,0.81445,0.45996l0.10547,0.09082l-0.49609,0.53027l-0.09961-0.0918
				c-0.30273-0.2832-0.71289-0.40039-1.12695-0.32422c-0.70898,0.13281-1.18164,0.81641-1.05078,1.52441
				c0.13477,0.71387,0.82227,1.18652,1.53125,1.05371c0.40723-0.07617,0.74805-0.33398,0.93359-0.70703l0.0625-0.11719
				l0.64648,0.3125l-0.06641,0.12305c-0.14063,0.28906-0.33984,0.53027-0.5918,0.72266
				c-0.24805,0.19043-0.54199,0.31738-0.85352,0.375C34.99121,279.80273,34.71875,279.79688,34.45313,279.74219z"/>
		</g>
		<g>
			<path fill="#1D1D1B" d="M37.76563,279.45313l0.4209-3.8623l2.54395,0.27637l-0.07617,0.70605l-1.81738-0.19824l-0.0625,0.56934
				l1.58496,0.17285l-0.08008,0.7207l-1.58301-0.17188l-0.125,1.15039l1.76855,0.19141l-0.07813,0.71777L37.76563,279.45313z"/>
		</g>
		<g>
			<path fill="#1D1D1B" d="M42.10254,280.33203c-0.34375-0.22754-0.63379-0.55762-0.83887-0.96582l-0.06055-0.12598l0.65039-0.32324
				l0.06055,0.12402c0.15039,0.29688,0.35254,0.53906,0.58496,0.69141l0.00586,0.00391
				c0.06934,0.04492,0.1416,0.08594,0.21582,0.11719c0.12793,0.05176,0.25391,0.07227,0.36914,0.06641
				c0.14063-0.00195,0.32813-0.05469,0.41309-0.26172c0.04492-0.11133,0.02441-0.2207-0.06348-0.33789
				c-0.10645-0.14453-0.2793-0.26758-0.40625-0.34766c-0.05664-0.03516-0.5293-0.35156-0.71387-0.5791
				c-0.11816-0.16016-0.18848-0.33105-0.21777-0.50879c-0.02734-0.18066-0.00098-0.35938,0.07031-0.53516
				c0.0791-0.19336,0.2168-0.36035,0.40625-0.49023c0.16992-0.10156,0.37109-0.16016,0.58789-0.17188
				c0.2168-0.01367,0.43848,0.02441,0.65625,0.11133c0.08594,0.03516,0.17188,0.08398,0.25977,0.13086
				c0.30859,0.19531,0.57617,0.48145,0.76563,0.8418l0.06348,0.11914l-0.6416,0.3457l-0.06445-0.11914
				c-0.21875-0.40234-0.47754-0.57813-0.66016-0.65234c-0.11523-0.0459-0.23242-0.06445-0.33984-0.0625
				c-0.16797,0.00977-0.30859,0.09375-0.35742,0.21582c-0.04688,0.11035-0.03516,0.19824,0.03516,0.30273
				c0.06836,0.10449,0.19531,0.21484,0.40723,0.36035c0.02832,0.0166,0.06445,0.04492,0.10059,0.07031
				c0.19727,0.12695,0.45508,0.30273,0.60547,0.5c0.13477,0.16113,0.21484,0.33984,0.24609,0.52344s0.00586,0.37402-0.06641,0.55664
				c-0.09375,0.22656-0.23633,0.4043-0.42773,0.52832c-0.16504,0.10254-0.375,0.16504-0.62207,0.18262
				c-0.21387,0.01855-0.42773-0.02148-0.6748-0.12109C42.33398,280.47266,42.21875,280.40918,42.10254,280.33203z"/>
		</g>
		<g>
			<path fill="#1D1D1B" d="M48.70605,285.75391l3.5459-1.59375l0.53516,1.19141c0.44922,1.00098,0.01953,2.17578-0.95703,2.61523
				c-0.97656,0.43848-2.14063-0.02148-2.58984-1.02344L48.70605,285.75391z M49.89258,286.65137
				c0.28613,0.6377,1.02246,0.93066,1.64063,0.65234c0.61719-0.27637,0.8877-1.02246,0.60156-1.66016l-0.2373-0.52637
				l-2.24219,1.00586L49.89258,286.65137z"/>
		</g>
		<g>
			<path fill="#1D1D1B" d="M50.18066,289.50781l3.85254-0.56934l0.375,2.53809l-0.7041,0.10352l-0.2666-1.8125l-0.56836,0.08398
				l0.23242,1.5791l-0.71875,0.10645l-0.2334-1.58008l-1.14648,0.16992l0.25977,1.76465l-0.71387,0.10645L50.18066,289.50781z"/>
		</g>
		<g>
			<path fill="#1D1D1B" d="M50.52637,292.82031l3.8623,0.42188l-0.15039,1.38281c-0.0293,0.26563-0.15918,0.50293-0.36914,0.67188
				c-0.20996,0.16406-0.4668,0.24609-0.73242,0.2168c-0.54688-0.05957-0.9375-0.55859-0.87793-1.10547l0.07129-0.66211
				l-1.88184-0.20313L50.52637,292.82031z M52.96875,294.48633c-0.0166,0.15234,0.0957,0.28516,0.24707,0.30078
				c0.15234,0.0166,0.2959-0.09473,0.31152-0.24219l0.07227-0.66016l-0.55859-0.05957L52.96875,294.48633z"/>
		</g>
		<g>
			<path fill="#1D1D1B" d="M49.81836,296.62598l2.9707,1.09277l0.33008-0.89648l0.67676,0.24805l-0.91113,2.48047l-0.67676-0.24805
				l0.3291-0.89648l-2.97168-1.09375L49.81836,296.62598z"/>
		</g>
		<g>
			<path fill="#1D1D1B" d="M47.60254,300.70898l1.53906,1.08984l0.91113-1.29004l-1.53809-1.08887l0.42383-0.59863l3.17676,2.24902
				l-0.42383,0.59863l-1.05273-0.74609l-0.91211,1.29004l1.05273,0.74512l-0.42383,0.59766l-3.17578-2.24902L47.60254,300.70898z"/>
		</g>
	</g>
	<g>
		<path fill="#252626" d="M37.50586,211.58301c-0.18262,0-0.36426-0.00195-0.54688-0.00684
			c-11.3457-0.29883-20.33301-9.77148-20.03516-21.11719c0.29883-11.3457,9.77051-20.35547,21.11719-20.03516
			c11.3457,0.29883,20.33301,9.77148,20.03516,21.11719c-0.10156,3.84277-1.26563,7.5625-3.36719,10.75586
			c-0.22852,0.3457-0.69336,0.44141-1.03906,0.21484c-0.34668-0.22852-0.44238-0.69336-0.21484-1.03906
			c1.94824-2.95996,3.02734-6.4082,3.12109-9.9707c0.27734-10.51855-8.05566-19.30176-18.57422-19.57813
			c-0.16992-0.00488-0.34082-0.00684-0.50879-0.00684c-10.29297,0-18.79688,8.23145-19.06934,18.58105
			c-0.27734,10.51855,8.05566,19.30176,18.57422,19.57813c3.57813,0.09668,7.10254-0.8125,10.17676-2.625
			c0.35449-0.21094,0.81543-0.09082,1.02734,0.26563c0.20996,0.35645,0.09082,0.81641-0.26563,1.02734
			C44.77734,210.60645,41.18164,211.58301,37.50586,211.58301z"/>
	</g>
	<g>
		<path fill="#252626" d="M37.5,205.46289c-7.97461,0-14.46289-6.48828-14.46289-14.46289S29.52539,176.53711,37.5,176.53711
			S51.96289,183.02539,51.96289,191S45.47461,205.46289,37.5,205.46289z M37.5,178.03711
			c-7.14746,0-12.96289,5.81543-12.96289,12.96289S30.35254,203.96289,37.5,203.96289S50.46289,198.14746,50.46289,191
			S44.64746,178.03711,37.5,178.03711z"/>
	</g>
	<g>
		<g>
			<g>
				<path fill="#00BC8B" d="M20.9305,59.17439c-0.14946-0.43065,0.08256-0.90553,0.51368-1.05465l0,0
					c0.43112-0.14912,0.90595,0.08279,1.05542,0.51344l0,0c0.14892,0.43092-0.0831,0.9058-0.51422,1.05492l0,0
					c-0.08795,0.0275-0.18238,0.04422-0.27033,0.04422l0,0C21.37242,59.73232,21.04651,59.51686,20.9305,59.17439z"/>
			</g>
			<g>
				<path fill="#00BC8B" d="M20.1134,55.40218L20.1134,55.40218c-0.04964-0.45843,0.28166-0.86724,0.73491-0.91119l0,0
					c0.45325-0.04989,0.86171,0.28153,0.91189,0.73429l0,0c0.04964,0.45303-0.2822,0.86158-0.73491,0.91146l0,0
					c-0.03345,0.00539-0.06097,0.00539-0.08849,0.00539l0,0C20.51701,56.14213,20.15765,55.82743,20.1134,55.40218z"/>
			</g>
			<g>
				<path fill="#00BC8B" d="M53.59015,51.77401c-0.04964-0.45277,0.28759-0.86158,0.7403-0.9058l0,0
					c0.45325-0.04962,0.86225,0.2818,0.90649,0.74023l0,0c0.04424,0.45843-0.2876,0.86157-0.7403,0.90553l0,0
					c-0.02806,0.00566-0.05558,0.00566-0.0831,0.00566l0,0C53.99376,52.51963,53.629,52.20493,53.59015,51.77401z"/>
			</g>
			<g>
				<path fill="#00BC8B" d="M21.48843,48.53212c-0.43112-0.14912-0.65775-0.624-0.50289-1.05465l0,0
					c0.15486-0.43632,0.62969-0.65717,1.06081-0.50265l0,0c0.43112,0.14912,0.65181,0.624,0.50289,1.05492l0,0
					c-0.1214,0.34221-0.44192,0.55227-0.78455,0.55227l0,0C21.6762,48.58201,21.58231,48.56529,21.48843,48.53212z"/>
			</g>
			<g>
				<path fill="#00BC8B" d="M22.98036,45.05832c-0.38688-0.24836-0.49749-0.76207-0.24875-1.1431l0,0
					c0.24281-0.3867,0.75703-0.50266,1.14337-0.25402l0,0c0.38148,0.24297,0.49749,0.75668,0.25414,1.1431l0,0
					c-0.15972,0.24863-0.43058,0.38103-0.70145,0.38103l0,0C23.27281,45.18533,23.11849,45.14677,22.98036,45.05832z"/>
			</g>
			<g>
				<path fill="#00BC8B" d="M49.08142,42.18101c-0.32051-0.32575-0.32051-0.85052,0.01133-1.17061l0,0
					c0.32591-0.32036,0.85092-0.31497,1.17143,0.01105l0,0c0.32051,0.32576,0.31458,0.85025-0.01133,1.17061l0,0
					c-0.16025,0.16018-0.37015,0.23758-0.58005,0.23758l0,0C49.45751,42.42964,49.24168,42.34685,49.08142,42.18101z"/>
			</g>
			<g>
				<path fill="#00BC8B" d="M28.06913,39.5135c-0.23796-0.38643-0.12195-0.89447,0.27033-1.13744l0,0
					c0.38688-0.24324,0.89516-0.12162,1.13851,0.26508l0,0c0.24281,0.39209,0.1214,0.90014-0.26547,1.1431l0,0
					c-0.13813,0.08279-0.28706,0.12162-0.43652,0.12162l0,0C28.49972,39.90586,28.22939,39.76779,28.06913,39.5135z"/>
			</g>
			<g>
				<path fill="#00BC8B" d="M43.06458,38.32617c-0.43113-0.15451-0.65181-0.62939-0.49749-1.06031l0,0
					c0.15486-0.43065,0.63023-0.65178,1.06081-0.49699l0,0c0.43112,0.15452,0.65235,0.62967,0.49749,1.06032l0,0
					c-0.1214,0.33681-0.44191,0.54688-0.77915,0.54688l0,0C43.25235,38.37606,43.15847,38.35934,43.06458,38.32617z"/>
			</g>
			<g>
				<path fill="#00BC8B" d="M35.0637,36.73569c-0.04964-0.45276,0.2822-0.86157,0.73491-0.91119h0.00594
					c0.45271-0.04422,0.85631,0.28719,0.90596,0.73996l0,0c0.04424,0.45303-0.28166,0.86157-0.7403,0.9058l0,0
					c0,0,0,0,0.00539,0.00539l0,0c-0.03291,0-0.06097,0.00566-0.08849,0.00566l0,0
					C35.4673,37.48132,35.10794,37.16095,35.0637,36.73569z"/>
			</g>
			<g>
				<path fill="#00BC8B" d="M23.3667,63.17295c-0.22069,0-0.43058-0.08845-0.59084-0.24297
					c-0.03345-0.03883-0.07176-0.08305-0.09982-0.12701c-0.03291-0.04422-0.05504-0.09411-0.07716-0.14373
					s-0.03885-0.09924-0.04964-0.15452c-0.01133-0.04989-0.01673-0.1049-0.01673-0.16018c0-0.21546,0.08849-0.43092,0.24335-0.58544
					c0.03831-0.03856,0.08256-0.07173,0.1268-0.1049c0.04424-0.02777,0.09389-0.05528,0.14353-0.07173
					c0.05018-0.02211,0.10522-0.03883,0.15486-0.04988c0.27087-0.05528,0.55792,0.03316,0.74624,0.22652
					c0.15432,0.15451,0.24281,0.36998,0.24281,0.58544c0,0.22086-0.08849,0.43065-0.24281,0.58544
					c-0.03345,0.03856-0.0777,0.07173-0.12195,0.1049c-0.04424,0.0275-0.09389,0.05528-0.14353,0.07739
					c-0.04964,0.01645-0.10522,0.0329-0.15486,0.04396C23.47192,63.16729,23.41688,63.17295,23.3667,63.17295z"/>
			</g>
			<g>
				<path fill="#00BC8B" d="M18.65941,60.61034c-0.16026-0.42526,0.05504-0.9058,0.48076-1.06598l0,0
					c0.42519-0.16557,0.90595,0.04989,1.0716,0.48054l0,0c0.16026,0.42526-0.05504,0.9058-0.48076,1.06598l0,0
					c-0.09928,0.03856-0.19856,0.05528-0.29245,0.05528l0,0C19.10133,61.14616,18.78621,60.94176,18.65941,60.61034z"/>
			</g>
			<g>
				<path fill="#00BC8B" d="M17.62612,56.81078c-0.07716-0.45303,0.23202-0.87802,0.67987-0.95002l0,0
					c0.45271-0.08279,0.87843,0.22652,0.95559,0.67389l0,0c0.07716,0.45277-0.22662,0.87803-0.67933,0.95542l0,0
					c-0.04425,0.01106-0.09443,0.01106-0.13813,0.01106l0,0C18.04591,57.50113,17.69788,57.21933,17.62612,56.81078z"/>
			</g>
			<g>
				<path fill="#00BC8B" d="M18.15652,53.73447c-0.45864-0.01079-0.81746-0.39209-0.80667-0.84486l0,0
					c0.01079-0.45843,0.39227-0.82274,0.84552-0.80629l0,0c0.45864,0.00539,0.81746,0.3867,0.81207,0.84486l0,0
					c-0.01079,0.45303-0.38148,0.80629-0.82879,0.80629l0,0C18.17325,53.73447,18.16192,53.73447,18.15652,53.73447z"/>
			</g>
			<g>
				<path fill="#00BC8B" d="M18.45491,49.97374c-0.44731-0.09951-0.72951-0.54121-0.62969-0.98859l0,0
					c0.09928-0.44737,0.5412-0.72917,0.98905-0.62966l0,0c0.44731,0.0995,0.72897,0.54121,0.62969,0.98292l0,0
					c-0.08849,0.3867-0.43112,0.65178-0.80667,0.65178l0,0C18.57632,49.99019,18.51588,49.98479,18.45491,49.97374z"/>
			</g>
			<g>
				<path fill="#00BC8B" d="M55.38898,46.33792c-0.18238-0.42526,0.01619-0.91119,0.44191-1.08809l0,0
					c0.41979-0.17663,0.90595,0.02211,1.08294,0.44198l0,0c0.17698,0.4196-0.02212,0.90553-0.44191,1.08243l0,0
					c-0.10522,0.04422-0.21583,0.06634-0.32051,0.06634l0,0C55.8255,46.84058,55.52117,46.65262,55.38898,46.33792z"/>
			</g>
			<g>
				<path fill="#00BC8B" d="M21.18464,42.96519c-0.37609-0.26508-0.46997-0.77851-0.2045-1.15416l0,0
					c0.25954-0.37537,0.77915-0.46382,1.1547-0.20441l0,0c0.37555,0.25969,0.46404,0.7734,0.2045,1.15443l0,0
					c-0.16026,0.22625-0.42033,0.35326-0.67987,0.35326l0,0C21.49382,43.11431,21.32817,43.06469,21.18464,42.96519z"/>
			</g>
			<g>
				<path fill="#00BC8B" d="M23.51077,39.98864c-0.32051-0.33142-0.30972-0.85618,0.01619-1.17627l0,0
					c0.33184-0.31497,0.85685-0.30391,1.17682,0.02184l0,0c0.31511,0.32602,0.30972,0.85052-0.02212,1.17088l0,0
					c-0.15971,0.15479-0.37015,0.23191-0.57411,0.23191l0,0C23.89171,40.237,23.67102,40.15422,23.51077,39.98864z"/>
			</g>
			<g>
				<path fill="#00BC8B" d="M48.02601,37.91763c-0.38094-0.25969-0.48022-0.77312-0.22609-1.14877l0,0
					c0.25414-0.38103,0.76782-0.48593,1.1493-0.22652l0,0c0.38094,0.25402,0.48023,0.76773,0.22609,1.14877l0,0
					c-0.16026,0.23757-0.41979,0.36459-0.68473,0.36459l0,0C48.33033,38.0557,48.17007,38.01147,48.02601,37.91763z"/>
			</g>
			<g>
				<path fill="#00BC8B" d="M29.64363,35.63115c-0.17105-0.42526,0.03885-0.91119,0.45864-1.07703l0,0
					c0.43113-0.17097,0.91189,0.03317,1.08294,0.45843l0,0c0.16565,0.42526-0.03885,0.91119-0.46404,1.07703l0,0
					c-0.09982,0.04423-0.2045,0.06068-0.30378,0.06068l0,0C30.08554,36.15026,29.77636,35.95152,29.64363,35.63115z"/>
			</g>
			<g>
				<path fill="#00BC8B" d="M41.39026,35.13956c-0.44731-0.09384-0.73491-0.53016-0.64642-0.97753l0,0
					c0.08849-0.44737,0.52501-0.73429,0.97826-0.64611l0,0c0.44731,0.08845,0.73491,0.53016,0.64642,0.97753l0,0
					c-0.08309,0.39209-0.42573,0.66283-0.8126,0.66283l0,0C41.50088,35.15628,41.44584,35.15062,41.39026,35.13956z"/>
			</g>
			<g>
				<path fill="#00BC8B" d="M21.1404,64.56469c-0.05558,0-0.11061-0.00567-0.16025-0.01672
					c-0.05558-0.01105-0.11061-0.02211-0.16026-0.04423c-0.04964-0.02184-0.09389-0.04961-0.13813-0.07712
					c-0.04964-0.02778-0.09389-0.06634-0.12734-0.1049c-0.15486-0.15479-0.24281-0.36458-0.24281-0.58544
					c0-0.05528,0.0054-0.1049,0.01619-0.16018c0.00593-0.05528,0.02212-0.1049,0.04424-0.15479
					c0.02212-0.04962,0.04964-0.09924,0.0777-0.14346c0.02752-0.04422,0.06637-0.08845,0.10468-0.12701
					c0.03345-0.03856,0.0777-0.07173,0.12734-0.09951c0.04424-0.03317,0.08849-0.06067,0.13813-0.07712
					c0.04964-0.02211,0.10468-0.03883,0.16026-0.04989c0.26493-0.05528,0.55253,0.03317,0.7457,0.22652
					c0.03885,0.03856,0.07176,0.08279,0.09928,0.12701c0.03345,0.04423,0.05558,0.09385,0.0777,0.14346
					c0.02212,0.04988,0.03831,0.09951,0.04964,0.15479c0.01079,0.05528,0.01673,0.1049,0.01673,0.16018
					c0,0.22086-0.08849,0.43065-0.24335,0.58544C21.57098,64.47623,21.35569,64.56469,21.1404,64.56469z"/>
			</g>
		</g>
		<g>
			<g>
				<path fill="#FF4257" d="M52.21077,63.80828c-0.05558,0-0.10522-0.00539-0.16026-0.01645s-0.10522-0.02211-0.15486-0.04423
					c-0.04964-0.02211-0.09928-0.04962-0.14353-0.07739c-0.04424-0.0275-0.08849-0.06634-0.12734-0.1049
					c-0.15432-0.15452-0.24281-0.36459-0.24281-0.58544c0-0.21546,0.08849-0.43065,0.24281-0.58544
					c0.03885-0.03856,0.0831-0.07173,0.12734-0.1049c0.04425-0.0275,0.09389-0.05528,0.14353-0.07173
					c0.04964-0.02211,0.09982-0.03856,0.15486-0.04962c0.27087-0.04988,0.55792,0.03856,0.7457,0.22625
					c0.15486,0.15479,0.24335,0.36998,0.24335,0.58544c0,0.22086-0.08849,0.43092-0.24335,0.58544
					C52.64189,63.71983,52.43145,63.80828,52.21077,63.80828z"/>
			</g>
			<g>
				<path fill="#FF4257" d="M53.7318,59.85923c-0.43112-0.15479-0.65181-0.62967-0.49749-1.06059l0,0
					c0.15486-0.43065,0.63023-0.65151,1.06081-0.49699l0,0c0.43112,0.15479,0.65235,0.63506,0.4921,1.06031h0.00539
					c-0.12141,0.33708-0.44191,0.54688-0.77915,0.54688l0,0C53.91957,59.90885,53.82569,59.89213,53.7318,59.85923z"/>
			</g>
			<g>
				<path fill="#FF4257" d="M54.79517,56.58718c-0.44785-0.05528-0.77376-0.46949-0.71872-0.92764l0,0
					c0.05558-0.45303,0.46997-0.77879,0.92322-0.71811l0,0c0.45271,0.05528,0.77861,0.46382,0.72358,0.92225l0,0
					c-0.05504,0.41986-0.409,0.72917-0.8234,0.72917l0,0C54.86694,56.59284,54.83348,56.58718,54.79517,56.58718z"/>
			</g>
			<g>
				<path fill="#FF4257" d="M21.21356,52.70758c-0.4581-0.05501-0.77861-0.46922-0.72897-0.92225l0,0
					c0.05504-0.45277,0.46404-0.77879,0.91728-0.7289l0,0c0.45864,0.05528,0.78455,0.46382,0.72897,0.92225l0,0
					c-0.04964,0.4196-0.40846,0.73456-0.82286,0.73456l0,0C21.27453,52.71325,21.24162,52.70758,21.21356,52.70758z"/>
			</g>
			<g>
				<path fill="#FF4257" d="M53.22733,48.70929c-0.14893-0.43092,0.08849-0.90014,0.51962-1.04926l0,0
					c0.43058-0.14912,0.90055,0.08818,1.04948,0.5191l0,0c0.14946,0.43065-0.08256,0.90014-0.51908,1.04926l0,0
					c-0.08849,0.03317-0.17698,0.04422-0.26547,0.04422l0,0C53.66925,49.27261,53.34334,49.05715,53.22733,48.70929z"/>
			</g>
			<g>
				<path fill="#FF4257" d="M51.69709,45.462c-0.23796-0.39236-0.11601-0.9058,0.27033-1.14337l0,0
					c0.39227-0.2373,0.90056-0.11596,1.13851,0.27074h0.00539c0.23742,0.38643,0.11601,0.90014-0.27087,1.13771l0,0
					c-0.13813,0.08818-0.28706,0.12701-0.43652,0.12701l0,0C52.12767,45.85409,51.85734,45.71602,51.69709,45.462z"/>
			</g>
			<g>
				<path fill="#FF4257" d="M25.61761,42.45201c-0.32591-0.32575-0.32051-0.85052,0.0054-1.17088l0,0
					c0.3259-0.32575,0.85092-0.32036,1.17143,0.00566l0,0c0.32051,0.32575,0.32051,0.85052-0.0054,1.17061l0,0
					c-0.16026,0.16018-0.37609,0.23757-0.58598,0.23757l0,0C25.99315,42.69498,25.77786,42.61219,25.61761,42.45201z"/>
			</g>
			<g>
				<path fill="#FF4257" d="M46.69087,40.36455c-0.38688-0.24863-0.49695-0.76234-0.24874-1.14877l0,0
					c0.24335-0.38103,0.75703-0.49726,1.14391-0.24863l0,0c0.38148,0.24863,0.49749,0.76207,0.24874,1.1431l0,0
					c-0.16026,0.24863-0.42573,0.3813-0.69606,0.3813l0,0C46.98386,40.49156,46.829,40.45273,46.69087,40.36455z"/>
			</g>
			<g>
				<path fill="#FF4257" d="M31.80604,38.17731c-0.14407-0.43605,0.08256-0.90553,0.51908-1.05465l0,0
					c0.43112-0.14912,0.90055,0.08818,1.05002,0.5191l0,0c0.14893,0.43065-0.0831,0.90014-0.51422,1.04926l0,0
					c-0.08795,0.03317-0.18238,0.04422-0.27033,0.04422l0,0C32.24796,38.73524,31.92205,38.51978,31.80604,38.17731z"/>
			</g>
			<g>
				<path fill="#FF4257" d="M39.96663,37.95107c-0.45325-0.05528-0.77915-0.46949-0.72358-0.92225l0,0
					c0.05504-0.45303,0.46404-0.77879,0.92268-0.72351l0,0c0.45271,0.05528,0.77916,0.46382,0.72358,0.92225l0,0
					c-0.04964,0.41959-0.409,0.7289-0.82339,0.7289l0,0C40.033,37.95646,39.99955,37.95107,39.96663,37.95107z"/>
			</g>
			<g>
				<path fill="#FF4257" d="M54.41549,65.23318c-0.21583,0-0.43113-0.08845-0.58598-0.24297
					c-0.03831-0.03883-0.07177-0.08279-0.09928-0.12701c-0.03345-0.04422-0.05558-0.09384-0.07716-0.14373
					c-0.02213-0.04961-0.03885-0.09924-0.05018-0.15452c-0.01079-0.05527-0.01619-0.1049-0.01619-0.16018
					c0-0.22086,0.08795-0.43631,0.24281-0.58544c0.19371-0.19335,0.48077-0.28153,0.75163-0.23191
					c0.04964,0.01105,0.10468,0.02751,0.15486,0.04962c0.04964,0.02211,0.09389,0.04422,0.14353,0.07739
					c0.04424,0.02751,0.08849,0.06634,0.1214,0.1049c0.15486,0.14912,0.24335,0.36458,0.24335,0.58544
					c0,0.05528-0.00594,0.1049-0.01673,0.16018c-0.00539,0.05528-0.02212,0.1049-0.04424,0.15452
					c-0.02213,0.04989-0.04964,0.09951-0.07716,0.14373c-0.02806,0.04423-0.06637,0.08818-0.10522,0.12701
					c-0.03291,0.03856-0.07716,0.07173-0.1214,0.09924c-0.04964,0.03316-0.09389,0.05528-0.14353,0.07739
					c-0.05018,0.02211-0.10522,0.03883-0.15486,0.04989C54.52556,65.22752,54.47052,65.23318,54.41549,65.23318z"/>
			</g>
			<g>
				<path fill="#FF4257" d="M55.84105,61.82005c-0.42573-0.17124-0.63023-0.65151-0.45864-1.07677l0,0
					c0.16565-0.42526,0.64642-0.63506,1.0716-0.46409l0,0c0.42573,0.17124,0.63562,0.65178,0.46404,1.07704l0,0
					c-0.1268,0.32575-0.44191,0.5191-0.76782,0.5191l0,0C56.04501,61.87533,55.94573,61.85888,55.84105,61.82005z"/>
			</g>
			<g>
				<path fill="#FF4257" d="M57.04539,58.23595c-0.44785-0.08279-0.74624-0.51371-0.66314-0.96647l0,0
					c0.0831-0.44737,0.51368-0.74562,0.96693-0.66283l0,0c0.44785,0.08279,0.7457,0.51371,0.66314,0.96647l0,0
					c-0.07177,0.39775-0.4198,0.67928-0.818,0.67928l0,0C57.14468,58.2524,57.09504,58.24701,57.04539,58.23595z"/>
			</g>
			<g>
				<path fill="#FF4257" d="M56.69197,53.66866c0-0.45843,0.36422-0.8284,0.82286-0.83407l0,0
					c0.45864-0.00539,0.83473,0.35919,0.83473,0.81735l0,0c0.0054,0.45843-0.35936,0.83407-0.818,0.83407l0,0
					c-0.0054,0-0.01079,0-0.01079,0l0,0C57.06752,54.48602,56.69736,54.12143,56.69197,53.66866z"/>
			</g>
			<g>
				<path fill="#FF4257" d="M56.31049,50.07324c-0.08849-0.44737,0.1991-0.88342,0.64642-0.97753l0,0
					c0.44731-0.08818,0.88383,0.19901,0.97826,0.64639l0,0c0.09388,0.4471-0.19371,0.88342-0.64696,0.97753l0,0
					c-0.05504,0.01079-0.11007,0.01645-0.16565,0.01645l0,0C56.73568,50.73608,56.39358,50.46533,56.31049,50.07324z"/>
			</g>
			<g>
				<path fill="#FF4257" d="M19.31882,46.52948c-0.41979-0.18769-0.60757-0.67362-0.42519-1.09349l0,0
					c0.18238-0.41959,0.67393-0.60755,1.08833-0.42526l0,0c0.41979,0.18795,0.6135,0.67389,0.42573,1.09349l0,0l0,0l0,0
					c-0.13274,0.3093-0.43652,0.49726-0.75703,0.49726l0,0C19.54005,46.60148,19.42404,46.57937,19.31882,46.52948z"/>
			</g>
			<g>
				<path fill="#FF4257" d="M53.52032,43.446c-0.25414-0.38103-0.15486-0.89447,0.22662-1.1485l0,0
					c0.38094-0.25429,0.89462-0.16018,1.1493,0.22086l0,0c0.25414,0.38103,0.15432,0.89447-0.22662,1.14877l0,0
					c-0.13813,0.09924-0.30433,0.14346-0.45864,0.14346l0,0C53.94012,43.81058,53.68058,43.68357,53.52032,43.446z"/>
			</g>
			<g>
				<path fill="#FF4257" d="M51.22172,40.65714c-0.32591-0.32036-0.32591-0.84485,0-1.17088l0,0
					c0.32051-0.32576,0.84552-0.32576,1.17142,0l0,0c0.32051,0.32036,0.32051,0.84512,0,1.17088l0,0
					c-0.16565,0.16018-0.37609,0.24297-0.58598,0.24297l0,0C51.59187,40.9001,51.38197,40.81732,51.22172,40.65714z"/>
			</g>
			<g>
				<path fill="#FF4257" d="M26.76691,37.96212c-0.24875-0.3867-0.14407-0.90041,0.24281-1.14877l0,0
					c0.38148-0.24863,0.89516-0.13807,1.14391,0.24297l0,0c0.25414,0.3867,0.14353,0.89474-0.24335,1.14877l0,0
					c-0.13813,0.08845-0.29245,0.1324-0.44731,0.1324l0,0C27.1921,38.33749,26.92123,38.20509,26.76691,37.96212z"/>
			</g>
			<g>
				<path fill="#FF4257" d="M45.24318,36.64751c-0.41979-0.17663-0.62429-0.66256-0.44731-1.08243l0,0
					c0.18238-0.4196,0.66314-0.61834,1.08833-0.44171l0,0C46.304,35.3,46.5031,35.7862,46.32612,36.2058l0,0
					c-0.1322,0.3147-0.43652,0.50805-0.76242,0.50805l0,0C45.45901,36.71385,45.3484,36.69174,45.24318,36.64751z"/>
			</g>
			<g>
				<path fill="#FF4257" d="M33.62388,34.86935c-0.0831-0.45276,0.21529-0.88369,0.6626-0.96647l0,0
					c0.44785-0.08279,0.88437,0.2098,0.96693,0.66283l0,0c0.0831,0.4471-0.2099,0.87802-0.66261,0.96647l0,0
					c-0.05018,0.00539-0.09982,0.01078-0.15486,0.01078l0,0C34.04907,35.54297,33.70104,35.26683,33.62388,34.86935z"/>
			</g>
			<g>
				<path fill="#FF4257" d="M38.19304,35.21182L38.19304,35.21182L38.19304,35.21182c-0.45864,0-0.8288-0.37564-0.8234-0.83407l0,0
					c0.00539-0.45843,0.37609-0.82274,0.83419-0.82274l0,0c0.45864,0.00539,0.82879,0.38103,0.82339,0.8338l0,0
					c-0.00539,0.45304-0.37015,0.82301-0.82339,0.82301l0,0C38.19843,35.21182,38.19843,35.21182,38.19304,35.21182z"/>
			</g>
		</g>
		<g>
			<path fill="#E5E5E5" d="M49.55888,67.03342C46.51067,70.08163,42.29961,71.967,37.6482,71.967
				c-4.65142,0-8.86249-1.88537-11.9107-4.93359"/>
			<path fill="#262626" d="M37.64844,72.79492c-4.7207,0-9.15918-1.83789-12.49707-5.17578
				c-0.32324-0.32324-0.32324-0.84863,0-1.17188c0.32422-0.32227,0.84766-0.32227,1.17188,0
				c3.02441,3.02539,7.04688,4.69141,11.3252,4.69141s8.30078-1.66602,11.32422-4.69141c0.32422-0.32227,0.84766-0.32422,1.17188,0
				c0.32324,0.32324,0.32324,0.84766,0,1.17188C46.80762,70.95703,42.37012,72.79492,37.64844,72.79492z"/>
		</g>
	</g>
	<g id="XMLID_108_">
		<g>
			<g>
				<g>
					<polyline fill="none" stroke="#262626" stroke-width="1.65681" stroke-linejoin="round" stroke-miterlimit="10" points="
						25.58935,340.41068 37.50004,328.5 49.41072,340.41068 					"/>
					<circle fill="#E5E5E5" cx="37.50004" cy="328.5" r="16.84424"/>
					
						<path fill="#E5E5E5" stroke="#262626" stroke-width="1.65681" stroke-linecap="round" stroke-linejoin="round" stroke-miterlimit="10" d="
						M51.65759,337.63022c1.69995-2.63058,2.68671-5.76517,2.68671-9.13022c0-9.30283-7.54143-16.84427-16.84425-16.84427
						S20.65579,319.19717,20.65579,328.5c0,3.28491,0.94032,6.35022,2.56648,8.94144"/>
					
						<path fill="#E5E5E5" stroke="#262626" stroke-width="1.65681" stroke-linecap="round" stroke-linejoin="round" stroke-miterlimit="10" d="
						M25.58934,340.41064c3.04821,3.04822,7.25928,4.93359,11.9107,4.93359c4.65141,0,8.86248-1.88535,11.91069-4.93356"/>
				</g>
			</g>
		</g>
	</g>
	<g>
		<path fill="#252626" d="M37.48145,90.78711c-0.41406,0-0.75-0.33594-0.75-0.75V72.15723c0-0.41406,0.33594-0.75,0.75-0.75
			s0.75,0.33594,0.75,0.75v17.87988C38.23145,90.45117,37.89551,90.78711,37.48145,90.78711z"/>
	</g>
	<g>
		<g>
			<path fill="#252626" d="M20.66016,172.95996c0-0.45996,0.36914-0.83008,0.83008-0.83008l0,0
				c0.44922,0,0.81934,0.37012,0.81934,0.83008l0,0c0,0.45996-0.37012,0.83008-0.81934,0.83008l0,0
				C21.0293,173.79004,20.66016,173.41992,20.66016,172.95996z M20.66016,169.29004c0-0.4502,0.36914-0.83008,0.83008-0.83008l0,0
				c0.44922,0,0.81934,0.37988,0.81934,0.83008l0,0c0,0.45996-0.37012,0.83008-0.81934,0.83008l0,0
				C21.0293,170.12012,20.66016,169.75,20.66016,169.29004z M20.66016,165.62988c0-0.45996,0.36914-0.83008,0.83008-0.83008l0,0
				c0.44922,0,0.81934,0.37012,0.81934,0.83008l0,0c0,0.4502-0.37012,0.82031-0.81934,0.82031l0,0
				C21.0293,166.4502,20.66016,166.08008,20.66016,165.62988z M20.66016,161.95996c0-0.45996,0.36914-0.83008,0.83008-0.83008l0,0
				c0.44922,0,0.81934,0.37012,0.81934,0.83008l0,0c0,0.45996-0.37012,0.83008-0.81934,0.83008l0,0
				C21.0293,162.79004,20.66016,162.41992,20.66016,161.95996z M20.66016,158.29004c0-0.45996,0.36914-0.83008,0.83008-0.83008l0,0
				c0.44922,0,0.81934,0.37012,0.81934,0.83008l0,0c0,0.45996-0.37012,0.83008-0.81934,0.83008l0,0
				C21.0293,159.12012,20.66016,158.75,20.66016,158.29004z M20.66016,154.62988c0-0.45996,0.36914-0.83008,0.83008-0.83008l0,0
				c0.44922,0,0.81934,0.37012,0.81934,0.83008l0,0c0,0.4502-0.37012,0.82031-0.81934,0.82031l0,0
				C21.0293,155.4502,20.66016,155.08008,20.66016,154.62988z M20.66016,150.95996c0-0.45996,0.36914-0.83008,0.83008-0.83008l0,0
				c0.44922,0,0.81934,0.37012,0.81934,0.83008l0,0c0,0.4502-0.37012,0.82031-0.81934,0.82031l0,0
				C21.0293,151.78027,20.66016,151.41016,20.66016,150.95996z M20.66016,147.29004c0-0.45996,0.36914-0.83008,0.83008-0.83008l0,0
				c0.44922,0,0.81934,0.37012,0.81934,0.83008l0,0c0,0.45996-0.37012,0.83008-0.81934,0.83008l0,0
				C21.0293,148.12012,20.66016,147.75,20.66016,147.29004z M20.66016,143.62012c0-0.45996,0.36914-0.83008,0.83008-0.83008l0,0
				c0.44922,0,0.81934,0.37012,0.81934,0.83008l0,0c0,0.45996-0.37012,0.83008-0.81934,0.83008l0,0
				C21.0293,144.4502,20.66016,144.08008,20.66016,143.62012z M20.66016,139.9502c0-0.4502,0.36914-0.82031,0.83008-0.82031l0,0
				c0.44922,0,0.81934,0.37012,0.81934,0.82031l0,0c0,0.45996-0.37012,0.83008-0.81934,0.83008l0,0
				C21.0293,140.78027,20.66016,140.41016,20.66016,139.9502z M20.66016,112.69094c0-0.46094,0.36914-0.83008,0.83008-0.83008l0,0
				c0.44922,0,0.81934,0.36914,0.81934,0.83008l0,0c0,0.45996-0.37012,0.8291-0.81934,0.8291l0,0
				C21.0293,113.52004,20.66016,113.1509,20.66016,112.69094z M21.45996,110.43945c-0.45996-0.04004-0.7998-0.44922-0.75-0.89941
				l0,0c0.04004-0.45996,0.4502-0.79004,0.89941-0.75l0,0c0.45996,0.0498,0.79004,0.4502,0.75,0.91016l0,0
				c-0.04004,0.42969-0.39941,0.75-0.81934,0.75l0,0C21.50977,110.4502,21.47949,110.43945,21.45996,110.43945z M22.16016,106.84961
				c-0.41992-0.2002-0.59082-0.7002-0.39063-1.10938l0,0c0,0,0,0,0,0.00977l0,0c0.2002-0.41992,0.7002-0.58984,1.11035-0.39063l0,0
				c0.41016,0.19043,0.58008,0.69043,0.37988,1.10059v0.00977c-0.13965,0.29004-0.44043,0.45996-0.74023,0.45996l0,0
				C22.39941,106.92969,22.26953,106.91016,22.16016,106.84961z M24.06934,103.74023
				c-0.3291-0.32031-0.3291-0.85059-0.00977-1.18066l0,0c0.32031-0.31934,0.83984-0.33008,1.16992-0.00977l0,0
				c0.33008,0.32031,0.33008,0.84961,0.01074,1.16992l0,0c-0.16016,0.16992-0.38086,0.25-0.59082,0.25l0,0
				C24.43945,103.96973,24.22949,103.88965,24.06934,103.74023z M26.63965,101.10938
				c-0.33008-0.31934-0.33984-0.83984-0.01953-1.16992l0,0c0.31934-0.31934,0.84961-0.33008,1.17969-0.00977l0,0
				c0.32031,0.32031,0.33008,0.85059,0.00977,1.16992l0,0c-0.16016,0.16992-0.37988,0.25-0.58984,0.25l0,0
				C27.00977,101.34961,26.7998,101.26953,26.63965,101.10938z M29.2002,98.5c-0.33008-0.33008-0.33008-0.85059-0.01074-1.18066l0,0
				c0.32031-0.3291,0.83984-0.3291,1.16992-0.00977l0,0c0.33008,0.32031,0.33008,0.83984,0.01074,1.16992l0,0
				c-0.16016,0.16992-0.37012,0.25-0.59082,0.25l0,0C29.56934,98.72949,29.35938,98.64941,29.2002,98.5z M31.76953,95.87012
				c-0.33008-0.32031-0.33984-0.83984-0.00977-1.16992l0,0c0.32031-0.33008,0.83984-0.33008,1.16992-0.01074l0,0
				c0.32031,0.32031,0.33008,0.84082,0.00977,1.16992l0,0c-0.16016,0.1709-0.37988,0.25-0.58984,0.25l0,0
				C32.13965,96.10938,31.92969,96.03027,31.76953,95.87012z M34.33008,93.25C34.00977,92.92969,34,92.41016,34.31934,92.08008l0,0
				c0.32031-0.33008,0.85059-0.33008,1.1709-0.01074l0,0c0.3291,0.32031,0.33984,0.84082,0.01953,1.1709l0,0
				c-0.16992,0.15918-0.37988,0.25-0.59961,0.25l0,0C34.7002,93.49023,34.49023,93.41016,34.33008,93.25z"/>
		</g>
		<g>
			<path fill="#252626" d="M37.47949,90.87012c-0.10938,0-0.21973-0.02051-0.31934-0.07031
				c-0.10059-0.04004-0.19043-0.09961-0.26074-0.17969c-0.08008-0.08008-0.13965-0.16992-0.17969-0.27051
				c-0.0498-0.09961-0.07031-0.2002-0.07031-0.30957c0-0.11035,0.02051-0.2207,0.07031-0.32031
				c0.04004-0.09961,0.09961-0.18945,0.17969-0.26953c0.07031-0.08008,0.16016-0.14063,0.26074-0.18066
				c0.30957-0.12012,0.67969-0.0498,0.89941,0.18066c0.08008,0.08008,0.14063,0.16992,0.19043,0.26953
				c0.04004,0.09961,0.05957,0.20996,0.05957,0.32031c0,0.10938-0.01953,0.20996-0.05957,0.30957
				c-0.0498,0.10059-0.11035,0.19043-0.19043,0.27051c-0.06934,0.08008-0.16016,0.13965-0.25977,0.17969
				C37.7002,90.84961,37.58984,90.87012,37.47949,90.87012z"/>
		</g>
	</g>
	<g>
		<path fill="#252626" d="M37.5,312.40527c-0.41406,0-0.75-0.33594-0.75-0.75v-19.41016c0-0.19922,0.0791-0.38965,0.21973-0.53027
			l12.93359-12.93359c1.81934-1.81934,2.82129-4.23926,2.82129-6.8125V211.6084c0-2.79395-1.08887-5.41895-3.06543-7.39355
			l-2.99316-2.9873c-0.29297-0.29297-0.29297-0.76758-0.00098-1.06152c0.29199-0.29199,0.76758-0.29297,1.06152-0.00098
			l2.99316,2.98926c2.25977,2.25684,3.50488,5.25977,3.50488,8.4541v60.36035c0,2.97461-1.1582,5.77051-3.26074,7.87305
			L38.25,292.55566v19.09961C38.25,312.06934,37.91406,312.40527,37.5,312.40527z"/>
	</g>
	<g>
		<path fill="#252626" d="M21.4873,235.25c-0.19238,0-0.38379-0.07324-0.53027-0.21973c-0.29297-0.29297-0.29297-0.76855,0-1.06055
			l11.77637-11.76172c2.58984-2.58887,4.0166-6.03027,4.0166-9.69043v-7.80469c0-0.41406,0.33594-0.75,0.75-0.75
			s0.75,0.33594,0.75,0.75v7.80469c0,4.06152-1.58301,7.87988-4.45605,10.75098l-11.77637,11.76172
			C21.87109,235.17676,21.67871,235.25,21.4873,235.25z"/>
	</g>
	<g>
		<path fill="#252626" d="M37.48145,178.03711c-0.41406,0-0.75-0.33594-0.75-0.75v-7.80469
			c0-4.06152,1.58301-7.87988,4.45605-10.75098l11.77637-11.76172c0.29297-0.29395,0.76758-0.29199,1.06055,0
			c0.29297,0.29297,0.29297,0.76855,0,1.06055l-11.77637,11.76172c-2.58984,2.58887-4.0166,6.03027-4.0166,9.69043v7.80469
			C38.23145,177.70117,37.89551,178.03711,37.48145,178.03711z"/>
	</g>
	<g>
		<path fill="#FF4257" d="M37.5,202.54102c-0.45801,0-0.82813-0.37012-0.82813-0.82813v-21.42578
			c0-0.45801,0.37012-0.82813,0.82813-0.82813s0.82813,0.37012,0.82813,0.82813v21.42578
			C38.32813,202.1709,37.95801,202.54102,37.5,202.54102z"/>
	</g>
	<g>
		<path fill="#00BC8B" d="M33.5,201.94824c-0.45801,0-0.82813-0.37012-0.82813-0.82813v-20.23926
			c0-0.45801,0.37012-0.82813,0.82813-0.82813s0.82813,0.37012,0.82813,0.82813v20.23926
			C34.32813,201.57813,33.95801,201.94824,33.5,201.94824z"/>
	</g>
</g>
</svg>
