<?xml version="1.0" encoding="utf-8"?>
<!-- Generator: Adobe Illustrator 23.0.3, SVG Export Plug-In . SVG Version: 6.00 Build 0)  -->
<svg version="1.0" id="Layer_1" xmlns="http://www.w3.org/2000/svg" xmlns:xlink="http://www.w3.org/1999/xlink" x="0px" y="0px"
	 viewBox="0 0 165 380" enable-background="new 0 0 165 380" xml:space="preserve">
<title>Pulsars-WL</title>
<rect fill="#E5E5E5" width="165" height="380"/>
<g>
	<g>
		<circle fill="#BCBCBC" cx="23" cy="7" r="5.73633"/>
		<path fill="#808080" d="M23,1.52747c3.02239-0.00002,5.47255,2.4501,5.47257,5.47249
			c0.00002,3.02239-2.4501,5.47255-5.47249,5.47257s-5.47255-2.4501-5.47257-5.47249c0-0.00001,0-0.00003,0-0.00004
			C17.53093,3.97904,19.97904,1.53091,23,1.52747 M23,1c-3.31371,0-6,2.68629-6,6s2.68629,6,6,6s6-2.68629,6-6S26.31371,1,23,1z"/>
	</g>
	<polygon fill="#6E6E6E" points="26.495,6.341 23.659,6.341 23.659,3.505 22.341,3.505 22.341,6.341 19.506,6.341 19.506,7.659 
		22.341,7.659 22.341,10.495 23.659,10.495 23.659,7.659 26.495,7.659 	"/>
</g>
<g>
	<g>
		<circle fill="#BCBCBC" cx="142" cy="7" r="5.73633"/>
		<path fill="#808080" d="M142,1.52747c3.0224-0.00002,5.47255,2.45009,5.47256,5.47249
			c0.00003,3.02239-2.45009,5.47255-5.47249,5.47257c-3.02238,0.00002-5.47253-2.45009-5.47256-5.47249
			c0-0.00001,0-0.00003,0-0.00004C136.53093,3.97904,138.97903,1.53092,142,1.52747 M142,1c-3.31371,0-6,2.68629-6,6s2.68629,6,6,6
			s6-2.68629,6-6S145.31371,1,142,1z"/>
	</g>
	<polygon fill="#6E6E6E" points="145.495,6.341 142.659,6.341 142.659,3.505 141.341,3.505 141.341,6.341 138.506,6.341 
		138.506,7.659 141.341,7.659 141.341,10.495 142.659,10.495 142.659,7.659 145.495,7.659 	"/>
</g>
<g>
	<g>
		<circle fill="#BCBCBC" cx="23" cy="373" r="5.73633"/>
		<path fill="#808080" d="M23,367.52747c3.02239-0.00003,5.47255,2.4501,5.47257,5.4725
			c0.00002,3.02237-2.4501,5.47253-5.47249,5.47256c-3.0224,0-5.47255-2.4501-5.47257-5.4725V373
			C17.53092,369.97903,19.97904,367.53091,23,367.52747 M23,367c-3.31371,0-6,2.68628-6,6s2.68629,6,6,6s6-2.68628,6-6
			S26.31371,367,23,367z"/>
	</g>
	<polygon fill="#6E6E6E" points="26.495,372.341 23.659,372.341 23.659,369.505 22.341,369.505 22.341,372.341 19.506,372.341 
		19.506,373.659 22.341,373.659 22.341,376.495 23.659,376.495 23.659,373.659 26.495,373.659 	"/>
</g>
<g>
	<g>
		<circle fill="#BCBCBC" cx="142" cy="373" r="5.73633"/>
		<path fill="#808080" d="M142,367.52747c3.0224-0.00003,5.47255,2.4501,5.47256,5.47247
			c0.00003,3.0224-2.45009,5.47256-5.47249,5.4726c-3.02238,0-5.47253-2.4501-5.47256-5.4725V373
			C136.53093,369.97903,138.97903,367.53091,142,367.52747 M142,367c-3.31371,0-6,2.68628-6,6s2.68629,6,6,6s6-2.68628,6-6
			S145.31371,367,142,367z"/>
	</g>
	<polygon fill="#6E6E6E" points="145.495,372.341 142.659,372.341 142.659,369.505 141.341,369.505 141.341,372.341 
		138.506,372.341 138.506,373.659 141.341,373.659 141.341,376.495 142.659,376.495 142.659,373.659 145.495,373.659 	"/>
</g>
<g>
	<path fill="#FF4257" d="M149.565,224.43457c-0.45689-0.00371-0.82637-0.37318-0.83008-0.83008
		c-0.0011-0.1104,0.02295-0.2196,0.07031-0.31934c0.0878-0.19554,0.24411-0.3522,0.43945-0.44043
		c0.31184-0.1293,0.67085-0.05843,0.91016,0.17969c0.15181,0.1552,0.23785,0.36299,0.24023,0.58008
		c0.00537,0.45306-0.35756,0.82471-0.81062,0.83008C149.57797,224.43465,149.57149,224.43465,149.565,224.43457z"/>
	<path fill="#FF4257" d="M147.92969,219.67969h0.00977c-0.12198-0.44063,0.13635-0.8967,0.57698-1.01868
		c0.00102-0.00029,0.00206-0.00058,0.0031-0.00085l0,0c0.44148-0.11421,0.8924,0.1492,1.00977,0.58984h0.0107
		c0.11276,0.44128-0.15007,0.89125-0.58984,1.00977l0,0c-0.06821,0.02002-0.13892,0.03021-0.21001,0.03027l0,0
		C148.36314,220.293,148.03098,220.04285,147.92969,219.67969z M146.90353,215.41992
		c-0.16887-0.42255,0.03122-0.90256,0.4502-1.08008l0,0c0.41577-0.1783,0.89738,0.01421,1.07568,0.42998
		c0.0015,0.00348,0.00296,0.00696,0.00439,0.01045l0,0c0.17786,0.42259-0.01891,0.90948-0.44043,1.08984l0,0
		c-0.10196,0.03905-0.21016,0.05923-0.31934,0.05957l0,0C147.33804,215.93025,147.03442,215.72939,146.90353,215.41992z
		 M92.66016,201.76953c-0.28751-0.35616-0.23186-0.87794,0.12429-1.16545c0.00186-0.0015,0.00372-0.00299,0.00559-0.00447l0,0
		c0.35644-0.2838,0.8753-0.22571,1.16016,0.12988l0,0c0.28725,0.3564,0.23119,0.87816-0.12521,1.16541
		c-0.00188,0.00151-0.00376,0.00302-0.00565,0.00452l0,0c-0.14715,0.11836-0.3307,0.18219-0.51954,0.18066l0,0
		C93.05054,202.07886,92.81528,201.96465,92.66016,201.76953z M96.37016,199.0498c-0.22902-0.39557-0.10024-0.90164,0.29-1.13963
		h-0.01075c0.39257-0.23477,0.90095-0.11029,1.14063,0.2793l0,0c0.23802,0.39056,0.11436,0.90013-0.27621,1.13815
		c-0.00135,0.00084-0.00271,0.00165-0.00407,0.00247l0,0c-0.12939,0.07893-0.27811,0.12051-0.42969,0.12012l0,0
		c-0.2905,0.00026-0.5599-0.15167-0.70996-0.40041H96.37016z M100.41016,196.84961c-0.1804-0.42502,0.01581-0.916,0.43945-1.09961
		l0,0c0.42233-0.17648,0.90806,0.01938,1.08984,0.43945l0,0c0.17993,0.41608-0.0115,0.89923-0.42757,1.07916
		c-0.0007,0.00031-0.0014,0.00061-0.00211,0.00092l0,0c-0.10366,0.047-0.21626,0.07098-0.33008,0.07031l0,0
		C100.84907,197.34207,100.54787,197.15019,100.41016,196.84961z M127.79004,196.93945L127.79004,196.93945
		c-0.42396-0.17256-0.62934-0.6548-0.46-1.08006l0,0c0.17419-0.42236,0.65485-0.62708,1.08009-0.46001l0,0
		c0.42419,0.17235,0.62967,0.65482,0.46001,1.08008l0,0c-0.12404,0.3165-0.43059,0.52357-0.77051,0.52051l0,0
		c-0.10608-0.0007-0.21109-0.02122-0.30962-0.06052H127.79004z M123.51953,195.53999
		c-0.4388-0.11096-0.70457-0.55664-0.59361-0.99544c0.00121-0.00479,0.00246-0.00957,0.00376-0.01433l0,0
		c0.11143-0.44115,0.55822-0.70949,1-0.60059l0,0c0.44327,0.11479,0.71098,0.56563,0.59961,1.00977l0,0
		c-0.09106,0.36824-0.42049,0.62769-0.79981,0.62988l0,0C123.65849,195.56908,123.58787,195.55922,123.51953,195.53999z
		 M119.10938,194.71968c-0.45451-0.05138-0.78133-0.46147-0.72996-0.91599c0.00015-0.00131,0.00031-0.00264,0.00046-0.00395l0,0
		c0.05258-0.4556,0.46426-0.78249,0.91992-0.73045l0,0c0.45221,0.05702,0.77365,0.46829,0.71973,0.92088l0,0
		c-0.047,0.4166-0.4001,0.73099-0.81933,0.72951H119.10938z M113.7793,193.66011c-0.00624-0.45811,0.36008-0.83455,0.81819-0.84079
		c0.00071-0.00002,0.00141-0.00002,0.00212-0.00003l0,0c0.45557-0.00226,0.82695,0.36475,0.83008,0.82031l0,0
		c0.00768,0.45522-0.35439,0.83083-0.80957,0.83984h-0.01074c-0.4552,0.00233-0.82645-0.36411-0.83009-0.81929L113.7793,193.66011z"
		/>
	<path fill="#FF4257" d="M82.5,216.78999c-0.22215-0.00104-0.43461-0.09109-0.58984-0.25
		c-0.0761-0.07849-0.13732-0.17014-0.18067-0.27051c-0.03988-0.09831-0.06012-0.20348-0.05957-0.30957
		c-0.00318-0.45844,0.36588-0.83266,0.82432-0.83585c0.22356-0.00154,0.43829,0.08714,0.5956,0.246
		c0.07126,0.08173,0.13165,0.17232,0.17969,0.26953c0.04022,0.10199,0.06077,0.21068,0.06055,0.32031
		c0.00021,0.10616-0.02036,0.21132-0.06055,0.30957c-0.04301,0.10031-0.1039,0.19197-0.17969,0.27051
		c-0.07684,0.07788-0.16892,0.13905-0.2705,0.17969C82.71979,216.76758,82.61046,216.79164,82.5,216.78999z"/>
</g>
<g>
	<path fill="#FF4257" d="M15.44474,166.226c-0.10957,0.00055-0.21826-0.01967-0.32031-0.05957
		c-0.10115-0.04089-0.19288-0.10205-0.26954-0.17969c-0.07147-0.08212-0.13218-0.17303-0.18066-0.27051
		c-0.03953-0.10216-0.05973-0.21077-0.05957-0.32031c-0.00006-0.10605,0.02016-0.21112,0.05957-0.30957
		c0.04346-0.10001,0.10467-0.19133,0.18066-0.26953c0.07662-0.07793,0.16834-0.1394,0.26954-0.18066
		c0.20409-0.08986,0.43653-0.08986,0.64062,0c0.1012,0.04126,0.19291,0.10274,0.26953,0.18066
		c0.07362,0.0799,0.13426,0.17084,0.17969,0.26953c0.04019,0.09825,0.06076,0.20341,0.06055,0.30957
		c0.00031,0.10965-0.02024,0.21835-0.06055,0.32031c-0.0478,0.09764-0.10821,0.1886-0.17969,0.27051
		c-0.07666,0.07764-0.16838,0.13879-0.26953,0.17969C15.663,166.20633,15.55431,166.22655,15.44474,166.226z"/>
	<path fill="#FF4257" d="M49.5,195.41992c-0.00849-0.45734,0.35237-0.83649,0.80957-0.85059l0,0
		c0.45745-0.00294,0.83203,0.36292,0.83984,0.82031l0,0c0.0106,0.45311-0.34812,0.82903-0.80123,0.83961
		c-0.00603,0.00015-0.01206,0.00021-0.0181,0.00023l0,0c-0.4512,0.0072-0.82281-0.35274-0.83001-0.80394
		C49.50004,195.42368,49.50002,195.4218,49.5,195.41992z M45.62988,195.97949c-0.44527-0.0457-0.76919-0.4437-0.7235-0.88898
		c0.00106-0.01033,0.00232-0.02066,0.00378-0.03094l0,0c0.05024-0.44884,0.45482-0.77196,0.90366-0.72171
		c0.00543,0.00061,0.01085,0.00127,0.01627,0.00198l0,0c0.44915,0.05066,0.7722,0.45583,0.72155,0.90498
		c-0.00056,0.00499-0.00117,0.00998-0.00183,0.01495l0,0c-0.05045,0.41533-0.40193,0.72832-0.82031,0.73045l0,0
		C45.69593,195.99193,45.66231,195.98831,45.62988,195.97949z M41,195.12012c-0.44484-0.11305-0.71379-0.56531-0.60074-1.01015
		c0.00005-0.0002,0.0001-0.0004,0.00015-0.0006l0,0c0.11689-0.44215,0.56667-0.70898,1.01075-0.59961l0,0
		c0.44026,0.11879,0.70603,0.56636,0.59961,1.00977l0,0c-0.0957,0.36931-0.42806,0.6279-0.80957,0.62988l0,0
		C41.1324,195.14934,41.06498,195.13947,41,195.12012z M36.51953,193.64941L36.51953,193.64941
		c-0.4225-0.17404-0.62727-0.65483-0.46-1.08006l0,0c0.16792-0.42387,0.64766-0.63136,1.07153-0.46344
		c0.00285,0.00113,0.0057,0.00227,0.00854,0.00343l0,0c0.42503,0.17064,0.63125,0.65352,0.46061,1.07854
		c-0.00021,0.0005-0.00041,0.00102-0.00061,0.00153l0,0c-0.12692,0.31374-0.43109,0.51949-0.76953,0.52051l0,0
		C36.72361,193.71014,36.61813,193.68959,36.51953,193.64941z M62.99023,192.87012
		c-0.18141-0.41782,0.01024-0.90359,0.42807-1.08499c0.00378-0.00165,0.00758-0.00327,0.01139-0.00485h-0.00977
		c0.41961-0.18221,0.90749,0.01015,1.08985,0.42969l0,0c0.18459,0.41379-0.00122,0.89888-0.41502,1.08347
		c-0.00487,0.00218-0.00976,0.0043-0.01467,0.00638l0,0c-0.09989,0.0479-0.20954,0.07198-0.32031,0.07031l0,0
		C63.42768,193.36786,63.12723,193.17265,62.99023,192.87012z M67.13965,190.85938
		c-0.23733-0.39201-0.11194-0.90219,0.28008-1.13953c0.00007-0.00005,0.00013-0.00008,0.0002-0.00012l0,0
		c0.39293-0.23181,0.89906-0.10733,1.13965,0.28027l0,0c0.23396,0.39488,0.10425,0.90462-0.29,1.13965l0,0
		c-0.12634,0.07773-0.27159,0.11928-0.41992,0.12012l0,0C67.55848,191.2626,67.28788,191.11,67.13965,190.85938z
		 M70.97949,188.31938c-0.28744-0.35684-0.23117-0.87912,0.12566-1.16655c0.0014-0.00113,0.00282-0.00226,0.00423-0.00339l0,0
		c0.3593-0.28116,0.87843-0.21823,1.16015,0.14063l0,0c0.28515,0.35048,0.23219,0.86575-0.1183,1.15091
		c-0.00383,0.00311-0.00769,0.0062-0.01158,0.00925l0,0c-0.14466,0.11591-0.3244,0.17926-0.50977,0.17969l0,0
		c-0.25276,0.00085-0.49215-0.11346-0.65038-0.31058V188.31938z M74.4502,185.29984
		c-0.32867-0.31453-0.34015-0.83594-0.02563-1.16463c0.0017-0.00177,0.0034-0.00354,0.00512-0.00529l0,0
		c0.31251-0.33138,0.83447-0.34665,1.16585-0.03415c0.00136,0.0013,0.00272,0.00258,0.00407,0.00388l0,0
		c0.32814,0.31616,0.34162,0.83722,0.03027,1.16992h-0.00976c-0.15202,0.16544-0.36616,0.25993-0.59082,0.26074l0,0
		c-0.21532-0.00038-0.42242-0.08281-0.57911-0.2305V185.29984z M16.91992,174.26953
		c-0.17839-0.41594,0.01418-0.89775,0.43013-1.07614c0.0031-0.00133,0.00621-0.00264,0.00933-0.00394l0,0
		c0.42284-0.17955,0.91118,0.01762,1.09082,0.44043l0,0c0.17092,0.42258-0.02975,0.90404-0.4502,1.08012l0,0
		c-0.09989,0.0479-0.20954,0.07198-0.32031,0.07031l0,0C17.34615,174.78032,17.0458,174.5784,16.91992,174.26953z
		 M15.39941,169.80952L15.39941,169.80952c-0.12197-0.44063,0.13636-0.89671,0.57699-1.01868
		c0.00103-0.00029,0.00206-0.00058,0.00309-0.00085l0,0c0.44431-0.11604,0.8993,0.14696,1.02051,0.58989l0,0
		c0.11011,0.4409-0.15171,0.88911-0.58984,1.00977l0,0c-0.0682,0.02002-0.13892,0.03021-0.21,0.03027l0,0
		c-0.37561,0.00519-0.7062-0.2468-0.80075-0.61035V169.80952z"/>
</g>
<g>
	<path fill="#252626" d="M152.48535,144.36426c-0.14282-0.46147-0.16302-0.95218-0.05859-1.42383l0.0332-0.15137l0.79201,0.16895
		l-0.0332,0.15137c-0.07727,0.33279-0.06752,0.67989,0.02832,1.00781l0.00293,0.00586c0.0271,0.08775,0.0631,0.1725,0.10742,0.25293
		c0.06691,0.12395,0.16066,0.23138,0.27441,0.31445c0.15016,0.13113,0.36624,0.15453,0.541,0.05859
		c0.11859-0.07005,0.18826-0.20036,0.18066-0.33789c-0.00491-0.19995-0.04321-0.39767-0.1133-0.58501
		c-0.11134-0.32376-0.18475-0.65933-0.21875-1c0.00565-0.20818,0.0616-0.4119,0.16309-0.59375
		c0.10471-0.17581,0.25482-0.32021,0.43457-0.418c0.21161-0.11414,0.4518-0.16435,0.69141-0.14453
		c0.22903,0.03455,0.4464,0.12364,0.63379,0.25977c0.20297,0.14592,0.37108,0.33502,0.49219,0.55371
		c0.05067,0.09506,0.09599,0.19289,0.13576,0.293c0.13785,0.40704,0.16612,0.8432,0.082,1.26465l-0.02832,0.14746l-0.79883-0.14453
		l0.02832-0.14748c0.07959-0.34625,0.03644-0.70938-0.12207-1.02734c-0.06384-0.11276-0.14989-0.21143-0.25293-0.28999
		c-0.12947-0.10643-0.30809-0.13026-0.46094-0.06152c-0.10918,0.05524-0.17848,0.16672-0.17969,0.28906
		c-0.00214,0.20331,0.03329,0.40526,0.10451,0.5957c0.0127,0.03516,0.02539,0.08299,0.03906,0.13184
		c0.10503,0.27344,0.16568,0.5619,0.17969,0.85449c0.00665,0.21896-0.04526,0.43575-0.15039,0.62793
		c-0.10373,0.18494-0.25781,0.33665-0.44434,0.4375c-0.22264,0.13017-0.48053,0.18721-0.7373,0.16309
		c-0.24243-0.03394-0.47263-0.12756-0.66992-0.27246c-0.21207-0.1481-0.38498-0.34549-0.50391-0.5752
		C152.58739,144.64011,152.52985,144.50443,152.48535,144.36426z"/>
	<path fill="#252626" d="M155.33299,146.52832l2.6377-0.59473l0.17773,0.78906l-2.63867,0.59375
		c-0.47311,0.09978-0.77576,0.56419-0.67598,1.03729c0.09978,0.47311,0.56419,0.77576,1.03729,0.67598
		c0.00784-0.00165,0.01566-0.00342,0.02345-0.00528l2.63867-0.59375l0.17871,0.793l-2.63867,0.59473
		c-0.43561,0.09938-0.89287,0.02101-1.27051-0.21777c-0.37746-0.24168-0.64447-0.62238-0.74316-1.05957
		c-0.20435-0.90714,0.36537-1.80815,1.27251-2.0125C155.33237,146.52846,155.33269,146.5284,155.33299,146.52832z"/>
	<path fill="#252626" d="M154.51953,151.2666l4.32129,0.22168l-0.0791,1.54688c-0.01442,0.29666-0.147,0.5752-0.36816,0.77344
		c-0.45108,0.41125-1.15013,0.37897-1.56139-0.07211c-0.20192-0.22148-0.30524-0.51547-0.28627-0.81459l0.03809-0.74023
		l-2.10645-0.1084L154.51953,151.2666z M157.34082,152.96289c-0.00758,0.16817,0.1226,0.31062,0.29076,0.31821
		c0.00139,0.00006,0.00278,0.00011,0.00417,0.00015c0.16959,0.00882,0.3158-0.11798,0.33105-0.28711l0.03711-0.73926l-0.625-0.0332
		L157.34082,152.96289z"/>
	<path fill="#252626" d="M154.18457,154.87601l4.12695,1.29688l-0.85547,2.71875l-0.75291-0.23633l0.61131-1.94141l-0.60938-0.19141
		l-0.53223,1.69141l-0.77051-0.24219l0.53223-1.69238l-1.22852-0.38672l-0.59473,1.88867l-0.76465-0.23926L154.18457,154.87601z"/>
	<path fill="#252626" d="M151.46289,160.61133l2.60938-0.09668l0.19336-0.28613l-1.75293-1.17873l0.44043-0.65527l3.58594,2.41113
		l-0.86328,1.28418c-0.34499,0.49951-1.02548,0.63258-1.5332,0.2998c-0.35257-0.23965-0.53816-0.65895-0.47852-1.08105
		l-2.73535,0.09766L151.46289,160.61133z M154.49707,161.29785c-0.09691,0.14511-0.05783,0.34131,0.08728,0.43822
		c0.14449,0.09648,0.33977,0.05821,0.43713-0.08568l0.42287-0.62988l-0.52441-0.35254L154.49707,161.29785z"/>
	<path fill="#252626" d="M148.37399,163.56934l3.27734,0.98535l-1.78999-2.19824l0.63086-0.51465l2.73047,3.35254l-0.61133,0.49899
		l-3.27148-0.98633l1.78809,2.19434l-0.63086,0.51367l-2.73047-3.35156L148.37399,163.56934z"/>
	<path fill="#252626" d="M147.93457,166.54785c0.43999,1.16959-0.15147,2.47441-1.32106,2.9144s-2.47441-0.15147-2.9144-1.32106
		c-0.43999-1.1696,0.15147-2.47441,1.32106-2.9144c0.00369-0.00139,0.00739-0.00276,0.01108-0.00414
		C146.19872,164.79269,147.49452,165.38416,147.93457,166.54785z M147.1709,166.83203
		c-0.28398-0.74603-1.11896-1.12061-1.86499-0.83662s-1.12061,1.11896-0.83662,1.86499
		c0.28233,0.74173,1.10995,1.11705,1.85396,0.84077c0.74966-0.28082,1.12973-1.1162,0.84891-1.86584
		c-0.00041-0.00111-0.00084-0.00223-0.00125-0.00333V166.83203z"/>
	<path fill="#252626" d="M141.03809,166.14551l1.8623,4.24609l-0.87399,0.03906l-1.29395-2.96387l-1.03027,3.06836l-0.86719,0.03906
		l1.46875-4.39551L141.03809,166.14551z"/>
	<path fill="#252626" d="M135.82227,165.61133l0.18945,1.23535l1.40332,0.30078l0.68457-1.04688l0.85059,0.18262l-2.53809,3.88379
		l-0.71875-0.1543l-0.72754-4.58501L135.82227,165.61133z M136.15233,167.69824l0.17188,1.11328l0.61328-0.94531
		L136.15233,167.69824z"/>
</g>
<g>
	<path fill="#252626" d="M11.07813,242.92871c0.074,0.47754,0.02147,0.96613-0.15235,1.41701l-0.05566,0.14453l-0.75782-0.28418
		l0.05567-0.14549c0.12545-0.31778,0.16715-0.66248,0.12109-1.00101l-0.001-0.00488
		c-0.01457-0.09119-0.03779-0.18079-0.06934-0.26758c-0.04832-0.13217-0.12498-0.25217-0.22461-0.35156
		c-0.12922-0.15173-0.3394-0.20673-0.52637-0.1377c-0.12798,0.05138-0.21629,0.17026-0.22851,0.30762
		c-0.02605,0.19814-0.01813,0.39926,0.02344,0.59473c0.06343,0.33688,0.0867,0.6801,0.06933,1.02246
		c-0.03676,0.20425-0.12179,0.39677-0.248,0.56152c-0.12967,0.15842-0.29972,0.27887-0.49218,0.34863
		c-0.22627,0.08244-0.47176,0.09671-0.70606,0.041c-0.22156-0.06746-0.42356-0.18739-0.58886-0.34961
		c-0.17922-0.17444-0.31733-0.38661-0.4043-0.62109c-0.03613-0.0957-0.06348-0.20215-0.0918-0.30859
		c-0.07437-0.42342-0.03735-0.85889,0.10742-1.26367l0.04981-0.14258l0.76953,0.26074l-0.05078,0.14258
		c-0.13029,0.33032-0.141,0.69582-0.03028,1.0332c0.04529,0.12178,0.11583,0.2326,0.207,0.3252
		c0.11212,0.12439,0.28493,0.17468,0.44628,0.12988c0.11574-0.03915,0.20031-0.13913,0.21973-0.25977
		c0.03221-0.20102,0.02724-0.40625-0.01465-0.60547c-0.00781-0.03613-0.01269-0.08594-0.01953-0.13574
		c-0.06253-0.28622-0.07967-0.58052-0.05078-0.87207c0.02584-0.21712,0.1091-0.42343,0.24121-0.59766
		c0.13104-0.16702,0.3058-0.29446,0.50488-0.36816c0.24024-0.09494,0.50409-0.1127,0.75489-0.0508
		c0.2338,0.07045,0.44673,0.19722,0.62011,0.36916c0.18879,0.17706,0.33072,0.39818,0.41309,0.64355
		C11.01984,242.64067,11.0565,242.78337,11.07813,242.92871z"/>
	<path fill="#252626" d="M8.584,240.36523l-2.69726,0.19727l-0.05859-0.80664l2.69726-0.19629
		c0.48252-0.02657,0.85214-0.43927,0.82557-0.92178c-0.02657-0.48251-0.43927-0.85214-0.92178-0.82558
		c-0.01026,0.00056-0.0205,0.00131-0.03074,0.00224l-2.69824,0.19629l-0.0586-0.81152l2.69727-0.19727
		c0.44538-0.03447,0.88603,0.11078,1.22363,0.40332c0.33781,0.29521,0.54555,0.71175,0.57813,1.15918
		c0.06781,0.92667-0.62843,1.73285-1.5551,1.80067C8.58503,240.36516,8.58452,240.3652,8.584,240.36523z"/>
	<path fill="#252626" d="M10.08984,235.82324l-4.24121-0.85938l0.30762-1.51953c0.05788-0.29097,0.23078-0.54626,0.47949-0.70799
		c0.50508-0.34056,1.19061-0.20718,1.53117,0.2979c0.16834,0.24966,0.22729,0.5573,0.16317,0.85152l-0.14746,0.72656
		l2.06836,0.41895L10.08984,235.82324z M7.55078,233.72754c0.03215-0.16618-0.07651-0.32695-0.24269-0.3591
		c-0.00048-0.00009-0.00097-0.00018-0.00145-0.00027c-0.16634-0.03423-0.32993,0.06937-0.37012,0.23438l-0.14746,0.72656
		l0.61426,0.125L7.55078,233.72754z"/>
	<path fill="#252626" d="M10.94824,232.2998l-3.89648-1.8877l1.24316-2.56738l0.71192,0.34473l-0.8877,1.83299l0.57324,0.27832
		l0.77539-1.59766l0.72754,0.35252L9.4209,230.6543l1.16015,0.56152l0.86426-1.7832l0.72266,0.34961L10.94824,232.2998z"/>
	<path fill="#252626" d="M14.499,227.01172l-2.5957-0.29201l-0.2334,0.25488l1.5586,1.4248l-0.53223,0.58299l-3.18848-2.916
		l1.044-1.14162c0.41504-0.44275,1.10736-0.47394,1.56054-0.07031c0.31347,0.28972,0.43503,0.73242,0.31348,1.1416l2.71875,0.30762
		L14.499,227.01172z M11.59959,225.88281c0.11711-0.12904,0.10744-0.32858-0.02159-0.44569
		c-0.12799-0.11617-0.32563-0.10771-0.44325,0.01894l-0.5127,0.55959l0.46582,0.42674L11.59959,225.88281z"/>
	<path fill="#252626" d="M17.99316,224.54492l-3.09668-1.46193l1.44532,2.44043l-0.69922,0.41406l-2.20508-3.71973l0.67969-0.40234
		l3.08886,1.46001l-1.44335-2.43457l0.70019-0.416l2.20313,3.71973L17.99316,224.54492z"/>
	<path fill="#252626" d="M18.86914,221.66309c-0.26145-1.22163,0.51693-2.42392,1.73857-2.68536
		c1.22164-0.26146,2.42392,0.51692,2.68537,1.73857c0.26145,1.22163-0.51693,2.42392-1.73857,2.68536
		c-0.00417,0.00089-0.00834,0.00177-0.01251,0.00264C20.32406,223.65639,19.13075,222.87901,18.86914,221.66309z
		 M19.66504,221.49608c0.17097,0.78003,0.94191,1.27377,1.72194,1.1028s1.27377-0.94191,1.1028-1.72194
		c-0.16991-0.77519-0.93286-1.26855-1.70951-1.10547c-0.78329,0.16684-1.28302,0.93706-1.11619,1.72035
		c0.0003,0.00142,0.00061,0.00285,0.00092,0.00427L19.66504,221.49608z"/>
	<path fill="#252626" d="M25.62891,223.082l-1.21391-4.47556l0.86914,0.09082l0.84082,3.123l1.47363-2.88086l0.86426,0.08887
		l-2.10351,4.12988L25.62891,223.082z"/>
	<path fill="#252626" d="M30.707,224.38379l-0.0039-1.24899l-1.34375-0.50586l-0.832,0.93359l-0.81445-0.30664l3.08594-3.46387
		l0.68847,0.25879l0.03907,4.6416L30.707,224.38379z M30.6904,222.27246l-0.00488-1.12601l-0.74707,0.84277L30.6904,222.27246z"/>
</g>
<g>
	<path fill="#252626" d="M48.3584,7.23047h2.90625c0.57074,0.00268,1.11781,0.22838,1.52441,0.62891
		c0.403,0.4366,0.62775,1.00837,0.62994,1.60253c0.00086,1.20478-0.95045,2.1949-2.1543,2.24219h-0.99512v3.3916H48.3584V7.23047z
		 M51.49609,9.46191c0-0.14355-0.09961-0.34277-0.23144-0.34277h-0.99512v0.69629h0.99512
		C51.39648,9.81543,51.49609,9.60547,51.49609,9.46191z"/>
	<path fill="#252626" d="M64.23145,7.23047v4.83789c0.00451,1.72346-1.38898,3.12426-3.11245,3.12877
		c-1.72346,0.00451-3.12426-1.38899-3.12877-3.11245c-0.00002-0.00544-0.00002-0.01088,0-0.01632V7.23047h1.9004v4.83789
		c-0.01089,0.67094,0.52418,1.22367,1.19511,1.23456c0.67094,0.01089,1.22367-0.52418,1.23457-1.19512
		c0.00021-0.01315,0.00021-0.0263,0-0.03945V7.23047H64.23145z"/>
	<path fill="#252626" d="M69.25684,7.23047H71.168V13.207h3.73437v1.8887h-5.6455L69.25684,7.23047z"/>
	<path fill="#252626" d="M81.418,15.07324c-0.92568-0.21699-1.77621-0.67834-2.46289-1.33594l1.25876-1.4473
		c0.4304,0.45531,0.9826,0.77733,1.59082,0.92773c0.1375,0.03382,0.27834,0.05217,0.41992,0.05469
		c0.19814,0.00397,0.39455-0.03745,0.57422-0.12109c0.21131-0.08234,0.35439-0.28129,0.36523-0.50782
		c0-0.30957-0.57422-0.49707-1.07226-0.59667c-0.60138-0.10986-1.18732-0.29184-1.74512-0.542
		C79.63041,11.11851,79.191,10.36342,79.209,9.5498c0.00505-0.45827,0.14722-0.90452,0.40821-1.28125
		c0.26254-0.35574,0.61279-0.63736,1.0166-0.81738l-0.01074,0.01074c0.42206-0.19656,0.88206-0.29823,1.34765-0.29785
		c0.19616-0.00064,0.39207,0.01405,0.58594,0.04395c0.84911,0.16563,1.63415,0.56779,2.26465,1.16015l-1.21582,1.458
		c-0.43112-0.46308-1.02538-0.74043-1.65723-0.77344c-0.17561-0.00375-0.3496,0.03407-0.50781,0.11036
		c-0.17427,0.05359-0.3001,0.20551-0.32031,0.38671c0,0.29883,0.39746,0.44239,1.03808,0.57422
		c0.06641,0.02246,0.14356,0.02246,0.22168,0.04493c0.51618,0.09029,1.01779,0.24993,1.49121,0.4746h-0.01171
		c0.75555,0.37805,1.228,1.15523,1.21582,2c0.01022,0.4932-0.13686,0.97685-0.41993,1.38086
		c-0.27418,0.36311-0.63515,0.65155-1.0498,0.83887c-0.43143,0.21483-0.91,0.3176-1.3916,0.29883
		C81.94616,15.1613,81.67931,15.13151,81.418,15.07324z"/>
	<path fill="#252626" d="M93.64648,13.30566h-2.21l-0.69531,1.79H88.708l3.02734-7.86523h1.61231l3.03808,7.86523h-2.06541
		L93.64648,13.30566z M92.542,10.2793l-0.376,1.14843h0.74023L92.542,10.2793z"/>
	<path fill="#252626" d="M107.48633,15.0957h-2.28711l-2.60742-3.40234h-0.1768v3.40234h-1.86719V7.23047h2.88379
		c0.56797,0.00072,1.11242,0.22693,1.51367,0.62891c0.40269,0.43671,0.62709,1.00849,0.62891,1.60253
		c0.01122,0.73771-0.34442,1.4329-0.94922,1.85547L107.48633,15.0957z M102.415,9.81543h1.0166
		c0.1543,0,0.26465-0.19922,0.26465-0.35352c0-0.15527-0.11035-0.35351-0.26465-0.35351h-1.0166V9.81543z"/>
	<path fill="#252626" d="M113.35059,15.07324c-0.92568-0.21699-1.77621-0.67834-2.46289-1.33594l1.25877-1.4473
		c0.4304,0.45531,0.9826,0.77733,1.59082,0.92773c0.1375,0.03382,0.27835,0.05217,0.41993,0.05469
		c0.19814,0.00397,0.39455-0.03745,0.57422-0.12109c0.21131-0.08234,0.35439-0.28129,0.36523-0.50782
		c0-0.30957-0.5752-0.49707-1.07227-0.59667c-0.60138-0.10986-1.18731-0.29184-1.74511-0.542
		c-0.71629-0.38633-1.15571-1.14145-1.1377-1.95508c0.00505-0.45827,0.14722-0.90452,0.4082-1.28125
		c0.26254-0.35574,0.61279-0.63735,1.01661-0.81738l-0.01075,0.01074c0.42206-0.19656,0.88207-0.29822,1.34766-0.29785
		c0.19616-0.00064,0.39207,0.01405,0.58594,0.04395c0.84911,0.16563,1.63415,0.56779,2.26465,1.16015l-1.21582,1.458
		c-0.43113-0.46308-1.02539-0.74042-1.65723-0.77344c-0.17561-0.00375-0.3496,0.03407-0.50781,0.11036
		c-0.17427,0.05359-0.3001,0.20551-0.32032,0.38671c0,0.29883,0.39747,0.44239,1.03809,0.57422
		c0.06641,0.02246,0.14356,0.02246,0.22168,0.04493c0.51618,0.09029,1.01779,0.24994,1.49121,0.4746h-0.0117
		c0.75555,0.37805,1.22801,1.15523,1.21582,2c0.01022,0.4932-0.13686,0.97685-0.41992,1.38086
		c-0.27418,0.36311-0.63515,0.65155-1.0498,0.83887c-0.43143,0.21483-0.91001,0.3176-1.39161,0.29883
		C113.87876,15.16128,113.61191,15.1315,113.35059,15.07324z"/>
</g>
<g>
	<path fill="#252626" d="M110.30273,66.65332l1.21192,2.31543l0.3418,0.05078l0.30859-2.09082l0.78125,0.11524l-0.63086,4.27636
		l-1.5332-0.22558c-0.59902-0.09717-1.01196-0.65337-0.93164-1.25489c0.06548-0.42199,0.36437-0.77045,0.77148-0.89941
		l-1.26758-2.42676L110.30273,66.65332z M110.9912,69.68945c-0.17204-0.02773-0.33398,0.08924-0.36172,0.26128
		c-0.02773,0.17204,0.08925,0.33398,0.26128,0.36171c0.00222,0.00036,0.00445,0.00069,0.00668,0.00101l0.752,0.11132l0.0918-0.625
		L110.9912,69.68945z"/>
	<path fill="#252626" d="M108.90137,66.28516l-1.69922,3.98242l-2.62305-1.11914l0.30957-0.72754l1.873,0.7998l0.252-0.58691
		l-1.63281-0.69727l0.31641-0.74414l1.63378,0.69727l0.50586-1.18555l-1.82324-0.77832l0.31446-0.73926L108.90137,66.28516z"/>
	<path fill="#252626" d="M104.43359,63.81152l-1.50879,4.37891l-0.667-0.5625l1.05762-3.05273l-2.83594,1.55468l-0.66308-0.55957
		l4.05566-2.23144L104.43359,63.81152z"/>
	<path fill="#252626" d="M102.20215,61.67676l-3.56445,2.4414l-1.6084-2.34765l0.65039-0.44629L98.8291,63.002l0.52442-0.36035
		l-1.001-1.46191l0.666-0.45606l1.002,1.46192L101.082,61.46l-1.11719-1.63281l0.66016-0.45215L102.20215,61.67676z"/>
	<path fill="#252626" d="M99.36816,55.96289l-1.543,2.11328l0.10546,0.3291l2.01563-0.64648l0.24219,0.752l-4.123,1.3252
		L95.5918,58.3604c-0.1805-0.5811,0.1367-1.19987,0.71386-1.39258c0.40785-0.12909,0.85361-0.01509,1.14942,0.29395l1.62012-2.21289
		L99.36816,55.96289z M96.94629,57.92383c-0.05367-0.16639-0.23205-0.25777-0.39843-0.20411
		c-0.16639,0.05366-0.25777,0.23205-0.20411,0.39843l0.23242,0.72364l0.60156-0.19434L96.94629,57.92383z"/>
	<path fill="#252626" d="M99,53.417c-0.08128,0.47595-0.28564,0.92236-0.59277,1.29492l-0.09864,0.11914l-0.62793-0.50878
		l0.09864-0.12012c0.21987-0.26189,0.36853-0.57603,0.43164-0.91211v-0.00586c0.01488-0.09067,0.0211-0.18256,0.01855-0.27441
		c-0.0033-0.14022-0.03766-0.27797-0.10058-0.40332c-0.07426-0.18544-0.2564-0.30478-0.45606-0.29883
		c-0.13783,0.00817-0.25938,0.0931-0.31445,0.21972c-0.08697,0.1804-0.14276,0.37422-0.165,0.57325
		c-0.04752,0.33869-0.13438,0.67068-0.25879,0.98925c-0.09988,0.18219-0.24184,0.33788-0.41406,0.45411
		c-0.17239,0.11012-0.37167,0.17092-0.57617,0.17578c-0.24109,0.00616-0.47871-0.05834-0.6836-0.18555
		c-0.18802-0.13394-0.34108-0.31112-0.44629-0.5166c-0.114-0.22241-0.17799-0.46706-0.1875-0.7168
		c-0.00153-0.10789,0.00272-0.21579,0.0127-0.32324c0.06175-0.42532,0.23456-0.82684,0.501-1.16406l0.09179-0.11914l0.64551,0.49023
		l-0.0918,0.12109c-0.22797,0.27157-0.35403,0.61419-0.35644,0.96875c0.005,0.12993,0.03726,0.25735,0.09472,0.374
		c0.06644,0.15363,0.21464,0.25596,0.38184,0.26367c0.12195,0.00029,0.23384-0.06754,0.29-0.17578
		c0.095-0.18019,0.15529-0.37664,0.17773-0.5791c0.00489-0.03614,0.01465-0.08594,0.02539-0.13477
		c0.03087-0.29118,0.10767-0.57562,0.22754-0.84277c0.09308-0.19836,0.2378-0.36802,0.419-0.49121
		c0.17657-0.11671,0.38213-0.18196,0.59369-0.18846c0.25795-0.01501,0.51411,0.05125,0.73242,0.18945
		c0.19971,0.14124,0.36169,0.32936,0.47168,0.54785c0.12236,0.22764,0.18707,0.4818,0.18848,0.74024
		C99.03611,53.12473,99.02531,53.27195,99,53.417z"/>
	<path fill="#252626" d="M99.08105,50.43164l-4.21191-0.97559l0.6416-2.77441l0.76953,0.17871l-0.459,1.98047l0.62207,0.14551
		l0.40039-1.72852l0.78613,0.18262L97.22949,49.167l1.25391,0.292l0.44726-1.92968l0.78125,0.18164L99.08105,50.43164z"/>
	<path fill="#252626" d="M102.50488,43.02441c-0.39237,0.28108-0.85104,0.45539-1.33105,0.50586l-0.1543,0.01563l-0.08984-0.80371
		l0.15429-0.0166c0.34042-0.03101,0.6669-0.15016,0.94727-0.34571l0.00391-0.0039c0.07476-0.05402,0.14409-0.11518,0.207-0.18262
		c0.0961-0.10191,0.16817-0.22404,0.21094-0.35742c0.07725-0.184,0.0312-0.39667-0.11524-0.53223
		c-0.10365-0.09124-0.2499-0.11618-0.37793-0.06445c-0.18822,0.06727-0.36384,0.16564-0.51953,0.291
		c-0.2706,0.20929-0.56576,0.38475-0.87891,0.52246c-0.19839,0.06043-0.40842,0.07215-0.6123,0.03418
		c-0.20012-0.04342-0.38473-0.14028-0.53418-0.28027c-0.17618-0.16427-0.29985-0.37696-0.35547-0.61133
		c-0.04025-0.22751-0.02483-0.46138,0.04492-0.68164c0.07439-0.23861,0.20081-0.45774,0.37012-0.6416
		c0.07386-0.07827,0.15211-0.15229,0.23437-0.22168c0.34303-0.25848,0.7477-0.42276,1.17383-0.47656l0.14844-0.02051
		l0.11719,0.80371l-0.15039,0.02051c-0.35338,0.03355-0.6841,0.1889-0.93555,0.43945c-0.08682,0.0962-0.15298,0.2092-0.19434,0.332
		c-0.06029,0.15616-0.02658,0.33302,0.08692,0.45606c0.08659,0.08601,0.21391,0.11652,0.33008,0.0791
		c0.19355-0.06217,0.37397-0.1595,0.53222-0.28711c0.0293-0.02344,0.07129-0.05176,0.11328-0.0791
		c0.22627-0.18546,0.48037-0.3341,0.75293-0.44043c0.20546-0.07524,0.42724-0.09445,0.64258-0.05566
		c0.20805,0.0412,0.40048,0.13961,0.55567,0.28417c0.19457,0.16953,0.33003,0.39668,0.38671,0.64844
		c0.04439,0.24041,0.02828,0.48808-0.04687,0.72071c-0.07306,0.24804-0.20585,0.47438-0.38672,0.65918
		C102.73443,42.84135,102.62391,42.93848,102.50488,43.02441z"/>
	<path fill="#252626" d="M104.58594,41.00781l-2.35547-3.63081l1.30078-0.84375c0.24868-0.16191,0.55186-0.21748,0.8418-0.15429
		c0.59755,0.12374,0.98164,0.70847,0.85789,1.30602c-0.06087,0.29395-0.23874,0.55048-0.49267,0.71059l-0.62207,0.40332
		l1.14746,1.76953L104.58594,41.00781z M104.30469,37.72656c0.14099-0.09176,0.18089-0.28045,0.08913-0.42143
		c-0.00073-0.00113-0.00147-0.00225-0.00222-0.00337c-0.09181-0.14318-0.28066-0.18769-0.42676-0.10059l-0.62207,0.4043
		l0.34082,0.52539L104.30469,37.72656z"/>
	<path fill="#252626" d="M109.957,38.42285l-0.78906-0.9668l-1.35938,0.45215l-0.05761,1.248l-0.82422,0.27344l0.21484-4.624
		l0.69727-0.23242l2.94629,3.57324L109.957,38.42285z M108.61618,36.7959l-0.71191-0.86914l-0.04785,1.12207L108.61618,36.7959z"/>
	<path fill="#252626" d="M112.48828,37.94629c-0.26962-0.11158-0.51604-0.27255-0.72656-0.47461
		c-0.21433-0.20087-0.38374-0.44482-0.49707-0.71582c-0.12643-0.27567-0.19395-0.57468-0.19824-0.87793
		c-0.02159-1.24958,0.9739-2.28007,2.22349-2.30166c0.3552-0.00614,0.70686,0.07144,1.02651,0.22646
		c0.31684,0.15168,0.59326,0.37624,0.80664,0.65528l0.10058,0.12109l-0.64355,0.49121l-0.09278-0.12011
		c-0.27909-0.36644-0.71726-0.57644-1.17773-0.56446c-0.80578,0.01412-1.44754,0.67877-1.43343,1.48455
		c0.01412,0.80578,0.67877,1.44754,1.48455,1.43343c0.45857-0.00803,0.88669-0.2312,1.15588-0.60254l0.08985-0.11816
		l0.65234,0.46387l-0.0957,0.123c-0.20443,0.28609-0.47343,0.51995-0.78516,0.68262
		c-0.30988,0.16368-0.65445,0.25075-1.00488,0.25391C113.07044,38.11178,112.76978,38.05737,112.48828,37.94629z"/>
	<path fill="#252626" d="M116.20313,38.251l1.17382-4.16016l2.74024,0.77344l-0.21485,0.75879l-1.958-0.55274l-0.17188,0.61426
		l1.70508,0.48145l-0.21875,0.77636l-1.70606-0.48047l-0.3496,1.23829l1.90527,0.53808l-0.21777,0.77051L116.20313,38.251z"/>
	<path fill="#252626" d="M120.52051,39.87988l1.80957-3.02441l-0.91211-0.5459l0.41211-0.68848l2.52246,1.50977l-0.41113,0.68848
		l-0.91211-0.5459l-1.8086,3.02441L120.52051,39.87988z"/>
	<path fill="#252626" d="M123.02637,41.66309l2.957-3.15039l0.59277,0.55566l-2.957,3.15234L123.02637,41.66309z"/>
	<path fill="#252626" d="M126.27734,45.73535l2.44629-1.542l-1.9082-0.13379l0.707-1.77344l-2.44824,1.541l-0.43067-0.68262
		l3.66016-2.30859l0.40527,0.64355l-0.7373,1.85156l1.98827,0.13282l0.4082,0.64746L126.708,46.419L126.27734,45.73535z"/>
	<path fill="#252626" d="M127.05078,47.44141l4.16992-1.14649l0.75586,2.748l-0.76172,0.209L130.67578,47.29l-0.61523,0.168
		l0.4707,1.71094l-0.7793,0.21386l-0.46973-1.71l-1.24219,0.3418l0.52539,1.91015l-0.77344,0.21192L127.05078,47.44141z"/>
</g>
<g>
	<path fill="#252626" d="M43.89648,40.14063c-0.28959,0.02773-0.58181,0.00056-0.86132-0.08008
		c-0.28302-0.07731-0.54656-0.21341-0.77344-0.39942c-0.2401-0.18516-0.43899-0.4183-0.584-0.68457
		c-0.5987-1.09593-0.19561-2.4697,0.90032-3.06841c0.3084-0.16848,0.65181-0.26275,1.003-0.27534
		c0.35086-0.01319,0.69987,0.05675,1.01856,0.2041l0.14355,0.05957l-0.33886,0.73243l-0.13867-0.06348
		c-0.4166-0.19289-0.90049-0.174-1.30079,0.05078c-0.7047,0.38731-0.96201,1.27256-0.5747,1.97727
		c0.38731,0.7047,1.27256,0.96201,1.97727,0.57469c0.40104-0.22041,0.67512-0.61655,0.74-1.06954l0.02442-0.14648l0.792,0.10644
		l-0.02735,0.15235c-0.09531,0.70432-0.52031,1.32117-1.14448,1.66113C44.48716,40.01673,44.19648,40.10798,43.89648,40.14063z"/>
	<path fill="#252626" d="M46.58984,36.501c-0.20677-1.23331,0.62541-2.40073,1.85872-2.6075
		c1.23331-0.20677,2.40073,0.62541,2.60751,1.85872c0.20677,1.23331-0.62541,2.40073-1.85873,2.6075
		c-0.00328,0.00055-0.00656,0.00109-0.00984,0.00163C47.9575,38.56049,46.79733,37.72962,46.58984,36.501z M47.39453,36.36916
		c0.13629,0.78712,0.88486,1.31473,1.67199,1.17844c0.78712-0.13629,1.31473-0.88486,1.17844-1.67199
		c-0.13554-0.78282-0.87711-1.30979-1.66096-1.18031c-0.78936,0.1319-1.32234,0.87873-1.19044,1.66809
		c0.00032,0.00191,0.00064,0.00383,0.00097,0.00574V36.36916z"/>
	<path fill="#252626" d="M53.335,38.21094c-0.4523-0.16977-0.85275-0.45412-1.16211-0.8252l-0.09863-0.11914l0.61914-0.52246
		l0.09961,0.11914c0.21572,0.26532,0.49624,0.4705,0.81445,0.5957h0.00586c0.08637,0.03228,0.17565,0.05616,0.2666,0.07129
		c0.13844,0.02253,0.28016,0.01419,0.415-0.02441c0.19676-0.0373,0.34861-0.19462,0.37891-0.39258
		c0.01739-0.13654-0.04338-0.27128-0.15723-0.34863c-0.16036-0.11981-0.34003-0.2113-0.53125-0.27051
		c-0.32456-0.10939-0.635-0.25691-0.9248-0.43945c-0.16071-0.13172-0.28733-0.30021-0.36914-0.49121
		c-0.07534-0.19036-0.09762-0.39759-0.06446-0.59961c0.03893-0.23807,0.14691-0.45947,0.31055-0.63672
		c0.16681-0.16001,0.36985-0.27728,0.5918-0.3418c0.23965-0.07141,0.49229-0.08809,0.73925-0.04883
		c0.10652,0.01719,0.21187,0.041,0.31543,0.07129c0.40566,0.14042,0.76733,0.38491,1.04883,0.709l0.10059,0.11425l-0.60352,0.543
		l-0.09961-0.11328c-0.22457-0.27459-0.53775-0.46243-0.88574-0.53125c-0.12839-0.02009-0.25959-0.01243-0.38476,0.02246
		c-0.16343,0.03623-0.29192,0.16244-0.33106,0.3252c-0.02439,0.11996,0.02142,0.24337,0.11817,0.31836
		c0.15954,0.12637,0.34093,0.22236,0.53515,0.2832c0.03516,0.01172,0.082,0.03027,0.12793,0.04981
		c0.28041,0.08458,0.54548,0.21349,0.78516,0.38183c0.1776,0.12858,0.31726,0.30266,0.40429,0.50391
		c0.08189,0.19511,0.10727,0.40931,0.07325,0.61816c-0.03276,0.25631-0.14593,0.49564-0.32325,0.6836
		c-0.17611,0.16986-0.39098,0.29422-0.626,0.3623c-0.24678,0.07673-0.5085,0.09248-0.7627,0.0459
		C53.61544,38.30054,53.47285,38.26258,53.335,38.21094z"/>
	<path fill="#252626" d="M58.93164,40.10352l1.28418-2.59375l-1.69824,0.88281l-0.32422-1.88281l-1.2832,2.59375l-0.72559-0.3584
		l1.91992-3.88086l0.68067,0.33691l0.33789,1.96485l1.76758-0.92383l0.68554,0.33789l-1.91894,3.88281L58.93164,40.10352z"/>
	<path fill="#252626" d="M60.77344,41.44727l2.86133-3.24219l0.61035,0.53906l-2.86133,3.24219L60.77344,41.44727z"/>
	<path fill="#252626" d="M63.10645,43.71c-0.05712-0.28573-0.0591-0.57974-0.00586-0.86621
		c0.04875-0.28965,0.15788-0.56581,0.32031-0.81055c0.15998-0.25764,0.37222-0.47887,0.623-0.64941
		c1.0293-0.70765,2.43739-0.4469,3.14504,0.58241c0.20054,0.2917,0.32981,0.62639,0.37742,0.97716
		c0.04865,0.34776,0.01453,0.7021-0.09961,1.03418l-0.04492,0.14941l-0.76465-0.26367l0.04882-0.14355
		c0.15072-0.43469,0.08352-0.91532-0.18066-1.292c-0.45667-0.66358-1.36481-0.83132-2.02839-0.37465
		c-0.66359,0.45667-0.83132,1.36481-0.37465,2.02839c0.26011,0.37796,0.6829,0.6115,1.14132,0.63044l0.14649,0.00879
		l-0.02539,0.80078l-0.1543-0.01269c-0.35118-0.01049-0.69474-0.10492-1.00195-0.27539
		c-0.30721-0.16871-0.57022-0.40763-0.76758-0.69727C63.2898,44.28664,63.16937,44.00594,63.10645,43.71z"/>
	<path fill="#252626" d="M65.95117,51.51758l4.23828-1.8711l0.04,0.87305l-2.957,1.29981l3.06738,1.02148l0.04,0.86621
		L65.98633,52.25L65.95117,51.51758z"/>
	<path fill="#252626" d="M68.18945,54.74414c1.20921,0.32099,1.92925,1.56147,1.60826,2.77068
		c-0.32099,1.20921-1.56146,1.92925-2.77068,1.60826s-1.92925-1.56147-1.60826-2.77068
		c0.00102-0.00386,0.00206-0.00773,0.00311-0.01159C65.7494,55.13888,66.98499,54.42604,68.18945,54.74414z M67.97656,55.53125
		c-0.77339-0.20227-1.56432,0.26072-1.76659,1.0341c-0.20227,0.77339,0.26071,1.56432,1.0341,1.76659
		c0.7692,0.20117,1.55666-0.25573,1.76374-1.02336c0.20652-0.77473-0.2541-1.57018-1.02883-1.7767
		C67.97817,55.53168,67.97737,55.53146,67.97656,55.53125z"/>
	<path fill="#252626" d="M64.293,59.374l3.76074,2.13575l-0.40137,0.708L63.89063,60.082L64.293,59.374z"/>
	<path fill="#252626" d="M63.24316,61.22559l3.14649,2.97265l-0.99805,1.05664c-0.7995,0.88934-2.16857,0.96216-3.0579,0.16266
		c-0.88933-0.7995-0.96216-2.16856-0.16266-3.0579c0.02404-0.02674,0.04874-0.05288,0.07408-0.07839L63.24316,61.22559z
		 M62.82422,62.82715c-0.53618,0.53291-0.53883,1.39957-0.00592,1.93575c0.53291,0.53618,1.39957,0.53883,1.93575,0.00592
		c0.02012-0.02,0.03961-0.04061,0.05845-0.06182l0.44238-0.46875l-1.98828-1.8789L62.82422,62.82715z"/>
</g>
<path fill="none" stroke="#252626" stroke-width="2.20908" stroke-linecap="round" stroke-miterlimit="10" stroke-dasharray="0,5.52271" d="
	M50.261,125.09546"/>
<circle fill="#252626" cx="82.5" cy="127.50002" r="14.87217"/>
<circle fill="#252626" cx="115.47451" cy="294.4986" r="14.87217"/>
<ellipse transform="matrix(0.09854 -0.99513 0.99513 0.09854 -144.42381 363.68558)" fill="#252626" cx="128.52614" cy="261.55823" rx="14.87217" ry="14.87218"/>
<circle fill="#252626" cx="115.4813" cy="228.50044" r="14.87217"/>
<circle fill="#252626" cx="82.43137" cy="215.49805" r="14.87217"/>
<circle fill="#252626" cx="49.45833" cy="228.5" r="14.87217"/>
<circle fill="#252626" cx="36.47386" cy="261.55823" r="14.87217"/>
<circle fill="#252626" cx="49.5" cy="294.4986" r="14.87217"/>
<circle fill="#252626" cx="82.5" cy="307.58438" r="14.87217"/>
<path fill="#252626" d="M140.32813,71.00879c-0.21968,0.00008-0.43042-0.08702-0.58594-0.24219
	c-4.03514-4.03534-8.48529-7.63311-13.27637-10.7334c-0.38401-0.24863-0.49375-0.7615-0.24512-1.1455
	c0.24863-0.38401,0.7615-0.49375,1.14551-0.24512l0,0c4.88881,3.16375,9.42993,6.83482,13.54785,10.95215
	c0.32361,0.32321,0.32391,0.84755,0.00072,1.17115C140.75926,70.92159,140.54819,71.00899,140.32813,71.00879z"/>
<path fill="#252626" d="M25.20313,71.3125c-0.45736,0.0004-0.82845-0.37005-0.82885-0.82741
	c-0.00019-0.22006,0.08721-0.43114,0.24291-0.58665c4.15331-4.15177,8.73673-7.84968,13.67281-11.03125
	c0.38455-0.24755,0.89698-0.1365,1.14453,0.24805s0.1365,0.89698-0.24805,1.14453l0,0
	c-4.83672,3.11797-9.32782,6.7419-13.39742,10.81054C25.63355,71.22548,25.42281,71.31258,25.20313,71.3125z"/>
<path fill="#252626" d="M38.61328,330.90527c-0.15941-0.00003-0.31542-0.04614-0.44922-0.13281
	c-4.88848-3.16418-9.42956-6.83524-13.54785-10.95215c-0.3236-0.32361-0.3236-0.84827,0-1.17188
	c0.32361-0.32361,0.84827-0.32361,1.17188,0c4.0357,4.0347,8.48578,7.63242,13.27636,10.7334
	c0.38399,0.2485,0.49381,0.76126,0.2453,1.14523C39.15691,330.76324,38.89461,330.90567,38.61328,330.90527z"/>
<path fill="#252626" d="M125.97461,330.52637c-0.45736,0.00052-0.82854-0.36981-0.82906-0.82718
	c-0.00032-0.28192,0.1428-0.54462,0.37984-0.69724c4.83656-3.1178,9.32738-6.74173,13.39648-10.81055
	c0.32361-0.32361,0.84827-0.32361,1.17188,0s0.32361,0.84827,0,1.17188c-4.15262,4.15216-8.73578,7.8501-13.67187,11.03125
	C126.28871,330.4809,126.13332,330.52667,125.97461,330.52637z"/>
<g>
	<path fill="#252626" d="M109.18164,317.21387l1.8418,1.85352l0.34277-0.05273l-0.32422-2.08984l0.78028-0.12012l0.66211,4.27344
		l-1.53028,0.2373c-0.60105,0.08469-1.16033-0.3244-1.26172-0.92285c-0.06319-0.42242,0.11939-0.84399,0.47071-1.08691
		l-1.92871-1.94531L109.18164,317.21387z M110.73633,319.91113c-0.172,0.02869-0.28819,0.19138-0.25951,0.36337
		c0.02821,0.16922,0.18637,0.28494,0.35619,0.26062l0.75-0.11621l-0.09668-0.625L110.73633,319.91113z"/>
	<path fill="#252626" d="M106.57031,317.94238l1.71875,3.96973l-2.61523,1.13184l-0.31348-0.72461l1.86817-0.80859l-0.25391-0.58594
		l-1.62793,0.70605l-0.32129-0.74219l1.62793-0.7041l-0.51074-1.18262l-1.81836,0.78711l-0.31836-0.73633L106.57031,317.94238z"/>
	<path fill="#252626" d="M100.92969,321.14355l4.04883,2.25684l-0.67383,0.55957l-2.82031-1.58008l1.03125,3.06738l-0.667,0.55469
		l-1.48535-4.38965L100.92969,321.14355z"/>
	<path fill="#252626" d="M97.82813,324.19727l3.54687,2.47461l-1.62988,2.33691l-0.64844-0.45215l1.165-1.66895l-0.52246-0.36426
		l-1.01563,1.4541l-0.66308-0.46289l1.01562-1.4541l-1.05664-0.7373l-1.13281,1.62399l-0.6582-0.45801L97.82813,324.19727z"/>
	<path fill="#252626" d="M94.3125,331.04199l2.49805-0.7666l0.11133-0.32715l-1.99708-0.68652l0.25684-0.74707l4.08789,1.40625
		l-0.5039,1.46387c-0.20507,0.57123-0.82777,0.87521-1.4043,0.68555c-0.40293-0.1412-0.69069-0.49902-0.74219-0.92285L94,331.94824
		L94.3125,331.04199z M97.42188,330.92188c-0.05769,0.16476,0.02911,0.34509,0.19388,0.4028
		c0.16476,0.05768,0.3451-0.02911,0.40279-0.19388c0.00034-0.00098,0.00066-0.00192,0.00098-0.00287l0.24707-0.71777
		l-0.59668-0.2041L97.42188,330.92188z"/>
	<path fill="#252626" d="M93.64063,334.87399c0.13283-0.46405,0.38385-0.88568,0.72851-1.22363l0.11133-0.1084l0.57031,0.57422
		l-0.11133,0.1084c-0.24674,0.23676-0.42836,0.53305-0.52734,0.86035v0.00586c-0.02539,0.08862-0.04175,0.17957-0.04883,0.27148
		c-0.01115,0.13928,0.00852,0.27933,0.05762,0.41016c0.05264,0.19308,0.22131,0.332,0.4209,0.34668
		c0.1379,0.00601,0.26759-0.06561,0.33593-0.18555c0.1053-0.16943,0.18155-0.35526,0.22559-0.5498
		c0.08283-0.33224,0.20478-0.65347,0.36328-0.957c0.11884-0.17032,0.27652-0.30991,0.46-0.40723
		c0.18361-0.08987,0.38802-0.12866,0.5918-0.1123c0.24045,0.01935,0.4698,0.10938,0.65918,0.25879
		c0.17297,0.15286,0.30604,0.34561,0.38769,0.56152c0.09019,0.2327,0.12755,0.48254,0.10938,0.73145
		c-0.01022,0.10718-0.02587,0.21375-0.04688,0.31934c-0.10738,0.41586-0.32185,0.79636-0.62207,1.10352l-0.10449,0.10938
		l-0.58984-0.55859l0.10547-0.10742c0.25513-0.24622,0.41669-0.57352,0.457-0.92578c0.0095-0.12924-0.00848-0.25906-0.05274-0.38086
		c-0.04965-0.16019-0.18594-0.27832-0.35156-0.30469c-0.1216-0.01373-0.24057,0.04218-0.30762,0.14453
		c-0.11309,0.16891-0.19389,0.3573-0.23828,0.55566c-0.00879,0.03613-0.02441,0.08499-0.04,0.13086
		c-0.06104,0.28641-0.16788,0.5611-0.3164,0.81348c-0.11404,0.18686-0.27585,0.3399-0.46875,0.44336
		c-0.18816,0.09766-0.40004,0.14029-0.61133,0.12299c-0.25751-0.01251-0.50455-0.10577-0.70606-0.2666
		c-0.18342-0.1618-0.32455-0.36597-0.41113-0.59473c-0.09638-0.23956-0.13325-0.49893-0.10742-0.75586
		C93.57469,335.16089,93.60085,335.01569,93.64063,334.87399z"/>
	<path fill="#252626" d="M93.69922,339.09375l4.24414-0.84961l0.55859,2.7959l-0.77539,0.1543l-0.39843-1.99609l-0.627,0.12399
		l0.34863,1.74121l-0.792,0.1582l-0.34863-1.74023l-1.2627,0.25293l0.3877,1.94238l-0.78613,0.15723L93.69922,339.09375z"/>
	<path fill="#252626" d="M97.88086,348.75684c-0.22279-0.42798-0.33047-0.90652-0.3125-1.38867l0.00684-0.1543l0.80761,0.02539
		l-0.00586,0.15332c-0.01619,0.34085,0.05544,0.68015,0.208,0.98535l0.00488,0.00586
		c0.04161,0.08145,0.09205,0.15808,0.15039,0.22852c0.08732,0.10971,0.1981,0.19846,0.32422,0.25977
		c0.17097,0.10284,0.38805,0.08765,0.543-0.03809c0.10428-0.08984,0.14952-0.23047,0.11719-0.36426
		c-0.03999-0.19611-0.11297-0.38397-0.21582-0.55566c-0.16759-0.298-0.29967-0.61462-0.39356-0.94336
		c-0.03173-0.2048-0.0133-0.41425,0.05372-0.61035c0.07105-0.19199,0.19289-0.36108,0.35253-0.48926
		c0.18754-0.15109,0.41547-0.24347,0.65528-0.26563c0.23087-0.00784,0.46017,0.04077,0.668,0.1416
		c0.22565,0.1066,0.42453,0.26245,0.582,0.45605c0.06697,0.08417,0.12893,0.17221,0.18554,0.26367
		c0.20762,0.3754,0.31334,0.79861,0.30665,1.22754l-0.001,0.15039l-0.81055,0.00101l0.001-0.15137
		c0.01637-0.35361-0.09065-0.70193-0.30274-0.98535c-0.08299-0.09998-0.18571-0.18176-0.30175-0.24023
		c-0.14582-0.08148-0.32524-0.07315-0.46289,0.02148c-0.09792,0.07309-0.14629,0.1951-0.125,0.31543
		c0.03458,0.20026,0.10541,0.39255,0.209,0.56738c0.01855,0.03223,0.04,0.07715,0.06152,0.12207
		c0.15211,0.24991,0.26321,0.52258,0.32911,0.80762c0.04642,0.21378,0.03427,0.4361-0.03516,0.64355
		c-0.06948,0.20032-0.19405,0.37701-0.35938,0.50977c-0.19514,0.16812-0.43859,0.27002-0.69531,0.29099
		c-0.244,0.00961-0.48657-0.04138-0.70605-0.14844c-0.23531-0.10693-0.44061-0.27029-0.59766-0.47559
		C98.03026,349.00891,97.94947,348.88629,97.88086,348.75684z"/>
	<path fill="#252626" d="M100.73633,351.71875l2.52734-3.50488l1.25586,0.90625c0.24062,0.1723,0.40181,0.43414,0.44727,0.72656
		c0.1018,0.59998-0.30207,1.16888-0.90205,1.27069c-0.29655,0.05032-0.60077-0.0228-0.84209-0.20233l-0.59961-0.43164
		l-1.23242,1.70801L100.73633,351.71875z M103.6875,350.27148c0.13863,0.0975,0.33004,0.0643,0.42773-0.07422
		c0.09985-0.13727,0.07309-0.32895-0.06054-0.43359l-0.60059-0.43262l-0.36621,0.50684L103.6875,350.27148z"/>
	<path fill="#252626" d="M107.01172,355.1709l0.01953-1.24899l-1.333-0.53125l-0.85058,0.91699l-0.80664-0.32129l3.15039-3.40527
		l0.68359,0.27344l-0.05078,4.63965L107.01172,355.1709z M107.03516,353.05859l0.0166-1.125l-0.7627,0.82813L107.03516,353.05859z"
		/>
	<path fill="#252626" d="M110.8877,355.90625c-0.25703-0.13702-0.48569-0.32159-0.67383-0.54395
		c-0.19363-0.22119-0.33839-0.48074-0.42481-0.76172c-0.09734-0.28687-0.13392-0.59082-0.10742-0.89258
		c0.1092-1.24326,1.2025-2.16461,2.44629-2.06152c0.3511,0.02948,0.69033,0.14124,0.99023,0.32617
		c0.30023,0.1824,0.55292,0.43341,0.73731,0.73242l0.08691,0.12988l-0.68847,0.42285l-0.08008-0.12891
		c-0.24115-0.39114-0.65507-0.64313-1.11328-0.67773c-0.80225-0.06738-1.50723,0.52835-1.57461,1.3306
		c-0.06738,0.80225,0.52835,1.50723,1.3306,1.57462c0.45717,0.03839,0.90574-0.14066,1.21079-0.48334l0.10059-0.1084
		l0.60156,0.52539l-0.10644,0.11328c-0.4696,0.53375-1.16473,0.81281-1.87305,0.75195
		C111.44914,356.129,111.15626,356.0444,110.8877,355.90625z"/>
	<path fill="#252626" d="M115.98438,355.99414l-0.87305-4.24121l2.79394-0.5752l0.15918,0.77441l-1.99511,0.41016l0.1289,0.62601
		l1.73828-0.35938l0.16309,0.793l-1.73828,0.3584l0.25976,1.2627l1.94141-0.39941l0.16211,0.78613L115.98438,355.99414z"/>
	<path fill="#252626" d="M121.59082,354.28125l-1.57129-3.15527l-0.95117,0.47266l-0.35742-0.71777l2.63281-1.31055l0.35742,0.71875
		l-0.95215,0.47266l1.57129,3.15625L121.59082,354.28125z"/>
	<path fill="#252626" d="M125.05078,352.19922l-2.66992-3.40039l0.63965-0.50293l2.66894,3.39941L125.05078,352.19922z"/>
	<path fill="#252626" d="M129.50781,347.55957l-2.29687-1.75488l0.54,1.83401l-1.90723-0.04199l2.29688,1.75293l-0.48926,0.64258
		l-3.43653-2.62399l0.46094-0.60254l1.98926,0.04395l-0.56738-1.9082l0.46484-0.60742l3.43555,2.62299L129.50781,347.55957z"/>
	<path fill="#252626" d="M131.12012,344.72754l-4.04-1.55371l1.02245-2.66016l0.7373,0.28418l-0.73045,1.89941l0.59666,0.22949
		l0.63576-1.65723l0.75586,0.29001l-0.63672,1.6582l1.20215,0.46191l0.71094-1.85059l0.74899,0.28809L131.12012,344.72754z"/>
</g>
<g>
	<path fill="#252626" d="M44.83984,354.94043c-0.22286-0.18802-0.40752-0.41711-0.54394-0.6748
		c-0.14296-0.25681-0.22952-0.54111-0.25391-0.83401c-0.03463-0.30142-0.00602-0.60675,0.084-0.89648
		c0.36988-1.19357,1.63467-1.86395,2.83007-1.5c0.682,0.21121,1.22517,0.73053,1.4668,1.40234l0.05664,0.14453l-0.76172,0.26953
		l-0.05178-0.14352c-0.15279-0.4343-0.50479-0.76886-0.94629-0.89941c-0.77072-0.23569-1.58659,0.19803-1.82228,0.96872
		c-0.2357,0.77072,0.19801,1.58661,0.96873,1.8223c0.43926,0.13434,0.91613,0.05402,1.28714-0.2168l0.12109-0.08301l0.47754,0.6416
		L47.624,355.0293c-0.28305,0.20886-0.61119,0.34836-0.958,0.40723c-0.34535,0.05911-0.69981,0.03534-1.03418-0.06934
		C45.34205,355.27908,45.07279,355.13397,44.83984,354.94043z"/>
	<path fill="#252626" d="M49.56738,353.97949c-0.04996-1.25027,0.92309-2.30432,2.17336-2.35428s2.30433,0.9231,2.35428,2.17337
		c0.04996,1.25027-0.92309,2.30432-2.17336,2.35428c-0.00416,0.00015-0.00832,0.00031-0.01248,0.00046
		C50.66375,356.19562,49.61774,355.22461,49.56738,353.97949z M50.38184,353.9502c0.0353,0.7988,0.71147,1.41772,1.51026,1.38242
		s1.41772-0.71146,1.38242-1.51025c-0.0351-0.79407-0.70382-1.41135-1.49815-1.3829
		c-0.80103,0.03073-1.42546,0.70502-1.39472,1.50604C50.38171,353.94705,50.38177,353.94864,50.38184,353.9502z"/>
	<path fill="#252626" d="M57.41992,355.08887c-0.47851,0.06149-0.96478-0.00244-1.41113-0.18555l-0.14356-0.05957l0.30274-0.75
		l0.14355,0.05859c0.31445,0.13293,0.65782,0.18271,0.99707,0.14453l0.00586-0.00201
		c0.09134-0.01157,0.18129-0.0322,0.26856-0.06152c0.13264-0.04553,0.25389-0.11914,0.35547-0.21582
		c0.1553-0.12543,0.21543-0.33469,0.15039-0.52344c-0.04809-0.12912-0.16481-0.22015-0.30176-0.23535
		c-0.1974-0.03046-0.39856-0.02682-0.59473,0.01074c-0.33795,0.05438-0.68109,0.06915-1.02246,0.04401
		c-0.20349-0.04153-0.39404-0.13129-0.55566-0.26172c-0.15562-0.133-0.27209-0.30585-0.33692-0.5
		c-0.07679-0.22827-0.08527-0.47397-0.02441-0.707c0.07335-0.21887,0.1979-0.41708,0.36328-0.57813
		c0.17826-0.17523,0.39348-0.30838,0.62988-0.38965c0.1025-0.03387,0.20683-0.06192,0.3125-0.08401
		c0.42432-0.06561,0.85845-0.01846,1.25879,0.13672l0.1416,0.05371l-0.27929,0.76172l-0.1416-0.05371
		c-0.32674-0.13806-0.69135-0.15808-1.03125-0.05664c-0.12265,0.04312-0.2348,0.11169-0.32911,0.20117
		c-0.1275,0.10809-0.18211,0.27948-0.14062,0.44141c0.0352,0.11731,0.13335,0.2049,0.25391,0.22656
		c0.20016,0.03693,0.40542,0.03656,0.60546-0.00101c0.03614-0.00586,0.08692-0.01074,0.13672-0.01563
		c0.28694-0.05612,0.58096-0.06631,0.8711-0.03027c0.21655,0.03101,0.42086,0.11935,0.59179,0.25586
		c0.16462,0.13382,0.28788,0.31161,0.35547,0.5127c0.08978,0.24191,0.10173,0.50583,0.03418,0.75488
		c-0.0765,0.23209-0.2086,0.44196-0.38476,0.61133c-0.18104,0.18466-0.40525,0.32126-0.65235,0.39746
		C57.7095,355.03699,57.56585,355.07037,57.41992,355.08887z"/>
	<path fill="#252626" d="M63.85059,351.55371l-1.72852-2.31738l0.0166,1.91211l-1.82422-0.56543l1.7295,2.31934l-0.64747,0.4834
		l-2.58593-3.46875l0.6084-0.45313l1.90332,0.58984l-0.02344-1.99219l0.61426-0.457l2.58593,3.4668L63.85059,351.55371z"/>
	<path fill="#252626" d="M66.32031,349.04199l-3.38281-2.69629l0.50781-0.63672l3.38282,2.69629L66.32031,349.04199z"/>
	<path fill="#252626" d="M68.62988,345.37305c-0.21758,0.19354-0.47016,0.34372-0.74414,0.44238
		c-0.27406,0.10504-0.56738,0.15033-0.86035,0.13281c-0.3029-0.00818-0.60082-0.07901-0.875-0.20801
		c-1.1272-0.53427-1.61112-1.87869-1.083-3.00879c0.30353-0.64496,0.89348-1.10898,1.5918-1.25201l0.15137-0.03613l0.15918,0.79199
		l-0.14942,0.03027c-0.45035,0.09036-0.83015,0.39102-1.02148,0.80859c-0.34085,0.72864-0.0265,1.59564,0.70214,1.93649
		s1.59563,0.02649,1.93648-0.70215c0.19399-0.4147,0.18172-0.89648-0.03315-1.30075l-0.06641-0.13086l0.70117-0.38184
		l0.07032,0.13965c0.16637,0.30875,0.2577,0.65231,0.2666,1.00293c0.01028,0.34976-0.06303,0.69696-0.21387,1.0127
		C69.03419,344.92401,68.85329,345.16965,68.62988,345.37305z"/>
	<path fill="#252626" d="M70.80762,334.71191l-4.1211,2.12399l-0.09472-0.87012l2.8789-1.47656l-3.12695-0.83691l-0.09277-0.86328
		l4.47754,1.19238L70.80762,334.71191z"/>
	<path fill="#252626" d="M68.1416,331.56445c-1.14575,0.50092-2.48064-0.02185-2.98155-1.1676s0.02184-2.48062,1.16759-2.98154
		c1.14575-0.50092,2.48064,0.02182,2.98155,1.16757c0.00143,0.0033,0.00287,0.00659,0.00429,0.00989
		C69.80679,329.73706,69.28315,331.06488,68.1416,331.56445z M67.81836,330.81738c0.73059-0.32376,1.06039-1.1785,0.73662-1.90909
		c-0.32376-0.73059-1.17849-1.06039-1.90908-0.7366c-0.72617,0.32178-1.05717,1.16879-0.7416,1.89771
		c0.32138,0.73486,1.17764,1.07004,1.91251,0.74866C67.81732,330.81784,67.81784,330.8176,67.81836,330.81738z"/>
	<path fill="#252626" d="M67.01758,324.72949l-3.416,2.64648l-0.498-0.64258l3.416-2.64746L67.01758,324.72949z"/>
	<path fill="#252626" d="M64.95313,322.2666l-2.72266,3.36523l-1.12988-0.91406c-0.94815-0.72885-1.12592-2.08832-0.39707-3.03647
		s2.08833-1.12592,3.03647-0.39706c0.0283,0.02176,0.05606,0.04419,0.08325,0.06732L64.95313,322.2666z M63.32227,321.9707
		c-0.57314-0.49307-1.43746-0.42813-1.93052,0.14499c-0.49306,0.57315-0.42814,1.43747,0.145,1.93054
		c0.02107,0.01813,0.04268,0.03558,0.06481,0.0524l0.501,0.40527l1.7207-2.12701L63.32227,321.9707z"/>
</g>
<path fill="none" stroke="#252626" stroke-width="2.20908" stroke-linecap="round" stroke-miterlimit="10" stroke-dasharray="0,5.52271" d="
	M115.26908,264.60043"/>
<g>
	<path fill="#252626" d="M77.53597,343.25363h10.46626c1.77142,0,3.20745,1.43604,3.20745,3.20746v26.33145
		c0,1.77142-1.43603,3.20746-3.20745,3.20746H77.53597c-1.77142,0-3.20745-1.43604-3.20745-3.20746v-26.33145
		C74.32852,344.68967,75.76455,343.25363,77.53597,343.25363z"/>
	<path fill="#E6E5E5" d="M86.61544,364.10641c-0.19979,0.48779-0.60115,0.86511-1.10036,1.03442
		c-0.24384,0.08377-0.49999,0.12601-0.75781,0.125c-0.3599,0.01791-0.71892-0.04977-1.04757-0.19754
		c-0.22515-0.11169-0.42477-0.26874-0.58631-0.46127c-0.14727-0.18796-0.24475-0.41003-0.28342-0.64566
		c-0.03944-0.23514-0.0593-0.47314-0.05936-0.71158c0-0.33411,0.00657-0.56473,0.01971-0.69189
		c-0.00005-0.07495,0.01571-0.14905,0.04622-0.2175c0.14127-0.03973,0.28864-0.0531,0.43475-0.03943h3.08382
		c0.073-0.0014,0.14594,0.00519,0.21749,0.01971c0.0575,0.01352,0.10584,0.05222,0.13162,0.10535
		c0.03657,0.08087,0.05675,0.16818,0.05936,0.2569c0.00867,0.11429,0.01312,0.2724,0.01337,0.4744
		c0.00815,0.32471-0.05022,0.64767-0.17151,0.94901 M81.292,351.28476c0.00842-0.07687,0.04688-0.14731,0.107-0.19592
		c0.08471-0.056,0.18353-0.08691,0.28506-0.08914c0.13067-0.01175,0.31484-0.01767,0.55252-0.01785
		c0.78738-0.05264,1.56053,0.22873,2.12987,0.77518c0.5118,0.56696,0.77784,1.31375,0.73975,2.0766
		c0,0.08212-0.01713,0.25925-0.02792,0.38077c-0.06827-0.00095-0.13655-0.00189-0.20482-0.00327
		c-0.18699-0.004-0.39017-0.01419-0.60954-0.03049c-0.05087,0.02786-0.08159,0.08209-0.0793,0.14005
		c-0.00719,0.06039,0.01305,0.12082,0.05514,0.1647l0.21913,0.02441c0.12467,0.01147,0.24749,0.03802,0.36577,0.07907
		c0.0976,0.03662,0.1464,0.07523,0.1464,0.11591c-0.01146,0.07877-0.03621,0.155-0.0732,0.22546
		c-0.0488,0.1098-0.1138,0.24179-0.195,0.396c-0.08141,0.15463-0.16876,0.31924-0.26207,0.49387
		c-0.09361,0.17477-0.18105,0.33932-0.2623,0.49362c-0.187,0.35782-0.37798,0.70926-0.57294,1.05438
		c-0.19497,0.34561-0.38587,0.68088-0.5727,1.0058c-0.236-0.42258-0.46764-0.86545-0.69494-1.32864
		c-0.22758-0.46338-0.45516-0.92261-0.68274-1.37766c-0.01643-0.03238-0.04458-0.09314-0.08517-0.18277
		c-0.04082-0.08917-0.08352-0.18463-0.1281-0.28647c-0.04481-0.10159-0.08352-0.19684-0.1159-0.28647
		c-0.02481-0.05829-0.04116-0.11984-0.04856-0.18277c0-0.0488,0.03214-0.08728,0.09736-0.11591
		c0.13486-0.04666,0.27361-0.08127,0.41458-0.10345l0.15836-0.02441c0.0425-0.04611,0.06257-0.10858,0.0549-0.17081
		c0.00457-0.06049-0.03331-0.11609-0.09127-0.134c-0.17314,0.01358-0.38554,0.02335-0.63722,0.02933v-2.58643
		c-0.00171-0.11319,0.00424-0.22638,0.01783-0.33878 M82.30132,360.40967c0,0.3252-0.00407,0.58521-0.0122,0.78009
		c-0.0005,0.15625-0.02944,0.3111-0.0854,0.457c-0.01613,0.03723-0.03687,0.07233-0.06171,0.1044l-0.00164,0.00095
		c-0.12179-0.02176-0.2416-0.05338-0.35826-0.09454c-0.15506-0.05447-0.28078-0.1705-0.34747-0.32071
		c-0.08282-0.20721-0.12811-0.42752-0.13373-0.6506c-0.01783-0.27893-0.02675-0.65021-0.02675-1.11374v-2.53787l0.63722,1.24158
		c0.08916,0.17081,0.16025,0.31509,0.21327,0.43286c0.04857,0.10593,0.08729,0.21613,0.11567,0.32916
		c0.02503,0.10617,0.04135,0.21423,0.0488,0.32306c0.008,0.1138,0.01206,0.25598,0.0122,0.42654V360.40967z M87.33224,361.91708
		c0.05279-0.14642,0.10557-0.30283,0.15836-0.46924c0.0528-0.1666,0.10159-0.32919,0.1464-0.48776
		c0.04458-0.15836,0.07915-0.29044,0.10371-0.39627c-0.02573-0.05753-0.07828-0.09854-0.14031-0.10956
		c-0.05566-0.01849-0.1168-0.00943-0.1647,0.02441c-0.13541,0.27209-0.29232,0.53299-0.46924,0.78012
		c-0.10481,0.15842-0.23929,0.29504-0.396,0.40237c-0.07246,0.03528-0.14801,0.06378-0.2257,0.08517
		c-0.09982,0.02707-0.20179,0.04544-0.30478,0.0549c-0.11777,0.01221-0.25995,0.02237-0.42653,0.03052
		c-0.16659,0.00812-0.36773,0.01221-0.60343,0.01221c-0.26817,0-0.48965-0.00815-0.66444-0.02441
		c-0.1413-0.01129-0.28172-0.03159-0.42044-0.06076c-0.08655-0.01785-0.17049-0.04654-0.24987-0.08539
		c-0.05379-0.02661-0.10155-0.06396-0.1403-0.1098c-0.10934-0.13348-0.17524-0.29721-0.18887-0.46924
		c-0.03184-0.26498-0.0461-0.53177-0.0427-0.79865v-0.8045c0.00188-0.11145,0.00516-0.20999,0.00986-0.29446
		c0.00668-0.14218,0.02911-0.2832,0.06687-0.42044c0.04213-0.14383,0.09938-0.28281,0.1708-0.41458
		c0.0183-0.035,0.03894-0.07272,0.06076-0.11237c0.02933-0.00095,0.05983-0.0014,0.09385-0.0014h0.70714
		c0.23556,0,0.42857,0.00409,0.579,0.01221c0.12123,0.00391,0.24175,0.02017,0.35967,0.04858
		c0.10572,0.02197,0.19929,0.08295,0.26207,0.17081c0.05611,0.08966,0.09538,0.18881,0.11591,0.29257l0.10956,0.47534
		c0.04233,0.04443,0.10394,0.065,0.16447,0.0549c0.05889,0.00476,0.11623-0.02048,0.1525-0.06711
		c0-0.13818-0.00813-0.3129-0.0244-0.52414c-0.01643-0.21136-0.02456-0.42679-0.0244-0.64615
		c0-0.23553,0.00814-0.46304,0.0244-0.6825c0.01619-0.2196,0.02433-0.40253,0.0244-0.54877
		c-0.03647-0.04639-0.09366-0.07156-0.1525-0.06711c-0.06052-0.00989-0.12202,0.01065-0.16447,0.0549l-0.09737,0.5
		c-0.01533,0.11087-0.05489,0.21704-0.1159,0.31088c-0.047,0.0542-0.10818,0.09427-0.17666,0.11566
		c-0.12357,0.03229-0.25035,0.05069-0.378,0.0549c-0.17902,0.01221-0.39847,0.01831-0.65834,0.01828h-0.55089l0.0122-0.02017
		l0.76791-1.32864c0.15414-0.26016,0.29436-0.50198,0.42067-0.72543c0.1133-0.20352,0.23735-0.40091,0.37163-0.59125
		c0.10696-0.15436,0.23409-0.2937,0.378-0.41434c0.02665-0.02142,0.05437-0.04147,0.08305-0.06006
		c0.1905,0.07333,0.35382,0.20349,0.46783,0.3728c0.06721,0.10211,0.12054,0.21274,0.1586,0.32892
		c0.04035,0.12198,0.08501,0.25613,0.134,0.40237c0.04028,0.04355,0.10081,0.06216,0.1586,0.0488
		c0.05759,0.00021,0.11185-0.02695,0.14616-0.07321c-0.01642-0.13-0.03057-0.27826-0.04246-0.44482
		c-0.01243-0.16656-0.02674-0.3291-0.04293-0.48755c-0.01619-0.1586-0.03754-0.30008-0.05467-0.42676
		c-0.02571-0.1926-0.03669-0.38687-0.03285-0.58115c-0.00594-1.08322-0.55779-2.09039-1.46754-2.67841
		c-0.44839-0.27377-0.94407-0.46118-1.46143-0.55252c-0.64706-0.11453-1.30341-0.16824-1.96047-0.16049
		c-0.74866,0-1.40513,0.00891-1.96938,0.02676c-0.5645,0.01782-1.0844,0.05649-1.55974,0.11591
		c-0.0743,0.0408-0.1191,0.12015-0.11567,0.20483c-0.01064,0.0882,0.0188,0.17654,0.08024,0.24072l0.64145,0.07132
		c0.16257,0.01382,0.32199,0.05295,0.47251,0.11591c0.11916,0.06064,0.209,0.16656,0.24941,0.29401
		c0.06096,0.18414,0.09402,0.3764,0.09807,0.57034c0.01172,0.23767,0.01765,0.5466,0.01782,0.92673v6.57681
		c0,0.46313-0.00594,0.83441-0.01782,1.11374c-0.0004,0.22278-0.04274,0.44348-0.12482,0.6506
		c-0.06132,0.14441-0.17631,0.2594-0.32073,0.32071c-0.19535,0.07236-0.3989,0.12024-0.606,0.14264l-0.37445,0.0535
		c-0.05592,0.05948-0.08271,0.14063-0.07321,0.22171c-0.00046,0.19073-0.00257,0.25128-0.00656,0.46619
		c-0.00423,0.24609-0.01542,0.52124-0.03355,0.82538c0.01806,0.0448,0.06921,0.07156,0.15437,0.08069
		c0.06568,0.01495,0.13441-0.0054,0.18136-0.05371l0.04012-0.28201c0.01691-0.15588,0.05299-0.30905,0.10746-0.45609
		c0.04615-0.10886,0.1328-0.19553,0.24166-0.24167c0.1559-0.06201,0.32211-0.09399,0.48988-0.0943
		c0.21022-0.00867,0.48988-0.01306,0.839-0.01315h1.69113c0.0563-0.00125,0.11258,0.00314,0.168,0.01315
		c0.0396,0.00854,0.07228,0.03638,0.087,0.07413c0.02174,0.06024,0.03316,0.12369,0.03378,0.18771
		c0.00423,0.08517,0.00658,0.2034,0.00658,0.35568c0.01137,0.20633-0.023,0.41263-0.10066,0.60413
		c-0.0761,0.14395-0.18977,0.26462-0.32894,0.34912c-0.15226,0.10748-0.32001,0.2193-0.50325,0.33551
		c-0.1837,0.11612-0.36717,0.23242-0.55041,0.34888c-0.18346,0.11636-0.36021,0.22827-0.53024,0.33575
		c-0.1701,0.10721-0.31776,0.2056-0.443,0.29514c-0.29568,0.20544-0.57609,0.43204-0.839,0.67804
		c-0.20087,0.18756-0.37473,0.4021-0.51663,0.63745c-0.12366,0.21014-0.2121,0.43912-0.26183,0.67783
		c-0.05114,0.25858-0.07582,0.52167-0.07367,0.78525c-0.00754,0.1991,0.01501,0.39819,0.06686,0.59055
		c0.03395,0.0498,0.10185,0.06268,0.15166,0.02872c0.0156-0.01062,0.02818-0.02515,0.03651-0.04208
		c0.0168-0.17535,0.05974-0.3472,0.12739-0.50983c0.06071-0.15079,0.14453-0.2912,0.24846-0.4162
		c0.19267-0.23764,0.40599-0.45779,0.63746-0.65787c0.23696-0.20575,0.49872-0.41608,0.78527-0.63089
		c0.28622-0.21463,0.60836-0.43607,0.96639-0.66422c0.3578-0.22827,0.75156-0.47665,1.1813-0.74515
		c0.05245-0.03531,0.10873-0.06461,0.16776-0.08728c0.05107-0.02341,0.11103-0.01559,0.15437,0.02017
		c0.07338,0.19113,0.16789,0.37347,0.28177,0.54361c0.13142,0.19965,0.28698,0.38232,0.46314,0.54385
		c0.19069,0.17456,0.40822,0.31732,0.64426,0.42279c0.26882,0.11636,0.55951,0.17355,0.85237,0.16776
		c0.41248,0.01721,0.82026-0.09296,1.16793-0.31558c0.29872-0.20419,0.54294-0.47839,0.71136-0.79865
		c0.17315-0.3233,0.28469-0.67599,0.32894-1.04007c0.05112-0.3985,0.07574-0.79996,0.07367-1.20172
		c-0.00859-0.42923,0.03745-0.85779,0.137-1.27539"/>
</g>
<g>
	<path fill="#252626" d="M2.5,23.83008c-0.10964,0.00031-0.21835-0.02024-0.32031-0.06055
		c-0.10115-0.0409-0.19287-0.10205-0.26953-0.17969c-0.07179-0.08188-0.13254-0.17282-0.18067-0.2705
		c-0.03997-0.09828-0.06021-0.20347-0.05957-0.30957c-0.00214-0.11082,0.02195-0.22058,0.07031-0.32032
		c0.04063-0.09899,0.09813-0.19019,0.16993-0.26953c0.07666-0.07764,0.16838-0.13879,0.26953-0.17969
		c0.2057-0.08007,0.43395-0.08007,0.63965,0c0.09992,0.03841,0.18928,0.09999,0.26074,0.17969
		c0.07745,0.07889,0.14145,0.16994,0.18945,0.26953c0.04022,0.10199,0.06077,0.21068,0.06055,0.32032
		c0.00031,0.10616-0.02027,0.21135-0.06055,0.30957c-0.04774,0.10003-0.11176,0.19144-0.18945,0.2705
		c-0.07146,0.0797-0.16082,0.14128-0.26074,0.17969C2.71769,23.80975,2.60932,23.8303,2.5,23.83008z"/>
	<path fill="#252626" d="M13.21,23.00977c-0.00107-0.45737,0.36883-0.82901,0.8262-0.83008c0.00129,0,0.00259,0,0.00388,0l0,0
		c0.45737-0.00107,0.82901,0.36883,0.83008,0.82619c0,0.0013,0,0.00259,0,0.00389l0,0
		c-0.00319,0.45554-0.37454,0.82252-0.83008,0.82031l0,0C13.58454,23.83229,13.21319,23.46531,13.21,23.00977z M7.43949,23.00977
		c-0.00107-0.45737,0.36883-0.82901,0.8262-0.83008c0.0013,0,0.00259,0,0.00388,0l0,0
		c0.45737-0.00107,0.82901,0.36883,0.83008,0.82619c0,0.0013,0,0.00259,0,0.00389l0,0
		c-0.00319,0.45554-0.37454,0.82252-0.83008,0.82031l0,0c-0.45556,0.00223-0.82693-0.36476-0.83012-0.82031H7.43949z"/>
	<path fill="#252626" d="M19.80957,23.83008c-0.10923-0.00069-0.21744-0.0212-0.31934-0.06055
		c-0.0986-0.04086-0.18746-0.10209-0.26074-0.17969c-0.07788-0.07684-0.13905-0.16893-0.17969-0.2705
		c-0.04341-0.09762-0.06729-0.20278-0.07031-0.30957c0.00311-0.11024,0.02696-0.21891,0.07031-0.32032
		c0.0409-0.10115,0.10205-0.19287,0.17969-0.26953c0.07332-0.08204,0.16646-0.14391,0.27051-0.17969
		c0.3087-0.12601,0.66283-0.05526,0.89941,0.17969c0.07793,0.07662,0.13941,0.16833,0.18067,0.26953
		c0.03991,0.10205,0.06012,0.21074,0.05957,0.32032c0.00064,0.1061-0.0196,0.21129-0.05957,0.30957
		c-0.041,0.10162-0.1025,0.1937-0.18067,0.2705C20.24307,23.74593,20.03048,23.83252,19.80957,23.83008z"/>
</g>
<g>
	<path fill="#252626" d="M145.72949,23.83008c-0.10941,0.00124-0.21797-0.01935-0.31934-0.06055
		c-0.2045-0.08341-0.36678-0.24569-0.4502-0.45019c-0.03929-0.09852-0.05983-0.20351-0.06055-0.30957
		c-0.00021-0.10964,0.02032-0.21833,0.06055-0.32032c0.04089-0.10115,0.10205-0.19287,0.17969-0.26953
		c0.0751-0.07996,0.16768-0.14146,0.27051-0.17969c0.20233-0.08007,0.42755-0.08007,0.62988,0
		c0.10254,0.03824,0.19479,0.09975,0.26953,0.17969c0.07793,0.07662,0.1394,0.16833,0.18066,0.26953
		c0.04259,0.10161,0.06609,0.2102,0.06934,0.32032c-0.00432,0.10652-0.0278,0.21139-0.06934,0.30957
		c-0.0842,0.20398-0.24622,0.366-0.4502,0.45019C145.94145,23.80972,145.83597,23.83029,145.72949,23.83008z"/>
	<path fill="#252626" d="M156.08008,23.00977c-0.00107-0.45737,0.36882-0.82901,0.8262-0.83008c0.00128,0,0.00258,0,0.00388,0l0,0
		c0.45732,0.0027,0.82738,0.37276,0.83006,0.83008l0,0c-0.00696,0.45393-0.37608,0.81873-0.83006,0.82031l0,0
		C156.45462,23.83228,156.08327,23.46531,156.08008,23.00977z M150.49023,23.00977
		c-0.00153-0.45691,0.36763-0.82855,0.82454-0.83008c0.00153,0,0.00305-0.00001,0.00458,0l0,0
		c0.45746,0.00237,0.8277,0.37263,0.83006,0.83008l0,0c-0.00661,0.45408-0.37593,0.81907-0.83006,0.82031l0,0
		C150.864,23.83222,150.49297,23.46512,150.49023,23.00977z"/>
	<path fill="#252626" d="M162.5,23.83008c-0.22095,0.00262-0.43361-0.08399-0.58984-0.24024
		c-0.15181-0.1552-0.23785-0.36299-0.24023-0.58007c0.00227-0.21999,0.08817-0.43087,0.24023-0.58985
		c0.07666-0.07764,0.16838-0.13879,0.26953-0.17969c0.2057-0.08007,0.43394-0.08007,0.63965,0
		c0.10158,0.04064,0.19366,0.10181,0.27049,0.17969c0.07147,0.07959,0.12894,0.17072,0.16994,0.26953
		c0.0479,0.0999,0.07198,0.20955,0.07031,0.32032c-0.00238,0.21708-0.08842,0.42488-0.24023,0.58007
		C162.9334,23.74578,162.72087,23.83234,162.5,23.83008z"/>
</g>
<path fill="#00BC8B" d="M65.50977,198.39941c-0.03447-0.45128,0.30341-0.84505,0.75469-0.87952
	c0.00169-0.00012,0.00337-0.00024,0.00507-0.00037l0,0c0.45337-0.03813,0.8518,0.29848,0.88993,0.75185
	c0.00025,0.00296,0.00049,0.00594,0.0007,0.0089l0,0c0.03343,0.45782-0.31062,0.85608-0.76845,0.8895
	c-0.00069,0.00006-0.00137,0.00011-0.00206,0.00015h-0.05957C65.89594,199.17038,65.53648,198.83275,65.50977,198.39941z
	 M61.22949,198.5498L61.22949,198.5498c-0.42234-0.17432-0.6302-0.65228-0.46972-1.08006l0,0
	c0.17086-0.42572,0.65216-0.63506,1.08007-0.46974l0,0c0.42587,0.17072,0.63526,0.65216,0.46973,1.08008l0,0
	c-0.12736,0.31325-0.43138,0.51851-0.76953,0.51953l0,0C61.43468,198.59785,61.33011,198.58109,61.22949,198.5498z
	 M70.31934,197.70021c-0.10896-0.44432,0.15823-0.89401,0.60058-1.01076l0,0c0.44122-0.11017,0.88965,0.15221,1.00977,0.59082l0,0
	c0.1159,0.44171-0.14816,0.89377-0.58985,1.00977h-0.00976c-0.06516,0.01854-0.13247,0.02838-0.2002,0.0293l0,0
	c-0.37837-0.0015-0.70956-0.25449-0.81054-0.61914V197.70021z M75,196.33008c-0.14049-0.43294,0.0901-0.8989,0.51953-1.0498l0,0
	c0.43003-0.14944,0.89978,0.07802,1.04922,0.50806c0.0002,0.00056,0.0004,0.00114,0.0006,0.00171l0,0
	c0.15181,0.43336-0.07642,0.90775-0.50977,1.05957l0,0c-0.08704,0.02805-0.1781,0.04156-0.26953,0.03999l0,0
	C75.4347,196.88947,75.11808,196.66522,75,196.33008z M79.58984,194.68945c-0.15976-0.43066,0.05968-0.90932,0.49024-1.06934l0,0
	c0.42758-0.15927,0.90382,0.05428,1.06933,0.47949l0,0c0.1599,0.43063-0.05897,0.90945-0.48925,1.07031l0,0
	c-0.09215,0.03659-0.19092,0.05356-0.29,0.0498l0,0C80.02521,195.22206,79.71468,195.01105,79.58984,194.68945z M84.14941,192.96001
	c-0.15401-0.43069,0.06352-0.90562,0.49024-1.07031l0,0c0.4309-0.15926,0.90945,0.05994,1.07031,0.49023l0,0
	c0.15844,0.42534-0.05792,0.89857-0.48326,1.05701c-0.00232,0.00087-0.00464,0.00172-0.00697,0.00256l0,0
	c-0.09141,0.04012-0.19018,0.06075-0.29,0.06055l0,0C84.58408,193.49522,84.27569,193.2818,84.14941,192.96001z M88.74023,191.29985
	c-0.14502-0.4335,0.08884-0.90248,0.52233-1.04752c0.00232-0.00076,0.00464-0.00154,0.00697-0.00229l0,0
	c0.43044-0.14238,0.89481,0.09116,1.03719,0.52161c0.00095,0.00288,0.00189,0.00577,0.00282,0.00867l0,0
	c0.14475,0.43324-0.08728,0.9021-0.51953,1.0498l0,0c-0.08533,0.02211-0.1727,0.03552-0.26074,0.03999l0,0
	c-0.35823-0.00081-0.67588-0.23042-0.78902-0.57031V191.29985z M103.37012,190.76958
	c-0.40038-0.21768-0.5521-0.71631-0.34082-1.12012l0,0c0.21304-0.40242,0.71198-0.55594,1.1144-0.3429
	c0.00191,0.00101,0.00381,0.00203,0.00571,0.00305l0,0c0.39925,0.20766,0.55456,0.69965,0.3469,1.09889
	c-0.002,0.00383-0.00402,0.00766-0.00608,0.01146l0,0c-0.13647,0.27821-0.42059,0.45332-0.73046,0.4502l0,0
	c-0.13567-0.00473-0.26865-0.03908-0.38965-0.10063V190.76958z M93.41012,189.88969
	c-0.10156-0.44426,0.17526-0.88701,0.61914-0.99023l0,0c0.44066-0.10472,0.88278,0.16762,0.9875,0.60828
	c0.00094,0.00394,0.00185,0.00789,0.00272,0.01184l0,0c0.10804,0.43538-0.15732,0.8759-0.59269,0.98393
	c-0.00911,0.00226-0.01825,0.00436-0.02743,0.0063l0,0c-0.05831,0.01691-0.11906,0.02383-0.17968,0.02049l0,0
	c-0.38665,0.00258-0.7232-0.26376-0.80953-0.64066L93.41012,189.88969z M98.20992,189.06938
	c-0.00661-0.4572,0.35867-0.83319,0.81586-0.8398c0.00116-0.00002,0.00232-0.00003,0.00348-0.00005l0,0
	c0.45615,0.00067,0.82889,0.36432,0.84082,0.82031l0,0c0.003,0.45747-0.36289,0.83209-0.82032,0.83984H99.04
	c-0.45428-0.00089-0.82381-0.36612-0.83-0.82036L98.20992,189.06938z"/>
<g>
	<path fill="#252626" d="M21.48828,165.57324l0.502-4.2959l1.59375,0.18652c0.29031,0.03569,0.55452,0.18535,0.73438,0.416
		c0.18385,0.22772,0.26831,0.51985,0.23437,0.81055c-0.02025,0.16655-0.07622,0.32678-0.16406,0.46973
		c0.10806,0.07845,0.20412,0.1722,0.28516,0.27832c0.24384,0.29973,0.35524,0.68578,0.30859,1.06934
		c-0.07073,0.58443-0.48349,1.07021-1.04883,1.23438c-0.18181,0.05646-0.37352,0.07376-0.5625,0.05078L21.48828,165.57324z
		 M23.457,165.002c0.35933,0.02878,0.6777-0.23022,0.72266-0.58789c0.03839-0.35405-0.21012-0.67505-0.5625-0.72656
		l-1.08008-0.12601l-0.1543,1.31543L23.457,165.002z M23.414,162.86333c0.16634,0.01898,0.31664-0.1003,0.33594-0.2666
		c0.01587-0.16647-0.10045-0.31659-0.26562-0.34277l-0.78321-0.0918l-0.07226,0.60938L23.414,162.86333z"/>
	<path fill="#252626" d="M26.67969,165.77637l-0.60742-4.27734l0.80468-0.11424l0.60743,4.27734L26.67969,165.77637z"/>
</g>
<g>
	<path fill="#252626" d="M13.81445,144.71387l-2.19238-1.58299l0.47363-0.65527l2.19239,1.58299
		c0.38806,0.28775,0.9359,0.20644,1.22365-0.18163s0.20643-0.9359-0.18163-1.22365
		c-0.00582-0.00432-0.01169-0.00856-0.01761-0.01273l-2.19141-1.584l0.47754-0.66016l2.19043,1.584
		c0.36268,0.26097,0.60655,0.65558,0.67774,1.09668c0.06871,0.44308-0.04007,0.8954-0.30274,1.25879
		C15.61935,145.0887,14.56776,145.25786,13.81445,144.71387z"/>
	<path fill="#252626" d="M19.88379,141.002l-3.14453-1.35742l1.52832,2.39063l-0.68653,0.4375l-2.32812-3.64453l0.665-0.4248
		l3.13672,1.35547l-1.52442-2.38574l0.6875-0.4375l2.32715,3.64453L19.88379,141.002z"/>
	<path fill="#252626" d="M21.56836,140.32813l-1.17871-4.16212l0.7832-0.22168l1.17871,4.16309L21.56836,140.32813z"/>
</g>
<g>
	<path fill="#252626" d="M137.41211,227.88965l-0.50488-4.28999l1.59082-0.18652c0.60304-0.06267,1.14621,0.36658,1.22461,0.96777
		c0.01921,0.16676,0.00189,0.33572-0.05078,0.49512c0.12332,0.05092,0.23848,0.11967,0.3418,0.2041
		c0.30589,0.23515,0.50325,0.58441,0.54688,0.96777c0.06401,0.58409-0.2244,1.15054-0.73438,1.44238
		c-0.16389,0.09641-0.34622,0.1573-0.53516,0.17873L137.41211,227.88965z M138.65625,224.81152
		c0.16635-0.01996,0.28542-0.17043,0.2666-0.33691c-0.02411-0.16463-0.17093-0.28293-0.33691-0.27148l-0.78418,0.0918
		l0.07129,0.6084L138.65625,224.81152z M139.19238,226.87988c0.3558-0.05511,0.60532-0.38034,0.56641-0.73828
		c-0.04474-0.35281-0.36063-0.60699-0.71484-0.5752l-1.07813,0.12601l0.1543,1.31348L139.19238,226.87988z"/>
	<path fill="#252626" d="M141.47266,227.69141l0.63963-4.27637l0.80566,0.12012l-0.64063,4.27637L141.47266,227.69141z"/>
</g>
<g>
	<path fill="#252626" d="M142.85547,251.92969l-0.83501-2.57031l0.76758-0.24899l0.83594,2.56934
		c0.14278,0.46114,0.63234,0.71921,1.09348,0.57643s0.71921-0.63235,0.57643-1.09348
		c-0.00249-0.00803-0.00508-0.01601-0.0078-0.02396l-0.83501-2.57031l0.77344-0.252l0.83594,2.57031
		c0.13918,0.42392,0.10332,0.88585-0.09961,1.2832c-0.42357,0.82991-1.43973,1.15932-2.26964,0.73575
		c-0.39645-0.20233-0.69687-0.55313-0.83583-0.97598H142.85547z"/>
	<path fill="#252626" d="M150.63281,249.64844l-3.27637-0.98438l1.78999,2.19531l-0.63084,0.51367l-2.72754-3.34766l0.61035-0.498
		l3.26855,0.98438l-1.78613-2.19141l0.62891-0.51367l2.72949,3.34863L150.63281,249.64844z"/>
	<path fill="#252626" d="M152.65332,247.29883l-3.58789-2.40625l0.45313-0.6748l3.58791,2.40625L152.65332,247.29883z"/>
</g>
<path fill="#252626" d="M82.5,80.64551c-25.87327-0.00365-46.85066,20.9678-46.85432,46.84108
	c-0.00357,25.25893,20.01835,45.97298,45.26283,46.8275V172.658c-24.75276-1.0663-43.95444-21.99677-42.88815-46.74953
	s21.99677-43.95444,46.74953-42.88815s43.95444,21.99677,42.88815,46.74953c-1.03963,24.13385-21.0025,43.11108-45.15804,42.92844
	c-0.023,0-0.04559-0.00171-0.0686-0.00171v1.65625c0.023,0,0.04559,0.00171,0.0686,0.00171
	c25.87703,0,46.85449-20.97748,46.85449-46.8545S108.37703,80.64554,82.5,80.64554V80.64551z"/>
<path fill="#252626" d="M82.5,214.7041c-25.87327-0.00366-46.85066,20.9678-46.85432,46.84106
	c-0.00357,25.25894,20.01835,45.97299,45.26283,46.82751v-1.65613c-24.75262-1.06628-43.95418-21.99664-42.88789-46.74927
	s21.99664-43.95418,46.74926-42.88788c24.75262,1.06628,43.95418,21.99664,42.88789,46.74927
	c-1.03963,24.1337-21.00237,43.11081-45.15777,42.92816c-0.023,0-0.04559-0.00171-0.0686-0.00171v1.65625
	c0.023,0,0.04559,0.00171,0.0686,0.00171c25.87703,0,46.85449-20.97748,46.85449-46.85449S108.37703,214.70409,82.5,214.70409
	V214.7041z"/>
<g>
	<path fill="#252626" d="M6.90708,191.02057l1.61914-2.05566l-0.09375-0.33203l-2.03711,0.57324l-0.21484-0.76074l4.16797-1.17578
		l0.4209,1.49414c0.0791,0.28027,0.04199,0.5752-0.10547,0.83789s-0.37988,0.44727-0.65918,0.52734
		c-0.41602,0.11719-0.85938-0.02344-1.1377-0.33691l-1.7002,2.15332L6.90708,191.02057z M9.39927,189.1485
		c0.04688,0.16406,0.2207,0.26758,0.39063,0.21875c0.16895-0.04688,0.26465-0.22656,0.21875-0.38965l-0.20703-0.73145
		l-0.6084,0.1709L9.39927,189.1485z"/>
	<path fill="#252626" d="M9.57017,192.10651c1.05957-0.66504,2.45801-0.34668,3.12207,0.70801
		c0.66504,1.05859,0.3457,2.45703-0.71387,3.12305c-1.05371,0.66309-2.44727,0.34082-3.1123-0.71875
		C8.20201,194.16412,8.51646,192.76959,9.57017,192.10651z M10.00376,192.79596c-0.67871,0.42676-0.88281,1.32227-0.45996,1.99609
		c0.42383,0.67383,1.31934,0.87793,1.99805,0.45215c0.68359-0.42969,0.88965-1.32617,0.46582-2
		S10.68736,192.3653,10.00376,192.79596z"/>
	<path fill="#252626" d="M12.28013,199.21686l2.32129-2.64941l-0.79883-0.7002l0.52832-0.60352l2.21191,1.9375l-0.53027,0.60254
		l-0.79785-0.7002l-2.32227,2.65039L12.28013,199.21686z"/>
	<path fill="#252626" d="M17.66392,202.75201l0.14258-1.23828l-1.27148-0.65918l-0.93555,0.8291l-0.77246-0.40039l3.4668-3.07422
		l0.65332,0.33789l-0.50586,4.60938L17.66392,202.75201z M17.89536,200.65631l0.12695-1.11719l-0.83887,0.74805L17.89536,200.65631z
		"/>
	<path fill="#252626" d="M20.7772,203.7774l0.78613-3.43555l-1.03809-0.23633l0.17871-0.78125l2.86719,0.65332l-0.17871,0.78223
		l-1.03613-0.23633l-0.78516,3.43652L20.7772,203.7774z"/>
	<path fill="#252626" d="M24.80259,204.35065l0.06836-4.3252l0.81445,0.01367l-0.06836,4.3252L24.80259,204.35065z"/>
	<path fill="#252626" d="M27.34849,202.21979c-0.28809-1.21875,0.46777-2.44043,1.68066-2.72656
		c1.21777-0.28809,2.43848,0.46582,2.72656,1.68457c0.28613,1.21289-0.46973,2.42773-1.6875,2.71582
		C28.85533,204.18073,27.6356,203.4317,27.34849,202.21979z M28.14146,202.03229c0.18457,0.78027,0.9668,1.26367,1.74219,1.08105
		c0.77539-0.18359,1.25879-0.96582,1.07422-1.74609c-0.18555-0.78711-0.96875-1.27051-1.74316-1.08789
		C28.43931,200.46295,27.95591,201.24615,28.14146,202.03229z"/>
	<path fill="#252626" d="M36.76744,200.87701l-3.12793-1.39941l1.49707,2.41211l-0.69238,0.42871l-2.28125-3.67578l0.66992-0.41602
		l3.12012,1.39648l-1.49316-2.40625l0.69141-0.42969l2.2832,3.67578L36.76744,200.87701z"/>
</g>
<g>
	<path fill="#252626" d="M132.73521,191.51959l-2.41699-0.99219l-0.29492,0.18359l1.10938,1.79883l-0.67188,0.41406
		l-2.27051-3.67969l1.31836-0.8125c0.24805-0.1543,0.54102-0.19922,0.83301-0.13086c0.29297,0.07031,0.53516,0.24219,0.6875,0.49023
		c0.22656,0.36719,0.21387,0.83203-0.01074,1.18359l2.53418,1.04102L132.73521,191.51959z M130.25377,189.64069
		c0.14551-0.08984,0.19629-0.28516,0.10449-0.43555c-0.09375-0.15039-0.29102-0.19141-0.43555-0.10352l-0.64551,0.39844
		l0.33105,0.53711L130.25377,189.64069z"/>
	<path fill="#252626" d="M133.06041,188.82037c-0.31738-1.21094,0.40723-2.45117,1.61133-2.76563
		c1.21094-0.31836,2.4502,0.40625,2.7666,1.61523c0.31641,1.20703-0.4082,2.43945-1.61914,2.75586
		C134.61412,190.74225,133.37682,190.02545,133.06041,188.82037z M133.8485,188.61334
		c0.20313,0.77539,0.99707,1.24023,1.76758,1.03711c0.76855-0.20117,1.23242-0.99609,1.0293-1.77148
		c-0.20508-0.78125-0.99805-1.24609-1.76758-1.04297C134.10728,187.03717,133.64244,187.83209,133.8485,188.61334z"/>
	<path fill="#252626" d="M139.619,189.88287l0.12988-3.51953l-1.0625-0.03906l0.0293-0.80273l2.9375,0.10742l-0.0293,0.80273
		l-1.06152-0.03906l-0.12988,3.51953L139.619,189.88287z"/>
	<path fill="#252626" d="M144.82018,190.86334l-0.08105-1.24609l-1.37012-0.42188l-0.77441,0.98438l-0.83105-0.25781
		l2.86523-3.64648l0.7041,0.2168l0.3252,4.63086L144.82018,190.86334z M144.67271,188.75787l-0.07422-1.12305l-0.69141,0.88672
		L144.67271,188.75787z"/>
	<path fill="#252626" d="M146.62096,191.77155l1.82324-3.01563l-0.90918-0.55078l0.41406-0.68555l2.51855,1.52148l-0.41504,0.68555
		l-0.91113-0.55078l-1.82324,3.01758L146.62096,191.77155z"/>
	<path fill="#252626" d="M149.13072,193.57233l2.97266-3.14844l0.59277,0.56055l-2.97266,3.14844L149.13072,193.57233z"/>
	<path fill="#252626" d="M152.41783,193.61725c1.06445-0.66016,2.46191-0.33398,3.12012,0.72461
		c0.66211,1.0625,0.33594,2.46094-0.72754,3.12109c-1.05859,0.66016-2.45215,0.33008-3.11328-0.73438
		C151.03893,195.67194,151.36021,194.2774,152.41783,193.61725z M152.8485,194.30865
		c-0.68164,0.42383-0.89063,1.32031-0.46973,1.99609c0.41992,0.67773,1.31641,0.88672,1.99805,0.46289
		c0.68555-0.42773,0.89551-1.32227,0.47461-2C154.43053,194.09186,153.53502,193.88287,152.8485,194.30865z"/>
	<path fill="#252626" d="M153.79576,202.10748l2.34375-2.49805l-2.7666,0.62695l-0.18066-0.79492l4.21777-0.95313l0.17383,0.76953
		l-2.33691,2.49023l2.75977-0.625l0.17969,0.79297l-4.21777,0.95508L153.79576,202.10748z"/>
</g>
<g>
	<path fill="#252626" d="M26.52915,20.98248h0.59082v0.83496h0.01953c0.21582-0.58203,0.86328-0.97656,1.54785-0.97656
		c1.36035,0,1.77344,0.71387,1.77344,1.86816v3.11523h-0.59082v-3.02148c0-0.83496-0.27246-1.46387-1.22949-1.46387
		c-0.93848,0-1.50098,0.71289-1.52051,1.66113v2.82422h-0.59082V20.98248z"/>
	<path fill="#252626" d="M31.92759,23.56256c0.00977,0.86328,0.45996,1.90527,1.59571,1.90527
		c0.86328,0,1.33203-0.50684,1.51953-1.23926h0.5918c-0.25391,1.09863-0.8916,1.73633-2.11133,1.73633
		c-1.53906,0-2.18653-1.18262-2.18653-2.56152c0-1.27637,0.64746-2.5625,2.18653-2.5625c1.55762,0,2.17676,1.36133,2.12988,2.72168
		H31.92759z M35.06236,23.06549c-0.02832-0.8916-0.58203-1.72656-1.53906-1.72656c-0.9668,0-1.50195,0.84473-1.59571,1.72656
		H35.06236z"/>
	<path fill="#252626" d="M40.37584,25.82428h-0.54395v-0.87305h-0.01855c-0.30957,0.64746-0.94824,1.01367-1.6709,1.01367
		c-1.21973,0-1.69824-0.71289-1.69824-1.83887v-3.14355h0.59082v3.15234c0.02832,0.87305,0.35742,1.33301,1.29492,1.33301
		c1.01367,0,1.45508-0.95703,1.45508-1.94238v-2.54297h0.59082V25.82428z"/>
	<path fill="#252626" d="M42.43345,20.98248h0.98535v0.49707h-0.98535v3.26563c0,0.38477,0.05664,0.61035,0.47949,0.6377
		c0.16895,0,0.33789-0.00879,0.50586-0.02734v0.50586c-0.17773,0-0.34668,0.01953-0.52539,0.01953
		c-0.78809,0-1.05957-0.2627-1.05078-1.08887v-3.3125h-0.84473v-0.49707h0.84473V19.5274h0.59082V20.98248z"/>
	<path fill="#252626" d="M44.27525,20.98248h0.54395v1.13477h0.01855c0.30078-0.77832,0.95703-1.23828,1.83008-1.20117v0.5918
		c-1.07031-0.05664-1.80176,0.73145-1.80176,1.73535v2.58105h-0.59082V20.98248z"/>
	<path fill="#252626" d="M51.3983,23.40338c0,1.38867-0.80664,2.56152-2.29004,2.56152c-1.48242,0-2.28906-1.17285-2.28906-2.56152
		s0.80664-2.5625,2.28906-2.5625C50.59166,20.84088,51.3983,22.01471,51.3983,23.40338z M47.41002,23.40338
		c0,1.03223,0.56348,2.06445,1.69824,2.06445c1.13574,0,1.69922-1.03223,1.69922-2.06445s-0.56348-2.06445-1.69922-2.06445
		C47.97349,21.33892,47.41002,22.37115,47.41002,23.40338z"/>
	<path fill="#252626" d="M52.2733,20.98248h0.59082v0.83496h0.01953c0.21582-0.58203,0.86328-0.97656,1.54785-0.97656
		c1.36035,0,1.77344,0.71387,1.77344,1.86816v3.11523h-0.59082v-3.02148c0-0.83496-0.27246-1.46387-1.22949-1.46387
		c-0.93848,0-1.50098,0.71289-1.52051,1.66113v2.82422H52.2733V20.98248z"/>
	<path fill="#252626" d="M59.93541,20.98248h0.54395v0.91895h0.01855c0.27246-0.65625,0.94824-1.06055,1.72656-1.06055
		c1.47363,0,2.17773,1.19238,2.17773,2.5625s-0.7041,2.56152-2.17773,2.56152c-0.72266,0-1.42578-0.36621-1.67969-1.06055h-0.01855
		v2.71191h-0.59082V20.98248z M62.22447,21.33892c-1.30371,0-1.69824,0.96582-1.69824,2.06445
		c0,1.00391,0.44141,2.06445,1.69824,2.06445c1.12598,0,1.58594-1.06055,1.58594-2.06445S63.35044,21.33892,62.22447,21.33892z"/>
	<path fill="#252626" d="M69.65903,23.40338c0,1.38867-0.80664,2.56152-2.29004,2.56152c-1.48242,0-2.28906-1.17285-2.28906-2.56152
		s0.80664-2.5625,2.28906-2.5625C68.85239,20.84088,69.65903,22.01471,69.65903,23.40338z M65.67075,23.40338
		c0,1.03223,0.56348,2.06445,1.69824,2.06445c1.13574,0,1.69922-1.03223,1.69922-2.06445s-0.56348-2.06445-1.69922-2.06445
		C66.23423,21.33892,65.67075,22.37115,65.67075,23.40338z"/>
	<path fill="#252626" d="M70.05552,20.98248h0.62891l1.23828,4.14746h0.01855l1.18262-4.14746h0.66602l1.18262,4.14746h0.01855
		l1.23926-4.14746h0.62891l-1.55762,4.8418h-0.64844l-1.19141-4.07227h-0.01855l-1.18262,4.07227h-0.64746L70.05552,20.98248z"/>
	<path fill="#252626" d="M77.84751,23.56256c0.00977,0.86328,0.45996,1.90527,1.5957,1.90527
		c0.86328,0,1.33203-0.50684,1.51953-1.23926h0.5918c-0.25391,1.09863-0.8916,1.73633-2.11133,1.73633
		c-1.53906,0-2.18652-1.18262-2.18652-2.56152c0-1.27637,0.64746-2.5625,2.18652-2.5625c1.55762,0,2.17676,1.36133,2.12988,2.72168
		H77.84751z M80.98228,23.06549c-0.02832-0.8916-0.58203-1.72656-1.53906-1.72656c-0.9668,0-1.50195,0.84473-1.5957,1.72656
		H80.98228z"/>
	<path fill="#252626" d="M82.37388,20.98248h0.54395v1.13477h0.01855c0.30078-0.77832,0.95703-1.23828,1.83008-1.20117v0.5918
		c-1.07031-0.05664-1.80176,0.73145-1.80176,1.73535v2.58105h-0.59082V20.98248z"/>
	<path fill="#252626" d="M85.50864,23.56256c0.00977,0.86328,0.45996,1.90527,1.5957,1.90527
		c0.86328,0,1.33203-0.50684,1.51953-1.23926h0.5918c-0.25391,1.09863-0.8916,1.73633-2.11133,1.73633
		c-1.53906,0-2.18652-1.18262-2.18652-2.56152c0-1.27637,0.64746-2.5625,2.18652-2.5625c1.55762,0,2.17676,1.36133,2.12988,2.72168
		H85.50864z M88.64341,23.06549c-0.02832-0.8916-0.58203-1.72656-1.53906-1.72656c-0.9668,0-1.50195,0.84473-1.5957,1.72656
		H88.64341z"/>
	<path fill="#252626" d="M94.29478,25.82428h-0.54395v-0.91992h-0.01855c-0.25391,0.62891-1.02344,1.06055-1.72656,1.06055
		c-1.47363,0-2.17773-1.19141-2.17773-2.56152s0.7041-2.5625,2.17773-2.5625c0.72168,0,1.42578,0.36621,1.67969,1.06055h0.01855
		v-2.77734h0.59082V25.82428z M92.00571,25.46783c1.25684,0,1.69824-1.06055,1.69824-2.06445s-0.44141-2.06445-1.69824-2.06445
		c-1.12695,0-1.58594,1.06055-1.58594,2.06445S90.87876,25.46783,92.00571,25.46783z"/>
	<path fill="#252626" d="M100.64439,20.98248h0.54395v0.81641h0.02832c0.30957-0.58203,0.81641-0.95801,1.58594-0.95801
		c0.6377,0,1.20996,0.31055,1.38867,0.94824c0.29102-0.6377,0.90039-0.94824,1.53906-0.94824
		c1.06055,0,1.60449,0.55371,1.60449,1.69922v3.28418H106.744v-3.25586c0-0.79785-0.30078-1.22949-1.14551-1.22949
		c-1.02246,0-1.31348,0.84473-1.31348,1.74512v2.74023h-0.59082V22.5401c0.00879-0.65723-0.2627-1.20117-1.01367-1.20117
		c-1.02344,0-1.43555,0.76953-1.44531,1.78223v2.70313h-0.59082V20.98248z"/>
	<path fill="#252626" d="M112.79966,23.40338c0,1.38867-0.80664,2.56152-2.29004,2.56152
		c-1.48242,0-2.28906-1.17285-2.28906-2.56152s0.80664-2.5625,2.28906-2.5625
		C111.99302,20.84088,112.79966,22.01471,112.79966,23.40338z M108.81138,23.40338c0,1.03223,0.56348,2.06445,1.69824,2.06445
		c1.13574,0,1.69922-1.03223,1.69922-2.06445s-0.56348-2.06445-1.69922-2.06445
		C109.37486,21.33892,108.81138,22.37115,108.81138,23.40338z"/>
	<path fill="#252626" d="M113.68443,20.98248h0.54395v1.13477h0.01855c0.30078-0.77832,0.95703-1.23828,1.83008-1.20117v0.5918
		c-1.07031-0.05664-1.80176,0.73145-1.80176,1.73535v2.58105h-0.59082V20.98248z"/>
	<path fill="#252626" d="M116.64146,20.98248h0.54395v0.91895h0.01855c0.27246-0.65625,0.94824-1.06055,1.72656-1.06055
		c1.47363,0,2.17773,1.19238,2.17773,2.5625s-0.7041,2.56152-2.17773,2.56152c-0.72266,0-1.42578-0.36621-1.67969-1.06055h-0.01855
		v2.71191h-0.59082V20.98248z M118.93052,21.33892c-1.30371,0-1.69824,0.96582-1.69824,2.06445
		c0,1.00391,0.44141,2.06445,1.69824,2.06445c1.12598,0,1.58594-1.06055,1.58594-2.06445S120.0565,21.33892,118.93052,21.33892z"/>
	<path fill="#252626" d="M122.02036,19.12408h0.59082v2.69336h0.01953c0.21582-0.58203,0.86328-0.97656,1.54785-0.97656
		c1.36035,0,1.77344,0.71387,1.77344,1.86816v3.11523h-0.59082v-3.02148c0-0.83496-0.27246-1.46387-1.22949-1.46387
		c-0.93848,0-1.50098,0.71289-1.52051,1.66113v2.82422h-0.59082V19.12408z"/>
	<path fill="#252626" d="M127.08091,19.12408h0.5918v0.94727h-0.5918V19.12408z M127.08091,20.98248h0.5918v4.8418h-0.5918V20.98248
		z"/>
	<path fill="#252626" d="M128.79967,20.98248h0.59082v0.83496h0.01953c0.21582-0.58203,0.86328-0.97656,1.54785-0.97656
		c1.36035,0,1.77344,0.71387,1.77344,1.86816v3.11523h-0.59082v-3.02148c0-0.83496-0.27246-1.46387-1.22949-1.46387
		c-0.93848,0-1.50098,0.71289-1.52051,1.66113v2.82422h-0.59082V20.98248z"/>
	<path fill="#252626" d="M137.94225,25.42974c-0.00879,1.44531-0.5625,2.32813-2.14844,2.32813
		c-0.9668,0-1.92383-0.43164-2.00879-1.46484h0.5918c0.13086,0.71387,0.75977,0.9668,1.41699,0.9668
		c1.08789,0,1.55762-0.64746,1.55762-1.83008v-0.65625h-0.01855c-0.27246,0.59082-0.84473,0.99414-1.53906,0.99414
		c-1.54883,0-2.18652-1.10742-2.18652-2.48633c0-1.33301,0.78809-2.44043,2.18652-2.44043
		c0.70313,0,1.30371,0.44141,1.53906,0.97656h0.01855v-0.83496h0.59082V25.42974z M137.35143,23.34674
		c0-0.94727-0.44141-2.00781-1.55762-2.00781c-1.12598,0-1.5957,1.00391-1.5957,2.00781c0,0.97559,0.50684,1.92383,1.5957,1.92383
		C136.81627,25.27057,137.35143,24.33209,137.35143,23.34674z"/>
</g>
</svg>
