<svg id="Layer_1" data-name="Layer 1" xmlns="http://www.w3.org/2000/svg" width="15" height="15" viewBox="0 0 15 15">
  <title>button push</title>
  <circle cx="7.5" cy="7.5" r="7.2"/>
  <path d="M7.5.59A6.91,6.91,0,1,1,.59,7.5,6.92,6.92,0,0,1,7.5.59M7.5,0A7.5,7.5,0,1,0,15,7.5,7.5,7.5,0,0,0,7.5,0Z"/>
  <g>
    <circle cx="7.5" cy="7.5" r="6.2" style="fill: #5c5e5e"/>
    <path d="M7.5,1.59A5.91,5.91,0,1,1,1.59,7.5,5.92,5.92,0,0,1,7.5,1.59M7.5,1A6.5,6.5,0,1,0,14,7.5,6.5,6.5,0,0,0,7.5,1Z" style="fill: #424242"/>
  </g>
</svg>
